<?xml version="1.0" standalone="no"?>
<!DOCTYPE svg PUBLIC "-//W3C//DTD SVG 20010904//EN"
 "http://www.w3.org/TR/2001/REC-SVG-20010904/DTD/svg10.dtd">
<svg version="1.0" xmlns="http://www.w3.org/2000/svg"
 width="1080.000000pt" height="577.000000pt" viewBox="0 0 1080.000000 577.000000"
 preserveAspectRatio="xMidYMid meet">
<metadata>
Created by potrace 1.16, written by Peter Selinger 2001-2019
</metadata>
<g transform="translate(0.000000,577.000000) scale(0.100000,-0.100000)"
fill="#000000" stroke="none">
<path d="M0 2885 l0 -2885 5400 0 5400 0 0 2885 0 2885 -5400 0 -5400 0 0
-2885z m4798 2808 c-43 -2 -78 -8 -78 -13 0 -6 -6 -10 -12 -10 -7 0 -33 -18
-57 -40 -24 -21 -48 -37 -52 -35 -4 3 -15 2 -24 -1 -13 -5 -14 -8 -3 -15 9 -6
2 -9 -19 -9 -20 0 -33 -5 -33 -12 0 -9 -2 -10 -8 -2 -10 17 -49 26 -57 15 -3
-6 -28 -13 -55 -17 -28 -4 -50 -10 -50 -14 0 -9 -58 -17 -190 -26 -93 -6 -96
-5 -154 26 -33 18 -72 33 -88 34 -34 3 -47 14 -28 26 11 7 8 10 -12 10 -53 0
-21 48 36 55 21 3 43 8 49 12 28 17 110 21 497 20 228 -1 380 -3 338 -4z
m-420 -439 c72 -42 90 -127 49 -218 -14 -30 -42 -76 -61 -102 -20 -26 -36 -56
-36 -66 0 -11 -29 -52 -65 -90 -42 -45 -71 -88 -82 -119 -10 -26 -21 -45 -25
-43 -4 3 -8 -15 -8 -40 0 -25 -4 -46 -9 -46 -5 0 -19 -30 -31 -67 -12 -38 -31
-76 -42 -85 -17 -15 -17 -18 -4 -18 9 0 16 -8 16 -17 0 -12 18 1 57 41 100
102 141 121 313 137 120 11 131 20 107 86 -9 27 -17 63 -17 81 0 28 5 35 30
43 28 10 34 19 31 46 -1 6 25 25 56 43 70 37 85 35 166 -26 32 -24 64 -44 71
-44 7 0 17 -12 23 -27 11 -27 11 -27 12 14 1 23 6 53 12 67 19 40 4 73 -44 95
-23 11 -49 24 -57 29 -48 28 -68 33 -126 31 -74 -2 -87 4 -47 23 22 10 29 21
31 51 3 30 10 42 40 62 78 53 144 21 207 -101 38 -75 43 -80 83 -88 34 -8 42
-14 42 -33 0 -18 -5 -23 -27 -23 -21 0 -24 -3 -15 -12 7 -7 12 -20 12 -29 0
-10 10 -26 23 -36 40 -33 79 -101 85 -148 3 -35 11 -50 32 -65 15 -11 31 -32
35 -47 7 -30 46 -86 79 -116 15 -13 17 -20 8 -29 -17 -17 -15 -33 3 -18 8 7
17 28 21 49 8 43 30 72 51 64 12 -5 10 -10 -10 -27 -19 -16 -26 -33 -30 -76
l-5 -55 102 -39 c55 -22 107 -44 114 -49 22 -17 25 1 3 24 -11 12 -18 26 -15
31 4 6 19 -6 35 -25 16 -19 49 -45 74 -57 25 -12 45 -26 45 -31 0 -5 14 -9 30
-9 17 0 38 -8 48 -17 10 -10 27 -23 38 -30 37 -23 -32 -15 -72 9 -21 12 -44
23 -53 24 -32 4 -57 13 -114 38 -32 14 -66 26 -77 26 -11 0 -20 4 -20 10 0 5
-7 6 -17 3 -11 -4 -14 -3 -9 5 5 8 0 12 -13 12 -11 0 -23 5 -26 10 -3 6 -11
10 -16 10 -16 0 1 -21 25 -30 15 -6 17 -9 4 -9 -11 -1 -15 -7 -11 -22 4 -13 8
-17 13 -9 4 7 10 0 13 -18 5 -25 12 -30 48 -36 23 -4 39 -9 36 -12 -13 -13 16
-62 46 -76 23 -11 32 -23 33 -42 1 -14 -2 -26 -7 -26 -5 0 -9 -7 -9 -17 0 -9
3 -13 7 -10 3 4 12 2 20 -4 7 -6 22 -9 33 -6 11 3 20 0 20 -6 1 -7 8 0 16 16
8 15 21 27 29 27 8 0 17 12 21 28 10 45 13 52 24 52 6 0 10 -8 8 -17 -2 -12 4
-19 20 -21 12 -2 22 -9 22 -17 0 -9 7 -11 22 -7 14 3 19 2 14 -6 -4 -7 -1 -12
7 -12 8 0 17 7 20 15 6 14 42 14 87 0 11 -4 20 -2 20 4 0 6 7 11 15 11 8 0 15
-7 15 -15 0 -17 16 -20 25 -5 10 16 19 11 33 -17 16 -36 15 -47 -7 -67 -14
-13 -28 -15 -58 -10 -26 4 -43 2 -47 -5 -4 -6 -24 -18 -44 -26 -32 -14 -37
-14 -51 0 -8 8 -15 30 -16 48 0 29 -3 32 -29 30 -39 -3 -43 -9 -22 -44 14 -24
15 -33 5 -45 -14 -17 -4 -211 12 -231 6 -7 8 -17 4 -23 -3 -5 -3 -15 1 -22 5
-7 11 -5 21 7 12 17 13 16 13 -16 0 -19 7 -42 14 -51 16 -22 9 -166 -10 -185
-9 -10 -13 -10 -16 -1 -3 7 -7 3 -10 -9 -4 -13 0 -27 8 -34 10 -8 14 -8 14 0
0 19 18 12 25 -9 9 -29 20 -25 65 20 22 22 47 40 55 40 8 0 15 4 15 9 0 5 24
17 53 26 28 9 59 19 67 21 9 3 6 -4 -8 -19 -12 -13 -22 -27 -22 -30 0 -4 24
-6 53 -5 47 3 52 1 55 -19 4 -27 8 -27 42 -10 58 30 60 30 81 -18 11 -25 23
-45 27 -45 4 0 9 -21 10 -47 2 -48 22 -88 22 -44 l0 23 31 -26 c17 -14 35 -26
41 -26 5 0 21 -9 35 -20 14 -11 34 -20 44 -20 11 0 19 -4 19 -10 0 -13 -6 -13
-31 0 -13 8 -19 7 -19 -1 0 -6 9 -13 20 -16 12 -3 19 -11 17 -17 -2 -6 0 -20
6 -30 9 -18 10 -18 28 5 l19 24 0 -32 c0 -23 -5 -33 -15 -33 -20 0 -20 -49 0
-64 9 -7 20 -38 25 -76 5 -36 16 -87 24 -115 8 -27 17 -70 21 -95 4 -25 15
-64 26 -87 10 -24 19 -49 19 -57 0 -8 7 -19 17 -24 14 -9 14 -10 -5 -16 -23
-8 -28 -25 -13 -41 4 -6 11 -25 14 -42 6 -29 4 -33 -16 -34 -59 -3 -199 -7
-260 -8 -43 -1 -66 -5 -62 -11 3 -5 -1 -10 -9 -10 -9 0 -16 -4 -16 -10 0 -5
12 -10 26 -10 14 0 23 -4 19 -10 -3 -5 -1 -10 5 -10 6 0 8 -4 5 -10 -3 -5 0
-10 7 -10 8 0 22 -15 32 -32 41 -72 129 -154 186 -173 3 -1 13 -5 22 -9 37
-17 53 -3 54 47 1 26 -2 50 -7 53 -11 6 -10 119 1 154 5 17 8 -3 9 -63 1 -82
18 -155 38 -158 29 -5 63 -4 63 2 0 4 12 9 28 12 15 3 40 9 55 13 20 5 42 0
73 -16 45 -22 73 -23 161 -5 52 11 80 -1 108 -49 14 -24 34 -51 45 -61 11 -10
20 -23 20 -30 0 -6 11 -22 25 -35 14 -13 25 -33 25 -44 0 -15 13 -27 40 -40
46 -22 52 -35 69 -143 6 -45 25 -81 52 -103 4 -3 9 -14 13 -26 6 -19 12 -20
94 -17 85 3 140 -2 129 -13 -3 -3 -47 -9 -97 -14 -53 -4 -95 -12 -99 -19 -9
-14 -189 -72 -195 -62 -2 3 -6 26 -10 51 -4 25 -17 63 -29 85 -26 46 -10 44
-212 22 -77 -9 -230 -23 -340 -32 -313 -24 -442 -35 -545 -45 -52 -6 -164 -13
-249 -17 -132 -5 -157 -9 -173 -25 -10 -10 -16 -23 -12 -29 9 -15 -25 -79 -41
-79 -8 0 -15 5 -15 10 0 6 -9 10 -20 10 -11 0 -20 5 -20 10 0 6 -8 10 -17 10
-10 0 -29 14 -43 30 -50 61 -73 -2 -55 -157 l8 -73 31 1 c24 0 27 2 12 8 -17
6 -16 9 10 18 61 23 64 23 64 3 0 -11 -4 -28 -9 -38 -5 -9 -16 -34 -25 -56
l-17 -38 -57 7 c-64 8 -65 1 -3 -18 l41 -12 -15 -29 c-8 -15 -15 -35 -15 -43
0 -8 -7 -27 -15 -43 -14 -28 -20 -30 -70 -30 -50 0 -55 2 -56 23 l-2 22 -4
-22 c-3 -14 -12 -23 -22 -23 -10 0 -32 -3 -48 -6 -25 -5 -31 -2 -41 21 -7 15
-11 29 -10 30 2 1 25 8 51 15 41 11 50 11 58 -1 18 -29 9 11 -12 51 -21 40
-34 54 -23 25 4 -9 0 -15 -10 -15 -9 0 -16 4 -16 8 0 5 -12 12 -26 18 l-26 9
21 25 c17 21 22 23 31 10 8 -13 10 -13 10 3 0 20 1 20 37 6 41 -16 107 -24 99
-11 -3 6 -14 11 -24 11 -35 1 -132 25 -132 33 0 4 -7 8 -15 8 -14 0 -13 3 1
25 13 20 23 24 53 22 20 -1 41 -8 47 -16 6 -8 16 -12 22 -10 7 2 -1 17 -18 36
-26 27 -30 41 -35 103 -4 47 -2 77 6 86 6 8 8 24 5 36 -4 13 -9 41 -12 63 -3
22 -11 43 -17 48 -9 6 -9 10 1 14 30 12 6 22 -71 28 l-84 7 0 29 c0 29 21 40
30 17 4 -9 6 -7 6 3 1 9 -8 24 -18 33 -13 12 -20 34 -23 72 -1 30 -2 54 0 54
9 0 66 -42 126 -92 50 -41 73 -55 80 -47 12 11 -46 68 -116 116 -21 14 -38 30
-38 34 0 5 -6 9 -14 9 -33 0 -44 29 -51 137 -3 60 -13 191 -21 293 -8 102 -14
208 -14 237 l0 52 53 14 c80 23 125 29 207 29 l75 1 -55 7 c-73 10 -163 2
-227 -20 l-52 -18 -5 37 c-3 20 -8 66 -12 104 -6 59 -9 67 -27 67 -19 0 -20
-4 -14 -82 l6 -83 -49 -1 c-53 -1 -90 -23 -86 -51 2 -9 17 -29 35 -44 31 -26
33 -31 42 -130 5 -57 18 -174 29 -260 11 -86 20 -159 20 -162 0 -9 -103 60
-135 91 -42 41 -88 70 -102 65 -9 -3 -10 4 -2 29 5 18 9 44 9 59 0 17 10 33
30 48 23 16 30 29 28 49 -2 15 -7 30 -12 34 -6 4 7 32 28 63 21 31 35 59 32
63 -3 3 -6 1 -6 -5 0 -6 -9 -9 -20 -6 -30 8 -28 75 3 97 l22 17 -22 -5 c-13
-2 -23 -1 -23 2 1 15 64 76 67 65 2 -6 13 -8 24 -6 15 4 19 12 16 27 -3 11 -1
30 3 41 8 19 9 19 9 1 1 -25 6 -19 15 17 5 20 3 27 -9 27 -8 0 -15 -6 -15 -12
-1 -22 -17 15 -24 54 -7 36 -6 37 31 47 30 8 40 7 54 -5 14 -12 17 -13 22 -1
7 20 217 34 229 15 6 -10 10 -7 14 10 4 12 10 22 15 22 5 0 9 -10 10 -22 0
-13 3 -17 6 -10 2 6 16 12 30 12 22 0 24 2 12 16 -33 40 -124 62 -166 40 -16
-7 -53 -17 -83 -21 l-55 -7 3 64 3 63 142 0 c124 0 146 2 171 20 19 13 24 20
15 23 -23 7 -59 44 -80 82 -26 46 -56 60 -94 44 -40 -17 -152 -18 -158 -1 -4
9 -8 9 -15 -2 -13 -19 -18 8 -38 214 -19 199 -19 203 -27 212 -4 3 -7 19 -7
34 0 33 -21 31 -39 -4 -6 -12 -20 -38 -31 -57 -19 -33 -21 -34 -26 -12 -4 12
-10 22 -15 22 -4 0 -10 15 -12 33 -2 17 -3 8 -2 -20 1 -29 0 -53 -2 -53 -8 0
-49 27 -71 46 -20 18 -21 22 -8 27 9 4 16 12 16 19 0 10 -2 10 -9 0 -4 -7 -12
-12 -17 -11 -5 1 -22 -3 -38 -10 -16 -6 -38 -13 -50 -16 -11 -2 -23 -4 -26 -5
-3 -2 -8 -2 -12 -1 -4 0 -15 -13 -24 -30 -12 -25 -14 -37 -5 -56 9 -20 14 -22
32 -13 12 7 33 9 47 5 25 -7 26 -8 7 -15 -15 -7 -10 -9 22 -9 25 -1 45 -7 50
-15 4 -8 17 -15 28 -18 18 -3 17 -6 -13 -33 -19 -17 -39 -30 -45 -30 -7 0 -17
-7 -23 -15 -9 -10 -28 -13 -68 -11 -100 5 -161 4 -181 -2 -11 -3 -26 -6 -33
-6 -7 -1 -10 -6 -6 -13 5 -8 2 -9 -12 -4 -10 4 -15 4 -11 0 4 -4 0 -16 -9 -26
-16 -17 -18 -15 -41 30 -18 35 -23 56 -19 85 6 36 5 37 -25 37 -16 0 -39 5
-50 10 -15 8 -19 7 -19 -4 0 -7 7 -16 15 -20 27 -10 17 -29 -11 -22 -33 9 -28
-13 7 -31 16 -9 19 -13 8 -13 -22 0 -44 -26 -29 -35 15 -9 12 -32 -6 -39 -8
-3 -12 -2 -9 4 3 6 0 13 -9 16 -8 3 -12 12 -9 21 5 13 0 14 -28 8 -19 -4 -38
-8 -43 -9 -15 -2 -35 45 -42 101 -3 29 -10 53 -15 53 -5 0 -9 22 -9 50 0 53
21 78 51 59 20 -12 29 -11 29 4 0 15 -102 109 -147 136 -15 10 -33 16 -39 14
-11 -4 -44 24 -141 120 -24 22 -43 36 -43 31 0 -6 34 -44 76 -84 62 -60 74
-77 65 -90 -41 -57 -43 -78 -32 -272 8 -161 8 -192 -5 -217 -23 -46 -30 -101
-13 -111 18 -12 26 -5 45 36 12 26 15 50 11 92 l-6 57 27 -54 c18 -36 42 -65
72 -86 37 -27 45 -37 43 -61 -1 -16 -12 -37 -23 -46 -12 -9 -24 -33 -27 -52
-5 -32 -2 -37 35 -63 54 -37 59 -65 68 -334 5 -155 10 -220 20 -236 20 -32 17
-43 -9 -43 -13 0 -32 -9 -42 -20 -19 -20 -19 -20 -31 10 -18 41 -74 68 -110
51 -23 -10 -25 -16 -21 -49 3 -20 9 -49 12 -64 4 -15 4 -36 0 -45 -5 -10 -7
-29 -6 -43 3 -39 -17 -4 -25 45 -7 46 -20 58 -46 44 -16 -8 -18 -5 -18 23 0
18 7 57 15 87 18 70 10 150 -15 144 -24 -6 -33 12 -20 37 7 13 7 20 0 20 -5 0
-10 -5 -10 -11 0 -19 -18 1 -22 26 -5 26 7 45 15 23 2 -7 8 -10 12 -6 8 8 -24
98 -36 98 -4 0 -11 -4 -14 -10 -12 -19 -24 -10 -51 35 -14 25 -29 45 -33 45
-10 0 -31 -46 -31 -66 0 -8 11 -25 25 -37 14 -12 33 -47 43 -77 11 -37 24 -58
40 -65 12 -5 22 -14 22 -19 0 -5 16 -24 36 -43 30 -27 35 -38 30 -60 -3 -16
-11 -59 -19 -98 -10 -55 -17 -71 -33 -74 -10 -2 -23 -9 -27 -17 -4 -8 -13 -14
-19 -14 -7 0 -7 4 1 13 6 8 8 17 4 20 -3 4 6 7 20 7 22 0 27 5 26 23 0 12 -3
16 -6 10 -2 -7 -14 -13 -25 -13 -16 0 -19 5 -15 21 4 15 0 23 -14 26 -19 5
-24 24 -20 84 0 17 -6 30 -17 34 -31 14 -42 14 -42 -1 0 -34 -58 -6 -73 36 -4
11 -6 10 -6 -4 -1 -15 -4 -16 -16 -6 -16 14 -18 1 -17 -105 1 -40 -2 -33 -14
40 -16 93 -17 104 -34 290 -18 203 -21 228 -25 234 -2 4 -8 54 -14 111 -6 58
-16 135 -22 171 -10 63 -12 66 -35 61 -13 -2 -27 -8 -30 -13 -3 -5 -17 -9 -31
-9 -15 0 -38 -13 -59 -34 -32 -32 -34 -38 -34 -99 0 -35 7 -81 15 -100 8 -20
15 -50 15 -67 0 -31 -25 -90 -43 -101 -5 -4 -9 -19 -9 -34 0 -19 -7 -29 -25
-36 -27 -10 -26 -5 -6 -103 4 -21 2 -27 -6 -22 -8 6 -10 0 -5 -18 10 -40 -4
-99 -22 -92 -10 4 -14 -3 -14 -27 0 -18 -4 -39 -9 -46 -8 -12 -12 -10 -22 12
-13 28 -49 38 -49 14 0 -8 -15 -22 -34 -32 -32 -18 -56 -50 -56 -78 0 -7 -18
-25 -40 -40 -22 -16 -52 -45 -67 -65 -16 -20 -34 -41 -40 -45 -7 -4 -13 -16
-13 -26 0 -10 -15 -41 -34 -69 -65 -94 -88 -177 -62 -227 9 -17 16 -36 16 -42
0 -7 4 -13 10 -13 5 0 -20 -30 -55 -66 -36 -37 -65 -71 -65 -75 0 -5 -10 -9
-22 -9 -13 0 -28 -4 -34 -8 -19 -12 -44 -76 -41 -107 1 -18 -3 -30 -11 -30 -7
0 -16 -5 -20 -11 -4 -6 -30 -17 -59 -24 l-51 -13 20 -28 c12 -15 34 -33 49
-40 16 -6 29 -15 29 -19 0 -5 8 -16 17 -26 21 -21 29 -110 12 -130 -20 -24
-49 -17 -49 11 0 14 5 25 10 25 14 0 13 27 -2 36 -6 4 -8 3 -5 -2 3 -6 2 -16
-3 -24 -7 -12 -13 -10 -29 9 -16 18 -27 22 -46 17 -14 -4 -24 -10 -21 -15 7
-10 -31 -41 -51 -41 -9 0 -25 7 -35 16 -16 16 -18 16 -24 0 -3 -9 -14 -16 -23
-16 -22 0 -62 -42 -53 -55 16 -22 72 -45 111 -45 44 0 48 -5 53 -80 3 -35 3
-35 56 -38 28 -2 52 -6 52 -11 0 -4 47 -6 105 -4 99 2 105 1 107 -17 7 -78 8
-76 -41 -91 -41 -12 -43 -14 -18 -17 33 -4 120 54 126 83 2 11 10 30 19 43 16
25 16 25 157 19 135 -5 195 -18 195 -42 0 -5 4 -4 9 4 14 22 39 22 46 0 4 -10
4 -23 1 -28 -3 -5 0 -14 8 -20 7 -6 16 -34 20 -62 6 -47 8 -50 34 -47 20 2 26
8 25 23 -8 66 30 86 67 35 17 -25 29 -30 63 -31 l42 -2 -40 -7 c-33 -6 -27 -7
35 -8 74 0 131 4 345 28 l111 12 69 -46 70 -46 -45 0 c-25 0 -79 -9 -120 -19
-41 -11 -106 -22 -145 -26 -318 -30 -376 -38 -660 -91 -77 -15 -185 -29 -240
-31 -134 -7 -149 -8 -162 -16 -7 -4 -54 -12 -105 -17 -51 -5 -127 -14 -168
-20 -104 -15 -201 -29 -225 -34 -11 -2 -40 -4 -64 -5 -24 0 -41 -4 -37 -8 15
-15 -116 -33 -289 -38 -99 -4 -207 -11 -240 -15 -66 -10 -440 -47 -523 -52
-44 -3 -52 0 -52 14 0 10 14 24 30 33 17 9 30 20 30 25 0 6 7 10 15 10 8 0 15
6 15 13 0 6 3 22 6 34 5 17 2 23 -10 23 -21 0 -20 12 5 44 15 19 30 26 55 26
29 0 34 4 34 23 0 19 13 27 91 56 50 19 104 45 119 57 31 27 48 90 21 78 -40
-16 -124 -35 -216 -48 -329 -48 -418 -57 -432 -42 -15 14 31 36 76 36 47 0 78
15 119 57 12 13 33 23 47 23 28 0 32 9 13 29 -20 19 17 41 71 42 50 1 48 2
-16 19 -49 12 -53 24 -18 52 24 19 28 40 12 66 -13 20 -25 14 -29 -15 -2 -18
-10 -29 -23 -32 -11 -2 -26 -12 -33 -22 -16 -23 -32 -16 -32 14 1 23 52 87 70
87 6 0 10 26 10 60 0 36 4 60 11 60 13 0 39 25 39 38 0 5 -11 18 -25 28 -17
13 -21 20 -12 26 8 5 9 11 2 15 -15 11 -36 63 -26 63 5 0 31 -18 57 -40 27
-22 52 -40 55 -40 4 0 12 14 18 31 6 17 15 28 20 24 10 -5 16 11 23 60 2 12
12 21 26 23 13 2 24 12 26 25 3 12 7 34 10 49 12 55 -2 84 -55 107 -49 21 -66
51 -30 51 29 0 37 21 14 39 -39 32 -42 51 -17 102 13 26 24 56 24 68 0 11 7
41 15 65 14 40 14 49 2 73 -8 16 -20 51 -26 79 -11 46 -10 60 10 124 17 56 20
86 16 136 -6 59 -1 75 16 57 4 -3 25 -7 47 -8 45 -2 44 4 -3 20 -42 13 -53 55
-13 48 17 -4 26 -1 26 7 0 7 -7 10 -17 6 -11 -5 -23 1 -35 16 -17 22 -18 22
-18 3 -1 -20 -1 -20 -16 0 -8 11 -13 24 -10 31 2 6 0 17 -6 25 -8 11 -9 11 -4
-3 3 -10 1 -20 -4 -23 -5 -3 -12 20 -15 50 -7 50 -5 58 18 80 l25 25 31 -35
c17 -20 28 -41 25 -47 -5 -7 -15 -2 -30 15 -13 15 -29 27 -36 27 -7 0 -2 -7
10 -16 12 -8 22 -21 22 -27 0 -7 9 -18 21 -25 18 -11 20 -11 16 0 -2 7 2 21
11 30 13 16 16 16 26 2 9 -12 12 9 15 94 2 106 1 111 -20 117 -14 5 -25 2 -30
-6 -5 -8 -9 -9 -9 -4 0 23 18 37 39 30 11 -3 21 -2 21 3 0 12 -29 24 -41 17
-10 -7 -59 23 -59 36 0 5 9 9 20 9 11 0 20 7 20 15 0 11 -9 15 -28 13 -28 -2
-29 -4 -21 -37 10 -46 6 -49 -18 -14 -19 27 -43 114 -43 154 0 10 -13 47 -29
81 -47 102 -69 309 -35 322 12 5 15 17 11 56 -5 48 -4 49 17 39 11 -6 42 -29
68 -50 26 -22 51 -39 56 -39 5 0 15 -7 22 -15 7 -8 22 -15 34 -15 11 0 34 -7
50 -15 15 -8 39 -15 52 -15 27 0 32 -17 9 -26 -29 -12 -14 -22 48 -34 34 -6
94 -18 132 -26 39 -8 104 -17 145 -20 41 -3 84 -10 95 -15 11 -5 38 -13 60
-17 30 -6 39 -13 37 -25 -2 -10 4 -17 13 -17 8 0 15 6 15 14 0 20 70 9 87 -13
10 -14 12 -14 18 2 7 16 48 26 43 10 -2 -5 5 -19 14 -32 15 -21 18 -22 24 -7
4 11 13 15 25 11 14 -5 19 -1 19 12 0 32 18 -6 31 -65 l11 -54 24 23 c16 15
21 26 14 33 -15 15 -12 36 5 36 8 0 15 7 15 15 0 19 14 19 30 0 9 -11 5 -31
-20 -99 -32 -84 -33 -85 -72 -91 -29 -5 -37 -10 -29 -18 15 -15 14 -27 -4 -27
-7 0 -18 7 -23 16 -8 14 -44 16 -99 5 -2 -1 -3 -21 -3 -46 0 -43 1 -45 28 -45
41 0 102 -54 95 -83 -9 -41 -13 -72 -7 -57 4 8 13 19 20 23 8 4 14 19 14 31 0
28 39 43 69 27 19 -11 61 -4 61 10 0 15 65 69 83 69 12 0 17 -8 17 -28 0 -16
3 -32 7 -35 8 -9 32 24 33 46 0 21 37 97 48 97 4 0 18 24 31 53 13 28 28 59
32 67 18 30 91 203 160 375 28 72 59 149 70 171 10 23 28 67 40 99 19 51 20
59 6 73 -19 19 -174 31 -233 18 -41 -9 -42 -10 -72 -90 -31 -80 -36 -98 -33
-124 2 -19 21 -4 21 17 0 27 31 84 40 74 15 -14 23 -83 11 -83 -6 0 -11 -13
-11 -29 0 -28 -2 -29 -43 -26 -42 3 -43 2 -61 -41 -10 -24 -22 -44 -26 -44 -4
0 -11 -12 -14 -26 -6 -22 -11 -25 -36 -22 -17 3 -30 2 -31 -1 -7 -48 -6 -54 6
-37 12 15 13 15 19 0 4 -10 0 -18 -13 -21 -12 -3 -17 -11 -14 -19 10 -27 -79
-9 -157 31 -25 13 -27 17 -17 39 7 14 17 22 26 18 11 -4 13 0 9 16 -4 12 -2
22 2 22 4 0 6 9 3 20 -3 11 0 27 7 35 10 12 9 16 -6 21 -11 4 -37 15 -59 24
-22 10 -71 30 -110 45 -38 15 -74 31 -78 35 -5 4 -17 41 -28 81 -11 40 -31 91
-47 113 -46 66 -62 96 -52 96 13 0 1 32 -17 47 -10 8 -13 23 -10 48 3 20 7 37
8 39 2 1 17 7 32 14 24 10 26 15 17 32 -6 11 -17 20 -25 20 -8 0 -16 8 -16 18
-1 9 -2 22 -4 27 -1 6 -3 27 -3 49 l-2 39 -55 -7 c-34 -4 -55 -2 -55 4 0 5 -6
7 -14 4 -8 -3 -17 -1 -21 5 -10 17 -33 13 -38 -6 -4 -14 -5 -12 -6 5 0 12 -5
22 -11 22 -5 0 -10 7 -10 15 0 21 18 19 23 -2 4 -17 4 -17 12 1 5 11 4 21 -3
25 -6 4 -11 39 -11 83 0 88 -13 127 -38 107 -12 -10 -19 -10 -35 0 -36 23 -38
-3 -3 -41 23 -24 30 -38 22 -41 -9 -4 -8 -8 3 -16 13 -9 13 -11 -2 -11 -17 0
-21 -15 -21 -82 0 -11 -7 -18 -18 -18 -10 0 -21 -5 -25 -11 -3 -6 -9 -7 -13
-3 -17 24 -41 34 -65 28 -20 -5 -26 -12 -26 -35 0 -27 -3 -29 -38 -29 -31 0
-41 -5 -51 -24 -15 -26 -8 -46 15 -46 16 0 18 -23 4 -51 -7 -11 -7 -19 -1 -19
9 0 24 -50 21 -67 -1 -5 -8 -7 -17 -5 -13 3 -14 -2 -8 -25 5 -15 8 -53 9 -85
1 -31 4 -54 9 -51 4 2 7 -5 7 -16 0 -11 5 -23 11 -27 27 -16 -75 -38 -274 -59
-51 -6 -61 -11 -75 -35 -14 -25 -21 -27 -52 -23 -19 3 -48 12 -64 20 -15 8
-44 16 -64 18 -19 2 -38 8 -41 13 -3 5 -16 12 -28 16 -31 10 -29 24 2 18 32
-6 32 6 0 18 -14 5 -25 14 -25 20 0 6 11 5 28 -4 44 -22 124 -47 167 -52 22
-2 51 -7 65 -10 23 -5 24 -5 8 13 -9 10 -23 56 -32 103 -29 167 -46 296 -46
345 0 28 -6 79 -14 115 -14 69 -30 224 -20 202 17 -37 114 -54 167 -29 27 12
51 65 41 91 -7 18 16 34 62 44 39 8 39 8 45 62 3 30 6 48 7 40 2 -12 58 -25
255 -58 404 -68 471 -81 495 -93 41 -22 25 -32 -43 -26 -88 8 -94 5 -85 -44 4
-22 9 -41 11 -42 23 -16 63 -26 73 -18 6 5 26 11 45 13 l35 3 18 -150 c9 -82
23 -195 29 -250 6 -55 17 -136 25 -180 17 -96 34 -113 82 -79 12 8 22 12 22 7
0 -4 5 -1 10 7 6 9 8 63 4 142 -7 148 -12 142 113 159 69 10 283 13 403 6 l45
-2 2 63 c1 34 -2 62 -8 62 -21 0 -7 18 18 25 35 8 53 23 53 43 0 8 16 30 37
48 l36 32 -13 47 c-7 26 -24 58 -37 71 l-24 24 24 0 c12 0 28 5 33 10 6 6 26
18 46 29 35 17 37 17 53 -1 18 -21 50 -20 50 1 0 8 -18 19 -39 25 -22 6 -41
16 -43 22 -2 6 16 24 39 40 24 16 45 32 46 37 2 4 15 7 29 7 39 0 21 25 -21
28 -23 2 -36 8 -33 15 3 8 31 12 83 12 92 0 102 12 59 69 -29 38 -19 58 18 33
29 -20 78 -69 97 -97 12 -17 21 -21 38 -16 12 4 22 14 22 22 0 21 30 17 56 -7
21 -19 26 -20 71 -9 88 22 119 23 157 5 25 -12 47 -15 72 -10 37 6 92 39 107
62 4 7 24 20 45 30 20 10 65 46 98 80 34 35 68 63 75 63 8 0 42 25 76 55 111
100 181 125 241 89z m-3523 -49 c14 -13 25 -32 25 -41 0 -41 24 -94 42 -94 21
0 21 2 7 -39 -16 -44 12 -100 46 -93 38 7 40 -17 4 -48 -33 -28 -73 -39 -83
-22 -9 16 -110 14 -131 -2 -11 -9 -41 -16 -68 -16 l-48 0 51 67 c57 75 83 147
74 204 -4 21 -3 54 0 74 6 29 11 35 32 35 14 0 36 -11 49 -25z m4565 -83 c14
-9 34 -24 45 -34 11 -9 45 -36 75 -60 36 -29 56 -53 58 -69 3 -23 -2 -26 -55
-37 -70 -14 -220 -11 -249 6 -38 21 -46 80 -18 135 36 71 93 95 144 59z m3285
-136 c11 1 29 5 40 9 16 6 17 5 5 -4 -10 -7 -11 -11 -2 -11 6 0 12 -5 12 -11
0 -6 -12 -9 -27 -7 -41 5 -44 -29 -4 -43 17 -6 31 -15 31 -21 0 -5 4 -7 9 -3
6 3 19 -5 30 -17 17 -17 21 -35 21 -85 0 -54 3 -64 22 -74 l23 -12 -25 -10
c-14 -5 -34 -13 -45 -18 -11 -5 -32 -13 -47 -18 -25 -9 -26 -13 -18 -42 5 -18
8 -34 6 -37 -8 -8 -53 29 -64 53 -15 33 -32 32 -33 -2 0 -17 -6 -4 -13 29 -9
43 -20 65 -44 86 -18 16 -32 36 -32 44 0 15 -27 45 -33 37 -22 -31 -35 -58
-29 -63 12 -12 9 -79 -4 -105 -19 -37 -17 -58 6 -64 22 -6 26 -31 10 -71 -13
-36 -24 -32 -41 15 -13 36 -22 44 -64 60 -28 11 -62 19 -77 19 -15 0 -30 6
-35 13 -7 12 -9 16 -12 36 -2 14 -38 20 -50 8 -8 -8 -14 -8 -23 1 -14 14 -14
14 27 16 37 1 46 30 13 40 -14 5 -18 9 -11 12 13 6 34 46 51 102 9 26 8 32 -4
32 -7 0 -14 7 -14 16 0 9 -9 18 -20 21 -16 4 -18 9 -9 24 14 26 26 24 61 -11
16 -16 34 -30 39 -30 5 0 12 -13 16 -30 7 -36 33 -41 33 -6 0 15 7 26 20 29
17 4 20 0 20 -31 0 -35 1 -35 14 -16 17 24 19 87 2 77 -6 -4 -5 1 3 10 17 22
18 22 46 -9 23 -25 25 -25 25 -7 0 30 18 41 90 52 36 6 67 16 69 22 2 6 6 7
10 2 3 -5 15 -8 26 -7z m-1737 -29 c-16 -13 -28 -27 -28 -32 0 -19 -35 -45
-61 -45 -38 0 -59 -10 -59 -27 0 -9 -6 -13 -15 -9 -18 7 -22 -39 -4 -50 8 -4
7 -9 -2 -16 -9 -6 3 -8 37 -5 46 3 51 2 47 -14 -3 -10 2 -26 11 -34 9 -9 16
-27 16 -40 0 -13 5 -27 10 -30 16 -10 12 -45 -6 -45 -14 0 -16 -8 -10 -50 9
-64 15 -80 32 -80 8 0 14 -5 14 -10 0 -14 41 7 56 28 10 13 16 9 39 -29 15
-24 34 -48 42 -52 7 -5 11 -12 8 -18 -4 -5 1 -9 9 -9 9 0 16 4 16 9 0 5 13 23
29 40 29 31 71 42 71 19 0 -7 41 -26 93 -43 l92 -30 50 -90 50 -90 6 55 c5 48
6 50 8 15 0 -22 4 -50 7 -63 5 -17 3 -23 -7 -20 -22 5 -24 -4 -9 -57 12 -44
15 -47 20 -25 4 17 9 1 14 -50 3 -41 12 -119 18 -172 l11 -97 53 -17 c30 -9
62 -23 71 -30 17 -13 17 -13 1 -14 -19 0 -22 -17 -12 -69 4 -17 10 -28 15 -26
4 3 10 1 14 -5 3 -5 -1 -10 -9 -10 -9 0 -16 -4 -16 -10 0 -5 -3 -9 -7 -9 -20
4 -93 -15 -93 -24 0 -22 -13 4 -16 33 -4 37 -33 82 -48 77 -6 -3 -9 -11 -7
-18 2 -8 5 -32 7 -54 l4 -40 -17 48 c-20 58 -47 66 -37 10 4 -21 12 -41 18
-45 12 -8 1 -23 -12 -15 -4 4 -14 24 -22 46 -10 32 -18 41 -35 41 -19 0 -28
13 -51 68 -15 37 -31 72 -36 78 -4 5 -14 39 -22 73 -17 72 -22 79 -38 63 -8
-8 -15 -68 -21 -155 -11 -202 -10 -243 8 -325 4 -18 8 -89 9 -158 1 -96 -1
-124 -11 -124 -7 0 -13 7 -13 16 0 15 -15 16 -144 9 -101 -5 -146 -4 -150 4
-4 6 0 11 8 11 18 0 22 16 6 22 -7 2 -5 11 4 23 13 18 18 19 90 6 80 -13 116
-9 116 14 0 8 -11 22 -24 30 -13 9 -30 30 -37 47 -11 26 -10 35 6 64 10 19 25
34 34 34 9 0 12 3 6 8 -5 4 -10 12 -11 17 -1 29 -17 85 -24 85 -4 0 -2 -20 5
-45 9 -27 10 -47 4 -50 -5 -4 -10 4 -10 17 -1 19 -3 18 -9 -7 -5 -21 -8 -24
-10 -10 l-1 20 -9 -20 c-7 -18 -9 -18 -20 10 -19 48 -24 85 -11 85 6 0 11 -6
12 -12 0 -7 4 -4 9 7 8 19 9 19 9 -2 1 -12 5 -24 10 -27 4 -3 6 6 3 19 -3 20
0 25 15 25 11 0 25 -10 31 -22 11 -22 11 -21 6 5 -11 48 13 29 29 -25 15 -48
16 -49 11 -13 -3 22 -7 58 -9 80 -5 80 -58 135 -128 135 -39 0 -63 -12 -130
-63 -30 -23 -35 -32 -26 -43 6 -8 24 -14 40 -14 19 0 29 -5 29 -15 0 -10 10
-15 28 -15 26 0 29 -4 45 -67 9 -38 19 -78 23 -90 5 -18 0 -23 -33 -32 -62
-17 -70 -15 -78 25 -10 57 -26 82 -54 89 -14 4 -47 19 -72 35 -25 15 -63 30
-85 33 -78 11 -122 27 -151 54 -16 16 -47 34 -68 42 -21 7 -60 27 -87 42 -27
16 -54 27 -59 24 -5 -3 -6 1 -3 9 4 11 0 16 -11 16 -10 0 -13 -5 -9 -12 5 -7
3 -8 -5 -3 -9 5 -10 10 -2 18 19 19 12 31 -8 13 -11 -10 -26 -15 -33 -11 -17
9 48 -53 90 -86 30 -23 32 -28 21 -51 -6 -15 -20 -28 -29 -31 -26 -7 -59 -86
-67 -157 -3 -33 -10 -63 -16 -67 -5 -3 -6 3 -2 16 8 25 -3 26 -50 7 -19 -8
-35 -12 -35 -7 0 4 -19 7 -42 7 -34 -1 -43 3 -46 18 -2 10 1 22 8 26 9 5 9
116 1 459 -15 642 -15 795 4 831 9 17 21 30 28 31 6 1 35 3 62 5 59 5 78 11
71 22 -3 5 -42 3 -87 -4 -46 -8 -84 -12 -85 -11 -6 9 -11 78 -5 81 4 3 43 10
87 15 79 10 445 60 624 85 52 8 106 14 120 14 l25 1 -27 -22z m2702 -60 c0
-13 5 -17 15 -13 11 4 15 -1 15 -18 0 -14 -5 -26 -10 -28 -12 -4 9 -274 41
-521 11 -87 22 -199 24 -250 l4 -92 -14 95 c-30 206 -46 341 -55 480 -16 228
-29 342 -45 374 -15 29 -15 29 5 11 11 -10 20 -27 20 -38z m-2373 -33 c12 -16
23 -40 24 -54 0 -23 1 -23 9 -5 16 38 10 -36 -8 -105 -17 -64 -19 -65 -49 -62
-17 2 -34 -2 -38 -7 -3 -6 -16 -11 -27 -11 -21 0 -21 0 2 24 32 35 17 64 -27
54 -5 0 -7 -8 -5 -17 1 -10 -11 -24 -32 -35 -44 -23 -76 -9 -76 33 0 16 -3 44
-6 62 -4 23 -3 30 4 21 5 -8 12 -13 15 -12 4 1 29 10 56 20 39 14 48 15 44 4
-3 -8 0 -14 7 -14 7 0 10 13 8 33 l-3 32 -63 0 c-67 0 -78 7 -34 23 15 5 36
18 47 29 15 15 32 19 74 18 47 -2 58 -6 78 -31z m2314 -41 c1 -16 1 -43 0 -61
-2 -19 2 -71 8 -115 5 -45 15 -127 21 -182 6 -55 15 -127 21 -160 5 -33 16
-132 24 -220 7 -88 18 -185 24 -215 6 -31 7 -58 2 -63 -5 -5 -12 18 -16 53 -8
72 -28 77 -33 7 -2 -26 -7 -47 -12 -47 -14 0 -21 18 -10 25 19 12 13 111 -31
511 -6 55 -12 123 -14 150 -2 27 -11 102 -20 168 -12 84 -13 122 -6 129 6 6
11 19 11 29 0 30 30 21 31 -9z m-928 -263 c23 0 77 -141 77 -201 0 -18 3 -29
7 -26 9 10 32 -25 32 -48 0 -11 -3 -14 -6 -7 -9 22 -23 13 -24 -15 0 -24 -2
-25 -8 -9 -6 15 -9 16 -12 5 -7 -21 -4 -101 5 -127 7 -21 5 -23 -13 -17 -15 5
-21 2 -21 -9 0 -11 -9 -16 -29 -16 -30 0 -47 22 -34 43 4 8 1 7 -9 -1 -12 -10
-18 -9 -28 3 -7 8 -16 12 -22 9 -5 -3 -17 -3 -26 1 -15 6 -14 8 8 20 14 8 39
14 57 15 17 0 38 7 46 15 19 18 16 87 -6 170 -9 33 -16 80 -17 106 0 25 -5 50
-11 56 -9 9 -8 20 2 45 13 29 14 31 17 11 2 -13 9 -23 15 -23z m-153 -157 c0
-14 2 -15 9 -4 7 10 12 8 25 -10 9 -13 16 -28 16 -33 0 -6 12 -27 26 -47 30
-44 27 -99 -6 -99 -14 0 -23 18 -41 85 -27 99 -37 99 -14 0 18 -79 19 -95 4
-95 -6 0 -9 6 -6 13 2 6 -3 26 -13 42 -27 47 -54 131 -47 149 9 22 47 21 47
-1z m-56 -75 c28 -38 42 -83 28 -92 -7 -4 -6 -16 1 -36 7 -20 14 -25 19 -17 5
7 8 -1 8 -20 0 -30 -15 -52 -27 -40 -3 4 -9 21 -14 39 l-8 33 2 -40 2 -40 -47
1 c-27 0 -48 -3 -48 -6 0 -9 -47 -30 -65 -30 -20 0 -45 28 -45 50 0 25 35 48
80 54 51 7 80 17 80 28 0 6 -8 7 -17 4 -9 -4 -36 -10 -60 -13 -53 -7 -58 11
-12 51 l31 28 27 -26 c15 -14 35 -26 44 -26 9 0 17 -7 17 -15 0 -8 5 -15 10
-15 19 0 -8 37 -50 71 l-39 32 16 28 c22 37 36 36 67 -3z m-560 -8 c-4 -19 -2
-30 5 -30 7 0 11 -29 11 -85 0 -46 5 -107 11 -136 8 -38 8 -57 0 -73 -14 -26
-11 -136 4 -137 6 0 20 -7 32 -15 17 -10 37 -12 79 -8 42 5 55 4 50 -4 -4 -7
-18 -9 -32 -6 -29 8 -31 -3 -3 -32 12 -12 19 -32 17 -44 -3 -21 -6 -20 -43 19
-22 22 -46 41 -52 41 -20 0 -15 -17 6 -23 14 -3 18 -11 14 -26 -5 -20 -7 -21
-29 -6 -30 20 -30 9 1 -61 14 -31 25 -59 25 -63 -1 -12 -40 41 -40 54 0 7 -7
18 -15 25 -13 11 -14 8 -9 -21 l6 -34 -28 28 c-28 28 -29 28 -9 43 17 13 18
17 5 37 -11 17 -15 81 -17 305 -2 176 1 282 7 282 5 0 7 -13 4 -30z m-7409
-45 c44 -8 86 -14 94 -15 10 0 12 -14 7 -67 -3 -38 -6 -76 -7 -85 -1 -39 -18
-25 -29 25 -17 70 -44 99 -90 96 -42 -3 -64 7 -56 27 5 13 -12 19 -37 15 -5
-1 -6 3 -2 9 8 13 24 13 120 -5z m1263 -48 c8 -6 11 -24 8 -46 -2 -20 0 -41 5
-47 13 -16 -59 -44 -110 -44 -30 0 -40 5 -51 25 -11 21 -11 27 3 43 24 26 21
49 -5 56 -21 6 -21 8 -7 19 19 14 138 10 157 -6z m7342 -105 c19 -9 34 -19 34
-22 -1 -3 -7 -25 -14 -49 -6 -24 -19 -51 -27 -60 -10 -10 -12 -16 -4 -19 6 -2
11 -10 11 -17 0 -9 -10 -5 -27 12 -27 25 -28 25 -31 4 -2 -12 -5 -21 -6 -21
-2 0 -22 18 -45 40 -44 42 -40 51 9 25 45 -23 36 1 -10 30 -40 25 -52 45 -26
45 7 0 19 -6 25 -14 14 -16 71 -39 71 -28 0 10 -76 52 -94 52 -9 0 -16 5 -16
11 0 7 13 10 34 7 19 -2 34 -1 34 2 -2 26 32 27 82 2z m-455 -384 c-22 -23
-47 -47 -54 -54 -13 -10 -10 -16 15 -37 16 -15 40 -27 53 -27 24 0 24 0 5 21
-19 22 -19 22 4 10 15 -8 22 -21 22 -41 0 -21 8 -35 25 -46 28 -18 97 -24 133
-11 14 5 22 5 22 -3 0 -6 -33 -26 -74 -44 -41 -19 -81 -45 -90 -58 -8 -12 -24
-58 -36 -102 -25 -93 -39 -122 -77 -157 -48 -45 -88 -60 -151 -57 -71 4 -76
23 -12 49 25 10 41 19 35 20 -5 1 -14 3 -20 4 -5 2 -25 3 -43 4 -19 1 -31 5
-27 11 12 19 -10 10 -38 -16 l-28 -26 -50 38 c-34 27 -47 43 -43 54 3 8 7 20
7 27 0 7 11 1 23 -12 23 -25 41 -34 29 -15 -3 6 0 11 7 11 41 4 55 7 78 14 14
5 34 8 46 6 23 -2 40 14 46 44 2 11 10 20 17 20 8 0 16 5 18 10 3 10 -20 22
-91 47 -21 7 -46 22 -55 33 -9 11 -42 39 -73 63 -32 23 -58 47 -58 51 0 5 8
19 19 32 l19 23 36 -19 c25 -14 40 -17 50 -10 7 6 35 27 62 47 60 46 135 83
189 93 21 4 45 15 53 26 7 10 21 19 30 19 11 0 4 -12 -23 -42z m-1878 -279
c42 -35 68 -82 59 -105 -3 -7 -20 -15 -38 -19 -18 -4 -45 -14 -60 -21 -22 -12
-32 -12 -48 -2 -16 11 -22 9 -40 -9 -11 -13 -27 -20 -35 -17 -22 9 -18 31 5
37 27 7 15 37 -13 34 -32 -3 -25 41 12 75 16 14 27 29 24 32 -14 13 19 32 55
32 29 -1 48 -10 79 -37z m2125 9 c7 -13 18 -52 25 -88 15 -86 35 -160 42 -160
3 0 6 -17 5 -37 0 -21 2 -74 6 -118 4 -44 3 -82 -1 -83 -5 -2 -7 -8 -3 -13 3
-5 -18 -9 -48 -8 -44 0 -49 2 -29 10 13 5 32 7 42 4 9 -3 20 -1 24 5 7 11 -24
70 -37 70 -4 0 -8 12 -8 27 0 15 -9 45 -20 68 -11 22 -21 57 -22 78 -2 20 -9
39 -17 42 -7 3 -11 11 -8 19 3 7 0 19 -6 25 -6 6 -10 29 -9 51 2 29 -4 50 -19
71 -24 33 -23 34 11 48 40 16 58 13 72 -11z m-1582 -357 c13 -28 27 -51 32
-51 4 0 8 -9 8 -20 0 -11 11 -50 25 -87 14 -37 35 -108 46 -158 12 -49 25
-103 29 -118 6 -17 6 -25 0 -22 -6 4 -10 10 -10 15 0 5 -13 32 -30 59 -16 29
-30 68 -31 90 -2 22 -6 38 -11 35 -12 -7 -49 75 -51 112 -2 29 -6 34 -27 34
l-25 1 25 14 25 14 -30 6 -31 7 10 63 c5 36 12 62 16 60 3 -2 17 -26 30 -54z
m-2217 -1 c5 -4 4 -25 -1 -46 -6 -22 -7 -76 -3 -121 l6 -82 -30 6 c-16 3 -32
7 -34 9 -2 2 -8 42 -13 90 -8 76 -7 89 6 96 9 5 16 22 16 39 0 27 3 30 23 24
12 -4 26 -11 30 -15z m1838 -454 c15 -13 26 -26 23 -29 -3 -3 12 -8 34 -12 36
-6 40 -10 46 -43 16 -101 0 -306 -21 -254 -6 14 -43 16 -43 2 0 -5 -13 -10
-30 -10 -26 0 -30 3 -30 29 0 17 6 31 16 35 12 4 15 14 11 33 -4 24 -3 25 7
11 10 -13 15 -15 24 -6 20 20 13 36 -18 43 -24 5 -31 13 -36 41 -3 19 -4 43
-1 54 3 11 1 23 -4 26 -5 3 -6 23 -3 45 4 26 3 39 -5 39 -6 0 -11 5 -11 10 0
15 10 12 41 -14z m-1801 -136 c0 -5 -4 -10 -10 -10 -5 0 -10 -5 -10 -11 0 -5
4 -7 10 -4 15 9 18 -21 35 -295 19 -314 19 -307 0 -307 -8 0 -15 1 -15 2 0 1
-9 60 -19 131 -17 112 -36 295 -44 429 -1 30 3 44 18 57 23 20 35 22 35 8z
m-198 -479 c4 -12 160 -141 170 -141 16 0 7 -30 -12 -40 -16 -9 -26 -3 -66 40
-61 66 -79 65 -20 -1 57 -64 49 -86 -10 -28 -55 54 -57 41 -4 -22 37 -45 38
-47 21 -63 -23 -21 -49 -11 -57 20 -4 13 -12 28 -18 32 -25 15 -66 183 -52
217 4 12 10 14 25 6 11 -6 21 -15 23 -20z m3514 -206 c4 -9 19 -15 38 -15 42
0 56 -16 49 -54 -9 -46 -21 -56 -69 -56 -24 0 -47 -6 -51 -12 -4 -7 -17 -20
-27 -28 -18 -14 -19 -13 -14 8 4 12 2 22 -3 22 -17 0 4 32 28 41 21 8 24 15
22 47 -1 20 -1 43 0 50 2 17 20 15 27 -3z m1364 -396 c60 -1 326 -39 418 -59
23 -6 52 -10 65 -10 17 -1 19 -2 7 -9 -8 -5 -82 -14 -165 -20 -82 -6 -197 -16
-255 -22 -313 -29 -487 -29 -525 0 -5 5 -28 11 -50 15 -39 6 -39 6 -15 -8 14
-8 44 -18 68 -22 23 -3 42 -11 42 -17 0 -7 -36 -8 -107 -3 -87 6 -112 11 -128
26 -13 12 -36 20 -56 20 -19 0 -40 4 -48 9 -21 13 43 25 67 12 28 -15 104 -18
109 -5 2 7 -8 15 -24 18 -21 6 -24 9 -12 16 7 5 22 7 32 4 10 -3 17 0 17 8 0
11 20 13 98 11 142 -5 214 -3 233 8 10 5 34 9 53 9 19 0 41 7 48 15 9 10 27
13 63 9 28 -2 57 -5 65 -5z m-4615 -463 c60 -25 104 -71 86 -89 -5 -5 -48 -10
-95 -10 -87 -2 -87 -2 -104 28 -9 17 -21 32 -25 34 -4 1 -17 12 -28 24 -14 16
-16 23 -7 29 26 16 113 8 173 -16z m-4472 -455 c17 -3 5 -29 -19 -40 -14 -6
-47 -29 -72 -50 -52 -42 -141 -71 -217 -71 l-46 0 3 37 3 37 70 -2 c50 -2 66
0 55 8 -13 8 -13 10 1 10 9 0 22 7 29 15 7 8 24 15 39 15 20 0 23 2 11 10 -12
7 -8 11 18 16 17 4 32 10 32 13 0 6 65 7 93 2z m9706 -123 c-1 -57 -5 -134 -9
-173 l-7 -70 -3 65 c-1 36 -5 55 -7 43 -6 -33 -52 -30 -122 7 -31 16 -78 33
-106 38 -51 10 -125 33 -180 58 -16 7 -46 16 -65 20 -19 3 -46 12 -60 19 -24
13 -23 13 25 19 28 4 77 11 110 16 309 47 363 55 408 59 15 1 17 -10 16 -101z
m-7625 76 c33 -5 46 -11 42 -20 -3 -7 0 -15 7 -17 14 -5 -167 -15 -405 -22
-92 -3 -190 -10 -218 -16 -29 -6 -73 -8 -98 -5 -26 3 -41 3 -34 0 28 -13 8
-21 -63 -27 -41 -3 -86 -2 -100 2 -26 6 -26 7 12 23 88 39 206 62 413 81 67 7
398 7 444 1z m4679 -219 c20 -8 38 -19 42 -24 8 -14 -17 -51 -35 -51 -8 -1 -1
-7 15 -14 l30 -13 -33 -7 c-43 -10 -50 -30 -23 -66 11 -16 21 -32 21 -35 0 -3
-32 -5 -71 -5 l-70 0 3 53 3 52 47 5 c26 3 50 9 54 13 4 3 -8 18 -25 32 -33
29 -38 44 -19 63 15 15 18 15 61 -3z"/>
<path d="M4735 4656 c-22 -33 -10 -56 30 -56 46 0 63 -23 31 -43 -15 -10 -23
-23 -20 -34 6 -24 -75 -70 -88 -51 -4 7 -8 19 -8 26 0 6 -4 12 -8 12 -12 0
-42 67 -42 93 0 21 -1 21 -13 -3 -26 -49 -28 -88 -6 -143 31 -80 94 -169 139
-197 l40 -24 0 -166 c1 -91 3 -190 6 -220 3 -30 1 -75 -5 -99 -5 -25 -6 -52
-1 -65 8 -19 9 -18 11 9 1 17 3 38 2 48 0 9 4 17 9 17 4 0 8 -10 8 -22 0 -38
9 -14 14 37 6 64 15 87 32 81 8 -3 14 -1 14 4 0 6 -8 10 -17 10 -17 1 -17 1
-1 14 10 7 15 16 11 19 -9 9 -5 82 6 126 5 20 13 65 16 101 4 36 9 69 12 73
11 18 3 121 -9 129 -10 6 -10 8 0 8 10 0 12 8 8 28 -3 15 -7 55 -8 89 -1 40
-7 64 -15 67 -7 3 -13 17 -13 32 0 22 4 25 21 21 12 -3 18 -3 15 0 -3 3 1 17
8 32 8 16 10 34 5 46 -6 17 -8 17 -8 3 -1 -17 -11 -22 -37 -19 -7 1 -14 -6
-18 -14 -3 -9 -11 -13 -17 -10 -6 4 -8 13 -5 20 6 17 -19 27 -50 19 -25 -6
-34 10 -11 19 7 3 5 6 -5 6 -10 1 -24 -10 -33 -23z"/>
<path d="M4916 4393 c3 -32 11 -60 16 -61 4 -2 15 -10 23 -19 8 -8 15 -11 15
-7 0 4 9 -1 20 -11 26 -23 25 -47 -1 -63 -16 -11 -20 -21 -17 -60 2 -35 7 -48
21 -50 10 -2 17 3 17 12 0 19 26 22 33 4 3 -9 11 -5 25 10 l21 24 32 -37 c37
-42 229 -293 229 -299 0 -2 -18 -7 -40 -11 -22 -4 -46 -12 -53 -19 -6 -7 -21
-15 -32 -20 -16 -6 -17 -9 -5 -17 11 -8 12 -12 3 -16 -7 -2 -13 -9 -13 -14 0
-14 38 -11 43 4 3 8 9 6 19 -7 18 -23 38 -14 38 17 0 20 1 20 13 2 10 -13 21
-16 40 -11 22 5 30 1 49 -24 24 -32 55 -39 65 -14 6 15 -8 54 -27 77 -6 7 -19
24 -31 40 -11 15 -26 27 -33 27 -6 0 -30 24 -51 53 -22 28 -43 57 -48 62 -4 6
-30 42 -59 80 -28 39 -64 87 -80 107 -27 36 -34 67 -26 113 2 16 -3 20 -27 20
-20 0 -42 11 -65 32 -23 22 -39 29 -49 23 -15 -8 -41 10 -41 29 0 18 20 23 37
9 14 -11 16 -11 8 2 -14 24 -59 70 -68 70 -5 0 -5 -26 -1 -57z"/>
<path d="M4192 4288 c-1 -3 -8 -40 -16 -81 -16 -82 -42 -141 -75 -171 -19 -17
-23 -18 -38 -4 -10 9 -29 19 -43 23 -25 8 -25 7 -7 -13 10 -11 17 -28 15 -39
-3 -16 3 -18 43 -16 46 3 46 3 53 -35 3 -20 6 -47 6 -60 0 -24 49 -94 61 -87
3 3 5 43 3 89 -4 111 0 114 103 87 43 -11 79 -18 82 -16 8 9 -96 48 -141 53
-27 2 -48 6 -48 9 0 2 18 27 39 56 41 54 61 96 61 125 0 9 -10 -3 -21 -27 -29
-64 -41 -78 -50 -54 -6 16 -8 15 -18 -9 -20 -52 -28 -28 -14 45 7 39 12 86 10
102 -2 17 -5 27 -5 23z"/>
<path d="M4638 3871 c-26 -10 -64 -32 -85 -48 -21 -17 -48 -35 -60 -42 -27
-14 -109 -14 -208 0 -42 6 -80 8 -83 5 -9 -10 30 -45 89 -81 55 -34 89 -44 89
-26 0 16 83 43 155 51 93 11 167 -2 202 -35 l28 -25 7 47 c11 83 9 120 -9 142
-25 30 -70 34 -125 12z"/>
<path d="M5120 3557 c0 -24 3 -47 7 -50 4 -4 8 -58 10 -119 3 -116 7 -128 49
-128 25 0 27 16 8 95 -19 81 -16 163 5 175 14 8 14 9 -1 15 -10 4 -18 12 -18
17 0 13 -31 37 -47 38 -9 0 -13 -15 -13 -43z"/>
<path d="M6155 3300 c-3 -5 -3 -10 2 -10 13 -1 -78 -40 -92 -40 -7 0 -18 -7
-25 -15 -8 -9 -22 -12 -42 -8 -17 3 -33 1 -37 -5 -3 -6 -35 -12 -69 -14 l-62
-3 0 -46 c0 -59 17 -109 38 -111 10 0 23 -2 31 -2 8 -1 16 -6 18 -12 2 -7 13
-10 24 -7 10 3 25 1 32 -3 6 -5 39 -6 72 -3 33 3 53 7 45 9 -8 1 1 5 20 9 36
6 63 41 53 69 -5 12 -7 12 -15 -2 -15 -27 -23 -18 -24 24 -1 40 11 54 22 25
14 -35 21 -9 20 70 0 47 -2 85 -3 85 -1 0 -5 -4 -8 -10z"/>
<path d="M1796 3093 c-5 -11 1 -23 15 -34 12 -9 19 -21 15 -28 -11 -17 -22
-13 -33 12 -11 24 -78 47 -139 47 -57 0 -144 -29 -144 -48 0 -8 -9 -25 -19
-36 -19 -20 -19 -22 -1 -61 10 -22 21 -51 25 -65 7 -23 7 -24 -10 -10 -17 14
-18 13 -11 -15 13 -57 12 -70 -6 -67 -25 4 -22 -10 6 -37 19 -17 24 -33 23
-60 -1 -26 5 -43 21 -59 l22 -22 32 20 c18 11 27 20 21 20 -7 0 -13 5 -13 10
0 6 7 10 15 10 24 0 17 17 -9 24 -17 4 -27 16 -31 38 -18 78 -7 194 18 210 24
16 65 7 110 -23 40 -26 47 -36 46 -62 0 -48 12 -107 22 -107 5 0 9 4 9 9 0 5
16 19 36 31 19 12 33 25 30 27 -3 3 1 21 9 40 8 20 15 45 15 57 -1 20 -2 19
-23 -7 -31 -37 -42 -23 -16 20 12 19 19 37 15 40 -3 3 -8 -2 -12 -11 -8 -21
-24 -21 -24 2 -1 16 -1 16 -10 0 -9 -15 -13 -15 -50 0 -27 12 -40 23 -40 37
-1 18 -2 18 -13 4 -7 -9 -21 -15 -31 -13 -11 2 -43 -8 -71 -22 -63 -29 -77
-30 -92 -4 -14 22 0 38 20 21 17 -14 39 2 31 22 -6 16 5 22 29 18 4 0 7 3 7 9
0 5 21 9 48 9 51 -1 122 -18 122 -29 0 -10 53 -20 65 -12 5 4 15 7 20 7 6 0
10 5 10 10 0 6 4 15 8 22 5 7 0 16 -13 23 -11 6 -20 20 -20 30 0 24 -25 26
-34 3z"/>
<path d="M6361 3018 c-1 -10 -5 -18 -9 -18 -5 0 -16 -25 -24 -55 -17 -61 -16
-68 6 -27 l15 27 1 -36 c0 -20 -3 -70 -6 -112 -5 -58 -11 -77 -22 -77 -9 0
-12 -6 -8 -17 4 -9 1 -20 -6 -25 -21 -13 -28 -9 -28 15 -1 19 -2 20 -13 7 -7
-8 -17 -16 -22 -17 -6 -1 -18 -5 -28 -8 -15 -6 -16 -4 -8 18 12 31 8 36 -24
29 -25 -4 -45 -22 -26 -22 6 0 7 -8 4 -17 -5 -12 -2 -15 10 -10 11 4 17 1 18
-8 2 -23 4 -29 12 -42 4 -6 1 -14 -5 -16 -8 -4 -7 -6 4 -6 9 -1 19 -7 21 -13
3 -8 6 -5 6 5 1 10 -4 27 -9 38 -8 15 -7 19 5 19 11 0 15 -11 16 -42 1 -24 3
-36 6 -26 7 27 33 30 43 5 8 -20 9 -19 9 11 1 17 6 32 12 32 8 0 10 -29 6 -97
-5 -84 -4 -91 4 -45 6 28 14 52 19 52 4 0 11 -31 15 -70 4 -38 11 -70 15 -70
8 0 9 3 15 115 2 39 7 100 11 138 7 64 6 67 -15 67 -20 0 -21 5 -21 93 0 50 4
108 10 127 6 21 6 47 1 65 -5 17 -10 22 -10 13z"/>
<path d="M5990 2978 c0 -31 27 -50 68 -48 43 3 52 1 52 -14 0 -8 17 -21 38
-29 36 -14 37 -14 43 7 3 11 4 40 1 63 l-4 42 -99 3 -99 3 0 -27z"/>
<path d="M5559 2788 c-1 -13 -1 -26 0 -30 1 -9 2 -8 -49 -14 -19 -2 -41 -6
-48 -9 -7 -2 -34 0 -60 6 -64 14 -165 -15 -170 -49 -2 -14 -10 -22 -23 -22
-10 0 -19 -6 -19 -14 0 -10 23 -16 83 -21 120 -12 117 -12 184 -22 47 -7 63
-7 67 2 2 7 0 17 -5 22 -12 12 -20 70 -12 89 10 28 20 3 16 -39 -5 -43 -5 -44
28 -51 20 -4 35 -2 37 4 2 5 10 10 18 10 8 0 14 7 14 16 0 8 -4 13 -9 10 -5
-4 -7 2 -4 12 2 11 -3 26 -11 35 -9 8 -16 32 -16 51 0 39 -19 51 -21 14z"/>
<path d="M5432 2073 c-54 -26 -124 -118 -74 -98 9 4 31 11 48 16 18 5 37 16
44 24 7 8 27 15 44 15 l31 0 -33 -22 c-43 -27 -57 -61 -37 -92 10 -14 15 -51
16 -104 l2 -82 37 0 c49 0 77 36 61 78 -9 27 -9 27 -10 3 -1 -13 -4 -21 -8
-18 -3 4 -15 0 -25 -10 -10 -9 -18 -14 -18 -12 0 2 -4 31 -10 63 -8 53 -7 63
12 94 22 36 38 30 38 -16 0 -14 8 -26 24 -32 32 -12 39 -25 25 -48 -7 -11 -9
-31 -5 -46 6 -24 8 -25 22 -12 8 9 27 41 41 72 22 49 24 60 13 78 -8 13 -9 21
-2 24 11 3 2 24 -32 75 -40 60 -136 84 -204 50z"/>
<path d="M2517 733 c-4 -3 -96 -7 -205 -8 -182 -1 -257 -6 -270 -20 -3 -3 11
-5 31 -5 20 0 38 -4 42 -9 7 -13 -15 -61 -29 -62 -6 0 0 -4 14 -8 34 -10 485
21 498 34 3 3 -30 5 -73 5 -65 0 -76 2 -66 14 6 7 36 16 66 20 30 3 80 9 110
12 68 8 95 1 136 -33 l34 -28 -23 32 c-15 21 -34 34 -55 38 -153 25 -199 29
-210 18z"/>
<path d="M8664 4923 c3 -6 -2 -18 -12 -25 -24 -18 -55 -68 -42 -68 6 0 8 -5 5
-11 -4 -5 -4 -21 -1 -35 6 -21 12 -24 54 -24 47 1 89 16 93 35 4 25 12 35 26
35 8 0 -4 17 -28 40 -24 22 -50 40 -59 40 -9 0 -22 6 -29 13 -10 8 -12 8 -7 0z"/>
<path d="M6710 4734 c-52 -7 -98 -13 -102 -13 -11 -1 -10 -39 1 -46 5 -3 12
-1 15 3 3 5 26 6 51 2 25 -4 48 -3 51 2 10 15 24 8 24 -13 0 -15 -4 -19 -16
-15 -8 3 -24 1 -35 -4 -10 -6 -19 -7 -19 -2 0 5 -18 9 -40 9 l-40 0 0 -93 c0
-55 4 -96 11 -99 18 -12 21 2 8 39 -11 31 -10 40 7 75 16 33 24 41 47 41 21 0
30 -6 34 -20 3 -11 12 -20 21 -20 8 0 12 -3 9 -7 -12 -11 14 -33 39 -33 30 0
32 26 2 49 -12 10 -18 23 -14 29 13 21 30 13 55 -25 19 -29 21 -40 12 -55 -15
-24 -14 -30 6 -26 14 3 17 21 21 121 l4 117 -28 -1 c-16 -1 -72 -7 -124 -15z"/>
</g>
</svg>
