<?xml version="1.0" standalone="no"?>
<!DOCTYPE svg PUBLIC "-//W3C//DTD SVG 20010904//EN"
 "http://www.w3.org/TR/2001/REC-SVG-20010904/DTD/svg10.dtd">
<svg version="1.0" xmlns="http://www.w3.org/2000/svg"
 width="1280.000000pt" height="914.000000pt" viewBox="0 0 1280.000000 914.000000"
 preserveAspectRatio="xMidYMid meet">
<metadata>
Created by potrace 1.16, written by Peter Selinger 2001-2019
</metadata>
<g transform="translate(0.000000,914.000000) scale(0.100000,-0.100000)"
fill="#000000" stroke="none">
<path d="M0 5584 l0 -3555 213 2 c276 2 466 -1 471 -10 2 -3 -21 -5 -52 -4
-53 1 -54 1 -17 -6 22 -5 36 -9 30 -10 -5 -1 -3 -6 5 -11 9 -6 10 -10 3 -10
-6 0 -15 5 -18 10 -4 7 -55 10 -133 9 -70 -1 -143 1 -162 4 -57 9 -252 15
-297 10 l-43 -5 0 -1004 0 -1004 6400 0 6400 0 0 4570 0 4570 -6400 0 -6400 0
0 -3556z m774 2956 c34 -5 142 -23 241 -41 177 -32 275 -42 285 -30 3 3 14 11
25 17 11 6 21 16 21 23 1 6 2 15 3 19 4 28 144 37 189 13 8 -4 -34 -25 -100
-51 -62 -24 -128 -52 -146 -60 l-33 -16 25 -12 c28 -13 33 -31 14 -50 -7 -7
-10 -12 -7 -13 2 0 17 -2 32 -4 50 -7 177 -95 177 -123 0 -7 -134 -230 -146
-241 -9 -9 -64 54 -65 73 0 12 -4 29 -8 40 -6 17 -8 17 -23 3 -15 -15 -18 -15
-41 3 -55 43 -38 15 28 -47 74 -69 71 -75 -5 -13 -69 57 -97 68 -155 61 l-50
-6 -7 -59 c-14 -113 -43 -94 -36 24 3 54 1 67 -9 58 -8 -6 -34 -7 -75 -2 -35
5 -71 7 -82 6 -10 -1 -24 2 -30 7 -6 5 -22 12 -36 16 -42 13 -107 74 -124 114
-8 21 -22 41 -30 44 -9 4 4 -30 34 -90 55 -105 57 -113 34 -113 -18 0 -13 -5
44 -53 19 -15 28 -27 20 -27 -7 0 -33 19 -58 43 -25 23 -70 63 -100 90 -30 26
-50 47 -45 47 6 0 33 -21 60 -45 65 -58 79 -58 26 1 -37 39 -41 47 -29 62 7 8
8 13 2 9 -16 -9 -37 44 -38 96 -1 40 1 43 43 64 25 13 67 26 93 29 26 4 48 10
48 13 0 12 -24 31 -39 31 -19 0 -44 47 -30 56 6 3 5 12 -3 22 -12 15 -11 16 4
4 9 -8 14 -20 11 -28 -4 -10 1 -13 18 -12 18 2 24 -2 23 -14 -1 -10 2 -15 7
-12 5 3 26 -4 47 -15 49 -26 71 -30 118 -21 30 6 33 8 12 9 -15 0 -29 5 -32 9
-3 5 8 6 24 4 17 -2 37 -1 46 2 35 14 -19 39 -134 63 -64 13 -121 29 -127 35
-7 8 -4 9 9 4 10 -3 46 -11 80 -16z m841 -122 c-4 -79 -13 -163 -20 -188 -7
-25 -16 -79 -20 -120 -17 -190 -24 -176 -19 40 7 355 14 408 57 410 4 0 5 -64
2 -142z m1908 -398 c3 -11 1 -20 -4 -20 -5 0 -9 -9 -9 -20 0 -11 5 -20 10 -20
6 0 8 -15 4 -39 -7 -44 6 -59 30 -35 13 12 20 13 30 5 18 -15 30 2 32 42 1 24
-2 27 -30 28 -17 0 -24 3 -16 6 8 2 24 8 35 13 11 5 35 13 53 19 29 9 32 8 32
-10 0 -10 -5 -19 -11 -19 -5 0 -8 -4 -5 -8 2 -4 1 -14 -3 -21 -6 -9 -11 -10
-15 -2 -4 6 -1 11 6 11 9 0 9 3 -2 10 -10 6 -11 10 -2 10 6 0 12 4 12 10 0 5
-7 7 -14 4 -11 -4 -14 -17 -11 -47 4 -34 -3 -57 -33 -117 -22 -44 -43 -74 -51
-72 -7 1 -19 -2 -27 -9 -7 -6 -18 -8 -24 -4 -5 3 -10 1 -10 -5 0 -6 -5 -8 -10
-5 -6 4 -9 21 -6 38 3 18 6 82 7 142 1 61 4 116 7 123 6 18 19 15 25 -8z
m1087 -288 c-19 -10 -80 -43 -135 -74 -277 -153 -436 -230 -461 -224 -14 4
-22 11 -19 16 3 6 0 10 -7 10 -9 0 -9 3 2 10 10 6 11 10 3 10 -7 0 -13 7 -13
15 0 8 9 15 20 15 16 0 20 -7 20 -30 0 -16 4 -30 10 -30 13 0 207 102 465 244
55 30 111 55 125 55 22 1 21 -1 -10 -17z m-3144 -533 c51 -47 53 -117 8 -196
-50 -87 -178 -162 -253 -148 -83 16 -116 53 -127 145 -6 49 -4 54 26 85 23 24
31 40 27 55 -4 15 -2 20 8 16 7 -2 33 7 57 22 43 27 70 40 118 59 32 13 103
-7 136 -38z m6430 1 c10 0 14 -13 14 -45 0 -33 -4 -45 -15 -45 -19 0 -20 -26
0 -33 12 -5 14 -32 14 -142 l0 -135 -24 0 c-17 0 -25 6 -25 17 0 15 -2 14 -14
-3 -11 -14 -17 -16 -26 -7 -9 8 -6 24 15 65 15 29 29 62 32 73 8 34 2 218 -8
236 -13 25 -11 32 7 25 9 -3 22 -6 30 -6z m908 -73 c-2 -7 -19 -22 -37 -32
l-31 -19 25 -7 c15 -3 65 -12 113 -19 68 -11 92 -19 111 -38 44 -44 37 -46
-85 -22 -25 5 -88 16 -141 25 -91 16 -98 16 -125 -1 -16 -9 -40 -24 -53 -32
-23 -14 -23 -15 155 -193 98 -98 172 -179 164 -179 -8 0 -92 77 -185 170 -93
94 -174 170 -179 170 -5 0 -88 -46 -185 -102 -196 -115 -192 -100 -38 -133
116 -25 86 -29 -39 -6 -100 19 -121 28 -112 48 6 15 621 379 645 383 1 0 0 -6
-3 -13z m-224 -17 c0 -5 16 -10 35 -10 25 0 33 -4 29 -14 -10 -26 -61 -39
-125 -32 l-62 7 29 -25 c36 -30 25 -46 -12 -17 -46 36 -71 28 -257 -84 -96
-58 -180 -105 -186 -105 -36 0 8 36 149 123 177 108 229 134 310 152 70 16 90
17 90 5z m930 -57 c25 -3 50 -10 57 -15 6 -5 30 -10 52 -11 39 -1 41 -3 41
-34 0 -28 -3 -32 -22 -29 -15 2 -24 11 -26 25 -2 13 -9 21 -16 18 -7 -3 -50
-12 -97 -22 -122 -24 -123 -26 -19 -46 140 -27 140 -27 140 -49 0 -18 10 -25
33 -21 4 0 7 -66 7 -148 0 -141 -1 -150 -20 -156 -11 -4 -17 -11 -14 -17 4 -7
2 -8 -4 -4 -8 5 -12 55 -12 161 l0 153 -42 7 c-24 4 -86 15 -138 25 -52 10
-110 21 -127 24 l-33 6 0 -65 c0 -36 -4 -65 -8 -65 -8 0 -94 95 -100 111 -2 5
8 14 22 20 14 7 26 18 26 24 0 7 16 12 38 13 20 1 66 9 102 19 l65 17 -40 8
c-22 4 -57 7 -77 7 -21 1 -38 6 -38 11 0 6 14 10 32 10 29 0 75 11 123 31 11
4 27 5 35 3 8 -3 35 -8 60 -11z m232 -24 c11 -6 44 -15 72 -19 67 -11 165 -28
196 -34 14 -3 55 -10 92 -16 85 -13 260 -59 273 -71 6 -6 -8 -9 -35 -8 -25 1
-71 -4 -103 -10 -70 -15 -89 -7 -23 10 26 6 45 13 43 15 -2 2 -91 22 -198 44
-107 22 -225 46 -264 55 -38 8 -73 15 -77 15 -9 0 -11 30 -2 30 3 0 15 -5 26
-11z m-6454 -53 c28 -2 89 -70 101 -111 19 -71 -27 -185 -92 -228 -23 -15 -25
-14 -61 24 -20 22 -36 44 -36 49 0 5 -9 12 -20 15 -21 7 -28 49 -10 60 12 7 4
25 -12 25 -5 0 -8 -7 -4 -15 3 -8 1 -15 -4 -15 -6 0 -10 4 -10 9 0 8 -37 24
-52 22 -4 0 -5 5 -2 13 3 7 -2 20 -10 29 -9 9 -16 26 -16 39 0 30 69 79 117
83 19 2 37 6 40 9 4 3 17 3 30 0 13 -4 31 -7 41 -8z m6563 -111 c101 -17 159
-38 159 -56 0 -14 100 -3 200 23 41 10 95 23 120 28 25 4 55 11 68 15 12 4 22
3 22 -1 0 -15 -51 -31 -153 -49 -54 -9 -96 -19 -93 -22 3 -3 20 -8 38 -12 19
-4 33 -13 33 -21 0 -17 -41 -19 -139 -8 l-59 7 39 -40 c29 -29 35 -42 26 -51
-8 -8 -21 -2 -52 25 -45 42 -67 45 -101 19 -54 -42 -238 -162 -248 -162 -6 0
-11 8 -11 18 0 13 37 42 116 93 64 41 128 84 142 95 l26 22 -44 7 c-25 4 -54
9 -65 11 -11 2 -40 6 -65 9 -99 12 -113 21 -102 67 3 13 9 15 27 8 12 -5 65
-16 116 -25z m-6861 -9 c7 -13 28 -32 46 -42 19 -10 34 -26 34 -34 0 -9 18
-36 40 -60 22 -24 40 -53 40 -63 0 -10 13 -37 28 -60 41 -60 48 -77 17 -39
-21 25 -34 32 -61 32 -41 0 -93 24 -114 54 -8 11 -24 41 -34 65 -19 41 -19 46
-3 73 17 30 14 51 -11 81 -8 9 -11 17 -5 17 5 0 15 -11 23 -24z m7520 -61 c62
-63 63 -75 1 -15 -22 22 -50 40 -62 40 -21 0 -96 -52 -112 -77 -4 -7 -15 -13
-23 -13 -8 0 -44 -19 -80 -41 l-66 -42 110 -111 c104 -105 135 -146 111 -146
-6 0 -64 52 -128 115 -65 63 -122 115 -128 115 -5 0 -67 -36 -137 -81 -70 -44
-135 -79 -144 -77 -16 3 206 155 413 283 61 37 121 76 135 86 38 28 51 23 110
-36z m-1288 -22 l48 -48 0 -93 0 -92 -27 6 c-86 22 -78 6 -81 147 -1 70 0 127
4 127 4 0 29 -21 56 -47z m-4193 -124 c47 -14 81 -62 81 -113 0 -114 -132
-215 -267 -204 -69 6 -109 41 -118 105 -5 37 -2 49 24 87 17 24 38 47 48 50
15 6 15 9 3 17 -13 9 -12 10 1 6 9 -3 27 2 39 10 29 20 110 52 134 53 10 0 35
-5 55 -11z m5676 -115 c32 -21 55 -68 55 -115 0 -21 5 -41 10 -44 6 -3 10 0
10 7 0 10 2 10 9 -1 13 -20 2 -44 -14 -31 -14 12 -31 -3 -36 -34 -2 -10 -11
-22 -19 -26 -29 -14 -80 -28 -76 -21 3 4 -31 18 -75 31 l-79 23 0 37 c0 140
119 237 215 174z m-4184 -23 c3 -27 10 -44 33 -77 14 -21 27 -32 27 -24 1 8 5
2 9 -15 30 -117 -15 -210 -124 -261 -101 -47 -190 -23 -227 60 -10 24 -20 55
-20 68 -2 31 26 94 46 101 8 4 15 14 15 22 0 9 4 14 9 11 4 -3 16 3 26 14 10
11 38 27 64 36 25 10 51 21 58 26 7 6 19 5 31 -1 15 -8 23 -6 36 8 15 16 15
19 1 24 -8 4 -15 11 -15 16 0 11 29 3 31 -8z m2568 -65 c42 -39 55 -56 45 -60
-8 -3 -58 -3 -112 0 -53 3 -119 6 -147 7 -27 1 -58 8 -67 16 -15 13 -15 15 4
31 20 16 29 15 145 -5 l123 -21 -35 36 c-19 20 -35 39 -35 43 0 18 25 3 79
-47z m464 -101 c12 -8 64 -21 115 -30 74 -13 108 -14 159 -6 37 6 70 8 75 5
17 -11 7 -32 -17 -38 -14 -4 -25 -13 -25 -20 0 -16 -102 -38 -108 -24 -2 5 -9
5 -15 1 -19 -12 -41 -13 -48 -2 -4 7 -12 5 -21 -4 -15 -16 -68 -12 -68 4 0 18
-2 24 -12 37 -6 7 -16 12 -22 11 -30 -4 -46 2 -46 17 0 11 5 14 16 10 24 -9
11 17 -14 29 -12 5 -22 13 -22 17 0 13 29 9 53 -7z m-1783 -55 c6 -11 15 -18
21 -15 5 4 7 10 5 14 -3 4 2 8 10 8 11 0 14 -7 9 -25 -6 -23 -5 -24 11 -11 11
9 15 9 10 2 -7 -13 35 -63 54 -63 14 0 13 -17 -2 -23 -8 -3 -6 -6 5 -6 20 -1
23 -26 5 -38 -7 -4 -13 -24 -14 -43 -1 -55 -32 -108 -83 -143 -62 -42 -156
-50 -219 -18 -83 42 -117 139 -84 236 15 44 33 64 75 82 15 7 27 16 27 21 0 9
23 12 103 14 59 1 77 14 30 21 l-28 4 27 2 c18 0 31 -6 38 -19z m-6095 -31
c17 -8 16 -8 -7 -4 -29 6 -49 -12 -27 -25 7 -5 16 -7 20 -4 4 2 11 0 14 -6 5
-8 12 -7 22 2 14 11 15 10 9 -8 -5 -18 -2 -23 19 -28 14 -4 23 -10 20 -15 -2
-5 2 -12 11 -15 10 -4 13 -2 8 7 -4 6 16 -9 44 -35 28 -27 59 -48 68 -48 10 0
26 -8 37 -17 15 -13 18 -14 12 -3 -6 11 -3 10 12 -3 11 -9 23 -14 26 -10 4 3
7 -6 7 -20 0 -17 -5 -27 -15 -27 -8 0 -15 -6 -15 -12 0 -10 -2 -10 -8 -1 -5 8
-13 6 -29 -7 -18 -14 -21 -24 -17 -52 5 -28 2 -36 -12 -42 -9 -4 -20 -3 -23 1
-3 4 -28 9 -56 11 -47 3 -49 2 -31 -13 17 -13 17 -15 4 -15 -9 0 -27 4 -41 9
-13 5 -30 5 -38 1 -11 -7 -10 -13 7 -32 34 -38 36 -47 15 -69 -11 -12 -18 -25
-16 -29 3 -5 -2 -10 -10 -14 -8 -3 -15 -1 -15 3 0 13 -63 76 -84 84 -12 5 -17
14 -13 27 3 11 1 17 -4 14 -13 -8 1 49 14 57 5 4 6 12 2 19 -5 8 -4 11 2 7 6
-4 14 0 17 9 3 8 10 12 16 9 6 -3 12 0 15 7 6 14 82 17 103 4 10 -6 11 -1 7
21 -5 21 -4 24 4 13 14 -20 14 -8 0 27 l-12 28 -7 -25 c-7 -23 -8 -23 -9 -3
-1 12 3 24 8 27 10 7 -9 56 -22 56 -5 0 -5 -5 -1 -12 4 -7 3 -8 -4 -4 -7 4
-12 14 -12 22 0 8 -4 12 -10 9 -5 -3 -12 6 -16 20 -3 14 -10 25 -15 25 -5 0
-9 9 -9 21 0 11 -4 18 -9 14 -16 -10 -22 13 -9 35 14 22 23 23 53 9z m7717
-53 c5 -7 8 -7 8 2 0 6 6 12 14 12 9 0 12 -7 9 -20 -3 -11 -9 -18 -13 -15 -4
3 -7 -7 -7 -20 0 -18 5 -25 18 -25 10 0 23 -8 28 -17 6 -10 11 -14 11 -10 0
11 30 -19 30 -30 0 -4 9 -19 20 -33 l20 -25 7 24 c6 23 7 24 14 5 4 -10 8 -31
8 -46 1 -14 6 -28 12 -30 7 -2 13 -20 15 -38 8 -110 7 -144 -4 -148 -7 -2 -12
-16 -12 -30 0 -21 -2 -24 -10 -12 -7 11 -10 6 -11 -20 0 -29 -2 -31 -9 -15 -8
18 -9 18 -9 2 -1 -10 -6 -15 -12 -12 -6 4 -13 -1 -16 -11 -11 -43 -175 -114
-214 -93 -11 5 -24 7 -30 3 -6 -3 -30 -3 -53 0 -32 5 -47 13 -56 31 -7 14 -19
25 -26 25 -7 0 -24 15 -38 33 -14 17 -32 39 -40 47 -19 21 -28 78 -16 101 7
13 7 19 0 19 -14 0 -13 33 2 48 9 9 9 12 0 12 -8 0 -9 7 -2 26 13 33 13 37 -2
28 -7 -4 -8 -3 -4 5 4 6 12 9 17 6 5 -4 9 11 10 32 0 21 4 47 9 58 8 18 9 17
9 -7 1 -35 14 -35 39 -3 11 14 27 25 36 25 9 0 16 6 16 14 0 8 13 17 29 21 16
3 32 13 35 22 5 12 10 13 17 6 17 -17 69 4 69 27 0 39 61 57 82 26z m-7967
-386 c-8 -9 -15 -26 -15 -38 0 -12 -4 -22 -10 -22 -5 0 -10 -7 -10 -16 0 -8 4
-13 9 -9 15 8 24 -34 11 -50 -9 -10 -7 -21 5 -46 13 -24 14 -37 7 -54 -11 -23
-7 -35 10 -35 5 0 6 6 2 13 -4 6 -3 9 1 4 5 -4 9 -16 10 -27 2 -18 1 -18 -24
-2 -14 10 -39 24 -56 32 -29 14 -155 138 -155 152 0 7 41 23 53 20 4 -1 7 3 7
8 0 6 0 12 0 15 0 2 11 15 24 28 27 27 62 30 62 5 0 -22 -1 -22 -19 -3 -13 12
-15 12 -20 -5 -3 -12 -1 -17 5 -14 5 3 20 -4 34 -17 l24 -22 0 21 c0 12 4 22
10 22 5 0 9 8 8 18 -3 40 2 50 22 45 19 -5 19 -7 5 -23z m4505 -288 c14 -3 31
-14 38 -24 20 -27 91 -70 104 -62 14 9 5 -133 -10 -148 -7 -7 -30 -7 -74 1
-72 12 -131 14 -141 5 -8 -9 30 -57 51 -65 9 -3 37 2 61 13 24 10 46 16 49 13
4 -3 8 -35 10 -72 l5 -66 -27 7 c-14 3 -38 9 -53 12 l-28 5 28 -21 c43 -34 35
-50 -25 -51 -56 -1 -55 -4 4 -14 28 -4 36 -10 31 -21 -3 -9 -16 -14 -32 -13
-14 1 -39 1 -56 0 l-30 -2 38 -14 c47 -16 51 -20 44 -39 -4 -11 -18 -14 -53
-11 -51 4 -57 7 -59 33 -3 36 -17 61 -36 67 -10 4 -19 14 -19 23 0 14 -2 14
-9 3 -7 -11 -12 -10 -29 7 -11 11 -24 26 -28 34 -5 7 -22 22 -37 31 -22 14
-26 21 -17 32 8 10 4 21 -19 46 -44 48 -56 149 -20 172 31 20 68 -1 92 -51 12
-26 28 -47 34 -47 6 0 22 16 36 36 24 35 26 74 7 93 -17 17 -11 37 9 34 10 -2
36 13 60 35 30 27 48 36 59 31 10 -3 28 -9 42 -12z m-418 -177 c-2 -14 -8 -25
-13 -25 -4 0 -13 -10 -19 -22 -11 -22 -10 -22 4 -4 9 11 19 16 23 13 3 -4 9
-45 11 -91 4 -79 5 -83 26 -78 23 6 47 32 40 44 -3 5 -1 8 5 8 6 0 13 -12 17
-27 13 -57 36 -129 52 -163 8 -19 17 -51 19 -70 2 -19 4 -41 5 -47 1 -7 7 -13
15 -13 7 0 13 -6 13 -14 0 -7 12 -21 26 -31 25 -16 27 -16 50 6 14 13 24 30
23 39 -3 33 1 51 11 45 6 -4 7 -11 4 -17 -4 -7 -2 -8 5 -4 6 4 18 3 26 -4 11
-9 17 -5 30 19 22 44 33 38 37 -20 4 -65 -4 -85 -39 -93 -45 -12 -94 -46 -104
-74 -8 -22 -12 -24 -20 -12 -8 11 -9 8 -5 -12 4 -18 2 -28 -5 -28 -16 0 -109
52 -109 61 0 13 -81 39 -105 33 -30 -8 -65 3 -65 21 0 8 -19 26 -42 42 -26 17
-46 40 -52 58 -5 17 -20 58 -33 92 -15 40 -23 83 -23 123 0 52 4 65 26 87 15
15 36 54 47 87 26 79 41 96 87 96 34 0 37 -2 32 -25z m5054 -240 c14 -14 22
-25 19 -25 -4 0 1 -7 9 -16 26 -25 30 -63 13 -123 -14 -50 -14 -64 -3 -109 8
-28 25 -70 38 -94 21 -39 29 -44 93 -63 76 -22 185 -86 185 -109 0 -7 12 -19
28 -25 73 -32 142 -130 175 -252 9 -29 18 -121 22 -204 3 -82 8 -151 10 -153
2 -2 17 4 34 13 50 25 35 8 -19 -23 -27 -16 -47 -31 -44 -34 3 -3 1 -9 -5 -13
-6 -3 -11 -1 -11 5 0 6 -5 8 -10 5 -6 -4 -7 -11 -4 -17 5 -7 2 -8 -5 -3 -7 4
-32 -3 -57 -15 -34 -18 -41 -26 -33 -36 8 -10 15 -10 29 -2 10 7 16 16 13 22
-3 5 -1 6 5 2 7 -4 33 6 59 21 76 44 148 76 133 58 -15 -18 -7 -19 23 -4 21
10 21 10 -1 -8 -27 -22 -17 -39 12 -20 36 23 56 28 49 11 -3 -7 -11 -14 -18
-14 -8 0 -20 -6 -27 -13 -7 -8 -26 -17 -41 -21 -15 -3 -27 -13 -27 -22 0 -8
-4 -13 -9 -10 -14 9 -41 -4 -41 -20 0 -7 -6 -11 -14 -8 -7 3 -20 -2 -29 -10
-20 -20 -37 -20 -37 -1 0 17 -9 19 -29 6 -7 -5 -10 -14 -7 -20 4 -6 11 -9 15
-7 4 3 8 -2 8 -10 0 -8 -6 -13 -12 -10 -13 5 -35 -12 -35 -27 0 -5 7 -6 16 -3
8 3 13 2 10 -3 -6 -9 -140 -91 -149 -91 -3 0 -4 8 -3 18 0 9 -4 16 -11 15 -7
-2 -10 4 -7 12 4 9 0 15 -10 15 -20 0 -21 -14 -1 -30 36 -30 -1 -67 -45 -44
-14 8 -19 14 -11 14 11 0 11 3 0 16 -8 10 -15 12 -17 5 -2 -6 -10 -11 -18 -11
-11 0 -10 4 4 19 9 10 21 18 26 17 5 -1 11 5 13 11 3 9 -7 8 -34 -3 -21 -9
-40 -18 -42 -20 -7 -7 52 -64 66 -64 7 0 13 -8 13 -19 0 -25 35 -68 70 -86 16
-8 53 -18 84 -21 94 -11 70 -27 -66 -44 -79 -9 -118 -25 -118 -47 0 -7 -7 -13
-16 -13 -10 0 -14 -6 -10 -15 3 -8 2 -14 -3 -12 -4 1 -32 -34 -62 -78 -69
-100 -120 -135 -211 -142 -73 -6 -140 9 -170 39 -28 28 -10 38 65 38 31 0 57
5 57 10 0 6 -6 10 -14 10 -8 0 -17 7 -20 15 -3 9 -11 15 -18 13 -7 -1 -31 2
-53 7 -22 4 -44 7 -49 6 -5 -1 -6 8 -3 19 4 16 1 20 -11 18 -10 -2 -18 -15
-20 -31 -4 -30 -17 -36 -26 -11 -11 29 -6 42 20 48 22 6 24 9 13 22 -11 14
-15 13 -30 -7 -17 -23 -18 -23 -38 -5 -26 24 -27 42 -2 58 14 8 16 14 7 24
-14 15 -37 -1 -29 -22 3 -8 0 -14 -6 -14 -16 0 -13 36 4 50 13 11 13 15 3 22
-9 6 -5 7 10 3 13 -4 22 -2 22 5 0 6 4 9 10 5 5 -3 7 -11 4 -19 -3 -7 11 -29
31 -50 19 -21 35 -42 35 -48 0 -6 3 -9 6 -6 7 8 -25 70 -45 85 -14 11 -13 12
7 13 12 0 22 -5 22 -11 0 -7 15 -10 39 -7 29 2 37 0 30 -8 -7 -8 -2 -14 17
-18 14 -4 24 -10 21 -13 -3 -3 1 -12 9 -21 23 -22 70 -4 67 26 -2 18 2 22 27
22 17 0 30 -3 30 -8 0 -4 20 -30 45 -57 45 -51 53 -65 35 -65 -5 0 -10 -5 -10
-10 0 -7 6 -7 20 0 14 7 20 7 20 0 0 -17 38 -11 49 7 7 13 3 25 -15 49 -15 19
-22 38 -18 48 4 12 2 15 -9 11 -9 -4 -24 6 -38 25 -13 17 -48 55 -76 84 -51
51 -65 76 -42 76 6 0 37 -25 68 -55 50 -48 60 -53 71 -40 10 13 6 18 -26 32
-22 10 -49 28 -62 41 -12 12 -36 25 -52 29 -16 3 -35 12 -41 19 -22 26 -1 26
45 -1 44 -26 45 -26 72 -8 l27 17 -29 13 c-16 7 -45 15 -64 19 -19 4 -41 12
-49 18 -8 6 -28 15 -45 21 -37 12 -45 39 -20 67 14 15 26 18 49 13 47 -10 85
-8 155 9 36 8 106 16 155 16 84 1 94 3 150 35 33 19 85 48 116 65 61 31 64 37
76 141 3 32 0 56 -11 77 -10 19 -16 56 -16 97 0 58 -2 65 -20 65 -11 0 -20 -5
-20 -11 0 -21 -22 5 -41 49 -24 55 -19 65 10 20 26 -41 26 -38 1 40 -11 35
-20 75 -20 90 0 31 -21 92 -32 92 -4 0 -8 -31 -8 -70 0 -44 -7 -88 -19 -119
-15 -41 -16 -51 -5 -55 19 -7 18 -26 -1 -26 -8 0 -15 6 -15 12 0 7 -16 -11
-35 -39 -70 -105 -78 -85 -27 69 57 175 58 176 27 188 -28 10 -30 15 -40 73
-4 23 -19 53 -39 75 l-34 36 -6 -30 c-4 -17 -20 -45 -36 -62 -23 -26 -37 -32
-69 -32 -34 0 -42 4 -46 23 -6 23 -13 71 -14 96 -1 10 -8 8 -25 -9 -28 -25
-55 -21 -63 9 -5 20 -68 36 -97 25 -9 -3 -16 -2 -17 2 0 5 -2 17 -4 27 -2 9 1
17 6 17 23 0 6 20 -26 30 -29 10 -34 15 -24 26 6 7 16 11 23 8 6 -3 -1 4 -16
16 -16 12 -28 25 -28 29 0 11 47 31 72 31 15 0 18 3 10 13 -16 19 -25 84 -13
92 6 3 8 11 5 17 -4 6 2 18 12 26 18 13 18 14 -4 7 -22 -6 -112 28 -112 43 0
4 11 20 25 36 14 16 25 25 25 21 0 -5 5 -4 12 3 30 30 64 3 59 -45 -2 -16 3
-23 14 -23 11 0 15 -5 12 -14 -6 -15 47 -31 66 -19 6 4 7 1 2 -7 -5 -9 -2 -10
14 -5 15 5 21 2 21 -9 0 -26 14 -18 29 15 12 27 11 33 -3 47 -10 11 -16 12
-16 4 0 -7 -10 -12 -22 -12 l-22 0 22 16 c18 13 20 19 11 36 -9 16 -8 23 2 29
23 14 39 10 65 -16z m-7378 -28 c-4 -29 -26 -33 -30 -5 -2 13 -7 -22 -11 -77
-5 -72 -13 -111 -29 -140 -14 -26 -17 -40 -9 -43 6 -2 11 -11 11 -19 0 -10 -6
-13 -17 -8 -14 5 -15 3 -6 -6 6 -6 23 -11 37 -11 13 0 27 -6 30 -13 2 -6 30
-22 63 -35 32 -13 103 -43 158 -68 55 -24 111 -48 124 -53 30 -12 22 -20 -30
-29 -51 -10 -95 6 -78 27 12 14 13 14 -53 17 -25 1 -40 -4 -48 -17 -9 -15 -6
-23 21 -48 17 -16 30 -32 27 -34 -2 -2 -26 6 -53 19 -28 12 -87 38 -132 56
-46 18 -83 37 -83 42 0 5 -4 7 -8 4 -4 -3 -8 10 -9 28 -1 19 -7 44 -14 57 -7
13 -13 44 -15 69 -1 25 0 38 2 28 12 -42 46 -22 53 32 0 5 9 17 20 27 17 16
30 107 31 209 0 17 5 20 26 16 18 -3 24 -10 22 -25z m3110 -709 c6 1 12 -2 12
-8 0 -5 -4 -10 -10 -10 -6 0 -10 -67 -10 -180 0 -105 -4 -180 -9 -180 -5 0
-11 12 -13 27 -2 14 -10 28 -18 30 -12 4 -12 3 -1 -5 18 -13 -72 -46 -349
-131 -36 -11 -55 -20 -43 -20 19 -1 21 -5 16 -36 -10 -64 52 -105 161 -105
115 0 115 -86 1 -137 -32 -14 -63 -17 -160 -15 -147 3 -164 -1 -221 -44 l-45
-35 -22 28 c-12 15 -30 36 -39 45 -10 10 -18 22 -18 27 0 4 -16 29 -35 54 -19
25 -35 48 -35 52 0 3 10 10 23 15 17 7 18 9 4 9 -14 1 -16 5 -7 20 13 26 13
31 -4 25 -33 -13 -137 69 -148 116 -2 7 -16 25 -32 40 -27 25 -28 28 -17 63 7
19 21 47 32 62 l21 25 -30 11 c-24 8 -28 14 -24 34 2 14 8 25 13 25 5 0 9 5 9
10 0 6 -38 10 -95 10 -65 0 -95 4 -95 11 0 12 39 11 266 -7 123 -10 152 0 244
78 79 69 195 96 260 63 30 -15 60 -61 60 -89 0 -10 6 -13 18 -10 10 4 13 3 6
-3 -7 -4 -15 -38 -19 -75 -6 -60 -5 -67 13 -77 13 -7 22 -7 24 -1 5 16 199 71
233 66 11 -2 16 -1 10 1 -14 5 -88 148 -84 162 7 19 25 -2 68 -83 31 -56 46
-74 52 -65 5 8 10 142 11 299 2 281 2 282 8 95 4 -144 8 -189 18 -187z m-3684
355 c7 -7 -297 -89 -426 -115 l-58 -12 0 -46 c0 -25 5 -51 10 -58 7 -8 7 -9
-1 -3 -6 5 -17 7 -25 4 -15 -6 -21 15 -27 103 l-5 62 117 18 c64 11 129 18
145 16 16 -1 34 2 41 8 7 6 44 14 82 17 37 3 70 7 72 9 8 7 67 4 75 -3z m7476
-119 c-14 -8 -17 -13 -8 -10 10 3 35 0 55 -7 21 -7 44 -12 52 -12 14 0 23 -12
37 -50 6 -17 8 -14 13 15 4 22 12 35 21 35 8 0 20 6 26 14 8 10 24 12 63 6 41
-6 55 -12 68 -33 30 -47 69 -88 80 -85 6 2 21 -6 32 -18 18 -19 21 -20 21 -6
0 9 5 17 10 17 6 0 10 -4 10 -8 0 -8 14 -16 63 -40 4 -2 7 3 7 12 0 9 -4 16
-10 16 -5 0 -10 9 -10 20 0 15 7 20 29 20 20 0 42 11 65 34 20 18 38 30 41 26
11 -17 -6 -294 -20 -336 -8 -25 -15 -57 -15 -73 0 -16 -7 -34 -15 -41 -8 -6
-14 -19 -13 -28 6 -80 -14 -65 -47 36 -28 86 -67 162 -83 162 -5 0 -37 36 -73
80 -57 72 -215 217 -225 207 -6 -5 46 -98 66 -118 20 -21 50 -31 50 -17 0 6
10 -2 22 -18 13 -16 26 -30 30 -32 4 -2 17 -19 29 -39 17 -28 19 -37 9 -43
-16 -10 -220 -7 -237 3 -6 4 -33 8 -60 9 -46 2 -48 4 -50 31 0 16 -5 32 -9 36
-5 3 -10 18 -11 34 -2 32 -40 112 -62 130 -12 10 -13 9 -7 -8 27 -67 44 -115
39 -115 -3 0 1 -10 9 -22 19 -30 28 -67 18 -73 -5 -3 -8 -23 -7 -45 2 -22 0
-40 -4 -40 -3 0 -6 -24 -6 -52 -1 -29 -4 -61 -8 -70 -4 -10 -5 -36 -3 -59 l4
-41 -53 59 c-28 32 -69 82 -90 112 -21 29 -51 68 -66 87 -16 19 -25 38 -21 45
4 8 3 9 -5 5 -6 -4 -14 -1 -17 8 -7 19 71 141 134 208 26 28 65 59 87 69 49
23 80 25 45 3z m-6148 -76 c32 -17 58 -34 58 -37 0 -3 -29 -35 -65 -70 l-65
-65 -31 30 c-25 24 -89 131 -89 150 0 3 19 13 42 24 46 21 55 19 150 -32z
m3253 -25 c-5 -10 -7 -22 -6 -26 1 -5 -3 -6 -9 -2 -5 3 -10 1 -10 -4 0 -6 7
-11 15 -11 8 0 15 7 15 15 0 8 7 15 15 15 8 0 15 -7 15 -15 0 -8 7 -15 16 -15
9 0 14 6 11 13 -3 8 3 14 15 14 13 1 18 -3 14 -13 -4 -10 2 -14 23 -14 21 0
28 5 27 18 0 9 6 17 14 17 8 0 14 -8 14 -17 -1 -10 5 -18 13 -18 8 0 13 8 11
18 -2 10 3 17 12 17 8 0 14 -8 14 -17 -2 -16 9 -18 87 -18 79 0 89 -2 99 -20
26 -48 -16 -85 -84 -75 -30 5 -47 3 -57 -7 -15 -14 -70 -41 -74 -36 -1 2 -7
13 -13 24 -10 18 -8 24 9 35 20 14 19 49 -2 49 -4 0 -5 -7 -2 -17 4 -11 3 -14
-5 -9 -27 16 -88 -39 -83 -76 1 -7 -49 -16 -129 -22 -37 -3 -171 -40 -230 -63
-8 -3 -20 -7 -27 -9 -6 -1 -63 -19 -125 -39 -62 -20 -119 -39 -127 -41 -8 -3
-10 -11 -6 -22 24 -63 4 -102 -70 -135 -22 -10 -48 -23 -59 -28 -13 -8 -22 -7
-29 0 -6 6 -18 11 -26 11 -17 0 -61 39 -61 54 0 6 -4 17 -9 25 -7 10 -13 11
-31 1 -34 -18 -48 6 -42 72 2 29 5 54 6 55 0 1 15 4 31 8 23 5 26 4 15 -4 -12
-9 -10 -10 12 -9 22 2 25 5 15 17 -10 12 -8 14 11 9 12 -4 20 -2 16 3 -9 15
18 10 64 -11 23 -10 45 -19 47 -20 3 0 12 0 20 0 9 0 25 -19 35 -42 11 -24 17
-32 14 -18 -9 38 -43 84 -75 103 -27 15 -29 15 -39 -1 -8 -15 -9 -14 -10 6 0
40 37 44 96 12 37 -21 51 -24 51 -14 0 8 -7 14 -15 14 -11 0 -8 6 8 20 13 11
28 20 34 20 6 0 4 -5 -4 -10 -17 -11 -1 -13 24 -4 9 3 13 11 9 17 -3 5 -1 7 5
3 5 -3 12 -1 14 6 3 8 14 2 31 -16 27 -29 27 -29 46 -9 13 14 16 24 9 36 -10
19 -8 20 16 11 9 -3 14 -9 11 -13 -2 -4 12 -7 32 -7 20 1 38 7 41 14 2 6 0 12
-5 12 -6 0 -10 7 -10 15 0 21 14 19 22 -4 4 -14 14 -18 36 -16 36 3 44 10 44
38 0 11 6 22 13 24 7 3 10 -1 6 -11 -8 -20 3 -21 21 -2 8 7 11 17 7 21 -6 7 7
4 46 -12 6 -3 12 0 12 7 0 6 -4 9 -9 5 -5 -3 -13 0 -17 6 -4 7 -3 9 4 5 5 -3
12 0 15 6 2 7 12 -3 22 -23 14 -29 22 -35 41 -31 13 2 21 9 18 14 -4 5 -14 8
-24 5 -13 -3 -20 2 -24 19 -8 31 9 64 33 64 10 0 22 8 25 18 12 30 30 61 34
57 3 -2 1 -12 -3 -22z m1351 -45 c-4 -22 -2 -26 11 -21 12 5 15 2 10 -9 -8
-22 19 -31 37 -13 25 25 35 17 23 -17 -12 -33 -83 -105 -99 -100 -5 1 -7 -2
-4 -7 3 -5 -2 -15 -11 -22 -15 -13 -16 -6 -9 84 5 75 4 97 -6 97 -8 1 -7 6 5
14 9 7 17 24 17 37 1 24 1 24 16 4 9 -12 13 -31 10 -47z m3353 -138 c-14 -11
-66 -40 -115 -66 -105 -55 -102 -53 -85 -64 10 -6 3 -14 -28 -30 -24 -12 -41
-24 -38 -26 3 -3 28 7 57 22 32 17 47 30 40 34 -16 10 3 22 23 15 14 -6 92 33
84 42 -3 2 -20 -5 -38 -16 -35 -22 -60 -28 -43 -12 5 5 35 24 68 40 55 29 59
30 72 14 19 -26 19 -49 -1 -33 -21 17 -81 -19 -77 -45 3 -16 1 -17 -11 -6 -13
10 -21 9 -44 -4 -15 -8 -57 -31 -93 -51 -36 -19 -76 -43 -90 -52 -14 -9 -37
-22 -52 -29 -29 -13 -36 -29 -16 -35 14 -5 12 -88 -2 -102 -6 -6 -10 -18 -10
-28 0 -10 -6 -18 -14 -18 -8 0 -18 -9 -21 -21 -9 -27 -24 -20 -52 24 l-23 37
26 0 26 0 -33 41 c-42 53 -76 76 -92 60 -6 -6 -15 -11 -21 -11 -14 0 6 19 36
34 12 7 22 17 21 23 -2 7 11 8 40 1 48 -11 80 -5 118 23 30 21 54 25 43 7 -4
-7 -3 -8 5 -4 6 4 9 11 6 16 -3 5 3 14 14 20 17 9 20 8 14 -6 -5 -14 -3 -14
15 -3 12 7 17 16 12 19 -6 4 9 17 32 30 25 14 37 26 28 27 -8 2 -69 -26 -135
-62 -66 -36 -123 -65 -127 -65 -3 0 -4 10 -1 21 4 14 0 26 -11 35 -20 14 -4
29 21 20 10 -4 14 -15 11 -31 -3 -14 -4 -25 -1 -25 3 0 265 142 418 226 68 38
82 42 44 14z m-7969 -14 c-16 -21 26 -78 55 -74 23 3 95 -36 95 -51 0 -5 -5
-11 -12 -13 -7 -3 -9 -14 -4 -31 3 -15 11 -25 16 -22 12 7 52 -19 43 -28 -3
-4 -12 -2 -19 4 -19 16 -61 3 -67 -21 -5 -20 -37 -29 -37 -10 0 6 -10 10 -23
10 -33 0 -47 19 -47 63 0 22 -4 36 -10 32 -6 -3 -7 1 -3 10 4 12 8 13 13 5 8
-12 12 -8 23 22 5 14 1 17 -16 15 -17 -2 -23 5 -31 36 -8 32 -7 39 10 52 24
18 30 19 14 1z m5985 -170 c44 -53 82 -101 83 -106 6 -16 -28 -11 -34 5 -4 8
-12 15 -19 15 -7 0 -15 14 -19 31 -4 20 -10 28 -17 23 -8 -4 -9 -3 -5 4 12 19
-10 13 -29 -8 -12 -13 -15 -27 -11 -44 6 -24 3 -27 -41 -38 -88 -22 -86 -23
-91 70 -3 77 -2 85 29 138 l32 57 21 -25 c12 -14 57 -69 101 -122z m-6071
-100 c-3 -7 6 -17 18 -23 32 -14 51 -68 32 -87 -16 -17 -19 -36 -4 -36 6 0 10
5 10 10 0 6 10 2 21 -9 l22 -20 -29 -30 c-33 -35 -43 -37 -85 -15 -25 13 -30
20 -24 37 4 12 7 61 6 109 -3 82 -2 86 18 81 11 -3 18 -10 15 -17z m1045 -283
c18 -57 36 -103 41 -103 6 0 10 -9 10 -19 0 -11 5 -23 10 -26 6 -4 8 -10 5
-15 -9 -14 6 -39 20 -34 7 3 16 -4 20 -15 3 -12 15 -21 25 -21 12 0 20 -10 24
-34 6 -30 36 -60 36 -36 0 6 -5 10 -11 10 -8 0 -8 5 1 15 18 22 25 19 28 -11
1 -15 7 -33 13 -40 6 -8 9 -21 5 -29 -8 -23 2 -18 20 10 13 20 14 28 4 40 -9
11 -9 15 -1 15 9 0 9 5 1 20 -6 11 -8 20 -4 20 3 0 1 7 -6 15 -7 8 -16 12 -21
9 -5 -3 -9 4 -9 15 0 12 5 21 11 21 5 0 8 4 4 9 -3 6 2 14 11 19 16 9 16 11
-2 29 -19 21 -60 24 -72 7 -11 -15 -42 -13 -42 2 0 8 9 14 21 14 12 0 34 14
50 31 26 28 28 34 16 48 -8 9 -17 25 -22 36 l-7 20 -8 -20 c-7 -18 -8 -19 -15
-2 -4 9 -5 26 -2 37 4 17 1 19 -19 14 -19 -5 -24 -2 -24 14 0 11 7 22 15 26 8
3 15 10 15 17 0 6 -7 9 -15 5 -8 -3 -19 3 -25 13 -8 15 10 11 92 -24 106 -45
121 -58 215 -195 32 -47 88 -115 101 -123 6 -4 12 -16 12 -26 0 -9 17 -37 37
-61 l37 -43 -31 -27 c-44 -40 -139 -73 -188 -66 -92 12 -148 30 -193 59 -26
18 -54 32 -62 32 -8 0 -17 15 -22 38 -4 20 -16 54 -27 75 -11 21 -41 101 -67
178 -38 112 -48 154 -50 219 l-3 80 8 -70 c5 -38 23 -116 40 -172z m5166 197
c6 -20 -6 -52 -32 -81 -12 -14 -10 -18 19 -29 44 -18 44 -18 24 -33 -9 -7 -21
-30 -26 -52 -8 -34 -6 -43 10 -59 18 -18 18 -20 2 -35 -9 -9 -23 -26 -29 -38
-11 -19 -10 -24 3 -31 16 -9 2 -16 -52 -27 -6 -2 -20 -6 -30 -9 -15 -4 -26 5
-49 42 -17 26 -30 54 -31 63 -1 20 -51 72 -71 75 -26 4 -45 28 -40 51 2 13 -1
23 -6 23 -19 0 7 18 36 25 24 7 27 5 27 -20 0 -17 5 -25 13 -22 6 2 10 14 9
27 -4 27 12 40 54 40 23 0 34 -7 44 -25 7 -14 15 -23 18 -20 3 2 -1 12 -8 21
-12 13 -11 17 1 25 8 5 22 9 32 9 13 0 17 9 17 38 0 21 5 43 12 50 18 18 46
14 53 -8z m-547 -105 c-5 -5 -168 -72 -393 -162 -77 -30 -142 -57 -144 -59 -9
-9 11 -55 23 -51 25 10 37 -10 47 -74 7 -44 7 -74 0 -92 -12 -31 -36 -38 -26
-8 7 24 -14 61 -31 54 -8 -3 -11 2 -8 14 3 11 -3 23 -15 30 -17 10 -20 9 -25
-13 -7 -28 -24 -32 -32 -6 -14 44 -40 99 -56 121 -22 29 -22 35 -2 55 23 23
31 20 38 -16 4 -18 15 -51 26 -73 l20 -40 -6 40 c-3 22 -12 59 -21 83 -13 34
-13 45 -4 55 13 12 19 7 55 -47 14 -21 10 -22 111 19 17 7 62 25 100 40 39 15
84 34 100 41 17 7 63 25 103 40 39 15 72 32 72 36 0 5 4 6 10 3 5 -3 18 -1 27
4 18 11 40 15 31 6z m-1430 -380 c17 -14 34 -25 39 -25 13 0 29 -37 48 -110
17 -65 14 -80 -14 -80 -10 0 -25 -10 -33 -22 -11 -17 -20 -20 -43 -14 -41 10
-105 82 -105 117 0 36 -16 45 -30 18 -7 -12 -8 -19 -3 -16 13 8 56 -84 45 -95
-14 -14 -40 1 -51 30 -5 15 -10 20 -11 12 -1 -16 -34 -60 -44 -60 -14 0 -4 31
19 58 14 17 25 43 25 58 1 65 65 154 111 154 9 0 31 -11 47 -25z m-4500 6 l43
-1 -3 -140 -3 -140 -40 6 c-67 10 -113 22 -87 23 12 1 22 7 22 16 0 8 -6 12
-13 9 -8 -3 -19 2 -26 10 -15 18 3 52 31 59 10 3 18 13 18 24 -1 17 -2 17 -17
-2 -15 -19 -15 -19 -9 7 5 20 1 33 -14 48 -11 11 -20 29 -20 39 0 11 -6 23
-12 27 -16 10 25 21 62 18 14 -1 44 -2 68 -3z m205 -17 c11 -11 -5 -34 -24
-34 -10 0 -19 -7 -19 -15 0 -8 7 -15 15 -15 8 0 15 -7 15 -15 0 -8 -8 -15 -18
-15 -13 0 -22 -12 -31 -40 -7 -22 -9 -45 -6 -50 3 -6 0 -10 -7 -10 -9 0 -9 -3
2 -10 8 -5 22 -10 30 -10 13 0 13 1 0 11 -12 8 -11 9 5 6 11 -2 19 -8 18 -15
-3 -14 34 -35 46 -27 18 11 38 -6 34 -29 -3 -14 3 -30 14 -41 15 -16 15 -18 2
-13 -10 4 -55 14 -100 24 -46 10 -85 18 -86 19 -2 1 4 26 12 56 7 30 24 93 36
142 17 66 26 87 39 87 9 0 19 -3 23 -6z m333 -54 c-3 -19 -5 -50 -5 -68 -1
-28 -4 -32 -20 -27 -16 5 -18 2 -14 -15 4 -13 1 -20 -10 -20 -9 0 -17 13 -21
35 -4 19 -11 35 -16 35 -13 0 -13 -16 0 -39 7 -15 4 -21 -17 -30 l-26 -12 7
43 c4 24 9 59 13 78 6 34 6 34 -13 15 -14 -14 -19 -33 -19 -74 0 -45 -3 -56
-17 -59 -16 -3 -18 5 -18 57 0 34 -4 61 -10 61 -5 0 -10 9 -10 20 0 17 7 20
45 20 25 0 45 5 45 10 0 6 9 10 20 10 25 0 26 -25 3 -39 -17 -9 -17 -11 -1
-27 16 -16 17 -15 23 12 4 16 11 39 17 51 9 18 14 20 29 10 15 -9 18 -20 15
-47z m1428 -95 c6 -11 14 -22 17 -25 11 -10 59 -85 59 -93 0 -10 -21 12 -36
38 -10 18 -60 42 -69 33 -5 -5 17 -84 40 -147 11 -31 13 -46 5 -51 -7 -5 -6
-11 5 -20 28 -23 17 -33 -30 -26 -26 4 -45 3 -45 -2 0 -5 20 -17 45 -26 25
-10 45 -21 45 -26 0 -5 8 -11 18 -13 9 -3 -11 -4 -45 -4 -35 0 -65 -2 -68 -5
-4 -3 0 -21 8 -39 8 -19 15 -73 16 -121 1 -79 -1 -87 -19 -93 -21 -7 -28 -25
-9 -25 5 0 7 -5 3 -11 -3 -6 -1 -15 6 -19 7 -4 9 -13 6 -19 -4 -6 -12 -9 -17
-6 -5 4 -9 -5 -9 -19 0 -14 5 -28 10 -31 14 -9 3 -25 -13 -19 -7 2 -12 -5 -12
-21 0 -14 4 -25 10 -25 5 0 3 -6 -5 -14 -9 -9 -26 -12 -41 -9 -23 4 -26 9 -23
39 2 22 -1 34 -9 34 -8 0 -7 3 2 9 10 6 12 19 8 40 -5 23 -3 33 8 37 8 4 15
14 14 23 0 10 -2 11 -6 3 -2 -6 -10 -9 -15 -6 -7 4 -8 2 -4 -4 4 -7 2 -12 -5
-12 -7 0 -10 11 -7 30 3 22 0 31 -14 36 -10 3 -18 15 -18 26 0 18 2 19 17 7
15 -13 15 -12 4 10 -13 24 -13 24 30 17 24 -4 47 -12 51 -19 6 -9 8 -8 8 2 0
12 3 12 12 3 10 -10 7 -17 -10 -34 -21 -22 -22 -22 -22 -3 0 17 -2 17 -10 5
-14 -22 -12 -29 8 -25 9 2 25 4 35 4 14 1 17 10 17 50 0 28 -5 53 -10 56 -6 4
-8 11 -5 16 4 5 -1 9 -10 9 -9 0 -13 -4 -10 -10 3 -5 1 -10 -4 -10 -6 0 -11 4
-11 10 0 5 -8 9 -17 8 -34 -4 -163 14 -163 23 0 5 -8 9 -17 9 -18 1 -63 32
-63 44 0 3 11 6 24 6 32 0 42 17 23 38 -16 18 -17 20 -17 52 0 14 -5 18 -16
13 -12 -4 -13 -7 -3 -14 8 -4 11 -10 8 -13 -3 -3 -22 6 -42 19 -20 14 -43 25
-51 25 -9 0 -16 5 -16 10 0 6 8 10 19 10 10 0 24 7 32 16 7 9 22 14 36 11 13
-2 28 2 34 9 9 11 8 14 -5 14 -9 0 -16 8 -16 18 0 14 2 15 10 2 13 -20 13 -4
0 21 -7 12 -7 19 -1 19 6 0 8 7 5 15 -9 22 32 52 95 70 29 9 72 28 95 43 47
30 105 52 125 49 8 -1 19 -11 25 -22z m428 -30 c39 -19 58 -53 78 -138 13 -57
40 -250 36 -254 -1 -2 -39 47 -84 109 -61 85 -78 116 -70 126 8 9 7 11 -4 7
-8 -3 -22 3 -32 14 -18 20 -18 21 5 42 l24 21 -27 -16 c-23 -13 -28 -13 -38
-1 -7 8 -10 22 -6 30 3 10 0 15 -11 15 -15 0 -33 17 -54 53 -9 16 -4 17 68 14
47 -3 92 -11 115 -22z m-1158 -22 c-17 -12 -17 -13 3 -13 17 0 20 -6 19 -49
-1 -34 -5 -47 -13 -44 -7 3 -13 9 -13 14 0 5 -4 9 -10 9 -5 0 -10 -7 -10 -15
0 -20 -17 -19 -29 3 -8 13 -10 7 -11 -28 0 -49 21 -90 46 -90 11 0 13 -6 9
-19 -3 -11 -2 -22 3 -25 6 -3 12 6 15 20 3 20 -1 28 -24 40 -30 15 -39 34 -16
34 7 0 18 -5 25 -12 9 -9 12 -9 12 0 0 7 5 12 10 12 6 0 10 -26 10 -59 0 -33
5 -63 10 -66 6 -3 10 3 10 14 0 21 15 29 22 12 2 -5 14 -1 27 10 18 15 21 22
12 32 -6 8 -7 17 -3 22 4 4 -3 4 -15 1 -21 -7 -22 -5 -16 25 5 25 3 31 -8 27
-8 -3 -13 -15 -11 -28 2 -14 0 -20 -7 -16 -12 8 -15 78 -4 89 3 4 12 2 20 -5
23 -19 24 -2 1 28 -12 16 -15 23 -8 17 17 -15 34 -17 25 -3 -3 6 -2 10 3 10
16 0 22 -13 11 -26 -7 -8 -7 -14 1 -19 13 -8 21 13 18 44 -2 13 3 26 10 29 10
3 13 -4 11 -24 -1 -16 4 -45 13 -64 8 -19 18 -69 21 -110 4 -41 17 -107 31
-146 l24 -72 -33 11 c-23 7 -46 7 -74 -1 -23 -5 -41 -6 -41 -1 0 5 7 9 15 9 8
0 15 5 15 11 0 5 4 7 10 4 5 -3 20 1 32 9 28 20 8 21 -37 2 -18 -8 -36 -12
-38 -9 -6 6 -104 -43 -112 -57 -8 -14 -2 -13 45 6 23 9 37 21 33 27 -3 6 -1 7
6 3 19 -12 8 -28 -29 -40 -25 -8 -34 -17 -35 -36 -2 -14 1 -30 6 -36 5 -7 3
-11 -6 -11 -7 0 -14 3 -13 6 0 3 0 17 -1 31 -1 23 -2 23 -12 6 -9 -15 -13 -16
-20 -5 -12 19 -11 82 0 74 5 -3 12 -1 16 5 3 5 -1 10 -9 10 -9 0 -16 4 -16 10
0 17 46 41 66 34 13 -4 15 -3 6 3 -10 8 -10 12 3 23 10 8 15 9 15 1 0 -6 5
-11 11 -11 6 0 8 9 4 22 -6 17 -4 20 9 15 10 -4 16 -1 16 7 0 9 -14 12 -45 12
-29 -1 -45 -5 -45 -13 0 -7 -9 -13 -20 -13 -18 0 -19 2 -8 20 7 11 18 20 25
20 7 0 13 4 13 10 0 12 -29 2 -52 -18 -15 -13 -18 -13 -18 -1 -1 10 -4 9 -11
-3 -5 -10 -19 -18 -29 -18 -21 0 -27 15 -10 25 16 10 11 22 -12 28 -12 4 -29
1 -37 -6 -12 -10 -13 -7 -8 20 7 35 -7 53 -26 34 -15 -15 -24 -14 -24 3 0 9
14 16 39 18 47 4 78 -6 78 -27 0 -8 4 -15 9 -15 6 0 8 10 6 21 -4 21 -4 21 15
4 11 -10 17 -23 13 -29 -4 -7 -2 -8 5 -1 15 14 23 66 12 79 -4 6 -10 27 -12
46 -3 29 -7 34 -28 34 -14 0 -31 -4 -39 -8 -10 -7 -11 -4 -1 13 6 12 15 19 21
16 17 -11 47 6 53 30 4 15 14 25 24 25 15 0 15 -2 2 -10 -13 -8 -12 -10 4 -10
14 0 17 6 14 23 -4 21 -1 24 25 24 27 0 28 -1 11 -14z m-524 -223 c2 21 4 19
10 -10 l7 -35 2 34 1 34 50 -5 c53 -5 103 -39 94 -63 -3 -7 5 -15 18 -19 13
-4 18 -10 12 -12 -7 -3 -10 -14 -7 -24 7 -25 -4 -25 -30 -3 -18 17 -19 17 -12
-20 7 -33 5 -37 -14 -37 -16 0 -23 8 -27 29 -4 17 -16 38 -27 48 -18 16 -20
16 -14 1 8 -23 -21 -28 -60 -9 -40 20 -44 29 -30 75 11 33 13 35 19 14 6 -23
6 -23 8 2z m3940 -9 c0 -5 10 -13 23 -17 34 -10 197 -196 197 -224 0 -6 8 -10
18 -10 16 0 18 10 16 111 l-2 112 65 -7 c36 -4 79 -14 95 -22 17 -9 40 -13 52
-10 11 3 54 -1 95 -10 73 -16 73 -17 93 -62 22 -50 22 -76 -4 -362 -6 -69 -12
-215 -12 -325 -2 -162 -6 -212 -20 -260 -10 -33 -20 -67 -23 -75 -4 -12 -5
-13 -13 0 -7 11 -11 9 -18 -10 -13 -34 -35 -141 -30 -146 2 -2 26 11 54 29
106 70 184 117 184 112 0 -9 -382 -256 -387 -251 -3 2 14 16 36 30 23 15 41
31 41 36 0 6 9 10 19 10 22 0 30 17 35 77 2 22 7 46 11 53 11 18 14 70 3 64
-4 -3 -8 2 -8 11 0 8 -7 18 -15 21 -12 5 -15 21 -11 83 l4 76 -14 -45 c-7 -25
-12 -33 -10 -18 2 16 -3 33 -10 39 -8 6 -14 22 -14 35 0 15 -6 24 -15 24 -12
0 -13 5 -5 26 13 32 15 117 5 134 -5 9 -4 11 3 6 18 -11 14 1 -9 28 -12 14
-34 30 -50 36 -26 11 -33 21 -30 42 0 4 -8 5 -19 3 -22 -4 -69 29 -58 41 4 4
14 1 23 -6 12 -10 15 -10 15 1 0 9 3 10 8 4 12 -17 60 -38 71 -31 6 4 9 1 5
-7 -3 -9 8 -17 34 -25 52 -16 53 -16 42 13 -6 15 -6 26 0 30 6 4 10 33 10 65
0 80 -3 83 -136 119 -44 12 -88 42 -103 69 -8 15 -2 17 59 16 57 -2 67 1 66
14 -1 12 -18 20 -61 29 -51 11 -66 20 -103 59 -24 25 -46 43 -49 40 -4 -3 4
-27 16 -52 13 -25 21 -48 18 -51 -3 -2 -22 14 -42 36 -21 23 -42 41 -47 41 -5
0 6 -29 26 -65 42 -77 33 -85 -18 -15 -20 28 -40 50 -46 50 -22 0 -8 -31 31
-70 l41 -41 -6 -82 c-6 -78 -16 -276 -16 -325 0 -13 -11 -34 -24 -47 -15 -15
-20 -28 -15 -37 15 -22 10 -45 -10 -51 -13 -3 -22 -17 -27 -43 -12 -69 -38
-84 -52 -31 -6 24 -14 33 -33 35 -18 2 -26 -2 -26 -12 0 -9 6 -16 14 -16 7 0
13 -7 13 -15 0 -8 5 -15 10 -15 6 0 10 -7 10 -15 0 -8 -7 -15 -15 -15 -8 0
-15 -4 -15 -10 0 -16 23 -60 31 -60 9 0 4 -78 -17 -234 -14 -107 -24 -152 -79
-361 -14 -55 -22 -101 -18 -103 22 -7 35 -21 31 -32 -5 -16 -50 21 -54 44 -4
31 -48 86 -68 86 -18 0 -18 -2 5 -27 47 -53 52 -62 31 -56 -10 2 -28 21 -40
41 -11 20 -37 45 -58 57 -33 18 -38 27 -40 58 0 25 4 37 13 37 12 0 18 -21 13
-45 -1 -5 2 -7 5 -3 4 4 16 3 26 -2 25 -14 69 4 69 29 0 18 12 23 88 33 22 3
12 27 -18 43 -17 9 -28 19 -26 24 3 4 -1 16 -8 26 -9 13 -11 28 -6 46 7 22 5
27 -6 22 -10 -4 -12 0 -8 11 3 9 11 16 18 16 8 0 8 3 0 8 -18 12 -26 45 -12
54 10 7 9 9 -2 5 -8 -2 -25 10 -37 27 -30 40 -29 48 2 14 29 -34 30 -34 32 -7
2 26 14 39 20 21 3 -6 9 -9 14 -6 6 3 6 11 -2 20 -6 7 -15 11 -20 8 -5 -3 -6
2 -3 11 4 8 0 23 -7 32 -13 15 -11 15 23 9 l38 -7 -18 30 c-9 17 -27 36 -39
42 -36 19 -29 38 12 33 19 -2 51 -6 70 -8 43 -6 44 7 4 43 -29 27 -30 31 -25
85 6 55 6 56 -16 52 -13 -3 -36 -7 -53 -10 -16 -2 -38 -8 -47 -11 -10 -4 -18
-3 -18 3 0 5 26 17 58 27 31 10 59 21 62 24 3 4 18 11 34 16 35 12 51 41 16
30 -16 -5 -21 -4 -18 6 3 8 15 13 26 11 17 -3 22 2 22 19 0 20 -1 20 -24 6
-13 -9 -45 -17 -72 -19 -27 -2 -52 -7 -56 -13 -5 -6 -8 -3 -8 7 0 14 -4 16
-24 8 -13 -5 -27 -6 -30 -3 -3 4 -6 1 -6 -5 0 -7 -4 -12 -10 -12 -19 0 -10 26
21 60 17 19 28 29 24 23 -3 -7 -2 -13 3 -13 15 0 63 41 57 50 -10 16 31 53 59
53 23 0 27 3 22 21 -3 11 -6 26 -6 33 0 7 -18 2 -45 -14 -42 -23 -58 -43 -35
-43 6 0 10 -4 10 -10 0 -5 -6 -10 -13 -10 -8 0 -19 -10 -25 -22 -10 -19 -11
-13 -6 32 10 87 18 101 54 94 32 -7 60 8 60 32 0 8 -9 14 -19 14 -11 0 -23 5
-26 10 -3 6 3 10 14 10 12 0 21 4 21 10 0 16 -60 71 -70 65 -14 -9 -12 9 2 23
15 15 6 24 -15 16 -9 -3 -13 -12 -10 -20 3 -7 -2 -17 -11 -20 -9 -3 -16 -13
-16 -21 0 -8 -4 -11 -10 -8 -5 3 -10 18 -10 33 0 19 3 23 9 14 6 -10 10 -7 15
12 4 15 18 36 31 48 23 20 26 46 3 32 -7 -4 -7 0 0 12 5 11 7 25 4 33 -3 8 0
11 7 7 7 -5 11 1 11 13 0 24 -10 27 -30 9 -12 -11 -12 -10 -2 3 6 9 9 19 6 22
-3 3 1 16 10 29 23 32 21 52 -3 38 -11 -5 -26 -10 -33 -10 -7 1 6 10 29 21 42
19 69 51 59 68 -3 5 6 16 20 26 14 9 39 29 55 45 21 19 37 26 52 23 18 -5 20
-3 10 8 -16 16 -17 29 -3 29 6 0 10 -4 10 -9z m2877 -86 c13 -33 33 -107 44
-165 45 -232 51 -255 65 -263 16 -9 19 -37 4 -37 -10 0 22 -91 46 -127 18 -29
18 -52 -1 -59 -11 -5 -15 -22 -15 -69 0 -34 -3 -83 -6 -109 -6 -40 -10 -46
-30 -46 -13 0 -24 5 -24 10 0 7 -6 7 -19 0 -28 -14 -29 -14 -33 30 -3 31 0 40
12 40 10 0 6 8 -13 25 -33 32 -34 43 -2 55 14 5 25 12 25 16 0 3 -7 3 -16 0
-8 -3 -25 0 -37 6 -21 12 -20 13 18 18 22 3 48 2 59 -3 13 -6 16 -6 12 2 -5 7
1 11 14 11 15 0 20 5 17 14 -3 7 -1 18 4 23 15 15 0 61 -22 68 -11 4 -17 10
-14 15 3 5 7 31 9 58 l4 50 -40 -10 c-27 -6 -45 -5 -52 2 -11 11 -49 14 -60 3
-4 -4 -23 -8 -44 -9 -84 -3 -112 -35 -74 -85 10 -13 30 -44 44 -69 l26 -46
-26 1 c-23 0 -28 5 -32 35 -7 46 -34 84 -54 77 -13 -5 -15 -1 -10 21 4 15 11
28 16 30 4 2 1 13 -7 25 -8 12 -15 25 -15 29 0 13 22 9 39 -6 11 -9 23 -11 39
-5 23 9 29 24 12 34 -7 4 -7 13 0 26 8 14 6 25 -6 45 -15 22 -15 27 -3 35 12
8 12 10 0 18 -7 5 -14 19 -15 32 -1 20 -6 24 -33 24 -20 0 -33 5 -33 12 0 7
12 13 28 13 16 0 32 8 40 20 11 19 9 20 -49 19 -33 -1 -63 1 -66 4 -6 7 51 37
71 37 8 0 20 10 27 21 10 20 9 21 -12 14 -13 -4 -42 -9 -64 -12 l-40 -4 54 31
c68 38 74 44 36 36 -68 -14 -145 -17 -145 -7 0 11 95 58 185 92 28 10 70 18
94 16 l45 -2 23 -60z m-705 -92 c0 -38 3 -53 5 -35 4 27 8 33 23 29 15 -4 17
0 14 27 -3 25 -2 27 5 11 5 -11 10 -41 10 -67 1 -28 7 -53 16 -62 12 -12 16
-41 17 -124 0 -59 -3 -118 -6 -130 -5 -13 -3 -22 3 -22 6 0 11 -6 11 -13 0 -7
9 -20 20 -30 11 -9 20 -22 21 -29 0 -7 2 -28 3 -45 3 -29 1 -33 -20 -33 -21 0
-24 -5 -25 -37 -1 -50 -33 -141 -43 -124 -14 21 -16 163 -3 158 7 -2 24 5 40
15 20 15 27 27 26 51 0 27 -2 29 -9 12 -7 -17 -9 -18 -9 -2 -1 9 -10 25 -21
34 -11 10 -20 27 -20 38 -1 14 -5 10 -16 -14 -8 -19 -17 -32 -19 -29 -5 5 17
68 35 101 9 14 6 17 -19 17 l-29 0 -10 118 -10 117 5 -122 5 -123 -73 1 c-77
1 -77 1 7 24 7 2 8 28 3 79 -12 120 -4 234 17 257 33 36 44 24 46 -48z m-5662
25 c0 -5 -3 -8 -7 -8 -5 0 -10 -65 -11 -145 -3 -108 -1 -145 8 -145 8 0 11
-12 8 -36 l-4 -36 35 6 c20 3 45 6 56 6 18 1 17 2 -5 15 -15 9 -19 15 -10 15
9 0 5 6 -10 15 -20 12 -22 14 -7 15 11 0 28 10 38 23 l20 22 -4 -32 c-2 -19 1
-33 7 -34 6 0 2 -4 -9 -9 -17 -7 -17 -9 -2 -9 9 -1 17 -3 17 -5 0 -2 3 -11 6
-19 4 -12 -8 -18 -53 -27 -113 -24 -210 -79 -298 -169 -47 -48 -53 -51 -101
-51 -51 0 -52 1 -68 40 -9 22 -16 54 -16 70 0 16 -4 32 -10 35 -28 17 -1 25
88 25 60 0 92 4 83 9 -8 5 -24 8 -37 6 -13 -1 -21 2 -18 7 4 6 -20 9 -57 8
-90 -2 -92 -2 -85 15 3 8 2 15 -3 15 -11 0 -19 31 -14 48 3 6 13 12 24 12 13
0 19 7 19 24 0 48 43 38 46 -11 1 -15 2 -36 3 -45 1 -13 10 -18 30 -18 16 0
31 -5 33 -12 9 -26 28 6 28 48 0 29 4 43 10 39 7 -4 8 -24 4 -52 -5 -33 -4
-44 5 -39 6 4 11 16 11 27 0 10 5 19 11 19 6 0 8 -9 4 -20 -5 -14 -2 -20 9
-20 9 0 16 6 16 13 0 9 2 9 8 0 9 -15 32 -18 56 -8 11 5 26 4 34 -2 12 -7 24
-5 44 6 32 19 36 31 9 31 -10 0 -22 7 -25 16 -4 11 0 14 14 12 19 -3 21 4 27
127 4 72 6 149 6 172 -2 40 -1 42 17 30 11 -6 20 -15 20 -19z m1227 -143 c124
-167 120 -159 127 -255 3 -47 8 -128 12 -180 4 -61 2 -104 -5 -120 -11 -25
-11 -25 -9 5 1 17 -1 35 -4 40 -4 6 -5 23 -4 38 2 15 -1 27 -6 27 -5 0 -6 9
-3 20 6 20 -9 28 -20 10 -11 -17 -23 -11 -23 13 0 12 -2 29 -4 37 -3 8 -8 27
-12 42 -4 15 -15 29 -23 32 -11 5 -14 15 -10 39 4 30 2 33 -42 55 -46 22 -46
22 -11 18 31 -4 32 -4 13 6 -13 6 -24 16 -24 22 -1 6 -3 21 -4 34 -1 13 -11
30 -21 38 -11 9 -13 13 -6 9 8 -4 12 1 12 14 0 12 -3 20 -7 20 -5 -1 -16 -1
-25 0 -28 2 -21 21 7 21 14 0 25 5 25 10 0 6 -12 10 -27 10 -16 1 -39 7 -53
15 -24 14 -24 14 -3 15 12 0 23 -5 25 -12 3 -7 14 -9 34 -3 29 7 29 7 7 18
-28 13 -30 31 -3 22 11 -3 20 -2 20 3 0 18 -26 30 -82 36 -32 4 -58 11 -58 16
0 10 77 18 102 10 9 -3 56 -59 105 -125z m-2141 77 c23 -15 68 -44 100 -66 49
-32 61 -36 77 -26 10 6 22 8 25 4 4 -4 1 -9 -5 -11 -20 -7 -15 -25 5 -21 9 2
26 -4 36 -14 11 -10 30 -18 44 -18 18 0 22 -4 17 -19 -3 -11 1 -26 10 -35 9
-9 15 -21 13 -27 -2 -6 -17 7 -32 30 -33 47 -35 48 -33 21 1 -11 5 -20 9 -20
4 0 8 -5 8 -11 0 -5 -4 -8 -9 -4 -5 3 -12 1 -15 -4 -3 -4 4 -8 17 -7 17 1 22
-5 23 -24 2 -77 3 -80 29 -80 14 0 34 5 44 12 18 11 18 13 4 23 -10 7 -13 17
-8 25 6 10 12 7 26 -11 16 -21 16 -24 1 -35 -13 -9 -14 -15 -4 -26 13 -16 7
-28 -15 -28 -8 0 -22 -7 -30 -16 -10 -10 -25 -13 -39 -10 -14 4 -24 2 -24 -4
0 -5 16 -10 35 -10 25 0 37 -6 46 -21 16 -30 4 -90 -21 -109 -18 -14 -23 -33
-32 -131 -9 -106 -12 -116 -39 -144 -16 -17 -29 -38 -29 -47 0 -26 22 -33 37
-12 12 17 13 7 7 -71 -6 -83 -22 -158 -23 -112 -1 19 -20 24 -22 5 -5 -47 -7
-57 -13 -67 -4 -6 -13 -11 -21 -11 -7 0 -16 -6 -18 -12 -3 -7 -6 4 -6 25 -1
25 4 40 14 43 31 12 16 60 -17 55 -5 0 -8 3 -8 8 0 5 -7 71 -15 148 -16 148
-41 274 -60 299 -6 9 -32 18 -58 21 -26 3 -47 9 -47 12 0 12 93 96 133 120 26
16 35 26 27 31 -9 5 -9 9 -1 14 6 4 11 2 11 -3 0 -6 7 -11 15 -11 11 0 14 8
10 29 -3 16 0 42 6 58 13 35 12 39 -8 35 -9 -2 -31 -1 -50 3 -32 6 -33 7 -33
56 0 31 -4 48 -10 44 -5 -3 -7 0 -4 8 6 16 -10 30 -41 34 -11 2 -22 8 -23 13
-2 6 -8 8 -13 4 -5 -3 -9 2 -9 10 0 9 -3 15 -7 15 -23 -4 -33 3 -33 21 0 11
-6 23 -12 25 -14 5 -56 13 -75 14 -14 1 -18 33 -6 45 14 14 98 -6 139 -32z
m-503 -77 c25 -10 21 -32 -7 -37 -28 -6 -40 0 -49 22 -4 12 -6 11 -6 -2 -1
-10 -8 -18 -16 -18 -18 0 -19 -10 -2 -30 9 -11 33 -15 90 -15 75 0 118 -10 90
-22 -26 -10 -12 -23 18 -18 27 5 30 3 24 -15 -4 -14 -2 -20 8 -20 16 0 21 47
6 56 -16 10 -9 24 10 21 11 -1 20 3 20 8 0 6 -10 9 -22 8 -14 -2 -16 0 -7 4 8
3 18 10 21 16 8 12 52 -30 44 -42 -2 -5 4 -58 15 -118 11 -60 23 -142 26 -182
l7 -74 -77 5 c-76 5 -95 14 -96 46 0 6 9 12 19 12 25 0 37 36 20 57 -12 14
-14 13 -20 -8 -5 -19 -8 -12 -14 29 -12 82 -24 61 -22 -38 l2 -90 -81 0 c-81
0 -82 0 -88 28 -4 15 -25 64 -49 110 -32 64 -39 86 -31 99 16 26 31 26 37 1 9
-33 23 -12 31 45 4 35 2 47 -7 47 -18 0 -37 -21 -37 -40 0 -9 -9 -25 -20 -35
-18 -17 -19 -16 -25 7 -4 14 -5 44 -3 69 3 44 3 44 44 47 41 3 42 4 37 37 -3
26 -1 34 14 38 22 5 71 1 96 -8z m6747 -103 c0 -49 -3 -171 -7 -270 -6 -179
-7 -182 -28 -182 -21 0 -22 5 -29 138 -13 274 -17 328 -21 365 l-5 37 45 0 45
0 0 -88z m-6948 -32 c1 -90 2 -94 9 -100 13 -10 87 -156 93 -182 6 -26 4 -28
-24 -28 -35 0 -50 23 -74 119 -9 35 -37 104 -61 153 -25 50 -42 94 -39 99 3 5
25 9 50 9 l44 0 2 -70z m-76 -33 c23 -51 50 -121 62 -157 37 -117 37 -110 5
-110 -16 0 -39 9 -51 20 -28 26 -69 26 -91 -2 -17 -20 -22 -21 -91 -12 l-72 9
66 131 c36 71 66 135 66 141 0 13 48 73 58 73 4 -1 25 -42 48 -93z m560 67 c8
-10 13 -14 10 -7 -8 15 13 28 25 16 5 -5 17 -88 27 -184 l18 -174 -34 -3 c-19
-2 -36 -1 -39 1 -4 5 -40 236 -50 329 -5 39 -3 46 11 44 9 -1 23 -11 32 -22z
m1374 16 c-13 -9 -13 -11 0 -20 8 -5 23 -10 33 -11 38 -3 42 -5 41 -20 -1 -11
5 -14 22 -11 14 2 24 0 24 -7 0 -6 -5 -11 -11 -11 -5 0 -8 -4 -4 -9 8 -13 -13
-24 -60 -32 -43 -6 -35 -13 28 -24 24 -4 37 -11 37 -21 0 -10 -6 -13 -17 -10
-49 15 -112 26 -150 26 -36 0 -43 3 -43 19 0 11 6 22 13 24 7 3 5 6 -5 6 -11
1 -18 9 -18 20 0 33 12 81 21 81 5 0 6 -6 3 -14 -4 -11 2 -12 28 -7 18 4 32
13 31 19 -2 7 7 12 20 12 18 0 19 -2 7 -10z m-1266 -20 c19 -7 26 -17 26 -35
0 -21 4 -26 23 -23 14 2 22 -2 22 -12 0 -8 -9 -15 -20 -15 -12 0 -21 -8 -24
-20 -3 -16 -1 -17 12 -7 12 10 16 10 20 -2 7 -17 -8 -30 -23 -21 -13 8 -19
-25 -22 -124 -5 -135 -22 -111 -41 56 -26 222 -25 223 27 203z m8427 -173 c1
-70 5 -117 11 -117 6 0 8 -13 4 -32 -3 -18 -6 -108 -7 -200 0 -137 -3 -168
-14 -168 -11 0 -15 -22 -18 -92 -2 -51 -3 15 -3 147 0 132 2 294 5 360 3 66 2
123 -3 126 -4 4 -3 10 3 13 6 4 11 26 11 48 0 23 2 39 5 37 2 -3 5 -57 6 -122z
m-1869 -49 c6 -16 14 -28 19 -28 5 0 3 13 -6 30 -8 16 -15 35 -14 42 0 7 7 -1
15 -19 22 -52 71 -68 106 -36 10 9 18 11 18 5 0 -16 -34 -32 -69 -32 -35 0
-39 -11 -14 -35 11 -11 28 -15 50 -13 18 2 34 2 34 -2 1 -3 3 -14 5 -25 2 -11
10 -53 19 -93 11 -55 12 -79 4 -94 -6 -11 -8 -33 -5 -49 3 -16 1 -29 -4 -29
-5 0 -12 -11 -16 -25 -10 -39 -29 -24 -26 18 2 25 -3 45 -16 61 -10 14 -18 35
-17 48 1 13 -2 26 -7 29 -5 3 -11 19 -14 35 -3 16 -9 33 -15 39 -5 5 -9 17 -9
28 0 13 5 17 19 12 10 -3 28 -2 41 3 22 8 20 10 -23 35 -29 16 -49 22 -53 15
-4 -6 0 -14 7 -19 17 -10 4 -24 -24 -24 -20 0 -22 -6 -23 -55 -2 -112 -4 -133
-11 -126 -4 3 -8 41 -9 82 -2 82 -17 117 -28 64 -3 -17 -10 -29 -16 -25 -6 3
-7 0 -4 -10 9 -22 -5 -87 -18 -83 -16 6 -21 31 -24 138 l-3 95 18 -49 c21 -59
33 -66 52 -29 8 16 18 31 22 34 17 12 20 79 4 85 -9 3 -12 14 -9 29 2 14 8 22
13 19 5 -3 10 1 10 8 1 7 3 4 6 -7 2 -11 9 -32 15 -47z m-7350 -321 c6 -9 10
-9 16 1 7 10 41 12 151 8 78 -3 148 -8 154 -13 14 -10 35 -9 60 2 30 13 437 2
445 -13 5 -6 21 -128 36 -269 15 -142 30 -271 34 -287 5 -28 4 -29 -29 -23
-19 4 -171 8 -339 9 -168 2 -357 4 -420 6 l-115 3 -22 32 c-12 18 -25 49 -28
69 -4 21 -12 35 -17 32 -5 -3 -6 -13 -3 -23 4 -9 13 -37 19 -63 l13 -48 -33 0
-32 0 -8 78 c-4 42 -8 112 -9 155 0 47 -4 76 -10 73 -6 -2 -11 26 -12 70 -2
44 1 74 7 74 6 0 10 5 10 11 0 5 -4 8 -9 5 -13 -9 -21 20 -21 77 l0 52 77 -3
c45 -2 81 -9 85 -15z m1450 7 c7 -4 35 -9 62 -10 35 -1 45 1 31 6 -16 7 -12 9
17 9 20 1 40 -4 43 -9 5 -8 12 -7 23 2 12 10 14 10 8 1 -4 -8 -2 -13 6 -13 18
-1 118 -8 216 -15 73 -6 82 -9 82 -26 0 -11 5 -17 10 -14 6 3 14 -4 19 -17 l8
-23 7 23 c9 27 -1 45 -21 38 -8 -3 -11 -1 -8 4 6 10 133 8 377 -5 53 -3 89 -1
93 5 3 5 11 10 17 10 7 0 7 -4 0 -12 -5 -7 -15 -88 -22 -181 -6 -92 -13 -180
-15 -195 -2 -15 -4 -63 -6 -107 -1 -44 -4 -85 -6 -92 -4 -9 -46 -11 -171 -7
-92 3 -172 7 -179 9 -7 2 -69 5 -138 6 -69 0 -140 4 -158 8 -17 4 -43 4 -57 1
-14 -4 -37 -3 -52 1 -17 5 -28 3 -31 -4 -2 -6 -11 -8 -23 -3 -27 11 -144 14
-144 4 0 -4 -7 -8 -16 -8 -9 0 -12 5 -8 12 5 7 2 9 -7 6 -9 -3 -26 3 -40 13
-13 10 -19 19 -13 19 17 0 24 52 11 69 -9 11 -9 15 1 18 6 3 12 9 12 14 0 6
-4 7 -10 4 -5 -3 -10 3 -10 13 0 11 7 22 15 26 8 3 15 17 15 31 0 15 5 35 10
46 8 15 7 23 -5 35 -19 19 -19 28 -1 21 10 -4 13 -1 9 9 -3 7 -8 14 -12 14 -4
0 -8 7 -8 15 0 8 4 12 8 10 10 -7 18 31 9 45 -4 7 -3 26 2 42 6 15 8 46 6 67
-2 22 0 37 4 35 5 -3 8 4 8 15 0 11 -4 23 -10 26 -5 3 -10 10 -10 15 0 10 33
6 52 -6z m6610 -255 c3 -8 83 -12 252 -15 137 -3 253 -7 257 -10 5 -3 9 0 9 5
0 7 16 9 43 5 23 -4 49 -6 58 -6 18 1 49 -47 49 -75 0 -10 9 -35 20 -56 23
-43 25 -51 8 -40 -8 4 -7 -3 3 -17 9 -14 19 -37 23 -52 3 -16 11 -28 17 -28 6
0 7 -5 4 -10 -4 -6 3 -31 15 -55 12 -25 23 -51 24 -57 4 -17 16 -48 29 -76 9
-18 8 -25 -3 -32 -9 -5 -17 -5 -21 1 -3 5 -85 12 -185 14 -98 3 -234 7 -301
10 -68 2 -123 0 -123 -4 0 -5 -18 -3 -40 2 -22 6 -37 13 -35 16 3 2 0 10 -6
18 -6 7 -8 13 -5 13 4 0 1 12 -7 28 -8 15 -24 46 -36 68 -11 23 -24 64 -28 90
-3 27 -19 77 -34 111 -16 34 -31 74 -35 88 -3 14 -10 25 -15 25 -5 0 -9 9 -9
21 0 16 4 19 20 14 11 -4 20 -2 20 4 0 14 27 14 32 0z m-2489 -64 l32 -13 -30
-7 c-32 -8 -75 -42 -75 -59 0 -6 -14 -44 -30 -85 -17 -41 -31 -85 -32 -98 -1
-12 -6 -23 -10 -23 -4 0 -8 -7 -8 -16 0 -14 2 -15 18 -3 15 13 16 12 3 -3 -7
-10 -19 -18 -26 -18 -7 0 -16 -7 -19 -16 -7 -19 46 10 162 88 41 28 77 46 80
42 4 -3 2 -9 -5 -11 -6 -2 -74 -44 -150 -94 -75 -49 -140 -89 -144 -89 -4 0
12 39 35 88 24 48 53 110 66 137 12 28 33 73 46 101 13 28 24 56 24 62 0 6 6
23 12 38 10 22 14 24 16 10 2 -10 18 -24 35 -31z m1595 19 c25 -5 24 -5 102
-194 28 -69 55 -134 60 -145 24 -54 70 -168 70 -171 0 -3 -47 -3 -105 -2 -61
2 -105 7 -105 13 0 6 15 11 35 13 37 3 47 17 18 26 -10 2 -47 3 -83 1 -36 -2
-84 -5 -108 -6 -26 -1 -41 -7 -39 -13 2 -6 14 -10 26 -9 12 2 20 -1 16 -6 -3
-6 7 -6 27 0 48 13 78 11 78 -6 0 -12 -17 -15 -91 -15 -130 0 -175 13 -206 63
-13 21 -23 48 -20 58 3 10 0 17 -5 16 -6 -1 -30 42 -53 95 -32 74 -39 98 -29
102 8 3 20 -6 29 -24 26 -50 95 -82 95 -45 0 13 4 14 21 4 12 -6 38 -9 59 -5
29 4 43 1 61 -14 13 -11 19 -19 12 -20 -7 0 -10 -6 -7 -14 3 -8 1 -17 -5 -21
-6 -3 -11 -2 -11 3 0 6 -10 5 -25 -1 -41 -20 -30 -35 25 -34 35 0 50 4 50 14
0 7 -4 13 -10 13 -5 0 -10 5 -10 10 0 6 7 10 15 10 8 0 15 -4 15 -8 0 -8 39
-6 87 4 12 2 29 17 37 32 l14 27 13 -28 c7 -15 16 -27 21 -27 4 0 8 -7 8 -15
0 -8 5 -15 10 -15 16 0 12 19 -11 51 -19 27 -18 34 4 30 11 -2 -7 28 -38 64
-20 23 -23 24 -15 8 6 -13 8 -23 4 -23 -4 0 1 -9 11 -20 10 -11 16 -22 13 -25
-3 -3 -27 20 -53 50 -27 30 -53 55 -57 55 -5 0 1 -18 12 -40 30 -60 23 -110
-17 -110 -20 0 -15 31 6 37 36 9 3 86 -53 124 -20 13 -36 27 -36 32 0 12 12 8
33 -10 18 -17 18 -17 7 8 -11 25 -53 38 -65 19 -3 -6 -16 -5 -31 2 -20 9 -30
9 -46 -1 -15 -9 -23 -10 -31 -2 -16 16 -45 13 -55 -5 -8 -14 -10 -14 -25 0
-36 36 -76 6 -59 -44 11 -30 4 -44 -14 -32 -10 7 -84 157 -84 170 0 8 471 4
508 -4z m-2011 -657 c70 -24 86 -50 58 -93 -21 -32 -19 -35 10 -22 21 9 28 8
45 -7 22 -20 26 -61 9 -85 -8 -12 -9 -10 -4 8 4 13 4 34 1 48 -8 30 -47 33
-76 4 -11 -11 -20 -16 -20 -11 0 6 5 13 11 17 8 4 8 9 0 17 -7 7 -7 14 1 24 8
11 7 12 -6 7 -11 -4 -24 1 -36 14 -11 11 -33 23 -51 27 -23 5 -28 10 -18 16
11 7 9 9 -6 9 -16 1 -13 4 10 15 l30 13 -31 1 c-18 1 -47 8 -65 16 l-34 14 55
-5 c30 -3 83 -15 117 -27z m-324 -247 c25 -8 44 -22 57 -43 14 -22 20 -26 20
-14 0 9 5 17 10 17 21 0 9 -27 -17 -39 -21 -10 -28 -9 -34 1 -7 10 -9 10 -9 1
0 -9 -18 -13 -57 -12 -42 0 -52 3 -38 9 11 5 36 9 55 9 22 1 31 4 24 11 -6 6
-22 6 -44 0 -19 -6 -38 -10 -41 -10 -10 0 -79 73 -79 84 0 10 97 1 153 -14z
m701 -177 c36 -31 103 -62 131 -63 19 0 159 -89 152 -97 -2 -1 -62 -5 -133 -8
-108 -3 -126 -2 -112 9 10 7 14 17 10 21 -4 5 -1 5 6 1 7 -4 15 -1 18 8 3 8
12 12 21 9 8 -3 19 0 24 8 12 20 -48 41 -76 26 -11 -6 -50 -10 -87 -9 -38 0
-68 -3 -68 -9 0 -5 -15 -9 -32 -8 -29 0 -30 2 -13 10 15 7 9 8 -22 5 l-43 -4
0 58 c0 68 -2 67 114 69 71 1 81 -1 110 -26z m-1501 -165 c53 -6 97 -16 97
-20 0 -4 25 -8 55 -8 30 0 55 -4 55 -8 0 -5 39 -9 88 -9 48 -1 110 -7 137 -13
28 -6 61 -13 75 -14 14 -2 31 -4 38 -4 7 -1 10 -6 7 -12 -7 -12 -85 -14 -85
-2 0 4 -46 7 -103 7 -56 -1 -117 2 -134 6 -18 4 -31 3 -28 -1 3 -4 -4 -10 -15
-13 -22 -6 -28 8 -7 16 9 4 9 6 -1 6 -7 1 -15 -6 -18 -14 -5 -12 -25 -15 -93
-15 -89 0 -261 22 -283 37 -13 8 -19 10 -40 12 -7 0 -2 8 10 17 19 13 25 14
39 2 14 -11 16 -11 8 1 -7 12 10 13 106 8 126 -6 126 -4 -5 13 -58 8 -84 15
-75 21 8 5 28 7 44 4 17 -2 74 -10 128 -17z"/>
<path d="M5813 4336 c3 -8 -8 -19 -28 -29 -29 -14 -33 -14 -29 -2 8 19 -22 31
-40 16 -7 -6 -15 -9 -17 -6 -3 2 -18 -7 -34 -21 -17 -13 -23 -23 -15 -22 9 2
14 -4 14 -14 -1 -10 4 -18 12 -18 8 0 14 -6 14 -14 0 -8 -16 -16 -39 -20 -27
-4 -40 -12 -44 -26 -4 -16 -11 -19 -36 -14 -25 5 -31 3 -31 -10 0 -15 7 -16
58 -9 31 4 87 7 125 7 62 -1 81 6 57 21 -14 9 -2 31 19 32 14 1 17 -4 13 -23
-3 -18 0 -24 12 -24 11 0 14 -5 10 -12 -5 -8 -2 -9 9 -5 10 3 17 3 17 -2 0 -7
43 -31 55 -31 9 0 17 94 10 137 -8 56 -50 103 -90 103 -19 0 -26 -4 -22 -14z"/>
<path d="M3001 2015 c-14 -8 -30 -11 -35 -7 -26 16 -108 -14 -120 -43 -9 -24
-7 -88 3 -104 5 -8 5 -26 -1 -42 -5 -16 -8 -34 -5 -41 3 -7 8 1 12 19 7 32 8
32 36 18 37 -19 79 -19 107 1 21 14 25 14 40 1 27 -24 67 -27 106 -8 34 18 35
18 60 -6 30 -27 34 -48 9 -39 -10 4 -14 3 -9 -1 4 -4 26 -13 49 -20 34 -9 37
-11 17 -13 -14 -2 -36 -4 -50 -7 -14 -2 -51 -3 -82 -3 -32 1 -58 -3 -58 -8 0
-17 13 -21 33 -11 15 9 18 8 12 -2 -6 -9 -3 -10 11 -5 24 10 25 10 52 1 12 -4
22 -15 22 -26 0 -54 90 -78 128 -34 19 22 20 28 10 47 -7 13 -19 27 -26 33 -9
7 12 11 73 11 77 1 93 5 156 36 64 32 70 33 84 18 21 -23 19 -30 -7 -31 -18
-1 -17 -3 6 -8 16 -3 31 -12 34 -20 3 -10 -2 -11 -19 -6 -23 7 -23 7 -4 -8 26
-20 47 -11 39 17 -12 37 -76 117 -128 158 -49 39 -68 39 -47 -1 26 -48 1 -103
-56 -122 -56 -18 -178 -16 -198 4 -15 16 -15 17 2 23 15 5 49 19 76 32 4 2 7
-2 7 -10 0 -9 16 -14 50 -16 39 -2 54 2 70 18 37 37 25 66 -53 119 -26 18 -45
36 -42 42 11 17 44 9 64 -18 25 -31 30 -28 24 12 -4 28 -7 30 -52 30 -26 0
-55 -6 -64 -13 -13 -11 -21 -11 -46 2 -38 20 -95 21 -114 2 -12 -12 -17 -13
-33 -1 -19 12 -50 18 -86 16 -10 -1 -27 -10 -37 -20 -16 -16 -20 -17 -25 -5
-3 8 -2 14 2 14 4 0 13 9 20 20 7 11 11 20 10 19 -2 -1 -14 -7 -27 -14z"/>
<path d="M4450 1977 c-36 -18 -64 -78 -56 -120 12 -64 95 -95 143 -55 20 17
15 30 -7 18 -14 -8 -26 -8 -42 0 -22 11 -22 10 -4 -4 11 -9 17 -18 14 -21 -3
-3 -19 5 -34 19 -22 19 -25 25 -12 26 14 0 15 5 8 30 -13 46 6 100 35 100 8 0
20 -13 29 -30 l14 -30 -39 0 c-27 0 -38 -4 -33 -11 3 -6 21 -9 39 -7 23 3 36
-1 44 -14 7 -11 7 -19 1 -23 -16 -10 26 -62 57 -72 16 -5 41 -7 57 -4 37 7 47
31 13 31 -49 0 -84 73 -60 122 21 41 32 43 44 10 6 -17 17 -33 25 -36 8 -3 14
-19 14 -40 0 -23 9 -45 27 -66 25 -30 28 -31 77 -25 28 4 57 12 64 17 9 8 12
5 12 -9 0 -12 7 -19 20 -19 15 0 19 5 14 21 -3 11 -10 24 -14 28 -4 5 -5 17
-3 27 5 18 6 18 32 2 44 -28 57 -62 24 -62 -17 -1 -16 -2 1 -11 14 -9 24 -7
45 8 43 33 39 59 -18 112 -28 26 -48 50 -44 54 13 14 34 7 58 -19 l25 -27 0
34 c0 34 -1 34 -49 36 -33 2 -53 -2 -61 -12 -16 -19 -46 -19 -54 0 -7 18 -96
21 -113 4 -8 -8 -17 -7 -34 5 -31 22 -71 20 -114 -4 -42 -24 -45 -24 -45 -6 0
18 -6 22 -45 30 -17 3 -41 0 -55 -7z"/>
<path d="M5066 1838 c5 -37 2 -47 -21 -70 -14 -16 -30 -28 -35 -28 -5 0 -7 -7
-4 -15 8 -21 31 -19 93 10 30 14 61 23 68 21 19 -8 16 -36 -4 -36 -16 0 -10
-14 8 -16 5 -1 14 -2 19 -3 16 -2 11 -21 -6 -21 -8 0 -12 -4 -9 -10 9 -15 35
-12 41 4 8 21 -32 96 -82 154 -57 65 -76 68 -68 10z"/>
<path d="M4713 1695 c9 -7 14 -15 10 -18 -3 -4 -1 -7 5 -7 6 0 14 5 17 10 10
16 21 12 22 -9 1 -11 -5 -25 -12 -31 -12 -10 -8 -18 20 -46 39 -39 75 -44 105
-14 27 27 25 56 -6 85 -21 20 -30 22 -57 14 -43 -12 -47 -12 -41 6 4 10 0 15
-12 16 -11 0 -30 2 -43 3 -21 3 -22 1 -8 -9z"/>
<path d="M11013 1735 c-9 -24 4 -82 24 -109 20 -28 63 -49 89 -44 30 5 26 23
-7 33 -18 6 -39 21 -47 34 l-16 23 50 -3 49 -4 -3 38 c-3 43 9 48 32 12 9 -14
23 -25 31 -25 8 0 15 -4 15 -10 0 -5 -6 -10 -12 -10 -7 0 -2 -7 10 -16 27 -19
29 -44 2 -44 -11 0 -20 -7 -20 -15 0 -19 13 -19 48 -1 25 13 28 12 46 -12 11
-14 14 -22 8 -18 -7 4 -12 2 -12 -3 0 -6 6 -11 14 -11 7 0 19 -6 25 -13 8 -11
0 -14 -47 -14 -47 -1 -53 1 -34 10 22 10 31 37 12 37 -5 0 -10 -5 -10 -11 0
-5 -4 -7 -10 -4 -5 3 -15 3 -21 -1 -15 -9 -134 -8 -149 1 -8 5 -11 3 -8 -6 3
-10 26 -15 79 -16 42 -1 75 -7 77 -13 4 -10 65 -40 84 -40 5 0 6 5 3 10 -4 6
5 10 19 10 14 0 26 5 26 11 0 5 5 7 10 4 6 -3 10 -1 10 4 0 6 12 11 28 11 15
0 22 4 17 8 -6 4 -12 18 -12 30 -1 13 -10 30 -19 36 -9 7 -18 27 -19 44 l-3
31 20 -22 19 -22 -12 25 c-12 24 -11 24 7 11 10 -8 31 -28 47 -44 16 -18 27
-24 27 -15 0 16 -54 70 -87 87 -25 13 -32 37 -8 27 38 -15 48 -16 25 -2 -29
18 -70 21 -70 6 0 -6 -13 -4 -30 5 -38 20 -67 19 -79 -2 -9 -17 -10 -17 -28 0
-23 21 -57 22 -75 3 -12 -11 -17 -11 -33 0 -25 19 -74 18 -82 -1z"/>
</g>
</svg>
