<?xml version="1.0" standalone="no"?>
<!DOCTYPE svg PUBLIC "-//W3C//DTD SVG 20010904//EN"
 "http://www.w3.org/TR/2001/REC-SVG-20010904/DTD/svg10.dtd">
<svg version="1.0" xmlns="http://www.w3.org/2000/svg"
 width="1600.000000pt" height="1200.000000pt" viewBox="0 0 1600.000000 1200.000000"
 preserveAspectRatio="xMidYMid meet">
<metadata>
Created by potrace 1.16, written by Peter Selinger 2001-2019
</metadata>
<g transform="translate(0.000000,1200.000000) scale(0.100000,-0.100000)"
fill="#000000" stroke="none">
<path d="M1 8543 c1 -2261 5 -3433 11 -3385 7 51 14 72 24 72 17 0 18 -23 3
-70 -32 -107 -33 -145 -36 -2652 l-3 -2508 8000 0 8000 0 0 1195 0 1195 -42 0
c-42 1 -43 1 -18 15 14 8 33 14 43 15 16 0 18 12 16 155 -1 86 -6 158 -10 161
-13 8 -11 48 3 62 20 20 -8 32 -77 32 -50 0 -62 3 -73 21 -7 12 -11 24 -7 27
7 7 59 7 123 -2 40 -5 43 -3 40 17 -3 23 -4 23 -131 26 -30 1 -48 28 -27 41 7
4 9 13 6 19 -5 8 0 8 17 2 57 -22 133 -12 123 16 -3 8 -6 25 -6 37 0 13 -14
40 -30 61 -38 47 -38 55 0 55 20 0 30 -5 30 -15 0 -8 5 -15 10 -15 7 0 10 738
10 2195 l0 2196 -27 -3 c-40 -4 -41 25 -4 77 l31 43 0 2186 0 2186 -8000 0
-8000 0 1 -3457z m8876 2707 c42 -22 61 -59 69 -134 3 -28 7 -60 8 -70 2 -11
8 -22 14 -24 7 -2 9 -8 6 -13 -3 -6 1 -18 9 -27 8 -9 18 -35 22 -56 4 -27 9
-35 15 -26 6 9 14 -5 25 -45 18 -61 16 -193 -3 -218 -4 -7 -9 -35 -10 -63 -1
-28 -11 -79 -22 -114 -11 -34 -18 -66 -15 -71 3 -4 -5 -13 -17 -20 -13 -7 -26
-18 -31 -25 -4 -7 -14 -11 -22 -8 -15 6 -75 -25 -75 -38 0 -13 -33 -9 -60 7
-14 8 -20 15 -15 15 16 1 -56 30 -75 30 -10 0 -20 -7 -24 -15 -9 -24 -33 -17
-40 11 -5 18 -2 32 10 45 9 11 14 19 10 19 -4 0 -2 9 4 20 6 11 17 20 24 20 8
0 16 15 19 34 3 19 12 50 21 68 12 27 37 167 51 288 22 186 24 220 16 220 -10
0 -24 161 -16 183 4 9 19 18 33 20 15 2 28 5 30 6 1 0 19 -8 39 -19z m136
-1015 c9 -4 17 -17 17 -30 0 -13 6 -25 14 -28 7 -3 16 -20 18 -39 9 -60 30
-132 51 -177 19 -40 21 -63 24 -275 1 -127 5 -341 9 -476 3 -135 8 -495 9
-800 3 -582 9 -785 26 -860 28 -128 36 -139 68 -98 10 12 28 23 41 25 13 2 27
7 30 11 3 4 21 19 41 34 49 37 87 69 118 99 14 15 41 34 59 43 17 9 32 21 32
26 0 5 15 18 34 27 18 10 51 32 71 48 21 17 86 68 144 113 58 46 120 95 136
109 17 14 59 46 95 71 36 26 67 49 70 52 3 4 32 25 65 47 33 23 70 50 82 62
12 12 29 21 38 21 8 0 15 4 15 9 0 9 83 75 124 98 12 7 46 35 76 62 61 57 280
222 319 243 15 7 72 43 128 81 56 37 107 67 113 67 20 0 -18 -55 -67 -95 -26
-22 -79 -70 -118 -106 -75 -71 -151 -134 -227 -189 -27 -18 -48 -37 -48 -41 0
-4 -9 -10 -20 -14 -11 -3 -53 -34 -94 -68 -40 -34 -110 -89 -155 -121 -45 -33
-110 -85 -144 -116 -63 -58 -113 -98 -284 -230 -53 -41 -115 -91 -137 -112
-77 -69 -114 -98 -124 -98 -6 0 -12 -4 -14 -9 -1 -4 -49 -43 -106 -86 -57 -42
-117 -90 -135 -106 -29 -27 -30 -29 -9 -29 12 0 22 -4 22 -10 0 -5 -14 -10
-31 -10 -43 0 -102 -35 -123 -74 -19 -36 -29 -160 -16 -204 5 -15 9 -22 9 -17
1 6 16 20 35 33 22 15 36 34 40 55 5 25 9 29 16 17 9 -13 10 -13 11 0 1 8 1
18 0 23 0 4 7 7 17 7 11 0 27 9 36 19 15 16 28 19 69 15 89 -7 175 -2 197 11
6 4 64 9 129 12 97 4 130 2 177 -13 33 -10 67 -19 78 -20 10 -1 22 -8 27 -15
7 -12 9 -11 9 1 0 9 3 11 8 5 13 -18 59 -37 78 -33 11 2 39 -4 64 -15 25 -10
58 -20 74 -23 16 -2 30 -5 31 -6 0 -2 11 -16 23 -31 11 -16 19 -34 16 -42 -3
-8 4 -16 18 -20 13 -4 32 -16 43 -26 11 -10 38 -25 60 -34 22 -10 50 -26 61
-37 12 -11 28 -18 35 -17 22 4 52 -12 75 -39 17 -21 30 -25 79 -27 35 -1 60
-6 63 -13 2 -7 11 -12 20 -12 13 0 12 3 -4 14 -10 8 -16 18 -12 22 4 4 4 12
-1 18 -4 6 -11 23 -15 39 -5 20 -3 27 9 27 8 0 15 6 15 14 0 8 9 18 20 21 11
3 20 13 20 21 0 8 7 14 15 14 8 0 15 -6 15 -12 0 -10 3 -9 9 1 5 8 14 10 22 5
22 -13 134 1 124 16 -15 25 209 69 258 51 15 -6 56 -15 92 -22 56 -9 69 -16
100 -50 24 -27 35 -49 35 -70 0 -20 9 -38 27 -55 24 -22 26 -27 11 -35 -9 -5
-21 -33 -28 -61 -7 -29 -19 -58 -27 -65 -9 -7 -12 -17 -7 -25 4 -7 4 -10 -1
-6 -4 4 -21 -2 -37 -14 -20 -14 -50 -22 -91 -25 -34 -2 -77 -5 -94 -6 -18 -1
-33 -6 -33 -10 0 -4 -62 -5 -137 -1 -76 4 -146 6 -155 5 -58 -5 -68 -7 -68
-13 0 -17 27 -22 240 -43 74 -7 158 -18 185 -24 28 -6 95 -16 150 -21 213 -23
283 -35 302 -52 11 -10 33 -18 51 -18 26 0 32 -5 42 -36 8 -24 22 -40 45 -51
31 -15 33 -20 39 -77 7 -80 12 -483 6 -488 -3 -3 -21 -15 -40 -28 -19 -13 -51
-42 -70 -64 -19 -21 -53 -51 -75 -65 -104 -66 -125 -100 -73 -120 30 -12 92
-69 107 -99 17 -33 7 -55 -36 -77 -43 -22 -73 -45 -73 -56 0 -10 39 1 78 23
40 22 42 22 42 3 0 -8 -8 -15 -17 -15 -15 0 -15 -1 2 -14 11 -8 16 -19 12 -30
-4 -9 -2 -16 3 -16 6 0 10 7 10 15 0 9 9 15 25 15 28 0 49 37 39 65 -4 8 -2
15 4 15 13 0 23 -55 15 -77 -14 -35 -38 -53 -73 -54 -28 0 -31 -2 -15 -8 11
-5 26 -6 33 -4 15 6 17 -58 1 -74 -7 -7 1 -19 29 -41 33 -26 54 -33 142 -47
113 -16 147 -12 211 28 136 83 144 87 193 87 56 0 112 -29 126 -65 5 -12 6
-41 3 -64 -4 -31 -1 -46 11 -60 16 -17 20 -18 64 -4 26 8 61 17 77 19 17 3 37
13 45 23 9 10 21 16 27 14 24 -8 23 19 -1 38 -14 11 -26 26 -26 32 0 12 76 57
95 57 17 0 65 -99 65 -134 0 -19 5 -38 10 -41 6 -3 10 -16 10 -28 -1 -21 -1
-21 -15 3 -8 14 -14 20 -15 14 0 -6 9 -23 20 -37 21 -27 27 -57 10 -57 -5 0
-10 4 -10 9 0 5 -9 11 -21 14 -11 3 -19 11 -18 19 3 26 -1 39 -11 33 -6 -4 -8
-11 -5 -16 8 -12 -44 -31 -72 -26 -12 2 -20 1 -18 -3 3 -5 -2 -10 -10 -14 -8
-3 -19 3 -25 12 -10 15 -10 15 -8 -2 4 -28 -52 -43 -71 -18 -12 15 -12 15 -6
-5 5 -19 2 -23 -17 -24 -13 -1 -27 -1 -32 0 -4 1 -14 -3 -22 -10 -11 -9 -16
-6 -24 15 -13 34 -24 33 -16 -2 6 -25 4 -24 -14 8 l-21 35 4 -29 c9 -54 -41
-79 -72 -38 l-20 27 11 -32 c9 -23 19 -33 38 -35 20 -2 24 -8 22 -29 -2 -14 5
-36 16 -49 15 -19 32 -24 93 -29 86 -7 99 -13 99 -46 0 -42 -64 -63 -220 -71
-149 -7 -167 -13 -245 -79 -115 -98 -233 -142 -328 -124 -28 5 -61 16 -74 24
-13 9 -23 11 -23 5 0 -6 16 -18 35 -27 25 -12 35 -23 35 -40 0 -36 -27 -39
-60 -8 -33 32 -39 31 -42 -8 -4 -51 -40 -8 -55 64 -5 28 -4 31 11 26 14 -6 17
-2 14 16 -2 12 -9 21 -16 20 -8 -2 -12 12 -12 41 0 51 -8 76 -23 76 -6 0 -8
-3 -4 -6 3 -3 2 -17 -3 -29 -5 -14 -5 -48 1 -85 10 -64 14 -108 24 -257 6 -85
5 -93 -12 -93 -17 -1 -17 -1 1 -15 17 -13 18 -23 12 -92 -8 -107 -7 -236 4
-247 11 -11 30 1 30 18 0 14 38 29 52 20 4 -3 8 -26 8 -52 0 -26 4 -42 8 -36
4 6 15 13 25 17 10 4 17 17 17 33 0 18 6 28 22 32 l22 5 -23 9 c-14 5 -20 13
-15 20 6 10 4 11 -7 0 -18 -17 -68 -14 -105 6 -29 16 -31 20 -29 77 1 33 5
112 10 175 8 104 9 112 20 81 22 -65 96 -100 141 -66 10 8 31 15 46 15 15 0
30 6 35 13 8 12 30 -148 32 -230 1 -41 0 -43 -28 -43 -25 0 -30 -4 -33 -27 -2
-20 -8 -27 -20 -25 -10 2 -18 -2 -18 -7 0 -5 10 -11 22 -13 15 -2 23 -10 23
-23 1 -50 18 -156 26 -161 15 -9 10 -41 -12 -79 -15 -25 -21 -51 -20 -90 0
-67 15 -97 44 -93 37 5 33 -29 -6 -52 -20 -12 -43 -32 -52 -46 -16 -26 -17
-26 -113 -19 -53 4 -100 10 -104 14 -9 9 -17 86 -17 180 -1 127 -12 90 -16
-55 l-4 -129 -53 3 c-34 2 -58 9 -65 20 -10 12 -13 12 -13 2 0 -19 -13 -4 -15
18 -1 21 -28 63 -67 104 -15 16 -29 34 -29 39 -1 5 -2 12 -3 17 -2 8 -33 63
-71 127 -50 83 -65 115 -55 115 18 0 0 20 -26 30 -28 11 -84 85 -84 113 0 13
-5 17 -16 13 -20 -7 -72 22 -77 43 -2 9 2 24 7 34 12 20 -5 37 -38 37 -14 0
-17 -5 -13 -20 4 -18 2 -20 -16 -14 -12 3 -27 11 -34 16 -14 11 -13 50 1 60 6
4 7 10 3 14 -3 4 -13 1 -21 -5 -8 -7 -17 -8 -20 -3 -3 5 -25 13 -48 16 -24 4
-70 20 -102 36 -32 17 -70 30 -83 30 -13 0 -47 13 -76 30 -63 35 -200 61 -219
42 -9 -9 1 -12 43 -13 l54 -2 -45 -10 c-25 -5 -141 -9 -259 -8 -205 1 -215 1
-265 -22 -28 -13 -67 -38 -86 -55 -32 -29 -40 -32 -102 -32 l-68 0 0 139 c0
101 -3 142 -12 148 -7 4 -42 10 -78 13 -63 5 -65 6 -70 34 -6 36 -26 35 -23 0
l2 -25 -82 4 c-50 2 -98 11 -122 22 -22 10 -66 20 -97 23 -57 4 -57 4 -51 33
3 17 1 29 -5 29 -12 0 -24 -29 -17 -41 3 -4 -11 -16 -32 -25 -54 -23 -231 -14
-250 12 -12 16 -13 16 -13 1 0 -12 -9 -17 -27 -18 -16 0 -44 -6 -63 -13 l-35
-13 -5 -148 c-4 -111 -9 -150 -19 -153 -7 -2 -21 -13 -29 -23 -9 -11 -22 -19
-29 -19 -16 0 -17 -29 -2 -50 10 -13 10 -13 6 0 -6 21 13 45 42 53 l23 6 -5
-92 c-3 -51 -7 -152 -8 -225 -3 -127 -7 -150 -28 -137 -6 3 -88 7 -183 10 -95
2 -213 7 -263 10 -171 11 -261 15 -498 24 -131 5 -241 11 -243 14 -3 2 -9 58
-14 123 -12 139 -19 182 -31 190 -5 3 -55 10 -112 15 -56 5 -126 12 -156 15
l-53 6 7 154 7 154 -38 0 -39 1 35 17 c35 17 35 17 42 102 4 47 9 124 11 172
4 103 15 120 88 139 66 17 54 24 -15 8 -39 -8 -59 -9 -68 -1 -7 5 -89 15 -183
22 -93 6 -174 15 -180 20 -6 5 -38 6 -73 4 -40 -4 -62 -2 -62 5 0 6 8 11 18
11 23 0 42 19 42 42 0 15 -6 17 -37 12 -21 -3 -45 -9 -53 -14 -8 -4 -21 -5
-29 -2 -8 3 -11 0 -7 -7 4 -6 1 -11 -8 -11 -9 0 -16 -4 -16 -9 0 -12 -93 -23
-125 -15 -22 5 -26 11 -20 31 4 18 2 24 -7 20 -7 -2 -12 -10 -10 -16 1 -7 -18
-11 -55 -10 -32 0 -68 -2 -81 -5 -13 -3 -29 -3 -37 1 -19 7 -20 73 -1 98 13
18 14 18 20 -2 8 -24 33 -33 99 -33 27 0 57 -5 68 -10 22 -12 24 -8 7 21 -11
17 -10 22 12 39 36 27 20 33 -26 10 -36 -19 -39 -19 -43 -3 -2 9 2 19 8 21 18
6 12 36 -10 50 -14 9 -19 20 -16 33 6 21 -8 35 -18 19 -8 -14 -95 -8 -95 5 0
6 6 17 13 24 10 11 10 13 0 7 -8 -5 -13 -1 -13 9 0 13 6 16 25 11 18 -5 25 -2
25 9 0 9 9 15 23 15 16 0 19 -3 8 -9 -11 -7 -7 -13 17 -25 30 -15 31 -15 25 1
-4 10 -14 24 -24 30 -19 14 -19 24 1 66 12 25 18 28 46 24 24 -4 34 -1 39 10
3 9 0 20 -7 25 -17 11 -49 6 -48 -7 1 -14 -60 -23 -87 -13 -19 6 -23 4 -23
-12 0 -11 -4 -20 -10 -20 -14 0 -12 71 3 103 6 15 17 27 23 27 26 0 31 62 13
135 -14 56 -5 95 21 95 10 0 22 5 25 10 4 6 -5 10 -19 10 -16 0 -26 6 -26 15
0 8 -6 15 -14 15 -16 0 -22 40 -37 265 -5 77 -10 158 -12 180 -2 22 -7 76 -11
120 -4 44 -10 88 -13 99 -3 11 -1 16 5 12 5 -3 12 4 15 16 4 12 1 26 -6 30 -6
4 -9 10 -5 13 3 3 13 -1 22 -10 15 -15 16 -14 16 12 0 38 -13 55 -37 51 -25
-4 -26 0 -18 35 6 21 12 26 25 22 23 -7 36 11 16 22 -7 4 -15 17 -17 28 -3 12
-14 21 -28 23 -26 4 -81 -16 -81 -29 0 -14 48 -41 60 -34 5 3 10 -2 10 -14 0
-11 -4 -22 -10 -26 -5 -3 -7 -12 -3 -20 3 -9 -1 -15 -11 -15 -9 0 -16 7 -16
15 0 49 -131 130 -228 142 -95 11 -192 -44 -223 -126 -12 -31 -20 -231 -9
-231 4 0 10 23 14 50 8 60 37 82 81 62 35 -16 35 -16 35 16 0 23 6 30 33 37
20 6 37 21 45 38 18 38 57 36 111 -5 88 -67 105 -79 117 -74 37 14 57 -81 74
-349 6 -93 15 -198 20 -232 6 -46 5 -76 -6 -115 -7 -29 -14 -63 -14 -75 0 -16
-6 -23 -20 -23 -22 0 -39 -27 -41 -62 -1 -17 -3 -13 -10 12 -5 19 -6 67 -3
105 8 87 -7 144 -48 191 -30 33 -119 99 -163 119 -16 8 -10 10 28 13 42 3 50
7 67 35 10 18 23 37 28 43 6 6 17 25 26 42 l16 31 -37 10 c-40 11 -53 7 -35
-11 20 -20 13 -28 -25 -28 -21 0 -45 -5 -53 -11 -11 -7 -7 -9 20 -8 56 2 70 0
70 -11 0 -5 -19 -10 -42 -11 -42 0 -42 0 -20 -16 12 -8 22 -21 22 -27 0 -18
-68 -13 -90 7 l-21 18 23 19 23 19 -46 1 c-25 0 -50 -5 -56 -11 -8 -8 -18 -6
-38 7 -28 18 -28 18 -16 -3 14 -28 14 -30 -5 -37 -10 -4 -13 -2 -8 7 4 6 -5 1
-19 -12 -14 -13 -33 -21 -41 -18 -21 8 -96 113 -106 148 -5 17 -6 37 -3 45 3
9 -2 14 -17 14 -28 0 -132 30 -144 41 -6 5 -25 9 -44 9 l-35 0 7 63 c3 34 11
116 16 182 29 348 51 616 57 662 l6 52 68 -6 c49 -4 82 -1 119 11 46 15 69 16
189 7 223 -18 236 -19 491 -46 135 -14 366 -36 514 -50 267 -24 288 -29 328
-69 27 -26 90 -66 106 -66 26 0 102 41 102 55 0 22 26 25 167 14 76 -5 158 -9
183 -9 25 0 63 -2 85 -4 40 -5 40 -5 -9 10 -34 11 -45 19 -35 24 16 10 5 16
-46 24 -33 6 -55 29 -55 58 0 10 -4 18 -9 18 -4 0 -14 21 -21 48 -10 40 -20
67 -38 105 -2 4 3 7 12 7 9 0 16 8 16 18 0 9 9 32 20 50 11 18 18 38 14 43 -9
16 16 39 43 39 13 0 38 7 55 16 24 13 57 16 137 15 121 -1 133 -3 273 -34 65
-14 75 -21 80 -57 2 -19 10 -26 32 -30 22 -4 32 -13 41 -39 6 -19 20 -38 32
-42 11 -4 23 -16 25 -27 5 -19 -8 -29 -44 -36 -5 0 -8 -4 -8 -8 0 -32 0 -33 8
-20 6 9 14 1 26 -27 19 -41 15 -61 -10 -61 -8 0 -14 -6 -14 -14 0 -7 -9 -16
-20 -19 -11 -3 -23 -13 -27 -24 -9 -21 -13 -22 -106 -28 -39 -3 -75 -9 -81
-15 -5 -5 -19 -10 -30 -11 -27 -2 216 -36 309 -44 108 -9 114 -12 121 -54 8
-54 11 -58 37 -76 51 -33 176 -15 223 33 41 40 72 47 147 33 34 -7 76 -14 93
-17 25 -5 33 -12 38 -35 4 -23 16 -34 48 -49 81 -37 166 -19 186 40 9 24 17
30 41 30 16 0 32 3 34 8 8 13 -16 262 -25 262 -5 0 -7 -4 -4 -9 3 -5 -1 -11
-9 -15 -8 -3 -15 -18 -15 -33 -1 -56 -25 -121 -53 -143 -34 -27 -96 -24 -149
7 l-38 22 0 90 c0 50 -5 93 -10 96 -6 4 -8 11 -5 16 10 15 -12 10 -29 -6 -8
-8 -19 -15 -23 -15 -5 0 -26 -16 -47 -35 -21 -19 -41 -35 -45 -35 -14 -1 -49
-38 -53 -56 -2 -10 -10 -19 -18 -19 -8 0 -23 -8 -33 -18 -16 -16 -20 -16 -47
-2 -16 8 -37 28 -47 45 -9 16 -21 30 -25 30 -5 0 -1 11 8 25 9 14 26 25 38 25
16 0 18 2 7 9 -11 7 -4 12 26 20 36 10 87 47 155 114 10 9 21 17 24 17 3 0 19
11 35 24 19 16 25 26 16 30 -6 3 -2 3 10 1 23 -6 45 16 24 23 -9 3 -10 7 -2
11 7 5 8 27 3 67 -6 55 -9 59 -34 62 -26 3 -41 22 -18 22 6 0 10 18 10 39 0
22 4 42 9 45 4 3 11 31 14 63 4 32 9 83 12 113 7 61 -50 557 -95 830 -10 63
-19 126 -41 300 -6 47 -12 142 -14 211 -2 99 -7 135 -24 175 -15 36 -26 105
-41 254 -22 226 -25 344 -9 405 21 82 30 121 36 165 3 25 19 64 34 87 16 23
29 52 29 65 0 28 8 41 35 56 20 12 75 10 108 -3z m-533 -16 c0 -5 5 -7 10 -4
6 4 10 -9 10 -31 0 -30 -8 -44 -39 -75 -56 -55 -151 -165 -151 -174 0 -5 -47
-56 -106 -114 -213 -214 -448 -458 -527 -548 -47 -54 -89 -93 -99 -93 -10 0
-21 -8 -25 -17 -3 -10 -27 -38 -52 -63 -25 -25 -67 -67 -92 -95 -25 -27 -76
-79 -113 -115 -38 -36 -94 -96 -127 -135 -32 -38 -82 -98 -111 -132 -29 -35
-77 -82 -106 -105 -30 -24 -115 -103 -190 -176 -75 -74 -154 -146 -177 -162
-23 -16 -53 -44 -67 -62 -14 -18 -76 -85 -137 -148 -61 -63 -109 -119 -108
-125 2 -5 -10 -17 -27 -26 -17 -9 -32 -26 -34 -38 -2 -11 -7 -21 -12 -21 -16
0 -65 -48 -83 -83 l-19 -34 26 -27 27 -26 8 23 c8 22 14 23 68 19 32 -2 76 -8
98 -14 22 -5 72 -14 110 -20 39 -5 86 -14 105 -19 19 -5 49 -11 67 -13 55 -5
137 -73 125 -105 -5 -14 46 27 75 60 12 13 24 14 73 6 52 -9 62 -14 79 -42 33
-57 31 -88 -13 -136 -41 -46 -59 -50 -146 -30 -40 9 -85 -6 -85 -29 0 -8 -6
-14 -14 -12 -8 2 -11 -3 -8 -12 4 -11 -1 -18 -16 -21 -99 -25 -165 -33 -255
-30 -170 4 -237 41 -289 157 -11 25 -15 26 -75 26 -91 -1 -121 8 -142 43 -19
32 -41 34 -41 4 0 -11 -9 -21 -22 -25 -33 -8 -131 -104 -146 -143 -11 -29 -73
-22 -108 12 -41 42 -38 111 6 117 10 1 88 74 174 161 87 87 169 167 184 178
15 11 27 25 27 32 0 7 8 17 18 22 10 5 65 55 122 110 58 56 127 120 153 144
61 53 286 283 377 384 197 219 232 256 418 437 56 55 102 103 102 108 0 4 4 8
10 8 5 0 95 84 199 188 104 103 206 201 227 217 21 17 61 54 89 83 36 36 60
52 78 52 29 0 67 41 67 72 0 22 172 207 316 339 21 20 57 57 79 83 22 25 60
59 85 75 26 15 66 51 90 79 45 51 60 61 60 41z m-6487 -2764 c54 -6 126 -35
171 -68 14 -10 17 -20 11 -45 -3 -18 -11 -30 -16 -27 -4 3 -11 -7 -14 -22 -12
-57 -14 -58 -131 -59 -142 0 -151 -1 -158 -19 -4 -12 0 -14 19 -9 15 4 25 2
25 -4 0 -6 -8 -12 -17 -14 -14 -3 -11 -8 15 -27 l33 -23 34 26 c42 32 53 33
61 1 8 -31 -16 -125 -32 -125 -7 0 -33 -9 -59 -20 -55 -23 -60 -55 -10 -56 56
-1 75 -4 75 -12 0 -11 -72 -42 -99 -42 -12 0 -21 -6 -20 -12 1 -7 -1 -25 -5
-41 -6 -19 -3 -35 7 -51 16 -23 15 -24 -14 -28 -16 -3 -48 4 -70 14 -38 17
-45 17 -99 3 -62 -16 -158 -18 -230 -6 -25 5 -39 9 -32 10 8 1 5 11 -10 31
-30 41 -39 159 -14 179 9 7 16 19 16 26 0 7 7 18 15 25 8 7 13 16 10 20 -5 8
73 21 155 25 30 2 60 4 65 6 15 4 67 -11 98 -28 35 -18 41 -13 32 27 -4 20
-15 34 -31 40 -16 6 -24 18 -25 35 -5 94 -5 95 31 81 11 -5 21 12 40 71 27 84
67 138 97 130 10 -3 44 -8 76 -12z m13963 -70 c3 -8 -4 -28 -15 -44 -12 -16
-21 -33 -21 -37 0 -11 -82 -178 -90 -184 -12 -8 -40 -68 -40 -84 0 -8 -9 -20
-20 -26 -11 -6 -20 -18 -21 -28 0 -9 -11 -33 -25 -52 -59 -85 -75 -113 -77
-131 -1 -10 -4 -19 -7 -19 -3 0 -16 -24 -29 -52 -13 -29 -33 -72 -43 -96 -11
-23 -22 -61 -25 -83 -6 -45 -144 -333 -166 -346 -7 -4 -19 -28 -27 -53 -7 -25
-39 -95 -69 -155 -132 -262 -239 -508 -245 -565 -6 -50 -25 -70 -67 -70 -45 0
-76 17 -93 51 l-16 32 46 46 c41 41 144 212 160 265 3 12 37 82 74 156 37 75
80 165 95 200 41 100 65 154 75 170 27 41 56 100 70 141 17 48 48 91 124 173
27 29 46 58 46 72 0 34 18 74 53 119 47 59 70 110 65 140 -3 15 -1 28 6 31 6
2 13 17 14 32 1 15 27 77 57 137 30 61 55 115 55 120 0 6 9 17 20 25 14 10 20
26 20 52 0 31 4 38 20 38 11 0 20 3 20 8 0 8 38 29 58 31 7 0 15 -6 18 -14z
m-12921 -436 c-5 -7 24 -8 99 -3 95 6 106 5 106 -10 0 -24 31 -32 46 -12 11
16 13 16 19 -3 3 -12 12 -21 19 -21 7 0 28 -16 47 -36 34 -35 34 -36 34 -126
-1 -98 -8 -113 -67 -125 -45 -9 -56 -32 -65 -127 -5 -61 -12 -91 -22 -94 -11
-4 -12 13 -7 89 4 54 3 100 -2 108 -8 10 -31 13 -100 9 -50 -2 -89 0 -86 4 3
4 2 8 -2 8 -14 0 -54 -56 -54 -77 0 -24 -20 -73 -29 -73 -3 0 -6 35 -6 77 l0
78 -45 16 c-25 9 -54 20 -64 24 -25 11 -56 42 -49 49 3 3 1 12 -5 19 -18 21
-21 163 -4 159 8 -1 11 2 8 6 -3 5 4 18 15 28 15 14 48 22 117 30 54 6 98 12
100 13 2 0 0 -4 -3 -10z m1564 -98 c10 -6 52 -11 94 -12 42 -1 77 -5 77 -9 0
-3 14 -5 31 -4 18 1 32 -3 36 -12 3 -8 11 -14 19 -14 8 0 14 -4 14 -9 0 -5 15
-14 34 -21 43 -14 56 -44 56 -132 0 -117 -34 -158 -131 -158 -22 0 -29 -5 -29
-20 0 -11 -4 -20 -9 -20 -5 0 -13 -10 -17 -22 -7 -21 -9 -19 -14 12 -4 25 -10
35 -23 34 -9 -1 -17 2 -17 7 0 5 -45 9 -101 8 -89 -1 -103 1 -123 20 -12 12
-34 21 -47 21 -14 0 -35 10 -46 23 -19 21 -46 104 -38 117 2 4 5 26 6 51 2 29
9 50 22 62 11 9 16 17 11 17 -5 0 0 6 11 14 11 7 44 17 73 21 31 4 56 13 59
21 6 16 27 18 52 5z m-3552 -163 c38 -9 60 -26 120 -87 40 -42 73 -82 73 -89
0 -22 -60 -103 -83 -112 -18 -7 -27 -3 -47 19 -25 27 -70 44 -157 56 -47 7
-73 27 -91 68 -25 58 -11 105 41 137 37 23 78 25 144 8z m2116 -284 c17 -10
27 -19 20 -21 -7 -3 -22 -25 -35 -50 -24 -49 -47 -66 -75 -57 -14 4 -13 1 5
-12 23 -17 32 -77 12 -89 -17 -11 -100 6 -100 21 0 7 -6 17 -13 21 -8 4 -17
15 -20 23 -4 8 -13 23 -19 33 -11 15 -10 20 2 30 14 12 40 51 40 62 0 2 -6 2
-14 -1 -11 -4 -13 0 -9 15 6 25 15 31 57 42 42 11 110 3 149 -17z m-1648 -104
c171 -17 452 -44 625 -61 173 -16 330 -32 348 -35 l34 -5 -7 -72 c-4 -40 -10
-75 -14 -78 -3 -3 -64 0 -136 8 -71 7 -172 15 -222 17 -100 5 -134 15 -111 33
23 18 56 22 62 7 7 -18 21 -18 40 2 27 27 4 52 -45 49 -23 -1 -58 1 -77 6 -39
9 -57 0 -65 -31 -8 -30 12 -35 22 -6 8 18 15 23 31 19 27 -7 34 -19 15 -27 -9
-3 -12 -12 -9 -21 6 -14 0 -15 -42 -10 -27 3 -150 14 -274 26 -124 11 -250 23
-279 27 l-55 7 -18 61 c-10 34 -24 64 -31 67 -30 11 -77 -57 -54 -79 10 -10 9
-36 -2 -53 -8 -12 -12 -12 -26 2 -9 10 -28 17 -43 17 -26 1 -26 1 -8 15 30 22
6 43 -29 27 -15 -7 -30 -10 -34 -8 -6 4 -8 119 -2 134 0 2 22 1 49 -2 26 -3
187 -20 357 -36z m11083 -7 c33 -35 59 -104 33 -89 -7 5 -10 14 -7 22 4 10 -2
14 -19 14 -18 0 -25 -5 -25 -19 0 -18 21 -32 45 -30 14 1 23 -30 24 -79 1 -23
6 -51 13 -62 15 -24 4 -37 -17 -20 -11 9 -22 9 -45 2 -18 -7 -32 -7 -35 -1
-13 20 -33 7 -39 -26 -9 -44 -23 -53 -36 -21 -5 14 -21 33 -35 42 -34 22 -89
119 -92 161 -1 26 5 38 33 61 20 16 47 36 62 43 14 8 35 22 45 32 24 24 53 15
95 -30z m-9882 -185 c17 -18 36 -51 43 -73 8 -22 28 -53 45 -68 27 -25 28 -28
9 -24 -26 6 -39 -7 -48 -45 -7 -26 -3 -29 37 -47 27 -11 76 -20 133 -23 50 -2
98 -9 108 -14 14 -8 4 -10 -39 -6 -41 3 -55 2 -50 -7 4 -6 11 -11 16 -11 5 0
21 -5 37 -12 33 -13 28 -12 74 -21 21 -4 42 -14 49 -22 7 -8 23 -15 37 -15 13
0 42 -10 63 -22 32 -18 43 -21 58 -12 15 10 25 7 56 -16 21 -16 71 -45 112
-66 41 -20 74 -40 74 -45 0 -4 8 -6 17 -5 9 2 25 -6 35 -16 19 -19 54 -25 43
-8 -3 6 -13 10 -21 10 -8 0 -14 8 -14 18 0 10 -4 22 -9 28 -10 10 7 134 18
134 4 0 15 -16 25 -35 11 -19 21 -33 24 -30 3 2 0 10 -6 18 -12 14 -20 93 -10
102 3 3 17 3 32 -1 17 -4 26 -13 26 -26 0 -17 2 -18 15 -8 20 17 29 7 17 -17
-10 -19 -52 -174 -52 -190 1 -4 8 3 16 17 l15 25 -4 -32 c-4 -39 16 -51 37
-22 13 20 14 20 18 2 2 -10 0 -40 -5 -68 -8 -46 -7 -51 14 -65 13 -8 31 -22
39 -30 82 -78 120 -98 120 -61 0 11 5 23 11 27 6 3 9 15 6 25 -3 11 -2 19 3
19 4 0 11 10 14 23 7 21 7 21 16 2 8 -19 9 -19 9 3 1 16 -5 22 -19 22 -14 0
-20 7 -20 21 0 13 -4 18 -12 13 -6 -4 -8 -3 -4 4 3 6 2 23 -4 39 -9 26 -9 27
5 8 8 -10 29 -24 47 -30 17 -5 33 -16 36 -22 5 -19 -18 -16 -40 4 -18 16 -18
16 -12 0 3 -10 17 -20 29 -23 18 -5 23 -13 23 -40 0 -19 -3 -32 -6 -30 -4 2
-6 -37 -5 -87 2 -115 2 -112 10 -104 3 4 12 -2 20 -12 8 -12 20 -17 33 -14 15
4 20 0 20 -16 0 -20 5 -21 72 -19 l71 3 8 -30 c11 -38 0 -49 -37 -34 -48 19
-95 18 -115 -2 -24 -24 -10 -32 52 -33 26 -1 51 -5 55 -9 10 -10 12 -57 2 -63
-4 -3 -8 -13 -8 -22 0 -13 2 -14 9 -4 6 10 12 9 30 -5 18 -15 21 -24 15 -47
-5 -21 -11 -26 -27 -22 -13 3 -26 -3 -37 -17 -16 -19 -20 -20 -35 -7 -14 12
-16 12 -15 -1 6 -36 -2 -51 -30 -60 -19 -7 -30 -18 -30 -29 0 -23 -16 -35 -25
-20 -12 19 -40 -16 -43 -52 -3 -42 -31 -262 -39 -306 -12 -68 -13 -21 -2 129
10 155 3 307 -12 244 -3 -16 -7 -61 -8 -98 -1 -50 -4 -67 -13 -64 -7 2 -13 14
-12 26 0 16 -5 21 -23 21 -26 0 -31 15 -8 24 11 4 15 20 15 55 0 34 -4 51 -15
55 -8 3 -15 15 -15 27 0 15 -5 19 -15 15 -8 -3 -34 2 -57 10 -24 8 -51 13 -60
11 -9 -3 -19 0 -22 7 -2 6 -5 0 -5 -14 -2 -54 -41 -67 -41 -14 0 14 -4 22 -10
19 -5 -3 -10 -2 -10 3 0 4 -39 8 -87 8 -93 -1 -111 -9 -113 -51 -2 -22 -5 -15
-14 27 -5 21 -19 34 -56 53 -27 14 -57 25 -67 25 -19 0 -44 -62 -98 -245 -32
-109 -57 -175 -67 -175 -9 0 -5 32 12 116 16 75 10 96 -27 92 -29 -3 -40 -19
-68 -101 -10 -27 -21 -45 -26 -40 -19 19 -47 323 -33 365 6 20 34 25 35 6 0
-7 4 -4 9 8 10 25 1 76 -12 68 -14 -9 -39 17 -58 61 l-17 40 -13 -45 c-13 -44
-16 -285 -5 -410 6 -62 12 -71 -67 97 -26 56 -48 109 -48 118 0 9 -7 30 -16
46 -14 28 -14 32 2 50 16 18 15 19 -9 28 -26 10 -47 58 -47 109 0 19 5 22 35
22 23 0 45 9 67 28 18 16 40 31 49 34 9 4 19 20 22 37 6 30 8 31 59 31 l53 0
2 58 c1 31 -1 64 -4 72 -6 16 -8 34 -11 93 -1 20 -7 37 -12 37 -6 0 -9 -3 -9
-7 1 -5 1 -24 0 -43 -2 -61 -6 -62 -120 -52 -56 5 -104 11 -107 14 -2 3 0 17
5 31 6 15 7 28 3 31 -4 2 -39 8 -77 11 -39 4 -74 10 -80 13 -5 4 -17 5 -26 4
-13 -2 -15 3 -11 23 4 26 5 26 83 22 49 -2 76 0 72 6 -4 6 41 7 127 2 l132 -7
-22 41 c-22 37 -26 40 -64 39 -39 -1 -386 25 -493 38 -29 3 -53 8 -53 12 1 14
127 102 146 102 38 0 56 37 54 109 -4 99 -3 104 20 97 11 -3 29 -9 40 -12 30
-9 26 31 -5 52 -28 18 -33 53 -14 101 20 53 62 58 105 11z m10009 -149 c48
-43 47 -63 -4 -55 -37 6 -39 5 -43 -24 -3 -17 -2 -30 1 -30 3 0 6 -19 6 -43 0
-38 -2 -42 -25 -42 -21 0 -24 -4 -22 -25 9 -70 13 -293 7 -367 -6 -73 -9 -83
-26 -83 -10 0 -19 5 -19 10 0 6 -9 10 -20 10 -16 0 -20 6 -20 28 1 15 0 97 0
184 l0 156 -95 46 c-91 44 -176 107 -174 130 0 6 15 23 33 38 l33 27 30 -37
c39 -49 53 -76 53 -104 0 -32 30 -50 54 -33 14 11 18 29 19 90 2 60 6 78 19
86 9 5 23 15 30 23 7 7 24 18 36 25 23 12 43 5 64 -24 4 -5 8 -1 8 11 0 18 8
34 16 34 2 0 19 -14 39 -31z m979 -69 c6 -6 21 -10 34 -10 28 0 103 -40 96
-51 -2 -4 0 -10 6 -14 14 -8 13 -48 -2 -82 -11 -25 -22 -37 -63 -71 -9 -7 -90
-37 -133 -48 -10 -3 -13 -18 -10 -54 3 -53 -15 -66 -20 -14 -4 50 -12 74 -23
74 -6 0 -8 -4 -4 -9 3 -5 1 -12 -5 -16 -5 -3 -7 -20 -3 -37 5 -24 3 -30 -8
-26 -8 3 -17 21 -20 42 -8 48 -16 56 -70 60 -51 4 -147 49 -156 73 -4 9 -1 41
5 71 16 77 63 120 135 124 83 6 231 -2 241 -12z m-10293 -40 c14 0 19 -8 20
-27 2 -24 2 -25 6 -5 2 12 11 22 19 22 8 0 19 -10 24 -22 5 -13 9 -17 9 -10 1
6 8 12 16 12 8 0 12 -6 9 -14 -3 -8 -1 -17 5 -20 7 -5 7 -14 -1 -31 -6 -13
-14 -22 -19 -19 -4 2 -3 -10 3 -28 18 -56 21 -88 9 -88 -6 0 -11 7 -11 15 0 9
-6 12 -15 9 -19 -8 -85 36 -85 55 0 7 6 11 14 8 8 -3 17 1 20 10 5 12 9 13 21
3 12 -10 15 -10 15 3 0 8 3 24 6 34 5 17 5 17 -6 1 -6 -10 -20 -18 -31 -18
-16 0 -18 5 -13 25 10 42 -12 28 -32 -20 -10 -25 -22 -45 -27 -45 -10 0 -1 32
19 72 25 49 14 54 -13 6 -29 -53 -49 -63 -38 -20 6 26 6 26 -9 7 -21 -27 -20
-3 0 38 24 47 35 59 51 52 8 -3 23 -5 34 -5z m11241 -11 c54 -9 75 -17 102
-42 38 -36 50 -70 34 -101 -16 -32 -60 -76 -70 -70 -4 3 -8 1 -8 -5 0 -6 -19
-16 -42 -22 -53 -15 -68 -26 -68 -50 0 -11 -4 -19 -10 -19 -5 0 -10 7 -10 15
0 8 -6 15 -14 15 -8 0 -16 -7 -20 -15 -8 -22 -36 -18 -36 5 0 22 -21 35 -70
43 l-35 5 -1 -54 c-2 -56 9 -68 32 -37 7 10 15 15 18 12 10 -9 -12 -59 -25
-59 -7 0 -5 -8 6 -20 10 -11 13 -20 7 -20 -7 0 -12 5 -12 10 0 6 -4 10 -10 10
-5 0 -10 -28 -11 -62 -1 -56 -2 -59 -9 -28 -5 19 -10 78 -11 131 -3 105 -11
139 -32 139 -8 0 -26 9 -41 21 -14 11 -26 17 -26 14 0 -4 -7 -2 -15 5 -22 18
-18 52 10 107 28 51 40 61 95 80 38 12 161 9 272 -8z m-8930 -56 c72 -47 138
-119 138 -153 0 -16 5 -32 11 -36 8 -4 7 -9 -2 -14 -9 -6 -10 -12 -2 -22 5 -7
9 -38 8 -68 -1 -30 2 -70 8 -89 7 -24 6 -50 -3 -88 -6 -30 -9 -57 -6 -61 4 -3
23 -5 42 -4 20 2 43 -3 52 -10 11 -9 14 -9 9 -1 -10 16 17 29 77 38 27 3 61
12 75 17 14 6 30 10 34 9 5 -1 5 4 1 10 -5 9 -2 10 9 6 11 -4 14 -2 11 7 -3 7
2 16 11 20 14 5 15 -5 13 -77 l-3 -82 -37 -9 c-20 -5 -39 -16 -42 -25 -16 -42
-38 -66 -80 -86 -25 -12 -46 -20 -46 -17 0 2 -7 -1 -15 -8 -8 -6 -23 -9 -35
-5 -32 10 -28 72 5 87 18 8 22 14 13 19 -7 4 -17 4 -23 -1 -5 -4 -23 -10 -40
-13 -133 -23 -119 -16 -130 -64 -10 -48 24 -77 104 -91 98 -18 118 -48 59 -92
-30 -22 -46 -25 -168 -31 -166 -8 -230 -23 -295 -66 -76 -50 -215 -103 -287
-109 -73 -7 -153 19 -200 64 -32 30 -38 16 -8 -18 11 -13 20 -29 20 -36 0 -7
8 -10 19 -7 25 6 33 -9 22 -39 -5 -14 -6 -30 -1 -37 5 -9 8 -3 8 14 0 37 24
59 56 51 20 -5 24 -10 18 -27 -4 -11 -6 -35 -4 -54 5 -42 20 -46 161 -46 90 1
111 -2 140 -20 31 -19 33 -23 27 -61 -4 -22 -13 -47 -21 -55 -18 -18 -19 -34
-2 -57 12 -16 15 -15 32 18 11 20 21 36 23 36 9 0 66 -47 90 -74 15 -16 37
-39 50 -51 12 -12 36 -53 53 -90 27 -61 30 -80 10 -80 -15 0 -57 -41 -53 -53
2 -6 -3 -12 -12 -12 -8 0 -17 -4 -20 -9 -3 -5 12 -5 37 1 23 5 44 13 45 19 6
15 50 10 64 -6 7 -9 23 -26 36 -39 13 -13 28 -43 33 -67 6 -26 23 -57 41 -76
24 -25 29 -37 24 -58 -5 -20 -11 -25 -24 -20 -9 3 -13 3 -10 -1 4 -4 3 -15 -3
-26 -9 -16 -7 -19 8 -16 23 4 22 -21 -7 -122 -30 -108 -39 -150 -30 -145 4 2
15 32 24 66 10 33 20 59 22 56 2 -2 0 -40 -6 -83 -6 -43 -15 -117 -21 -164
-21 -163 -72 -350 -96 -350 -7 0 -13 -7 -13 -15 0 -8 -9 -15 -20 -15 -18 0
-20 5 -14 43 9 64 42 229 71 350 14 60 23 110 21 113 -3 2 -90 6 -194 9 -104
2 -205 7 -225 10 l-36 6 -12 80 c-10 60 -11 82 -2 93 8 10 9 16 1 21 -5 3 -10
28 -10 54 0 38 5 52 25 71 18 17 25 34 25 60 0 20 9 55 20 78 15 30 20 61 20
116 0 81 11 123 38 145 16 13 16 13 -1 7 -10 -3 -23 -6 -28 -6 -5 0 -9 -6 -9
-14 0 -7 -7 -19 -15 -26 -8 -7 -13 -16 -10 -20 8 -13 -8 -19 -58 -24 -26 -3
-62 -10 -80 -17 -46 -16 -85 -5 -99 29 -7 15 -19 35 -28 44 -8 9 -22 25 -30
35 -14 16 -15 16 -18 -2 -6 -32 -20 -39 -16 -8 4 26 4 26 -5 6 -6 -13 -12 -44
-14 -70 -3 -27 -2 -36 0 -20 2 15 9 27 14 27 7 0 8 -21 3 -57 -7 -61 -22 -118
-23 -93 -1 13 -2 13 -11 0 -7 -11 -9 -2 -9 30 1 37 2 41 9 20 l8 -25 1 28 c1
15 -3 27 -8 27 -5 0 -12 33 -15 73 -10 140 -17 182 -34 195 -12 9 -12 12 -2
12 10 0 9 4 -3 18 -10 10 -17 26 -17 36 0 22 -26 32 -44 17 -11 -10 -15 -8
-18 6 -3 12 -9 3 -17 -24 -23 -82 -33 -38 -17 75 3 23 3 23 -100 20 -57 -2
-104 0 -104 5 0 4 -5 7 -11 7 -6 0 -9 -7 -5 -15 3 -8 -8 -86 -23 -172 -24
-129 -43 -275 -46 -340 0 -6 -4 -15 -8 -19 -9 -9 -9 -16 8 151 21 199 20 207
-8 200 -14 -4 -28 -1 -35 8 -17 20 12 57 44 57 23 0 25 4 25 43 0 23 1 68 3
101 2 39 0 54 -6 45 -7 -10 -8 -5 -4 16 5 22 4 26 -3 15 -8 -12 -13 -12 -23
-2 -6 6 -8 12 -3 12 4 0 0 8 -9 19 -18 20 -24 90 -11 131 8 25 8 25 -13 6 -12
-11 -22 -15 -22 -10 0 21 26 34 71 34 l47 0 16 88 c9 48 23 155 31 237 9 83
21 198 27 258 6 59 15 107 19 107 11 0 12 17 -10 -200 -38 -364 -44 -461 -29
-489 18 -36 35 -48 96 -66 28 -9 52 -20 52 -26 0 -17 35 -48 46 -41 6 4 16 43
21 87 l10 80 2 -88 c1 -64 5 -93 16 -103 9 -9 15 -11 15 -4 0 6 5 8 11 4 8 -5
10 0 6 17 -3 13 -11 58 -17 99 -7 41 -21 112 -32 158 -12 50 -17 94 -13 110 4
15 6 61 6 104 -2 84 10 124 54 176 41 49 61 53 95 22 15 -14 58 -46 96 -72 38
-25 80 -58 93 -72 14 -14 33 -26 43 -26 10 0 18 -4 18 -10 0 -5 5 -10 10 -10
6 0 10 11 10 24 0 17 -24 50 -77 105 -71 75 -110 102 -97 66 17 -43 -113 50
-177 127 -25 29 -51 65 -58 79 -7 15 -31 36 -52 48 -21 12 -39 28 -39 34 0 16
66 117 88 134 21 16 76 11 124 -11 24 -12 42 -32 63 -73 39 -77 109 -177 167
-239 46 -49 52 -51 136 -67 48 -10 92 -17 99 -17 21 0 123 41 123 49 0 15 -63
22 -72 9 -6 -10 -8 -10 -8 0 0 14 -36 17 -44 3 -3 -5 -19 -11 -36 -13 -39 -6
-34 15 6 23 24 6 21 7 -17 8 -53 1 -66 9 -42 26 15 11 32 10 113 -9 14 -4 19
-4 12 0 -7 3 -22 24 -33 46 -18 36 -19 42 -6 62 12 18 13 30 4 63 -14 52 4
113 45 154 47 46 139 47 210 2z m-3379 -28 c31 -4 57 -11 57 -16 0 -5 -6 -9
-14 -9 -8 0 -16 -3 -18 -7 -1 -5 -22 -20 -45 -35 -37 -25 -52 -28 -120 -28
-43 0 -88 3 -101 6 -22 6 -20 8 20 32 24 14 56 36 72 49 21 17 36 22 60 19 17
-3 57 -8 89 -11z m10830 -186 c32 -17 50 -39 71 -86 19 -43 19 -43 -4 -85
l-22 -43 21 -85 c25 -98 37 -115 72 -102 13 5 45 12 72 16 42 7 47 10 48 34 2
24 2 25 6 4 4 -18 9 -21 26 -16 12 4 29 8 37 9 41 5 102 31 111 47 5 10 14 18
20 18 6 0 23 8 37 19 32 22 92 22 117 1 14 -12 19 -12 22 -2 3 6 11 12 18 12
7 0 15 -6 18 -12 3 -10 10 -8 25 5 11 11 26 16 31 12 16 -9 13 11 -4 28 -8 8
-11 18 -7 21 3 4 0 11 -8 16 -12 7 -11 14 6 45 41 78 142 100 221 48 23 -15
40 -30 37 -35 -3 -4 2 -11 11 -14 9 -4 23 -20 31 -37 15 -28 15 -31 -5 -56
-40 -49 -46 -69 -32 -104 21 -52 21 -77 0 -98 -29 -29 -53 -24 -68 16 -9 27
-18 35 -36 35 -33 0 -41 18 -12 25 15 4 37 -1 59 -15 21 -12 39 -17 42 -12 3
6 -1 12 -9 16 -8 3 -15 13 -15 21 0 12 -6 15 -19 10 -14 -4 -23 0 -31 15 -15
28 -33 25 -48 -9 -9 -21 -32 -38 -80 -62 -63 -30 -72 -32 -172 -30 -58 1 -116
4 -130 5 -15 2 -44 -2 -65 -10 -22 -8 -48 -14 -57 -14 -41 0 -65 -21 -66 -57
-2 -56 -11 -73 -37 -73 -22 0 -24 2 -13 25 6 13 15 22 19 19 5 -3 9 0 9 5 0 6
-13 11 -29 11 -22 0 -36 8 -51 31 -28 38 -35 32 -15 -14 17 -41 16 -42 -42
-52 -32 -5 -46 -3 -62 12 -12 9 -21 23 -21 30 0 22 -16 15 -28 -12 -8 -17 -20
-25 -37 -25 -36 0 -31 -24 8 -38 48 -17 55 -15 49 13 -3 16 0 25 8 25 16 0 7
-79 -11 -92 -34 -22 -47 -26 -102 -33 -57 -7 -87 2 -87 29 0 6 4 4 10 -4 5 -8
12 -11 16 -7 4 3 1 13 -5 21 -7 8 -11 23 -10 33 3 24 -11 73 -21 73 -5 0 -5
-13 0 -30 14 -47 -4 -35 -23 17 -9 25 -16 47 -15 48 2 1 47 12 101 25 53 13
97 29 97 35 0 25 -31 128 -50 164 -10 21 -34 48 -53 59 -44 25 -80 96 -71 140
4 21 3 32 -5 32 -6 0 -11 5 -11 10 0 6 8 10 18 10 10 0 22 4 28 9 22 21 133
28 167 10z m1442 -73 c19 -8 35 -19 36 -23 3 -33 7 -51 13 -70 5 -17 -1 -34
-22 -65 -29 -42 -30 -43 -80 -40 -48 4 -52 6 -63 37 -8 21 -17 31 -26 28 -8
-3 -13 2 -13 13 0 9 3 15 6 12 3 -4 14 1 23 10 16 15 16 20 4 45 -13 26 -12
29 9 47 28 23 67 25 113 6z m-10210 -303 c-3 -32 -7 -99 -9 -149 -1 -50 -6
-96 -10 -102 -4 -7 -4 -38 0 -69 4 -32 7 -72 8 -90 1 -17 5 -35 9 -39 4 -4 7
-13 7 -21 0 -10 -5 -11 -19 -3 -16 8 -22 6 -30 -7 -9 -16 -12 -16 -21 -3 -5 8
-10 23 -10 33 0 10 -4 16 -9 13 -11 -7 -41 124 -40 173 l1 36 8 -30 c5 -16 16
-59 25 -95 8 -35 18 -66 21 -69 2 -2 3 22 3 55 -1 32 3 88 10 124 14 77 33
225 33 260 0 29 5 40 19 40 6 0 8 -22 4 -57z m9808 -110 c70 -167 66 -161 68
-123 l1 35 8 -30 c5 -16 13 -63 19 -103 6 -40 17 -83 25 -95 7 -12 22 -44 32
-72 10 -27 31 -75 46 -105 l27 -55 0 48 c1 26 -4 136 -10 245 -6 109 -9 211
-7 227 3 29 20 -172 38 -458 10 -146 15 -177 31 -177 19 0 76 45 72 57 -3 7 8
15 24 19 59 13 89 25 116 49 16 14 26 29 23 34 -3 4 -34 14 -68 21 -145 28
-237 124 -158 165 16 8 42 15 57 15 45 0 73 11 74 29 0 11 3 9 9 -6 7 -17 18
-23 42 -23 49 0 83 -11 66 -21 -10 -6 -9 -11 7 -23 18 -14 18 -15 3 -16 -53
-1 11 -49 74 -57 35 -5 41 -3 31 8 -19 20 -16 29 12 29 15 0 31 -9 40 -23 17
-26 65 -53 65 -37 0 6 8 10 18 9 9 0 12 -3 5 -5 -23 -10 -1 -33 37 -39 39 -7
69 -29 52 -39 -5 -3 -31 -5 -58 -5 -27 0 -86 0 -131 0 -54 -1 -83 3 -83 10 0
7 11 9 25 6 16 -3 24 0 22 7 -4 11 -8 12 -43 15 -11 1 -15 7 -11 21 8 33 -10
33 -29 0 -10 -16 -22 -30 -27 -30 -5 0 -7 -7 -3 -15 3 -8 2 -15 -2 -15 -4 0
-27 -18 -52 -40 -25 -22 -50 -40 -55 -40 -11 0 -35 -90 -35 -130 1 -35 20 -55
54 -55 38 1 46 22 12 31 -14 3 -26 10 -26 15 0 14 33 11 57 -6 12 -8 45 -20
75 -25 106 -21 100 -18 87 -41 -6 -11 -8 -27 -5 -34 7 -19 -25 -25 -132 -25
-73 0 -94 3 -98 15 -7 18 -31 20 -36 3 -6 -16 -142 6 -192 31 -21 11 -43 22
-48 23 -16 6 3 68 22 68 10 0 23 7 30 15 10 12 9 15 -6 15 -12 0 -26 15 -37
40 -24 52 -37 51 -38 -2 -1 -30 -5 -16 -14 47 -16 115 -23 139 -53 200 -13 27
-37 85 -52 130 -16 44 -44 119 -64 167 -39 96 -41 105 -23 129 31 41 72 37 90
-8z m-11693 11 c68 -10 100 -26 100 -52 0 -26 -24 -133 -46 -202 -8 -25 -14
-52 -14 -61 0 -9 -6 -22 -14 -28 -7 -6 -16 -24 -19 -40 -7 -31 -50 -85 -60
-74 -4 3 -7 15 -7 25 0 24 -27 23 -42 -2 -22 -35 -31 -22 -24 38 18 165 24
199 38 224 19 35 13 94 -9 77 -8 -7 -22 -31 -33 -53 -52 -117 -70 -160 -70
-175 0 -11 -9 -6 -31 17 -16 17 -37 32 -46 32 -18 0 -49 -33 -58 -61 -7 -20
-25 -26 -25 -9 0 6 -7 10 -15 10 -11 0 -13 8 -8 33 3 17 10 40 14 49 5 9 9 25
9 36 0 11 10 32 22 48 14 17 25 49 29 84 4 30 9 64 12 75 3 11 6 22 6 24 1 4
240 -8 291 -15z m224 -98 c7 -60 -8 -146 -27 -158 -8 -5 -7 -12 5 -25 12 -14
17 -46 20 -140 4 -118 -2 -149 -18 -100 -10 28 -11 33 -13 55 0 9 -11 22 -23
27 -22 10 -24 7 -40 -70 l-17 -80 5 89 c3 68 9 94 22 106 10 9 23 15 30 12 6
-2 12 3 12 11 0 28 -12 47 -30 47 -27 0 -30 11 -20 71 5 30 15 95 22 144 6 50
16 93 22 97 19 13 43 -29 50 -86z m11933 -23 c14 -42 14 -43 -19 -83 -31 -38
-35 -40 -83 -38 l-50 3 -10 49 c-7 37 -6 51 3 54 7 2 12 8 12 13 0 5 8 18 18
28 13 15 28 19 66 18 49 -2 50 -3 63 -44z m-1304 -100 c3 -10 8 -36 11 -58 4
-22 15 -69 25 -105 11 -36 25 -92 32 -125 7 -33 16 -68 21 -77 14 -30 98 -367
98 -397 0 -16 11 -45 25 -65 14 -20 25 -45 25 -56 0 -68 46 -95 150 -88 84 6
121 -9 74 -31 -20 -9 -30 -9 -32 -2 -8 23 -232 0 -264 -27 -16 -13 -19 -12
-28 13 -12 31 -5 66 13 62 14 -2 23 73 10 82 -14 11 -43 81 -43 106 0 14 -4
25 -8 25 -9 0 -40 73 -68 160 -9 30 -36 107 -60 170 -72 196 -118 350 -105
350 6 0 29 17 85 62 27 22 34 22 39 1z m-10555 -151 c12 -42 25 -92 28 -109 4
-18 13 -38 20 -44 16 -13 19 -49 4 -49 -5 0 -10 -10 -11 -22 -1 -22 -1 -22 -8
2 l-8 25 -13 -27 c-7 -16 -16 -28 -19 -28 -10 0 -31 177 -31 258 0 39 3 72 8
72 4 0 17 -35 30 -78z m3656 -104 l-6 -23 26 24 c30 29 34 17 6 -19 -11 -14
-20 -33 -20 -43 0 -17 1 -17 17 -2 9 10 26 15 40 12 15 -3 23 1 23 9 0 8 5 14
11 14 7 0 9 -10 7 -25 -6 -28 16 -36 26 -10 3 8 10 15 16 15 6 0 8 -4 5 -10
-3 -5 -1 -10 4 -10 6 0 11 4 11 8 0 5 7 17 16 28 15 19 15 19 11 -2 -3 -14 3
-28 16 -39 18 -15 19 -15 14 -1 -5 11 -1 16 14 16 13 0 18 -5 14 -12 -4 -7 3
-2 14 11 22 25 71 37 71 18 0 -6 -10 -22 -22 -35 -19 -21 -20 -24 -5 -19 11 4
16 3 12 -4 -4 -6 -33 -8 -73 -5 -37 3 -107 7 -157 10 -49 2 -98 8 -109 12 -10
4 -32 7 -49 8 -31 1 -52 26 -22 26 9 0 13 -4 10 -10 -3 -5 -1 -10 5 -10 6 0
23 20 38 45 29 48 48 59 36 23z m-4998 1 c3 -6 15 -9 25 -6 24 6 83 -33 87
-58 2 -11 10 -27 18 -36 8 -8 16 -29 20 -46 5 -27 0 -34 -49 -77 -45 -38 -64
-48 -99 -51 -24 -1 -55 -6 -70 -10 -24 -6 -28 -4 -28 14 0 31 -33 27 -87 -9
-42 -29 -47 -30 -67 -16 -43 31 -56 44 -56 56 0 6 27 46 61 89 114 144 121
150 138 139 11 -6 27 -5 51 6 43 19 47 19 56 5z m4974 -184 c218 -11 385 -27
397 -37 7 -5 17 -7 23 -3 6 4 7 -2 1 -17 -4 -13 -6 -29 -4 -35 3 -7 0 -13 -5
-13 -5 0 -12 9 -15 20 -3 11 -12 20 -21 20 -21 0 -20 -10 2 -26 16 -13 16 -13
-1 -14 -11 0 -21 9 -24 20 -3 11 -12 20 -20 20 -12 0 -13 -3 -4 -14 17 -20 -2
-29 -47 -22 -20 3 -82 8 -137 11 -103 7 -119 10 -110 25 8 14 -27 45 -53 47
-24 2 -37 -11 -27 -27 4 -7 13 -7 26 0 10 6 19 9 19 6 0 -2 3 -11 6 -20 5 -13
-8 -14 -92 -10 -54 3 -101 7 -105 10 -9 5 -8 44 1 44 3 0 11 -5 17 -11 7 -7
12 -6 16 5 6 16 -2 20 -35 17 -10 -1 -18 3 -18 9 0 8 17 10 53 6 28 -3 99 -8
157 -11z m6457 -209 c4 -8 12 -14 17 -13 12 3 37 -44 64 -118 18 -51 29 -159
23 -228 -1 -4 -15 8 -32 28 -40 45 -93 198 -79 225 11 21 8 24 -34 34 -22 5
-26 10 -17 19 6 6 11 24 11 39 0 21 5 28 20 28 10 0 23 -6 27 -14z m-9338
-1263 c5 -10 15 -18 23 -19 7 0 21 -2 31 -2 10 -1 22 -13 27 -27 7 -17 17 -25
34 -25 35 0 56 -10 56 -26 0 -11 -22 -14 -102 -14 l-103 0 33 -21 c39 -25 41
-32 6 -18 -30 11 -104 66 -117 86 -9 14 -57 8 -100 -14 -43 -21 -53 -11 -16
17 24 17 48 24 84 25 79 3 82 4 89 30 7 29 40 34 55 8z m1702 -12 c-12 -8 -9
-11 11 -16 15 -4 32 -3 39 1 9 5 10 2 4 -12 -4 -10 -10 -33 -12 -49 -4 -23
-13 -34 -36 -45 -18 -7 -35 -18 -39 -24 -10 -16 -38 13 -38 41 0 13 -12 35
-26 48 -44 41 -22 60 76 63 25 1 31 -1 21 -7z m-1171 -72 c107 -1 252 -4 322
-8 l127 -6 -41 -34 c-39 -33 -45 -35 -144 -40 -56 -3 -105 -9 -108 -12 -10
-10 167 -10 201 0 18 5 49 23 70 39 50 39 80 45 150 28 93 -21 136 -56 70 -56
-18 0 -42 -7 -53 -15 -10 -8 -36 -15 -57 -15 -21 0 -78 -9 -125 -20 -48 -12
-105 -25 -127 -30 -22 -5 -41 -5 -43 -1 -2 5 -30 7 -63 4 -39 -4 -59 -2 -59 5
0 6 5 14 10 17 15 10 12 35 -5 35 -8 0 -15 -3 -15 -8 0 -4 -55 -16 -122 -26
-68 -10 -139 -22 -158 -27 -53 -13 -110 -11 -126 6 -9 8 -24 15 -35 15 -15 0
-20 6 -17 23 3 19 10 22 54 25 42 2 53 0 58 -15 4 -10 2 -19 -3 -21 -6 -2 -11
-10 -11 -18 0 -15 37 -17 80 -4 l25 7 -27 7 c-23 7 -45 33 -35 43 2 2 64 5
136 7 215 7 197 42 -28 53 -87 4 -130 11 -140 20 -7 8 -20 12 -27 9 -8 -3 -14
-1 -14 4 0 6 7 11 15 11 28 3 33 4 41 12 4 4 12 3 18 -3 6 -6 88 -10 206 -11z
m1051 -10 c16 -17 29 -37 29 -43 0 -7 -15 -29 -34 -49 -46 -50 -87 -52 -104
-4 -38 105 38 172 109 96z m6873 -240 l-29 -7 28 -1 28 -1 -3 -67 -3 -68 55
-5 c52 -5 54 -6 31 -18 -18 -11 -48 -12 -125 -8 -189 12 -325 15 -276 6 25 -5
77 -9 117 -9 39 -1 74 -5 77 -9 3 -5 2 -18 -1 -30 -6 -24 -29 -30 -35 -10 -3
9 -48 14 -162 17 -126 2 -159 6 -163 18 -5 14 24 92 36 94 45 6 79 5 148 -4
76 -10 106 -7 90 9 -6 7 -19 8 -146 19 -35 3 -66 7 -68 9 -2 2 -6 20 -10 39
l-6 36 223 -2 c122 -1 210 -5 194 -8z m423 -21 l91 2 -7 -27 c-6 -24 -16 -30
-77 -44 -38 -9 -77 -20 -86 -24 -13 -5 -22 4 -42 43 -27 53 -25 66 8 56 12 -4
62 -6 113 -6z"/>
<path d="M9032 5557 c-24 -25 -25 -83 -2 -97 13 -8 6 -30 -10 -30 -5 0 -20 4
-34 10 -24 9 -25 11 -11 37 8 15 15 35 14 43 0 13 -1 13 -6 0 -3 -8 -10 -21
-16 -28 -6 -8 -12 -24 -14 -35 -5 -33 -11 -47 -22 -47 -5 0 -4 13 2 30 10 25
9 33 -3 40 -10 6 -17 5 -20 -5 -4 -11 -11 -7 -30 15 -32 39 -48 38 -56 -5 -8
-44 9 -69 37 -54 21 11 21 11 24 -17 2 -20 0 -20 -36 -11 -39 10 -69 -1 -69
-26 0 -13 -71 -77 -86 -77 -10 0 -28 -40 -21 -46 1 -1 20 4 42 12 22 8 54 12
72 9 20 -4 33 -1 35 7 4 10 8 10 21 -1 15 -12 17 -10 17 15 0 22 -3 26 -10 14
-8 -13 -10 -13 -10 1 0 9 10 20 23 24 35 12 42 11 42 -5 0 -8 7 -15 15 -15 9
0 15 -9 14 -23 0 -19 5 -22 35 -22 l36 0 -32 28 c-18 15 -33 34 -33 43 0 8 -9
21 -19 29 -19 13 -19 14 5 26 25 14 127 17 119 5 -5 -9 81 -6 113 4 12 4 22
14 22 21 0 8 -10 14 -22 14 -79 0 -88 6 -102 63 -5 22 -3 27 13 27 17 0 19 4
12 22 -11 31 -24 32 -49 5z"/>
<path d="M8675 5540 c-5 -19 -8 -38 -7 -42 3 -11 -36 -20 -57 -13 -18 5 -19 3
-10 -27 12 -44 12 -48 -5 -42 -9 4 -20 -6 -31 -25 -8 -17 -22 -31 -31 -31 -14
0 -14 -2 0 -15 8 -8 26 -15 40 -15 14 0 28 -4 31 -10 10 -17 25 -11 25 9 0 11
-8 21 -17 24 -16 3 -16 5 2 12 24 10 45 37 39 47 -3 5 0 8 5 8 6 0 11 7 11 15
0 8 4 15 10 15 22 0 29 38 16 81 l-13 44 -8 -35z"/>
<path d="M11078 5525 c-15 -8 -35 -14 -45 -13 -10 0 -26 0 -35 0 -27 -3 -10
-32 18 -32 39 0 27 -19 -16 -26 -40 -7 -40 -7 -25 -30 20 -32 19 -34 -14 -34
-49 0 -78 -16 -78 -42 0 -23 1 -23 116 -26 64 -1 153 1 198 4 81 6 82 6 78 32
-1 15 -3 44 -4 65 -1 26 -6 37 -16 37 -18 0 -20 17 -4 22 8 3 5 11 -7 22 -17
18 -18 18 -25 -3 -7 -17 -12 -19 -31 -12 -13 5 -22 13 -21 18 1 5 -8 10 -20
10 -12 1 -23 7 -25 13 -5 13 -11 12 -44 -5z"/>
<path d="M11402 5521 c-9 -5 -12 -25 -10 -62 l3 -54 43 -1 c42 -1 68 -13 45
-21 -7 -3 -13 -14 -13 -25 0 -17 3 -18 15 -8 8 7 15 16 15 21 0 5 16 25 35 45
19 19 35 42 35 50 0 8 7 14 15 14 14 0 13 3 -1 25 -19 30 -44 34 -37 6 6 -25
-12 -35 -45 -23 -15 6 -40 13 -56 17 -23 5 -27 8 -15 16 12 7 12 9 -1 9 -8 0
-21 -4 -28 -9z"/>
<path d="M7480 5449 c0 -5 -4 -8 -9 -5 -5 3 -12 -10 -15 -29 -4 -19 -11 -35
-16 -35 -6 0 -10 -9 -10 -19 0 -11 -9 -23 -21 -26 -21 -7 -21 -7 2 -19 17 -8
24 -20 24 -41 0 -17 4 -36 8 -42 6 -10 3 -11 -15 -4 -13 5 -33 5 -47 0 -13 -5
-25 -8 -26 -7 -1 2 -7 12 -13 23 -9 17 -11 17 -12 3 0 -9 -6 -23 -12 -30 -7
-8 -19 -24 -26 -36 -10 -19 -10 -23 3 -28 9 -4 31 -4 50 -1 50 8 63 -9 55 -71
l-6 -49 60 -1 c33 -1 55 2 49 6 -8 5 -9 13 -3 22 5 8 3 24 -5 40 -9 17 -10 31
-4 41 13 21 11 26 -10 32 -20 5 -23 42 -3 42 6 0 14 3 18 8 4 4 2 7 -5 7 -7 0
-9 5 -6 10 3 6 -3 10 -14 10 -12 0 -21 5 -21 10 0 6 9 10 20 10 23 0 24 3 8
30 -10 16 -10 24 1 41 12 20 11 21 -4 15 -16 -6 -16 -4 -3 16 19 29 31 88 18
88 -6 0 -10 -5 -10 -11z"/>
<path d="M7797 5438 c-8 -28 -3 -33 14 -15 11 12 15 10 26 -11 17 -32 17 -102
-1 -127 -16 -25 -26 -75 -15 -75 5 0 9 7 9 15 0 8 5 15 12 15 6 0 19 7 28 15
19 17 54 9 46 -10 -2 -7 2 -21 9 -32 13 -17 15 -17 31 -1 16 16 16 18 1 24 -9
3 -17 14 -17 23 0 10 -11 28 -24 40 -21 19 -23 27 -15 49 7 17 6 29 -1 36 -7
7 -10 6 -10 -2 0 -7 -4 -12 -10 -12 -19 0 -10 37 13 48 l22 11 -22 7 c-13 3
-20 10 -17 15 3 5 -13 9 -34 9 -32 0 -41 -4 -45 -22z"/>
<path d="M7968 5446 c-11 -8 -15 -20 -12 -33 3 -11 1 -24 -5 -27 -22 -14 -12
-43 17 -49 40 -9 62 -29 68 -63 4 -25 0 -34 -21 -48 -25 -16 -26 -38 -2 -35
49 6 78 -34 58 -78 -14 -31 -23 -29 -68 12 -21 19 -40 35 -43 35 -3 0 -10 -15
-15 -32 -10 -34 -45 -52 -45 -24 0 9 -4 16 -9 16 -18 0 -63 -49 -58 -63 6 -16
107 -23 107 -8 0 17 59 43 80 36 13 -4 20 -15 20 -31 0 -19 5 -24 25 -24 17 0
25 -6 25 -17 0 -15 4 -14 19 6 l18 24 18 -26 c19 -29 35 -35 35 -13 0 8 16 20
36 26 32 11 37 10 50 -9 12 -16 26 -21 64 -21 46 0 49 2 55 30 8 38 1 50 -31
44 -25 -5 -79 27 -67 40 3 3 2 6 -3 6 -6 0 -15 -5 -20 -10 -12 -12 -47 -2 -39
10 3 5 7 29 9 54 4 53 21 79 47 71 26 -9 24 13 -4 39 -19 17 -28 20 -52 12
-17 -5 -35 -10 -42 -12 -7 -2 -9 -17 -6 -44 6 -40 5 -42 -16 -35 -15 5 -21 2
-21 -9 0 -11 -9 -16 -30 -16 -26 0 -30 4 -30 28 0 40 13 54 45 50 36 -4 45 19
11 28 -34 8 -33 17 7 48 23 19 27 26 15 26 -10 0 -18 6 -18 13 0 8 -3 7 -10
-3 -5 -8 -12 -11 -16 -7 -4 3 -1 13 6 22 18 22 -4 19 -23 -3 -23 -26 -21 -42
5 -42 l22 0 -20 -20 c-25 -25 -54 -17 -54 14 0 12 -7 32 -17 45 -15 23 -15 25
2 37 18 13 18 14 -2 14 -11 0 -23 7 -27 15 -7 18 -16 18 -38 1z"/>
<path d="M8395 5355 c-3 -14 -7 -36 -10 -50 -3 -14 -1 -25 5 -25 5 0 10 -5 10
-11 0 -5 -4 -8 -9 -5 -12 8 -41 -3 -41 -15 0 -4 6 -6 14 -3 8 3 17 1 21 -5 10
-18 132 -14 139 4 7 20 60 19 80 -1 20 -20 20 -38 0 -69 -18 -28 -44 -33 -44
-10 0 19 -7 18 -45 -4 -16 -10 -31 -27 -33 -39 -2 -11 -12 -24 -23 -27 -14 -5
-19 -16 -19 -46 0 -25 5 -39 13 -39 33 1 65 53 47 76 -17 19 16 32 41 16 10
-7 28 -12 39 -12 11 0 20 -7 20 -15 0 -8 8 -15 18 -15 10 0 27 -7 38 -15 28
-19 34 -11 34 45 0 37 -6 53 -25 75 -20 21 -23 30 -14 41 9 11 8 14 -5 14 -14
0 -16 6 -10 37 7 36 6 37 -10 20 -23 -22 -33 -22 -41 3 -6 19 -12 21 -58 24
-10 1 -21 7 -26 15 -5 7 -14 10 -20 6 -17 -10 -64 23 -57 41 3 8 -1 14 -9 14
-8 0 -17 -11 -20 -25z"/>
<path d="M7009 5303 c-1 -5 -1 -11 0 -15 0 -5 -8 -8 -20 -8 -11 0 -27 -7 -35
-15 -9 -8 -27 -15 -40 -15 -23 0 -24 -1 -10 -16 34 -34 15 -57 -49 -60 -51 -3
-78 11 -66 34 18 35 -27 88 -53 62 -7 -7 -3 -10 14 -10 18 0 21 -3 13 -11 -6
-6 -9 -18 -6 -25 3 -9 -2 -14 -17 -14 -15 0 -20 5 -17 14 3 8 0 21 -6 30 -10
13 -19 14 -49 6 -43 -12 -58 -32 -58 -75 0 -27 -20 -16 -37 20 -9 19 -24 35
-32 35 -14 0 -14 -1 -1 -10 13 -8 12 -10 -2 -10 -10 0 -18 -4 -18 -10 0 -5 -7
-10 -16 -10 -11 0 -14 -5 -10 -16 3 -9 6 -24 6 -35 0 -15 7 -19 35 -19 19 0
35 -4 35 -10 0 -5 4 -10 10 -10 8 0 22 26 47 89 8 22 10 22 25 7 9 -9 28 -16
42 -16 33 0 33 -13 1 -28 -24 -11 -30 -25 -25 -65 1 -16 -4 -17 -34 -11 l-36
6 15 -28 c8 -16 15 -41 15 -56 0 -14 5 -28 12 -30 16 -6 1 -58 -16 -58 -7 0
-19 14 -26 30 -14 33 -40 41 -40 11 0 -19 -23 -45 -32 -35 -3 3 -8 -9 -10 -26
-3 -16 -1 -30 3 -30 5 0 6 -7 2 -16 -5 -13 6 -15 88 -11 137 6 134 4 136 70 2
48 -1 57 -18 62 -23 8 -25 23 -4 31 8 4 15 10 15 15 0 4 -7 6 -15 3 -8 -4 -22
-3 -30 0 -13 5 -14 10 -5 26 6 12 19 24 28 28 9 3 23 12 30 19 8 7 18 10 24 7
7 -4 5 -10 -5 -16 -9 -5 -14 -15 -10 -24 4 -12 17 -14 59 -9 43 5 54 3 54 -9
0 -8 9 -18 20 -21 11 -3 20 -13 20 -21 0 -8 4 -14 9 -14 5 0 5 15 -1 34 -14
43 -4 70 22 63 10 -3 25 2 31 9 8 10 22 13 41 9 21 -5 28 -3 28 8 0 9 6 18 13
20 6 3 -3 6 -21 6 -43 1 -32 21 12 21 18 0 46 4 62 10 16 5 60 14 98 19 37 6
70 11 72 13 7 7 -17 78 -26 78 -6 0 -15 -9 -22 -20 -9 -13 -24 -20 -45 -20
-23 0 -33 -5 -33 -15 0 -20 -29 -19 -37 1 -3 9 -1 25 5 35 16 25 16 26 -14 32
-18 3 -24 1 -20 -9 3 -7 0 -16 -7 -20 -7 -4 -9 -4 -5 0 9 10 -28 46 -47 46 -8
0 -16 -3 -16 -7z"/>
<path d="M11460 5252 c0 -21 7 -30 30 -40 40 -18 40 -50 1 -63 -32 -11 -39
-26 -37 -79 1 -35 1 -35 54 -38 28 -2 52 -7 52 -13 0 -11 11 -11 29 0 13 8 13
12 1 26 -12 15 -12 19 5 31 25 19 45 18 60 -3 16 -22 8 -43 -16 -43 -10 0 -19
-6 -19 -13 0 -8 -21 -29 -47 -48 -63 -44 -71 -51 -91 -71 -10 -11 -31 -18 -54
-18 -43 0 -50 -15 -15 -31 18 -8 22 -17 19 -42 -2 -18 1 -43 7 -57 9 -21 10
-16 8 30 l-2 55 56 8 c60 9 60 9 116 115 23 43 53 42 123 -5 80 -54 173 -132
187 -157 11 -19 12 -18 7 12 -5 26 -3 32 12 32 13 0 15 -3 7 -11 -11 -11 12
-66 42 -99 8 -9 12 -20 8 -23 -3 -4 -1 -7 5 -7 7 0 12 -7 12 -15 0 -8 9 -15
20 -15 11 0 20 -5 20 -10 0 -6 12 -15 26 -20 14 -6 28 -19 31 -30 3 -11 14
-20 24 -20 11 0 19 -4 19 -10 0 -5 -6 -10 -14 -10 -8 0 -17 -6 -19 -12 -4 -9
-8 -10 -14 -2 -4 6 -20 14 -35 18 -23 5 -27 3 -22 -11 5 -17 5 -17 -8 -1 -14
17 -68 14 -68 -4 0 -5 4 -7 9 -4 5 4 7 -3 4 -15 -6 -20 -3 -21 43 -16 91 10
201 40 213 58 9 16 8 17 -20 7 -22 -8 -34 -7 -42 1 -8 8 -7 11 4 11 7 0 24 16
37 35 12 19 17 35 11 35 -8 0 -8 5 1 15 20 25 4 29 -21 6 -25 -23 -35 -26 -44
-12 -3 5 4 16 15 24 21 14 21 15 -7 25 -37 14 -68 40 -60 49 4 4 28 -3 53 -16
26 -12 49 -19 53 -15 3 4 1 8 -5 11 -35 12 -138 81 -146 98 -14 27 -49 55 -70
55 -9 0 -26 14 -38 30 -12 17 -27 30 -34 30 -8 0 -19 7 -26 15 -7 8 -19 15
-28 15 -18 0 -152 88 -152 100 0 10 -153 170 -162 170 -15 0 7 -37 45 -77 23
-24 36 -43 30 -43 -7 0 -14 4 -17 9 -3 5 -26 18 -50 30 -25 11 -57 36 -71 56
-33 42 -45 44 -45 7z"/>
<path d="M9384 5222 c-22 -14 -36 -53 -25 -66 6 -8 8 -21 5 -30 -4 -9 1 -24 9
-34 10 -11 13 -22 7 -31 -7 -12 -12 -12 -34 2 -24 16 -32 16 -128 -4 -57 -11
-116 -21 -131 -21 -16 -1 -25 -6 -22 -12 3 -6 8 -19 11 -28 8 -23 26 -24 22
-2 -5 30 17 24 39 -10 l22 -34 -37 -29 c-20 -15 -44 -28 -52 -28 -22 -1 -14
-56 12 -78 19 -16 19 -19 5 -30 -12 -9 -14 -21 -7 -52 7 -35 9 -37 15 -17 4
13 13 21 20 18 7 -2 34 2 60 10 26 7 51 12 55 9 5 -3 8 -45 8 -94 0 -108 6
-131 36 -131 30 0 39 10 24 27 -14 17 4 33 39 33 22 0 27 8 38 73 4 23 2 37
-5 37 -5 0 -10 -6 -10 -14 0 -19 -27 -28 -33 -12 -12 31 20 91 66 123 l46 31
-22 28 c-12 16 -20 30 -17 31 10 5 -45 65 -67 74 -25 9 -30 31 -10 47 6 5 46
13 87 17 108 10 150 23 150 49 0 28 15 50 29 42 6 -4 11 -1 11 8 0 8 6 17 13
19 7 3 5 6 -5 6 -9 1 -32 -8 -50 -19 -31 -18 -36 -18 -62 -5 -21 11 -32 12
-42 5 -9 -9 -13 -6 -16 12 -2 15 -13 25 -35 32 -29 8 -46 26 -25 26 5 0 17 7
28 15 14 11 15 14 4 15 -8 0 -20 -4 -26 -8z"/>
<path d="M8820 5190 c0 -5 14 -10 30 -10 26 0 30 -4 30 -26 0 -14 -4 -23 -9
-19 -6 3 -29 1 -53 -4 -40 -9 -68 -32 -68 -55 0 -6 10 1 21 17 27 35 59 36 59
2 0 -33 35 -68 61 -60 10 4 32 0 49 -8 27 -14 30 -14 35 3 6 20 -10 71 -22 68
-10 -2 -63 20 -63 26 0 3 6 11 14 19 24 23 -6 57 -50 57 -19 0 -34 -4 -34 -10z"/>
<path d="M10028 5068 c-24 -8 -28 -15 -28 -47 0 -25 -7 -44 -20 -56 -11 -10
-20 -27 -20 -38 0 -15 -5 -18 -24 -15 -17 3 -23 0 -22 -11 0 -9 -6 -16 -14
-16 -8 0 -14 8 -14 18 1 9 -4 17 -12 17 -8 0 -14 10 -14 23 -1 21 -1 21 -12 2
-19 -33 -38 -47 -54 -41 -10 4 -18 -3 -26 -24 -6 -19 -17 -30 -29 -30 -16 0
-18 5 -14 30 3 18 1 30 -5 30 -12 0 -22 -21 -25 -53 -1 -12 -3 -26 -4 -30 0
-4 -11 -12 -23 -17 l-23 -9 23 0 c21 -1 33 -21 11 -21 -5 0 -8 -3 -6 -7 3 -5
-1 -13 -8 -20 -10 -10 -14 -9 -19 2 -3 8 0 15 7 15 7 0 6 4 -3 10 -11 7 -17 5
-21 -8 -9 -26 14 -43 48 -33 15 5 48 14 72 21 28 7 40 15 32 20 -21 12 -9 55
17 58 12 2 22 10 22 18 0 23 28 16 46 -11 13 -20 24 -25 59 -25 30 0 45 5 49
16 5 13 15 15 44 11 l37 -6 -42 21 c-44 21 -47 26 -37 66 9 32 51 30 66 -3 14
-30 45 -30 40 0 -2 11 -9 23 -14 26 -9 6 -8 75 3 108 5 18 -10 22 -43 9z"/>
<path d="M7859 5016 c-52 -10 -56 -13 -55 -38 1 -16 -2 -28 -6 -28 -4 0 -8 -4
-8 -10 0 -16 38 -12 48 6 10 19 62 9 62 -12 0 -10 11 -12 48 -7 74 10 86 17
88 49 1 28 -1 29 -32 26 -24 -3 -36 0 -40 12 -7 18 -24 18 -105 2z"/>
<path d="M10357 5013 c-11 -3 -16 -11 -12 -22 4 -12 -3 -19 -27 -26 -43 -13
-47 -34 -9 -41 42 -9 55 -27 44 -61 -8 -22 -16 -28 -39 -28 -20 0 -30 -6 -32
-19 -3 -11 0 -16 7 -12 15 10 14 -7 -1 -22 -18 -18 -56 -15 -61 6 -3 9 -5 4
-6 -13 -1 -25 -8 -33 -41 -49 -24 -12 -39 -25 -36 -32 3 -7 -3 -16 -13 -19
-18 -5 -31 -43 -31 -91 0 -17 8 -28 26 -34 14 -6 29 -8 34 -5 4 3 13 -2 20
-10 11 -13 10 -18 -6 -30 -10 -8 -15 -15 -10 -15 5 0 3 -7 -4 -15 -17 -21 -4
-19 19 3 10 9 34 29 54 45 21 16 34 33 31 41 -3 7 2 37 12 65 16 51 16 52 -5
72 -11 11 -21 23 -21 27 1 19 19 31 45 29 21 -1 30 3 34 18 9 29 40 72 57 79
22 8 41 -14 36 -43 -2 -14 4 -35 12 -46 l15 -20 1 20 c1 11 2 35 3 53 1 19 -3
32 -10 32 -21 0 -27 23 -10 35 10 7 17 16 17 20 0 8 -69 116 -73 114 -1 -1
-10 -3 -20 -6z"/>
<path d="M7596 4986 c-60 -14 -70 -32 -22 -41 41 -8 49 -25 36 -80 -13 -56
-13 -58 11 -41 12 8 28 12 35 9 11 -4 14 5 14 37 0 33 4 43 20 47 11 3 20 10
20 15 0 5 5 6 12 2 7 -5 8 -3 3 6 -4 7 -2 16 6 21 11 7 10 9 -5 9 -12 0 -16 5
-12 15 7 18 -43 19 -118 1z"/>
<path d="M7345 4920 c-22 -23 -38 -30 -67 -30 -32 0 -40 4 -48 25 -5 14 -12
25 -14 25 -12 0 -61 -59 -58 -69 2 -7 -4 -15 -15 -17 -23 -6 -47 -41 -33 -49
5 -3 11 -1 15 5 12 19 38 11 32 -9 -4 -18 0 -19 52 -18 31 1 104 -5 163 -13
59 -7 109 -12 111 -9 3 2 7 30 10 62 5 52 4 57 -12 52 -9 -3 -41 6 -70 20 -44
22 -51 28 -41 40 22 26 5 16 -25 -15z"/>
<path d="M8325 4903 c-44 -9 -111 -23 -150 -32 l-70 -16 3 -52 c2 -47 0 -53
-17 -53 -15 0 -20 9 -26 48 l-6 47 -55 -3 c-30 -2 -54 -6 -54 -9 0 -3 9 -21
21 -39 11 -19 18 -38 15 -43 -3 -5 3 -7 15 -4 15 4 28 -4 49 -28 15 -19 26
-38 23 -42 -10 -17 7 -56 22 -51 23 9 30 -24 10 -46 -18 -20 -18 -20 13 -14
31 6 32 5 32 -25 0 -28 -3 -31 -20 -26 -18 6 -20 2 -20 -40 0 -25 -5 -55 -10
-66 -9 -15 -7 -19 6 -19 13 0 14 -3 4 -15 -11 -13 -7 -15 24 -15 23 0 39 -5
42 -15 4 -8 12 -15 20 -15 7 0 19 -10 25 -22 l12 -23 13 30 c7 17 16 55 19 85
9 67 24 93 64 110 48 19 36 50 -20 50 -20 0 -26 24 -9 35 20 12 9 32 -30 57
-22 15 -48 29 -59 33 -10 3 -21 13 -24 23 -3 9 -8 24 -12 34 -5 13 2 17 34 23
23 4 43 10 46 14 2 5 23 7 45 5 46 -3 53 4 52 57 -1 33 2 39 21 40 34 2 62 -2
65 -9 11 -29 19 -33 45 -21 33 15 35 29 4 29 -12 0 -30 9 -40 20 -19 23 -15
23 -122 3z"/>
<path d="M7460 4733 c-8 -3 -34 -15 -57 -26 -47 -22 -58 -55 -23 -64 23 -6 26
-31 6 -47 -16 -13 -30 -76 -16 -76 5 0 12 5 15 10 5 8 11 7 21 -1 16 -13 48
-4 39 12 -4 5 1 16 10 23 13 9 17 31 19 94 2 45 3 82 2 81 -1 0 -8 -3 -16 -6z"/>
<path d="M8469 4733 c-15 -2 -39 -17 -55 -34 -26 -27 -26 -29 -7 -29 11 0 36
-17 55 -38 19 -21 42 -42 51 -45 21 -8 22 -21 2 -37 -8 -7 -15 -18 -15 -25 0
-19 50 -6 87 21 35 26 35 43 0 79 -10 11 -32 41 -48 68 -16 26 -32 46 -36 46
-5 -1 -20 -4 -34 -6z"/>
<path d="M9740 4675 c0 -18 22 -55 33 -55 8 0 21 -8 30 -18 14 -15 34 -17 143
-17 100 0 128 3 132 14 3 9 0 11 -8 6 -6 -4 -30 1 -52 11 -39 17 -39 18 -16
30 l23 12 -25 6 c-32 6 -260 17 -260 11z"/>
<path d="M11108 4587 c-17 -15 -29 -40 -36 -77 -15 -70 -10 -96 14 -93 28 3
74 -17 74 -33 0 -20 -33 -34 -100 -41 -33 -3 -60 -9 -60 -14 0 -4 -8 -10 -17
-13 -15 -4 -14 -5 2 -4 36 1 85 -23 85 -42 0 -23 -31 -34 -87 -31 -23 0 -44
-2 -46 -7 -3 -4 19 -18 49 -31 30 -14 54 -31 54 -39 0 -11 7 -12 28 -7 15 4
56 8 92 9 77 1 78 3 79 105 1 52 6 80 16 92 21 22 10 65 -18 73 -12 3 -34 6
-49 6 -16 0 -28 4 -28 10 0 13 52 60 67 60 16 0 16 2 3 34 -6 16 -17 26 -29
26 -11 0 -23 4 -26 10 -16 26 -41 29 -67 7z"/>
<path d="M5685 5438 c-41 -15 -97 -57 -89 -69 3 -5 0 -17 -7 -25 -18 -22 -3
-29 38 -16 56 18 98 19 96 5 -2 -8 9 -13 30 -13 17 0 47 -4 65 -9 30 -9 34 -8
42 15 15 39 12 69 -11 98 -22 28 -59 35 -59 12 0 -8 -6 -16 -12 -19 -18 -6
-50 12 -43 24 8 11 -11 10 -50 -3z"/>
<path d="M4942 5273 c-49 -69 -69 -177 -38 -203 8 -6 12 -18 9 -26 -3 -8 1
-14 10 -14 29 0 37 -32 16 -62 -19 -27 -19 -28 -1 -46 24 -24 60 -10 64 26 3
25 4 25 20 8 10 -9 22 -15 26 -12 14 8 13 77 -2 105 -17 33 -36 133 -36 193 0
33 -5 48 -16 52 -26 10 -32 7 -52 -21z"/>
<path d="M5457 4132 c-15 -32 -27 -66 -27 -75 0 -9 -5 -17 -11 -17 -7 0 -9
-10 -6 -26 2 -14 -1 -31 -7 -37 -7 -7 -15 -20 -19 -29 -7 -21 20 -95 46 -125
33 -37 47 -14 47 78 0 66 3 82 20 99 11 11 20 26 20 33 1 19 25 47 41 47 28 0
59 31 59 59 0 34 -31 51 -93 51 -41 0 -42 -1 -70 -58z"/>
</g>
</svg>
