<?xml version="1.0" standalone="no"?>
<!DOCTYPE svg PUBLIC "-//W3C//DTD SVG 20010904//EN"
 "http://www.w3.org/TR/2001/REC-SVG-20010904/DTD/svg10.dtd">
<svg version="1.0" xmlns="http://www.w3.org/2000/svg"
 width="1600.000000pt" height="1200.000000pt" viewBox="0 0 1600.000000 1200.000000"
 preserveAspectRatio="xMidYMid meet">
<metadata>
Created by potrace 1.16, written by Peter Selinger 2001-2019
</metadata>
<g transform="translate(0.000000,1200.000000) scale(0.100000,-0.100000)"
fill="#000000" stroke="none">
<path d="M0 6000 l0 -6000 8000 0 8000 0 0 6000 0 6000 -660 0 c-363 0 -660
-3 -660 -6 0 -3 21 -14 48 -26 26 -11 54 -26 62 -34 15 -13 19 -14 45 -14 22
0 6 -28 -18 -32 -17 -2 -23 -11 -25 -35 -2 -19 -9 -33 -16 -33 -14 0 -52 -50
-39 -50 19 -1 -24 -20 -44 -20 -15 0 -23 -7 -25 -22 -2 -19 -10 -24 -40 -26
-37 -3 -48 -18 -29 -38 5 -5 11 -28 14 -51 4 -41 -6 -63 -29 -63 -7 0 -30 -18
-52 -39 -31 -31 -40 -47 -40 -75 0 -42 -8 -56 -31 -56 -19 0 -31 -26 -31 -68
0 -15 -7 -26 -20 -29 -11 -3 -20 -13 -20 -23 0 -15 -6 -16 -37 -10 -96 20
-387 122 -413 145 -8 8 -27 16 -42 20 -26 7 -27 9 -21 53 4 32 14 53 30 66 21
16 22 20 10 35 -33 38 -30 111 4 111 23 0 24 9 4 46 -14 26 -13 29 2 33 10 2
19 -2 21 -8 5 -15 72 -14 72 1 0 7 7 2 16 -10 18 -26 37 -28 59 -6 11 12 13
20 6 27 -14 14 -101 47 -123 47 -10 0 -18 6 -18 13 0 29 -43 52 -92 49 -27 -2
-48 1 -48 6 0 5 -14 15 -30 22 -16 7 -30 16 -30 21 0 5 -12 4 -26 -1 -14 -6
-30 -8 -34 -5 -5 3 -13 -2 -18 -12 -8 -13 -3 -23 20 -45 17 -15 36 -28 44 -28
8 0 14 -7 14 -15 0 -10 -10 -15 -29 -15 -39 0 -61 -9 -61 -26 0 -8 -6 -14 -13
-14 -7 0 -17 -10 -22 -22 -8 -18 -23 -25 -62 -32 -29 -5 -53 -13 -53 -18 0 -4
-13 -8 -30 -8 -23 0 -30 -4 -30 -20 0 -12 -7 -20 -18 -20 -10 0 -28 -7 -41
-17 -15 -10 -52 -18 -96 -21 -71 -4 -72 -4 -93 26 -12 16 -42 42 -67 56 -33
20 -45 33 -45 51 0 13 -5 27 -10 30 -6 4 -8 21 -4 39 4 23 1 38 -10 49 -9 8
-16 27 -16 41 0 16 -7 27 -20 31 -11 4 -20 15 -20 26 0 24 -22 49 -44 49 -19
0 -21 -16 -3 -23 6 -3 -2 -6 -18 -6 -18 -1 -35 -9 -42 -20 -7 -11 -34 -32 -60
-47 -45 -26 -111 -74 -141 -102 -20 -18 -53 -34 -59 -29 -4 5 39 48 177 176
l55 51 -472 -1 c-404 0 -473 -2 -473 -15 0 -8 -4 -14 -10 -14 -5 0 -10 7 -10
15 0 13 -669 15 -5960 15 l-5960 0 0 -6000z m11840 5610 c93 -17 261 -68 510
-155 111 -39 108 -37 87 -42 -10 -3 -32 1 -48 7 -17 7 -46 10 -69 6 -28 -4
-41 -2 -47 8 -10 18 -68 42 -123 51 l-44 7 17 -25 c19 -30 22 -52 7 -70 -5 -7
-22 -27 -37 -46 l-28 -34 42 5 c22 3 50 15 62 27 22 22 30 25 55 15 12 -4 16
-20 17 -58 0 -63 15 -144 19 -106 2 14 6 -2 11 -35 4 -33 13 -87 19 -120 15
-80 28 -267 20 -283 -10 -21 1 -62 16 -62 8 0 14 -10 14 -25 0 -14 -4 -25 -10
-25 -15 0 -12 -27 3 -33 8 -3 14 -20 15 -38 0 -19 6 -35 11 -37 14 -5 14 -45
0 -59 -9 -9 -7 -29 6 -80 17 -67 37 -249 34 -308 -4 -67 -2 -103 8 -157 l10
-58 -29 0 c-21 0 -28 -5 -28 -20 0 -11 -6 -23 -14 -26 -9 -3 -13 -19 -12 -45
1 -36 -1 -39 -29 -45 -16 -3 -86 -4 -154 -2 -133 3 -141 7 -150 71 0 4 -8 21
-17 38 -8 17 -17 54 -19 83 -4 67 -3 66 -16 66 -29 0 -57 50 -64 112 -3 35
-13 90 -21 123 -8 35 -13 104 -12 165 0 58 -2 121 -5 140 -18 97 -35 285 -32
345 2 53 11 82 32 103 7 7 13 23 13 36 0 12 9 39 20 61 11 22 20 40 20 41 0 1
-26 -1 -58 -3 l-59 -5 1 78 c1 86 -8 219 -19 302 -6 41 -12 52 -26 52 -12 0
-21 10 -25 28 -4 15 -11 32 -16 39 -11 14 49 11 142 -7z m1120 -365 c30 -10
60 -20 65 -24 6 -3 12 -6 15 -6 39 -5 265 -92 302 -117 14 -10 34 -19 45 -19
16 -1 16 -2 1 -6 -10 -2 -18 -12 -19 -21 0 -14 -2 -13 -9 3 -8 18 -9 18 -9 -5
-1 -20 -6 -26 -23 -26 -23 0 -90 58 -101 89 -3 9 -12 17 -19 17 -26 0 -88 21
-101 34 -7 8 -50 26 -95 41 -45 15 -82 31 -82 37 0 5 -5 6 -11 2 -12 -7 -119
44 -119 57 0 5 24 -2 53 -15 29 -12 77 -31 107 -41z m480 -195 c0 -6 11 -8 28
-4 26 6 26 6 7 -9 -19 -16 -19 -16 12 -23 17 -3 34 -12 37 -20 3 -8 16 -14 28
-13 23 0 41 -3 68 -14 8 -3 24 -7 35 -9 11 -2 22 -5 25 -8 3 -3 66 -30 140
-59 197 -79 285 -122 269 -132 -11 -7 -9 -9 5 -9 29 0 3 -24 -26 -25 -13 0
-27 -10 -34 -23 -6 -13 -16 -28 -21 -33 -9 -9 -86 1 -128 17 -18 7 -18 6 -7
-9 8 -9 11 -21 7 -27 -8 -13 -45 -13 -45 0 0 6 -5 10 -10 10 -6 0 -8 -16 -4
-41 l7 -41 -84 6 c-46 3 -91 6 -99 7 -8 1 -32 -1 -52 -6 -30 -6 -38 -4 -38 7
0 8 -9 23 -20 33 -11 10 -19 25 -18 34 2 10 -6 17 -20 19 -38 6 -59 82 -22 82
16 0 20 7 20 34 0 26 -5 36 -20 41 -20 6 -29 45 -10 45 6 0 10 14 10 30 0 36
4 37 33 9 19 -17 22 -18 25 -4 5 21 -18 47 -35 41 -21 -8 -43 4 -43 25 0 10
-4 19 -10 19 -5 0 -10 6 -10 14 0 8 -7 17 -16 20 -8 3 -12 10 -9 16 8 13 25
13 25 0z m-6528 -142 c10 -28 -5 -58 -31 -64 -14 -4 -35 -12 -46 -18 -21 -11
-166 -34 -183 -28 -14 4 15 60 39 72 11 6 50 8 98 4 l80 -7 7 27 c6 27 29 36
36 14z m6357 -48 c6 0 11 -4 11 -10 0 -5 6 -10 13 -10 26 -1 50 -52 55 -121 4
-66 6 -69 41 -90 20 -12 31 -24 25 -26 -7 -2 -26 5 -44 16 -47 28 -69 16 -32
-18 16 -14 39 -44 50 -66 11 -22 30 -48 42 -58 14 -12 20 -26 17 -38 -3 -10
-2 -19 2 -19 3 0 7 -19 7 -42 0 -30 -6 -47 -18 -56 -23 -17 -25 -94 -3 -116
19 -18 20 -56 1 -56 -10 0 -14 -12 -13 -42 1 -24 4 -45 7 -48 14 -14 30 -65
30 -98 0 -21 4 -42 9 -47 5 -6 14 -26 19 -46 8 -32 7 -40 -15 -68 -14 -17 -28
-29 -33 -26 -5 3 -11 -4 -15 -15 -11 -33 -68 -43 -211 -35 -71 3 -169 8 -217
10 -99 4 -131 15 -46 15 l54 1 -35 13 c-95 36 -91 33 -88 77 1 25 10 49 23 63
20 21 21 32 17 102 -3 54 0 90 10 114 14 37 13 80 -3 80 -5 0 -9 9 -9 20 0 11
5 20 10 20 6 0 10 27 10 60 0 33 4 60 10 60 6 0 10 -4 10 -10 0 -5 5 -10 10
-10 6 0 10 22 10 48 0 36 5 51 20 62 15 11 20 26 20 62 0 30 -4 48 -12 48 -6
0 -2 10 10 23 12 13 22 31 22 40 0 9 5 17 10 17 6 0 10 14 10 30 0 23 4 30 20
30 13 0 20 7 20 19 0 31 19 35 50 12 28 -20 29 -20 27 -1 -1 12 -8 20 -18 20
-18 0 -35 33 -25 49 4 5 0 11 -6 14 -19 7 5 42 27 40 17 -1 29 6 58 33 9 9 16
7 28 -7 9 -11 21 -19 28 -19z m-901 -1257 c13 -3 19 -9 14 -12 -6 -3 -12 -13
-14 -21 -4 -17 -98 -160 -106 -160 -9 0 -50 48 -87 102 -19 29 -43 63 -52 76
l-15 22 118 0 c66 0 130 -3 142 -7z m-258 -30 c65 -77 130 -168 130 -183 0
-25 -38 -70 -60 -70 -12 0 -32 22 -56 63 -21 34 -49 77 -61 96 l-23 34 22 38
c25 44 28 46 48 22z m1410 2 c13 -4 20 -15 20 -31 0 -19 5 -24 25 -24 34 0 31
-15 -5 -32 -17 -7 -33 -22 -36 -33 -4 -17 -11 -20 -41 -17 -51 6 -103 55 -103
97 0 17 2 34 5 37 8 7 114 10 135 3z m-1121 -165 l2 -120 -25 0 c-24 0 -96 72
-96 97 0 14 104 143 116 143 1 0 3 -54 3 -120z m914 -55 c10 -10 16 -24 13
-31 -3 -8 0 -13 6 -11 7 1 14 -6 16 -15 3 -16 -4 -18 -51 -17 -30 1 -60 -1
-66 -5 -6 -4 -25 -4 -44 -1 -31 6 -32 8 -29 46 4 43 19 59 34 38 7 -10 8 -8 3
8 -4 13 2 38 16 64 l21 42 32 -50 c17 -27 40 -58 49 -68z m-5388 -25 c216 -15
275 -22 275 -31 0 -5 -73 -9 -162 -9 -90 0 -170 -5 -178 -10 -12 -8 -10 -10
10 -10 14 0 63 -3 109 -7 55 -4 85 -2 90 5 4 7 16 7 36 -3 17 -7 44 -17 60
-21 27 -7 25 -8 -25 -14 -30 -4 -63 -3 -73 2 -13 7 -194 6 -224 -1 -10 -3 1
-31 17 -46 11 -10 20 -29 20 -42 0 -16 -6 -23 -20 -23 -11 0 -20 6 -20 13 0
15 -66 47 -96 47 -16 0 -17 2 -4 11 12 9 11 10 -8 6 -14 -3 -20 -1 -15 5 4 8
-6 9 -29 5 -20 -3 -40 -2 -44 3 -5 4 -39 10 -75 14 -66 6 -67 6 -109 -29 -47
-39 -58 -42 -67 -19 -6 17 25 94 39 94 4 0 8 16 8 35 l0 35 173 0 c94 0 235
-5 312 -10z m4443 -174 c28 -4 52 -12 52 -17 0 -5 -5 -9 -11 -9 -5 0 -7 -4 -4
-10 7 -11 -7 -41 -29 -63 -8 -7 -30 -39 -50 -70 -33 -52 -35 -60 -31 -118 6
-72 -26 -205 -54 -226 -14 -10 -14 -12 4 -18 11 -4 27 -11 35 -16 50 -32 111
-53 152 -54 40 0 47 -3 48 -20 0 -11 5 -60 10 -110 6 -49 12 -164 14 -255 6
-268 16 -477 31 -600 8 -63 19 -176 25 -250 12 -135 25 -239 56 -445 12 -79
21 -114 34 -125 16 -13 17 -21 7 -72 -10 -58 -10 -64 25 -178 6 -19 16 -41 22
-49 6 -8 11 -42 12 -77 1 -60 -1 -66 -34 -98 -43 -44 -80 -52 -135 -31 -65 25
-80 76 -61 210 4 28 6 68 5 90 -4 54 -3 74 3 115 5 33 5 33 -3 5 -8 -29 -9
-28 -10 13 0 23 -7 53 -15 65 -10 16 -16 75 -21 202 -4 98 -12 193 -17 210 -5
16 -17 84 -28 150 -24 151 -41 226 -68 293 -15 35 -18 52 -10 52 9 0 9 3 0 12
-7 7 -12 35 -12 63 0 60 -27 124 -65 153 -14 12 -24 26 -20 32 10 17 -20 22
-62 11 -41 -11 -40 -9 -34 -83 1 -19 31 -26 31 -8 0 6 7 10 16 10 28 0 11 -35
-19 -38 -19 -2 -27 -9 -27 -23 0 -10 7 -19 15 -19 8 0 15 -9 15 -20 0 -11 7
-20 15 -20 11 0 15 -11 15 -40 0 -36 -2 -40 -25 -40 -18 0 -25 5 -25 20 0 15
-7 20 -25 20 -15 0 -28 7 -32 18 -9 24 -23 31 -58 33 -29 1 -30 1 -5 9 18 6
20 8 7 9 -29 2 -117 -40 -117 -56 0 -7 -6 -16 -13 -19 -8 -3 -20 -20 -27 -39
-8 -20 -21 -35 -30 -35 -9 0 -31 -11 -50 -25 -19 -14 -40 -25 -47 -25 -7 0
-13 -6 -14 -12 0 -10 -2 -10 -6 0 -4 10 -9 9 -20 -5 -11 -13 -16 -15 -20 -5
-6 16 -33 -3 -33 -24 0 -7 -10 -14 -22 -16 -20 -3 -23 -10 -26 -50 -2 -34 -7
-48 -18 -48 -11 0 -14 -19 -14 -92 0 -64 -3 -88 -10 -78 -6 10 -10 11 -10 3 0
-7 -7 -13 -15 -13 -8 0 -15 5 -15 11 0 6 -8 8 -17 5 -10 -3 -25 -1 -33 4 -10
6 -11 10 -2 10 18 0 15 37 -4 44 -27 10 -44 7 -51 -11 -4 -10 -13 -23 -21 -29
-17 -13 -25 -64 -11 -64 6 0 -3 -12 -20 -26 -39 -33 -39 -40 3 -48 31 -6 34
-10 40 -53 3 -25 6 -65 6 -88 0 -26 6 -48 15 -55 9 -7 14 -19 11 -26 -3 -7 0
-26 7 -43 9 -24 9 -36 -1 -51 -6 -11 -12 -27 -12 -35 0 -8 -3 -14 -7 -13 -25
5 -43 -17 -43 -52 0 -21 -7 -43 -15 -50 -17 -14 -20 -91 -5 -121 6 -10 17 -19
25 -19 8 0 23 -17 34 -37 10 -21 31 -49 45 -62 16 -15 26 -35 26 -52 0 -15 5
-40 11 -56 16 -42 24 -245 10 -271 -6 -11 -8 -28 -4 -37 5 -16 7 -16 15 -1 5
9 19 16 31 16 l21 0 -21 -15 c-22 -16 -22 -42 1 -57 12 -8 55 0 72 13 5 4 23
2 38 -6 16 -8 39 -15 52 -15 34 0 58 -50 50 -104 -13 -93 -13 -100 9 -121 12
-11 28 -38 36 -60 11 -29 20 -39 33 -37 11 2 32 -12 52 -34 36 -39 43 -57 19
-48 -12 5 -15 -2 -15 -32 0 -22 -7 -52 -15 -68 -8 -15 -15 -36 -16 -45 -2 -34
-28 47 -34 107 -9 79 -22 92 -89 92 -67 0 -163 48 -172 87 -6 22 -11 24 -38
19 -17 -3 -60 -21 -96 -39 -58 -28 -71 -41 -120 -114 -30 -45 -62 -88 -71 -95
-33 -26 -77 -98 -72 -118 6 -24 7 -24 41 -6 17 8 35 10 47 5 35 -14 72 -10 99
12 31 25 43 20 26 -11 -6 -11 -10 -33 -8 -48 4 -35 47 -45 148 -35 110 11 112
11 149 -4 28 -11 42 -11 90 3 96 27 171 58 171 72 0 6 5 12 11 12 7 0 10 37 9
113 -3 146 -2 153 10 141 5 -5 12 -37 15 -69 10 -121 16 -145 36 -145 11 0 22
-6 25 -14 4 -12 24 -7 102 21 53 19 107 37 120 40 12 3 25 9 28 14 3 5 14 9
24 9 11 0 24 10 31 22 10 19 12 19 21 5 13 -23 26 -21 30 5 5 32 28 35 28 4 0
-14 5 -26 10 -26 6 0 10 7 10 15 0 9 9 15 23 15 13 0 28 5 33 10 7 7 17 5 30
-4 27 -21 7 -51 -33 -51 -17 -1 -42 -9 -57 -19 -24 -15 -32 -16 -57 -6 -19 8
-34 9 -42 3 -6 -5 -32 -15 -57 -22 -25 -7 -63 -21 -85 -31 -22 -10 -61 -25
-87 -35 -42 -15 -48 -20 -48 -45 0 -27 -12 -40 -45 -52 -6 -2 -10 -51 -11
-118 -1 -140 -1 -143 -14 -135 -6 4 -8 10 -6 14 3 4 1 34 -5 67 -5 32 -11 90
-14 128 -3 38 -8 73 -11 78 -10 15 -21 8 -20 -14 1 -24 -40 -42 -61 -25 -12 8
-154 -42 -176 -63 -14 -13 1 -46 28 -60 40 -21 30 -37 -25 -42 -38 -4 -58 -12
-81 -34 l-30 -29 97 -12 c92 -11 113 -17 103 -28 -3 -2 -41 -6 -86 -7 -62 -2
-86 2 -106 15 -24 15 -30 15 -59 3 -18 -8 -45 -17 -60 -20 -15 -4 -30 -15 -33
-26 -3 -11 -14 -20 -24 -20 -14 0 -17 6 -13 30 2 16 0 30 -6 30 -15 0 -64 107
-66 143 -1 26 3 33 22 35 13 2 31 -3 40 -11 9 -8 24 -18 32 -22 22 -13 -29 37
-73 70 -55 41 -62 28 -62 -112 0 -83 -4 -118 -13 -121 -14 -4 -16 -58 -2 -67
6 -3 10 -17 10 -30 0 -13 -4 -27 -10 -30 -5 -3 -10 -25 -10 -48 0 -39 -19 -82
-44 -99 -6 -4 -27 -8 -46 -8 -35 0 -35 0 -10 13 20 10 26 21 28 59 6 88 5 88
-179 87 -89 -1 -173 -5 -187 -9 -24 -8 -23 -8 13 -9 42 -1 89 -21 51 -21 -27
0 -8 -17 24 -22 17 -2 25 -9 25 -23 0 -19 -7 -20 -105 -20 -75 0 -107 -4 -113
-13 -6 -8 -21 -11 -45 -7 l-37 5 33 -10 c38 -13 44 -40 7 -40 -19 0 -25 -5
-25 -21 0 -27 -24 -19 -28 9 -7 46 -28 19 -44 -56 -13 -55 -18 -129 -20 -257
-3 -324 -4 -310 20 -313 12 -2 22 -7 22 -12 0 -15 -44 -19 -120 -9 -42 5 -130
8 -196 7 l-119 -3 -8 170 c-4 93 -10 171 -12 173 -2 2 -52 6 -112 9 -105 6
-170 23 -158 43 4 6 -10 10 -32 9 -30 0 -34 -2 -18 -9 18 -8 18 -9 2 -9 -10
-1 -16 -5 -12 -10 9 -16 -59 -24 -130 -16 -57 6 -65 9 -65 28 0 20 -1 20 -27
-5 -24 -23 -34 -26 -75 -21 l-46 5 -7 59 c-4 33 -11 61 -16 64 -4 3 -83 10
-175 16 -174 10 -226 21 -160 33 27 5 36 12 36 26 0 11 -6 20 -12 21 -105 7
-133 11 -148 19 -32 17 -67 12 -73 -10 -4 -15 -14 -20 -41 -20 -25 0 -36 -5
-36 -15 0 -14 -56 -35 -92 -35 -10 0 -18 -5 -18 -11 0 -5 -4 -7 -10 -4 -11 7
-13 57 -4 104 7 34 24 42 24 11 0 -11 5 -20 10 -20 6 0 10 9 10 20 0 13 7 20
20 20 18 0 20 7 20 54 l0 55 -40 -2 c-22 -1 -40 -5 -40 -10 0 -5 -6 -4 -14 2
-10 9 -14 39 -15 109 -1 53 -5 122 -9 153 -5 31 -5 65 -1 75 8 22 3 34 -14 34
-14 0 -39 -58 -31 -71 30 -50 17 -250 -19 -281 -11 -10 -25 -18 -31 -17 -6 0
-6 3 2 6 17 7 15 23 -3 23 -19 0 -20 50 -2 69 7 8 12 45 13 104 1 51 2 111 2
133 1 23 -3 57 -9 75 -5 19 -12 79 -15 134 -9 163 -26 202 -109 250 -31 19
-51 24 -70 19 -20 -5 -23 -9 -13 -15 9 -6 6 -9 -12 -10 -17 -1 -19 -3 -7 -6
18 -5 23 -28 8 -37 -5 -3 -21 -45 -35 -93 -35 -113 -43 -133 -56 -133 -5 0
-10 15 -10 33 -1 27 -2 29 -11 14 -6 -9 -7 -26 -4 -37 4 -11 1 -36 -5 -55 -10
-30 -9 -37 8 -56 14 -14 27 -19 41 -14 36 11 51 34 51 81 0 48 8 52 79 38 24
-5 31 -12 31 -31 0 -41 -31 -123 -51 -134 -11 -5 -19 -7 -19 -5 0 3 -18 -4
-41 -16 -27 -14 -57 -21 -85 -19 -44 1 -44 1 -38 -26 4 -16 14 -33 21 -38 20
-15 6 -43 -29 -61 -36 -18 -80 -11 -72 11 5 11 2 13 -10 9 -12 -5 -16 0 -16
17 0 54 -9 65 -47 61 -30 -4 -35 -2 -30 12 5 12 0 16 -18 16 -29 0 -34 -16 -7
-23 9 -3 2 -5 -16 -6 -18 0 -43 4 -55 11 -30 16 -232 24 -241 9 -5 -7 -40 -11
-94 -10 -69 1 -81 3 -57 10 17 5 47 7 68 3 36 -6 37 -5 37 26 l0 31 -105 -3
c-73 -2 -105 0 -105 8 0 18 -27 37 -35 24 -3 -5 1 -13 9 -16 9 -3 16 -10 16
-16 0 -5 -6 -6 -12 -1 -7 4 -24 6 -37 4 -13 -1 -28 3 -33 11 -7 10 -11 10 -15
1 -2 -7 -17 -13 -32 -13 -41 0 -91 -20 -91 -36 0 -10 -14 -15 -42 -16 l-43 -1
43 -4 c37 -4 42 -7 42 -29 0 -17 -5 -24 -20 -24 -11 0 -20 -4 -20 -10 0 -5
-18 -10 -39 -10 -32 0 -40 4 -43 20 -3 19 -5 19 -24 6 -16 -11 -19 -22 -16
-50 2 -20 9 -36 14 -36 13 0 38 -26 38 -39 0 -5 -8 -16 -18 -23 -10 -7 -21
-20 -24 -29 -5 -13 -29 -17 -120 -22 -62 -3 -125 -10 -138 -16 -14 -5 -19 -10
-12 -10 17 -1 15 -31 -3 -31 -8 0 -15 -4 -15 -10 0 -5 -9 -10 -20 -10 -15 0
-20 7 -20 25 0 14 -4 25 -10 25 -5 0 -10 -7 -10 -15 0 -8 -4 -15 -10 -15 -18
0 -11 -28 9 -33 13 -3 20 -18 25 -51 7 -44 28 -62 39 -33 3 6 6 -3 6 -21 1
-21 -3 -31 -10 -27 -6 4 -30 4 -55 0 -35 -5 -44 -10 -44 -26 0 -20 16 -27 22
-9 2 5 14 7 26 3 14 -3 19 -9 13 -13 -7 -4 0 -12 16 -20 40 -20 59 -42 65 -73
6 -32 -8 -35 -32 -7 -15 17 -19 18 -29 6 -7 -8 -20 -12 -29 -9 -13 5 -14 3 -5
-7 7 -7 53 -15 115 -20 76 -5 20 -7 -209 -9 l-313 -1 -2 68 c-1 37 -2 147 -3
246 -1 156 -3 180 -18 191 -16 12 -16 13 2 18 17 4 20 15 23 73 2 38 1 100 0
137 -3 63 -6 69 -29 78 -15 5 -107 10 -205 11 l-180 1 -24 -27 c-29 -31 -97
-39 -186 -21 -47 9 -75 0 -59 -19 9 -10 7 -17 -5 -27 -14 -11 -18 -11 -29 5
-15 19 -46 19 -53 -1 -4 -13 3 -17 51 -27 35 -8 44 -31 22 -56 -10 -11 -16
-20 -14 -21 30 -4 174 -10 392 -15 227 -5 269 -9 274 -22 4 -8 2 -22 -4 -30
-13 -22 -103 -17 -120 6 -12 15 -13 14 -13 -1 0 -15 -20 -16 -252 -10 l-251 6
6 -30 c3 -17 2 -34 -4 -40 -5 -5 -12 -33 -16 -61 -6 -53 -23 -73 -23 -28 0 14
-4 27 -9 30 -5 3 -7 15 -4 26 3 11 0 27 -6 34 -10 12 -8 17 8 26 29 15 26 46
-5 75 -40 37 -117 35 -182 -5 -51 -31 -82 -41 -48 -15 36 27 7 28 -51 2 -56
-26 -60 -32 -19 -27 11 1 15 -3 12 -9 -4 -6 -13 -11 -21 -11 -7 0 -18 -13 -24
-30 -5 -16 -14 -30 -19 -30 -14 0 -33 26 -30 41 2 9 -4 13 -15 11 -10 -2 -25
2 -33 9 -9 7 -37 12 -66 10 l-51 -2 6 52 c4 33 2 58 -4 66 -8 9 -41 14 -103
15 l-91 2 100 5 100 6 3 88 3 87 -65 0 c-63 0 -65 -1 -68 -27 -2 -14 -9 -28
-15 -31 -9 -2 -13 11 -13 46 0 54 7 67 26 51 7 -5 39 -9 71 -7 l58 3 2 60 c1
50 5 106 12 204 1 8 8 11 21 8 13 -3 20 0 20 9 0 8 -4 14 -9 14 -11 0 8 104
20 108 15 6 10 49 -6 56 -8 3 -15 1 -15 -4 0 -6 -5 -10 -11 -10 -14 0 -2 616
13 643 5 11 7 47 4 80 -3 36 -2 51 3 37 5 -17 13 -24 27 -22 14 2 16 1 5 -6
-9 -7 -10 -12 -2 -16 6 -4 11 -18 11 -32 0 -17 5 -24 20 -24 11 0 20 -4 20
-10 0 -14 36 -12 47 3 22 31 34 86 22 108 -7 14 -9 46 -4 93 4 52 2 92 -10
142 -20 85 -45 280 -45 350 0 34 -5 56 -15 64 -8 7 -15 18 -15 25 0 7 -7 18
-16 25 -24 21 -13 62 22 82 60 35 125 -15 94 -72 -7 -13 -8 -20 -2 -16 6 3 13
2 17 -4 3 -5 2 -10 -3 -10 -12 0 -22 -130 -11 -150 10 -21 40 -230 44 -313 2
-39 9 -75 15 -81 5 -5 10 -23 10 -39 0 -15 10 -51 21 -78 17 -39 26 -49 45
-49 13 0 24 -4 24 -9 0 -9 48 -26 65 -22 5 1 23 3 40 3 16 1 33 6 38 12 5 8 9
7 15 -1 5 -9 32 -13 78 -12 38 1 92 -2 119 -5 28 -4 76 -7 107 -8 32 0 58 -4
58 -9 0 -5 5 -9 11 -9 5 0 7 5 4 10 -7 11 8 14 18 3 4 -3 157 -8 339 -11 260
-3 339 -7 360 -18 15 -8 44 -14 65 -14 21 0 61 -10 90 -22 59 -24 87 -67 98
-150 l6 -48 43 0 c41 0 44 2 50 31 3 17 6 50 6 73 0 34 6 47 36 76 l36 35 404
-2 c248 -1 402 2 399 8 -4 5 3 9 14 9 14 0 21 6 21 20 0 11 8 37 17 58 9 20
22 82 29 137 21 167 29 212 40 226 6 8 9 35 6 62 -3 36 -8 47 -21 47 -21 0
-61 36 -61 55 0 19 34 37 54 29 18 -7 49 13 41 27 -3 4 3 12 12 18 12 7 14 13
7 18 -6 5 -16 18 -22 30 -24 44 47 72 96 37 29 -20 28 -48 -4 -73 -15 -12 -22
-21 -16 -21 8 0 9 -8 3 -22 -4 -13 -12 -45 -16 -73 -4 -27 -10 -54 -15 -60 -4
-5 -10 -35 -13 -65 -9 -95 -36 -250 -47 -270 -6 -11 -17 -20 -25 -20 -18 0
-20 -17 -2 -23 8 -2 12 -31 12 -98 l0 -94 30 -3 c114 -11 197 -13 190 -3 -3 7
2 11 15 11 12 0 18 -4 15 -10 -3 -5 -1 -10 4 -10 6 0 11 6 11 13 0 24 52 44
95 36 65 -13 219 -11 233 3 7 7 12 23 12 36 0 49 55 117 102 127 62 14 134
-18 141 -62 4 -31 12 -36 46 -35 22 0 36 -8 53 -29 15 -19 32 -29 51 -29 25 0
27 3 27 44 0 37 3 44 23 49 36 8 91 31 98 41 4 5 10 -1 14 -13 9 -28 17 -20
22 21 2 18 9 36 16 41 9 7 9 10 0 14 -15 6 -17 33 -3 33 6 0 10 5 10 10 0 6
-9 10 -20 10 -26 0 -48 39 -29 51 10 6 11 11 3 17 -6 4 -14 19 -17 34 -4 14
-15 29 -25 31 -13 4 -11 5 6 6 12 0 22 5 22 9 0 10 -91 55 -98 48 -11 -12 -32
17 -32 44 0 33 -41 80 -71 80 -15 0 -19 5 -15 15 3 8 1 15 -4 15 -11 0 -25 40
-21 63 2 15 -2 17 -18 12 -18 -6 -21 -2 -21 27 l0 34 73 13 c39 7 83 13 97 15
50 5 55 17 20 47 -18 16 -37 29 -41 29 -5 0 -9 9 -9 21 0 11 -9 33 -20 48 -17
25 -27 29 -97 34 -43 4 -132 2 -198 -3 -385 -31 -502 -43 -519 -52 -10 -5 -44
-11 -75 -13 -77 -5 -224 -31 -250 -44 -12 -7 -21 -18 -21 -25 0 -18 44 -46 73
-46 48 0 77 -51 50 -90 -26 -36 -106 -8 -95 34 4 16 2 18 -14 12 -10 -4 -31
-10 -46 -13 -14 -3 -28 -14 -31 -24 -7 -28 -37 -36 -53 -14 -10 13 -10 23 -2
38 8 16 8 19 -5 14 -23 -9 -29 4 -10 25 14 16 14 18 0 18 -8 0 -25 12 -37 28
-18 21 -21 37 -18 73 4 40 30 92 48 97 3 0 13 4 22 7 24 10 85 -13 102 -37 14
-20 18 -20 118 -8 56 6 106 14 111 17 5 3 57 11 115 19 170 23 325 50 355 62
16 7 35 12 43 12 8 0 14 4 14 9 0 20 137 57 246 66 93 8 108 13 91 35 -25 32
-102 90 -119 90 -10 0 -31 9 -46 20 -23 16 -48 20 -160 23 -123 4 -135 3 -152
-15 -19 -21 -34 -11 -24 16 5 14 29 16 162 16 l155 0 -23 25 c-13 14 -32 25
-42 25 -10 0 -18 6 -18 13 0 7 -27 39 -60 72 -65 64 -90 72 -225 74 -33 1 -67
6 -75 11 -10 7 13 10 75 9 119 -1 125 -1 125 12 0 25 -47 53 -130 80 -30 9
-45 18 -33 18 48 2 54 11 27 39 -22 24 -70 101 -113 180 -8 14 -27 37 -42 50
-17 13 -29 34 -29 47 0 12 -7 28 -15 35 -8 7 -15 21 -15 31 0 11 -9 27 -20 36
-11 10 -20 23 -20 29 0 6 -6 17 -14 23 -7 6 -23 38 -35 70 -11 32 -29 66 -40
75 -11 10 -17 25 -14 35 3 11 0 22 -7 26 -8 5 -8 10 1 21 9 11 8 14 -3 14 -14
0 -56 38 -50 46 1 2 1 3 -1 2 -9 -8 -38 35 -33 48 4 9 2 12 -5 8 -6 -3 -9 -19
-5 -35 3 -16 1 -29 -4 -29 -6 0 -10 23 -10 52 0 28 3 48 6 45 10 -9 44 12 44
27 0 21 -27 40 -32 24 -3 -7 -3 39 -2 102 2 63 4 121 4 128 0 26 18 10 24 -23
4 -19 11 -35 17 -35 20 0 50 -37 43 -53 -4 -11 -1 -17 7 -17 7 0 24 -12 37
-27 19 -23 22 -34 16 -72 -14 -102 -19 -116 -42 -119 -27 -4 -30 -32 -3 -32
10 0 29 -14 42 -30 13 -17 41 -35 62 -42 25 -8 37 -17 37 -30 0 -26 46 -25 53
2 4 15 14 20 36 20 17 0 31 5 31 10 0 6 9 10 20 10 12 0 20 -7 20 -17 0 -10
23 -33 52 -53 28 -19 67 -54 86 -77 20 -24 41 -43 47 -44 13 -1 121 -125 139
-159 17 -34 55 -94 149 -237 54 -83 86 -123 99 -123 19 0 25 -16 8 -22 -18 -6
12 -66 39 -79 19 -9 112 -13 326 -14 287 -2 354 3 340 25 -4 6 2 25 13 43 11
17 25 51 31 73 6 23 18 45 26 48 9 3 15 18 15 35 0 25 9 34 69 70 38 22 75 41
83 41 26 0 80 40 74 55 -4 10 2 15 17 16 12 0 29 2 38 4 17 3 57 -16 59 -27 0
-4 3 -15 7 -24 5 -13 7 -13 14 -2 5 7 25 13 46 13 34 0 40 4 61 43 23 40 25
42 72 42 55 0 83 8 74 21 -3 5 0 9 5 9 6 0 10 3 10 8 -3 12 22 71 29 71 23 -4
32 4 32 27 0 21 4 24 20 19 16 -5 20 -2 20 14 0 12 5 21 10 21 6 0 10 -4 10
-10 0 -5 7 -10 15 -10 8 0 15 -4 15 -10 0 -5 9 -10 20 -10 11 0 20 -4 20 -10
0 -5 -4 -10 -10 -10 -5 0 -10 -4 -10 -9 0 -4 28 -8 62 -8 61 0 88 11 88 37 0
6 7 18 15 27 14 13 16 11 21 -16 9 -45 29 -56 101 -56 62 0 63 0 63 -27 0 -26
3 -28 40 -28 38 0 40 -2 40 -30 0 -23 4 -30 20 -30 13 0 20 7 20 20 0 26 36
27 45 1 9 -28 40 -61 58 -61 9 0 19 -4 22 -10 3 -5 19 -10 35 -10 16 0 32 -4
35 -10 3 -5 33 -10 66 -10 33 0 59 -4 59 -10 0 -5 9 -10 20 -10 13 0 20 7 20
20 0 11 5 20 10 20 6 0 10 7 10 15 0 15 6 25 38 60 6 7 12 39 12 72 0 56 1 59
30 70 19 7 28 16 25 25 -3 8 3 25 15 38 22 25 26 35 10 25 -5 -3 -10 -1 -10 4
0 6 10 11 23 11 18 0 19 2 7 11 -11 8 -9 9 10 3 31 -8 61 -34 54 -45 -3 -5 6
-9 20 -9 19 0 26 5 26 19 0 10 16 31 35 47 19 15 35 33 35 39 0 6 7 12 15 13
8 1 23 3 32 4 34 3 56 40 31 52 -10 5 -10 7 -1 12 7 3 10 11 7 18 -3 8 1 20 9
27 8 8 16 21 18 28 4 11 8 11 20 -1 8 -9 25 -19 38 -23 17 -5 20 -10 12 -18
-16 -16 -14 -37 3 -37 8 0 17 -6 19 -12 3 -7 6 -4 7 7 1 19 2 18 10 -2 11 -26
30 -31 30 -8 0 11 12 15 50 15 71 0 102 22 99 69 -3 50 20 111 43 111 23 0 23
17 -2 75 -11 26 -20 62 -20 80 0 19 -5 37 -11 41 -6 3 -9 17 -6 30 2 14 0 27
-4 30 -21 13 -6 23 39 26 76 5 203 2 260 -6z m966 -18 c49 -7 74 -15 85 -29
16 -20 16 -20 38 0 23 22 38 28 28 11 -3 -5 3 -10 15 -10 23 0 80 -56 80 -79
0 -12 -3 -12 -12 -3 -7 7 -32 12 -57 12 -65 0 -120 -36 -156 -102 -15 -29 -39
-63 -52 -75 -26 -25 -28 -34 -11 -79 9 -27 8 -40 -6 -78 -10 -26 -24 -46 -32
-46 -24 0 -13 -53 11 -60 16 -4 20 -13 19 -40 0 -19 5 -45 13 -57 7 -12 13
-30 13 -39 0 -10 8 -26 17 -36 25 -28 30 -101 19 -293 -5 -92 -11 -127 -26
-153 -11 -18 -20 -51 -20 -72 0 -21 -4 -41 -9 -44 -9 -6 -25 -79 -40 -181 -5
-33 -7 -217 -5 -409 3 -251 1 -352 -7 -362 -7 -8 -9 -28 -5 -48 4 -19 2 -63
-3 -98 -6 -35 -13 -129 -16 -210 -2 -80 -9 -157 -14 -170 -4 -12 -9 -46 -10
-74 -1 -55 -13 -98 -31 -109 -7 -4 -8 -24 -4 -54 4 -30 2 -57 -6 -70 -16 -30
1 -107 35 -157 31 -46 31 -59 -1 -101 -26 -34 -26 -34 -5 -40 17 -4 21 -13 21
-42 l-1 -36 -21 39 -20 40 -15 -28 c-12 -23 -12 -31 -1 -49 9 -15 12 -49 10
-104 l-3 -83 -28 0 c-27 0 -29 3 -35 53 -3 28 -6 88 -6 132 0 45 -4 85 -8 90
-5 6 -15 25 -22 43 -11 28 -10 37 3 65 35 69 51 113 53 147 1 19 7 54 12 78 8
35 6 47 -7 65 -42 56 -56 140 -67 410 -3 75 -9 115 -20 132 -10 15 -13 32 -8
47 4 12 6 147 6 298 -1 152 3 305 8 340 34 236 35 309 7 311 -6 0 -23 14 -36
31 -18 22 -21 32 -12 37 18 11 3 61 -18 61 -30 0 -41 22 -41 80 0 51 3 58 30
79 17 12 28 25 26 29 -3 5 0 41 6 82 5 41 11 118 13 170 3 88 18 165 44 233 6
16 11 46 11 68 l0 40 50 -7 c46 -6 50 -5 59 17 12 33 50 309 53 389 l3 65 -55
6 c-30 3 -56 2 -58 -3 -2 -4 -8 -8 -13 -8 -15 0 -6 34 11 42 20 10 139 7 224
-4z m376 -72 c34 -13 69 -26 263 -97 48 -17 90 -35 92 -39 2 -4 -4 -41 -15
-83 -10 -44 -16 -93 -13 -116 4 -31 1 -43 -16 -60 -11 -11 -21 -25 -21 -31 0
-5 -11 -10 -25 -10 -27 0 -75 19 -75 30 0 4 -16 11 -36 15 -45 8 -84 25 -84
37 0 16 -26 37 -54 44 -14 3 -26 11 -26 16 0 14 -27 38 -43 38 -18 0 -29 63
-16 96 14 37 11 98 -6 120 -8 10 -15 27 -15 36 0 9 -6 19 -12 22 -25 12 68 -5
102 -18z m842 -421 c9 -20 16 -24 40 -20 27 5 99 -13 163 -40 17 -7 40 -16 53
-20 13 -4 22 -15 23 -28 1 -20 2 -21 6 -2 3 11 9 25 15 30 6 7 7 4 3 -6 -3 -9
1 -21 9 -28 18 -15 66 -4 66 15 0 8 9 14 20 14 14 0 20 -7 20 -22 l0 -21 19
21 c19 23 46 29 56 13 3 -5 21 -7 39 -4 19 3 42 1 52 -5 17 -9 16 -11 -11 -22
-17 -7 -37 -16 -45 -21 -8 -5 -26 -14 -40 -21 -14 -6 -68 -31 -120 -56 -117
-55 -230 -101 -267 -108 -15 -3 -39 -1 -53 5 -18 7 -20 10 -7 10 12 1 17 9 17
31 0 25 -4 30 -35 36 -33 6 -75 33 -75 49 0 14 -73 74 -94 77 -30 4 -33 35 -4
41 20 4 20 4 -4 6 -41 2 -34 19 10 23 37 4 37 4 -13 12 -63 10 -79 15 -72 23
4 3 40 -2 81 -11 85 -20 116 -12 116 29 0 32 17 32 32 0z m820 -237 c10 -16 1
-77 -15 -92 -18 -17 -99 -46 -129 -46 -14 0 -28 -5 -30 -11 -3 -9 -9 -9 -25 0
-31 16 -82 14 -100 -5 -14 -13 -30 -15 -92 -10 -141 12 -161 22 -88 44 23 8
62 26 87 41 25 15 58 31 73 35 15 3 56 20 90 36 56 27 69 30 141 26 51 -3 82
-9 88 -18z m-10812 -93 c0 -32 -14 -67 -36 -87 -11 -10 -55 -54 -99 -98 -44
-44 -86 -78 -92 -75 -7 2 -13 -2 -13 -10 0 -20 -36 -37 -68 -33 -25 4 -25 5
-7 13 31 13 55 37 48 48 -4 6 0 8 10 4 12 -5 17 -1 17 13 0 11 4 20 10 20 5 0
28 28 51 63 47 69 157 180 170 171 5 -3 9 -16 9 -29z m1730 -776 c11 -38 10
-43 -14 -68 -23 -24 -32 -27 -69 -22 -35 5 -45 11 -59 40 -16 32 -16 35 5 62
18 26 27 29 73 29 l53 0 11 -41z m1226 -31 l23 -36 -27 -36 c-23 -30 -33 -35
-69 -36 -35 0 -45 5 -62 29 -27 37 -26 61 0 95 18 23 27 27 67 24 40 -3 48 -7
68 -40z m-6510 -173 c13 -4 40 -101 35 -125 -2 -8 -19 -28 -38 -44 -19 -16
-43 -47 -54 -68 -19 -38 -40 -47 -68 -29 -13 8 -13 12 -1 26 12 15 11 19 -10
36 -14 10 -28 19 -32 19 -23 0 21 73 71 118 25 22 25 23 7 37 -11 8 -16 21
-13 30 5 12 16 14 49 9 24 -3 48 -7 54 -9z m404 -647 c-2 -84 -2 -175 -2 -203
7 -386 -9 -727 -37 -815 -9 -28 -24 154 -25 305 -1 96 41 814 50 854 11 51 16
5 14 -141z m1699 26 c1 -1 -9 -18 -23 -37 -19 -25 -26 -46 -26 -80 0 -38 -5
-49 -31 -71 -17 -14 -42 -26 -56 -26 -31 0 -93 59 -93 89 0 29 43 71 73 71 22
0 59 22 96 58 11 11 46 9 60 -4z m-1123 -152 c30 -19 47 -103 24 -117 -5 -3
-10 -23 -10 -43 0 -20 -4 -43 -9 -51 -12 -18 -45 -6 -37 14 4 10 -9 21 -45 36
-53 23 -69 42 -69 82 0 51 104 107 146 79z m1488 -123 c32 -37 32 -42 4 -79
-19 -26 -28 -30 -69 -30 -43 0 -49 3 -68 36 -17 29 -19 39 -10 57 21 41 31 47
74 47 36 0 48 -5 69 -31z m-880 -75 c8 -21 6 -234 -5 -434 -4 -91 -8 -180 -8
-197 0 -22 -5 -33 -15 -33 -20 0 -31 19 -17 33 6 6 7 15 2 21 -5 6 -12 67 -16
135 -6 131 -10 150 -28 132 -6 -6 -21 -11 -34 -11 -21 0 -23 -5 -23 -44 0 -25
-5 -48 -11 -52 -8 -4 -10 9 -8 45 3 42 1 51 -12 51 -21 0 -29 -20 -29 -70 0
-21 -5 -42 -10 -45 -6 -4 -8 -10 -5 -15 6 -10 -16 -50 -27 -50 -12 0 -10 38 2
45 11 7 3 52 -12 72 -5 6 -9 35 -8 65 0 29 -2 69 -5 88 -5 29 1 44 33 90 44
62 84 83 145 74 l37 -6 0 42 c0 47 14 80 34 80 8 0 17 -7 20 -16z m2054 -111
c-3 -78 -5 -88 -21 -87 -17 2 -17 0 -3 -15 12 -13 14 -25 7 -49 -7 -24 -6 -34
4 -40 9 -4 15 -30 17 -72 2 -44 7 -64 15 -63 17 4 53 -46 53 -73 0 -29 -25
-54 -56 -54 -13 0 -24 -5 -24 -10 0 -6 -13 -24 -30 -42 -16 -17 -30 -39 -30
-49 0 -15 -7 -19 -39 -17 -35 1 -41 5 -56 39 -17 36 -17 39 4 72 30 49 80 64
99 30 7 -11 12 11 18 78 8 90 8 128 0 137 -3 2 -15 -4 -28 -12 -23 -15 -26
-15 -46 7 -30 32 -22 93 16 124 15 12 33 22 40 23 8 0 12 18 12 54 0 30 5 58
10 61 6 3 10 15 10 26 0 10 7 19 15 19 13 0 15 -14 13 -87z m8926 71 c28 -11
56 -69 58 -121 2 -41 -3 -58 -30 -98 -18 -27 -32 -53 -32 -59 0 -47 -31 -201
-44 -221 -12 -19 -17 -47 -16 -108 2 -141 -7 -272 -18 -294 -8 -14 -10 -44 -6
-82 5 -39 3 -61 -3 -61 -6 0 -10 -19 -10 -42 1 -113 -7 -199 -20 -209 -7 -6
-13 -16 -13 -22 0 -19 -35 -86 -45 -87 -5 0 -20 16 -32 35 -27 41 -29 88 -7
170 8 33 13 74 11 90 -7 41 14 105 33 105 20 0 21 70 1 93 -9 12 -10 29 -2 72
6 32 8 61 5 67 -3 5 0 15 6 23 8 10 13 83 15 237 3 233 -4 289 -43 331 -33 37
-12 124 42 169 21 17 116 25 150 12z m-10282 -162 l68 -32 -2 -51 c-1 -50 -1
-50 -29 -44 -25 6 -29 4 -29 -15 0 -17 4 -21 20 -17 23 6 24 3 10 -23 -5 -10
-24 -21 -41 -25 -20 -5 -29 -12 -25 -20 3 -8 -3 -17 -14 -20 -23 -7 -43 2 -34
16 3 6 -3 13 -15 16 -14 3 -23 16 -27 39 -3 18 -12 38 -20 45 -18 15 -18 53 0
68 8 7 17 24 21 39 7 28 34 65 44 60 3 -2 36 -18 73 -36z m-2099 -153 c-3
-187 -16 -342 -29 -346 -17 -6 -30 346 -15 375 6 11 11 32 11 46 0 34 10 58
24 53 7 -3 10 -43 9 -128z m2984 -92 c-3 -8 -8 -64 -12 -126 -7 -98 -5 -114 9
-130 14 -16 15 -23 6 -41 -6 -12 -9 -28 -6 -35 3 -8 1 -38 -3 -67 -5 -30 -5
-60 0 -69 10 -20 -4 -191 -23 -268 -11 -49 -11 -54 7 -67 17 -13 18 -16 5 -24
-31 -20 -35 -15 -45 63 -11 82 -26 53 -19 -37 4 -46 4 -100 0 -121 -6 -33 -9
-36 -22 -24 -11 11 -12 22 -4 49 6 19 10 50 10 67 0 31 -2 33 -38 33 -21 0
-43 5 -49 11 -8 8 -17 8 -30 1 -12 -7 -38 -8 -69 -3 l-49 9 41 1 c38 1 41 3
36 26 -4 26 1 29 46 25 13 -1 25 6 29 15 5 14 14 16 44 11 37 -6 39 -5 39 19
0 14 5 25 10 25 6 0 10 -12 10 -26 0 -14 4 -23 10 -19 6 3 10 48 10 100 0 88
-2 95 -22 106 -45 24 -61 66 -34 88 17 14 26 -4 22 -42 -2 -19 2 -26 18 -29
21 -4 21 -1 20 126 -1 72 -6 146 -12 164 -6 18 -7 30 -3 27 5 -2 11 13 15 35
7 42 0 87 -16 107 -15 19 0 33 39 33 25 0 34 -4 30 -13z m8028 3 c26 0 34 -5
39 -24 3 -13 8 -30 11 -38 3 -7 -7 -27 -22 -43 -25 -27 -33 -30 -74 -27 -41 3
-48 8 -62 37 -16 33 -15 34 16 69 18 19 38 33 45 30 8 -2 29 -4 47 -4z m-8300
-10 c3 -5 15 -10 26 -10 11 0 22 -7 26 -16 5 -15 7 -15 15 0 15 27 73 21 97
-10 30 -38 27 -55 -7 -48 l-28 6 -11 -91 c-5 -51 -12 -94 -15 -97 -8 -7 -38 7
-38 18 0 6 -13 26 -30 45 -16 18 -30 38 -30 43 0 6 -6 10 -14 10 -28 0 -45 44
-39 104 5 45 9 56 24 56 10 0 21 -4 24 -10z m-257 -107 c2 -7 -4 -13 -13 -13
-14 0 -15 -3 -5 -15 7 -8 21 -15 32 -15 18 0 19 -5 12 -70 -7 -74 -6 -75 41
-70 11 1 36 20 55 42 36 41 36 41 66 25 47 -24 59 -43 40 -62 -9 -9 -16 -21
-16 -27 0 -6 -15 -7 -39 -3 -37 6 -39 5 -43 -24 -2 -17 0 -32 6 -34 5 -2 14
-23 20 -48 11 -44 11 -44 61 -49 50 -5 50 -5 50 -40 l0 -35 -85 -5 c-47 -3
-92 -2 -101 2 -20 9 -264 12 -278 3 -6 -3 -22 2 -36 11 -20 13 -23 19 -13 26
10 7 9 11 -4 19 -21 12 -24 45 -4 52 7 3 16 27 19 56 3 28 9 56 12 61 8 13 85
13 86 0 1 -5 2 -16 3 -22 1 -15 3 -15 72 -4 47 7 52 10 58 38 8 41 2 48 -49
48 -49 0 -42 -11 -75 117 -5 20 -4 35 4 43 15 15 118 9 124 -7z m992 -113 c0
-49 0 -49 25 -40 20 8 29 6 45 -10 11 -11 21 -26 21 -32 5 -52 -20 -81 -63
-73 -19 3 -28 0 -32 -13 -3 -9 -8 -129 -11 -267 -3 -137 -8 -304 -12 -370 -3
-66 -6 -148 -6 -182 -1 -35 -4 -63 -9 -63 -6 0 -11 177 -12 425 0 236 14 634
23 658 16 41 31 24 31 -33z m9148 -276 c48 -5 63 -11 68 -26 3 -10 15 -28 27
-39 15 -14 18 -22 10 -27 -6 -4 -15 -20 -19 -35 -6 -25 -8 -27 -21 -14 -11 11
-23 13 -45 6 -84 -24 -161 35 -138 106 13 39 15 39 118 29z m-1359 -137 c-6
-49 24 -67 35 -22 4 16 13 25 26 25 37 0 30 -20 -18 -50 l-50 -30 -12 -81
c-12 -85 -9 -95 39 -136 20 -18 8 -27 -18 -14 -12 6 -30 16 -41 21 -11 6 -28
10 -39 10 -20 0 -51 25 -51 41 0 16 48 10 54 -7 5 -13 9 -14 21 -4 19 16 21
170 3 189 -11 10 -10 14 5 22 9 6 17 18 17 28 0 10 3 21 6 24 9 9 25 -2 23
-16z m-8824 2 c22 1 76 3 120 4 64 2 80 -1 82 -13 6 -32 -12 -39 -107 -40 -52
-1 -104 -2 -115 -2 -107 -5 -155 5 -155 31 0 27 16 31 80 23 30 -3 73 -5 95
-3z m-1048 -210 c13 -19 23 -37 23 -40 0 -16 -80 -89 -97 -89 -39 0 -92 51
-93 88 0 30 36 81 64 91 30 12 77 -11 103 -50z m3330 42 c4 -16 15 -18 79 -19
40 0 76 4 79 9 8 12 45 12 45 0 0 -5 -4 -21 -10 -35 l-10 -26 -132 6 c-127 6
-174 19 -128 36 10 4 21 16 25 27 8 26 45 28 52 2z m6047 -7 c3 -9 3 -124 0
-255 -6 -209 -5 -241 9 -256 8 -10 17 -27 19 -38 3 -20 2 -20 -47 -7 -19 5
-19 4 -4 -14 24 -28 13 -44 -24 -38 -78 13 -78 13 -71 42 10 39 15 46 25 31 6
-10 9 -8 9 7 0 20 -4 21 -44 17 l-45 -5 -22 47 c-18 37 -20 51 -11 65 7 12 8
20 1 22 -14 5 -21 75 -8 83 19 13 59 -4 59 -25 0 -11 5 -20 11 -20 19 0 56
-35 51 -48 -5 -15 47 -63 60 -56 12 8 10 282 -3 306 -8 14 -8 23 0 31 6 6 11
37 11 69 0 56 11 75 24 42z m-3842 -162 c4 -4 8 -61 9 -127 l1 -120 -47 3
c-51 4 -74 -13 -75 -55 0 -23 14 -30 70 -35 19 -1 38 -7 42 -13 11 -15 9 -93
-2 -97 -5 -1 -52 0 -102 4 -51 3 -177 7 -280 7 l-188 1 3 218 c1 119 5 219 9
222 9 7 552 -1 560 -8z m365 -58 c3 -9 0 -19 -6 -24 -9 -5 -8 -9 4 -14 9 -3
20 -4 24 -1 5 2 6 -7 3 -20 -5 -29 -27 -33 -41 -8 -8 15 -10 13 -16 -12 -9
-41 -57 -145 -67 -145 -13 0 -9 -38 5 -43 7 -4 3 -8 -11 -13 -13 -3 -21 -12
-19 -18 2 -6 1 -21 -4 -33 -7 -19 -13 -22 -39 -17 -38 8 -38 1 0 -39 20 -22
30 -42 30 -64 0 -18 -4 -33 -9 -33 -5 0 -14 -37 -21 -82 -7 -46 -16 -90 -21
-99 -6 -11 -3 -21 7 -30 14 -11 16 -10 12 13 -1 15 0 27 5 28 4 0 12 0 17 0 7
0 9 -34 8 -90 -2 -62 -7 -90 -15 -90 -6 0 -15 -5 -19 -12 -4 -6 -3 -8 3 -5 6
4 16 0 23 -9 9 -10 22 -13 44 -8 57 12 176 67 176 80 0 8 7 14 15 14 8 0 15 5
15 11 0 7 -11 8 -29 4 -17 -4 -38 -1 -49 6 -19 12 -19 14 -5 36 15 22 14 26
-4 46 -10 12 -27 40 -37 62 -16 35 -20 37 -26 20 -6 -16 -8 -13 -14 16 -8 45
0 69 24 69 11 0 22 5 25 10 11 18 73 12 85 -9 16 -32 13 -34 -40 -28 -43 5
-50 4 -50 -11 0 -9 9 -28 20 -42 11 -14 20 -31 20 -39 0 -19 29 -51 46 -51 24
0 25 -19 2 -40 -16 -15 -18 -21 -8 -20 31 5 38 -1 54 -41 19 -47 15 -59 -21
-59 -29 0 -102 -30 -103 -42 0 -5 17 -8 38 -9 35 0 36 -1 12 -11 -18 -7 -39
-6 -72 2 -26 6 -60 9 -75 6 -16 -4 -40 0 -56 9 -15 8 -25 11 -23 6 6 -10 -280
-35 -294 -26 -16 10 -12 33 8 45 12 8 13 13 5 16 -7 3 -13 12 -13 20 0 10 6
11 26 4 14 -6 36 -7 50 -4 18 5 24 2 24 -10 0 -19 7 -20 49 -5 39 14 39 21 1
37 -36 16 -39 32 -5 32 38 0 75 -21 76 -44 1 -12 5 1 10 29 6 39 5 51 -6 58
-8 4 -15 13 -15 18 0 6 4 8 9 5 12 -8 24 26 13 33 -5 3 -12 25 -15 49 -7 53
-24 77 -43 61 -8 -6 -14 -19 -14 -29 0 -14 -7 -17 -32 -14 -18 1 -41 3 -50 3
-29 1 -21 31 8 31 14 0 23 4 19 10 -3 5 -12 7 -20 3 -9 -3 -31 2 -50 11 -20
10 -44 14 -55 11 -30 -10 -24 2 10 20 17 9 30 13 30 9 0 -3 12 1 26 11 19 12
39 16 65 12 32 -4 40 -1 53 18 15 23 15 23 -12 19 -24 -5 -25 -3 -12 10 18 17
60 24 78 12 19 -12 25 -1 13 22 -6 12 -11 36 -11 56 0 43 21 136 31 136 4 0 5
9 2 21 -7 24 10 39 45 39 12 0 22 4 22 9 0 22 72 100 99 106 22 5 28 10 24 26
-7 24 25 27 34 3z m2984 -86 c4 -66 -5 -123 -28 -164 -18 -32 -24 -53 -19 -75
5 -24 2 -29 -14 -29 -11 0 -20 -7 -20 -15 0 -8 -9 -15 -21 -15 -19 0 -20 -4
-13 -69 4 -45 3 -71 -5 -75 -6 -4 -13 5 -17 21 -9 38 -15 47 -23 34 -9 -14 -4
211 5 254 11 53 35 95 55 95 11 0 19 6 19 13 0 25 79 49 81 25z m-2763 -254
c6 -81 2 -138 -11 -146 -9 -6 -9 -8 1 -8 6 0 12 -9 12 -20 0 -18 -7 -20 -60
-20 -33 0 -60 4 -60 10 0 6 6 10 13 10 9 0 9 2 -1 8 -13 9 -17 34 -14 86 1 16
5 27 8 23 11 -11 34 21 34 46 0 14 -6 28 -12 30 -7 3 1 6 19 6 17 1 35 6 38
12 13 20 30 2 33 -37z m5465 -11 c7 -28 2 -217 -6 -230 -5 -7 -3 -21 3 -32 12
-23 13 -68 2 -75 -4 -2 -23 -1 -42 4 -19 4 -29 8 -21 9 9 1 12 9 7 29 -10 45
-14 92 -8 92 3 0 14 -7 24 -17 17 -15 18 -15 18 5 0 12 -8 23 -20 27 -11 3
-20 14 -20 23 0 9 -3 28 -7 42 -6 24 -6 24 14 8 24 -22 33 -23 33 -2 0 9 -9
18 -19 21 -21 5 -31 31 -31 81 0 30 2 32 34 32 25 0 36 -5 39 -17z m-670 -70
c-11 -55 -9 -68 11 -85 22 -18 20 -20 -32 -31 -33 -8 -214 11 -226 23 -7 7 -3
10 12 10 30 0 27 12 -8 33 -32 20 -41 42 -12 33 15 -5 57 1 155 21 15 3 27 9
27 14 0 15 43 27 62 18 12 -6 15 -17 11 -36z m-8728 8 l50 -6 1 -140 c0 -77 4
-147 8 -156 7 -17 -16 -49 -36 -49 -5 0 -7 -8 -4 -17 7 -17 6 -17 -11 -1 -13
14 -14 21 -6 29 9 9 7 16 -10 29 -19 15 -62 18 -332 23 -170 4 -348 7 -395 7
-59 0 -80 3 -70 10 8 5 24 10 35 10 13 0 62 44 132 117 62 65 113 114 113 108
0 -5 -39 -50 -86 -100 -116 -122 -116 -122 -51 -127 28 -3 93 -4 142 -2 50 1
101 2 115 2 14 0 89 -1 167 -1 79 -1 143 -1 143 1 0 2 -5 12 -10 23 -14 25 1
25 23 -1 30 -36 44 -25 51 40 4 33 4 74 1 92 -4 18 -2 45 4 59 9 26 8 27 -36
33 -78 10 -203 7 -203 -5 0 -6 15 -29 34 -49 19 -21 39 -49 46 -62 9 -19 6
-17 -15 7 -15 17 -40 45 -56 63 -16 18 -30 36 -31 40 -2 4 -57 8 -123 9 -66 2
-165 7 -220 12 -79 7 -28 9 240 8 187 0 363 -3 390 -6z m2845 -72 c0 -5 12 -9
28 -8 35 3 92 -11 92 -22 0 -5 -7 -9 -15 -9 -8 0 -15 -4 -15 -10 0 -5 -9 -10
-20 -10 -16 0 -19 -5 -15 -23 6 -21 3 -23 -32 -24 -44 -1 -64 11 -56 34 5 14
0 15 -35 9 l-42 -6 3 40 2 40 53 0 c30 0 52 -4 52 -11z m5158 -59 c121 0 172
-3 172 -11 0 -9 -57 -10 -210 -4 -115 4 -210 4 -210 0 0 -26 142 -223 158
-218 6 3 12 -2 12 -11 0 -11 9 -16 28 -17 l27 -1 -30 -9 c-40 -12 -161 -19
-197 -12 -50 10 -30 23 35 23 35 0 66 3 70 6 5 6 -37 81 -52 94 -3 3 -25 31
-49 62 -52 70 -54 95 -11 96 17 0 34 4 37 7 4 3 16 4 27 1 11 -3 98 -6 193 -6z
m-1152 -123 c32 -51 63 -99 71 -108 7 -8 13 -19 13 -22 0 -4 -81 -7 -181 -7
-167 0 -180 -1 -175 -17 19 -64 18 -74 -5 -99 -17 -18 -33 -24 -66 -24 -64 0
-86 14 -78 51 9 40 31 82 55 104 16 15 30 16 92 11 87 -8 286 -11 292 -5 3 2
-20 45 -49 94 -30 50 -54 98 -55 107 0 35 30 5 86 -85z m-3743 71 c-2 -10 -4
-25 -5 -34 -2 -9 2 -19 9 -21 7 -3 11 7 11 27 -1 46 10 51 71 31 59 -20 83
-44 51 -49 -10 -2 -22 -12 -26 -24 -5 -17 -12 -19 -47 -14 -23 3 -77 6 -119 5
-65 0 -78 2 -78 15 0 9 4 16 9 16 5 0 11 9 14 20 4 17 0 20 -29 20 -34 0 -46
13 -21 24 6 2 46 4 87 3 65 -2 75 -4 73 -19z m255 -96 c31 -40 2 -72 -80 -89
-41 -9 -49 -8 -64 9 -10 10 -25 17 -33 16 -9 -1 -21 1 -27 4 -6 4 -48 8 -95 9
-83 2 -102 10 -92 35 3 9 35 12 129 9 68 -2 128 -6 134 -10 5 -3 10 -14 10
-24 0 -18 26 -31 64 -31 12 0 16 5 13 14 -3 8 -9 31 -13 51 -6 36 -6 37 17 30
13 -4 30 -14 37 -23z m-511 -1482 c82 -11 123 -27 123 -47 0 -7 7 -16 15 -19
8 -4 15 -9 15 -13 0 -8 -165 4 -252 18 -109 18 -117 25 -70 60 28 21 28 21
169 1z m276 -160 c59 0 67 -2 67 -19 0 -17 -10 -20 -77 -27 -143 -13 -284 -9
-321 10 -31 16 -36 44 -6 32 7 -3 60 -6 116 -7 72 -1 103 2 106 11 3 7 13 9
26 6 11 -3 51 -6 89 -6z m65 -410 c29 0 62 4 72 10 25 13 53 13 85 -2 39 -18
31 -34 -15 -30 -55 6 -50 -10 10 -31 27 -10 49 -23 47 -29 -1 -7 7 -14 18 -16
11 -2 38 -21 60 -41 22 -20 57 -47 78 -60 20 -12 37 -28 37 -33 0 -6 -3 -8 -6
-5 -10 10 -44 -12 -44 -28 0 -19 -19 -19 -45 -2 -11 7 -38 19 -60 26 -22 7
-46 15 -53 18 -11 4 -12 1 -3 -15 6 -11 24 -23 41 -27 16 -4 30 -13 30 -20 0
-9 -6 -12 -15 -9 -8 4 -15 1 -15 -5 0 -6 4 -11 9 -11 5 0 17 -7 26 -16 15 -16
14 -18 -14 -32 -22 -10 -31 -22 -31 -39 0 -13 4 -22 9 -19 16 10 41 -5 41 -25
0 -13 -7 -19 -22 -19 -18 0 -20 -2 -9 -9 9 -6 21 -5 33 2 16 10 23 8 41 -13
12 -14 35 -33 51 -44 20 -13 25 -20 16 -26 -8 -5 -4 -10 14 -16 17 -6 23 -13
17 -22 -6 -10 -33 -1 -117 42 -114 57 -298 144 -349 165 -36 15 -130 75 -165
106 -14 12 -54 39 -90 60 -127 75 -170 107 -170 126 0 12 -9 21 -27 25 -16 3
-41 11 -57 17 -25 9 -27 11 -10 18 11 4 106 6 212 4 175 -2 226 4 172 18 -11
3 -20 9 -20 14 0 5 36 5 83 1 45 -5 106 -8 135 -8z"/>
<path d="M11965 8201 c-54 -24 -71 -60 -49 -103 19 -36 38 -58 52 -58 5 0 14
-11 20 -24 8 -19 22 -26 57 -32 25 -3 62 -4 80 -1 23 4 40 1 49 -9 20 -20 26
-18 26 11 0 20 -5 25 -25 25 -20 0 -25 6 -31 35 -3 19 -4 41 -1 49 6 14 -21
46 -39 46 -5 0 -26 18 -48 40 -21 22 -41 40 -45 40 -3 0 -24 -9 -46 -19z"/>
<path d="M8986 7814 c9 -38 19 -58 38 -73 21 -18 77 -4 83 20 6 22 5 22 36 10
21 -8 29 -5 51 18 l27 28 -23 6 c-13 3 -67 9 -121 13 l-98 7 7 -29z"/>
<path d="M5480 5922 c-20 -10 -39 -29 -44 -44 -11 -32 -10 -34 27 -43 21 -6
27 -4 27 9 0 28 55 20 79 -11 20 -26 22 -27 35 -10 7 9 21 17 30 17 22 0 20 9
-8 51 -17 24 -35 38 -57 43 -45 9 -50 8 -89 -12z"/>
<path d="M8250 5794 c-37 -25 -50 -45 -50 -76 0 -29 17 -37 37 -17 13 13 91
-20 114 -47 7 -8 21 -13 33 -12 15 2 22 -3 24 -19 6 -45 21 -22 28 44 8 76 -4
109 -46 130 -35 18 -111 16 -140 -3z"/>
<path d="M5340 5721 c-41 -7 -117 -56 -125 -80 -3 -10 -21 -35 -40 -57 -19
-21 -35 -45 -35 -51 0 -7 -3 -13 -7 -13 -12 0 -44 -61 -37 -71 3 -5 13 -9 23
-9 10 0 28 -11 41 -25 14 -15 35 -25 51 -25 26 0 28 -3 23 -28 -8 -41 28 -76
94 -90 64 -14 93 -5 67 21 -9 10 -27 17 -40 17 -30 0 -43 19 -24 34 8 6 13 18
11 28 -2 9 2 19 7 23 6 3 11 33 11 66 0 71 21 99 75 99 28 0 36 4 40 23 8 37
1 97 -12 97 -7 0 -13 -5 -13 -11 0 -8 -5 -8 -15 1 -8 7 -15 23 -15 36 0 26 -9
27 -80 15z"/>
<path d="M5607 5669 c-10 -11 -25 -18 -33 -15 -9 4 -14 -1 -14 -15 0 -23 -27
-36 -43 -20 -19 19 -27 12 -27 -22 0 -29 4 -34 45 -48 48 -18 55 -16 55 15 1
21 1 21 15 2 10 -13 13 -33 9 -60 -4 -34 -3 -38 7 -22 7 11 9 39 6 70 -6 63 1
106 18 106 7 0 15 -10 18 -22 8 -34 0 -150 -14 -200 -16 -59 -21 -151 -7 -121
12 25 42 35 57 20 7 -7 21 -4 45 7 31 14 36 22 35 49 -1 31 -1 31 -9 7 -8 -24
-8 -23 -9 8 -1 17 3 32 9 32 5 0 3 21 -5 48 -8 26 -15 64 -15 85 0 30 -7 45
-32 68 -30 28 -67 49 -86 49 -4 0 -16 -9 -25 -21z"/>
</g>
</svg>
