<?xml version="1.0" standalone="no"?>
<!DOCTYPE svg PUBLIC "-//W3C//DTD SVG 20010904//EN"
 "http://www.w3.org/TR/2001/REC-SVG-20010904/DTD/svg10.dtd">
<svg version="1.0" xmlns="http://www.w3.org/2000/svg"
 width="1600.000000pt" height="1200.000000pt" viewBox="0 0 1600.000000 1200.000000"
 preserveAspectRatio="xMidYMid meet">
<metadata>
Created by potrace 1.16, written by Peter Selinger 2001-2019
</metadata>
<g transform="translate(0.000000,1200.000000) scale(0.100000,-0.100000)"
fill="#000000" stroke="none">
<path d="M0 10606 l0 -1394 23 -6 c12 -3 66 -6 120 -6 53 0 97 -4 97 -9 0 -14
116 -61 172 -71 29 -4 71 -15 93 -24 45 -18 73 -22 195 -31 47 -4 97 -10 111
-15 20 -6 28 -4 37 11 7 11 17 19 23 19 22 0 88 64 103 99 8 20 23 44 33 53
45 41 123 139 123 155 0 18 151 163 170 163 36 0 22 -39 -36 -98 -31 -31 -63
-72 -71 -91 -8 -18 -23 -35 -33 -38 -11 -3 -17 -9 -14 -14 3 -5 -2 -12 -11
-15 -10 -4 -14 -13 -10 -22 6 -16 -49 -72 -72 -72 -7 0 -20 -16 -29 -35 -9
-19 -21 -35 -26 -35 -5 0 -6 -5 -3 -10 4 -6 2 -17 -5 -24 -11 -14 -9 -44 5
-78 5 -14 2 -18 -14 -18 -15 0 -21 6 -21 21 0 18 -2 19 -15 5 -8 -8 -15 -23
-15 -33 0 -15 2 -16 11 -3 8 11 12 12 16 3 2 -7 20 -13 39 -13 33 0 34 -1 34
-43 0 -31 -5 -46 -20 -57 -11 -8 -20 -20 -20 -27 0 -8 -13 -13 -34 -13 -19 0
-36 -6 -38 -12 -4 -10 -21 -7 -69 10 -68 24 -104 28 -113 13 -4 -5 3 -30 14
-56 14 -33 17 -52 10 -64 -9 -17 -3 -18 103 -13 96 4 114 2 126 -12 7 -9 20
-16 29 -16 8 0 13 -3 9 -6 -3 -3 17 -18 44 -33 72 -38 209 -142 209 -157 0 -8
6 -14 14 -14 7 0 16 -9 19 -20 7 -29 19 -25 63 20 21 23 50 47 64 54 34 19
135 32 126 17 -4 -6 -16 -11 -27 -11 -44 0 -8 -95 65 -170 21 -22 45 -40 54
-40 15 0 52 -36 52 -51 0 -4 -5 -11 -10 -14 -6 -3 -7 -17 -4 -31 8 -32 -10
-31 -42 4 -14 15 -32 35 -41 44 -20 22 -33 14 -33 -21 0 -18 12 -39 38 -64 21
-20 42 -37 47 -37 14 0 127 -57 134 -68 3 -5 53 -30 111 -56 58 -26 112 -51
120 -56 8 -6 34 -19 58 -30 24 -11 51 -27 60 -36 14 -14 34 -16 136 -11 120 5
178 17 206 43 12 12 11 14 -10 14 -14 0 -38 11 -53 24 -22 19 -27 29 -21 50 3
14 12 26 20 26 36 0 6 18 -77 44 -71 23 -93 34 -104 55 -7 14 -31 40 -52 58
-21 17 -72 63 -113 102 -115 108 -154 142 -173 152 -9 6 -17 16 -17 24 0 8 -8
19 -17 24 -28 16 1 13 35 -4 17 -9 40 -18 51 -20 51 -10 198 -88 231 -123 63
-67 99 -137 100 -189 0 -24 24 -32 36 -12 4 7 28 9 71 4 65 -7 154 2 135 14
-6 4 -10 34 -9 71 2 51 -2 73 -20 105 -27 47 -29 78 -7 96 11 9 14 23 11 48
-7 47 -29 135 -36 141 -14 12 -51 100 -52 121 0 13 -5 33 -10 44 -6 13 -7 -3
-3 -47 4 -45 3 -68 -4 -68 -6 0 -14 5 -17 10 -3 6 -15 10 -25 10 -13 0 -22 9
-26 28 -6 27 -71 188 -83 207 -4 6 -15 37 -25 70 -10 33 -29 81 -42 106 -17
34 -22 56 -18 78 5 24 3 31 -10 31 -13 0 -16 12 -16 65 0 37 -4 65 -10 65 -5
0 -10 6 -10 14 0 8 -5 16 -12 18 -8 3 -3 14 14 31 33 33 38 23 38 -79 0 -43 4
-74 10 -74 6 0 10 23 10 50 0 43 3 50 20 50 11 0 20 5 20 10 0 6 -9 10 -20 10
-13 0 -20 7 -20 20 0 11 -4 20 -10 20 -5 0 -10 9 -10 19 0 11 -6 21 -12 23 -9
3 -8 10 5 23 16 15 20 16 27 4 5 -7 13 -10 17 -5 4 5 2 11 -4 13 -20 7 -15 23
7 23 11 0 20 -4 20 -10 0 -5 8 -10 19 -10 11 0 23 -12 31 -30 10 -24 19 -30
41 -30 22 0 29 5 29 20 0 16 7 20 30 20 17 0 30 -4 30 -10 0 -18 35 -11 50 10
11 15 26 20 62 20 26 0 48 -4 48 -10 0 -5 9 -10 20 -10 13 0 20 -7 20 -20 0
-17 7 -20 39 -20 33 0 40 -4 43 -22 2 -17 9 -22 26 -21 16 2 26 -5 34 -22 6
-14 15 -25 20 -25 4 0 8 -7 8 -15 0 -8 5 -15 10 -15 6 0 10 -7 10 -15 0 -8 12
-18 28 -21 32 -8 96 -53 87 -62 -3 -4 -9 -2 -13 4 -5 7 -33 9 -82 5 l-75 -7
75 -5 c41 -3 91 -13 110 -22 19 -8 69 -17 110 -20 l76 -4 -4 36 c-2 20 -7 45
-11 56 -5 11 -14 69 -20 128 -6 60 -13 112 -16 118 -4 5 -15 9 -26 9 -11 0
-42 7 -70 16 -27 9 -58 14 -69 11 -11 -3 -20 -2 -20 2 0 4 -17 13 -37 20 -91
32 -206 120 -281 216 -53 67 -132 195 -132 214 0 12 11 26 29 36 66 33 78 69
36 107 -14 13 -52 48 -84 78 -32 30 -65 60 -73 66 -8 7 -23 23 -34 36 -10 13
-53 52 -94 87 -41 35 -82 75 -90 87 -9 13 -36 42 -62 66 -25 24 -61 68 -81 98
-19 30 -50 68 -68 85 -17 16 -39 45 -48 65 -9 19 -27 46 -40 60 -91 97 -147
150 -158 150 -8 0 -53 41 -101 91 -73 76 -190 172 -262 214 -10 6 -37 31 -62
55 -24 25 -59 52 -78 62 -19 9 -62 29 -95 44 -33 16 -75 44 -95 64 -19 20 -47
41 -62 48 -16 6 -28 19 -28 30 0 11 -9 27 -19 36 -11 10 -20 25 -20 34 -7 183
-7 190 6 185 8 -3 13 2 13 15 0 12 15 35 32 51 l32 30 -457 1 -457 0 0 -1394z
m2114 -1423 c2 -10 5 -40 5 -68 0 -27 5 -72 11 -100 6 -27 16 -77 22 -110 7
-37 19 -69 34 -85 12 -14 26 -38 29 -55 4 -16 17 -50 30 -75 23 -44 28 -75 26
-156 -1 -46 -21 -62 -50 -41 -103 72 -175 163 -185 234 -4 33 -58 93 -83 93
-24 0 -14 40 12 50 14 5 25 13 24 17 -3 21 2 33 16 33 11 0 15 13 16 53 1 28
4 42 6 30 2 -13 11 -23 19 -23 11 0 14 21 14 110 0 110 0 110 24 110 15 0 27
-7 30 -17z m-325 -721 c25 -20 66 -51 91 -67 53 -35 156 -112 185 -139 11 -10
43 -36 72 -57 71 -53 139 -117 132 -124 -12 -12 -61 16 -102 58 -44 46 -160
140 -212 172 -35 21 -138 106 -143 118 -2 4 -9 7 -16 7 -12 0 -46 32 -60 58
-13 22 7 13 53 -26z m77 -263 c24 -15 53 -21 106 -23 67 -2 77 -5 121 -39 27
-20 53 -37 58 -37 15 0 44 -34 58 -67 7 -17 19 -34 26 -37 8 -3 19 -14 24 -25
9 -16 8 -22 -7 -30 -15 -8 -29 -3 -68 23 -27 18 -76 50 -109 71 -33 21 -72 46
-87 56 -15 11 -31 19 -36 19 -5 0 -21 11 -36 25 -15 14 -32 25 -38 25 -14 0
-58 40 -58 52 0 12 10 10 46 -13z"/>
<path d="M1310 11983 c0 -9 10 -30 23 -47 13 -17 36 -53 52 -81 15 -27 49 -70
75 -95 204 -195 253 -240 260 -240 4 0 10 -7 13 -15 4 -8 23 -25 44 -38 21
-14 65 -51 98 -83 81 -78 202 -175 247 -198 20 -10 39 -24 42 -31 7 -19 110
-85 132 -86 24 0 87 -33 161 -84 32 -22 67 -43 78 -46 17 -4 20 -13 18 -49 -2
-30 3 -47 14 -55 15 -11 15 -21 3 -101 -7 -49 -12 -108 -11 -131 1 -30 -2 -43
-11 -43 -9 -1 -7 -5 5 -14 22 -17 22 -25 -5 -53 l-22 -23 19 -53 c21 -58 29
-67 66 -67 27 0 69 37 69 61 0 18 63 89 78 89 6 0 14 17 17 38 3 20 11 45 16
55 8 15 6 20 -11 24 -28 8 -22 35 13 51 15 7 27 18 27 23 0 6 9 31 21 56 21
45 21 47 3 60 -18 14 -18 15 -1 27 9 7 17 21 17 30 0 21 36 21 44 0 8 -22 8
-22 -11 -27 -20 -5 58 -11 97 -8 14 1 41 11 60 21 19 10 49 23 66 28 50 16
114 61 132 93 16 28 20 30 59 24 46 -7 54 0 57 47 5 72 74 76 194 11 48 -26
89 -50 90 -55 2 -4 8 -8 12 -8 14 0 75 -63 87 -90 6 -14 21 -61 33 -105 59
-207 59 -211 2 -201 -41 6 -62 -6 -55 -33 3 -12 -4 -24 -18 -34 -17 -13 -20
-19 -11 -30 7 -8 9 -17 6 -20 -3 -3 -3 -10 0 -16 7 -11 56 6 56 19 0 4 11 5
25 2 35 -6 118 -156 113 -204 -4 -38 -32 -48 -70 -25 -28 17 -98 29 -98 17 0
-5 12 -21 26 -35 20 -20 25 -33 22 -63 -3 -32 -7 -38 -33 -42 -24 -4 -29 -10
-27 -28 2 -17 -2 -22 -17 -22 -12 0 -21 7 -21 15 0 19 -19 19 -43 0 -29 -21
-18 -57 26 -80 39 -21 46 -32 51 -89 3 -36 47 -97 80 -109 9 -4 15 -11 11 -16
-3 -5 5 -13 17 -17 24 -7 58 -40 58 -56 0 -4 7 -8 15 -8 17 0 35 -30 35 -59 0
-12 5 -21 10 -21 6 0 16 -12 23 -27 13 -31 51 -73 65 -73 5 0 12 -9 15 -20 3
-12 14 -20 26 -20 14 0 21 -6 21 -19 0 -11 24 -44 54 -74 30 -31 51 -58 48
-61 -3 -3 13 -6 36 -6 27 0 42 -4 42 -13 0 -7 8 -20 18 -29 27 -25 52 -61 52
-75 0 -7 8 -22 17 -33 16 -19 18 -19 25 -3 4 11 7 2 7 -24 1 -28 6 -43 14 -43
20 0 39 -40 39 -82 -1 -37 0 -38 35 -38 33 0 35 -2 30 -27 -3 -15 0 -39 7 -53
6 -14 11 -60 11 -102 -1 -68 1 -78 17 -78 10 0 18 -4 18 -10 0 -5 7 -10 15
-10 8 0 15 -4 15 -10 0 -5 11 -10 25 -10 14 0 25 -4 25 -10 0 -5 9 -10 20 -10
17 0 20 -7 20 -40 0 -33 3 -40 20 -40 11 0 20 -4 20 -10 0 -5 18 -10 40 -10
22 0 40 5 40 10 0 18 29 10 35 -10 3 -11 12 -20 19 -20 8 0 19 -13 26 -30 7
-16 19 -30 26 -30 8 0 14 -4 14 -10 0 -5 15 -10 34 -10 29 0 34 -4 40 -30 5
-27 26 -43 26 -20 0 6 5 10 10 10 6 0 10 -13 10 -30 0 -32 16 -41 23 -12 4 16
5 16 6 0 1 -15 11 -18 71 -18 40 0 70 -4 70 -10 0 -5 -4 -10 -10 -10 -5 0 -10
-4 -10 -10 0 -5 7 -10 16 -10 9 0 22 -7 28 -15 6 -9 34 -18 63 -22 40 -4 54
-10 59 -25 3 -11 17 -23 30 -28 13 -5 24 -14 24 -20 0 -5 5 -10 11 -10 5 0 7
5 3 11 -4 8 1 9 17 4 33 -10 35 -13 21 -35 -10 -17 -10 -20 4 -20 26 0 221 39
301 61 39 10 83 19 96 19 15 0 33 10 44 24 11 13 28 25 39 28 15 2 20 15 25
54 8 65 30 97 86 129 55 30 63 31 91 5 12 -11 25 -20 29 -20 4 -1 22 -19 38
-40 17 -22 38 -42 48 -45 9 -4 38 -22 62 -41 47 -35 61 -40 84 -25 11 7 10 13
-8 32 -44 49 -71 88 -97 139 -15 30 -42 73 -59 96 -20 25 -36 61 -40 86 -3 24
-9 51 -11 61 -10 33 11 16 31 -26 10 -23 31 -60 46 -82 14 -22 31 -55 37 -73
7 -19 26 -50 43 -70 122 -143 121 -142 141 -131 14 8 23 8 31 0 6 -6 18 -11
26 -11 8 0 22 -6 30 -14 9 -7 33 -16 54 -20 37 -7 37 -7 37 27 0 19 3 49 6 66
6 27 3 33 -15 38 -11 3 -21 12 -21 20 0 20 55 10 82 -14 19 -17 24 -43 8 -43
-5 0 -10 -10 -10 -22 1 -29 79 -70 105 -55 16 9 42 0 121 -40 18 -9 39 -32 48
-50 31 -65 15 -123 -42 -153 -29 -14 -128 -15 -165 -1 -17 7 -35 7 -49 1 -20
-8 -18 -9 17 -11 38 -2 39 -2 7 -6 -18 -3 -36 -11 -39 -19 -3 -8 -10 -14 -15
-14 -6 0 -5 6 2 15 17 21 0 19 -57 -7 -41 -18 -45 -22 -25 -26 22 -3 23 -4 5
-17 -13 -9 -23 -10 -37 -3 -10 5 -32 7 -50 4 -17 -4 -51 -6 -74 -6 -51 1 -72
-13 -72 -46 0 -35 -21 -29 -53 16 -28 40 -29 40 -93 40 -51 0 -63 -3 -54 -12
41 -50 50 -63 50 -79 0 -10 9 -21 21 -24 11 -4 24 -18 29 -31 7 -16 17 -24 34
-24 13 0 26 -5 28 -11 6 -18 81 -40 90 -26 5 8 12 6 26 -6 10 -9 25 -17 33
-17 8 0 25 -7 38 -17 30 -20 111 -19 127 2 6 8 20 16 32 18 12 2 30 11 41 21
18 16 34 18 143 13 316 -12 567 -28 603 -38 22 -6 132 -13 245 -15 113 -2 214
-8 225 -13 11 -5 52 -17 90 -25 62 -14 71 -14 81 -1 6 8 22 15 34 15 33 0 130
-48 130 -65 0 -7 11 -27 25 -44 20 -23 27 -44 30 -93 5 -71 21 -198 24 -183 1
6 6 3 11 -5 9 -14 14 -149 10 -260 -1 -25 -2 -100 -3 -168 -1 -67 -5 -122 -9
-122 -4 0 -5 -6 -3 -13 3 -7 0 -35 -5 -62 -19 -84 -23 -215 -9 -287 9 -53 9
-82 0 -140 -19 -110 -24 -256 -11 -322 15 -76 38 -119 86 -157 22 -17 43 -37
47 -45 16 -28 67 -46 116 -40 79 11 74 37 62 -389 0 -11 0 -53 1 -93 1 -55 -3
-77 -16 -91 -21 -24 -56 -31 -87 -18 -13 6 -58 11 -99 11 -80 2 -187 29 -276
72 -28 13 -54 24 -58 24 -4 0 -31 18 -60 39 -29 22 -68 46 -87 54 -19 9 -52
34 -73 56 -22 23 -43 41 -48 41 -11 0 -58 76 -58 95 0 8 -7 15 -15 15 -11 0
-15 12 -15 50 0 33 -4 50 -12 50 -7 1 -32 18 -56 39 -44 38 -48 50 -78 201 -3
14 -9 39 -15 55 -16 52 -32 215 -34 360 -2 105 -21 596 -25 613 0 1 -7 2 -15
2 -8 0 -15 6 -15 14 0 8 -8 21 -19 28 -10 7 -21 23 -25 36 -6 18 -15 22 -47
22 -32 0 -39 3 -39 20 0 11 -4 20 -10 20 -5 0 -10 -9 -10 -20 0 -11 -4 -20
-10 -20 -5 0 -10 5 -10 10 0 6 -4 10 -8 10 -13 0 -33 -50 -26 -63 4 -7 4 -9
-1 -5 -4 4 -14 3 -22 -3 -16 -14 -17 3 -1 19 9 9 9 12 -3 12 -8 0 -23 -14 -33
-31 -15 -26 -16 -33 -5 -40 11 -7 11 -11 1 -21 -10 -10 -15 -10 -22 2 -7 11
-10 7 -10 -17 0 -22 -8 -38 -25 -51 -14 -11 -25 -25 -25 -30 0 -14 -42 -86
-52 -90 -4 -2 -8 -12 -8 -22 0 -10 -4 -21 -9 -24 -16 -11 -23 -59 -9 -68 9 -6
7 -8 -7 -6 -14 2 -22 -6 -31 -30 -6 -19 -16 -37 -22 -41 -16 -10 -32 -58 -26
-78 4 -12 3 -14 -3 -6 -6 8 -19 0 -44 -28 -19 -21 -32 -42 -28 -46 9 -9 -77
-186 -92 -191 -5 -2 -9 -9 -9 -16 0 -7 -10 -33 -23 -57 -13 -24 -45 -87 -71
-139 -27 -52 -52 -102 -57 -110 -5 -8 -43 -82 -85 -165 -41 -82 -82 -157 -90
-166 -8 -8 -14 -21 -14 -28 0 -11 -35 -86 -73 -156 -6 -11 -17 -32 -24 -46
-26 -51 -41 -57 -158 -60 -60 -2 -222 0 -360 4 -267 9 -295 14 -295 60 0 12
-4 28 -9 36 -13 20 7 93 30 109 11 8 18 20 15 27 -2 7 4 22 15 33 10 12 19 35
19 52 0 16 4 30 9 30 5 0 17 21 27 47 10 25 20 41 22 34 5 -14 32 34 32 56 0
7 8 41 18 73 12 44 22 60 35 60 12 0 17 8 17 29 0 16 5 31 10 33 6 2 11 14 12
28 1 14 7 32 14 40 17 20 44 96 44 124 0 11 11 43 24 71 13 27 31 66 40 85 9
19 23 46 31 60 34 60 67 149 71 194 3 27 12 62 21 79 11 22 12 32 4 35 -6 2
-11 14 -11 26 0 28 -28 53 -105 96 -66 36 -100 67 -111 102 -3 12 -17 30 -30
40 -12 10 -26 32 -29 50 -4 17 -16 40 -26 52 -11 11 -19 27 -19 37 0 9 -6 22
-14 28 -7 6 -16 29 -20 51 -3 22 -10 40 -15 40 -5 0 -19 16 -32 35 -13 19 -30
35 -36 35 -7 0 -13 5 -13 10 0 6 -5 10 -11 10 -6 0 -17 7 -25 15 -10 9 -11 15
-4 15 7 0 6 6 -4 15 -8 8 -23 15 -33 15 -14 0 -15 2 -4 9 11 7 10 10 -5 15
-11 3 -34 19 -52 36 -19 16 -42 32 -53 35 -10 4 -19 11 -19 16 0 16 -52 10
-65 -8 -12 -15 -15 -15 -48 0 -40 19 -67 22 -67 6 0 -14 -52 -7 -65 9 -12 15
-95 6 -95 -10 0 -6 -7 -7 -16 -4 -9 4 -22 2 -28 -3 -6 -4 -28 -11 -48 -15 -21
-4 -41 -13 -45 -20 -5 -7 -15 -16 -23 -20 -59 -29 -114 -63 -117 -73 -4 -11
33 -29 50 -25 4 1 7 -4 7 -12 0 -7 21 -31 48 -52 63 -51 132 -125 132 -141 0
-7 6 -13 13 -13 13 -1 87 -113 87 -133 0 -7 6 -21 14 -32 12 -18 22 -50 56
-185 5 -19 12 -63 15 -97 10 -103 -55 -373 -95 -398 -5 -3 -10 -15 -10 -26 0
-10 -4 -19 -10 -19 -5 0 -10 -8 -10 -17 0 -10 -14 -27 -30 -38 -16 -11 -30
-23 -30 -28 0 -13 -53 -67 -67 -67 -7 0 -13 -6 -13 -12 -1 -12 -31 -36 -130
-103 l-45 -30 -147 1 c-125 0 -150 3 -166 17 -18 16 -31 17 -150 7 -125 -10
-504 1 -574 16 -16 4 -28 5 -28 3 -1 -2 -3 -34 -6 -71 -5 -61 -4 -68 13 -68
10 0 97 -5 193 -10 96 -5 301 -14 455 -20 839 -31 846 -32 867 -64 11 -16 8
-452 -4 -521 -5 -33 -12 -106 -15 -162 -5 -125 6 -118 -196 -109 -78 4 -179 7
-224 6 -55 -1 -83 2 -83 10 0 8 -6 7 -22 -1 -14 -8 -54 -10 -122 -5 -56 3
-195 8 -311 11 -115 3 -330 10 -476 16 -146 5 -272 7 -281 4 -21 -8 -28 -36
-28 -112 0 -51 -4 -67 -24 -90 l-25 -28 1 185 c1 190 -12 320 -52 495 -25 112
-29 389 -5 399 47 18 59 155 20 249 -7 16 6 17 176 17 101 0 190 4 198 9 7 5
11 17 8 27 -3 11 -9 72 -12 136 -7 127 3 179 39 209 14 11 22 36 27 80 4 35
10 75 14 89 3 14 9 58 12 98 7 84 23 100 74 75 15 -8 47 -13 71 -13 24 1 64 1
89 0 30 -1 70 8 114 25 57 23 78 27 128 22 32 -3 64 -10 70 -16 6 -6 19 -11
29 -11 10 0 26 -8 36 -18 10 -10 35 -26 55 -36 36 -17 38 -19 34 -59 -2 -23
-2 -34 0 -24 2 9 13 17 24 17 12 0 19 7 19 20 0 11 5 20 10 20 6 0 16 12 22
28 7 15 17 34 24 42 21 27 22 77 2 91 -10 8 -18 18 -18 24 0 6 -10 17 -22 25
-12 8 -34 27 -48 42 -22 22 -40 28 -109 36 -95 12 -132 4 -259 -51 -46 -21
-91 -37 -102 -37 -10 0 -21 -4 -24 -9 -3 -5 -48 -22 -98 -39 -155 -49 -156
-49 -173 2 -16 46 -32 42 -39 -9 -4 -25 -8 -45 -9 -45 -1 0 -18 6 -37 13 -53
19 -80 41 -82 70 -3 30 -10 33 -30 13 -22 -21 -142 -76 -181 -83 -58 -9 -86 2
-86 35 0 15 -3 165 -6 335 -6 291 -5 307 12 313 44 13 48 20 45 69 -2 51 7 65
44 65 40 0 58 24 64 89 3 34 2 61 -3 61 -5 0 -6 15 -3 34 5 28 2 39 -19 60
-25 25 -34 56 -15 56 16 0 11 58 -5 68 -9 4 -16 17 -16 28 0 10 1 42 1 69 0
86 8 105 41 105 24 0 30 -5 37 -32 9 -38 52 -65 109 -70 36 -3 38 -5 35 -33
-2 -27 -30 -102 -54 -149 -8 -15 -6 -22 6 -31 9 -7 16 -20 16 -30 0 -13 5 -16
23 -11 12 4 59 10 104 13 72 5 82 8 87 27 12 46 6 83 -16 98 -19 13 -21 18
-10 31 7 8 10 28 7 45 -3 20 0 34 12 43 9 8 18 13 20 11 2 -1 14 0 28 4 23 6
25 10 19 43 -4 20 -13 45 -20 56 -8 11 -14 26 -14 35 0 8 -7 23 -15 33 -12 17
-18 17 -47 7 -29 -11 -39 -10 -64 3 l-29 16 51 1 c49 0 83 18 67 34 -4 4 13 4
37 0 25 -4 46 -11 48 -16 2 -4 14 -5 26 -2 27 7 81 -39 72 -62 -3 -9 1 -22 9
-30 8 -9 15 -11 15 -5 0 6 9 11 20 11 21 0 24 9 35 93 9 67 7 237 -2 251 -8
10 -9 28 -4 64 0 6 8 12 16 12 28 0 19 73 -12 106 -41 43 -76 120 -88 195 -4
24 -11 49 -15 54 -4 6 -12 32 -19 58 -11 45 -30 83 -56 114 -5 6 -23 29 -40
49 -16 21 -48 51 -70 66 -22 16 -56 44 -75 61 -46 42 -136 97 -263 159 -56 28
-110 58 -120 66 -38 33 -41 6 -29 -210 17 -287 16 -468 -2 -468 -25 0 -36 80
-50 355 -1 22 -7 30 -25 35 l-24 5 26 12 c30 14 27 37 -6 48 l-22 8 23 4 c21
4 22 9 22 104 0 54 -3 99 -7 100 -80 6 -93 14 -93 52 0 11 -9 21 -20 24 -11 3
-20 9 -20 14 0 18 31 21 48 7 9 -9 32 -18 50 -21 l32 -6 0 58 c0 84 -9 123
-29 119 -9 -2 -17 -15 -19 -33 -4 -31 -31 -59 -45 -45 -5 4 -11 25 -13 46 -3
22 -11 68 -18 104 -27 126 -28 157 -10 185 16 24 16 30 0 98 -15 65 -18 96
-16 164 0 17 10 25 42 35 l41 12 -29 13 c-16 6 -41 12 -56 13 -15 0 -29 4 -33
10 -3 5 -30 9 -61 9 -35 -1 -63 5 -80 16 -26 17 -65 17 -71 0 -6 -22 16 -39
50 -37 23 2 42 -4 58 -18 l24 -21 -40 6 c-22 4 -36 3 -32 -2 5 -4 41 -10 80
-13 68 -5 99 -22 58 -33 -21 -5 -46 -53 -55 -104 -5 -30 -3 -33 19 -33 14 0
25 -4 25 -9 0 -13 -27 -21 -45 -15 -21 9 -21 -69 1 -86 28 -24 41 -75 58 -218
21 -184 21 -209 -1 -215 -14 -3 -12 -6 10 -15 38 -16 42 -30 61 -207 2 -11 5
-27 9 -35 10 -26 27 -120 27 -151 0 -17 6 -51 14 -77 8 -26 21 -99 30 -162 9
-63 24 -159 32 -212 10 -59 13 -109 8 -125 -10 -37 -11 -75 -1 -90 5 -7 6 -22
2 -33 -5 -16 -2 -23 12 -26 14 -4 23 -21 32 -67 7 -34 15 -72 18 -84 4 -18 10
-22 29 -17 20 5 24 2 24 -15 0 -14 6 -21 18 -21 13 0 18 -8 17 -27 0 -21 -6
-29 -24 -33 -13 -3 -26 -12 -28 -20 -4 -13 -3 -13 6 0 18 26 23 3 5 -24 -19
-31 -23 -29 -35 16 -4 20 -5 -6 -2 -64 5 -81 3 -98 -8 -98 -8 0 -22 -9 -32
-20 -9 -11 -28 -20 -43 -20 -24 0 -25 3 -19 33 5 28 4 30 -8 15 -7 -9 -31 -18
-53 -20 -37 -3 -39 -5 -46 -43 -3 -22 -11 -60 -17 -84 -14 -53 -5 -121 17
-137 9 -7 43 -16 75 -19 l59 -7 -7 -122 c-4 -66 -8 -125 -9 -131 0 -5 12 -11
27 -13 27 -3 28 -6 25 -50 -3 -40 -6 -47 -25 -50 -35 -5 -43 -25 -50 -115 -6
-87 1 -157 17 -157 13 0 16 36 9 135 -6 90 1 125 24 125 8 0 8 -3 -1 -9 -10
-6 -9 -10 7 -14 19 -5 21 -12 21 -94 0 -77 -3 -90 -20 -103 -23 -16 -27 -32
-7 -24 8 3 15 -1 16 -8 6 -31 9 -306 4 -330 l-5 -27 -152 7 c-83 4 -205 7
-271 7 -112 -1 -125 -3 -200 -34 -73 -29 -207 -105 -237 -134 -7 -7 -51 -37
-98 -66 -47 -30 -107 -69 -135 -87 -119 -75 -346 -153 -509 -174 -121 -15
-307 16 -423 72 -102 50 -174 122 -226 230 -25 51 -50 107 -55 123 -9 27 -11
27 -11 7 -1 -13 6 -47 14 -75 8 -29 16 -70 19 -92 10 -98 56 -242 106 -338 92
-173 270 -266 270 -141 0 18 5 36 10 39 6 3 10 17 10 30 0 13 12 42 27 64 36
55 74 57 98 6 16 -33 16 -36 -10 -89 -27 -55 -77 -99 -140 -122 -74 -27 -187
29 -255 126 -13 19 -27 37 -30 40 -14 11 -68 129 -93 200 -20 60 -59 270 -93
508 -3 19 -11 32 -19 32 -9 0 -15 10 -15 23 0 13 -5 28 -11 34 -8 8 -9 32 -4
75 14 121 6 306 -17 396 -9 35 -8 46 4 60 9 9 19 28 23 42 19 62 60 124 129
194 41 42 82 76 90 76 9 0 16 6 16 14 0 8 -23 21 -57 32 -32 10 -64 24 -71 31
-7 7 -20 13 -27 13 -8 0 -22 11 -30 24 -9 13 -28 27 -42 30 -14 4 -43 27 -66
51 -22 25 -46 45 -54 45 -7 0 -13 8 -13 18 0 9 -13 26 -30 37 -16 11 -35 30
-41 42 -7 13 -17 23 -22 23 -6 0 -23 14 -39 32 -26 30 -28 37 -28 119 l0 87
-43 20 c-60 28 -77 33 -77 22 0 -6 -4 -10 -10 -10 -5 0 -10 6 -10 14 0 21 -93
29 -266 20 l-154 -7 0 -1514 0 -1513 24 6 c14 3 33 1 43 -5 15 -8 10 -10 -24
-11 -42 0 -43 -1 -43 -35 l0 -35 78 0 c42 0 149 5 237 10 101 6 163 6 169 0 5
-5 8 -12 5 -14 -2 -2 -103 -10 -224 -16 -121 -7 -230 -16 -243 -21 -17 -7 -22
-16 -22 -45 0 -27 4 -35 14 -31 23 9 36 -16 29 -57 -4 -26 -12 -40 -25 -44
-15 -4 -18 -15 -18 -78 0 -41 3 -74 8 -74 4 0 16 7 26 15 29 22 54 18 81 -11
58 -62 -2 -163 -74 -125 -11 6 -24 11 -30 11 -8 0 -11 -415 -11 -1396 l0
-1397 85 7 c80 6 85 5 96 -16 7 -13 18 -27 25 -33 30 -23 -3 -37 -92 -40 -49
-2 -91 -4 -92 -4 -2 -1 12 -17 32 -36 39 -38 44 -56 21 -75 -22 -18 -18 -35
11 -51 35 -18 43 -44 31 -93 -14 -57 -24 -66 -73 -66 -32 0 -44 -4 -44 -15 0
-11 11 -15 39 -15 22 0 43 -5 46 -11 5 -7 -7 -8 -39 -4 l-47 7 3 -73 3 -74 37
-9 c51 -13 49 -30 -2 -22 l-40 6 0 -66 c0 -64 1 -66 22 -59 13 3 55 9 94 12
81 6 106 -3 129 -47 17 -33 7 -45 -28 -36 -12 3 -29 0 -37 -5 -12 -9 -11 -10
6 -6 12 2 29 0 38 -5 14 -8 11 -15 -26 -52 -24 -24 -78 -69 -121 -101 -43 -32
-76 -60 -73 -62 11 -11 80 34 147 97 41 37 82 75 92 84 30 28 60 18 90 -31 14
-22 -24 -136 -59 -177 -19 -22 -34 -46 -34 -54 0 -8 -7 -26 -16 -42 -32 -54
-18 -61 113 -58 114 3 118 4 121 26 3 16 10 22 28 22 13 0 24 -4 24 -8 0 -5
11 -14 25 -20 19 -9 27 -8 40 4 19 19 19 25 0 50 -8 11 -15 14 -15 7 0 -7 -4
-13 -10 -13 -13 0 -13 37 0 42 18 6 -48 68 -78 74 -19 4 -37 19 -55 48 -15 24
-27 48 -27 55 0 6 -4 11 -10 11 -13 0 -13 41 0 74 8 23 16 26 57 27 27 1 39 3
28 6 -11 2 -30 6 -42 9 -27 5 -31 34 -5 35 9 0 36 0 59 -1 52 -2 55 11 8 30
-62 24 -55 27 143 47 117 11 291 -31 320 -78 11 -17 9 -19 -15 -20 -16 -1 -82
-5 -148 -9 l-120 -6 165 -2 c110 -1 170 -6 178 -14 8 -8 15 -8 28 3 13 10 102
15 416 22 220 5 401 7 404 4 10 -10 -9 -37 -27 -37 -12 0 -21 -9 -25 -25 -5
-18 -13 -25 -33 -26 -14 0 -20 -3 -13 -6 17 -7 15 -40 -4 -47 -27 -10 -199 -7
-211 5 -7 7 -40 4 -109 -10 -118 -24 -138 -30 -228 -66 l-68 -27 -47 22 c-46
21 -47 23 -45 63 l2 42 88 5 c103 6 100 16 -8 26 -82 7 -107 -3 -107 -42 1
-26 -29 -105 -47 -125 -8 -8 -14 -25 -14 -36 0 -25 -71 -85 -122 -103 -50 -18
-38 -30 30 -30 50 0 64 5 116 40 33 22 64 39 70 37 6 -2 12 -20 14 -40 3 -34
6 -37 35 -38 129 -2 327 -10 352 -14 17 -3 43 -16 58 -29 25 -21 27 -29 21
-61 -5 -27 -13 -39 -33 -47 -32 -12 -207 -11 -230 2 -10 5 -34 5 -57 0 -21 -5
-302 -11 -624 -14 -322 -2 -586 -5 -587 -5 -2 -1 -3 -16 -3 -35 0 -34 1 -35
43 -39 l42 -4 -42 -1 -43 -2 0 -305 0 -305 8000 0 8000 0 0 225 c0 124 -1 225
-2 225 -2 0 -45 -11 -96 -25 -138 -37 -307 -35 -503 4 -206 42 -446 58 -631
43 -316 -26 -531 -83 -673 -178 -56 -37 -78 -43 -186 -51 l-77 -5 -6 28 c-29
143 -35 298 -12 329 13 18 22 18 202 6 710 -44 1050 -69 1074 -76 8 -2 134
-11 280 -20 146 -9 315 -20 375 -25 61 -6 143 -10 183 -10 l72 0 0 168 0 169
-158 7 c-86 3 -172 4 -190 0 -34 -7 -46 10 -14 20 9 3 4 2 -13 -1 -16 -4 -187
-8 -380 -8 -192 -1 -415 -2 -495 -2 -80 -1 -204 -1 -276 -1 -74 0 -141 -5
-152 -11 -30 -16 -237 -5 -265 14 -29 20 -60 19 -81 -4 -10 -10 -35 -22 -57
-25 -21 -3 -56 -9 -78 -12 -37 -6 -38 -5 -44 28 -3 18 -13 73 -21 121 -9 48
-18 125 -21 172 -2 46 -6 89 -7 95 -2 7 6 17 17 23 11 7 22 15 25 18 3 3 12 9
20 12 8 3 1 6 -15 6 -17 1 -36 6 -43 13 -15 15 -16 53 -2 79 10 18 18 19 108
13 53 -4 108 -10 122 -14 23 -6 20 -9 -35 -38 -76 -40 -28 -41 60 -1 83 37
237 37 412 1 23 -5 44 -6 45 -1 2 4 131 3 288 -2 157 -6 351 -12 432 -15 157
-5 212 9 75 20 -456 35 -788 49 -824 35 -19 -7 -29 -7 -31 0 -2 6 -19 11 -38
11 -46 0 -43 15 8 41 34 17 52 20 102 15 34 -4 255 -8 491 -9 237 -2 408 -2
380 0 -27 3 -55 9 -61 14 -15 12 -121 13 -199 0 -46 -7 -75 -5 -125 6 -77 19
-89 20 -202 22 -71 1 -88 4 -88 16 0 11 12 15 49 15 28 0 53 5 56 10 4 6 -20
10 -64 10 -39 0 -71 -4 -71 -9 0 -6 -19 -14 -42 -19 -24 -5 -42 -14 -41 -20 2
-7 -9 -12 -28 -12 -18 0 -28 4 -24 10 5 8 -21 9 -82 5 -61 -5 -115 -2 -177 9
-114 21 -284 20 -398 0 -83 -16 -91 -16 -106 0 -13 13 -14 20 -6 34 9 13 28
18 95 20 59 2 89 8 101 19 26 23 15 31 -52 39 -40 4 -60 11 -60 20 0 11 33 12
178 7 97 -3 184 -9 192 -14 30 -16 -43 -33 -140 -32 -70 1 -90 -1 -76 -9 24
-13 55 -14 274 -4 139 7 182 12 182 22 0 20 53 26 187 21 78 -3 126 0 132 6 6
6 11 39 11 74 l0 63 41 0 c32 0 46 6 61 25 19 24 22 25 155 25 126 0 135 -1
140 -20 4 -13 17 -21 42 -26 20 -3 41 -7 47 -9 12 -4 24 -51 24 -97 0 -53 15
-68 63 -63 156 16 193 17 229 1 21 -9 37 -22 35 -28 -1 -7 7 -14 18 -16 11 -2
23 -9 26 -14 9 -15 99 -29 134 -22 17 3 42 13 56 22 25 14 26 15 8 33 -22 22
-42 90 -33 113 4 9 19 23 35 32 16 8 29 19 29 24 0 6 7 10 15 10 8 0 15 5 15
10 0 6 -4 10 -8 10 -9 0 -32 44 -32 62 0 7 16 8 48 4 34 -5 53 -15 70 -34 l22
-27 -3 1815 c-2 998 -4 1820 -5 1825 0 6 2 47 5 93 4 72 3 82 -12 82 -33 0
-138 121 -182 208 -22 46 -43 78 -45 71 -3 -9 -9 -9 -24 -1 -10 6 -18 14 -16
19 2 4 -5 10 -15 13 -14 4 -18 16 -20 53 -1 26 2 47 6 47 10 0 3 111 -9 125
-15 18 -31 67 -20 60 6 -3 10 -5 10 -3 0 2 -9 55 -20 118 -27 155 -36 300 -21
339 6 17 16 44 22 61 8 20 18 30 33 30 17 0 18 2 6 10 -13 8 -13 10 1 10 10 0
20 11 23 25 7 29 1 45 -18 45 -8 0 -19 7 -26 15 -17 20 -97 55 -126 55 -14 0
-24 6 -24 14 0 22 -61 69 -73 57 -13 -13 -47 14 -47 36 0 7 -10 13 -22 13 -13
0 -42 11 -65 24 -23 14 -53 28 -65 32 -20 6 -127 53 -136 60 -2 1 -5 8 -6 16
-2 7 -7 23 -12 35 -13 32 -2 162 15 172 8 5 14 26 14 50 0 23 4 41 9 41 4 0
13 11 18 26 10 26 50 80 107 147 18 20 33 44 33 53 0 8 25 40 55 71 36 36 55
64 55 80 0 13 7 26 15 29 10 4 13 13 10 25 -5 15 -1 19 15 19 17 0 21 5 17 20
-4 17 0 20 23 20 16 0 32 4 35 10 3 5 19 10 35 10 15 0 50 10 77 23 47 22 49
23 31 41 -13 14 -33 19 -78 20 -33 0 -60 4 -60 9 0 4 -9 7 -20 7 -11 0 -20 -4
-20 -10 0 -5 -4 -10 -10 -10 -5 0 -10 18 -10 40 l0 40 40 0 c22 0 40 5 40 10
0 6 9 10 20 10 11 0 20 5 20 10 0 6 -4 10 -10 10 -5 0 -10 16 -10 35 0 19 -4
35 -10 35 -5 0 -10 -7 -10 -15 0 -8 -4 -15 -10 -15 -5 0 -10 -9 -10 -20 0 -18
-7 -20 -80 -20 -73 0 -80 2 -80 20 0 13 -7 20 -20 20 -11 0 -20 -4 -20 -10 0
-6 -37 -10 -91 -10 -92 0 -119 -10 -119 -43 0 -8 -11 -18 -24 -21 -14 -3 -27
-14 -29 -24 -4 -14 -6 -14 -12 6 -9 27 -25 29 -25 2 0 -19 -7 -20 -180 -20
-153 0 -180 2 -180 15 0 8 -7 15 -16 15 -17 0 -44 23 -44 38 0 5 -14 15 -30
22 -16 7 -30 16 -30 21 0 5 -13 9 -30 9 -16 0 -30 5 -30 10 0 6 -9 10 -20 10
-11 0 -20 4 -20 10 0 6 -23 7 -60 3 -42 -4 -60 -2 -60 6 0 6 -17 11 -40 11
-29 0 -40 4 -40 15 0 12 16 15 80 15 73 0 80 2 80 20 0 18 -7 20 -80 20 -73 0
-80 2 -80 20 0 13 -7 20 -20 20 -13 0 -20 -7 -20 -20 0 -13 -7 -20 -20 -20
-13 0 -20 7 -20 20 0 11 -4 20 -10 20 -5 0 -10 7 -10 15 0 12 -16 13 -100 8
-89 -5 -100 -4 -100 10 0 10 -4 17 -10 17 -5 0 -10 7 -10 15 0 8 -4 15 -10 15
-5 0 -10 7 -10 15 0 12 -14 15 -70 15 -40 0 -70 -4 -70 -10 0 -5 -18 -10 -40
-10 -29 0 -40 4 -40 15 0 12 -16 15 -80 15 -64 0 -80 -3 -80 -15 0 -12 -16
-15 -80 -15 l-80 0 0 35 c0 34 -1 35 -40 35 -29 0 -40 -4 -40 -15 0 -10 -10
-15 -29 -15 -39 0 -61 -9 -61 -26 0 -8 -10 -14 -25 -14 -16 0 -25 6 -25 15 0
8 -4 15 -10 15 -5 0 -10 9 -10 20 0 13 -7 20 -20 20 -11 0 -20 6 -20 14 0 8
-9 18 -20 21 -11 3 -20 12 -20 20 0 8 -17 16 -42 20 -65 10 -78 15 -78 31 0 8
-4 14 -10 14 -5 0 -10 6 -10 14 0 21 -21 25 -147 28 -82 2 -113 6 -113 16 0 6
-7 12 -15 12 -9 0 -27 11 -40 24 -13 14 -34 27 -45 31 -11 3 -20 12 -20 19 0
17 -34 56 -49 56 -6 0 -11 7 -11 15 0 8 -6 15 -12 15 -9 0 -8 4 2 11 12 9 11
10 -7 6 -21 -5 -23 -1 -23 34 0 21 -4 39 -10 39 -5 0 -10 18 -10 40 0 22 -4
40 -10 40 -5 0 -10 9 -10 20 0 16 -7 20 -30 20 -23 0 -30 4 -30 20 0 16 -7 20
-30 20 -20 0 -30 5 -30 15 0 11 -8 13 -30 9 -19 -4 -30 -2 -30 5 0 6 -9 11
-20 11 -11 0 -20 6 -20 14 0 7 -13 19 -30 26 -16 7 -30 19 -30 26 0 8 -9 14
-20 14 -13 0 -20 7 -20 20 0 11 -4 20 -10 20 -5 0 -10 9 -10 20 0 11 -6 20
-14 20 -7 0 -16 9 -19 19 -3 13 -17 21 -46 26 -24 4 -41 12 -41 20 0 8 -9 17
-20 20 -11 3 -20 12 -20 19 0 8 -15 20 -32 27 -18 7 -43 24 -54 37 -12 12 -26
22 -30 21 -13 -4 -68 24 -77 38 -4 7 -23 15 -42 19 -21 4 -32 11 -29 19 3 7
-6 15 -24 18 -16 3 -42 17 -58 30 -16 14 -48 35 -71 47 -23 11 -44 28 -47 36
-3 8 -12 14 -21 14 -8 0 -15 4 -15 9 0 10 -42 27 -49 20 -2 -2 -7 6 -12 19 -5
12 -17 22 -28 22 -10 0 -21 7 -25 15 -3 8 -15 15 -26 15 -11 0 -20 5 -20 10 0
6 -6 10 -14 10 -7 0 -27 14 -44 30 -18 17 -39 30 -47 30 -8 0 -15 4 -15 8 0 8
-110 85 -194 137 -37 23 -86 59 -123 93 -14 12 -29 22 -32 22 -4 0 -31 23 -61
50 -30 28 -58 50 -62 50 -9 0 -107 90 -220 203 -38 37 -72 67 -76 67 -4 0 -16
14 -25 30 -10 17 -22 30 -27 30 -5 0 -28 18 -50 40 -22 22 -53 46 -69 54 -15
8 -33 22 -40 30 -19 22 -99 21 -124 -1 -13 -13 -43 -19 -105 -23 -115 -7 -178
6 -220 44 -18 16 -39 31 -46 32 -7 1 -39 28 -70 60 -76 76 -106 143 -106 235
0 39 4 69 10 69 6 0 10 10 10 23 1 53 27 107 76 156 28 28 50 52 48 54 -2 1
12 11 31 22 19 10 35 22 35 27 0 4 8 8 19 8 10 0 24 7 31 15 20 25 154 20 210
-7 25 -12 55 -26 68 -32 13 -5 31 -23 40 -38 9 -15 24 -30 33 -33 9 -3 24 -20
34 -38 9 -17 34 -45 54 -62 21 -16 38 -34 39 -40 2 -18 37 -16 213 11 141 21
217 27 399 29 228 3 323 -3 440 -30 36 -8 92 -18 125 -21 33 -3 68 -10 77 -15
9 -5 30 -9 47 -9 17 0 31 -4 31 -10 0 -5 24 -10 53 -10 28 0 75 -7 102 -16 74
-24 184 -44 237 -44 26 0 50 -5 53 -11 4 -6 13 -8 21 -5 8 3 14 0 14 -6 0 -7
18 -9 54 -5 30 3 57 3 60 -1 31 -30 230 -48 247 -22 8 13 10 13 18 0 8 -12 13
-11 29 8 24 27 32 28 32 2 0 -22 16 -27 23 -7 3 7 15 0 32 -20 18 -21 37 -33
53 -33 32 0 140 57 175 92 15 15 33 28 40 28 6 0 23 9 37 20 14 11 40 20 58
20 18 0 35 6 38 13 9 24 253 1 298 -28 25 -17 45 -23 81 -24 11 -1 28 -14 37
-32 10 -17 22 -27 28 -24 5 3 10 2 10 -3 0 -5 20 -17 45 -28 25 -10 45 -22 45
-26 0 -4 6 -8 13 -8 7 0 19 -9 27 -19 7 -11 18 -17 23 -14 5 3 13 -1 18 -8 6
-10 11 -11 17 -3 10 16 52 -1 52 -21 0 -18 16 -20 23 -2 3 6 6 -5 6 -25 1 -47
10 -68 27 -68 8 0 14 -9 14 -19 0 -10 7 -21 15 -25 8 -3 15 -1 15 5 0 17 21
-1 31 -28 5 -15 25 -31 49 -41 22 -9 40 -23 40 -29 0 -7 7 -14 15 -14 8 -1 18
-2 23 -3 4 -1 26 -6 49 -10 24 -4 45 -12 49 -17 3 -5 20 -9 38 -9 18 0 45 -9
59 -20 14 -11 33 -20 42 -20 9 0 24 -4 33 -9 9 -5 31 -11 47 -14 135 -23 245
-50 288 -70 29 -14 79 -27 111 -31 33 -4 64 -10 70 -15 6 -5 36 -16 66 -24 30
-8 111 -30 180 -50 126 -35 230 -61 285 -71 50 -10 197 -43 240 -54 61 -16
154 -35 170 -35 8 0 15 -3 15 -7 0 -4 33 -12 73 -19 39 -7 108 -20 152 -31 44
-10 104 -22 133 -25 l52 -7 0 956 0 956 -4051 0 c-3848 0 -4052 -1 -4066 -17
-14 -17 -14 -17 -9 0 5 16 -156 17 -3279 17 -3051 0 -3285 -1 -3285 -17z
m4018 -392 c20 -6 30 -6 27 0 -4 5 -1 9 5 9 7 0 14 -9 17 -20 3 -11 12 -20 19
-20 8 0 14 -4 14 -10 0 -14 198 -107 245 -115 21 -4 52 -13 68 -22 16 -8 72
-30 124 -49 53 -18 101 -37 107 -42 6 -5 49 -21 95 -36 47 -15 94 -34 105 -42
11 -8 26 -14 34 -14 7 0 28 -7 48 -15 19 -8 36 -13 38 -12 3 1 15 -7 28 -19
36 -32 88 -60 148 -78 54 -17 76 -26 135 -51 17 -8 48 -19 70 -25 40 -12 60
-19 105 -38 14 -6 45 -18 70 -26 25 -8 61 -21 80 -29 19 -8 71 -20 115 -27 77
-12 169 -49 224 -92 13 -10 31 -18 39 -18 9 0 23 -6 31 -14 9 -7 43 -21 76
-31 33 -9 94 -30 135 -45 41 -16 86 -31 100 -35 14 -4 34 -13 45 -19 11 -7 61
-27 110 -44 50 -17 110 -40 135 -51 25 -11 56 -21 71 -21 14 0 29 -4 35 -9 5
-6 27 -14 49 -20 164 -41 383 -108 400 -123 5 -4 18 -8 29 -8 11 0 27 -7 36
-15 16 -14 61 -30 165 -56 22 -6 49 -19 60 -29 12 -11 30 -21 40 -23 66 -12
150 -43 172 -64 21 -19 146 -56 187 -54 21 0 45 6 52 12 10 9 14 9 14 0 0 -21
3 -26 41 -63 23 -23 44 -35 53 -32 9 3 17 -2 21 -15 3 -12 11 -21 16 -21 5 0
9 -9 9 -20 0 -11 4 -20 9 -20 5 0 14 -13 19 -29 6 -16 21 -35 33 -42 13 -6 32
-20 42 -30 11 -10 24 -16 29 -13 4 3 8 -2 8 -10 0 -9 12 -19 26 -22 29 -7 64
-37 64 -55 0 -6 -6 -17 -14 -25 -11 -11 -16 -11 -19 -1 -3 7 -6 5 -6 -5 -1
-16 -15 -18 -174 -14 -96 3 -179 1 -186 -3 -10 -6 -82 12 -141 36 -8 3 -19 7
-25 7 -61 8 -95 20 -95 33 0 10 -6 12 -20 8 -11 -3 -20 -3 -20 2 0 5 -21 15
-47 22 -27 8 -66 19 -88 26 -22 7 -74 23 -115 35 -67 19 -230 72 -270 88 -8 3
-19 4 -23 3 -5 -1 -6 3 -2 9 6 10 5 11 -33 15 -44 4 -102 28 -102 42 0 7 -7
13 -16 13 -8 0 -45 15 -82 34 -37 19 -84 38 -104 41 -21 4 -38 11 -38 17 0 5
-4 7 -9 3 -5 -3 -15 0 -23 7 -14 14 -97 47 -138 56 -14 2 -31 10 -39 15 -7 6
-25 13 -39 15 -14 2 -37 11 -51 21 -14 10 -42 21 -61 25 -20 3 -62 20 -93 36
-32 17 -67 30 -77 30 -10 0 -21 4 -24 9 -3 5 -21 12 -40 15 -19 4 -45 15 -59
26 -13 11 -39 22 -58 25 -35 5 -62 15 -165 59 -34 14 -69 26 -77 26 -9 0 -36
8 -59 19 -95 42 -119 51 -133 51 -9 0 -23 4 -33 9 -27 14 -62 28 -137 56 -38
15 -108 42 -155 60 -47 19 -125 43 -175 55 -128 31 -153 39 -215 70 -31 15
-89 38 -130 50 -77 23 -135 45 -228 86 -29 13 -57 24 -63 24 -6 0 -43 16 -82
35 -39 19 -81 35 -93 35 -13 0 -25 4 -28 8 -7 12 -93 29 -211 43 -55 6 -116
17 -135 25 -39 17 -110 81 -110 101 0 6 -6 16 -13 20 -24 15 -37 64 -37 142 0
71 2 80 26 102 l26 24 -6 -25 c-7 -24 -6 -24 9 3 9 15 20 27 26 27 6 0 8 4 4
9 -16 28 182 52 253 32z m-2284 -512 c10 -14 29 -23 58 -26 l43 -5 -3 -43 c-3
-35 -7 -42 -21 -38 -10 2 -23 -3 -30 -11 -18 -22 -38 -20 -46 4 -3 10 -24 33
-46 50 -42 34 -50 63 -21 79 27 16 50 13 66 -10z m8232 -1890 c3 -5 15 -9 27
-9 26 0 77 -71 77 -107 0 -41 -28 -92 -62 -113 -44 -28 -135 -21 -189 14 -59
39 -90 136 -54 166 8 7 15 18 15 26 0 19 12 23 71 29 29 3 54 7 56 9 6 6 53
-6 59 -15z m-7700 -249 c21 0 24 5 24 40 0 38 1 40 31 40 l32 0 -6 -45 c-8
-55 -1 -75 27 -75 12 0 27 -9 34 -20 7 -11 19 -20 27 -20 22 0 19 -58 -5 -97
-11 -18 -24 -33 -28 -33 -17 0 -32 -51 -32 -108 -1 -57 -18 -97 -43 -97 -6 0
-12 -9 -13 -20 -2 -44 -5 -53 -35 -98 -30 -46 -31 -67 -4 -67 17 0 28 -31 19
-53 -5 -13 -17 -15 -67 -11 -33 3 -67 10 -74 16 -16 13 -17 52 -2 80 13 24 -4
41 -37 35 -18 -3 -19 -1 -10 20 8 16 20 23 41 23 29 1 29 1 10 15 -52 37 -60
58 -22 53 27 -4 36 16 8 20 -20 3 -35 27 -26 42 2 4 16 5 30 2 32 -6 32 11 0
26 -30 14 -35 47 -5 39 10 -3 24 1 30 8 9 10 6 14 -12 17 -15 2 -24 11 -26 26
-3 20 0 23 17 17 15 -5 21 -2 21 9 0 9 -9 16 -20 16 -13 0 -20 7 -20 20 0 13
7 20 18 20 32 0 33 13 2 26 -41 18 -40 44 3 44 18 0 38 -5 45 -12 13 -13 15
-8 6 16 -4 10 -18 16 -40 16 -27 0 -34 4 -34 20 0 16 7 20 35 20 19 0 35 5 35
10 0 6 -9 10 -21 10 -29 0 -59 18 -59 35 0 11 8 13 33 8 17 -3 37 -10 43 -15
8 -6 14 3 20 29 l7 38 10 -42 c8 -36 14 -43 33 -43z m-231 -1049 c-5 -23 -2
-32 15 -44 l21 -15 -23 -16 c-20 -15 -23 -24 -23 -89 0 -70 -1 -72 -25 -72
-22 0 -25 4 -27 40 0 22 1 82 4 133 l6 92 29 0 c27 0 29 -2 23 -29z m5943
-236 c9 -20 19 -25 50 -25 27 0 45 7 58 21 21 23 16 23 208 -1 64 -9 91 -9 99
-1 22 22 46 11 73 -34 19 -34 32 -45 50 -45 18 0 24 -6 24 -21 0 -11 5 -17 10
-14 6 4 8 10 5 15 -12 19 15 50 43 50 15 0 49 7 76 15 63 19 94 19 131 -1 26
-14 72 -17 315 -18 273 -1 286 -2 315 -22 40 -28 119 -64 142 -64 10 0 54 -18
98 -40 44 -22 86 -40 93 -40 6 0 12 -6 12 -13 0 -6 13 -18 30 -25 28 -13 51
-34 100 -91 11 -13 20 -21 20 -17 0 13 38 -29 54 -61 9 -18 16 -49 16 -70 0
-26 8 -47 24 -66 14 -16 23 -34 20 -40 -6 -17 10 -38 31 -41 30 -4 28 -22 -3
-35 -29 -12 -33 -27 -17 -64 8 -20 -9 -67 -25 -67 -5 0 -10 -7 -10 -16 0 -8
-13 -26 -29 -40 -17 -14 -33 -33 -36 -43 -3 -11 -16 -21 -28 -25 -17 -4 -19
-8 -10 -17 10 -10 8 -20 -8 -46 -11 -18 -18 -37 -14 -43 4 -6 -10 -27 -30 -47
-31 -31 -40 -35 -70 -30 -33 5 -41 0 -36 -27 4 -20 -11 -45 -32 -50 -12 -3
-33 -15 -46 -26 -29 -24 -24 -31 46 -69 26 -14 52 -36 58 -48 6 -12 38 -42 72
-66 44 -33 65 -56 77 -88 10 -23 23 -48 31 -53 7 -6 26 -35 41 -65 23 -45 28
-69 31 -145 2 -50 4 -118 6 -151 2 -33 0 -67 -4 -75 -28 -62 -39 -93 -39 -107
0 -37 -68 -81 -84 -54 -3 4 -24 8 -47 8 -29 0 -46 6 -56 19 -10 14 -16 15 -25
6 -13 -13 -11 -15 31 -41 17 -10 5 -51 -15 -51 -25 0 -16 -45 15 -67 40 -31
45 -58 13 -79 -15 -10 -41 -32 -58 -50 -26 -29 -62 -49 -99 -58 -5 -2 -32 -13
-58 -24 -27 -12 -54 -22 -61 -22 -7 0 -16 -4 -21 -9 -6 -5 -26 -12 -46 -16
-33 -6 -38 -4 -66 32 -16 21 -33 46 -36 56 -4 9 -11 17 -17 17 -15 0 -13 -7
11 -39 11 -16 19 -39 17 -51 -6 -44 -67 -43 -197 4 -24 9 -62 16 -85 16 -22 1
-61 5 -85 9 -49 10 -149 -1 -233 -25 -112 -31 -134 -35 -180 -29 l-48 7 0 223
c0 168 3 226 13 232 21 13 297 3 356 -13 50 -14 57 -14 87 2 31 17 34 17 52 1
23 -21 46 -22 61 -3 6 8 33 19 59 25 66 17 112 39 112 56 0 20 43 29 69 16 11
-6 28 -25 38 -41 14 -24 24 -30 51 -30 42 0 38 17 -9 43 -19 10 -39 25 -45 33
-8 10 -10 71 -6 200 5 195 4 203 -39 204 -10 0 -39 15 -65 33 -60 40 -130 52
-374 67 -345 20 -359 22 -364 36 -4 10 -9 333 -7 433 l1 24 103 -8 c264 -19
423 -22 502 -9 100 16 109 19 125 50 7 13 18 24 24 24 16 1 54 89 60 140 2 24
0 63 -6 86 -10 35 -16 42 -36 42 -23 0 -46 19 -54 44 -13 37 -255 67 -549 68
-174 0 -202 -6 -223 -45 -26 -48 -29 -326 -4 -376 28 -57 30 -69 31 -213 2
-104 -1 -140 -10 -143 -7 -3 -13 -11 -13 -19 0 -8 -4 -14 -9 -14 -20 0 -38
-105 -51 -290 -13 -179 -21 -224 -53 -292 -15 -31 -24 -64 -21 -73 4 -9 0 -21
-9 -28 -9 -7 -23 -38 -32 -70 -13 -44 -23 -60 -41 -67 -13 -5 -24 -14 -24 -20
0 -5 -9 -10 -20 -10 -11 0 -20 -7 -20 -15 0 -33 -31 -73 -79 -104 -27 -18 -52
-38 -55 -46 -2 -7 -47 -34 -98 -58 -117 -56 -281 -93 -369 -83 -32 4 -67 3
-76 -2 -25 -14 -80 -3 -88 17 -20 52 -27 506 -8 558 7 17 46 24 83 13 52 -15
94 6 182 90 73 70 79 79 88 133 7 36 12 343 14 840 l2 782 22 43 c12 23 29 42
38 42 8 0 17 7 20 15 10 25 59 19 72 -10z m2512 -160 c198 -5 216 -7 232 -25
9 -11 23 -20 31 -20 19 0 27 -21 28 -78 1 -44 1 -45 10 -17 5 17 8 44 7 60 -4
58 -4 58 211 51 108 -4 228 -12 266 -18 39 -5 111 -11 160 -12 110 -3 414 -25
475 -34 l45 -7 6 -75 c4 -41 7 -132 8 -201 1 -166 3 -164 -140 -150 -57 6
-198 13 -314 15 -115 3 -246 9 -290 14 -44 5 -151 8 -239 5 -111 -3 -162 0
-172 8 -9 7 -14 33 -15 73 0 33 -4 79 -8 101 -7 38 -8 36 -15 -36 -7 -63 -11
-77 -29 -85 -22 -9 -22 -13 -22 -239 0 -126 2 -284 4 -350 2 -82 -1 -121 -8
-123 -6 -2 -18 -18 -25 -36 -8 -19 -27 -39 -46 -48 l-33 -16 31 -7 c18 -3 35
-4 40 -1 4 2 14 1 22 -4 13 -8 15 -75 14 -457 -1 -246 -2 -461 -3 -478 -1 -16
1 -59 5 -95 11 -106 -24 -160 -102 -160 -17 0 -27 8 -34 25 -9 25 -11 25 -39
10 -41 -21 -61 -19 -61 5 0 18 -5 20 -38 14 -29 -4 -41 -2 -52 11 -17 20 -3
48 26 53 34 7 82 33 88 48 3 9 1 24 -4 35 -9 16 -18 18 -63 13 -48 -6 -53 -4
-64 17 -22 44 -20 75 6 84 11 3 21 12 24 19 7 17 -35 10 -90 -16 -61 -28 -68
-40 -38 -68 27 -26 33 -60 11 -60 -37 0 -53 -74 -20 -87 21 -8 17 -51 -5 -62
-20 -11 -32 -3 -44 31 -3 9 -21 21 -39 26 -25 6 -36 16 -45 43 -15 43 -17 204
-2 230 7 15 7 24 -1 35 -28 33 -29 804 -2 837 9 11 9 22 -2 49 -15 36 -25 305
-12 326 4 6 21 8 41 5 30 -5 36 -2 44 18 6 17 5 26 -5 32 -17 10 -18 59 -2 75
7 7 22 12 35 12 19 0 23 -5 23 -30 0 -16 5 -30 10 -30 6 0 10 9 10 21 0 12 8
23 20 26 23 6 36 41 22 55 -7 7 -21 7 -42 -1 -37 -13 -50 -8 -50 20 0 23 -5
23 -53 0 -29 -13 -35 -20 -23 -24 25 -10 21 -63 -6 -70 -12 -3 -24 -4 -28 -2
-9 5 -12 158 -4 207 5 32 10 38 42 46 23 6 29 10 16 11 -27 1 -47 24 -42 48 4
20 71 57 76 42 2 -5 8 -7 13 -3 15 9 10 56 -7 75 -14 16 -15 23 -4 49 23 56
93 71 111 24 5 -15 12 -24 16 -21 6 7 5 169 -2 175 -4 5 -62 -25 -98 -50 -27
-19 -27 -21 -11 -39 15 -17 14 -20 -21 -53 -38 -37 -72 -53 -83 -41 -13 13 -4
235 9 252 11 12 26 14 79 9 36 -4 162 -9 280 -11z m2529 -174 c13 -11 21 -24
18 -28 -3 -5 -2 -24 3 -43 l8 -35 2 35 c1 19 2 40 1 47 -1 7 9 19 21 27 22 14
47 13 213 -8 28 -3 106 -25 130 -36 11 -5 39 -14 62 -20 23 -6 45 -15 49 -21
3 -6 27 -19 52 -30 25 -11 60 -32 77 -47 49 -40 78 -62 85 -62 4 0 7 -6 7 -13
0 -18 55 -87 69 -87 14 0 58 -91 69 -140 4 -19 15 -51 25 -70 19 -36 31 -81
31 -115 0 -10 4 -24 8 -30 11 -12 -4 -54 -21 -60 -7 -3 -112 -9 -233 -14 -176
-7 -224 -6 -241 4 -22 14 -43 75 -48 140 -3 31 -12 46 -42 72 -22 19 -47 41
-56 50 -29 26 -66 42 -145 60 -56 13 -78 23 -84 38 -5 11 -15 76 -23 145 l-14
125 0 -110 c0 -124 -10 -161 -47 -175 -43 -16 -136 -12 -157 7 -18 16 -21 14
-74 -43 -95 -101 -113 -149 -80 -212 20 -38 90 -112 107 -112 8 0 28 -8 44
-18 34 -21 249 -91 375 -122 199 -50 291 -83 434 -156 79 -40 105 -59 121 -87
40 -70 76 -118 85 -112 19 12 21 -18 1 -31 -29 -21 -26 -41 7 -49 29 -6 101
-73 121 -112 6 -13 9 -34 5 -47 -3 -13 -1 -33 5 -43 14 -28 -6 -60 -54 -86
-22 -12 -41 -22 -41 -22 -1 0 -5 -10 -8 -22 -7 -21 -4 -22 51 -25 l58 -3 3
-52 c2 -36 -3 -65 -17 -97 -12 -25 -21 -52 -21 -61 0 -25 -19 -55 -34 -55 -15
0 -26 -21 -26 -47 0 -9 -11 -31 -25 -49 -14 -18 -25 -39 -25 -46 0 -19 -36
-48 -60 -48 -16 0 -19 8 -22 52 -3 61 -26 75 -58 36 -25 -30 -25 -38 1 -38 25
0 43 -17 51 -48 5 -18 -1 -27 -30 -47 -41 -28 -72 -32 -72 -11 0 8 -5 18 -11
22 -8 4 -9 -3 -4 -24 6 -28 3 -33 -27 -49 -25 -14 -53 -18 -120 -17 -75 1 -88
-1 -88 -15 0 -9 -10 -22 -22 -30 -28 -18 -173 -28 -182 -12 -5 8 -16 7 -37 -5
-47 -24 -69 -11 -69 41 0 59 8 75 37 75 37 0 63 18 63 44 0 34 -9 37 -41 14
-24 -18 -31 -19 -44 -8 -10 8 -15 25 -13 44 2 25 8 32 31 34 37 4 36 34 -3 62
-24 17 -30 29 -30 60 0 42 10 50 66 50 20 0 44 5 55 11 15 7 24 7 35 -2 21
-17 17 -28 -12 -39 -39 -15 -22 -25 36 -21 l51 3 -3 42 c-2 36 0 41 19 44 14
2 33 -7 48 -23 31 -30 46 -25 39 14 -5 23 -2 30 15 36 25 7 27 27 6 45 -21 17
-19 31 11 93 15 33 35 59 50 66 18 8 24 18 22 34 -2 18 -9 22 -40 22 -41 0
-74 25 -65 48 3 8 23 17 44 21 21 3 47 13 57 21 18 14 18 15 -4 33 -19 15 -47
21 -129 25 -58 4 -116 9 -128 13 -24 7 -30 33 -12 51 19 19 -38 42 -148 60
-30 5 -33 3 -33 -20 0 -32 -20 -39 -67 -23 -42 14 -53 33 -26 43 22 8 43 35
36 46 -2 4 -18 -2 -34 -14 -57 -41 -111 -37 -274 17 -133 44 -173 60 -189 77
-10 9 -28 17 -41 17 -12 0 -37 14 -55 30 -18 17 -35 30 -40 30 -4 0 -15 9 -25
20 -10 11 -23 20 -30 20 -7 0 -20 18 -30 40 -10 22 -24 40 -30 40 -7 0 -19 10
-28 23 -8 12 -23 31 -34 42 -41 44 -60 317 -37 530 10 87 23 116 79 167 19 17
35 36 35 42 0 15 123 95 188 122 29 11 55 24 59 28 3 3 21 6 39 6 18 0 35 4
38 9 11 17 206 47 322 50 47 1 66 -3 83 -18z m-10749 -818 c0 -14 -6 -23 -15
-23 -9 0 -15 -9 -15 -24 0 -19 6 -25 27 -28 14 -2 28 -9 31 -15 2 -9 -11 -13
-49 -13 -28 0 -81 -5 -116 -12 -75 -14 -83 -9 -83 60 0 39 3 44 38 60 20 9 39
20 42 23 3 4 25 11 50 16 53 11 89 -7 90 -44z m8615 10 c26 -41 50 -53 41 -20
-3 13 0 31 7 39 10 14 31 15 162 6 83 -5 273 -15 424 -21 230 -11 275 -16 285
-29 7 -9 23 -18 36 -20 18 -2 26 -11 31 -35 10 -53 10 -322 -1 -342 -9 -17
-24 -19 -162 -21 -84 0 -274 4 -423 11 -224 9 -274 14 -295 28 -24 16 -27 16
-60 -1 -47 -23 -77 -22 -92 2 -7 11 -20 20 -30 20 -14 0 -16 13 -16 103 1 73
-4 112 -16 139 -16 37 -16 38 10 54 22 15 25 22 19 51 -13 72 41 97 80 36z
m-9647 -130 c34 -22 107 -81 177 -145 52 -48 137 -189 122 -204 -4 -4 -8 -5
-10 -3 -91 125 -229 282 -302 343 -35 29 -28 34 13 9z m-2 -85 c48 -45 144
-174 144 -192 0 -7 -35 10 -54 25 -22 18 -88 60 -125 79 -21 10 -53 31 -70 46
-28 23 -30 28 -18 43 8 9 17 24 20 34 11 30 47 18 103 -35z m-208 12 l23 -29
-33 -9 -32 -8 47 -33 c26 -17 47 -38 47 -46 0 -17 16 -20 25 -5 18 29 95 -3
165 -67 14 -13 32 -25 41 -28 26 -9 118 -203 102 -219 -3 -2 -23 13 -45 35
-22 21 -41 39 -44 39 -2 0 8 -21 21 -46 30 -56 30 -54 5 -54 -11 0 -20 4 -20
9 0 9 -125 61 -146 61 -19 0 -74 31 -74 41 0 7 20 8 55 4 30 -4 55 -5 55 -3 0
2 -21 20 -46 39 -42 31 -45 37 -40 68 9 58 -23 101 -72 93 -34 -5 -42 -25 -22
-61 10 -19 -8 -43 -39 -53 -9 -2 -4 -13 17 -33 39 -39 54 -101 36 -145 -18
-41 -18 -65 0 -79 19 -16 27 -76 16 -130 -5 -25 -11 -92 -14 -148 -5 -94 -4
-103 12 -103 10 0 23 -5 30 -12 13 -13 12 -14 16 55 1 16 7 31 13 35 10 6 16
107 13 222 -2 56 8 80 32 80 20 0 20 1 4 19 -10 11 -28 22 -42 25 -35 9 -34
56 1 56 45 0 94 -28 150 -85 51 -51 54 -57 39 -72 -10 -10 -14 -25 -10 -42 3
-14 8 -91 10 -171 3 -80 9 -179 14 -220 12 -97 -5 -219 -28 -205 -4 3 -23 -6
-41 -18 -35 -23 -42 -50 -24 -90 9 -22 3 -29 -19 -21 -10 4 -16 18 -16 36 0
29 -2 30 -30 25 -16 -4 -30 -3 -30 1 -6 136 -11 158 -51 234 -5 10 -6 24 -3
33 3 8 1 15 -5 15 -6 0 -11 -7 -11 -15 0 -9 -7 -26 -15 -39 -9 -13 -18 -35
-19 -47 -2 -13 -9 -58 -16 -100 l-12 -76 -77 -7 c-94 -8 -138 -22 -151 -47 -6
-10 -17 -19 -25 -19 -8 0 -20 -8 -27 -17 -15 -21 -48 -48 -48 -40 0 3 11 18
25 33 28 30 32 46 11 38 -11 -4 -16 4 -18 31 -3 36 -5 37 -44 40 -23 2 -52 9
-64 15 -21 11 -27 8 -65 -34 -22 -25 -44 -46 -48 -46 -16 0 -5 48 18 82 14 20
25 44 25 53 0 42 62 107 82 87 13 -13 45 -4 52 16 3 10 9 22 12 29 8 17 -27
21 -64 6 -30 -12 -38 -12 -70 4 -31 15 -37 23 -34 46 1 15 -2 27 -8 27 -5 0
-10 21 -10 46 0 42 -3 47 -30 57 -28 10 -30 15 -30 60 0 26 -7 64 -15 84 -8
19 -15 48 -15 63 0 16 -5 30 -11 32 -16 5 -41 103 -48 188 -5 65 -4 78 15 105
31 45 97 110 130 127 127 67 148 81 137 92 -7 7 75 45 97 46 8 0 38 16 67 36
31 21 81 43 123 54 40 10 74 21 78 24 9 10 16 6 40 -24z m1267 -20 c78 0 108
-11 87 -32 -6 -6 -12 -31 -12 -54 0 -33 5 -47 22 -58 l22 -16 -22 0 c-12 0
-22 4 -22 9 0 5 -17 12 -37 16 -21 4 -40 10 -43 14 -3 4 -30 20 -60 35 -30 16
-75 44 -100 64 l-45 35 70 -7 c39 -3 102 -6 140 -6z m10336 -606 c27 -58 49
-109 49 -114 0 -21 36 -50 61 -50 15 0 32 -7 39 -15 23 -28 152 -85 192 -85
32 0 40 -5 53 -30 13 -24 13 -34 4 -53 -9 -15 -12 -71 -11 -172 1 -82 -1 -158
-4 -167 -8 -26 -37 -22 -67 8 -21 21 -32 25 -54 19 -16 -4 -41 -6 -58 -6 -16
1 -51 1 -77 1 -55 -1 -173 33 -237 67 -24 13 -50 23 -57 23 -20 0 -35 36 -28
65 5 19 2 25 -9 25 -9 0 -19 -4 -22 -10 -3 -5 -21 -10 -39 -10 -25 0 -35 6
-44 24 -6 13 -33 43 -61 67 -30 25 -51 52 -51 64 0 11 -12 40 -26 65 -60 102
-84 162 -90 218 -6 55 -5 59 20 75 33 22 33 35 1 47 -28 11 -33 35 -9 44 9 3
86 6 171 5 85 0 156 1 158 3 2 2 36 1 75 0 l72 -4 49 -104z m-10819 -26 c3 -7
24 -17 49 -23 l44 -11 0 -239 c0 -211 -3 -255 -24 -360 -13 -66 -22 -146 -21
-177 1 -47 -2 -58 -14 -58 -9 0 -16 9 -16 20 0 13 -7 20 -20 20 -11 0 -20 6
-20 13 0 8 7 14 15 14 8 0 15 -4 15 -9 0 -5 8 -2 17 7 16 16 16 18 0 27 -9 5
-17 19 -17 31 0 13 -9 30 -19 39 -29 25 -19 108 28 222 13 32 13 40 2 44 -23
8 -81 64 -81 78 0 8 7 17 15 20 8 4 15 16 15 28 0 15 9 27 25 34 30 14 32 33
5 52 -11 8 -20 22 -20 30 0 9 -5 21 -11 27 -17 17 -17 146 0 166 16 20 28 22
33 5z m9234 -169 c26 1 46 -4 54 -14 16 -19 29 -19 67 0 25 12 54 13 194 5
157 -10 165 -12 182 -35 24 -32 54 -33 53 -2 -1 20 4 22 65 25 56 2 76 -2 124
-24 l58 -28 18 22 c21 27 99 31 119 7 16 -19 17 -412 1 -428 -6 -6 -72 -7
-178 -3 -92 4 -208 6 -258 6 -49 -1 -101 3 -116 8 -16 6 -31 7 -42 1 -11 -7
-24 -5 -42 7 -20 13 -29 14 -38 5 -6 -6 -37 -11 -68 -11 -54 0 -57 1 -62 29
-4 18 -14 31 -29 35 -35 9 -60 7 -53 -4 3 -5 14 -10 24 -10 10 0 21 -9 24 -19
4 -15 -2 -22 -22 -29 -31 -11 -61 1 -61 23 0 9 -10 15 -24 15 -33 0 -40 27
-21 84 l16 47 -30 28 c-24 22 -31 38 -31 66 0 44 -23 44 -27 0 -1 -15 -7 -33
-13 -39 -14 -14 -13 -20 10 -46 11 -13 20 -35 20 -50 0 -15 3 -48 6 -74 l7
-46 -60 0 c-75 0 -85 10 -96 99 -12 102 -10 132 12 162 29 38 27 59 -4 59 -14
0 -25 2 -25 4 0 2 -3 11 -6 20 -4 11 0 16 14 16 12 0 44 5 72 11 48 10 50 12
50 43 0 42 8 49 45 40 16 -4 48 -6 71 -5z m-9892 -545 c23 -9 28 -39 18 -126
-8 -75 -7 -78 13 -78 12 0 29 -6 38 -13 16 -11 16 -14 2 -35 -21 -30 -34 -28
-46 7 -7 21 -19 30 -41 35 -60 12 -101 6 -132 -18 -29 -21 -43 -24 -208 -30
-98 -4 -182 -4 -188 -1 -9 6 39 71 100 135 8 9 26 30 40 47 38 47 78 76 119
84 40 9 258 3 285 -7z m7521 -24 c121 -5 486 -17 810 -26 334 -10 593 -21 596
-26 7 -11 23 -263 20 -317 -1 -18 3 -86 8 -150 6 -64 12 -153 13 -198 3 -92 2
-94 -86 -138 -36 -18 -41 -25 -41 -54 0 -41 -18 -50 -42 -22 -28 34 -61 26
-107 -24 -23 -25 -49 -45 -58 -45 -17 0 -28 -28 -28 -72 0 -33 -16 -45 -23
-18 -3 13 -14 20 -29 20 -30 0 -44 -10 -53 -39 -8 -26 12 -74 27 -65 5 4 19
-3 31 -14 22 -19 65 -38 80 -34 4 1 7 -2 7 -7 0 -15 139 -12 170 4 34 18 130
29 147 17 17 -11 33 -99 33 -178 l0 -63 -47 -7 c-76 -11 -1781 20 -1865 34
-39 7 -41 10 -53 56 -9 36 -13 222 -14 708 -1 362 1 664 5 670 5 8 47 9 143 4
75 -4 235 -11 356 -16z m-9483 -67 c23 -21 25 -104 2 -127 -17 -18 -60 -21
-69 -6 -3 6 -13 10 -22 10 -20 0 -63 39 -63 56 0 18 89 84 113 84 11 0 29 -7
39 -17z m10925 -924 c19 -7 23 -16 23 -52 0 -40 -4 -46 -44 -75 -24 -18 -56
-32 -71 -32 -14 0 -47 -9 -73 -19 -26 -11 -59 -22 -74 -25 -71 -16 -43 95 30
118 11 4 37 30 57 58 l36 50 46 -7 c26 -4 57 -11 70 -16z m-10687 -612 l45
-22 -3 -85 c-2 -47 -10 -117 -18 -157 -8 -40 -14 -82 -14 -95 0 -41 23 -1 32
54 22 155 28 185 37 211 6 15 16 27 22 27 24 0 106 -80 129 -127 36 -70 35
-171 -1 -233 -15 -25 -39 -58 -53 -73 -14 -15 -26 -32 -26 -38 0 -5 -34 -9
-75 -9 -65 0 -75 2 -75 18 -1 16 -1 16 -14 -1 -12 -16 -30 -17 -177 -15 l-164
3 0 150 c0 233 8 312 37 342 27 30 53 42 128 59 83 19 139 16 190 -9z m1471
-1052 c31 -46 39 -82 29 -134 -13 -62 -52 -245 -57 -268 -4 -19 -12 -23 -46
-23 -43 0 -85 -11 -154 -42 -24 -10 -47 -18 -53 -18 -5 0 -10 -4 -10 -10 0 -5
-5 -10 -11 -10 -6 0 -36 -18 -67 -41 -57 -40 -57 -40 -60 -16 -2 20 -8 23 -28
19 -13 -2 -27 -8 -30 -13 -11 -18 -24 -8 -24 19 0 15 11 43 25 62 14 19 25 44
25 56 0 38 -18 43 -115 28 -111 -17 -530 -19 -540 -3 -4 6 -4 13 0 17 4 4 86
9 183 12 142 4 183 9 207 23 36 20 62 21 95 2 14 -8 52 -14 87 -15 67 0 83 12
83 63 0 35 56 109 78 103 24 -8 35 3 63 58 54 109 157 178 259 173 28 -2 39
-9 61 -42z m12059 -297 c36 -64 37 -75 5 -100 -14 -11 -25 -27 -25 -37 0 -9
-5 -22 -12 -29 -14 -14 -138 -17 -138 -3 0 16 26 30 67 37 46 7 53 22 53 119
0 45 5 65 16 65 2 0 17 -24 34 -52z m-13399 -538 c125 -22 321 -32 584 -30
178 1 290 -2 308 -9 26 -10 36 -34 18 -46 -5 -3 -117 -14 -248 -25 -131 -11
-281 -24 -333 -30 -57 -6 -113 -7 -141 -2 -44 8 -119 54 -119 73 0 5 30 9 68
10 101 1 122 14 37 24 -38 4 -83 9 -100 10 -79 6 -145 18 -145 26 0 11 4 11
71 -1z m892 -360 c4 -17 14 -20 74 -21 l68 0 -45 -15 c-32 -10 -53 -11 -74 -4
-29 10 -28 10 -206 -45 -41 -13 -122 -34 -180 -46 -58 -11 -138 -30 -179 -40
-95 -24 -97 -24 -95 9 1 15 3 39 3 54 1 23 10 32 53 54 28 14 92 37 142 50 78
20 116 23 262 24 163 0 172 -1 177 -20z m13254 -689 c150 -9 217 -23 163 -35
-14 -3 -70 -8 -125 -11 -55 -3 -145 -13 -200 -22 -153 -25 -475 -20 -475 7 0
23 246 60 445 68 22 1 108 -3 192 -7z"/>
<path d="M3312 9782 c-4 -9 -5 -35 -2 -57 l5 -40 150 -3 c142 -3 151 -2 162
17 11 18 10 21 -10 25 -12 3 -35 8 -52 11 -16 4 -52 8 -80 9 -55 2 -92 12
-115 31 -28 22 -49 25 -58 7z"/>
<path d="M3010 8129 c-49 -8 -157 -46 -170 -59 -3 -3 -23 -11 -45 -19 -22 -7
-61 -26 -86 -41 -155 -94 -344 -155 -456 -148 -58 3 -62 -8 -5 -18 20 -3 73
-19 118 -36 l81 -29 104 20 c57 11 105 25 107 30 2 6 17 11 33 11 16 0 29 4
29 8 0 7 142 61 173 66 7 1 18 5 25 9 7 5 24 11 39 13 15 3 33 10 40 15 9 8
11 6 8 -10 -2 -12 0 -21 6 -21 5 0 9 13 9 29 0 16 9 50 21 75 22 51 54 70 102
63 25 -3 28 -1 25 22 -3 24 -7 26 -53 28 -27 0 -75 -3 -105 -8z"/>
<path d="M1200 7810 c0 -5 -15 -10 -34 -10 -44 0 -56 -17 -22 -30 40 -15 31
-23 -18 -17 -43 6 -47 4 -98 -42 -37 -33 -66 -73 -92 -127 l-39 -78 -1 -135
c-1 -139 12 -223 64 -433 66 -262 120 -388 205 -474 178 -180 504 -203 809
-55 46 22 90 47 98 54 7 7 51 32 98 56 46 25 89 48 95 53 5 5 38 27 73 50 61
40 76 58 47 58 -8 0 -22 11 -30 24 -14 21 -22 24 -53 19 -20 -2 -46 -8 -57
-12 -22 -9 -175 -57 -212 -66 -13 -4 -23 -11 -23 -16 0 -13 -47 -30 -95 -34
-38 -4 -101 -17 -293 -64 -46 -11 -89 -18 -96 -15 -7 3 -18 -7 -24 -20 -9 -21
-15 -24 -34 -17 -13 5 -23 17 -23 27 0 11 -10 27 -22 37 -13 10 -28 36 -34 58
-7 23 -17 38 -24 35 -6 -2 -17 11 -24 29 -6 19 -21 37 -31 40 -12 4 -20 15
-20 27 0 34 -23 102 -42 122 -10 11 -18 34 -18 52 0 18 -4 36 -10 39 -5 3 -10
17 -10 31 0 19 -6 26 -31 31 -23 4 -35 15 -46 41 -13 31 -12 38 4 71 14 28 19
69 23 195 4 115 8 161 18 164 6 2 12 10 12 17 0 8 20 34 44 60 25 25 44 49 43
53 0 4 -9 16 -19 27 -22 23 -20 48 3 53 9 2 41 -8 70 -21 63 -29 171 -67 188
-67 7 0 31 -9 53 -20 23 -11 47 -20 52 -20 14 0 186 -90 209 -108 7 -6 33 -12
57 -14 l45 -4 -30 -12 c-70 -29 -70 -31 -8 -25 52 5 64 3 69 -11 3 -9 12 -16
20 -16 15 0 19 16 5 24 -4 3 -11 23 -15 44 -3 22 -21 58 -40 82 -27 34 -46 47
-91 61 -31 9 -64 24 -74 33 -10 9 -25 16 -34 16 -9 0 -17 5 -17 10 0 6 -6 10
-14 10 -25 0 -84 40 -89 61 -3 12 -29 30 -69 48 -59 28 -63 28 -66 10 -5 -27
-40 -24 -142 10 -114 38 -140 43 -140 31z"/>
<path d="M15949 7804 c-6 -8 -9 -23 -6 -35 4 -15 2 -19 -9 -15 -8 3 -14 1 -14
-4 0 -6 4 -10 8 -10 5 0 8 -15 7 -32 0 -24 8 -41 27 -60 16 -14 28 -35 28 -47
0 -20 -102 -131 -121 -131 -7 0 -34 -22 -79 -63 -8 -8 -29 -22 -47 -31 -23
-12 -30 -21 -26 -35 3 -11 14 -23 24 -26 10 -4 19 -10 19 -15 0 -5 16 -17 36
-26 20 -9 38 -23 41 -31 3 -7 15 -13 27 -13 12 0 33 -13 48 -30 33 -38 53 -38
72 2 13 26 16 77 16 318 0 277 -1 288 -20 293 -10 3 -24 -1 -31 -9z"/>
<path d="M4290 7476 c3 -30 11 -60 16 -67 15 -19 24 -58 17 -75 -3 -8 -18 -14
-34 -14 -33 0 -49 27 -49 80 0 50 -20 80 -52 80 -18 0 -28 -5 -28 -15 0 -8 -4
-15 -10 -15 -5 0 -12 -16 -16 -36 -9 -47 -31 -55 -56 -21 -11 15 -28 27 -39
27 -20 0 -26 -15 -9 -25 24 -15 -5 -22 -75 -20 -67 2 -75 0 -69 -14 4 -9 10
-38 14 -66 5 -27 11 -60 15 -72 6 -19 4 -23 -13 -23 -11 0 -33 7 -48 15 -16 8
-38 15 -49 15 -28 0 -81 34 -101 65 -9 14 -25 25 -36 25 -11 0 -28 5 -39 10
-15 8 -25 6 -49 -11 -16 -13 -33 -31 -36 -42 -8 -26 -16 -14 -19 30 -1 21 -4
44 -6 52 -3 9 8 17 27 22 16 5 41 20 54 34 13 14 29 25 37 25 7 0 13 5 13 10
0 6 7 10 15 10 8 0 15 5 15 11 0 7 -7 8 -17 4 -16 -6 -133 -33 -233 -53 -31
-7 -35 -12 -42 -47 -15 -87 -3 -182 20 -149 9 13 112 34 112 23 0 -5 -9 -14
-20 -21 -52 -33 4 -60 66 -32 38 17 47 19 71 22 6 1 13 12 15 24 4 25 28 37
28 14 0 -9 5 -16 10 -16 6 0 10 -9 10 -20 0 -49 117 -115 229 -131 48 -7 82
-5 139 6 42 9 81 20 87 24 5 4 26 14 45 21 19 7 53 32 76 56 32 33 44 55 55
103 7 34 17 61 21 61 13 0 9 37 -6 49 -9 8 -12 25 -8 56 3 31 1 45 -7 45 -7 0
-9 5 -6 10 3 6 -4 10 -17 10 -23 0 -24 -2 -18 -54z"/>
<path d="M4557 6513 c-4 -3 -7 -13 -8 -22 0 -21 -90 -89 -141 -107 -75 -26
-134 -19 -244 31 -17 8 -42 12 -55 9 -72 -17 -104 -21 -116 -17 -8 3 -34 -2
-58 -12 -25 -9 -49 -13 -56 -10 -6 4 -21 -3 -34 -15 -13 -12 -28 -19 -34 -15
-16 9 -14 2 11 -43 27 -51 148 -178 179 -187 13 -5 38 -18 54 -30 17 -12 65
-30 108 -40 77 -17 78 -17 150 5 79 24 128 47 139 66 4 6 24 15 43 18 20 4 38
13 41 21 3 7 14 15 25 18 10 3 19 11 19 19 0 7 10 18 21 23 27 13 50 76 36
100 -5 10 -7 37 -3 62 5 39 3 47 -21 69 -14 13 -23 24 -19 24 4 0 2 9 -4 20
-11 21 -22 25 -33 13z"/>
<path d="M3710 5705 c-17 -45 -9 -70 23 -73 15 -2 27 -6 27 -9 0 -13 -56 -83
-67 -83 -7 0 -13 -5 -13 -12 0 -6 -3 -8 -7 -5 -12 13 -33 -16 -33 -47 0 -17
-7 -41 -15 -53 -13 -19 -13 -22 2 -27 12 -5 27 4 48 28 40 45 70 59 111 51 29
-5 34 -3 34 13 0 24 19 42 46 42 27 0 46 -22 38 -44 -4 -9 -1 -16 6 -16 8 0
10 -9 6 -26 l-7 -25 28 30 c36 38 71 49 80 25 4 -10 2 -19 -5 -22 -14 -4 -16
-22 -3 -22 6 0 22 27 37 60 24 53 30 60 55 60 33 0 37 -15 13 -49 -16 -23 -16
-25 7 -42 28 -21 39 -24 39 -8 0 8 18 10 60 6 33 -4 60 -3 60 1 0 4 14 22 31
40 28 30 34 32 100 32 l69 0 0 -29 c0 -23 -12 -40 -52 -75 -50 -44 -57 -57
-19 -37 10 6 23 6 32 0 11 -8 9 -14 -16 -36 l-29 -26 -136 7 c-356 19 -642 26
-661 15 -10 -5 -19 -26 -22 -51 -3 -24 -12 -65 -20 -93 -8 -27 -14 -51 -12
-52 1 -2 175 -10 386 -18 402 -16 1087 -43 1199 -47 l65 -3 6 70 c9 102 10
513 2 518 -8 5 -313 18 -858 37 -159 6 -365 13 -457 17 l-167 6 -11 -28z"/>
<path d="M14884 1643 c4 -65 12 -123 18 -131 17 -20 53 -11 51 13 -1 11 -5 68
-8 128 l-7 107 -30 0 -31 0 7 -117z"/>
<path d="M15068 1553 c-20 -5 -23 -18 -8 -28 21 -13 -3 -25 -51 -25 -27 0 -49
-3 -49 -8 0 -4 55 -6 123 -4 67 2 138 4 157 4 19 -1 76 -1 127 -1 71 -1 106
-6 161 -26 38 -14 75 -25 81 -25 19 0 -11 26 -39 35 -14 4 -32 13 -40 20 -30
26 -135 46 -283 55 -84 5 -154 9 -157 9 -3 -1 -13 -3 -22 -6z"/>
<path d="M14548 1210 c29 -28 51 -54 47 -59 -3 -6 5 -15 17 -22 13 -7 39 -26
59 -44 20 -18 58 -45 85 -61 l48 -28 595 2 c327 1 597 4 599 7 3 3 3 7 1 9 -3
3 -272 7 -599 9 -656 4 -625 1 -701 68 l-34 30 130 -5 c96 -3 112 -2 60 4 -38
4 -100 8 -136 9 l-67 1 -68 65 c-38 36 -73 65 -79 64 -5 0 14 -22 43 -49z"/>
</g>
</svg>
