<?xml version="1.0" standalone="no"?>
<!DOCTYPE svg PUBLIC "-//W3C//DTD SVG 20010904//EN"
 "http://www.w3.org/TR/2001/REC-SVG-20010904/DTD/svg10.dtd">
<svg version="1.0" xmlns="http://www.w3.org/2000/svg"
 width="1600.000000pt" height="1200.000000pt" viewBox="0 0 1600.000000 1200.000000"
 preserveAspectRatio="xMidYMid meet">
<metadata>
Created by potrace 1.16, written by Peter Selinger 2001-2019
</metadata>
<g transform="translate(0.000000,1200.000000) scale(0.100000,-0.100000)"
fill="#000000" stroke="none">
<path d="M0 9452 l0 -2548 72 2 c58 1 77 -2 93 -17 14 -12 44 -20 100 -24 44
-3 90 -8 103 -11 25 -5 30 -29 7 -38 -18 -7 -20 -26 -2 -26 15 0 87 -75 87
-92 0 -6 7 -19 15 -28 36 -40 25 -222 -16 -274 -11 -13 -19 -29 -19 -36 0 -6
-11 -10 -25 -8 -33 4 -95 -47 -95 -78 0 -13 -6 -27 -14 -31 -8 -4 -16 -19 -18
-32 -2 -18 -10 -25 -34 -27 -28 -3 -32 0 -37 26 -7 31 -39 70 -58 70 -7 0 -8
-7 -4 -17 3 -10 9 -30 12 -45 7 -35 -3 -36 -96 -4 l-71 24 0 -203 0 -202 80
-7 c99 -8 110 -12 110 -42 0 -17 -8 -27 -25 -34 -30 -11 -32 -26 -5 -33 23 -6
28 -52 7 -60 -6 -2 -47 -2 -90 1 l-77 5 0 -150 0 -150 60 -6 c93 -10 102 -17
98 -85 l-3 -57 -77 3 -78 3 0 -2610 0 -2611 8000 0 8000 0 0 2081 0 2082 -135
273 c-74 150 -146 292 -161 315 -38 62 -77 169 -61 169 8 0 28 -28 45 -63 123
-249 237 -490 252 -533 10 -28 27 -68 38 -90 l21 -39 1 3903 0 3902 -6625 0
c-6303 0 -6625 -1 -6625 -17 1 -10 7 -36 15 -58 19 -51 19 -48 -6 -76 -15 -17
-19 -33 -16 -54 3 -17 -3 -49 -14 -75 -11 -25 -18 -35 -15 -22 2 12 1 20 -4
17 -10 -6 -18 -75 -9 -75 4 0 10 6 12 13 6 15 12 -63 9 -117 -2 -22 -8 -46
-14 -53 -7 -9 -9 -42 -5 -96 7 -85 2 -127 -15 -127 -5 0 -23 -12 -39 -27 -28
-27 -29 -31 -23 -89 7 -62 -20 -214 -38 -214 -4 0 -8 -23 -8 -52 0 -39 5 -57
22 -75 21 -22 21 -23 5 -125 -14 -91 -24 -167 -33 -263 -4 -44 -21 -134 -34
-178 -6 -21 -15 -69 -20 -105 -11 -83 -24 -149 -44 -227 -9 -33 -23 -105 -31
-160 -9 -55 -20 -120 -24 -145 -4 -25 -13 -55 -19 -67 -7 -12 -15 -50 -18 -85
-3 -35 -14 -90 -24 -123 -24 -76 -50 -185 -61 -250 -4 -27 -13 -72 -19 -100
-29 -129 -34 -155 -41 -225 -12 -109 -26 -199 -39 -250 -13 -53 -30 -141 -35
-188 -3 -19 -11 -75 -20 -125 -9 -51 -25 -146 -36 -212 -11 -66 -26 -147 -34
-180 -7 -33 -18 -89 -24 -125 -6 -36 -13 -82 -16 -102 -4 -25 -2 -38 5 -38 11
0 106 89 330 310 111 110 294 274 348 312 11 7 27 28 36 46 9 18 25 36 34 39
9 4 32 19 50 35 18 15 43 28 55 28 27 0 47 17 47 40 1 13 52 79 95 120 114
110 225 228 225 239 0 6 10 13 23 17 12 4 36 17 53 30 17 13 40 24 51 24 38 0
83 32 184 131 55 54 105 99 110 99 5 0 9 7 9 15 0 8 7 15 16 15 9 0 22 7 28
15 6 8 21 16 32 18 24 3 68 50 78 83 4 12 15 29 26 39 11 10 20 24 20 32 0 7
7 13 16 13 19 0 84 51 84 67 0 6 14 15 32 18 17 4 37 13 44 19 6 7 29 10 52 8
39 -4 40 -5 31 -30 -6 -15 -23 -40 -38 -57 -15 -16 -40 -50 -57 -74 -16 -25
-51 -62 -79 -84 -85 -67 -149 -130 -194 -189 -24 -32 -47 -58 -51 -58 -17 0
-241 -233 -260 -270 -11 -22 -24 -40 -29 -40 -5 0 -26 -23 -46 -52 -21 -28
-51 -63 -69 -77 -17 -14 -59 -54 -93 -88 -34 -35 -66 -63 -71 -63 -5 0 -12 -9
-15 -20 -3 -11 -14 -20 -24 -20 -30 0 -93 -58 -93 -86 0 -25 -106 -136 -222
-235 -50 -42 -256 -231 -421 -386 -43 -40 -82 -73 -85 -73 -4 0 -45 -37 -92
-82 -47 -45 -109 -101 -139 -125 -103 -82 -137 -138 -143 -243 l-3 -55 65 -11
65 -11 -68 -4 -69 -4 -12 -37 c-7 -20 -16 -66 -20 -102 -7 -65 -6 -66 19 -67
33 -2 38 -3 51 -11 6 -4 30 -10 52 -14 66 -10 38 -24 -51 -24 -99 0 -94 -16
12 -33 39 -6 71 -13 71 -16 0 -3 -30 -7 -68 -7 -75 -2 -89 -16 -53 -55 25 -27
51 -81 51 -106 -1 -37 -47 -156 -69 -179 -29 -30 -108 -84 -123 -84 -6 0 -19
6 -27 14 -23 19 -79 36 -122 36 -21 0 -41 5 -44 11 -4 6 -19 9 -33 8 -15 -1
-36 1 -47 5 -65 24 -99 42 -114 62 -10 13 -30 29 -44 35 -15 7 -24 16 -20 22
3 5 -6 7 -23 3 -45 -9 -57 4 -39 42 25 49 21 102 -9 151 l-27 42 -62 -6 c-106
-10 -127 -15 -127 -30 0 -11 12 -15 45 -15 53 0 120 -25 110 -40 -4 -6 -19 -9
-34 -5 -15 3 -39 1 -53 -4 -32 -12 -63 7 -73 46 -3 14 -17 40 -31 56 -13 16
-24 38 -24 50 0 40 -12 65 -31 70 -23 6 -40 48 -42 102 -2 39 -1 40 33 41 30
0 35 4 41 31 8 38 69 124 106 148 22 15 32 16 57 7 17 -6 58 -18 91 -26 58
-15 142 -53 171 -77 7 -6 16 -26 20 -45 5 -26 -1 -45 -26 -90 l-33 -56 -63 7
-64 7 0 -36 c0 -30 5 -38 28 -48 37 -15 141 -19 164 -7 24 13 23 39 -1 39 -27
0 -30 19 -10 60 10 19 29 74 44 122 14 48 30 90 35 93 7 4 17 34 51 155 6 19
14 76 19 125 5 50 16 128 24 175 8 47 15 110 16 140 0 30 5 71 10 91 17 60 53
258 65 351 3 21 11 53 18 71 8 17 14 73 16 122 1 50 4 97 6 105 2 8 11 84 20
169 9 85 18 158 20 161 2 4 11 65 20 136 9 71 20 154 26 184 5 30 14 86 19
124 5 38 12 83 16 100 11 45 24 148 54 406 5 41 14 93 19 115 21 83 41 308 45
529 3 132 10 234 16 241 8 10 18 124 20 236 0 16 8 30 23 38 13 7 31 25 40 41
18 29 23 80 9 80 -16 0 -33 48 -20 56 7 5 8 3 3 -6 -6 -9 -4 -11 4 -5 7 4 11
16 8 26 -3 11 -2 19 3 19 4 0 11 20 14 45 4 25 11 45 15 45 7 0 31 58 31 77 0
6 -18 30 -40 53 -43 46 -51 82 -22 99 9 6 14 11 9 11 -4 0 1 17 11 38 11 20
22 49 26 64 3 15 15 30 26 33 16 5 20 16 22 53 1 26 2 58 3 72 1 14 7 35 13
47 7 12 12 34 12 50 0 31 19 71 20 43 1 -27 30 64 31 100 1 19 -1 64 -5 100
-6 60 -5 63 9 46 12 -17 15 -17 15 -4 0 9 3 23 6 32 6 15 -98 16 -1130 16
l-1136 0 0 -2548z m13418 -632 c28 0 7 -223 -25 -261 -7 -8 -13 -30 -13 -47 0
-27 -3 -31 -32 -34 -28 -3 -33 -7 -36 -33 -2 -16 -7 -34 -12 -40 -4 -5 -15
-35 -24 -66 -9 -31 -25 -64 -36 -74 -19 -17 -19 -18 11 -55 31 -38 33 -74 6
-92 -11 -7 -16 -23 -24 -80 -3 -22 -16 -47 -34 -64 -21 -20 -29 -37 -29 -61 0
-21 -8 -41 -22 -55 -13 -13 -23 -25 -23 -28 0 -12 -39 -107 -52 -125 -7 -11
-13 -29 -13 -41 0 -12 -6 -24 -14 -27 -7 -3 -16 -25 -20 -48 -4 -24 -12 -49
-18 -57 -7 -7 -15 -39 -19 -71 -6 -50 -21 -93 -56 -156 -24 -42 -53 -112 -53
-126 0 -9 -18 -51 -40 -94 -22 -43 -40 -87 -40 -98 0 -10 -7 -25 -15 -33 -8
-9 -15 -26 -15 -40 0 -13 -4 -24 -8 -24 -4 0 -17 -26 -27 -57 -11 -31 -30 -73
-44 -92 -13 -20 -37 -76 -52 -126 -16 -49 -38 -108 -49 -130 -10 -22 -34 -80
-53 -130 -19 -49 -47 -117 -62 -150 -15 -33 -38 -82 -50 -110 -30 -66 -129
-319 -145 -370 -7 -22 -16 -50 -21 -63 -15 -39 -11 -51 14 -44 12 3 27 12 33
20 7 9 30 14 70 14 79 1 116 -8 202 -49 78 -36 102 -67 102 -130 0 -29 -64
-143 -80 -143 -5 0 -18 -14 -30 -31 -20 -27 -21 -32 -7 -47 8 -9 20 -56 27
-104 11 -84 13 -88 37 -88 26 0 87 55 78 71 -8 13 35 37 90 50 28 6 57 15 65
20 71 41 115 57 122 46 12 -19 -3 -100 -22 -117 -27 -23 -54 -105 -47 -140 4
-16 16 -49 27 -72 11 -23 20 -52 20 -64 0 -12 3 -29 6 -38 7 -18 39 -22 49 -6
19 31 108 -9 126 -56 10 -27 50 -48 60 -31 4 5 9 2 12 -9 3 -10 3 10 2 46 -12
219 -16 289 -21 325 -3 27 -2 35 4 25 5 -8 21 -116 36 -240 15 -124 31 -235
36 -247 7 -16 19 -23 47 -25 30 -2 39 -8 45 -28 7 -24 3 240 -6 425 -6 96 -3
77 50 -334 10 -79 24 -150 31 -157 7 -7 13 -18 13 -24 0 -6 4 -9 9 -6 5 3 19
-3 32 -13 14 -10 43 -19 67 -19 47 -2 122 -35 122 -55 0 -6 -14 -21 -30 -32
-24 -15 -29 -25 -25 -42 4 -16 1 -23 -10 -23 -16 0 -39 -45 -30 -60 7 -12 -32
-43 -45 -35 -9 5 -10 1 -5 -14 5 -16 2 -21 -12 -21 -11 0 -24 5 -31 12 -7 7
-12 8 -12 3 0 -6 -9 5 -21 24 -22 37 -14 53 22 44 25 -7 24 12 -1 37 -11 11
-20 24 -20 29 0 5 -12 9 -26 9 -28 0 -42 -21 -26 -41 7 -8 8 -18 1 -27 -8 -13
-12 -12 -25 5 -8 11 -18 33 -21 48 -5 26 -9 28 -36 23 -16 -3 -36 -6 -43 -6
-8 0 -14 -4 -14 -9 0 -5 8 -8 17 -7 11 0 19 -7 21 -21 3 -17 -3 -23 -29 -28
-24 -6 -34 -3 -41 9 -5 9 -16 16 -23 16 -17 0 -20 -35 -5 -45 16 -10 12 -35
-5 -35 -13 0 -14 -4 -5 -20 6 -11 8 -36 4 -56 -9 -51 -28 -27 -28 37 0 44 -2
50 -18 46 -27 -7 -33 12 -9 32 13 11 18 25 14 39 -4 17 0 22 21 28 38 9 44 27
34 101 -7 47 -17 75 -36 99 -24 30 -28 32 -43 18 -10 -9 -34 -20 -55 -24 -31
-7 -48 -3 -110 26 -41 19 -73 40 -71 46 2 11 -23 22 -74 32 -14 3 -41 17 -60
30 -42 32 -71 44 -133 61 -44 12 -50 11 -67 -6 -25 -25 -83 -25 -107 -1 -13
13 -25 16 -40 11 -27 -10 -27 -15 -7 -273 13 -174 13 -208 1 -195 -6 5 -36
319 -36 371 0 34 -4 40 -35 55 -38 18 -47 48 -16 58 49 15 36 165 -14 165 -7
0 -15 5 -17 12 -2 6 -12 12 -22 14 -17 2 -18 -5 -13 -106 5 -111 11 -135 28
-124 6 3 5 -3 -2 -14 -10 -16 -10 -64 0 -244 7 -122 14 -231 17 -240 3 -10 1
-18 -4 -18 -5 0 -13 39 -16 88 -12 154 -36 326 -46 336 -6 6 -19 5 -37 -3
l-28 -13 31 31 c17 17 34 43 37 59 4 20 -4 171 -13 230 0 1 -10 2 -23 2 -13 0
-28 5 -35 12 -9 9 -12 9 -12 0 0 -7 -15 -11 -39 -10 -24 1 -53 -7 -74 -19 -48
-29 -102 -36 -175 -24 -53 8 -72 7 -131 -11 l-68 -20 -7 -61 c-7 -74 15 -147
45 -147 23 0 25 -16 3 -24 -13 -5 -14 -9 -4 -21 14 -17 10 -38 -5 -27 -17 12
-56 92 -50 102 3 6 2 10 -3 10 -5 0 -19 21 -30 48 -14 30 -21 39 -22 26 0 -18
-5 -21 -37 -19 -39 3 -43 7 -67 65 -12 29 -15 31 -15 12 -1 -14 -10 -26 -25
-32 -18 -6 -26 -18 -28 -41 -2 -26 -9 -35 -33 -43 -17 -6 -47 -21 -67 -34 -32
-20 -47 -22 -113 -19 -41 2 -81 9 -87 15 -7 7 -18 12 -25 12 -20 0 -85 -33
-110 -56 -22 -20 -22 -23 -8 -38 9 -9 28 -19 43 -22 15 -4 42 -18 60 -31 44
-33 41 -69 -8 -97 -29 -17 -53 -21 -135 -21 -113 -1 -129 -7 -202 -75 -86 -81
-137 -108 -224 -117 -54 -5 -57 -7 -73 -43 -25 -56 -45 -60 -39 -7 3 23 9 47
14 53 5 6 -3 17 -20 27 -16 9 -45 35 -66 58 l-38 42 5 -46 c3 -26 4 -47 2 -47
-1 0 -15 39 -29 88 -19 61 -43 112 -83 172 l-57 84 0 79 c0 43 5 81 10 85 6 4
16 20 23 36 11 26 11 31 -8 48 -11 11 -18 23 -16 27 3 4 -14 12 -37 19 -23 6
-57 24 -76 39 -31 26 -33 32 -27 66 4 20 35 79 69 130 54 78 67 92 93 94 41 4
136 -55 149 -91 9 -26 6 -32 -39 -73 -27 -24 -45 -47 -40 -52 28 -24 145 -99
179 -115 95 -45 139 -56 188 -50 45 6 48 9 44 31 -5 28 6 38 30 25 22 -13 63
5 56 24 -3 9 7 15 34 20 36 5 38 8 37 39 -1 18 -5 39 -9 45 -7 12 21 39 42 40
21 0 53 -33 53 -55 0 -26 16 -50 24 -37 3 5 -3 43 -14 83 -11 41 -20 77 -20
81 0 3 -9 4 -20 1 -12 -3 -19 -10 -17 -16 6 -18 -43 -57 -71 -57 -20 0 -23 4
-19 22 3 12 2 30 -4 40 -15 28 -1 84 26 98 17 9 31 10 54 2 36 -13 38 -7 20
62 -8 33 -18 47 -42 59 -81 42 -125 70 -173 112 -39 33 -61 45 -86 45 -31 1
-32 2 -14 15 18 13 18 15 2 21 -14 5 -15 9 -4 15 9 6 10 9 1 9 -16 0 -11 113
6 133 6 8 9 21 5 30 -3 8 -1 18 4 21 13 8 24 -56 17 -87 -4 -14 -2 -28 4 -31
6 -4 11 -18 11 -31 0 -13 7 -30 15 -37 9 -7 22 -19 30 -26 9 -8 16 -9 20 -2 3
5 30 21 60 35 66 32 84 51 63 68 -27 22 -48 61 -48 89 0 22 5 28 23 28 18 0
19 -2 7 -10 -10 -6 -11 -10 -2 -10 6 0 12 -6 12 -13 0 -8 19 -18 45 -24 40 -9
46 -8 65 12 11 12 20 31 20 42 0 15 8 22 30 27 17 3 31 5 33 3 1 -1 13 6 27
16 13 9 32 17 41 17 33 0 27 35 -15 78 -48 50 -91 65 -186 67 -36 1 -75 5 -87
9 -13 4 -36 1 -57 -8 -34 -14 -39 -14 -76 6 -22 12 -40 25 -40 30 0 4 -5 8
-12 8 -6 0 -20 7 -30 16 -14 13 -36 16 -100 15 -46 -1 -106 5 -135 12 -29 8
-50 10 -46 4 10 -16 -16 -24 -65 -21 l-47 3 35 -13 c46 -17 55 -48 11 -40 -17
4 -41 4 -55 0 -28 -7 -65 -64 -70 -109 -2 -17 -10 -35 -18 -41 -21 -16 -40
-55 -34 -71 2 -7 -7 -26 -22 -42 -57 -62 -70 -82 -91 -144 -25 -70 -51 -131
-114 -259 -23 -47 -43 -96 -45 -110 -1 -14 -11 -32 -21 -40 -15 -14 -185 -346
-211 -415 -10 -25 -24 -32 -34 -17 -3 5 1 29 9 54 18 61 31 243 17 252 -19 11
-42 -6 -42 -31 0 -15 -4 -22 -11 -17 -8 4 -8 1 -1 -12 10 -21 5 -84 -8 -84 -4
0 -10 6 -13 14 -3 7 -15 16 -26 19 -12 3 -19 2 -17 -1 2 -4 1 -15 -3 -25 -6
-17 -8 -16 -18 5 -7 13 -14 48 -18 79 -5 45 -10 58 -26 62 -11 3 -19 0 -19 -8
0 -17 -31 -28 -44 -15 -14 14 -122 13 -145 -2 -15 -9 -17 -16 -10 -29 19 -37
-18 -68 -63 -53 -28 8 -38 22 -38 51 0 12 -5 34 -11 50 l-10 27 -21 -25 -22
-26 -22 26 -22 26 -51 -18 c-51 -18 -107 -15 -94 6 4 6 1 7 -6 3 -14 -9 -5
-67 13 -78 17 -12 26 -9 26 7 0 8 9 15 20 15 22 0 23 -6 14 -74 -6 -38 -10
-46 -28 -46 -27 0 -68 28 -60 41 3 5 9 7 13 5 4 -3 8 4 8 15 1 10 -5 19 -13
19 -8 0 -14 -4 -14 -10 0 -5 -15 -16 -34 -25 -18 -9 -38 -27 -44 -40 -7 -14
-17 -25 -24 -25 -7 0 -40 -27 -73 -59 -88 -88 -231 -186 -260 -179 -11 2 0 19
37 60 29 31 58 63 65 70 6 7 44 38 84 68 124 95 130 102 139 150 6 32 4 55 -6
78 -12 30 -15 32 -36 21 -13 -7 -38 -23 -55 -37 -32 -24 -62 -25 -153 -9 -3 0
-7 -12 -10 -28 -6 -36 -23 -42 -48 -17 -20 20 -20 20 -48 -9 -29 -30 -33 -30
-134 -14 -25 4 -25 4 -2 -7 31 -15 28 -25 -13 -38 -19 -6 -35 -16 -35 -21 0
-20 -29 -8 -32 13 -4 28 -27 34 -53 13 -20 -14 -20 -15 3 -21 12 -3 22 -12 22
-19 0 -7 14 -15 30 -18 19 -4 30 -13 30 -23 0 -10 -5 -14 -15 -10 -8 3 -16 0
-16 -7 -1 -7 -2 -19 -3 -27 -1 -14 -8 -16 -35 -11 -5 0 -12 17 -15 37 -7 32
-10 35 -39 32 -28 -3 -32 -7 -35 -35 -3 -28 -7 -33 -30 -34 l-27 -2 25 -5 25
-5 -25 -6 c-29 -8 -38 -39 -44 -149 -3 -48 -10 -79 -20 -91 -9 -10 -16 -25
-16 -35 0 -9 -7 -19 -16 -23 -17 -6 -35 -44 -40 -86 -2 -15 -13 -41 -25 -56
-12 -16 -23 -42 -25 -58 -2 -15 -10 -48 -19 -73 -16 -45 -16 -45 9 -67 l26
-22 -58 -11 c-67 -14 -102 -34 -102 -58 0 -9 -9 -32 -21 -51 -15 -24 -20 -49
-19 -95 0 -33 -6 -96 -13 -140 -8 -43 -13 -93 -11 -110 1 -17 -2 -36 -7 -42
-5 -7 -14 -52 -20 -100 -5 -49 -14 -101 -19 -116 -6 -21 -4 -33 11 -52 l20
-25 -50 -26 c-29 -14 -67 -25 -90 -25 -40 0 -40 0 -47 48 -9 54 -9 52 -17 72
-3 8 -9 33 -12 55 -3 22 -11 56 -17 75 -6 19 -12 40 -14 46 -1 6 -22 15 -46
19 -40 8 -41 9 -13 13 26 4 28 5 10 12 -18 8 -18 9 5 10 23 1 23 2 5 10 -15 6
-16 9 -4 9 14 1 16 15 13 101 -4 99 -20 161 -48 184 -17 14 -30 66 -16 66 5 0
10 18 10 39 0 32 4 41 21 46 16 5 18 9 9 15 -8 5 -14 32 -15 68 -2 33 -6 65
-9 71 -4 6 -2 11 3 11 6 0 11 5 11 11 0 17 -27 39 -49 39 -11 0 -23 5 -26 10
-3 6 -50 10 -103 10 -108 1 -213 19 -220 38 -3 9 37 12 172 11 169 0 213 5
186 21 -7 4 -13 48 -16 111 -3 57 -9 122 -14 144 -6 24 -5 44 1 50 19 19 8 26
-36 24 -45 -3 -74 16 -75 47 0 17 -32 27 -41 13 -4 -7 -17 -9 -32 -5 -29 7
-77 -11 -77 -29 0 -7 -13 -18 -30 -25 -30 -12 -44 -38 -15 -26 8 3 15 4 15 2
0 -12 -23 -66 -29 -66 -11 0 -61 -50 -61 -61 0 -5 17 -18 38 -27 l37 -17 -64
-3 c-78 -4 -98 2 -81 23 6 8 8 20 4 27 -16 26 -14 72 6 105 10 18 15 33 11 33
-5 0 -7 8 -4 19 3 10 0 22 -6 25 -6 4 -11 0 -11 -8 0 -12 -10 -16 -39 -16 -22
0 -42 -4 -45 -9 -3 -5 -21 -12 -40 -15 -24 -5 -45 -19 -66 -46 -18 -22 -35
-38 -40 -35 -4 3 -27 -11 -51 -31 -36 -30 -48 -35 -76 -29 -20 4 -33 2 -33 -5
0 -12 -136 -14 -144 -1 -3 5 11 12 32 16 31 6 34 9 17 15 l-20 9 20 0 c18 1
17 3 -5 14 -33 16 -41 74 -13 95 17 13 17 14 -1 28 -24 17 -36 17 -72 4 -20
-8 -29 -8 -34 1 -5 7 -10 7 -14 1 -3 -5 -17 -7 -31 -4 -15 2 -25 0 -25 -7 0
-6 7 -11 15 -11 8 0 15 -6 15 -13 0 -8 11 -19 25 -25 23 -11 24 -14 14 -34 -7
-13 -23 -36 -35 -51 -13 -16 -24 -38 -24 -50 0 -12 -11 -34 -24 -48 -25 -27
-28 -43 -12 -67 6 -10 -7 -12 -61 -10 l-68 3 -3 36 c-2 21 -12 45 -23 54 -21
20 -24 46 -9 75 8 14 19 17 59 14 41 -3 49 -1 44 12 -4 12 2 13 36 8 47 -8 57
5 47 60 -5 28 -10 33 -30 29 -13 -3 -27 -14 -29 -25 -9 -32 -27 -10 -27 32 0
21 -4 42 -10 45 -5 3 -10 3 -10 -2 0 -4 -19 -8 -43 -8 -42 0 -42 0 -45 39 -5
56 14 86 53 86 29 0 85 29 57 30 -12 0 -52 79 -52 103 0 12 11 18 93 51 42 17
46 35 22 93 -22 52 -20 57 28 70 23 6 67 19 97 28 30 10 71 20 90 23 19 2 37
8 40 11 3 4 21 14 40 23 49 23 17 34 -41 14 -24 -9 -51 -16 -60 -16 -8 0 -33
-8 -55 -19 -21 -10 -57 -21 -79 -24 -22 -4 -41 -10 -43 -15 -1 -5 -15 -7 -31
-4 -26 4 -30 9 -36 50 -3 26 -10 63 -15 82 -5 19 -14 64 -21 100 -17 93 -56
153 -142 220 -18 13 -18 10 -15 -73 2 -48 0 -87 -4 -87 -13 0 -20 43 -19 111
1 61 -2 72 -23 90 -18 15 -23 29 -21 50 2 16 0 31 -6 34 -18 12 -9 25 19 26
l27 0 -25 12 c-14 7 -32 20 -41 31 -9 11 -21 16 -27 12 -17 -10 -15 -71 3 -86
16 -13 20 -46 7 -54 -5 -3 -37 8 -71 24 -79 38 -104 39 -91 6 12 -32 2 -67
-27 -91 -31 -27 -29 -45 5 -45 21 -1 24 -3 11 -10 -24 -14 -84 6 -125 42 -62
55 -104 174 -72 206 17 17 -3 15 -87 -8 -116 -31 -213 -66 -225 -79 -9 -10
-74 -65 -115 -96 -43 -34 -55 -44 -105 -101 -71 -78 -119 -144 -136 -189 -11
-31 -22 -44 -31 -41 -8 3 -18 -5 -25 -20 -6 -13 -17 -23 -24 -20 -7 3 -10 -2
-7 -14 3 -10 19 -24 36 -31 18 -7 63 -39 100 -71 38 -32 75 -58 84 -58 17 0
29 -13 70 -75 41 -62 124 -145 145 -145 11 0 57 -7 103 -16 71 -14 91 -15 129
-4 57 16 73 32 51 54 -20 19 -36 21 -33 4 3 -15 -43 -23 -78 -14 -32 8 -30 20
4 36 l27 12 -25 10 c-33 12 -35 15 -21 32 10 12 18 12 58 0 62 -19 63 -19 52
18 -5 21 -5 36 1 42 16 16 12 33 -15 74 -20 30 -26 53 -28 109 -2 64 1 74 23
98 44 48 94 63 195 57 69 -4 98 -10 125 -27 19 -12 44 -25 55 -29 15 -5 16 -9
6 -15 -10 -6 -10 -10 -2 -16 9 -5 9 -10 0 -21 -9 -11 -8 -14 2 -15 8 0 5 -4
-6 -9 -18 -7 -19 -8 -3 -15 10 -4 15 -12 11 -19 -4 -6 -8 -24 -8 -41 0 -25 -4
-30 -23 -28 -20 3 -23 0 -18 -25 12 -61 11 -67 -6 -66 -10 1 -18 -4 -18 -12 0
-8 9 -14 20 -14 11 0 22 -6 24 -12 2 -7 8 -31 13 -53 6 -22 12 -47 14 -55 2
-8 10 -20 18 -26 13 -10 12 -14 -3 -30 -15 -15 -56 -95 -56 -110 0 -10 45 -3
77 13 34 16 35 17 31 70 -1 29 -1 53 2 53 3 0 6 17 7 38 7 101 7 102 43 123
l34 21 18 -22 c21 -26 23 -50 5 -50 -16 0 -54 -42 -51 -55 1 -6 5 -22 8 -37 5
-21 12 -28 30 -28 22 0 24 -4 31 -84 8 -99 2 -124 -31 -136 -29 -11 -32 -30
-4 -23 19 5 20 0 20 -60 0 -57 -3 -68 -21 -77 -15 -8 -20 -20 -18 -43 5 -77 4
-79 -48 -76 -33 3 -56 -2 -74 -14 -42 -28 -115 -37 -209 -26 -111 14 -145 5
-246 -68 -43 -31 -113 -72 -154 -92 -62 -30 -84 -35 -140 -34 -37 0 -82 8
-105 17 -43 18 -105 72 -105 92 0 7 -4 14 -10 16 -18 6 -41 124 -52 274 l-12
151 32 51 c18 29 32 57 32 64 0 6 3 8 7 5 3 -4 12 -2 18 3 19 16 53 -1 118
-59 32 -28 61 -51 66 -51 4 0 22 -16 41 -35 19 -19 41 -35 48 -35 20 0 14 39
-10 58 -12 9 -43 39 -68 66 -48 52 -162 146 -177 146 -4 0 -25 11 -45 25 -20
14 -39 25 -43 25 -3 0 -2 -24 1 -54 5 -38 2 -68 -11 -105 -16 -49 -23 -56 -55
-51 -21 3 -23 7 -14 21 4 7 8 25 9 41 2 23 -1 28 -19 28 -18 0 -21 -7 -24 -47
-3 -51 -21 -79 -46 -70 -12 5 -14 17 -11 54 5 48 22 318 29 468 2 44 2 68 -1
53 -5 -32 -23 -38 -23 -8 0 11 -3 19 -7 19 -22 -4 -33 3 -33 18 0 14 -3 13
-16 -5 -8 -12 -24 -22 -34 -22 -24 0 -70 21 -70 32 0 4 -10 8 -23 8 -16 0 -26
-9 -34 -27 -10 -27 -10 -26 -6 8 4 30 1 39 -22 57 -15 12 -34 22 -41 22 -8 0
-16 10 -19 23 -18 78 -21 106 -14 135 5 25 3 35 -8 39 -8 3 -12 11 -9 18 3 8
-2 16 -10 19 -20 8 -17 34 5 48 10 6 17 18 14 25 -5 13 5 16 42 14 14 -1 12 3
-10 13 l-30 15 35 -5 35 -5 -45 22 c-25 12 -48 22 -52 21 -3 -1 -12 5 -18 13
-7 8 -8 15 -3 15 21 0 8 30 -19 41 -36 15 -37 39 0 39 l27 0 -33 16 c-17 9
-32 20 -32 25 0 18 19 17 53 -1 20 -11 42 -20 49 -20 12 0 -25 24 -80 52 -33
17 -27 31 11 24 17 -3 39 -7 47 -8 8 -1 23 -10 34 -20 11 -10 26 -16 34 -13 7
2 10 1 7 -4 -3 -5 7 -11 22 -13 16 -2 27 -8 26 -14 -1 -6 3 -11 10 -11 7 -1
38 -3 71 -6 51 -5 56 -4 40 8 -11 9 -14 14 -6 15 6 0 12 7 12 15 0 8 5 15 10
15 6 0 10 27 10 60 0 53 2 60 20 60 17 0 20 7 20 40 0 30 4 40 16 40 15 0 44
23 44 34 0 3 -9 6 -20 6 -11 0 -20 -6 -20 -14 0 -7 -9 -16 -20 -19 -26 -7 -25
1 0 23 13 12 23 35 26 66 5 44 2 54 -25 91 -19 26 -31 55 -31 74 0 17 -9 42
-20 56 -11 14 -20 39 -20 56 0 30 -33 77 -53 77 -15 0 -86 73 -81 82 3 4 0 8
-5 8 -6 0 -11 11 -11 25 0 18 4 23 15 19 16 -6 22 21 7 30 -5 3 -10 26 -10 51
-2 38 2 50 24 70 15 14 33 25 40 25 8 0 14 5 14 10 0 6 9 10 20 10 17 0 19 5
13 32 l-6 31 38 -6 c47 -8 62 -22 80 -73 13 -37 14 -38 20 -13 3 14 7 34 9 45
2 10 10 20 19 22 14 3 16 -6 13 -66 -4 -78 -10 -94 -31 -85 -8 3 -15 1 -15 -5
0 -15 54 -34 86 -30 28 3 29 5 38 86 5 45 13 82 17 82 14 0 22 -48 17 -110
l-4 -60 30 -4 c192 -27 257 -32 269 -19 12 11 -25 43 -49 43 -25 0 -29 12 -40
123 -5 52 -10 67 -23 68 -9 1 -23 3 -31 4 -8 1 -25 3 -37 4 -13 0 -23 8 -23
16 0 10 -11 15 -35 15 -19 0 -35 4 -35 10 0 20 -45 50 -79 51 -34 2 -34 2 -6
6 43 6 48 15 32 61 -14 39 -13 43 7 66 11 13 31 37 44 51 22 27 25 27 100 22
42 -3 89 -9 104 -13 21 -5 33 0 53 20 38 38 120 40 192 4 l51 -25 18 33 c21
38 34 44 34 15 0 -21 19 -31 61 -31 16 0 29 -4 29 -10 0 -5 19 -13 41 -16 25
-4 50 -16 62 -31 13 -14 27 -21 36 -18 9 3 12 3 8 -1 -9 -9 51 -54 72 -54 14
0 14 -2 1 -10 -8 -5 -11 -12 -8 -15 4 -4 15 3 25 14 21 25 39 26 112 6 61 -16
66 -21 81 -87 11 -44 10 -49 -14 -75 -14 -15 -26 -33 -26 -40 0 -8 -22 -13
-61 -15 l-61 -3 -3 -37 c-1 -24 2 -35 9 -32 6 3 2 -2 -8 -10 -11 -9 -24 -16
-30 -16 -5 0 -17 -6 -25 -14 -9 -8 -38 -17 -66 -21 -27 -3 -52 -10 -55 -15 -7
-11 -325 -33 -352 -24 -10 3 -25 -1 -33 -10 -14 -13 -11 -16 22 -21 21 -3 76
-12 123 -19 178 -30 228 -36 340 -41 121 -5 308 -32 325 -47 6 -5 5 -15 -2
-27 -9 -15 -9 -25 -1 -43 13 -26 -1 -25 180 -17 32 1 45 6 41 15 -2 7 5 15 16
19 12 3 21 11 21 16 0 12 77 12 155 0 108 -17 218 -25 305 -23 54 2 124 -5
190 -18 58 -11 134 -20 170 -20 96 0 235 -17 262 -31 38 -20 7 -22 -184 -9
-99 6 -182 9 -184 7 -9 -9 204 -48 259 -47 34 1 57 -3 57 -9 0 -6 -7 -11 -15
-11 -8 0 -15 -4 -15 -9 0 -4 -11 -20 -24 -34 -22 -24 -23 -28 -10 -42 9 -8 33
-15 57 -15 23 0 49 -5 57 -10 11 -7 -4 -10 -48 -10 -40 0 -61 -4 -57 -10 3 -5
-1 -10 -9 -10 -22 0 -20 -17 2 -23 9 -3 -2 -5 -25 -4 -43 1 -73 -15 -73 -39 0
-7 -9 -22 -21 -33 -13 -12 -17 -21 -10 -26 14 -8 14 -72 1 -80 -6 -3 -10 -11
-10 -16 0 -6 4 -7 10 -4 6 4 10 -15 10 -49 0 -43 3 -56 15 -56 8 0 15 5 15 12
0 6 9 1 19 -11 13 -15 20 -18 24 -9 3 9 10 6 24 -9 11 -13 28 -23 37 -23 10 0
16 -8 16 -21 0 -16 5 -20 28 -17 16 2 26 -2 25 -9 -3 -16 36 -23 137 -25 97
-2 124 -10 115 -38 -8 -26 23 -41 69 -33 37 6 61 33 38 41 -21 7 -13 18 22 32
27 10 36 20 41 47 10 55 8 157 -4 161 -14 5 -14 42 0 42 5 0 8 4 5 8 -3 5 1
20 9 35 10 19 10 27 2 31 -9 5 -9 8 1 12 6 3 12 22 12 42 -1 40 -23 90 -37 82
-4 -3 -9 5 -11 16 -2 14 7 29 24 43 22 18 25 23 14 36 -11 14 -10 17 10 22 22
6 22 6 -6 18 l-29 12 39 8 c25 5 52 3 73 -4 41 -15 53 -8 53 31 0 23 11 41 45
74 44 44 46 45 94 38 28 -4 52 -12 55 -20 3 -8 12 -14 19 -14 23 0 50 -37 56
-78 5 -28 12 -38 28 -40 11 -2 29 -12 39 -23 13 -14 30 -19 70 -19 30 0 56 5
60 12 5 8 2 9 -10 5 -9 -4 -15 -3 -12 1 18 29 -64 73 -92 49 -25 -20 -33 14
-27 108 3 50 6 107 8 128 1 21 8 42 16 46 8 5 10 14 6 22 -6 9 -3 11 8 6 11
-4 17 -1 17 7 0 8 6 16 13 18 19 7 113 2 127 -7 8 -5 11 -4 7 2 -4 6 4 14 18
17 14 4 31 17 37 31 12 27 37 34 84 24 18 -3 38 -3 45 2 8 5 31 9 52 9 56 0
35 18 -31 26 -85 10 -99 24 -22 23 36 -1 72 -5 80 -9 8 -4 51 -10 95 -14 44
-3 103 -12 130 -21 l50 -15 -57 5 c-32 3 -58 3 -58 0 0 -8 79 -45 98 -45 10 0
24 -6 30 -12 7 -7 32 -17 55 -23 23 -6 41 -16 40 -22 -1 -6 21 -19 50 -29 50
-18 52 -21 55 -59 2 -22 8 -45 13 -51 5 -6 7 -19 3 -28 -3 -9 -2 -16 4 -16 5
0 12 13 15 28 5 24 13 30 57 42 57 16 63 22 64 62 1 15 5 27 9 25 12 -3 36 43
37 69 0 11 4 24 9 30 13 14 71 198 71 225 0 10 5 19 11 21 6 2 21 46 34 98 37
147 93 321 130 405 34 78 53 134 71 215 30 136 34 147 56 171 30 33 51 78 78
169 13 41 26 77 29 80 4 3 15 32 24 65 10 33 24 80 33 105 9 25 19 60 22 78 4
18 10 33 15 32 4 0 13 0 20 0 17 0 16 -95 -1 -112 -7 -7 -12 -38 -12 -70 0
-48 -4 -63 -23 -81 -17 -16 -24 -34 -25 -69 -1 -26 -10 -72 -20 -103 -17 -50
-18 -61 -6 -95 12 -34 12 -45 0 -72 -7 -18 -30 -82 -51 -143 -37 -109 -53
-162 -102 -325 -45 -153 -93 -294 -109 -322 -8 -16 -13 -28 -10 -28 3 0 -5
-28 -18 -62 -19 -51 -43 -136 -61 -213 -1 -5 -7 -23 -13 -38 -7 -15 -14 -42
-17 -60 -3 -18 -8 -39 -11 -48 -2 -9 0 -29 6 -44 9 -23 13 -25 25 -15 8 7 15
8 15 3 0 -5 7 -10 15 -10 8 0 15 4 15 9 0 5 4 7 9 4 5 -3 11 4 14 15 5 19 11
21 59 15 36 -3 45 -3 28 3 -24 9 -23 9 8 10 20 1 31 -3 27 -9 -3 -5 -2 -10 4
-10 6 0 15 9 21 20 6 11 17 20 25 20 7 0 15 5 17 11 2 6 24 15 48 21 55 12 69
12 99 2 18 -5 23 -4 19 6 -2 8 -30 19 -61 25 -31 6 -59 14 -63 17 -5 6 100 1
166 -8 19 -2 56 -7 83 -10 61 -8 61 -22 0 -26 -48 -3 -48 -4 -19 -16 16 -7 40
-14 55 -15 37 -5 71 -25 71 -43 0 -8 11 -19 25 -26 14 -6 27 -23 30 -39 4 -16
15 -35 24 -41 11 -8 21 -33 25 -60 6 -40 4 -50 -14 -68 -12 -12 -19 -28 -16
-38 7 -21 -8 -47 -22 -38 -6 3 -14 1 -17 -5 -4 -6 2 -13 14 -16 24 -6 21 -28
-15 -108 -17 -39 -20 -53 -11 -64 10 -12 8 -13 -14 -8 -23 6 -31 1 -55 -31
-47 -61 -64 -72 -89 -56 -19 12 -24 12 -40 -4 -20 -19 -69 -19 -92 0 -15 12
-63 2 -63 -12 0 -6 -4 -10 -10 -10 -5 0 -10 6 -10 14 0 18 -6 22 -48 31 -30 6
-33 5 -30 -12 2 -12 12 -18 28 -18 22 0 25 -5 32 -54 5 -33 5 -58 -1 -64 -7
-7 -7 -16 0 -28 7 -13 5 -20 -8 -28 -14 -8 -15 -10 -3 -11 12 0 13 -2 1 -9
-16 -10 -46 -4 -60 13 -6 7 -12 42 -14 79 -2 37 -5 69 -8 72 -3 3 -26 8 -51
11 -43 6 -47 5 -50 -17 -4 -31 -25 -31 -41 0 -8 17 -22 26 -45 28 -39 5 -117
37 -137 57 -13 12 -12 15 1 20 9 3 28 7 42 7 22 1 19 3 -13 11 -22 6 -55 10
-72 11 -41 1 -41 8 -2 48 17 17 28 37 26 44 -3 7 -31 14 -65 18 -42 3 -68 11
-83 26 -18 17 -25 18 -37 9 -12 -10 -19 -7 -41 19 -34 41 -60 32 -36 -13 8
-16 15 -32 15 -36 0 -14 -30 -9 -31 5 0 7 -2 8 -5 1 -2 -6 -18 -8 -35 -6 -19
3 -34 0 -39 -9 -6 -9 -12 -10 -22 -2 -19 16 -48 -8 -48 -40 0 -17 11 -34 32
-51 l33 -25 -19 -36 c-11 -19 -25 -35 -33 -35 -7 0 -13 -9 -13 -19 0 -11 -5
-21 -11 -23 -8 -3 -7 -13 4 -34 11 -22 13 -34 5 -42 -6 -6 -8 -22 -4 -36 5
-19 13 -26 31 -26 13 0 27 -5 30 -10 10 -16 392 -12 399 4 3 8 7 8 13 0 4 -6
18 -13 30 -16 19 -5 21 -3 13 17 -5 13 -6 25 -4 28 5 4 10 40 17 110 1 9 6 15
12 13 5 -2 9 -9 8 -15 -4 -13 -1 -14 31 -2 36 14 53 -9 25 -33 -16 -13 -20
-25 -16 -45 3 -16 1 -33 -6 -40 -8 -8 -8 -11 2 -11 7 0 10 -4 7 -9 -3 -5 1
-11 9 -15 8 -3 15 -12 15 -19 0 -10 -20 -16 -74 -20 -45 -3 -89 -13 -114 -26
-23 -12 -56 -21 -74 -21 -18 0 -51 -11 -73 -25 -22 -13 -56 -25 -75 -25 -43 0
-63 -12 -55 -32 8 -19 -25 -20 -44 0 -13 12 -16 12 -28 -4 -7 -10 -13 -24 -13
-32 0 -22 238 -254 252 -246 7 4 8 3 4 -4 -4 -7 -2 -12 3 -12 6 0 11 4 11 9 0
4 17 5 38 1 20 -3 49 -3 64 1 17 4 34 2 46 -7 11 -8 27 -12 34 -9 8 3 26 -8
42 -25 25 -29 32 -31 89 -30 100 1 151 -14 217 -65 57 -45 58 -47 57 -93 -1
-32 6 -62 22 -94 28 -56 38 -52 77 23 13 26 28 50 34 54 5 3 10 16 10 29 0 22
54 134 148 306 26 47 57 114 69 149 13 36 30 72 38 81 13 15 13 19 2 29 -8 6
-17 29 -21 51 -7 43 -13 45 -82 41 -39 -3 -51 13 -33 45 12 24 52 33 64 15 10
-18 60 -37 90 -36 32 2 32 3 24 70 -3 23 1 32 18 40 16 7 21 15 17 29 -5 14
-2 18 9 13 8 -3 28 -2 44 3 l28 8 -26 1 c-27 1 -59 36 -59 66 0 8 -7 15 -15
15 -8 0 -15 6 -15 14 0 9 -7 12 -20 9 -11 -3 -20 0 -20 6 0 6 6 11 13 11 8 0
7 3 -3 10 -12 7 -10 11 11 18 32 13 131 -3 145 -23 6 -8 20 -15 31 -15 17 0
22 9 27 50 8 57 50 127 81 134 70 16 84 15 117 -9 18 -13 49 -33 69 -44 55
-30 95 -67 109 -100 15 -37 99 -96 213 -149 49 -23 91 -42 93 -42 4 0 88 -39
249 -115 50 -23 108 -50 130 -59 22 -10 72 -33 110 -52 39 -19 84 -34 102 -34
17 0 44 -5 59 -10 14 -6 49 -12 78 -14 28 -2 53 -5 56 -6 3 -1 9 -2 14 -1 5 1
16 -1 25 -5 9 -4 26 -6 39 -5 12 1 22 -2 22 -7 0 -5 28 -23 63 -40 39 -18 77
-47 101 -75 22 -25 43 -44 48 -41 4 3 19 -6 33 -20 54 -54 99 -19 135 105 11
40 26 92 32 114 6 22 14 44 16 49 13 23 76 209 97 286 86 304 139 480 152 505
35 66 123 382 123 442 0 14 18 58 39 97 38 68 91 210 91 242 0 8 9 32 20 54
11 22 20 48 20 60 0 11 11 42 24 68 13 26 30 73 37 105 9 41 17 57 29 57 12 0
19 15 27 58 26 132 43 206 50 211 10 7 53 108 60 139 3 12 9 22 14 22 5 0 9
12 9 28 0 21 2 24 10 12 7 -12 10 -8 10 14 0 16 5 58 11 93 l11 63 48 -6 c53
-7 52 -8 66 71 4 22 18 60 31 84 28 53 28 67 4 124 -19 44 -19 45 0 66 11 12
25 21 32 21 7 0 28 15 47 33 19 18 49 40 65 49 17 8 44 23 60 32 17 9 39 14
50 11 11 -2 26 -5 33 -5z m-5758 -625 c0 -9 -172 -189 -184 -194 -6 -2 -33
-26 -61 -52 -27 -27 -75 -66 -105 -88 -30 -23 -89 -74 -130 -114 -41 -41 -110
-100 -152 -131 -42 -31 -85 -70 -95 -87 -11 -16 -35 -38 -54 -47 -22 -11 -33
-23 -31 -35 2 -11 -6 -21 -23 -27 -14 -5 -25 -14 -25 -19 0 -5 -9 -13 -20 -16
-11 -4 -41 -24 -66 -46 -25 -21 -50 -39 -55 -39 -5 0 -24 -15 -41 -32 -18 -18
-37 -33 -42 -33 -6 0 -20 -14 -31 -31 -11 -17 -32 -38 -47 -47 -16 -9 -28 -20
-28 -25 0 -11 76 -32 117 -32 43 0 103 -19 103 -33 0 -7 17 -23 38 -37 46 -31
59 -47 66 -82 5 -27 7 -27 53 -22 27 3 43 2 37 -3 -14 -10 0 -53 16 -53 6 0 9
-4 6 -9 -3 -5 -15 -7 -27 -4 -14 4 -20 1 -19 -8 5 -29 -1 -40 -17 -37 -15 2
-19 -7 -23 -51 -3 -30 -11 -56 -18 -59 -7 -2 -12 -10 -12 -17 0 -25 -50 -45
-141 -55 -102 -12 -225 -11 -249 1 -55 29 -114 49 -143 49 -34 0 -77 27 -77
49 0 6 -4 11 -8 11 -8 0 -51 33 -55 43 -1 2 4 11 12 20 11 14 11 18 -2 23 -24
9 -56 -14 -62 -44 -3 -15 -10 -41 -15 -58 -6 -17 -10 -38 -10 -47 0 -23 -49
-35 -64 -16 -6 8 -32 23 -57 32 -25 10 -54 24 -65 33 -10 8 -13 13 -6 9 7 -4
4 9 -8 30 -11 19 -20 41 -20 48 1 22 39 58 62 59 13 1 37 13 54 27 90 75 119
97 138 108 12 6 36 30 54 52 18 23 38 41 45 41 7 0 20 9 30 20 9 11 23 20 31
20 7 0 25 12 40 27 26 25 26 28 10 40 -21 15 -22 14 33 17 27 1 50 9 61 22 10
10 34 30 52 44 18 14 38 30 44 35 6 6 41 35 76 65 36 30 74 63 84 72 11 10 28
20 37 23 10 3 21 14 24 24 3 10 24 27 47 37 23 10 59 32 79 49 20 16 63 50 94
75 32 25 75 62 96 83 22 20 43 37 47 37 5 0 19 11 32 25 13 14 29 25 36 25 8
0 49 29 93 64 44 36 108 83 143 105 35 22 80 52 102 68 157 115 196 138 196
118z m-4330 -1398 c41 -4 49 -20 56 -117 6 -78 10 -94 29 -106 23 -15 67 -18
133 -8 38 6 42 4 42 -16 0 -27 17 -60 42 -82 11 -9 17 -21 14 -27 -8 -12 14
-63 31 -74 13 -8 8 -137 -7 -172 -5 -11 -10 -29 -12 -40 -2 -11 -12 -21 -23
-24 -36 -6 -72 -40 -79 -73 -4 -19 -2 -34 5 -39 6 -4 -7 -10 -30 -14 -22 -4
-44 -13 -48 -20 -5 -7 -34 -18 -65 -24 -45 -10 -57 -17 -60 -33 l-3 -20 -27
21 c-31 25 -58 27 -58 5 0 -8 5 -12 11 -9 11 8 38 -22 39 -42 0 -18 -30 -16
-52 4 -10 9 -21 14 -24 11 -2 -3 13 -19 36 -36 32 -23 37 -31 24 -36 -8 -3
-20 -4 -25 0 -5 3 -9 1 -9 -5 0 -5 7 -14 16 -19 24 -13 -1 -25 -25 -12 -24 12
-31 13 -31 1 0 -5 8 -11 18 -14 16 -4 16 -4 -2 -12 -10 -4 -21 -4 -25 2 -3 5
-20 18 -37 27 -17 10 -36 27 -42 37 -13 20 -7 25 51 43 11 4 15 11 11 18 -6 9
-9 9 -12 0 -2 -7 -15 -12 -29 -12 -21 0 -24 2 -13 15 7 8 18 15 26 15 7 0 17
6 21 14 4 8 17 16 28 19 11 3 0 3 -25 -1 -25 -4 -63 -6 -84 -5 -26 1 -34 -2
-25 -7 10 -7 11 -12 3 -20 -8 -8 -16 -7 -27 4 -18 19 -33 20 -43 4 -4 -6 1
-17 11 -24 28 -21 11 -28 -29 -13 -39 14 -43 24 -21 53 9 12 15 42 15 72 0 65
-22 95 -94 125 -40 16 -59 31 -73 56 -9 18 -21 33 -25 33 -5 0 -8 11 -8 25 0
14 -7 42 -15 62 -14 32 -14 37 1 48 11 7 16 26 16 53 -1 35 3 43 25 54 18 9
28 23 30 43 3 16 10 33 16 37 16 10 0 15 -113 37 l-95 19 114 0 c83 0 116 4
122 14 6 9 11 10 17 2 9 -14 67 -25 87 -18 22 9 18 21 -7 28 -21 5 -21 6 -6
18 10 8 23 40 30 77 20 100 38 104 308 78z m-2379 -297 c10 -6 19 -16 19 -23
1 -7 21 -34 45 -61 24 -27 42 -53 39 -57 -10 -16 -94 -9 -134 11 -21 11 -48
33 -59 49 -12 16 -31 33 -43 37 -20 6 -20 7 -4 16 13 7 25 6 41 -2 18 -10 27
-9 46 1 21 11 21 14 6 17 -20 4 -13 22 9 22 9 0 24 -5 35 -10z m1544 -465 c48
-38 67 -83 59 -145 -7 -54 8 -93 84 -223 19 -32 32 -60 30 -62 -1 -1 -37 -6
-78 -9 l-76 -7 -57 86 c-31 47 -57 89 -57 93 0 4 -20 26 -45 50 -52 49 -65 84
-40 108 9 9 14 25 12 35 -3 13 4 21 27 29 60 23 76 34 76 52 0 25 25 22 65 -7z
m7183 -32 c23 -18 62 -16 62 3 0 24 64 15 68 -10 3 -16 -1 -18 -27 -14 -24 4
-31 1 -31 -13 0 -9 -7 -19 -15 -23 -8 -3 -12 -12 -9 -20 9 -24 -32 -57 -64
-50 -67 15 -65 12 -60 72 4 43 10 60 29 75 18 14 24 16 27 5 3 -7 11 -19 20
-25z m-8583 -263 c417 -35 405 -34 405 -16 0 16 21 26 55 26 33 0 117 -29 130
-45 6 -8 59 -17 145 -24 74 -6 154 -14 177 -17 l42 -6 3 -72 3 -71 94 -27
c101 -29 119 -39 99 -56 -17 -13 -185 30 -202 52 -8 12 -57 19 -198 31 -104 8
-199 13 -213 9 -38 -9 -87 14 -80 37 5 14 2 17 -9 13 -8 -3 -14 -11 -13 -17 1
-6 -18 -10 -53 -8 -78 2 -570 41 -597 47 -15 3 -25 14 -29 32 -3 15 -8 34 -11
42 -4 8 -7 18 -7 23 -1 4 -5 6 -11 5 -5 -2 -9 -24 -7 -50 2 -39 0 -48 -14 -48
-9 0 -23 -8 -31 -17 -13 -17 -14 -17 -29 5 -11 14 -27 22 -45 22 -16 0 -29 5
-29 10 0 6 5 10 10 10 26 0 6 19 -22 22 l-32 3 1 60 c1 33 2 61 2 63 1 2 25 1
54 -2 28 -4 214 -20 412 -36z m1625 -274 c0 -7 12 -16 28 -19 21 -5 41 -28 91
-107 36 -56 69 -104 74 -107 15 -9 27 19 28 67 1 25 5 59 9 75 l8 30 1 -29 c0
-16 6 -46 13 -67 9 -32 16 -39 37 -40 l26 -2 -27 -4 c-24 -4 -27 -9 -33 -57
-6 -46 -4 -58 18 -94 22 -34 32 -40 67 -44 23 -2 44 0 46 4 3 4 -6 8 -20 8
-14 0 -26 5 -26 10 0 6 15 10 34 10 29 0 34 -4 40 -30 3 -16 10 -30 16 -30 13
0 13 17 0 25 -5 3 -10 13 -10 21 0 8 5 14 10 14 6 0 10 -7 10 -15 0 -9 6 -26
14 -38 20 -32 29 -67 17 -67 -6 0 -18 12 -26 28 -9 15 -13 18 -10 7 19 -59 18
-75 -5 -83 -16 -6 -19 -11 -12 -16 7 -4 10 -17 6 -32 -4 -17 -1 -31 11 -44 25
-27 35 -16 35 38 0 52 12 78 29 68 8 -5 9 -36 5 -101 l-7 -94 64 -101 c72
-113 80 -125 129 -201 20 -30 49 -80 65 -111 25 -51 32 -58 58 -58 25 0 28 -2
17 -15 -11 -13 3 -15 114 -15 69 0 126 -4 126 -9 0 -4 -51 -12 -112 -17 -127
-10 -132 -15 -87 -74 14 -19 32 -46 39 -60 7 -14 26 -40 43 -57 24 -26 39 -33
68 -33 44 0 52 -15 43 -75 -5 -34 0 -55 26 -111 17 -38 39 -78 49 -89 10 -11
31 -42 47 -69 16 -27 37 -60 46 -75 10 -14 22 -36 27 -48 5 -11 15 -24 21 -28
6 -4 22 -25 37 -48 14 -22 41 -56 59 -75 19 -19 34 -40 34 -46 0 -6 21 -38 48
-71 55 -70 82 -124 82 -165 0 -16 5 -32 10 -35 6 -3 10 -15 10 -25 0 -10 8
-25 18 -32 10 -7 29 -29 43 -48 13 -19 27 -37 30 -40 3 -3 21 -32 39 -65 19
-33 38 -62 43 -64 5 -2 3 -8 -4 -13 -9 -6 1 -7 28 -3 48 8 193 -4 193 -15 0
-10 -128 -31 -170 -29 -20 2 -41 -1 -48 -5 -7 -4 -62 -11 -123 -16 -93 -7
-114 -11 -134 -30 -32 -30 -108 -35 -155 -9 -32 18 -33 19 -10 19 24 1 24 1 6
15 -11 8 -29 15 -41 15 -61 0 -16 45 54 55 l48 6 -3 58 c-1 43 -9 67 -28 96
-14 21 -26 46 -26 57 0 41 -59 128 -88 128 -7 0 -21 18 -29 40 -9 22 -19 40
-24 40 -8 0 -69 105 -69 120 0 6 -11 33 -25 62 -14 28 -25 61 -25 72 0 12 -7
34 -15 50 -8 15 -15 32 -15 38 0 28 -65 139 -103 177 l-45 43 -228 5 c-126 3
-231 7 -233 9 -2 2 83 4 190 4 212 0 246 4 228 26 -13 16 -59 19 -59 4 0 -16
-70 -12 -76 4 -9 23 15 56 40 56 22 0 22 1 12 53 -14 65 -21 77 -50 77 -35 0
-60 24 -63 61 -2 33 -31 95 -109 232 -21 38 -44 78 -51 90 -12 21 -12 21 -21
-4 -6 -13 -13 -67 -17 -119 -6 -92 -13 -159 -36 -360 -12 -103 -14 -119 -24
-227 -4 -40 -11 -73 -17 -73 -6 0 -8 26 -3 73 33 365 38 468 27 479 -9 9 -12
6 -12 -11 0 -22 -3 -23 -37 -18 -20 4 -43 13 -52 22 -23 23 15 70 57 70 17 0
36 5 41 10 6 6 13 49 17 95 3 47 6 87 7 90 1 3 -4 14 -10 25 -6 11 -11 37 -11
58 0 36 -67 187 -83 187 -4 0 -10 11 -13 24 -3 13 -21 47 -40 75 l-34 51 -7
-68 c-3 -37 -7 -76 -8 -87 -1 -13 -11 -21 -26 -23 -21 -3 -23 -1 -17 25 4 15
10 78 13 139 6 115 -3 151 -41 183 -9 8 -16 22 -16 32 0 10 -8 24 -18 31 -23
17 -52 79 -52 110 0 14 -3 28 -7 32 -5 4 -13 21 -19 38 l-10 31 -18 -36 c-11
-25 -15 -48 -11 -70 8 -40 -22 -84 -49 -74 -13 5 -15 15 -11 48 3 22 8 46 12
52 9 14 11 59 4 72 -3 5 -4 26 -2 47 2 32 -1 38 -17 38 -11 0 -22 -7 -26 -15
-6 -16 -46 -21 -46 -6 0 18 74 71 99 71 18 0 22 3 13 9 -7 4 -24 6 -36 4 -27
-6 -45 15 -25 28 8 5 26 9 42 9 15 0 26 3 26 8 -3 16 2 22 16 22 8 0 15 -6 15
-14z m-475 -69 c72 -23 134 -40 139 -39 5 2 13 -3 18 -10 7 -9 8 -8 6 6 -2 13
-15 23 -35 28 -56 15 -48 28 17 28 68 0 123 -21 114 -45 -3 -7 -12 -15 -19
-17 -10 -2 -7 -18 14 -61 15 -32 32 -62 37 -65 5 -4 18 -25 29 -46 31 -62 51
-81 94 -96 40 -13 57 -40 25 -40 -11 0 -14 -6 -8 -22 4 -13 6 -27 6 -33 -1 -5
-4 -44 -7 -85 -3 -53 -9 -78 -21 -87 -10 -7 -13 -17 -8 -25 5 -7 7 -26 5 -41
-2 -22 2 -30 18 -34 12 -3 21 -11 21 -18 0 -8 3 -21 7 -31 5 -14 2 -16 -15
-12 -18 5 -22 2 -22 -18 0 -13 5 -24 10 -24 6 0 10 -12 10 -27 0 -16 5 -35 10
-43 8 -12 10 -10 10 8 0 13 6 30 14 37 12 13 15 7 18 -38 2 -28 0 -54 -4 -55
-5 -2 -5 -8 -2 -13 3 -6 -4 -7 -18 -4 -32 8 -50 -14 -46 -57 4 -43 22 -38 26
7 2 23 8 35 15 32 17 -5 18 -157 1 -157 -7 0 -14 6 -17 13 -3 9 -7 9 -20 -2
-15 -12 -17 -11 -18 5 -1 14 -3 12 -8 -6 -4 -14 -3 -28 2 -32 7 -4 4 -56 -7
-145 -9 -76 -19 -160 -21 -188 -5 -59 -15 -105 -21 -105 -3 0 -15 5 -26 11
-14 8 -23 8 -31 0 -14 -14 -47 -14 -47 -1 0 15 48 31 74 24 18 -4 25 -1 30 18
7 27 7 139 -1 121 -2 -7 -14 -13 -24 -13 -18 0 -20 5 -15 45 2 24 8 50 12 56
5 8 3 9 -6 4 -8 -5 -11 -3 -8 6 3 8 16 14 30 14 23 -1 25 3 26 41 0 42 0 42
-28 34 -34 -10 -45 -2 -26 19 14 16 29 184 18 196 -5 5 -4 71 2 225 1 18 7 26
23 28 20 3 22 6 11 25 -6 12 -14 24 -18 27 -12 8 5 95 18 93 15 -4 15 -3 -3
41 -12 28 -13 41 -4 57 6 11 8 27 5 34 -3 8 2 28 11 46 15 29 14 32 -1 41 -9
5 -14 13 -11 18 3 5 -8 30 -24 57 -17 26 -40 67 -52 91 -12 23 -26 42 -31 42
-5 0 -6 -48 -2 -107 l7 -108 -31 27 c-18 15 -41 29 -52 33 -11 3 -20 10 -20
14 0 4 -10 7 -22 7 -16 -1 -23 5 -23 18 0 12 -14 24 -45 36 -35 14 -45 23 -46
41 -1 13 -6 35 -12 49 -10 23 -11 22 -11 -17 -1 -54 -11 -59 -41 -22 -14 16
-32 29 -41 29 -30 0 -62 34 -55 58 4 12 12 21 18 19 6 -1 13 4 15 11 3 9 -2
11 -19 8 -30 -6 -58 -17 -58 -23 0 -3 8 -12 18 -20 15 -12 13 -13 -18 -7 -19
3 -38 8 -42 10 -9 6 1 103 12 124 5 10 6 21 2 25 -14 15 87 -8 213 -48z
m12071 19 c7 -39 0 -56 -23 -56 -13 0 -11 -6 9 -27 31 -33 41 -70 18 -64 -8 2
-24 6 -34 9 -16 4 -18 2 -12 -14 10 -24 10 -25 1 -51 -7 -23 -29 -31 -40 -14
-7 13 -16 161 -9 161 3 0 14 -5 25 -10 15 -8 19 -7 19 4 0 9 -10 21 -22 27
-14 8 -18 14 -10 17 6 2 12 15 12 28 0 20 5 24 30 24 25 0 30 -4 36 -34z
m-12998 -205 c10 -6 3 -16 -24 -36 -36 -28 -37 -28 -152 -22 -63 4 -117 8
-119 11 -3 3 10 19 29 36 l33 31 110 -7 c61 -3 116 -9 123 -13z m12673 -85
c38 -20 54 -23 83 -16 34 7 38 6 51 -20 23 -45 20 -70 -11 -70 -34 0 -181 73
-224 111 l-35 31 45 -5 c25 -3 66 -17 91 -31z m-11621 -85 c0 -5 12 -12 28
-14 24 -4 23 -4 -8 -6 -33 -3 -33 -4 -10 -11 14 -4 42 -8 63 -9 l38 -1 -3 -77
-3 -78 -40 0 c-102 1 -540 28 -563 35 -15 4 23 5 85 2 95 -4 114 -2 128 12 9
9 12 16 6 16 -6 0 -11 4 -11 9 0 4 12 6 28 3 15 -2 24 -2 21 2 -3 3 -21 8 -40
10 -19 2 -37 4 -41 5 -4 0 -7 9 -6 19 3 37 -3 51 -24 55 -13 2 45 5 127 6 91
1 145 5 136 10 -11 7 -10 10 5 14 34 9 84 7 84 -2z m12716 -25 c8 -8 14 -21
14 -30 0 -17 -29 -35 -47 -29 -6 2 -18 -6 -27 -19 -9 -12 -16 -19 -16 -15 0 5
-5 5 -11 1 -8 -4 -7 -9 2 -15 11 -8 11 -11 -4 -20 -9 -6 -15 -14 -12 -20 7
-10 -18 -13 -28 -2 -4 3 -2 12 5 20 21 26 2 23 -32 -5 -88 -73 -90 -75 -97
-129 -4 -40 -11 -56 -30 -68 -28 -19 -43 -12 -43 18 0 13 -12 30 -29 41 -15
11 -33 28 -40 38 -9 15 -8 20 6 25 10 4 23 13 29 22 6 8 18 12 27 8 22 -8 127
76 127 102 0 15 33 22 42 9 5 -9 8 -5 8 11 0 20 4 22 25 17 18 -5 25 -2 25 8
0 16 27 29 41 20 5 -3 12 2 15 10 8 20 31 21 50 2z m-6256 -192 c0 -28 -3 -35
-15 -30 -12 4 -15 -3 -15 -35 0 -36 2 -39 19 -29 24 12 31 13 31 2 0 -5 -11
-14 -24 -20 -16 -7 -26 -21 -28 -39 -2 -19 -10 -29 -23 -31 -11 -2 -24 -9 -30
-16 -26 -33 -75 -42 -75 -14 0 6 -8 20 -17 31 -17 19 -17 20 5 8 12 -7 27 -9
33 -5 6 3 -15 22 -45 41 -31 19 -56 41 -56 49 0 21 18 17 51 -10 25 -21 33
-23 64 -15 20 6 46 7 58 4 15 -4 18 -3 8 3 -10 7 -10 11 -1 17 6 4 10 23 9 44
-2 24 1 35 9 34 7 -2 12 8 12 22 0 16 6 25 15 25 11 0 15 -11 15 -36z m5886
-116 c3 -12 -15 -37 -59 -80 -81 -79 -232 -217 -267 -243 -24 -18 -25 -22 -13
-45 11 -23 11 -25 -9 -28 -11 -2 -33 5 -47 16 -15 10 -36 22 -49 26 -12 4 -22
13 -22 19 0 12 -31 28 -78 42 -33 10 -23 26 34 56 36 20 54 24 67 17 10 -5 30
-8 45 -6 23 3 27 7 24 30 -3 32 5 37 72 52 40 9 52 16 54 33 2 14 8 20 17 16
13 -4 95 50 103 69 2 5 8 8 12 8 5 0 23 13 41 29 27 25 35 28 50 18 11 -7 22
-20 25 -29z m-12888 -124 c83 -5 115 -10 119 -20 21 -56 -111 -559 -147 -559
-18 0 -16 39 6 103 16 47 18 98 6 106 -5 3 -18 3 -29 0 -17 -5 -26 -23 -43
-87 -26 -96 -41 -117 -85 -117 -20 0 -35 -6 -39 -15 -6 -17 22 -35 53 -35 24
0 37 -16 19 -23 -7 -3 -3 -6 10 -6 27 -1 39 -25 23 -45 -9 -10 -9 -16 -1 -21
8 -5 6 -11 -5 -19 -15 -11 -15 -13 -1 -25 8 -7 23 -14 33 -15 9 -2 28 -23 40
-49 22 -44 128 -147 166 -160 9 -4 22 -18 29 -32 13 -28 45 -33 62 -9 30 40
64 -33 45 -99 -7 -27 -7 -27 29 -21 35 5 38 3 55 -33 10 -21 15 -46 11 -56 -4
-11 -1 -17 9 -17 9 0 28 -5 44 -11 l28 -11 -23 -18 -22 -19 52 -5 c119 -12
308 -16 765 -17 349 0 484 -3 490 -12 9 -15 6 -136 -9 -344 l-12 -173 -44 0
c-35 0 -45 4 -49 20 -5 17 -14 20 -72 22 -36 0 -71 1 -77 1 -7 0 -128 -4 -270
-8 -143 -5 -272 -8 -287 -7 -18 1 -25 -3 -21 -10 5 -8 1 -9 -11 -4 -10 4 -43
2 -74 -5 -47 -10 -56 -9 -66 5 -11 14 -14 14 -30 -4 -16 -18 -16 -20 9 -44 14
-15 37 -26 51 -26 28 0 41 -20 31 -46 -5 -13 -9 -14 -21 -4 -8 7 -15 9 -15 4
0 -4 -5 -3 -12 4 -7 7 -24 12 -39 12 -15 0 -31 5 -34 10 -10 16 -70 11 -120
-10 -39 -17 -46 -17 -50 -5 -3 8 -7 22 -10 31 -4 11 -11 13 -27 8 -13 -4 -27
-6 -33 -6 -82 13 -85 15 -91 38 -5 21 -18 30 -64 42 -8 2 -120 6 -247 9 -128
3 -233 9 -233 14 0 5 21 9 48 10 101 2 240 17 302 33 36 9 73 17 83 17 19 0
23 14 6 25 -6 3 -16 1 -22 -5 -25 -25 -56 -10 -128 64 -43 44 -81 75 -93 75
-24 0 -66 37 -66 59 0 10 -3 12 -8 6 -4 -6 -27 -26 -52 -45 -25 -19 -53 -43
-62 -54 -30 -32 -20 -12 27 59 38 56 43 70 33 82 -7 9 -11 30 -9 48 4 47 -14
73 -52 80 -19 4 -49 21 -69 38 -20 18 -51 44 -69 58 -32 24 -32 26 -20 57 8
18 12 35 9 37 -9 9 -65 -50 -61 -65 3 -10 0 -9 -7 3 -6 9 -8 22 -5 28 4 5 -4
20 -17 32 -13 12 -32 34 -43 49 -12 17 -32 29 -50 32 -48 5 -85 17 -85 27 0 5
7 9 15 9 8 0 15 3 16 8 5 51 2 67 -15 84 -16 15 -20 31 -20 95 1 51 6 88 16
108 9 17 19 57 23 90 7 55 62 239 84 282 12 25 41 126 41 146 0 21 37 41 58
31 9 -4 34 -8 55 -9 41 -1 42 3 9 74 -12 26 -13 37 -4 52 9 15 8 19 -8 24 -11
3 -24 4 -29 0 -5 -3 -12 -1 -15 4 -10 15 23 41 53 41 35 0 43 8 30 32 -11 20
-36 20 329 2z m1026 -31 c-5 -28 -3 -39 10 -49 14 -10 15 -17 7 -32 -9 -16 -7
-19 7 -18 14 1 17 -8 17 -49 -1 -53 -28 -317 -46 -447 -14 -97 -33 -105 -25
-10 3 37 12 146 21 242 19 227 20 218 -7 222 -15 2 -24 11 -26 25 -2 15 -13
24 -32 28 -39 9 -30 45 11 45 30 0 40 12 44 53 4 37 5 38 15 32 6 -4 8 -21 4
-42z m10918 3 c35 -18 99 -43 141 -56 80 -24 92 -35 77 -74 -7 -18 -14 -22
-34 -19 -15 3 -32 1 -39 -5 -9 -8 -34 -6 -87 7 -74 18 -146 33 -165 35 -5 1
-24 7 -41 14 -39 17 -50 54 -22 79 10 10 26 26 36 36 25 25 62 21 134 -17z
m-1011 -46 c29 -12 58 -16 114 -13 70 3 99 -3 129 -29 6 -5 20 -15 31 -23 30
-20 13 -28 -72 -33 -70 -4 -83 -1 -127 22 -45 24 -74 27 -61 5 8 -12 -8 -12
-20 0 -6 5 -39 15 -75 21 -106 19 -178 64 -113 72 56 6 157 -5 194 -22z m-801
-144 c0 -15 -92 -97 -121 -108 -14 -5 -19 -17 -19 -42 0 -42 -26 -61 -70 -51
-44 10 -72 50 -64 94 9 54 13 63 26 55 6 -4 24 -8 41 -10 16 -1 34 -7 39 -12
8 -8 23 -2 52 21 23 17 43 35 44 39 2 5 12 8 23 8 10 0 19 5 19 10 0 6 7 10
15 10 8 0 15 -6 15 -14z m731 -35 c-30 -27 -43 -62 -41 -120 1 -51 6 -54 77
-48 43 4 71 2 85 -6 32 -19 70 -58 63 -66 -13 -13 -210 -5 -362 15 -40 5 -42
4 -60 -33 l-18 -38 -3 47 c-3 40 -7 48 -30 57 -15 5 -22 10 -15 10 7 1 10 7 7
14 -3 9 18 25 58 46 76 40 138 88 138 106 0 8 17 19 38 25 20 5 43 14 51 19 8
5 20 7 28 4 10 -4 6 -13 -16 -32z m-7214 -62 c15 -5 40 -21 54 -35 23 -22 27
-23 39 -9 13 15 80 22 80 7 0 -4 -8 -19 -17 -32 -10 -14 -16 -27 -15 -30 1 -3
-8 -6 -22 -8 -19 -2 -25 -11 -30 -38 -4 -19 -4 -39 -1 -44 3 -6 31 -10 61 -10
l54 0 0 -45 0 -45 -76 0 -77 0 7 43 c11 65 12 107 4 107 -4 0 -12 10 -19 21
-9 17 -8 20 3 14 7 -5 0 6 -16 23 -17 18 -39 32 -51 32 -28 0 -37 10 -24 26 8
10 3 15 -23 23 l-33 9 37 1 c20 1 49 -4 65 -10z m5388 -25 c22 -7 47 -14 56
-14 9 0 30 -7 45 -15 16 -8 43 -15 60 -15 28 0 32 -4 37 -32 6 -39 -3 -49 -61
-72 -45 -17 -84 -21 -96 -9 -3 4 -12 8 -19 9 -7 1 -29 5 -49 9 -21 4 -38 5
-38 2 0 -3 25 -22 55 -42 30 -21 55 -43 55 -51 0 -10 -14 -14 -55 -14 -66 0
-71 -14 -12 -32 l42 -12 -47 -6 c-26 -3 -51 -9 -55 -14 -4 -4 8 -21 27 -37
l34 -29 7 -183 c11 -267 10 -315 -2 -294 -5 9 -7 22 -4 27 3 6 -1 13 -10 16
-10 4 -14 16 -13 32 2 18 -2 27 -12 27 -8 0 -14 8 -14 17 1 10 -8 19 -22 22
-15 4 -21 11 -18 21 4 8 1 15 -5 15 -6 0 -11 9 -11 21 0 11 -10 29 -22 40
l-23 18 28 1 c15 0 27 5 27 10 0 6 -9 10 -20 10 -21 0 -27 14 -11 24 5 3 7 15
4 26 -4 14 0 20 11 20 23 0 20 9 -9 32 -31 24 -45 49 -50 92 -3 18 -13 52 -24
76 -10 24 -17 48 -15 55 3 6 -7 17 -20 23 -23 10 -25 14 -15 39 8 21 7 28 -6
35 -14 8 -13 13 7 41 23 33 68 75 122 115 33 25 61 24 141 -4z m306 -61 c60
-69 106 -154 267 -493 10 -19 25 -46 35 -59 16 -22 24 -91 11 -91 -4 0 -34 24
-68 53 -34 29 -72 61 -85 69 -13 9 -29 27 -35 40 -6 13 -35 34 -63 48 -60 28
-67 39 -23 32 58 -8 28 27 -44 54 -37 13 -44 30 -17 39 23 7 29 35 7 35 -7 0
-19 6 -25 13 -8 11 -6 18 9 32 25 23 25 31 -1 38 -18 5 -21 11 -16 36 4 17 2
33 -4 37 -6 3 -8 19 -5 34 3 17 -1 42 -10 59 -8 17 -13 35 -9 41 12 19 52 10
76 -17z m-3386 -198 c77 -8 167 -15 200 -15 71 0 112 -9 95 -20 -9 -6 -4 -19
18 -46 16 -22 33 -49 37 -61 3 -13 12 -23 18 -24 36 -1 137 -178 124 -214 -11
-28 -109 -59 -307 -95 -52 -10 -111 -23 -130 -30 -69 -23 -90 -33 -90 -39 0
-10 122 -5 175 8 28 7 91 16 140 21 50 5 100 12 112 15 28 9 127 -54 147 -94
9 -16 21 -31 28 -34 39 -14 -94 -17 -392 -10 l-335 8 -3 323 c-3 262 -1 322
10 322 7 0 76 -7 153 -15z m1400 -500 c0 -10 7 -20 15 -23 8 -3 23 -13 33 -23
21 -23 57 -25 57 -4 0 17 16 20 25 6 3 -5 0 -13 -6 -16 -7 -5 -3 -14 11 -27
36 -33 20 -43 -61 -39 -91 4 -146 20 -193 56 -41 31 -44 41 -15 48 13 3 19 12
17 23 -3 20 27 26 49 11 8 -6 10 -2 6 13 -5 20 -4 21 28 7 21 -8 34 -20 34
-32z m641 -794 c22 -13 33 -29 36 -50 5 -33 3 -34 -49 -31 -34 2 -45 -13 -17
-24 9 -3 34 -6 55 -6 24 0 38 -4 34 -10 -13 -21 -235 -7 -235 15 0 7 -10 16
-22 20 -23 8 -23 8 2 12 30 6 42 22 34 46 -4 13 0 17 20 17 23 0 26 -4 26 -34
0 -42 8 -66 24 -66 7 0 10 19 7 56 -4 77 22 93 85 55z m-4762 -49 c-17 -12
-43 -72 -38 -87 3 -8 -4 -22 -15 -32 -25 -21 -29 -73 -6 -73 8 0 15 -7 15 -15
0 -15 -34 -21 -89 -16 -36 3 -122 -19 -157 -40 -17 -11 -38 -19 -46 -19 -9 0
-21 -7 -29 -16 -22 -27 7 -34 145 -33 101 0 132 -3 144 -14 16 -17 9 -37 -14
-37 -8 0 -13 4 -10 9 4 6 -28 8 -76 6 -46 -2 -186 -6 -312 -9 -126 -3 -232 -8
-234 -11 -3 -3 -19 -3 -36 0 -17 3 -44 1 -61 -4 -29 -9 -29 -9 15 -12 76 -4
-121 -17 -277 -18 -98 -1 -144 3 -149 11 -5 8 23 10 112 5 66 -4 132 -3 149 2
21 7 -27 10 -156 10 -108 -1 -204 4 -228 11 -33 9 -51 8 -79 -2 -46 -16 -214
-25 -329 -17 -16 1 -53 -1 -83 -4 -43 -5 -46 -4 -13 2 51 9 63 18 37 27 -46
16 -182 77 -210 95 -25 15 -42 18 -78 13 -26 -4 -49 -11 -53 -17 -3 -5 -5 -34
-4 -63 1 -51 0 -54 -22 -50 -12 3 -60 8 -106 11 -132 10 -138 16 -61 56 36 18
78 39 93 46 25 11 65 43 54 43 -2 0 -30 -11 -61 -25 -68 -30 -66 -30 -66 -5 0
17 -7 20 -42 20 -24 0 -50 5 -58 10 -12 8 -11 10 8 10 13 0 22 6 22 15 0 17
-25 20 -35 5 -3 -5 -19 -10 -36 -10 -20 0 -29 5 -30 18 -1 16 -2 15 -6 -1 -4
-15 -11 -17 -35 -12 -24 6 -30 3 -35 -14 -3 -12 -9 -21 -14 -21 -5 0 -9 -7 -9
-15 0 -17 -18 -19 -39 -6 -8 5 -11 16 -6 30 5 16 2 21 -12 22 -28 3 -57 5 -70
7 -7 1 -10 9 -6 19 4 11 3 14 -5 9 -7 -4 -12 -3 -12 2 0 13 67 31 125 33 28 1
62 8 78 16 22 11 28 11 31 1 13 -42 17 -49 26 -43 6 4 8 10 5 15 -12 20 30 28
165 34 121 6 149 4 165 -9 16 -12 17 -16 6 -24 -9 -6 -10 -14 -3 -27 5 -11 7
-25 4 -32 -3 -9 2 -13 14 -10 15 2 19 12 19 42 0 37 2 39 45 52 64 19 216 8
242 -18 13 -13 34 -18 81 -19 45 0 57 -3 42 -9 -18 -8 592 -5 940 5 61 1 115
-2 122 -7 7 -5 14 -5 18 2 10 16 105 13 111 -5 3 -8 -6 -39 -20 -69 -14 -30
-26 -60 -26 -65 0 -14 139 -15 160 -1 12 7 12 12 0 34 -7 14 -18 26 -24 26 -6
0 -23 21 -39 46 l-27 45 55 -2 c30 -1 58 0 62 4 3 4 21 7 40 7 33 0 43 12 22
26 -6 3 -30 6 -53 6 -22 -1 -49 5 -59 13 -18 13 -18 15 -2 39 21 32 33 33 41
2 4 -16 15 -26 32 -29 15 -2 35 -8 45 -12 14 -6 20 -2 24 14 3 12 13 21 24 21
10 0 22 6 26 13 4 8 21 22 37 32 27 18 29 18 41 1 8 -10 31 -20 52 -22 34 -4
40 -2 63 30 14 20 32 36 40 36 9 0 11 -3 4 -8z m5060 -62 c-6 -25 -3 -30 14
-30 11 0 23 -6 25 -12 4 -9 6 -8 6 2 1 12 12 14 48 12 27 -2 79 4 117 12 45
11 73 13 80 6 7 -5 66 -11 132 -12 l119 -3 -3 -80 c-2 -44 -6 -88 -8 -97 -4
-12 0 -18 10 -18 30 0 16 -17 -25 -29 -25 -8 -84 -11 -153 -9 -84 2 -117 0
-129 -11 -15 -12 -15 -15 6 -32 l22 -18 -30 0 c-24 0 -26 2 -11 8 15 6 9 10
-30 21 -27 7 -53 17 -58 21 -13 12 -44 11 -48 -1 -2 -6 -28 -7 -73 -1 -50 6
-101 4 -180 -6 -60 -9 -134 -15 -162 -14 -45 2 -53 -1 -54 -16 -1 -17 -2 -17
-6 0 -2 9 -9 17 -14 17 -5 0 -9 7 -9 16 0 8 -4 12 -10 9 -5 -3 -10 -14 -10
-24 0 -25 -26 -47 -33 -29 -3 7 -6 0 -7 -17 -1 -16 -11 19 -21 79 -16 88 -17
111 -7 118 18 11 319 2 392 -12 32 -6 67 -9 77 -7 11 3 17 1 13 -4 -8 -13 60
-11 91 3 17 8 25 19 25 37 l0 25 -16 -22 c-17 -24 -36 -30 -28 -9 4 11 -11 14
-67 16 -40 1 -87 8 -106 16 -25 11 -62 13 -143 9 -96 -4 -114 -3 -149 16 -32
16 -39 17 -35 5 5 -13 2 -14 -22 -4 -16 6 -31 10 -34 9 -2 -1 -6 4 -8 10 -3 7
5 9 24 4 19 -5 25 -4 20 5 -5 8 28 11 123 11 110 0 130 2 125 15 -4 10 3 16
23 20 15 4 34 9 42 11 7 2 30 -1 51 -7 32 -10 42 -9 61 5 36 25 49 21 43 -14z
m1016 -41 c80 -25 112 -46 91 -59 -12 -7 -12 -11 -2 -23 10 -13 4 -18 -38 -32
-28 -9 -59 -14 -68 -11 -10 3 -24 2 -32 -3 -20 -13 54 -16 219 -11 58 1 73 5
83 21 16 26 57 25 57 -1 0 -31 52 -27 67 5 9 20 8 25 -3 25 -24 0 -16 17 14
28 57 22 69 25 127 37 66 15 75 13 75 -16 0 -15 -8 -19 -37 -21 -21 0 -48 0
-60 1 -17 1 -21 -2 -17 -14 6 -14 -9 -19 -53 -18 -15 1 -16 -7 -4 -26 5 -8 31
-18 58 -22 37 -5 26 -7 -54 -8 -80 -1 -104 -4 -111 -16 -7 -14 -11 -14 -40 0
-43 22 -128 17 -126 -7 1 -13 -5 -18 -22 -18 -12 0 -26 -5 -30 -11 -5 -8 -10
-6 -16 5 -12 20 -38 21 -38 0 0 -10 -6 -14 -17 -10 -10 2 -44 7 -75 11 -44 5
-56 10 -51 21 7 18 -4 18 -23 -1 -10 -9 -35 -15 -67 -15 -29 0 -68 -3 -88 -6
-33 -6 -37 -4 -50 25 -8 17 -17 31 -21 31 -5 0 -8 6 -8 14 0 10 16 17 48 21
26 3 54 7 62 8 16 2 24 53 9 62 -5 4 -9 17 -9 31 0 24 1 24 92 24 66 0 111 -6
158 -21z m-6755 -41 c-37 -20 -60 -21 -313 -26 -249 -4 -272 -3 -266 12 5 13
22 16 95 16 49 0 89 -4 89 -8 0 -4 16 -9 35 -10 32 -2 52 15 23 20 -11 2 166
10 327 15 l50 2 -40 -21z m6732 -184 c49 -6 52 -8 51 -35 -1 -28 -2 -29 -37
-22 -20 5 -86 7 -148 6 l-112 -2 -10 30 -10 29 107 0 c59 0 130 -3 159 -6z
m-9373 -24 c18 -7 34 -6 53 3 21 9 27 9 31 -1 2 -8 25 -12 67 -12 55 0 65 -3
78 -24 16 -23 15 -24 -15 -30 -17 -3 -51 -5 -77 -5 -45 2 -44 2 19 12 97 15
62 18 -100 9 -168 -9 -191 -7 -183 17 14 39 70 53 127 31z m1866 -82 c43 -8
161 -11 350 -10 189 1 280 -1 270 -8 -8 -5 -10 -10 -5 -11 6 -1 -5 -5 -23 -9
-17 -4 -115 -7 -215 -7 -101 -1 -193 -4 -205 -7 -13 -5 -22 -3 -22 3 0 12 -33
15 -44 4 -10 -10 -108 -14 -102 -4 3 4 -33 8 -80 7 -47 0 -78 -3 -67 -7 10 -4
-10 -7 -47 -7 -43 0 -57 2 -40 7 23 7 22 8 -14 15 -21 4 -45 13 -52 20 -10 11
1 13 58 10 50 -2 77 1 92 12 21 14 29 14 146 -8z"/>
<path d="M5290 6400 c-13 -8 -13 -15 2 -54 12 -33 13 -46 5 -50 -9 -3 -9 -7 1
-14 14 -10 8 -35 -19 -70 -29 -38 -35 -125 -13 -193 11 -33 22 -59 26 -59 5 0
8 25 8 56 0 49 4 60 28 81 48 43 74 57 115 63 26 3 44 12 51 25 16 30 27 35
71 35 43 0 66 -12 128 -67 20 -18 42 -33 47 -33 20 0 9 42 -17 66 -18 17 -22
24 -10 20 20 -6 21 -5 5 29 -20 45 -147 87 -270 89 -25 1 -44 5 -41 10 9 14
12 56 5 54 -4 -1 -25 4 -47 10 -48 14 -56 14 -75 2z"/>
<path d="M5951 6348 c-19 -6 -21 -13 -15 -50 6 -49 23 -98 33 -98 4 0 13 9 21
20 8 11 20 20 27 20 7 0 13 -9 13 -20 0 -15 7 -20 29 -20 27 0 29 3 33 46 4
49 -5 74 -27 74 -8 0 -18 6 -22 14 -10 16 -63 25 -92 14z"/>
<path d="M11072 5613 c7 -25 -9 -34 -44 -26 -13 3 -18 1 -12 -4 22 -17 24 -42
3 -48 -20 -7 -20 -7 -2 -21 17 -13 17 -14 -5 -20 -13 -4 -22 -14 -21 -23 4
-48 -12 -52 -93 -21 -61 23 -79 15 -57 -27 8 -16 23 -36 34 -47 20 -18 19 -18
-8 -1 -29 17 -57 14 -57 -5 0 -5 7 -10 15 -10 8 0 15 -9 15 -19 0 -15 27 -42
67 -66 5 -3 33 -163 44 -244 5 -47 13 -89 17 -95 12 -19 32 -80 32 -98 0 -10
4 -18 8 -18 14 0 32 23 32 42 0 23 48 44 70 30 8 -5 20 -30 26 -56 7 -26 15
-50 17 -53 5 -4 134 32 216 60 l34 12 -2 80 c-1 44 -4 95 -7 113 -4 18 -2 32
3 32 10 0 23 -99 23 -177 0 -47 4 -49 62 -33 35 10 36 12 32 48 l-5 37 20 -40
c10 -22 20 -34 20 -27 1 7 -3 20 -8 30 -5 9 -12 25 -15 35 -3 10 -10 16 -15
12 -10 -6 -22 31 -40 125 -50 260 -57 286 -95 323 -14 14 -28 38 -31 54 -3 15
-10 35 -16 43 -5 8 -13 24 -18 35 -6 11 -20 33 -33 48 -21 25 -25 27 -50 15
-35 -16 -35 -26 -1 -30 30 -3 67 -47 61 -73 -2 -14 -17 -7 -83 37 -44 30 -93
63 -109 74 l-30 19 6 -22z"/>
<path d="M11562 5235 c-12 -14 -25 -25 -29 -25 -5 0 -7 -28 -6 -62 1 -35 2
-85 3 -113 2 -50 26 -113 45 -115 6 0 19 -3 30 -6 11 -2 34 0 50 4 27 8 30 12
29 50 0 51 13 55 22 7 3 -19 8 -35 11 -35 15 0 43 23 43 36 0 8 8 18 18 21 9
4 20 11 24 17 4 6 31 13 60 16 43 4 53 9 55 25 2 15 -17 33 -78 73 -45 28 -89
52 -98 52 -9 0 -25 7 -35 15 -14 11 -34 13 -77 8 -60 -6 -74 2 -44 27 8 7 15
16 15 21 0 16 -16 9 -38 -16z"/>
<path d="M5238 4902 c-42 -31 -58 -82 -26 -82 10 0 18 5 18 10 0 6 24 10 54
10 30 0 58 -4 61 -10 10 -15 71 -12 85 5 13 15 17 61 7 72 -3 3 -23 1 -44 -5
-25 -7 -30 -10 -15 -11 25 -1 30 -26 7 -35 -10 -4 -19 3 -26 18 -10 21 -57 56
-76 56 -4 -1 -25 -13 -45 -28z"/>
<path d="M6204 4790 c-6 -6 -30 -12 -55 -15 -24 -3 -54 -8 -66 -11 l-23 -4 21
-21 c17 -17 28 -19 59 -14 27 5 48 1 71 -10 30 -16 33 -16 41 -1 6 11 16 15
28 11 38 -12 60 -13 65 -4 4 5 10 7 15 4 4 -3 13 1 18 8 8 10 5 21 -13 42
l-24 30 -1 -29 c0 -24 -2 -27 -15 -16 -11 9 -18 10 -29 1 -11 -9 -18 -6 -34
14 -21 26 -41 32 -58 15z"/>
<path d="M4584 4722 c-23 -3 -51 -58 -61 -117 -4 -26 -1 -41 12 -55 9 -10 14
-23 11 -28 -3 -5 1 -15 9 -22 11 -9 12 -17 5 -30 -6 -10 -10 -29 -10 -42 0
-28 28 -71 41 -63 5 4 9 -1 9 -11 0 -14 -3 -14 -15 -4 -24 20 -29 4 -14 -42
17 -53 63 -107 106 -124 18 -8 60 -14 95 -14 53 0 75 6 144 41 78 38 172 108
147 109 -6 0 -13 10 -15 22 -2 13 -11 24 -21 26 -15 3 -18 0 -12 -17 5 -18 2
-20 -34 -18 -30 1 -45 -4 -56 -18 -14 -20 -15 -20 -35 5 -15 19 -20 21 -20 9
0 -9 10 -24 23 -33 22 -16 22 -16 -13 -10 -19 3 -43 8 -54 11 -11 3 -16 1 -12
-5 8 -14 -18 -22 -35 -11 -8 5 -10 9 -5 9 5 0 1 9 -9 20 -25 27 -32 25 -29
-10 2 -35 -14 -39 -41 -10 -15 16 -15 22 -5 35 14 17 6 115 -10 125 -11 7 -31
198 -24 226 8 30 -28 54 -72 46z"/>
<path d="M5495 4630 c-3 -5 -16 -10 -28 -10 -12 0 -38 -5 -58 -10 -32 -9 -38
-16 -44 -47 -10 -55 18 -78 98 -78 57 0 62 2 65 23 2 13 10 26 18 29 16 6 19
39 4 48 -5 3 -10 17 -10 31 0 17 -5 24 -19 24 -11 0 -23 -4 -26 -10z"/>
<path d="M3130 6782 c-18 -15 -21 -24 -15 -55 4 -20 11 -37 16 -37 5 0 4 -12
-1 -26 -10 -25 -9 -26 17 -20 56 13 122 16 128 6 3 -5 14 -10 24 -10 20 0 31
33 34 100 l2 35 -80 5 c-44 3 -85 8 -91 12 -7 5 -22 0 -34 -10z"/>
<path d="M2490 3232 c-117 -3 -135 -8 -97 -28 15 -8 36 -12 46 -9 13 4 20 0
24 -14 4 -18 -2 -20 -59 -26 -93 -10 -113 1 -74 43 19 20 19 22 3 22 -41 -1
-47 -15 -49 -126 -2 -75 0 -104 8 -96 6 6 16 9 22 8 6 -2 8 -1 4 1 -19 11 -6
25 17 19 18 -5 27 -1 35 14 6 11 16 20 22 20 6 0 42 29 79 65 59 57 89 77 89
60 0 -3 -36 -45 -80 -94 -82 -91 -93 -108 -64 -97 17 7 54 -27 54 -49 0 -7
-11 -24 -25 -39 -14 -15 -25 -29 -25 -31 0 -10 35 -45 45 -45 6 0 17 -6 23
-12 11 -11 54 -16 189 -20 18 -1 36 1 39 4 3 4 8 34 11 67 3 34 10 64 16 68 6
4 8 -17 5 -61 -4 -42 -2 -69 5 -73 18 -11 367 -14 367 -4 0 6 16 7 35 4 33 -5
35 -4 33 18 -3 20 1 23 20 21 13 -2 30 2 38 9 12 10 21 6 47 -19 40 -39 84
-43 92 -9 2 12 9 85 15 162 16 213 16 215 51 215 17 0 29 5 29 13 0 11 -36 14
-167 16 -342 4 -731 6 -823 3z"/>
</g>
</svg>
