<?xml version="1.0" standalone="no"?>
<!DOCTYPE svg PUBLIC "-//W3C//DTD SVG 20010904//EN"
 "http://www.w3.org/TR/2001/REC-SVG-20010904/DTD/svg10.dtd">
<svg version="1.0" xmlns="http://www.w3.org/2000/svg"
 width="1600.000000pt" height="1200.000000pt" viewBox="0 0 1600.000000 1200.000000"
 preserveAspectRatio="xMidYMid meet">
<metadata>
Created by potrace 1.16, written by Peter Selinger 2001-2019
</metadata>
<g transform="translate(0.000000,1200.000000) scale(0.100000,-0.100000)"
fill="#000000" stroke="none">
<path d="M1940 11967 c0 -26 -6 -36 -25 -45 -20 -9 -25 -19 -25 -47 0 -19 -5
-35 -11 -35 -6 0 -8 -9 -4 -20 5 -14 2 -20 -9 -20 -9 0 -16 -4 -16 -10 0 -5
11 -10 25 -10 14 0 25 -4 25 -10 0 -5 9 -10 20 -10 13 0 22 -9 26 -25 3 -14
24 -38 46 -54 23 -17 35 -32 29 -36 -14 -8 -14 -85 -1 -85 6 0 10 -9 10 -20 0
-11 4 -20 9 -20 4 0 12 -31 15 -70 4 -38 11 -70 17 -70 5 0 9 -9 9 -20 0 -11
4 -20 9 -20 5 0 13 -10 16 -21 6 -17 9 -19 17 -8 7 10 8 4 4 -18 -5 -28 -3
-33 14 -33 11 0 20 -4 20 -10 0 -5 9 -10 20 -10 11 0 20 -4 20 -10 0 -5 9 -10
20 -10 11 0 20 -4 20 -10 0 -5 -9 -10 -20 -10 -14 0 -20 -7 -20 -24 0 -42 11
-56 41 -56 22 0 29 -5 29 -20 0 -11 5 -20 10 -20 6 0 10 -15 10 -32 0 -26 3
-30 11 -18 8 11 12 12 16 3 2 -7 13 -13 24 -13 10 0 19 -7 19 -15 0 -9 15 -31
34 -50 19 -19 37 -43 41 -55 7 -23 21 -26 28 -7 3 6 6 2 6 -10 1 -18 7 -23 26
-23 20 0 25 -5 25 -26 0 -55 35 -94 84 -94 29 0 36 -4 36 -20 0 -17 7 -20 44
-20 35 0 45 -4 49 -20 3 -11 9 -19 14 -18 12 4 73 -23 73 -32 0 -9 33 -21 70
-26 14 -2 26 -8 28 -14 2 -5 21 -10 43 -10 21 0 39 -4 39 -9 0 -5 14 -11 31
-15 17 -3 42 -15 56 -26 14 -11 38 -20 54 -20 16 0 48 -7 71 -15 24 -8 61 -15
82 -17 27 -1 40 -8 43 -19 6 -20 42 -28 143 -33 75 -4 160 -24 160 -38 0 -5
15 -8 34 -8 22 0 40 -7 48 -18 10 -13 29 -18 75 -20 58 -2 65 -5 100 -40 21
-21 40 -39 43 -39 83 -3 171 -17 180 -28 9 -10 83 -38 168 -61 7 -2 10 -9 6
-16 -5 -8 -2 -9 9 -5 10 3 17 2 17 -3 0 -5 8 -9 18 -8 47 4 92 -4 106 -18 9
-8 44 -20 78 -27 35 -6 66 -16 70 -21 4 -6 8 -8 8 -3 0 4 11 0 25 -9 14 -9 25
-14 25 -10 0 3 9 -3 19 -13 13 -13 33 -20 58 -19 21 0 58 -8 83 -17 55 -20
181 -45 233 -45 20 0 37 -4 37 -9 0 -5 9 -13 20 -16 11 -3 20 -13 20 -21 0 -9
12 -14 33 -15 73 -3 105 -7 116 -13 6 -4 41 -4 77 -1 47 6 67 12 71 24 3 9 14
23 25 31 10 9 20 25 21 37 2 38 107 69 107 32 0 -5 14 -9 31 -9 22 0 32 -5 36
-20 6 -22 29 -27 36 -7 4 10 6 10 6 0 1 -7 10 -13 21 -13 11 0 20 -4 20 -10 0
-19 91 -12 109 8 9 11 29 22 44 26 15 3 25 11 22 16 -3 5 -12 7 -20 3 -8 -3
-15 0 -15 5 0 6 10 13 23 15 l22 4 -23 2 c-21 1 -23 4 -17 34 4 17 14 45 23
62 10 20 11 30 3 33 -20 7 -13 42 9 42 13 0 20 -7 20 -20 0 -13 7 -20 20 -20
13 0 20 7 20 20 0 11 5 20 10 20 6 0 10 -4 10 -10 0 -6 33 -10 80 -10 47 0 80
4 80 10 0 6 14 10 30 10 17 0 30 5 30 10 0 6 9 10 20 10 11 0 20 -4 20 -10 0
-5 -7 -10 -15 -10 -8 0 -15 -4 -15 -10 0 -18 45 -10 60 10 10 14 26 20 52 20
35 0 38 -2 48 -39 6 -22 14 -41 19 -43 5 -2 11 -10 13 -18 2 -8 8 -18 13 -22
6 -4 -3 -8 -20 -9 -17 -1 -22 -3 -12 -6 9 -2 17 -9 17 -14 0 -5 27 -9 60 -9
53 0 60 -2 60 -20 0 -17 7 -20 40 -20 22 0 40 5 40 10 0 6 18 10 40 10 33 0
40 -3 40 -20 0 -13 7 -20 20 -20 11 0 20 -4 20 -10 0 -15 70 -12 86 4 8 8 14
23 14 34 0 15 6 18 30 14 17 -2 30 -8 30 -13 0 -5 9 -9 19 -9 14 0 21 -8 23
-27 2 -23 8 -29 35 -31 24 -2 34 -10 43 -33 7 -16 19 -29 26 -29 8 0 14 -4 14
-10 0 -5 7 -10 15 -10 8 0 15 -4 15 -10 0 -5 9 -10 20 -10 13 0 20 -7 20 -20
0 -11 5 -20 10 -20 6 0 10 -7 10 -15 0 -13 62 -33 84 -27 5 2 6 -5 2 -14 -13
-35 9 -42 119 -36 81 4 105 2 105 -8 0 -7 -8 -10 -19 -7 -11 3 -47 -5 -80 -17
-60 -21 -85 -36 -63 -36 7 0 12 -9 12 -20 0 -11 6 -20 14 -20 7 0 16 -13 19
-30 6 -27 37 -44 37 -20 0 19 32 10 37 -10 4 -14 14 -20 33 -20 16 0 30 5 32
10 2 6 14 1 27 -12 16 -14 26 -18 29 -10 5 15 39 16 44 1 9 -26 41 10 78 88
24 49 46 83 53 80 17 -6 9 -45 -20 -95 -18 -30 -23 -46 -15 -54 6 -6 8 -17 5
-24 -4 -10 5 -14 33 -14 59 0 67 10 60 66 -11 91 -8 124 11 124 7 0 13 -4 13
-9 0 -6 37 -46 81 -90 78 -77 111 -96 122 -68 4 9 6 9 6 0 1 -7 12 -13 26 -13
20 0 25 -5 25 -25 0 -33 32 -50 52 -27 13 14 101 148 144 219 7 10 15 15 19
11 3 -3 -18 -48 -47 -100 -74 -126 -111 -207 -104 -224 4 -12 25 -15 88 -15
127 1 132 0 136 -37 4 -40 -12 -42 -29 -4 -12 27 -15 28 -53 21 -23 -4 -58
-10 -78 -14 -33 -5 -38 -9 -38 -33 0 -33 19 -64 27 -44 7 18 33 14 31 -5 -3
-41 3 -63 17 -63 8 0 15 -3 15 -7 0 -5 35 -16 78 -27 42 -10 111 -34 152 -54
93 -43 135 -53 168 -41 14 5 28 6 31 2 8 -10 21 -13 106 -24 39 -5 79 -13 90
-19 23 -11 155 -38 228 -45 67 -6 122 -22 192 -55 52 -24 77 -29 180 -34 66
-3 163 -13 215 -21 185 -31 205 -32 224 -22 11 5 51 11 88 12 62 2 72 -1 112
-29 24 -17 41 -37 39 -44 -3 -7 1 -10 11 -6 12 5 16 -1 18 -22 4 -67 -5 -121
-25 -148 -12 -16 -15 -26 -9 -22 20 12 3 -45 -20 -71 -25 -26 -18 -39 25 -48
60 -12 67 -16 67 -38 0 -18 2 -19 10 -7 6 10 10 11 10 3 0 -7 7 -13 15 -13 8
0 15 -4 15 -10 0 -5 18 -10 39 -10 30 0 41 -5 46 -19 4 -13 19 -21 51 -26 25
-3 44 -9 41 -11 -2 -3 -54 -7 -115 -10 -100 -4 -116 -2 -153 17 -29 14 -44 17
-49 10 -3 -7 -13 -10 -21 -7 -17 5 -120 14 -239 21 -47 2 -94 6 -105 9 -11 2
-36 5 -56 5 -53 1 -58 31 -11 72 33 29 36 30 48 14 11 -15 16 -16 29 -5 9 8
15 8 15 2 0 -6 -8 -16 -17 -21 -24 -14 -7 -14 18 0 11 6 33 11 50 11 21 1 29
6 29 20 0 10 5 18 10 18 6 0 10 9 10 20 0 11 -5 20 -11 20 -6 0 -17 7 -26 16
-9 8 -22 13 -29 10 -18 -7 -54 23 -54 44 0 28 -58 40 -170 35 -58 -3 -125 0
-150 5 -107 23 -260 38 -334 33 -67 -5 -82 -9 -105 -32 -49 -50 -152 -80 -164
-48 -3 8 -10 6 -20 -8 -15 -19 -16 -18 -15 18 1 20 -2 40 -5 43 -12 12 -90 9
-95 -4 -2 -6 -12 -12 -23 -12 -10 0 -19 -4 -19 -10 0 -5 8 -10 18 -10 15 0 18
-9 18 -55 1 -47 -1 -55 -17 -55 -10 0 -28 8 -39 18 -11 9 -24 17 -28 17 -4 0
-12 3 -18 7 -16 11 -92 10 -174 -1 -41 -6 -89 -8 -107 -5 -20 4 -39 1 -47 -6
-8 -6 -41 -14 -73 -17 -36 -3 -66 -13 -79 -24 -13 -12 -45 -22 -86 -27 -43 -5
-74 -16 -93 -30 -15 -12 -41 -22 -58 -22 -53 0 -138 -92 -118 -128 6 -10 4
-21 -6 -30 -8 -8 -12 -21 -9 -28 3 -7 1 -16 -4 -19 -6 -4 -10 -16 -10 -28 0
-16 -11 -26 -40 -39 -22 -9 -40 -23 -40 -31 0 -8 -7 -18 -16 -21 -8 -3 -12
-11 -8 -17 3 -6 2 -14 -3 -18 -22 -14 -23 -58 -3 -82 12 -12 18 -29 15 -37 -3
-7 -5 -18 -5 -23 0 -5 -7 -9 -15 -9 -17 0 -19 -21 -6 -67 8 -28 7 -32 -7 -31
-57 4 -102 -3 -102 -17 0 -8 -7 -15 -15 -15 -8 0 -15 -6 -15 -14 0 -8 -7 -17
-16 -20 -25 -10 -74 -7 -74 4 0 15 -19 12 -36 -4 -8 -9 -14 -35 -14 -65 0 -41
-4 -51 -20 -56 -14 -4 -20 -15 -20 -36 0 -22 -5 -29 -20 -29 -15 0 -22 -9 -26
-30 -9 -42 -21 -37 -26 10 -3 36 -1 40 19 40 21 0 23 4 23 60 0 33 -4 60 -10
60 -5 0 -10 9 -10 20 0 11 -4 20 -10 20 -5 0 -10 -9 -10 -20 0 -13 -7 -20 -20
-20 -11 0 -20 -7 -20 -15 0 -8 -4 -15 -10 -15 -5 0 -10 7 -10 15 0 8 -4 15
-10 15 -5 0 -10 -9 -10 -20 0 -13 7 -20 19 -20 15 0 21 -9 25 -40 3 -22 9 -58
12 -80 3 -22 10 -40 15 -40 5 0 9 -9 9 -20 0 -13 7 -20 19 -20 23 0 31 -26 17
-57 -6 -16 -18 -23 -38 -23 -21 0 -28 -5 -28 -20 0 -18 -7 -20 -55 -20 -48 0
-55 2 -55 20 0 11 -4 20 -10 20 -6 0 -10 27 -10 60 l0 60 40 0 c22 0 40 5 40
10 0 6 -21 9 -52 7 -49 -3 -53 -5 -56 -30 -2 -19 -11 -29 -28 -33 -19 -5 -24
-12 -24 -40 0 -19 -4 -34 -10 -34 -5 0 -10 9 -10 20 0 11 -5 20 -11 20 -8 0
-10 17 -7 51 4 35 1 55 -8 64 -8 7 -14 18 -14 23 0 16 -53 47 -58 34 -2 -7
-10 -12 -18 -12 -8 0 -14 -9 -14 -20 0 -15 -7 -20 -25 -20 -14 0 -25 -4 -25
-10 0 -5 -9 -10 -20 -10 -27 0 -25 16 3 25 21 7 21 7 2 12 -10 3 -21 0 -23 -6
-5 -15 -39 -14 -46 2 -5 10 -7 10 -12 0 -3 -7 -12 -13 -20 -13 -8 0 -14 -6
-14 -14 0 -8 -3 -21 -6 -30 -4 -12 0 -16 15 -16 12 0 21 5 21 10 0 6 9 10 20
10 13 0 20 -7 20 -20 0 -11 -4 -20 -10 -20 -5 0 -10 -9 -10 -20 0 -25 -8 -25
-27 -2 -14 16 -14 16 -9 -1 9 -28 -27 -5 -44 29 -8 15 -24 38 -36 50 -13 15
-24 48 -31 93 -6 39 -20 83 -30 98 -21 30 -38 84 -48 148 -4 22 -15 56 -25 77
l-18 37 32 28 c17 15 63 53 101 83 39 30 72 57 75 60 17 19 110 69 140 75 19
4 54 16 78 26 24 11 60 19 80 19 33 0 46 10 129 93 51 50 96 95 100 100 4 4
-4 6 -18 4 -14 -2 -24 -11 -24 -20 0 -19 -41 -51 -54 -43 -5 3 -14 -1 -21 -9
-7 -8 -23 -15 -35 -15 -13 0 -26 -7 -29 -16 -4 -9 -9 -14 -13 -10 -3 3 -18 -1
-32 -10 -14 -10 -26 -13 -28 -7 -2 5 -33 -6 -69 -24 -37 -18 -79 -33 -93 -33
-19 0 -55 -22 -113 -67 -90 -72 -205 -160 -266 -205 -20 -15 -46 -37 -57 -48
-12 -11 -25 -20 -29 -20 -8 0 -64 -43 -116 -88 -8 -7 -34 -27 -58 -43 l-43
-30 50 -47 c32 -31 64 -76 90 -129 23 -46 45 -83 51 -83 11 0 92 -111 85 -118
-3 -3 -14 3 -25 13 -11 10 -20 13 -20 7 0 -19 -55 -14 -72 6 -8 9 -25 39 -38
65 -12 27 -29 51 -36 54 -16 6 -19 53 -4 53 6 0 10 5 10 10 0 6 -9 10 -20 10
-13 0 -20 7 -20 18 0 27 -10 33 -32 21 -15 -8 -18 -17 -13 -41 7 -30 6 -31
-22 -25 -32 6 -46 0 -55 -24 -9 -24 -59 -31 -81 -12 -9 9 -15 18 -12 21 7 7
-41 42 -60 42 -9 0 -13 5 -10 10 3 6 1 10 -4 10 -23 0 -9 -20 44 -67 30 -26
55 -51 55 -55 0 -19 -45 -5 -93 27 -61 41 -77 44 -77 10 0 -18 -9 -29 -32 -41
-18 -9 -42 -26 -53 -38 -11 -12 -33 -28 -49 -36 -16 -8 -35 -25 -44 -37 -8
-13 -19 -23 -26 -23 -6 0 -28 -15 -48 -33 -20 -17 -58 -48 -85 -67 -26 -19
-55 -43 -64 -52 -9 -10 -20 -18 -24 -18 -7 0 -57 -38 -101 -77 -14 -13 -29
-23 -33 -23 -8 0 -48 -32 -87 -70 -12 -11 -24 -20 -28 -20 -8 0 -63 -38 -85
-60 -9 -8 -29 -25 -44 -37 -31 -24 -28 -48 5 -37 17 5 19 3 13 -18 -4 -12 -13
-28 -21 -34 -24 -19 -33 -57 -17 -80 11 -18 21 -21 58 -16 35 4 45 1 45 -10 0
-15 -113 -72 -191 -97 -41 -13 -110 -70 -189 -156 -211 -230 -251 -267 -348
-322 -78 -44 -126 -56 -169 -42 -37 12 -46 30 -37 76 5 29 2 39 -21 63 -20 21
-26 36 -23 55 3 15 2 23 -3 18 -5 -5 -10 -21 -11 -36 -2 -21 -9 -29 -28 -33
-48 -11 -61 -16 -123 -45 -99 -48 -142 -75 -139 -88 1 -7 -2 -10 -8 -6 -17 10
-12 27 18 59 15 17 18 24 7 16 -33 -25 -56 -53 -51 -65 2 -7 -11 -17 -29 -23
-30 -12 -33 -16 -39 -74 -8 -81 -7 -139 5 -163 6 -14 7 -8 3 23 -3 23 -3 65 1
92 6 42 10 50 28 50 12 0 40 11 62 24 85 51 236 116 270 116 6 0 19 -26 28
-58 9 -32 25 -66 36 -76 22 -20 91 -31 91 -15 0 5 10 9 22 9 16 0 19 -3 11
-11 -8 -8 -8 -20 -2 -38 8 -22 3 -45 -21 -111 -24 -66 -29 -92 -24 -126 5 -36
3 -44 -14 -55 -20 -12 -20 -15 -5 -40 11 -18 22 -25 34 -22 18 5 25 -11 20
-41 -1 -5 2 -12 8 -15 10 -6 -12 -127 -31 -167 -6 -12 -8 -30 -5 -40 3 -14 6
-11 12 14 4 17 14 32 21 32 8 0 11 6 8 15 -6 16 12 45 27 45 12 0 11 -51 0
-69 -5 -8 -14 -10 -21 -6 -9 5 -11 4 -6 -4 10 -16 -3 -51 -20 -51 -8 0 -14 -4
-14 -10 0 -5 -7 -7 -15 -4 -9 4 -15 0 -15 -10 0 -9 7 -16 15 -16 23 0 18 -16
-12 -36 -31 -19 -116 -22 -138 -4 -18 15 -29 -4 -15 -29 13 -25 65 -36 132
-28 48 6 50 6 43 -16 -4 -12 -11 -53 -15 -92 -12 -103 -24 -134 -78 -190 -27
-27 -59 -74 -73 -102 -13 -29 -28 -53 -34 -53 -5 0 -25 -16 -44 -35 -35 -36
-56 -44 -63 -23 -5 13 10 102 37 227 9 43 13 91 10 112 -7 38 13 162 24 155 3
-2 6 15 7 37 2 63 108 372 125 362 5 -4 9 5 9 19 0 13 3 32 7 42 4 12 3 15 -5
10 -33 -20 14 128 57 184 16 19 31 46 35 60 3 14 3 19 0 13 -3 -7 -12 -13 -19
-13 -7 0 -20 -16 -29 -35 -9 -19 -20 -35 -24 -35 -4 0 -12 -10 -18 -23 -6 -12
-22 -42 -36 -67 -13 -25 -37 -76 -53 -115 -41 -100 -79 -153 -113 -158 -25 -4
-25 -4 5 -6 40 -1 64 29 123 152 42 88 65 115 35 41 -14 -37 -72 -238 -101
-354 -25 -97 -42 -192 -54 -290 -6 -52 -22 -142 -35 -200 -42 -183 -49 -251
-49 -435 0 -151 3 -194 21 -265 16 -63 23 -130 28 -260 7 -194 9 -227 20 -253
4 -9 5 -29 2 -43 -4 -24 -4 -24 17 -7 11 9 35 30 53 46 35 32 68 29 36 -4 -53
-53 -96 -101 -80 -89 15 11 17 11 11 -4 -7 -19 -3 -20 46 -5 30 9 39 18 44 40
3 16 3 36 0 44 -8 19 22 31 40 16 10 -8 16 -8 26 4 7 8 18 15 24 15 16 0 60
-59 79 -107 18 -46 13 -53 -42 -53 -21 0 -29 -7 -39 -33 -9 -23 -15 -28 -21
-18 -5 8 -11 9 -15 3 -13 -21 58 -23 74 -2 3 3 16 0 30 -7 23 -12 24 -13 4
-13 -12 0 -24 -7 -28 -15 -3 -8 -13 -15 -21 -15 -10 0 -13 -5 -9 -12 4 -7 -1
-5 -11 4 -14 13 -24 14 -43 7 -13 -5 -33 -7 -43 -4 -14 5 -19 1 -19 -12 0 -10
-5 -25 -10 -33 -7 -12 -12 -12 -22 -2 -6 6 -20 12 -30 12 -27 0 -22 19 6 26
21 5 23 9 13 24 -6 10 -15 16 -20 13 -6 -3 -8 8 -5 26 4 29 3 31 -28 31 -26 0
-32 4 -28 15 5 11 2 13 -11 9 -11 -5 -13 -10 -6 -17 7 -7 5 -14 -7 -23 -9 -7
-13 -16 -9 -21 5 -4 14 0 22 10 17 23 45 12 45 -18 0 -27 -26 -39 -64 -29 -16
4 -26 2 -26 -5 0 -6 -4 -11 -10 -11 -13 0 -13 37 1 45 7 5 3 14 -11 27 -12 11
-19 23 -15 26 3 4 9 1 13 -6 5 -6 8 13 9 43 1 30 -2 55 -7 55 -15 0 -30 -28
-24 -44 5 -13 1 -17 -17 -15 -48 4 -67 -1 -72 -21 -7 -28 -57 -28 -57 0 0 13
-7 20 -20 20 -13 0 -20 7 -20 18 0 10 -9 24 -20 32 -11 8 -20 22 -20 31 0 28
-57 43 -145 40 -44 -1 -85 -7 -90 -11 -6 -5 -30 -10 -55 -12 -37 -2 -45 -7
-52 -28 -4 -14 -4 13 -1 60 3 47 9 89 14 94 12 14 11 29 -1 21 -7 -4 -9 2 -6
17 3 12 8 46 11 73 4 28 18 83 31 123 13 40 35 117 48 170 14 53 36 140 49
192 63 246 73 424 53 945 -8 214 -7 249 18 505 16 167 33 286 41 303 8 15 20
86 26 157 10 105 10 136 -1 169 -14 43 -7 195 9 215 8 11 12 33 27 191 5 52
13 77 30 98 13 16 24 33 24 38 0 5 9 9 20 9 13 0 24 -10 30 -27 6 -16 15 -36
20 -45 6 -10 10 -35 10 -57 0 -40 11 -51 50 -51 36 0 42 67 6 76 -27 6 -58 66
-62 117 -1 18 -4 43 -8 56 -7 31 -30 47 -34 25 -3 -12 -11 -14 -30 -9 -15 4
-28 8 -30 10 -5 5 31 250 63 429 12 62 40 145 91 270 118 285 196 479 264 656
90 232 221 554 228 560 27 19 78 150 69 175 -11 28 14 83 50 111 32 24 47 28
107 30 53 1 72 5 82 18 7 10 17 15 23 11 7 -4 11 7 10 32 0 30 -2 34 -9 18 -5
-11 -9 -15 -9 -9 -1 6 -11 9 -24 7 -15 -3 -30 4 -46 21 -32 34 -50 33 -150 -8
-90 -37 -97 -41 -104 -71 -4 -19 -5 -19 -6 2 -1 16 -6 20 -21 16 -11 -3 -20
-14 -20 -24 0 -12 -5 -16 -15 -13 -17 7 -21 -11 -5 -21 8 -5 8 -11 0 -20 -9
-10 -7 -16 8 -24 11 -6 25 -23 31 -40 11 -24 10 -35 -7 -67 -10 -22 -22 -59
-26 -83 -6 -36 -4 -42 9 -38 17 7 20 -14 5 -41 -20 -34 -93 -227 -92 -244 0
-9 -6 -22 -14 -29 -8 -6 -14 -16 -14 -21 0 -6 -11 -36 -24 -67 -13 -31 -38
-92 -56 -136 -18 -44 -36 -89 -41 -100 -21 -46 -212 -526 -235 -588 -13 -37
-37 -96 -53 -130 -55 -116 -124 -302 -128 -344 -3 -26 -14 -51 -28 -65 -13
-13 -31 -44 -40 -68 -9 -25 -22 -56 -30 -70 -7 -14 -16 -45 -19 -70 -4 -25
-15 -61 -24 -80 -16 -31 -21 -35 -52 -32 -47 5 -70 19 -70 42 0 11 -7 20 -15
20 -12 0 -14 -7 -9 -27 4 -16 10 -30 14 -33 3 -3 9 -13 13 -22 7 -19 37 -25
37 -8 0 12 37 14 44 2 2 -4 -4 -25 -14 -47 -11 -22 -19 -44 -20 -48 0 -4 -10
-29 -21 -55 -22 -48 -40 -90 -97 -218 -18 -39 -32 -79 -32 -88 0 -14 -6 -17
-25 -14 -17 4 -25 1 -25 -8 0 -17 48 -30 61 -17 6 6 41 86 78 179 95 235 110
267 126 280 8 6 22 29 32 52 l18 41 24 -18 c21 -16 24 -26 22 -67 -1 -27 -13
-87 -25 -134 -56 -204 -58 -224 -63 -488 -2 -140 -8 -284 -13 -320 -5 -37 -18
-159 -29 -272 -12 -113 -30 -268 -41 -345 -11 -77 -27 -201 -35 -275 -8 -74
-23 -216 -34 -315 -44 -388 -50 -442 -56 -500 -3 -33 -10 -91 -16 -130 -5 -38
-16 -128 -25 -200 -8 -71 -16 -130 -17 -131 -1 -1 -16 1 -34 3 -33 5 -43 22
-43 75 0 38 20 27 45 -25 l20 -42 3 34 c2 18 -1 38 -7 44 -6 6 -11 16 -11 23
0 6 -8 29 -17 50 -17 40 -18 71 -2 90 5 7 7 36 3 66 -7 61 11 141 27 117 5 -9
9 14 9 59 l0 72 -30 0 c-58 0 -113 45 -80 65 6 4 10 54 10 119 0 62 4 137 9
167 13 73 20 167 14 190 -4 15 -14 19 -49 19 -24 0 -44 4 -44 9 0 4 -10 6 -22
4 -13 -2 -70 3 -127 11 -58 9 -141 16 -186 16 -57 0 -98 6 -140 21 -67 24
-148 26 -233 7 -28 -6 -54 -9 -56 -7 -8 9 7 69 23 86 18 20 37 56 46 90 3 11
17 24 30 27 14 4 25 13 25 20 0 8 5 16 12 18 15 5 17 113 2 128 -6 6 -47 16
-90 22 -44 6 -82 16 -86 22 -6 8 -10 8 -15 0 -9 -12 -103 -15 -103 -3 0 5 -6
9 -14 9 -8 0 -16 7 -20 15 -3 10 -19 15 -46 15 -29 0 -40 -4 -40 -15 0 -10
-10 -15 -30 -15 -23 0 -30 4 -30 20 0 11 -4 20 -10 20 -5 0 -10 8 -10 18 0 10
-5 23 -10 28 -6 6 -15 64 -20 128 -6 65 -13 123 -16 128 -5 7 -36 8 -90 4 -66
-5 -86 -3 -98 9 -11 11 -40 15 -123 15 -100 0 -106 1 -85 16 26 18 29 39 7 48
-25 9 -103 -5 -109 -20 -3 -8 -13 -14 -22 -14 -10 0 -14 -5 -10 -15 18 -44 18
-51 2 -31 -15 19 -16 19 -16 -11 0 -17 -9 -84 -21 -149 -30 -172 -46 -288 -54
-379 -4 -44 -13 -120 -20 -170 -8 -49 -17 -129 -20 -176 -4 -48 -11 -93 -17
-100 -11 -17 -5 83 22 361 20 201 40 431 44 510 1 25 5 51 9 57 9 15 11 134 3
161 -4 12 -14 22 -22 22 -8 0 -14 5 -14 10 0 15 -19 12 -39 -7 -14 -14 -20
-40 -24 -113 -6 -85 -9 -97 -31 -115 -30 -24 -49 -70 -41 -99 5 -16 4 -18 -4
-6 -14 21 -31 -26 -41 -115 -5 -38 -18 -133 -29 -210 -11 -77 -23 -179 -27
-228 -6 -80 -15 -110 -27 -90 -2 5 2 62 9 128 8 66 16 170 19 230 2 61 7 126
11 145 7 41 6 119 -3 133 -3 6 -12 2 -19 -8 -8 -10 -20 -15 -29 -11 -9 3 -18
0 -21 -8 -5 -14 -67 -32 -94 -27 -8 2 -12 0 -8 -5 4 -4 3 -14 -4 -21 -6 -8
-15 -38 -20 -66 -26 -172 -49 -361 -51 -419 -2 -65 -3 -68 -27 -68 -14 0 -20
4 -14 8 6 4 14 43 17 87 3 44 10 118 16 165 5 47 13 133 16 192 l7 106 -48 8
c-27 4 -53 8 -59 9 -33 3 -99 32 -109 47 -6 10 -16 18 -22 18 -11 0 -64 72
-69 94 -1 6 -10 29 -20 51 -14 32 -15 46 -6 71 6 17 11 40 11 51 0 11 6 36 14
54 20 48 31 139 17 139 -6 0 -11 14 -11 31 0 17 4 28 10 24 6 -3 10 3 10 14 0
12 -4 21 -10 21 -5 0 -10 13 -10 29 0 21 -6 32 -20 36 -20 6 -28 35 -10 35 6
0 10 7 10 15 0 8 -4 15 -10 15 -5 0 -10 -7 -10 -15 0 -21 -20 -19 -21 3 0 13
-2 12 -9 -5 -5 -13 -16 -23 -24 -23 -8 0 -16 -5 -18 -11 -6 -18 -150 -13 -161
6 -4 8 -17 15 -27 15 -20 0 -20 -11 -20 -483 0 -334 3 -486 11 -494 8 -8 8
-13 0 -17 -8 -5 -11 -729 -11 -2547 l0 -2539 8000 0 8000 0 0 3630 c0 3629 0
3630 -20 3630 -23 0 -52 -30 -56 -56 -2 -10 -10 -21 -18 -26 -9 -5 -16 -15
-16 -23 0 -23 -20 -28 -35 -9 -12 17 -17 17 -52 6 -21 -8 -54 -21 -73 -29 -27
-13 -57 -15 -152 -9 -138 7 -167 18 -193 75 -10 23 -20 39 -23 36 -10 -10 -52
59 -78 128 -25 64 -26 78 -21 171 6 110 13 149 28 178 13 24 81 58 117 58 15
0 32 4 38 10 5 5 33 14 61 19 46 9 74 11 169 11 18 0 52 -6 77 -15 24 -8 55
-14 68 -14 13 1 36 -3 50 -9 15 -6 29 -8 33 -5 3 3 23 -2 46 -11 22 -9 43 -16
45 -16 3 0 5 961 5 2135 l0 2135 -3130 0 c-3123 0 -3130 0 -3130 -20 0 -11 5
-20 10 -20 6 0 10 -7 10 -15 0 -8 -6 -15 -14 -15 -8 0 -21 -3 -30 -6 -12 -4
-16 0 -16 15 0 14 -6 21 -20 21 -13 0 -20 7 -20 20 0 20 -7 20 -3860 20
l-3860 0 0 -33z m7672 -2709 c8 -7 36 -39 62 -71 35 -44 46 -66 46 -93 0 -49
-28 -129 -56 -159 -21 -23 -30 -25 -110 -25 -85 0 -86 0 -117 34 -72 77 -81
95 -79 155 1 31 7 58 12 59 6 2 10 12 10 22 0 10 14 31 31 48 27 27 37 30 96
31 37 0 68 3 71 6 8 8 17 6 34 -7z m-761 -929 c7 -12 9 -12 9 0 0 8 2 12 5 9
17 -16 -39 -98 -67 -98 -9 0 -23 -7 -32 -15 -30 -31 -326 -29 -326 2 0 7 -13
16 -30 20 -16 3 -30 12 -30 19 0 8 -4 14 -10 14 -5 0 -10 8 -10 18 0 15 10 18
67 20 36 2 70 5 75 8 5 4 51 8 101 11 51 3 93 6 95 8 2 1 35 2 73 1 49 -2 73
-7 80 -17z m2128 -953 c6 -7 9 -21 5 -30 -4 -10 -1 -16 9 -16 26 0 38 -24 22
-46 -8 -10 -15 -29 -15 -41 0 -18 -6 -23 -24 -23 -18 0 -25 6 -28 23 -2 14
-10 22 -23 22 -15 0 -20 -7 -21 -32 -1 -22 3 -33 12 -33 20 0 28 -21 12 -36
-7 -8 -31 -15 -53 -17 -32 -2 -40 2 -43 18 -2 11 -13 28 -23 38 -23 21 -24 31
-4 47 8 7 12 16 9 21 -2 5 1 21 9 36 7 15 12 35 10 44 -3 13 8 19 54 27 81 13
79 13 92 -2z m2514 -31 c15 -8 38 -21 51 -28 34 -19 76 -60 76 -75 0 -7 9 -31
21 -54 16 -31 19 -51 15 -87 -4 -25 -7 -62 -9 -81 -1 -26 -7 -36 -22 -38 -11
-2 -29 -12 -40 -21 -40 -34 -75 -51 -147 -70 -130 -33 -128 -33 -128 -14 -1
24 -77 60 -93 44 -16 -16 -37 -14 -37 4 0 9 -7 18 -15 21 -8 3 -17 22 -21 42
-4 21 -13 49 -21 64 -19 39 -19 135 0 154 4 4 7 15 7 23 0 26 59 84 109 108
37 19 63 23 136 23 61 0 99 -5 118 -15z m-964 -143 c48 -46 59 -80 37 -123 -9
-18 -16 -37 -16 -43 0 -6 -17 -29 -37 -51 -20 -22 -47 -58 -60 -80 l-22 -40
-12 33 c-9 25 -16 32 -32 30 -19 -3 -22 4 -28 43 -4 26 -14 57 -22 70 -23 35
-32 96 -17 114 7 8 9 23 6 32 -4 10 -4 14 0 11 6 -6 17 1 46 27 6 6 35 12 64
13 49 2 56 -1 93 -36z m-5489 -330 c0 -5 179 -8 398 -9 218 0 408 -3 421 -8
20 -6 23 -12 18 -41 -12 -71 60 -209 88 -171 5 7 21 16 35 19 46 10 55 13 62
23 4 5 17 10 30 10 28 1 78 25 78 37 0 4 9 8 20 8 10 0 45 10 76 21 65 24 121
41 244 72 76 20 111 22 320 21 149 0 255 -5 290 -13 30 -7 68 -15 84 -18 31
-6 191 -87 217 -109 8 -8 23 -14 32 -14 10 0 23 -15 31 -35 8 -19 26 -47 40
-62 14 -15 26 -35 26 -43 0 -8 7 -28 15 -44 8 -15 15 -38 15 -51 0 -24 31 -65
49 -65 6 0 11 -13 11 -30 0 -16 -4 -30 -10 -30 -5 0 -10 5 -10 10 0 6 -5 10
-11 10 -5 0 -8 -4 -5 -9 14 -21 -17 -72 -53 -87 -52 -22 -205 -42 -354 -46
l-128 -3 -37 89 c-34 82 -41 91 -82 112 -63 32 -245 77 -267 66 -10 -5 -33
-12 -51 -15 -18 -4 -38 -11 -45 -17 -35 -30 -91 -70 -96 -70 -5 0 -6 -31 -2
-127 1 -15 9 -25 25 -29 14 -3 27 -12 29 -19 8 -20 137 -82 187 -89 25 -4 68
-13 95 -21 28 -8 102 -23 165 -35 122 -22 203 -45 313 -87 57 -22 78 -38 133
-97 58 -63 65 -74 62 -106 -3 -30 0 -35 19 -38 13 -2 37 -17 54 -35 31 -31 31
-31 27 -119 -3 -70 -8 -91 -22 -101 -16 -12 -16 -14 -2 -26 9 -8 16 -10 17 -5
0 5 4 0 9 -11 12 -27 12 -165 1 -165 -5 0 -13 -15 -16 -32 -4 -18 -13 -36 -19
-40 -26 -18 73 -5 332 43 153 27 332 61 398 75 117 23 162 29 153 19 -5 -5
-477 -99 -698 -140 -79 -14 -160 -33 -179 -41 -19 -7 -51 -14 -72 -14 -53 0
-100 -11 -100 -23 0 -6 16 -7 40 -4 49 6 60 -6 25 -29 -14 -9 -25 -23 -25 -31
0 -8 -4 -11 -10 -8 -5 3 -10 2 -10 -3 0 -20 -87 -94 -132 -114 -27 -11 -48
-24 -48 -29 0 -5 -6 -9 -12 -9 -7 0 -26 -7 -43 -16 -16 -8 -63 -19 -103 -24
-40 -4 -81 -15 -90 -23 -23 -20 -196 -41 -274 -33 -35 4 -74 6 -88 6 -46 -3
-74 -1 -225 13 -115 11 -166 21 -219 41 -95 37 -126 54 -126 70 0 8 -15 17
-35 20 -19 4 -49 19 -66 34 -16 15 -41 37 -54 49 -14 12 -25 19 -25 16 0 -15
-58 51 -63 70 -3 12 -13 51 -22 87 -24 95 -30 233 -12 249 17 13 272 40 386
41 63 0 79 -4 106 -24 20 -15 35 -38 39 -57 3 -19 24 -49 51 -75 25 -24 44
-45 43 -48 -5 -7 43 -41 90 -65 23 -12 66 -26 95 -31 28 -6 62 -15 74 -21 17
-9 39 -8 101 8 43 11 90 19 103 18 13 -1 27 2 30 8 4 5 28 12 55 15 31 3 60
14 77 28 20 17 24 24 13 24 -9 0 -16 4 -16 8 0 22 44 130 61 148 25 27 24 30
-8 37 -37 8 -50 18 -55 41 -2 15 5 21 30 28 59 16 39 36 -45 43 -139 13 -155
17 -173 50 -16 28 -20 30 -76 28 -32 -1 -76 -4 -97 -8 -23 -5 -64 -1 -105 8
-37 9 -110 23 -162 33 -99 18 -219 55 -257 80 -12 8 -28 14 -35 14 -6 0 -23
11 -37 24 -15 14 -39 32 -56 40 -42 22 -135 116 -135 137 0 10 -8 23 -17 28
-10 6 -14 11 -10 11 5 0 5 6 0 12 -11 20 -16 83 -14 208 l1 115 -42 45 c-42
44 -44 45 -72 32 -39 -19 -139 -30 -426 -47 -36 -2 -160 -6 -276 -9 -116 -3
-222 -8 -236 -11 -24 -6 -26 -12 -38 -123 -15 -145 -16 -190 -4 -202 13 -13
73 -13 194 0 58 6 245 14 416 17 298 5 312 4 351 -15 50 -26 67 -47 58 -69 -8
-19 -20 -82 -33 -169 -11 -72 -31 -98 -92 -118 -75 -25 -181 -34 -385 -36
-397 -2 -526 -7 -540 -21 -21 -22 -37 -141 -39 -289 -1 -160 10 -200 58 -200
16 0 35 8 42 18 11 16 41 17 381 17 202 -1 377 -2 388 -3 11 -1 44 1 74 4 65
7 97 -7 105 -47 3 -17 12 -29 21 -29 8 0 15 -4 15 -10 0 -5 7 -10 15 -10 21 0
19 -23 -5 -40 -11 -8 -20 -25 -20 -37 0 -12 -9 -27 -21 -34 -19 -10 -21 -17
-15 -59 8 -61 -5 -91 -51 -116 -32 -17 -55 -19 -192 -17 -86 0 -266 2 -401 2
-135 1 -269 1 -299 1 -63 1 -111 22 -111 50 0 27 -13 25 -41 -5 -13 -13 -32
-25 -41 -25 -9 0 -20 -4 -23 -10 -3 -5 -22 -10 -41 -10 -19 0 -34 5 -34 10 0
6 -15 10 -34 10 -19 0 -38 5 -42 11 -3 6 -16 9 -29 7 -28 -6 -47 21 -33 45 5
9 20 17 32 17 24 0 41 24 30 41 -9 15 -50 10 -75 -9 -13 -10 -32 -22 -43 -25
-11 -4 -16 -13 -12 -22 3 -8 1 -26 -4 -40 -12 -31 -65 -36 -75 -7 -3 11 -16
24 -29 30 -21 9 -25 20 -32 79 -4 37 -3 88 2 113 10 50 -1 90 -26 90 -37 0
-130 -78 -130 -108 0 -10 -9 -27 -21 -38 -12 -10 -30 -36 -40 -57 -11 -21 -30
-42 -43 -47 -24 -9 -86 -77 -86 -94 0 -6 -11 -26 -25 -46 -14 -20 -28 -47 -30
-60 -3 -13 -10 -27 -16 -31 -12 -7 -14 -112 -4 -130 3 -4 -3 -27 -13 -50 -18
-38 -20 -40 -35 -24 -10 9 -17 29 -17 45 0 43 -38 225 -55 267 -9 21 -31 50
-50 66 -32 26 -35 33 -35 81 0 29 -4 77 -10 106 -12 61 1 160 27 215 14 29 15
40 4 72 -10 32 -10 45 3 82 9 24 16 70 16 103 0 33 4 67 9 77 6 9 13 82 16
162 4 79 10 147 14 150 3 3 22 12 41 19 63 24 89 48 95 88 12 77 27 127 61
211 44 109 70 191 94 308 11 51 26 108 34 128 l15 36 28 -18 c48 -31 85 -76
120 -148 23 -50 44 -77 69 -92 19 -13 38 -23 42 -22 4 0 22 23 40 51 26 38 31
53 21 59 -10 6 -10 11 -1 22 9 11 7 13 -11 13 -21 -1 -22 2 -19 89 2 77 6 93
23 108 12 9 28 17 36 17 8 0 20 6 27 13 16 15 109 14 114 -1 4 -12 52 5 64 23
5 6 23 5 53 -3 66 -18 97 -15 125 11 26 23 48 26 113 13 28 -5 45 -3 62 8 13
8 54 21 91 27 42 8 75 20 84 31 16 19 30 24 30 10z m8744 -77 c15 -8 37 -15
47 -15 10 0 24 -8 31 -19 7 -10 18 -18 23 -18 6 0 20 -15 32 -34 13 -19 26
-38 31 -44 16 -21 7 -74 -15 -90 -13 -9 -23 -23 -23 -31 0 -11 -111 -133 -123
-134 -43 -6 -194 -10 -212 -6 -13 3 -40 20 -60 37 -23 20 -41 29 -53 25 -16
-5 -21 3 -35 53 -14 49 -15 69 -5 115 7 35 16 56 24 56 8 0 14 5 14 10 0 6 18
28 40 50 30 30 48 40 73 41 17 0 41 4 52 9 33 14 128 11 159 -5z m-4680 -22
c3 -4 14 -8 24 -9 69 -11 87 -20 87 -47 1 -15 9 -33 20 -40 12 -9 16 -20 11
-32 -4 -12 0 -22 13 -32 21 -14 19 -36 -6 -61 -7 -7 -13 -20 -13 -28 0 -8 -5
-14 -10 -14 -6 0 -16 -11 -22 -25 -11 -25 -41 -34 -53 -15 -3 6 -17 10 -30 10
-13 0 -27 5 -30 10 -4 6 -11 8 -16 4 -15 -9 -39 16 -39 41 0 12 -7 28 -15 35
-8 7 -15 23 -15 36 0 12 -4 26 -10 29 -13 8 -13 55 0 55 6 0 15 11 20 25 5 14
14 25 20 25 5 0 10 9 10 20 0 14 7 20 23 20 13 0 27 -3 31 -7z m1957 -595 c0
-24 1 -190 2 -370 2 -249 5 -329 14 -333 20 -7 4 -33 -18 -28 -17 5 -19 15
-20 92 0 47 -4 199 -8 336 -5 173 -4 253 3 258 8 6 7 10 -1 14 -14 5 -18 55
-6 66 19 19 33 5 34 -35z m-7727 2 c16 -7 11 -9 -22 -9 l-44 -1 21 -35 c24
-42 19 -46 -64 -52 -54 -5 -67 -2 -94 18 -17 12 -31 28 -31 34 0 11 45 13 57
2 11 -12 23 -8 23 7 0 10 14 16 43 19 26 2 14 4 -33 5 -41 1 -131 -5 -200 -13
-215 -26 -243 -28 -290 -15 -60 16 -38 26 85 35 289 22 501 24 549 5z m5748
-119 c8 -11 35 -25 61 -32 26 -6 50 -15 53 -20 3 -5 16 -9 30 -9 23 0 29 -12
25 -48 -1 -7 5 -15 14 -18 8 -3 15 -15 15 -25 0 -11 7 -31 16 -44 16 -24 14
-34 -13 -64 -8 -9 -30 -34 -49 -56 -30 -35 -36 -39 -54 -27 -11 6 -28 12 -38
12 -10 0 -22 4 -28 9 -5 5 -20 11 -33 13 -13 1 -27 10 -31 18 -4 8 -15 31 -25
52 -9 20 -14 41 -10 47 3 6 -1 14 -9 17 -20 8 -21 53 -2 60 12 5 30 44 20 44
-2 0 -18 -9 -36 -20 -18 -11 -37 -20 -42 -20 -16 0 15 28 44 40 25 10 29 17
24 36 -12 47 41 74 68 35z m-5805 -23 l122 3 -10 -29 c-5 -16 -9 -35 -7 -43 2
-9 -4 -13 -15 -11 -10 2 -25 -2 -32 -8 -10 -8 -19 -8 -35 0 -34 18 -230 25
-300 10 -53 -11 -63 -11 -71 1 -16 26 -9 36 34 49 23 7 53 16 67 21 46 15 65
17 95 10 17 -3 85 -5 152 -3z m10428 -78 c11 1 29 1 40 1 11 -1 37 -1 59 -1
43 1 66 -14 66 -41 0 -11 4 -19 9 -19 5 0 15 -15 21 -34 6 -19 17 -37 25 -40
22 -8 19 -57 -3 -63 -10 -2 -23 -18 -29 -34 -6 -16 -18 -29 -26 -29 -8 0 -18
-11 -21 -25 -7 -27 -50 -45 -68 -27 -7 7 -18 8 -27 3 -9 -4 -46 -8 -82 -9 -59
0 -68 2 -97 29 -18 17 -33 39 -33 50 -2 34 -4 38 -16 51 -21 20 -15 55 12 76
14 11 25 27 25 35 0 9 9 19 20 22 11 3 20 15 20 25 0 25 29 42 60 35 14 -4 34
-5 45 -5z m-10634 -28 c-15 -28 -42 -48 -106 -78 -33 -16 -62 -32 -65 -36 -10
-13 -150 -22 -150 -10 0 30 231 140 298 141 28 1 31 -1 23 -17z m5779 -37 c0
-3 -42 -26 -94 -51 -101 -49 -132 -80 -137 -135 -2 -19 -6 -39 -11 -45 -4 -6
-10 -147 -14 -315 -6 -263 -5 -306 8 -317 12 -10 13 -22 5 -65 -5 -28 -15 -56
-21 -62 -7 -6 -11 -58 -11 -145 0 -74 -1 -159 -4 -187 -7 -93 -21 -57 -23 60
-1 91 -3 102 -8 57 -8 -68 -12 -40 -16 118 -1 67 1 122 6 122 12 0 19 39 9 46
-6 3 -7 14 -4 25 5 13 2 19 -7 17 -9 -2 -12 6 -8 32 7 56 6 232 -3 263 -6 23
-4 27 14 27 27 0 19 24 -9 28 -22 3 -33 42 -12 42 6 0 10 12 10 28 1 26 1 26
15 8 8 -11 17 -18 19 -15 8 8 11 218 3 225 -15 15 -7 62 11 67 12 3 11 5 -6 6
-12 0 -58 -19 -102 -44 -44 -25 -81 -45 -83 -45 -2 0 -35 -17 -73 -38 -38 -21
-85 -44 -104 -52 -19 -7 -52 -24 -73 -37 -21 -14 -44 -22 -50 -20 -6 2 22 22
63 44 143 79 362 193 370 193 4 0 15 9 25 20 10 11 15 20 11 20 -4 0 -2 9 4
20 6 11 21 20 33 20 20 -1 21 -2 5 -14 -10 -7 -18 -16 -18 -19 0 -10 25 2 139
64 94 52 141 70 141 54z m-5818 -77 c2 -15 11 -24 25 -26 12 -2 24 -13 27 -27
5 -21 13 -24 65 -27 48 -2 61 0 70 15 9 13 8 17 -4 17 -8 0 -15 5 -15 10 0 6
20 10 45 10 25 0 45 -4 45 -10 0 -5 -5 -10 -11 -10 -8 0 -8 -5 1 -15 10 -12
10 -18 1 -29 -15 -18 -1 -27 28 -19 20 5 22 10 17 43 -4 28 -2 39 9 44 20 7
28 -9 20 -47 -10 -45 -32 -77 -55 -77 -10 0 -28 -9 -38 -20 l-19 -20 -25 20
c-15 11 -30 20 -35 20 -4 0 -1 -5 7 -10 13 -8 12 -10 -2 -10 -17 0 -23 -15
-20 -52 1 -10 -4 -17 -11 -15 -14 2 -11 -116 4 -121 5 -2 9 -9 9 -17 0 -7 7
-18 16 -25 9 -8 14 -25 12 -44 -2 -24 -11 -35 -38 -47 -19 -9 -40 -14 -47 -12
-20 8 -16 -31 5 -49 9 -9 25 -14 35 -13 18 3 19 2 36 -95 9 -50 15 -142 12
-181 -1 -12 -24 -18 -106 -28 -60 -7 -109 -18 -115 -26 -9 -10 4 -44 51 -140
53 -107 61 -130 51 -146 -16 -25 -15 -28 8 -22 14 4 20 14 20 34 0 32 11 41
57 46 47 5 41 -16 -7 -23 -30 -5 -40 -11 -40 -25 0 -14 10 -20 40 -25 45 -7
48 -12 21 -45 -17 -21 -22 -22 -40 -12 -18 11 -23 10 -36 -11 -19 -28 -8 -95
21 -127 19 -21 98 -27 109 -9 18 29 38 -11 24 -49 -8 -20 -13 -22 -49 -16 -34
6 -39 4 -34 -9 3 -9 9 -16 13 -16 3 0 6 -15 7 -33 1 -46 25 -92 49 -92 28 0
31 -33 5 -57 -29 -27 -23 -68 24 -163 18 -38 37 -80 41 -93 11 -37 8 -176 -4
-180 -6 -2 -11 -8 -11 -14 0 -16 -53 -63 -87 -77 -18 -7 -35 -21 -38 -31 -3
-10 -19 -20 -35 -24 -21 -4 -30 -11 -30 -25 0 -11 -4 -21 -10 -23 -5 -1 -10
-16 -11 -33 -2 -47 -9 -65 -25 -65 -8 0 -13 -3 -13 -7 3 -21 -3 -32 -22 -38
-17 -6 -19 -9 -8 -17 11 -7 11 -11 2 -15 -7 -2 -13 -18 -13 -34 0 -25 4 -29
28 -29 74 -1 56 -38 -21 -43 -25 -1 -49 -6 -53 -9 -4 -4 -15 -3 -26 3 -20 11
-75 3 -95 -13 -24 -19 -3 -35 43 -32 32 2 47 -1 51 -12 4 -12 8 -12 19 3 13
17 15 17 32 -4 10 -11 29 -23 42 -25 26 -3 41 -28 17 -28 -21 0 -45 -66 -52
-145 -3 -38 -9 -85 -12 -103 -4 -25 -2 -33 8 -32 28 4 49 0 49 -10 0 -5 -13
-7 -29 -4 -16 3 -31 1 -35 -4 -13 -22 -27 -231 -17 -250 9 -17 29 -20 233 -26
123 -4 237 -9 255 -12 29 -5 33 -3 46 27 8 19 35 57 61 85 26 30 46 62 46 75
1 13 11 44 23 69 30 62 72 82 157 77 90 -6 140 -25 147 -57 3 -15 16 -31 31
-38 15 -6 35 -26 45 -44 20 -38 47 -138 47 -174 0 -31 8 -34 117 -44 l88 -8
-93 0 c-51 1 -95 -2 -98 -5 -10 -10 54 -16 231 -22 94 -3 186 -9 205 -15 38
-10 412 -29 610 -31 96 0 118 -3 95 -10 -19 -6 -100 -7 -215 -2 -102 4 -297 8
-435 8 -196 0 -269 4 -340 17 -89 17 -153 23 -143 13 3 -3 71 -17 152 -30 131
-23 172 -25 364 -23 119 2 298 -1 397 -6 157 -8 190 -6 258 9 62 14 87 15 120
7 23 -6 173 -13 332 -16 160 -3 317 -10 350 -15 61 -11 420 -34 800 -51 116
-6 268 -15 339 -21 71 -5 309 -12 530 -15 365 -4 571 -14 655 -30 19 -4 31 -2
31 4 0 6 -35 13 -77 17 -43 3 -114 10 -157 15 -44 6 -96 10 -117 10 -55 0 -56
15 -1 18 86 4 516 -28 581 -44 45 -11 92 -14 165 -10 67 3 88 2 61 -4 -29 -6
-14 -7 50 -4 87 4 427 -21 355 -26 -38 -3 141 -22 375 -40 83 -6 200 -15 260
-20 135 -12 405 -47 412 -54 12 -11 -49 -17 -75 -7 -40 16 -122 2 -150 -25
-10 -11 -55 -14 -190 -15 -97 -1 -420 -3 -717 -5 -599 -5 -827 -4 -837 2 -3 2
-107 6 -230 9 -122 2 -311 9 -418 14 -107 6 -283 10 -390 10 -107 1 -262 5
-345 11 -179 11 -584 27 -895 36 -124 3 -232 7 -241 10 -68 19 -971 33 -1146
18 -59 -6 -75 -4 -88 10 -19 18 -60 21 -70 5 -4 -6 -13 -8 -21 -5 -8 3 -14 2
-14 -3 0 -9 104 -41 133 -41 9 0 17 -6 17 -13 0 -13 60 -37 93 -37 9 0 40 -12
69 -28 29 -15 75 -36 101 -47 54 -22 89 -70 59 -79 -77 -22 -102 -25 -126 -17
-16 7 -27 7 -31 1 -4 -6 -88 -10 -205 -10 -150 0 -214 4 -262 16 -41 11 -110
17 -198 18 -74 0 -137 4 -140 7 -3 4 -42 21 -87 39 -88 33 -104 50 -50 51 17
0 41 4 52 9 18 8 18 9 -5 10 -24 1 -24 1 5 14 l30 12 -25 7 c-31 8 -19 20 36
35 51 15 75 40 67 71 -5 21 -10 22 -45 17 -24 -4 -48 -1 -66 7 -19 10 -72 15
-172 16 -79 0 -152 4 -162 7 -10 3 -23 2 -29 -2 -6 -3 -28 -8 -49 -9 -21 -2
-53 -11 -71 -22 -19 -10 -47 -23 -64 -30 -19 -7 -24 -12 -12 -12 24 -1 11 -21
-14 -21 -26 0 -24 -29 4 -40 21 -8 21 -9 -5 -9 -16 -1 -30 0 -31 2 -7 4 -37
-25 -32 -32 8 -13 -98 -11 -175 4 -74 13 -251 13 -295 -2 -11 -3 -108 -7 -215
-8 -150 -1 -203 -4 -230 -16 -28 -12 -72 -14 -235 -11 l-201 4 -12 28 c-17 38
-74 50 -242 50 -75 0 -131 4 -135 10 -3 6 0 10 7 11 7 0 2 5 -12 10 -24 10
-24 11 19 26 25 8 61 13 82 10 40 -5 52 6 42 41 -4 17 -17 20 -126 27 -226 13
-262 24 -62 18 150 -4 188 -2 178 7 -6 7 -10 18 -7 24 3 7 -25 12 -88 14 -104
4 -145 17 -90 28 54 11 24 22 -78 30 -59 5 -113 15 -145 28 -44 18 -50 25 -51
51 -1 17 -9 58 -18 93 -10 35 -15 70 -12 78 3 8 1 14 -4 14 -6 0 -10 6 -10 13
0 11 12 12 53 7 62 -9 258 -7 272 2 18 11 62 1 144 -33 44 -18 83 -30 86 -27
3 3 8 21 11 40 6 32 4 35 -35 53 -23 10 -41 21 -41 26 0 12 94 70 106 65 7 -3
15 0 18 7 2 7 5 5 5 -4 1 -9 -8 -19 -19 -22 -15 -4 -20 -14 -20 -41 0 -39 14
-46 37 -18 8 9 11 11 7 3 -5 -10 -1 -11 14 -7 11 4 23 2 27 -4 5 -8 11 -7 22
1 11 10 13 24 8 55 -7 48 6 64 32 39 13 -13 18 -14 24 -4 12 19 20 6 26 -40 8
-59 23 -50 23 14 0 30 1 58 2 63 2 4 -16 11 -39 16 -25 5 -45 16 -48 25 -2 9
-15 22 -26 30 -19 11 -23 11 -31 -3 -11 -20 -28 -21 -28 -1 0 8 -9 15 -19 15
-29 0 -34 17 -8 24 12 3 56 6 97 7 53 1 68 3 50 9 -24 8 -23 8 8 9 22 1 32 -4
32 -14 0 -8 6 -15 14 -15 8 0 13 8 12 18 -2 13 -16 18 -62 23 -64 6 -94 2 -94
-12 0 -5 -4 -9 -10 -9 -5 0 -10 6 -10 14 0 8 -8 17 -17 20 -15 6 -15 8 -3 16
8 6 26 10 39 10 19 0 21 3 12 14 -16 20 4 60 26 52 8 -3 25 -6 39 -6 17 0 25
-7 30 -25 8 -32 24 -32 24 0 0 35 36 35 42 0 3 -14 1 -28 -4 -31 -14 -9 1 -23
35 -33 25 -7 27 -9 10 -10 -25 -1 -31 -16 -10 -24 6 -3 3 -6 -8 -7 -32 -3 21
-18 68 -19 20 -1 37 -5 37 -10 0 -12 -96 -25 -111 -15 -9 5 -10 2 -4 -12 7
-17 10 -37 14 -88 1 -18 2 -18 19 -3 26 24 32 21 32 -14 0 -44 -18 -73 -35
-59 -17 14 -36 4 -29 -15 3 -8 25 -17 50 -21 24 -3 49 -13 55 -20 10 -12 14
-10 25 12 8 14 14 37 14 50 0 13 4 32 9 42 5 9 12 25 15 36 5 14 12 17 29 11
12 -4 34 -9 49 -12 24 -5 28 -2 27 18 -1 47 12 174 21 199 13 35 26 463 19
610 -1 14 2 46 6 73 6 36 4 51 -7 65 -9 9 -18 34 -22 55 -3 20 -8 52 -11 70
-4 18 3 64 14 105 13 49 16 83 11 101 -11 40 6 195 30 266 16 48 19 82 17 170
l-2 110 43 53 c47 60 48 65 56 174 l6 78 68 69 c38 38 92 104 121 148 52 78
93 114 142 126 51 13 59 79 15 117 -27 21 -20 58 14 75 17 9 30 19 30 23 0 4
-20 27 -44 50 -49 48 -50 63 -8 96 24 19 25 20 5 36 -25 20 -20 24 82 73 44
21 91 44 105 52 37 19 48 18 52 -7z m8034 -944 c1 -268 -1 -336 -7 -249 -4 66
-12 174 -18 240 -12 136 -15 368 -4 379 25 24 28 -17 29 -370z m-9726 -269
c-7 -106 -19 -192 -35 -255 -13 -52 -36 -147 -51 -210 -14 -63 -28 -117 -30
-119 -9 -9 -3 61 11 143 9 48 20 144 25 214 6 70 14 159 20 197 5 39 19 171
31 295 11 124 24 232 28 240 11 27 12 -341 1 -505z m-756 80 c0 -27 -6 -84
-13 -125 -15 -90 -16 -94 -26 -190 -12 -115 -12 -116 -92 -125 -76 -9 -75 -9
-226 -2 -94 4 -111 7 -131 26 -13 13 -42 25 -64 28 -33 4 -42 2 -51 -15 -14
-26 -6 -46 24 -60 27 -13 35 -7 35 25 0 14 -6 23 -15 23 -8 0 -15 5 -15 10 0
7 8 6 23 -1 12 -7 24 -10 26 -8 2 2 9 -3 14 -13 8 -12 7 -22 -5 -39 -14 -22
-13 -25 17 -49 18 -14 58 -36 89 -50 38 -16 52 -26 44 -32 -9 -5 -3 -8 15 -8
15 0 27 -4 27 -10 0 -5 6 -10 13 -10 7 0 18 -9 25 -20 20 -33 122 -19 122 17
0 8 -4 12 -9 9 -12 -8 -36 23 -50 63 -6 19 -11 36 -11 37 0 9 69 31 112 37 57
8 72 -5 58 -53 -5 -18 -17 -41 -26 -51 -14 -15 -14 -21 -4 -34 13 -16 11 -54
-10 -178 l-12 -69 -307 7 -306 7 -32 37 c-18 20 -30 42 -28 49 2 6 -2 12 -9
12 -7 0 -19 6 -25 14 -14 17 6 27 38 19 12 -3 21 -1 21 6 0 6 19 11 48 11 48
0 89 17 65 27 -7 2 -13 11 -13 18 0 28 -81 29 -140 2 -45 -21 -52 -28 -38 -46
7 -9 -9 4 -35 29 -26 24 -45 50 -42 58 2 7 -1 12 -8 10 -7 -2 -30 16 -51 40
-44 49 -44 15 -1 321 10 72 38 208 46 223 5 10 9 29 9 42 0 24 3 25 73 29 39
2 248 3 462 3 l390 -1 -1 -50z m3984 -24 c2 -1 -4 -11 -12 -23 -19 -27 -20
-38 -2 -61 12 -16 18 -17 36 -7 17 9 29 9 47 1 19 -9 29 -9 39 0 7 6 18 8 24
4 8 -5 0 -19 -21 -41 -29 -30 -30 -34 -13 -34 11 0 25 -5 31 -11 6 -6 21 -9
34 -7 18 2 25 10 27 31 2 16 -1 34 -8 41 -15 19 17 31 37 14 11 -9 19 -9 35 1
13 8 23 9 32 2 20 -16 56 -1 63 27 4 18 1 29 -12 38 -10 8 -16 17 -12 20 12
12 170 17 163 5 -4 -6 -18 -11 -31 -11 -13 0 -26 -4 -30 -10 -6 -10 29 -50 45
-50 6 0 10 -7 10 -16 0 -10 7 -14 23 -12 18 2 22 9 22 42 0 32 4 40 24 48 28
10 40 3 23 -14 -16 -16 -15 -49 3 -72 13 -18 16 -18 40 -2 l25 16 0 -52 c0
-29 -4 -58 -8 -64 -4 -6 -47 -10 -112 -9 -140 2 -134 0 -114 30 24 37 5 78
-34 73 -21 -2 -28 -9 -30 -29 -2 -15 4 -34 14 -43 29 -30 47 -29 -353 -27
l-333 1 0 24 c0 16 -7 27 -20 31 -11 3 -20 9 -21 13 -5 41 -4 71 2 92 l7 25 1
-26 c1 -35 36 -67 59 -53 21 14 27 50 12 69 -16 20 -3 24 85 27 61 3 194 2
203 -1z m3682 -640 c0 -11 -5 -32 -10 -47 -8 -21 -7 -32 5 -51 9 -14 22 -23
28 -20 41 15 57 17 57 8 0 -6 -3 -10 -7 -9 -5 0 -16 -2 -26 -7 -9 -4 -29 -5
-43 -2 -16 3 -28 -1 -31 -9 -3 -8 -9 -14 -14 -14 -4 0 -6 6 -4 13 3 6 1 18 -4
26 -8 12 -16 9 -46 -17 -19 -18 -39 -32 -44 -32 -4 0 -22 -13 -39 -30 -31 -30
-62 -40 -62 -20 0 6 -7 10 -15 10 -9 0 -15 -9 -15 -21 0 -25 -23 -21 -28 5 -5
24 23 48 104 89 41 21 91 58 124 91 59 61 70 66 70 37z m-932 -347 c17 -3 32
-8 32 -12 0 -9 -65 -264 -91 -357 -11 -38 -22 -91 -26 -118 -5 -44 -23 -77
-23 -43 0 26 -50 51 -108 52 -45 2 -50 0 -35 -11 11 -8 17 -26 17 -49 0 -20 4
-36 8 -36 4 0 8 7 8 16 0 8 5 12 11 9 6 -4 8 -14 5 -22 -4 -10 -2 -13 8 -10
12 5 11 0 -2 -23 -16 -28 -42 -30 -42 -4 0 8 -5 14 -10 14 -7 0 -7 -7 0 -21 9
-16 8 -23 -5 -33 -9 -6 -16 -16 -15 -21 5 -23 -1 -37 -13 -32 -8 3 -20 1 -28
-5 -11 -8 -10 -9 4 -4 11 3 17 0 17 -9 0 -8 -7 -15 -15 -15 -8 0 -15 -4 -15
-10 0 -21 -19 -9 -28 18 -9 24 -11 25 -11 5 -1 -27 -24 -22 -38 9 -7 16 -9 12
-11 -24 -1 -23 4 -53 10 -66 10 -19 9 -25 -1 -32 -10 -5 -14 -33 -15 -91 0
-46 -5 -87 -11 -91 -5 -4 -37 -6 -70 -3 -33 3 -152 9 -265 15 -249 13 -323 19
-330 28 -3 4 -2 43 1 87 3 45 6 61 7 38 1 -24 6 -43 11 -43 5 0 12 -8 15 -17
22 -58 46 -74 91 -63 37 10 97 9 115 0 31 -17 267 -23 307 -8 17 6 36 21 42
32 7 16 10 17 10 5 1 -12 8 -15 26 -11 19 3 25 11 25 29 0 16 -4 22 -12 17
-10 -6 -10 -4 0 7 19 20 15 59 -5 59 -10 0 -28 3 -39 6 -18 5 -22 0 -28 -31
-7 -34 -9 -37 -34 -31 -15 4 -36 6 -47 5 -74 -6 -100 5 -107 46 -2 11 -8 25
-15 30 -6 6 -13 21 -15 35 -2 14 -11 26 -20 28 -14 3 -18 -3 -18 -28 0 -17 7
-38 15 -46 8 -8 13 -25 11 -37 -3 -17 -9 -22 -32 -20 -16 1 -60 2 -99 3 -90 1
-115 8 -115 30 0 14 6 17 23 13 18 -4 19 -3 7 6 -12 9 -9 11 14 11 28 0 28 0
12 25 -9 14 -14 31 -10 37 4 7 3 8 -4 4 -7 -4 -12 -1 -12 8 0 8 5 18 10 21 6
3 10 1 10 -4 0 -19 17 -12 23 8 3 15 1 18 -12 14 -10 -3 -9 0 4 8 12 8 53 14
99 14 68 1 80 -1 84 -17 5 -22 11 -22 33 -2 11 10 37 17 69 17 27 0 50 4 50 8
0 4 8 10 18 12 9 3 0 6 -20 7 -21 1 -56 4 -78 5 -22 1 -43 4 -47 5 -5 1 -51 3
-103 4 l-95 1 -3 33 c-4 37 -22 34 -22 -4 0 -15 -6 -24 -15 -24 -10 0 -15 10
-15 30 0 17 -4 30 -10 30 -5 0 -10 7 -10 15 0 11 12 15 51 15 40 0 55 5 70 23
l18 22 1 -33 c0 -24 3 -31 13 -25 6 4 85 8 175 8 136 0 163 -2 166 -15 3 -8 8
-31 12 -50 3 -19 13 -45 21 -57 8 -12 13 -28 10 -35 -3 -8 -11 1 -18 20 -11
27 -19 32 -46 32 l-33 0 21 -21 c15 -15 20 -30 17 -55 -3 -22 0 -34 8 -34 7 0
16 -9 19 -21 5 -15 14 -19 33 -17 21 2 28 9 30 32 2 16 -2 41 -10 54 -10 20
-10 26 0 29 6 3 12 11 12 18 0 7 -6 16 -12 18 -10 4 -10 7 0 14 9 7 11 24 7
57 -4 32 -3 46 5 41 5 -3 10 0 10 7 0 26 -25 47 -60 49 -42 4 -120 -10 -137
-23 -8 -7 -17 -6 -27 4 -44 39 -48 40 -89 33 -23 -4 -59 -9 -80 -11 -21 -2
-42 -6 -47 -9 -4 -3 -11 2 -14 10 -4 13 -10 14 -26 5 -12 -6 -20 -7 -20 -1 0
9 -120 20 -120 11 0 -3 -9 -45 -19 -95 l-20 -90 0 81 c-1 125 4 142 48 147 36
4 35 4 -6 5 -24 1 -43 4 -43 6 0 2 6 16 14 31 13 24 13 31 0 50 -8 13 -16 56
-19 103 -2 45 -9 90 -14 100 -6 11 -8 22 -4 25 3 4 0 20 -6 36 -10 22 -10 34
-1 50 9 18 8 21 -12 23 -13 0 -3 4 22 7 53 7 1050 3 1098 -5z m-6858 -80 c0
-7 -10 -15 -22 -17 -19 -4 -18 -5 5 -6 33 -1 32 -24 -1 -29 -31 -5 -28 -30 3
-27 16 2 25 -2 25 -11 0 -8 -4 -14 -10 -14 -5 0 -10 -9 -10 -19 0 -11 -7 -27
-16 -35 -8 -9 -11 -16 -5 -16 12 0 2 -32 -13 -42 -6 -4 -19 0 -28 9 -17 15
-18 15 -18 0 0 -11 -8 -17 -25 -17 -16 0 -25 6 -25 15 0 8 -7 15 -15 15 -8 0
-15 -4 -15 -10 0 -5 -7 -10 -15 -10 -12 0 -14 7 -9 28 4 15 9 30 11 35 5 8 53
-2 70 -15 8 -7 10 -3 6 11 -3 12 -14 21 -24 21 -11 0 -19 7 -19 18 -1 16 -1
16 -14 0 -12 -17 -14 -17 -30 0 -21 24 -21 44 0 40 25 -4 28 19 4 25 -27 7
-28 47 0 47 13 0 18 5 14 15 -4 9 0 15 10 15 10 0 13 -6 10 -15 -4 -10 0 -15
14 -15 24 0 40 -49 20 -61 -9 -6 -4 -9 15 -9 15 0 30 -7 33 -15 4 -8 10 -12
15 -9 13 8 11 24 -3 24 -7 0 -19 4 -25 8 -18 11 6 62 28 62 9 0 19 10 22 22 5
18 8 19 21 8 9 -7 16 -18 16 -26z m8030 5 c0 -9 21 -10 74 -6 58 5 75 4 79 -7
5 -11 -10 -14 -68 -15 -80 -1 -166 -16 -175 -32 -4 -5 -37 -10 -74 -11 -50 -2
-69 1 -76 12 -6 10 -41 19 -102 27 l-93 12 125 -4 c75 -2 117 0 105 5 -18 8
-18 9 -2 9 10 1 20 -6 23 -14 4 -8 10 -15 16 -15 5 0 6 5 3 10 -4 6 15 10 50
10 40 0 57 4 61 15 7 17 54 21 54 4z m1850 -128 c47 -5 -261 -9 -683 -9 -510
-1 -766 1 -762 8 7 12 1312 12 1445 1z m-1228 -88 c25 -28 39 -53 196 -348 46
-88 98 -186 115 -217 17 -32 36 -58 43 -58 7 0 22 12 33 26 12 15 21 24 21 20
0 -10 24 15 38 39 8 14 11 15 11 5 0 -8 -18 -40 -39 -70 l-40 -55 72 -6 c40
-4 109 -7 153 -8 44 -1 87 -5 95 -11 8 -5 17 -5 20 -1 3 4 52 4 110 -1 57 -5
143 -7 190 -6 85 3 85 3 88 31 4 33 22 36 22 4 0 -28 17 -47 44 -47 10 0 16
-3 13 -7 -4 -4 -53 -6 -110 -5 -67 1 -95 -2 -82 -8 57 -25 -842 0 -1180 34
-27 3 -124 10 -215 16 -91 6 -170 16 -176 20 -5 5 -30 9 -55 9 -43 0 -321 8
-488 13 -56 2 -86 7 -88 16 -4 9 16 12 75 12 61 0 81 3 86 15 3 8 6 148 7 310
1 184 5 295 11 293 10 -4 12 -524 2 -540 -3 -5 -3 -24 0 -43 5 -26 12 -35 34
-39 15 -3 145 -8 290 -12 l262 -6 -36 78 c-20 44 -63 140 -96 214 -32 74 -75
169 -95 210 -51 109 -55 120 -39 120 21 0 29 -14 91 -155 31 -71 65 -148 75
-170 10 -22 37 -83 61 -135 23 -52 49 -105 56 -117 14 -21 16 -21 32 -5 9 9
28 33 42 52 23 31 38 59 86 152 8 15 18 30 24 33 5 4 9 13 9 22 0 8 8 27 19
41 34 49 121 213 121 230 0 5 9 17 21 27 20 19 20 19 10 -5 -5 -14 -28 -58
-50 -99 -23 -41 -41 -76 -41 -79 0 -3 -6 -13 -14 -21 -7 -9 -46 -79 -86 -156
-72 -139 -116 -214 -135 -227 -5 -4 -3 -9 5 -12 17 -6 682 -34 692 -29 8 4
-23 68 -111 232 -37 69 -97 182 -132 249 -35 68 -79 141 -97 163 -29 33 -31
39 -15 39 11 0 31 -12 45 -27z m1432 -4 c15 -12 57 -67 93 -123 36 -55 133
-201 215 -324 82 -123 148 -230 146 -239 -4 -18 -15 -2 -259 362 -103 154
-199 293 -213 308 -40 43 -29 53 18 16z m-3418 -411 c4 -6 2 -14 -4 -16 -17
-5 -15 -32 3 -32 8 0 15 8 15 18 0 13 3 11 13 -7 14 -29 37 -39 37 -17 0 9 -8
16 -17 17 -12 0 -14 2 -5 6 7 3 24 -5 37 -17 22 -20 23 -29 24 -157 2 -113 0
-135 -12 -130 -8 3 -19 1 -25 -5 -8 -8 -15 -8 -24 -1 -15 12 -69 25 -113 28
-87 4 -94 5 -89 18 3 8 -2 20 -11 27 -16 14 -21 65 -5 55 6 -3 10 -2 10 2 0 5
14 17 31 27 24 14 28 20 18 32 -9 11 -7 14 15 14 35 0 33 12 -6 31 -17 8 -33
20 -35 25 -5 14 28 14 45 1 6 -5 12 -6 12 -2 0 3 16 -3 35 -15 27 -17 41 -20
62 -13 l27 9 -32 15 c-36 16 -46 35 -36 73 7 28 18 33 30 14z m-1113 -25 c-22
-8 -14 -19 28 -39 29 -13 46 -28 56 -52 14 -34 23 -37 27 -10 7 47 36 49 36 3
0 -21 -5 -35 -12 -35 -9 0 -9 -3 0 -12 19 -19 14 -28 -13 -28 -14 0 -28 7 -32
15 -6 18 -54 45 -78 45 -14 0 -55 -33 -55 -45 0 -3 -3 -5 -7 -5 -15 -1 -14 47
1 60 10 8 16 29 16 55 0 40 9 53 35 53 6 0 4 -2 -2 -5z m-4977 -174 c3 -6 0
-15 -7 -20 -12 -8 -12 -11 1 -19 13 -8 12 -11 -5 -25 -20 -16 -20 -16 2 -10
18 5 24 1 29 -22 4 -15 10 -32 14 -38 8 -10 60 -206 60 -224 0 -6 -8 -11 -18
-11 -10 0 -26 -6 -37 -14 -27 -18 -73 -28 -77 -17 -4 12 -173 32 -263 31 -38
0 -87 0 -107 0 -51 -1 -48 11 8 34 65 27 132 80 204 164 35 41 74 78 88 83 13
5 26 18 29 29 3 11 14 20 24 20 10 0 21 5 25 12 5 8 0 9 -14 6 -23 -6 -37 5
-27 22 8 14 62 13 71 -1z m-197 -125 c5 -5 -49 -74 -79 -102 -14 -12 -58 -39
-98 -59 -65 -33 -85 -37 -164 -41 -52 -3 -114 1 -145 8 l-54 12 5 36 c3 21 8
63 11 94 6 57 6 57 43 61 41 4 475 -4 481 -9z"/>
<path d="M6160 6131 c0 -6 -8 -15 -17 -18 -22 -8 -53 -40 -53 -54 0 -5 -4 -8
-10 -4 -5 3 -33 -20 -62 -51 -29 -31 -63 -60 -76 -65 -45 -18 -58 -118 -19
-157 48 -49 87 -82 96 -82 5 0 14 -13 19 -29 6 -16 22 -37 36 -46 13 -9 28
-30 31 -47 9 -39 24 -25 37 34 28 129 34 197 37 396 1 57 4 72 16 72 22 0 18
13 -10 40 -14 13 -25 18 -25 11z"/>
<path d="M4431 2861 c0 -8 -7 -11 -18 -7 -9 4 -19 2 -23 -3 -3 -6 -20 -11 -38
-13 -25 -2 -32 -7 -32 -23 0 -34 -36 -65 -76 -65 -32 0 -34 -2 -24 -20 14 -27
62 -50 88 -43 19 5 22 1 22 -26 0 -30 2 -31 41 -31 36 0 40 2 29 15 -11 13 -8
15 18 15 36 0 42 16 41 120 0 49 -3 68 -9 55 -7 -18 -8 -16 -12 10 -3 17 -6
24 -7 16z"/>
<path d="M4150 2617 c0 -16 17 -40 53 -74 63 -60 80 -70 146 -84 28 -6 53 -15
57 -20 7 -13 -21 -11 -91 6 -74 18 -75 18 -70 3 11 -29 -10 -39 -48 -23 -31
13 -37 13 -37 1 0 -8 18 -21 40 -30 22 -9 48 -24 58 -34 9 -9 36 -23 58 -30
50 -15 134 -16 134 -2 0 6 4 10 8 10 5 0 17 -36 28 -80 l19 -79 40 -5 c22 -3
95 -8 162 -12 114 -5 123 -4 129 13 4 10 18 41 31 70 27 56 27 80 1 97 -13 8
-21 5 -38 -17 -26 -33 -49 -35 -51 -4 -3 39 3 92 11 102 4 6 11 20 14 33 7 19
4 22 -23 22 -24 0 -31 -4 -31 -19 0 -27 -10 -51 -22 -51 -5 0 -6 4 -3 10 3 5
3 25 -1 44 -6 35 -6 35 -31 19 -17 -12 -23 -22 -19 -38 4 -14 -2 -27 -14 -38
-26 -22 -54 -22 -76 0 -26 27 -45 24 -57 -8 -13 -34 -22 -36 -37 -9 -7 12 -21
20 -38 20 -26 1 -26 1 -8 15 21 16 24 14 -54 35 -68 18 -157 77 -201 132 -34
44 -39 47 -39 25z"/>
<path d="M5453 2343 c-7 -2 -13 -11 -13 -18 0 -17 122 -28 329 -28 177 0 291
10 291 25 0 6 -16 8 -44 4 -38 -6 -45 -4 -49 11 -4 17 -5 17 -6 -1 -1 -17 -8
-18 -123 -12 -68 3 -152 10 -188 16 -68 10 -176 12 -197 3z"/>
<path d="M8604 3580 c-12 -5 -38 -25 -58 -46 -80 -83 -66 -219 24 -239 32 -7
107 11 129 31 13 11 12 14 -2 20 -20 7 -23 34 -4 34 7 0 18 -5 25 -12 26 -26
72 47 72 116 0 33 -6 52 -26 75 -23 28 -31 31 -82 30 -32 0 -67 -4 -78 -9z"/>
<path d="M120 11600 c0 -7 -7 -10 -15 -6 -10 4 -15 -1 -15 -14 0 -11 7 -20 15
-20 11 0 15 -11 15 -40 0 -33 3 -40 20 -40 11 0 20 -4 20 -10 0 -5 9 -10 20
-10 13 0 20 -7 20 -20 0 -13 7 -20 20 -20 13 0 20 7 20 20 0 15 7 20 25 20 29
0 88 51 67 58 -7 2 -12 8 -12 14 0 26 -31 39 -85 34 -49 -4 -55 -2 -55 15 0
10 -6 19 -14 19 -8 0 -21 3 -30 6 -9 4 -16 1 -16 -6z"/>
<path d="M5045 9473 c-41 -9 -81 -28 -105 -51 -79 -74 -123 -119 -131 -135 -7
-11 -5 -55 6 -130 21 -150 43 -225 77 -265 30 -35 34 -48 18 -54 -13 -4 -22
-48 -9 -48 5 0 9 9 9 20 0 29 16 25 42 -10 14 -19 25 -27 32 -20 6 6 5 15 -4
25 -7 8 -9 15 -4 15 4 0 3 5 -4 12 -7 7 -12 22 -12 35 0 20 4 22 33 18 25 -4
27 -3 8 3 -38 12 -47 35 -32 77 8 23 10 54 6 85 -9 66 4 85 64 100 42 10 59 9
104 -4 31 -9 64 -16 74 -16 30 0 69 22 79 44 5 12 28 26 57 35 30 9 47 20 47
30 0 12 6 9 20 -9 l20 -25 0 37 c0 37 -14 59 -23 36 -7 -17 -27 9 -27 35 0 24
-34 88 -56 108 -43 36 -121 59 -196 58 -40 -1 -82 -3 -93 -6z"/>
<path d="M5320 9018 c-25 -5 -84 -12 -131 -18 -88 -9 -169 -34 -169 -52 0 -5
12 -8 27 -6 32 4 40 -13 13 -30 -12 -7 -20 -8 -20 -2 0 5 -8 10 -17 10 -15 0
-15 -2 3 -21 32 -32 83 -39 140 -20 41 13 49 20 50 41 2 40 22 70 42 63 22 -8
32 -23 32 -48 1 -34 43 -66 78 -59 l31 6 -6 59 c-4 50 -3 59 11 59 9 0 16 4
16 9 0 13 -49 17 -100 9z"/>
<path d="M5232 8742 c-2 -7 9 -28 27 -46 17 -17 31 -34 31 -37 0 -6 -2 -6 -65
-11 -57 -5 -66 -13 -63 -61 2 -51 21 -68 73 -65 41 2 85 -15 85 -32 0 -6 -6
-10 -13 -10 -7 0 -18 -9 -25 -20 -9 -16 -21 -20 -47 -18 -19 2 -34 -1 -34 -7
0 -5 19 -49 42 -97 49 -101 58 -105 141 -61 43 23 72 41 150 95 6 4 2 17 -8
33 -15 22 -24 26 -52 23 -34 -4 -34 -4 -28 30 5 27 4 33 -6 27 -14 -9 -30 11
-30 38 0 11 -7 34 -16 52 -13 28 -13 37 -3 57 17 30 13 45 -17 73 -13 12 -24
27 -24 33 0 16 -111 20 -118 4z"/>
<path d="M5722 8351 c-8 -36 -21 -66 -35 -79 -40 -37 -222 -113 -295 -123 -68
-9 -169 -3 -209 12 -13 5 -25 4 -28 -1 -8 -13 -51 -13 -75 0 -14 8 -37 3 -93
-19 -105 -40 -127 -45 -127 -26 0 8 -7 15 -15 15 -8 0 -15 5 -15 10 0 6 7 13
15 16 22 9 18 30 -7 48 -23 16 -88 19 -143 7 -16 -4 -39 -3 -51 2 -12 5 -35 5
-55 0 -32 -9 -34 -12 -34 -53 0 -26 -5 -45 -12 -47 -8 -3 -13 -21 -13 -42 0
-37 0 -38 55 -51 30 -7 52 -17 49 -22 -3 -4 0 -8 6 -8 6 0 13 6 16 14 3 8 13
13 22 11 9 -1 24 1 33 6 38 19 24 -8 -36 -74 -87 -95 -134 -198 -179 -389 -3
-15 -12 -33 -20 -40 -7 -8 -30 -45 -51 -83 -20 -38 -53 -87 -72 -110 -30 -34
-34 -45 -29 -76 6 -36 5 -37 -39 -48 -37 -9 -46 -16 -50 -39 -4 -15 -11 -34
-16 -42 -25 -39 -39 -83 -39 -120 0 -43 6 -49 25 -23 15 20 108 29 147 14 18
-7 36 -28 53 -61 14 -27 30 -50 36 -50 5 0 8 -4 5 -9 -12 -18 25 -20 66 -2 24
10 64 26 91 35 26 10 45 22 41 27 -3 5 6 9 20 9 13 0 26 3 28 8 3 8 103 58
188 95 30 13 61 31 69 41 10 11 16 13 21 6 5 -8 19 -5 44 10 60 33 149 104
137 108 -17 6 -13 27 10 48 l21 19 -7 -34 -7 -34 33 24 c66 46 373 271 406
297 36 29 41 42 18 42 -8 0 -15 5 -15 10 0 17 31 24 40 10 4 -7 15 -10 23 -7
12 4 14 16 10 46 -7 55 3 91 26 91 15 0 19 7 19 35 0 19 -4 33 -9 30 -12 -8
-41 41 -37 61 5 27 26 28 30 2 4 -22 5 -22 11 5 4 15 9 38 12 52 4 19 12 25
30 25 29 0 30 -7 10 -34 -23 -30 -19 -70 8 -81 16 -7 21 -17 19 -37 -2 -14 2
-29 7 -33 7 -4 11 3 11 18 0 13 8 30 18 38 51 42 93 49 129 24 14 -10 24 -12
28 -5 3 5 0 10 -8 10 -7 0 -28 13 -45 28 -23 21 -30 34 -25 50 7 27 9 27 64 3
90 -38 86 -39 220 61 68 50 127 96 131 102 9 13 11 32 2 24 -5 -6 -18 4 -83
63 l-35 31 30 16 c39 20 41 22 24 32 -8 5 -29 7 -46 4 -18 -2 -36 1 -39 6 -4
6 8 11 27 11 l33 2 -30 4 c-16 3 -33 10 -37 16 -6 9 -11 8 -19 -3 -7 -10 -12
-11 -15 -4 -3 8 -28 11 -74 8 -64 -4 -68 -3 -63 16 3 11 1 20 -5 20 -6 0 -12
12 -14 28 -3 25 -7 27 -50 30 -29 2 -48 -1 -48 -7 0 -18 -32 -12 -64 12 -17
13 -45 24 -62 25 -29 1 -31 -2 -42 -57z m232 -94 c16 -12 16 -14 -6 -25 -13
-7 -32 -27 -43 -45 -28 -46 -30 -51 -11 -44 9 4 17 1 18 -6 4 -34 3 -44 -9
-67 -7 -14 -13 -30 -13 -36 0 -6 -6 -17 -13 -23 -11 -8 -18 -6 -32 9 -10 11
-22 20 -26 20 -4 0 -20 11 -34 24 -27 25 -26 46 0 46 21 0 64 51 73 85 6 23
15 31 36 33 22 3 27 8 23 23 -6 22 11 25 37 6z"/>
</g>
</svg>
