<?xml version="1.0" standalone="no"?>
<!DOCTYPE svg PUBLIC "-//W3C//DTD SVG 20010904//EN"
 "http://www.w3.org/TR/2001/REC-SVG-20010904/DTD/svg10.dtd">
<svg version="1.0" xmlns="http://www.w3.org/2000/svg"
 width="1600.000000pt" height="1200.000000pt" viewBox="0 0 1600.000000 1200.000000"
 preserveAspectRatio="xMidYMid meet">
<metadata>
Created by potrace 1.16, written by Peter Selinger 2001-2019
</metadata>
<g transform="translate(0.000000,1200.000000) scale(0.100000,-0.100000)"
fill="#000000" stroke="none">
<path d="M0 6000 l0 -6000 8000 0 8000 0 0 1385 0 1385 -24 0 c-33 0 -43 16
-66 106 -11 43 -31 100 -44 126 l-23 48 24 0 c13 0 22 4 19 8 -6 10 70 7 96
-3 17 -7 18 45 18 950 l0 957 -30 57 c-50 95 -53 109 -30 141 11 15 20 33 20
38 0 6 9 14 20 17 19 6 20 15 20 160 l0 153 -35 -3 c-27 -2 -39 2 -54 21 -10
13 -22 20 -27 16 -5 -4 -6 -3 -2 2 4 5 -2 27 -15 48 -20 37 -21 41 -5 52 10 7
14 16 10 20 -4 4 1 12 11 17 9 6 17 16 17 22 0 16 52 47 79 47 l21 0 0 3115 0
3115 -8000 0 -8000 0 0 -6000z m8381 1339 c11 -7 12 -11 1 -17 -10 -7 -4 -16
22 -35 22 -17 36 -23 38 -15 7 20 28 -2 28 -28 0 -14 7 -47 16 -75 20 -60 15
-171 -9 -214 -9 -16 -23 -43 -31 -60 -24 -50 -56 -85 -94 -101 -41 -18 -169
-21 -186 -4 -5 5 -6 10 -2 10 4 0 -4 14 -18 31 -15 18 -26 43 -26 60 0 16 -4
29 -9 29 -5 0 -11 9 -14 21 -3 12 -10 18 -16 15 -15 -10 -101 17 -101 31 0 7
4 13 9 13 5 0 13 21 17 47 8 41 13 48 41 55 27 7 33 14 38 46 14 79 25 99 76
135 l50 35 -33 8 c-32 7 -32 8 -8 14 38 10 196 9 211 -1z m-842 -36 c71 -39
90 -89 81 -210 -7 -87 -9 -94 -40 -123 -33 -31 -49 -36 -65 -22 -6 5 -30 14
-55 22 -31 9 -59 27 -87 58 -24 25 -43 51 -44 56 -1 17 -6 50 -9 61 -1 6 -2
31 -1 57 1 41 6 52 43 87 36 36 47 41 86 41 29 0 60 -9 91 -27z m2936 -34 c4
-11 21 -27 38 -34 76 -32 115 -117 124 -272 l6 -92 -31 -30 c-19 -20 -28 -37
-25 -50 2 -10 -3 -25 -11 -32 -9 -8 -23 -20 -30 -26 -11 -10 -21 -10 -48 3
-37 17 -105 64 -93 64 5 0 -20 30 -54 68 -100 110 -104 114 -92 121 6 4 7 12
1 21 -15 23 -12 98 5 130 9 17 11 30 5 30 -20 0 -9 15 34 48 31 23 59 34 95
39 33 4 51 10 51 19 0 22 18 16 25 -7z m-4535 -4 c33 -9 80 -54 80 -76 0 -10
5 -21 11 -24 14 -9 4 -102 -13 -123 -10 -12 -10 -16 0 -19 18 -7 15 -23 -5
-23 -10 0 -29 -9 -43 -20 -14 -11 -30 -20 -37 -20 -6 0 -19 -10 -27 -22 -13
-18 -25 -22 -60 -21 -81 3 -99 22 -116 127 -10 63 -9 70 16 123 33 70 54 91
102 102 37 9 46 8 92 -4z m853 -9 c48 -20 75 -58 89 -126 9 -48 10 -65 0 -80
-7 -11 -12 -27 -12 -35 0 -21 -62 -115 -71 -109 -4 2 -12 -3 -16 -11 -16 -28
-79 -30 -129 -5 -50 26 -62 38 -67 66 -1 10 -5 24 -9 29 -13 22 -2 180 15 211
34 66 124 93 200 60z m2825 -62 c32 -12 45 -26 71 -76 19 -37 31 -76 31 -99 0
-24 5 -39 13 -40 6 0 2 -4 -9 -9 -14 -5 -24 -21 -28 -44 -4 -21 -11 -34 -17
-30 -6 4 -9 -2 -7 -13 5 -34 -20 -53 -72 -53 -37 0 -53 6 -77 28 -75 69 -91
80 -102 69 -19 -19 -27 34 -22 166 1 30 63 101 97 110 39 10 85 7 122 -9z
m2594 -33 c-2 -8 3 -11 12 -8 8 3 16 -2 19 -14 3 -11 14 -19 26 -19 12 0 21
-5 21 -11 0 -6 14 -22 30 -36 20 -17 30 -34 30 -53 0 -16 5 -32 10 -35 26 -16
-1 -105 -48 -158 -17 -19 -44 -19 -132 -1 -53 11 -122 53 -203 124 -37 33 -39
36 -34 83 9 94 106 159 219 147 38 -4 52 -9 50 -19z m-939 9 c11 0 15 -5 11
-11 -4 -8 1 -9 16 -4 15 5 20 4 16 -4 -4 -6 -3 -11 1 -11 21 0 73 -123 73
-172 0 -16 7 -69 16 -119 12 -72 13 -97 4 -119 -6 -16 -10 -39 -9 -52 2 -12 0
-29 -5 -36 -4 -7 -4 -12 1 -11 23 4 54 -2 49 -10 -8 -13 187 -21 700 -28 l471
-6 7 -76 c3 -42 13 -168 21 -281 8 -113 26 -335 40 -495 14 -159 32 -384 40
-500 17 -249 41 -561 54 -735 6 -69 15 -188 21 -265 5 -77 19 -261 30 -410 11
-148 27 -355 35 -460 9 -104 19 -241 23 -303 l8 -112 -171 2 c-104 2 -170 7
-170 13 -2 34 -17 65 -33 65 -13 0 -23 19 -41 78 -47 160 -49 162 -171 162
-147 0 -219 10 -225 31 -9 26 -36 24 -43 -3 l-5 -21 -541 7 c-298 4 -575 8
-616 8 -57 0 -69 3 -50 10 30 11 39 25 32 50 -3 13 -9 17 -21 12 -9 -4 -36 -9
-59 -12 -41 -4 -43 -3 -33 15 7 14 7 23 -1 31 -9 9 -9 12 1 12 7 0 10 4 7 9
-8 12 45 21 75 14 21 -6 23 -5 10 10 -9 11 -29 17 -60 17 -37 1 -42 3 -28 11
10 6 31 11 47 11 22 1 30 6 30 19 0 10 8 19 18 21 9 3 -3 5 -27 6 -24 0 -47 6
-51 12 -5 8 -11 8 -21 -2 -9 -9 -39 -15 -76 -16 -62 -2 -63 -1 -63 26 0 15 -4
43 -9 62 -5 19 -12 62 -16 95 -4 33 -12 63 -18 67 -9 6 -9 10 0 16 8 5 13 40
14 95 2 85 3 87 26 87 37 0 18 17 -27 24 -22 3 -40 9 -40 11 0 14 63 65 80 65
11 0 20 4 20 9 0 8 -22 5 -105 -14 -11 -3 0 5 25 16 35 17 72 23 167 28 67 3
124 8 127 11 2 3 0 39 -6 80 -6 41 -11 152 -12 245 -1 94 -6 252 -11 353 -6
143 -5 182 4 182 7 0 32 -20 54 -44 49 -51 83 -71 92 -55 4 5 -10 25 -30 43
-44 37 -44 37 32 140 23 33 43 63 43 67 0 10 -61 108 -99 159 -18 25 -39 59
-47 76 -16 38 -97 114 -122 114 -9 0 -49 15 -87 33 -39 19 -88 37 -110 41 -22
4 -48 9 -57 12 -13 4 -22 -5 -33 -33 -25 -59 -61 -91 -119 -104 -57 -12 -108
-9 -104 6 1 6 8 9 15 7 38 -9 180 161 151 179 -8 6 -18 3 -25 -8 -8 -10 -27
-16 -54 -16 -36 0 -47 6 -75 38 -22 26 -37 36 -49 31 -14 -5 -16 -15 -10 -65
7 -57 6 -59 -17 -59 -12 0 -40 -3 -60 -7 -33 -7 -38 -5 -39 11 -1 11 -7 -17
-14 -61 -9 -58 -13 -69 -14 -41 -2 66 -12 34 -25 -85 -11 -96 -14 -104 -15
-55 0 33 4 97 11 143 7 45 9 86 5 89 -4 4 -19 2 -34 -5 -16 -7 -41 -15 -58
-17 -16 -2 -60 -11 -97 -20 l-68 -16 -47 34 c-45 31 -178 108 -188 108 -3 0
-5 -11 -5 -25 0 -19 -11 -33 -47 -55 -40 -26 -57 -30 -114 -30 -104 0 -162 16
-203 56 -36 35 -48 74 -23 74 8 0 19 -11 26 -24 19 -35 51 -23 51 19 0 38 -24
65 -42 47 -8 -8 -19 -6 -41 10 -26 18 -31 19 -41 7 -7 -10 -31 -15 -73 -15
-60 -1 -64 -2 -109 -47 -44 -42 -47 -48 -36 -71 15 -33 9 -47 -27 -68 -30 -17
-81 -87 -81 -111 0 -8 -9 -22 -20 -32 -11 -10 -22 -26 -25 -36 -9 -28 -28 -23
-43 11 -9 19 -24 33 -40 37 -15 3 -37 17 -50 30 -26 29 -37 24 -52 -22 -11
-34 -29 -47 -31 -22 -2 16 -2 18 6 52 l6 30 -20 -24 c-12 -13 -21 -29 -21 -37
0 -8 -4 -14 -10 -14 -15 0 -12 38 7 77 14 30 14 36 2 44 -8 5 -19 7 -26 5 -6
-3 -21 3 -32 13 -23 20 -20 49 6 64 8 5 11 16 8 28 -5 15 -1 19 19 19 21 0 26
6 31 38 3 20 10 44 14 52 10 19 3 115 -10 151 -12 32 -93 74 -159 83 -49 6
-176 -26 -218 -55 -31 -22 -39 -95 -19 -172 9 -33 13 -65 10 -73 -6 -17 23
-19 33 -2 4 7 10 28 13 47 4 19 11 36 18 38 7 3 10 -3 6 -15 -3 -15 2 -21 21
-26 34 -8 66 12 66 42 0 22 -3 24 -50 20 -39 -2 -50 0 -50 12 1 26 49 52 106
57 48 5 56 3 74 -18 26 -32 26 -34 -18 -47 -35 -11 -38 -14 -34 -41 2 -19 10
-30 21 -30 9 -1 35 -4 59 -7 39 -6 43 -8 40 -33 -4 -33 -31 -39 -60 -11 -19
18 -24 19 -26 6 -2 -11 -15 -16 -39 -16 -22 0 -41 -7 -48 -17 -7 -9 -17 -13
-24 -9 -9 6 -7 12 6 22 17 14 17 15 -2 12 -16 -3 -19 -10 -17 -36 1 -18 -2
-32 -6 -32 -4 0 -8 -24 -7 -52 l0 -53 -53 3 c-41 2 -61 -3 -96 -23 -23 -14
-53 -25 -65 -25 -12 0 -37 -6 -56 -14 -33 -14 -33 -14 -59 25 -14 21 -26 41
-26 45 0 3 -21 35 -47 70 -51 69 -93 91 -157 81 -31 -5 -126 19 -126 32 0 3 7
15 15 25 10 13 15 43 15 82 0 35 5 74 11 88 9 20 9 29 -1 41 -8 10 -10 29 -6
60 7 43 -4 99 -26 135 -4 8 -11 23 -14 32 -6 17 -115 78 -140 78 -8 0 -14 -6
-14 -13 0 -7 -20 -27 -44 -44 -63 -45 -80 -81 -74 -164 3 -40 1 -72 -5 -78 -7
-7 -7 -18 1 -33 7 -13 14 -41 16 -63 3 -22 7 -61 11 -86 l7 -46 -53 -6 c-30
-4 -59 -13 -65 -22 -8 -10 -29 -15 -65 -15 -65 -1 -80 -9 -144 -79 -28 -30
-58 -63 -67 -73 -10 -10 -18 -27 -18 -37 0 -23 -19 -38 -29 -23 -3 5 -17 12
-31 13 -23 4 -25 8 -25 64 0 33 3 74 7 92 5 23 3 37 -7 47 -16 16 -19 38 -8
50 13 13 13 47 -1 52 -8 3 -17 17 -21 31 -3 14 -13 32 -20 40 -11 10 -13 26
-9 52 6 36 4 38 -35 56 -73 32 -230 2 -283 -56 -77 -83 -77 -143 -2 -287 50
-94 50 -103 7 -117 -17 -4 -29 0 -45 18 -20 22 -32 25 -96 25 -68 1 -76 -1
-97 -26 -27 -30 -65 -126 -65 -163 0 -24 -16 -57 -23 -49 -2 3 -14 20 -26 38
-24 34 -55 51 -176 97 -123 46 -118 41 -111 108 9 86 15 105 40 111 37 9 48
48 41 145 -12 162 -41 201 -167 222 -87 14 -121 4 -176 -52 -29 -30 -30 -33
-27 -116 4 -94 10 -113 20 -59 7 33 10 36 39 35 30 -2 30 -2 4 -6 -29 -4 -39
-23 -13 -23 8 0 15 -5 15 -11 0 -6 10 -9 23 -7 17 2 23 11 25 36 3 31 2 32
-32 32 -20 0 -36 5 -36 10 0 20 48 33 94 26 45 -7 46 -7 27 -27 -10 -11 -22
-41 -26 -66 -9 -61 -15 -75 -30 -69 -8 3 -16 -2 -19 -10 -3 -8 -11 -14 -17
-14 -8 0 -8 4 1 15 17 20 5 32 -15 15 -8 -7 -15 -25 -15 -41 0 -39 -17 -37
-28 4 l-9 32 -8 -48 c-7 -47 -3 -65 32 -143 8 -17 25 -36 38 -42 14 -6 26 -23
30 -41 4 -21 14 -33 30 -37 33 -8 50 -30 33 -40 -31 -19 -113 -21 -165 -3 -79
27 -96 38 -83 54 8 10 8 15 0 20 -8 5 -10 26 -6 59 5 50 12 179 21 366 12 270
17 368 21 395 2 17 9 113 15 215 6 101 12 186 14 189 3 2 695 6 1539 9 1409 4
1536 3 1557 -12 29 -20 86 -20 200 -2 66 11 130 13 280 7 107 -5 241 -4 299 0
58 4 391 5 740 2 510 -4 642 -8 669 -19 43 -18 135 -17 186 1 29 11 93 15 230
16 105 1 204 4 220 8 l30 7 -33 7 c-18 4 -35 15 -39 24 -3 10 -13 26 -21 35
-8 10 -12 24 -9 32 6 14 -21 46 -40 46 -18 0 -83 73 -83 93 0 10 -21 39 -47
62 -44 41 -47 46 -47 97 -1 94 70 165 154 153 19 -3 43 -5 53 -5z m-9365
-1041 c36 -12 58 -42 67 -92 l7 -35 -49 1 c-46 2 -48 1 -51 -27 -3 -25 -1 -28
11 -18 15 13 104 6 113 -9 3 -5 -2 -25 -12 -44 -15 -33 -15 -36 2 -61 32 -44
53 -87 48 -96 -3 -4 -22 -8 -43 -8 l-38 0 -18 -67 c-33 -125 -32 -124 -337
-420 -75 -73 -141 -133 -147 -133 -30 0 -61 27 -82 73 -22 48 -24 64 -24 212
0 145 2 164 22 201 25 46 72 74 125 74 43 0 48 -5 79 -70 31 -63 42 -111 33
-146 -5 -20 -9 -22 -20 -13 -11 9 -14 7 -14 -12 0 -17 3 -20 9 -11 4 8 12 14
17 14 15 -1 74 30 74 37 0 4 29 31 65 61 62 49 66 55 59 84 -3 17 -11 37 -17
44 -15 19 -2 25 16 7 19 -18 37 -20 37 -2 -1 39 -13 54 -53 63 -38 8 -45 15
-70 64 -25 48 -28 62 -23 115 14 149 18 165 46 195 24 26 35 30 83 30 29 0 68
-5 85 -11z m5476 -69 c5 -5 9 -28 10 -52 1 -41 0 -43 -31 -46 -20 -2 -33 -9
-33 -17 0 -8 -7 -18 -17 -23 -14 -9 -14 -11 5 -21 12 -7 22 -21 22 -31 0 -11
6 -20 13 -20 6 -1 2 -9 -10 -19 -13 -11 -23 -24 -23 -29 0 -10 -23 -22 -42
-22 -6 0 -8 10 -4 25 4 14 2 25 -4 25 -5 0 -10 6 -10 14 0 8 -6 16 -12 19 -10
3 -8 17 6 60 11 32 23 57 28 57 4 0 8 12 8 28 0 44 27 75 59 67 14 -3 30 -10
35 -15z m5936 -10 c0 -7 57 -24 75 -21 2 0 17 -11 31 -24 15 -14 31 -25 36
-25 5 0 8 -17 6 -37 -2 -25 2 -38 12 -41 8 -3 17 -8 20 -12 3 -4 28 -19 55
-33 95 -48 148 -132 131 -205 -24 -99 -25 -122 -5 -168 12 -25 30 -49 42 -53
26 -10 98 -92 110 -124 9 -25 3 -76 -17 -127 -53 -140 -48 -220 19 -294 20
-21 39 -52 42 -70 3 -17 11 -34 17 -38 19 -13 20 -216 1 -280 -9 -32 -21 -58
-26 -58 -5 0 -9 -9 -9 -21 0 -16 -4 -19 -21 -14 -21 7 -35 -2 -87 -59 -78 -85
-75 -83 -132 -76 -37 5 -59 14 -71 28 l-17 22 -6 -24 c-7 -29 1 -241 15 -376
5 -52 13 -156 19 -230 5 -74 14 -178 20 -230 10 -98 13 -197 6 -189 -4 4 -31
273 -61 604 -8 94 -20 206 -26 250 -5 44 -12 97 -14 118 -4 45 -2 42 -39 51
-26 6 -28 5 -24 -16 3 -13 9 -32 13 -42 6 -14 5 -17 -4 -12 -8 5 -14 1 -18
-13 -9 -35 -23 -24 -23 19 0 31 -5 43 -26 57 -14 10 -41 33 -59 51 -18 17 -35
32 -38 32 -19 0 -15 -104 18 -495 8 -93 19 -228 25 -300 5 -71 15 -182 20
-245 9 -108 12 -233 4 -200 -4 17 -26 251 -54 585 -41 482 -68 696 -95 772
-27 73 -38 91 -29 47 3 -16 1 -54 -3 -84 -9 -55 -5 -133 22 -465 8 -99 17
-236 20 -305 3 -97 -1 -67 -20 130 -24 250 -60 606 -74 725 -3 33 -10 65 -14
72 -4 6 -8 29 -9 52 -1 22 -4 39 -7 37 -3 -2 -4 16 -2 41 2 32 0 43 -8 39 -7
-5 -11 2 -11 19 0 14 -7 28 -15 31 -9 4 -15 19 -15 36 0 35 -40 188 -49 188
-3 0 -7 21 -9 48 -1 26 -9 52 -16 57 -14 11 -37 79 -30 89 2 3 1 4 -2 1 -10
-6 -56 66 -51 79 3 7 -6 30 -19 52 -15 24 -24 55 -24 80 0 74 13 164 23 164 6
0 21 10 34 22 17 16 23 32 23 65 0 24 4 43 9 43 5 0 15 15 22 33 7 17 24 43
36 57 13 14 26 35 29 47 3 12 15 23 27 25 15 2 23 11 25 30 2 15 14 34 29 43
20 14 23 19 12 26 -11 7 -11 9 3 9 9 0 18 5 20 11 2 6 38 13 83 16 44 3 82 7
84 9 9 8 41 4 41 -6z m-12739 -665 c-122 -850 -117 -823 -131 -809 -6 6 -2 59
10 139 24 153 39 250 80 520 54 362 105 668 108 654 1 -8 -29 -234 -67 -504z
m4150 185 c-22 -221 -22 -236 -11 -220 9 12 10 8 6 -15 -18 -91 -25 -149 -29
-231 -3 -51 -8 -97 -11 -103 -4 -6 -2 -11 3 -11 6 0 11 -8 12 -17 0 -13 2 -14
6 -4 5 11 7 11 14 0 5 -9 10 0 15 29 4 23 10 42 14 42 9 0 7 -61 -3 -77 -4 -6
-2 -13 4 -15 6 -2 14 -27 17 -56 2 -29 8 -52 12 -52 4 0 10 -9 13 -20 3 -11 1
-20 -3 -20 -5 0 -11 8 -13 18 -3 10 -5 5 -6 -12 -2 -43 -23 -106 -33 -100 -5
3 -8 -16 -7 -43 1 -26 -8 -158 -20 -293 -12 -135 -30 -346 -40 -470 -16 -190
-19 -212 -21 -140 -2 47 -4 92 -4 100 -1 8 3 18 8 21 5 4 9 77 9 163 0 86 3
156 8 156 4 0 8 26 8 58 0 31 5 93 11 137 14 113 11 262 -6 269 -9 3 -14 -10
-18 -47 -6 -53 -30 -380 -41 -542 -4 -49 -12 -157 -20 -240 -8 -82 -19 -231
-25 -330 -14 -221 -27 -353 -28 -300 -1 22 7 165 18 317 11 160 17 311 13 357
-5 68 -3 82 12 97 11 12 14 19 6 22 -12 4 -16 112 -3 112 4 0 7 30 7 68 0 37
4 96 8 132 4 36 8 103 8 150 1 47 5 113 11 148 13 86 10 93 -44 80 -24 -6 -51
-11 -60 -12 -10 -1 -26 -10 -36 -19 -16 -15 -19 -31 -18 -106 0 -49 -2 -84 -6
-78 -4 7 -8 -19 -9 -58 -1 -92 -15 -131 -20 -57 -2 30 -1 56 2 58 3 2 6 49 5
104 0 55 2 100 7 100 4 0 7 4 7 10 0 9 -39 34 -45 28 -3 -2 -33 -371 -34 -418
-1 -22 -30 -344 -46 -505 l-14 -140 7 135 c4 74 7 185 6 245 0 75 2 96 6 65 6
-37 8 -29 9 45 3 184 6 223 14 212 5 -7 6 24 3 68 -3 44 0 124 5 178 13 115 6
167 -21 174 -11 3 -22 15 -26 27 -3 11 -13 29 -22 38 -11 13 -13 31 -9 73 6
61 32 105 76 131 31 18 40 47 42 134 1 25 3 37 6 28 2 -10 9 -18 14 -18 5 0 9
-18 9 -39 0 -44 8 -71 21 -71 5 0 9 12 9 26 0 16 5 24 13 21 6 -2 11 -10 9
-16 -1 -6 5 -11 13 -11 8 0 15 -4 15 -10 0 -17 38 -11 42 7 2 14 9 11 39 -15
36 -32 56 -42 44 -22 -3 6 -2 10 3 10 5 0 9 14 10 31 0 18 6 37 11 42 6 6 11
40 10 76 0 37 -3 60 -6 54 -2 -7 -11 -13 -19 -13 -8 0 -14 -6 -14 -13 0 -7
-20 -17 -45 -23 -25 -6 -45 -7 -45 -2 0 4 -6 8 -13 8 -23 0 -99 78 -90 92 4 7
8 20 9 28 1 8 2 26 3 40 2 27 73 86 90 75 5 -3 12 -1 16 5 11 18 45 11 80 -16
l33 -25 7 68 c4 37 11 83 17 101 7 24 7 37 -1 45 -8 8 -11 7 -11 -3 -1 -23
-48 -53 -68 -44 -9 5 -35 9 -57 9 -35 0 -40 3 -41 23 -1 13 -8 28 -16 35 -17
13 -33 51 -18 42 5 -3 8 5 8 17 -3 54 3 75 25 87 12 6 36 20 52 30 37 24 52
25 89 6 36 -19 46 -19 46 0 0 8 5 15 10 15 6 0 11 10 12 23 1 12 4 -14 6 -58
2 -44 -1 -132 -7 -195z m1890 223 c1 -10 1 -25 0 -34 -1 -9 8 -19 21 -23 22
-6 22 -7 4 -17 -37 -22 -58 -51 -52 -72 6 -25 -24 -94 -34 -77 -4 7 -13 4 -24
-9 -10 -11 -15 -25 -11 -30 3 -6 1 -11 -4 -11 -6 0 -11 5 -11 11 0 7 -7 17
-15 23 -8 6 -18 26 -21 44 -5 25 -3 32 9 32 9 0 23 -7 32 -16 14 -15 15 -13 9
24 -5 30 -3 40 10 45 19 8 10 37 -11 37 -11 0 -13 5 -8 18 4 9 10 26 13 37 7
27 21 35 60 35 23 0 32 -5 33 -17z m-6255 -130 c-8 -54 -20 -132 -26 -173 -6
-41 -17 -120 -25 -175 -8 -55 -19 -131 -25 -170 -5 -38 -19 -131 -30 -205 -11
-74 -27 -182 -35 -240 -18 -137 -42 -286 -60 -380 -7 -41 -24 -141 -36 -222
-13 -82 -27 -148 -31 -148 -12 0 -10 16 22 229 17 108 42 270 56 361 24 156
72 463 94 595 5 33 23 148 40 255 45 289 62 382 67 376 3 -2 -2 -49 -11 -103z
m2844 42 c29 -26 50 -68 50 -97 -1 -13 2 -38 6 -55 4 -22 2 -33 -5 -33 -6 0
-11 12 -12 28 0 25 -1 26 -9 5 -11 -27 -30 -33 -108 -32 -49 1 -65 5 -70 18
-3 9 -10 21 -14 26 -5 6 -17 21 -28 34 -19 23 -19 23 6 71 14 27 31 51 37 53
6 2 37 3 68 3 42 -1 63 -6 79 -21z m11638 -70 c34 -15 62 -32 62 -37 0 -5 4
-6 10 -3 20 12 120 -54 120 -81 0 -6 -17 -24 -37 -40 -21 -15 -40 -31 -43 -34
-11 -15 -116 -83 -146 -96 -38 -16 -94 -19 -94 -5 0 5 -10 13 -22 17 -13 3
-35 15 -50 25 -14 11 -34 19 -45 19 -10 0 -29 17 -43 38 -32 49 -34 34 -16
-133 7 -71 10 -134 6 -138 -4 -4 -12 41 -19 100 -7 59 -19 150 -27 202 -15 95
-12 135 9 128 7 -2 29 11 51 29 61 52 176 56 284 9z m-14117 -127 c-20 -128
-123 -839 -136 -948 -7 -58 -20 -141 -29 -185 -8 -44 -22 -145 -31 -225 -9
-80 -24 -188 -35 -242 -11 -53 -20 -110 -20 -127 0 -17 -4 -31 -10 -31 -13 0
-13 22 0 107 22 148 53 365 71 498 10 77 25 176 33 220 8 44 19 118 26 165 6
47 20 141 30 210 11 69 29 188 40 265 11 77 25 165 30 195 5 30 12 80 16 110
7 58 12 75 21 66 3 -3 1 -38 -6 -78z m1234 50 c29 -13 32 -26 9 -43 -15 -10
-15 -13 -2 -26 8 -7 13 -22 10 -32 -2 -10 3 -36 13 -58 15 -32 16 -44 7 -65
-13 -28 -15 -41 -5 -31 3 4 11 3 17 -2 17 -13 66 -22 66 -12 0 13 54 21 62 8
3 -5 4 -16 1 -24 -8 -19 10 -16 35 7 26 24 28 24 36 4 3 -9 -3 -31 -15 -50
-15 -25 -17 -34 -7 -34 8 0 9 -3 3 -8 -16 -11 -41 -47 -29 -39 19 11 23 -16
10 -64 -9 -34 -16 -45 -34 -46 -30 -4 -30 29 1 51 12 9 16 14 10 11 -8 -4 -13
1 -13 12 -1 17 -1 17 -12 -1 -14 -25 -20 -106 -8 -106 6 0 10 5 10 11 0 5 5 7
11 4 7 -5 6 -12 -4 -23 -8 -10 -17 -30 -21 -45 -4 -16 -16 -38 -27 -50 -41
-43 -52 -109 -22 -126 13 -7 23 -5 37 7 18 16 19 16 13 0 -3 -10 -3 -28 2 -40
6 -18 9 -19 14 -5 8 21 33 12 40 -14 4 -16 -3 -24 -31 -37 -20 -9 -37 -23 -38
-29 -1 -7 -2 -26 -2 -41 -2 -19 -11 -33 -31 -45 -22 -13 -27 -22 -23 -42 4
-24 12 -29 38 -26 20 2 28 -52 10 -65 -20 -14 -20 -24 -1 -24 11 0 15 -12 15
-50 0 -41 -3 -50 -17 -51 -17 -1 -17 -2 0 -6 14 -4 17 -16 17 -69 0 -36 -4
-64 -10 -64 -5 0 -10 -4 -10 -10 0 -5 5 -9 11 -7 8 1 11 -19 10 -63 -3 -101
-11 -150 -27 -150 -8 0 -14 -4 -14 -10 0 -5 6 -10 13 -10 17 0 7 -81 -13 -105
-12 -14 -11 -18 1 -27 15 -10 -12 -7 -58 7 -17 6 -23 3 -23 -8 0 -13 -14 -15
-77 -15 -59 0 -72 2 -54 9 13 5 22 11 20 14 -7 7 -49 -6 -49 -15 0 -11 -204
-17 -312 -10 -50 4 -57 7 -52 22 7 22 0 23 -20 2 -15 -14 -16 -14 -16 0 0 9
-7 16 -15 16 -20 0 -19 18 5 63 20 37 20 38 2 33 -17 -6 -20 0 -25 50 -6 60 4
94 28 94 8 0 15 7 15 15 0 8 4 15 10 15 6 0 6 -9 0 -25 -12 -31 -2 -37 41 -25
44 13 52 13 43 -2 -4 -7 -3 -8 4 -4 7 4 12 14 12 22 0 16 -45 20 -55 4 -3 -5
-11 -10 -17 -10 -7 0 -7 4 1 14 9 10 8 16 -4 26 -15 13 -21 60 -7 60 4 0 8 9
9 20 1 11 -1 20 -5 20 -14 0 -31 -38 -25 -59 8 -31 -14 -26 -25 7 -7 17 -11
21 -11 10 -1 -28 -18 -21 -26 9 -4 18 -2 29 5 31 9 3 9 6 1 11 -13 8 -17 167
-6 249 7 56 25 123 37 137 4 5 8 18 8 29 0 20 0 20 15 0 14 -19 14 -18 15 4 0
12 -4 22 -9 22 -4 0 -6 11 -3 25 3 18 -1 26 -14 31 -40 13 -129 60 -146 76 -9
9 -31 24 -47 33 -17 8 -31 22 -31 31 0 26 30 28 73 4 l41 -23 33 39 c48 56 55
76 42 136 -10 46 -9 53 7 65 29 21 38 10 49 -60 l10 -67 28 26 c16 15 25 29
19 33 -20 13 -23 48 -5 55 10 4 19 2 21 -3 2 -6 10 -11 18 -11 8 0 14 -7 14
-15 0 -8 4 -15 9 -15 5 0 13 -9 16 -21 6 -19 8 -19 20 -3 12 17 13 16 23 -3 6
-11 8 -24 4 -28 -4 -4 3 -3 15 4 12 6 24 16 26 23 3 7 6 3 6 -9 1 -13 6 -23
12 -23 6 0 1 -9 -12 -20 -21 -17 -22 -21 -9 -30 12 -9 10 -10 -9 -5 -15 5 -21
3 -17 -3 3 -6 -2 -13 -11 -16 -10 -2 -2 -4 17 -3 43 2 76 34 72 68 -2 10 115
10 141 0 13 -5 29 -6 36 -2 14 9 -42 21 -99 21 -19 0 -41 4 -49 9 -18 12 172
25 246 17 32 -4 63 -3 70 2 7 4 15 28 18 52 3 25 7 61 10 80 3 19 2 29 -1 23
-3 -7 -14 -13 -24 -13 -10 0 -21 -4 -25 -9 -7 -12 -83 -12 -91 0 -3 5 2 6 11
3 10 -4 24 2 36 15 11 11 26 21 34 21 8 0 15 5 15 11 0 7 -7 8 -17 4 -20 -8
-74 -8 -82 1 -3 3 1 9 8 13 7 5 10 14 7 20 -6 10 13 16 37 12 4 0 7 8 7 19 0
11 -4 20 -10 20 -5 0 -10 7 -10 15 0 8 -4 15 -10 15 -5 0 -10 -6 -10 -13 0 -8
-12 -19 -27 -26 -26 -12 -26 -14 -10 -25 9 -7 17 -17 17 -22 0 -4 -5 -3 -12 4
-7 7 -22 12 -34 12 -19 0 -23 -7 -29 -52 -10 -71 -24 -96 -25 -42 0 22 5 45
11 51 16 16 4 29 -31 36 -16 4 -30 11 -30 18 0 7 11 8 29 4 18 -4 34 -1 42 7
8 7 32 23 54 35 42 23 57 43 31 43 -9 0 -16 7 -16 15 0 15 -17 21 -77 28 -20
2 -33 -1 -33 -7 0 -13 -98 -62 -106 -53 -4 3 6 17 20 30 14 13 26 29 26 34 0
6 7 16 16 24 13 10 19 10 37 0 15 -9 18 -10 10 -1 -14 15 -3 57 29 102 12 18
26 35 29 38 3 3 11 15 18 28 13 25 20 27 56 10z m13138 -96 c42 -46 62 -174
30 -186 -6 -3 -47 -10 -91 -17 -70 -11 -86 -10 -133 5 -30 10 -57 23 -61 30
-5 7 -15 3 -30 -14 -13 -14 -19 -21 -15 -14 4 7 3 14 -4 16 -21 7 248 196 282
198 3 0 13 -8 22 -18z m732 -142 c9 -69 27 -204 40 -300 44 -317 77 -592 71
-597 -3 -3 -7 5 -10 18 -15 68 -126 939 -126 987 0 50 8 15 25 -108z m-5765
-49 c-7 -80 -16 -147 -21 -149 -5 -2 -2 -13 5 -25 12 -18 26 -84 32 -147 0 -8
2 -22 3 -30 1 -12 11 -15 40 -12 21 2 42 -1 45 -7 5 -7 -3 -11 -21 -11 -47 0
-72 -11 -76 -34 -3 -13 -5 -8 -6 14 -1 30 -3 33 -14 19 -7 -9 -18 -14 -24 -12
-16 6 -17 -19 -2 -34 6 -6 7 -22 3 -38 l-7 -28 -14 28 c-8 15 -13 38 -10 51 2
13 0 24 -4 24 -12 0 -12 47 0 52 4 2 12 14 16 27 6 19 4 23 -8 18 -13 -5 -14
3 -10 46 2 29 9 68 16 87 6 19 12 44 12 55 6 88 18 212 23 219 3 5 9 1 13 -10
5 -13 8 -6 9 26 1 25 4 39 7 31 3 -7 0 -79 -7 -160z m-6902 -7 c11 -11 22 -28
24 -39 2 -13 14 -22 33 -25 30 -5 43 -35 16 -35 -11 0 -14 -16 -12 -75 3 -76
13 -101 67 -155 9 -9 13 -19 9 -23 -4 -4 -10 -1 -12 6 -3 7 -18 27 -34 45
l-29 31 0 -41 c0 -22 -7 -56 -16 -74 l-15 -34 6 60 c3 41 2 55 -5 45 -5 -8
-10 -27 -10 -42 0 -36 -20 -47 -21 -11 l-1 28 -8 -25 c-7 -21 -8 -18 -10 20
l-1 45 -12 -35 c-7 -19 -15 -34 -19 -32 -5 1 -15 2 -23 2 -8 0 -15 6 -15 14 0
8 -9 12 -25 11 -16 -2 -25 2 -25 11 0 8 -5 13 -12 11 -8 -1 -11 11 -10 38 2
42 -2 39 -13 -9 l-6 -29 -20 22 c-17 18 -19 29 -13 86 4 36 9 65 12 65 3 0 11
-8 18 -17 12 -16 13 -14 14 18 0 19 -6 41 -12 48 -11 10 -9 15 6 27 23 16 52
18 61 5 3 -5 1 -12 -5 -16 -18 -11 -11 -23 13 -21 34 2 30 42 -7 57 -15 7 -34
12 -41 12 -9 0 -11 7 -5 21 12 35 124 42 158 10z m288 -12 c14 -9 15 -34 3
-107 -10 -63 -33 -273 -50 -460 -5 -60 -14 -114 -19 -119 -7 -7 -10 -2 -10 13
0 16 -4 21 -15 17 -19 -7 -20 17 -1 47 20 32 29 146 14 165 -10 12 -10 16 0
19 6 3 12 12 12 21 0 12 -4 11 -21 -7 -18 -19 -22 -38 -25 -124 -2 -56 -6
-119 -9 -140 -4 -25 -2 -36 5 -32 6 4 10 -5 10 -19 0 -14 -4 -26 -8 -26 -5 0
-14 -44 -21 -97 -16 -128 -19 -143 -32 -143 -10 0 -8 101 6 240 2 25 2 39 -1
33 -3 -7 -10 -13 -15 -13 -14 0 -11 30 5 45 14 14 29 132 30 242 1 47 -2 63
-13 65 -8 2 1 11 22 23 34 18 37 18 55 2 19 -17 20 -16 26 40 3 32 9 104 12
161 4 56 11 105 15 108 18 10 8 24 -16 24 -31 0 -33 17 -2 23 12 2 24 5 27 5
3 1 10 -2 16 -6z m-627 -117 c2 41 12 75 21 75 5 0 6 -10 4 -22 -4 -20 -3 -20
4 -4 11 25 42 30 42 8 0 -15 2 -15 10 -2 7 11 10 7 10 -18 0 -23 4 -31 12 -26
8 5 10 -13 5 -70 -3 -43 -8 -80 -10 -82 -9 -9 -37 9 -38 25 0 10 -2 11 -6 4
-4 -10 -9 -10 -26 -1 -12 7 -25 11 -29 10 -5 -1 -8 5 -8 14 0 8 -4 12 -10 9
-12 -7 -12 11 -3 96 l8 64 6 -55 c3 -30 7 -41 8 -25z m11855 53 c-6 -10 -3 -9
8 0 11 9 40 13 85 11 64 -2 68 -4 84 -33 9 -17 33 -40 54 -51 97 -51 175 -165
175 -255 0 -54 -15 -95 -30 -85 -5 3 -46 10 -91 15 -67 8 -87 14 -109 35 -14
14 -33 25 -41 25 -9 0 -27 17 -40 38 -14 22 -44 47 -73 62 -30 15 -58 40 -73
63 -13 20 -20 37 -17 37 4 0 1 7 -6 15 -15 19 -5 50 33 97 28 35 58 54 41 26z
m-8246 -68 c43 -41 65 -49 79 -27 4 6 16 18 25 25 14 12 16 11 11 -8 -9 -35
-50 -56 -84 -43 -33 13 -37 7 -11 -14 16 -14 16 -14 -2 -8 -19 6 -19 5 -1 -15
22 -24 38 -25 55 -5 10 12 10 15 -1 15 -10 0 -10 3 -1 12 10 10 15 10 21 -1 6
-9 11 -10 15 -2 4 6 2 11 -4 11 -12 0 -1 16 39 56 34 35 64 31 100 -13 17 -21
31 -41 31 -45 0 -13 -28 -9 -32 4 -3 9 -8 8 -20 -2 -12 -12 -13 -19 -4 -35 6
-11 14 -22 17 -25 3 -3 9 -44 11 -92 4 -63 2 -90 -7 -98 -6 -5 -15 -6 -19 -2
-4 4 -6 0 -4 -8 2 -10 -6 -14 -29 -15 -31 0 -51 -10 -41 -20 3 -3 43 -8 89
-12 110 -8 77 -21 -61 -23 -58 -1 -96 -4 -85 -7 53 -13 33 -23 -44 -23 -60 0
-87 4 -97 15 -10 9 -35 15 -67 15 -60 0 -97 8 -97 21 0 5 34 9 76 9 56 0 75 3
71 13 -2 6 -18 12 -36 12 -42 0 -67 39 -51 80 5 14 9 47 9 74 -1 31 5 58 16
75 16 24 24 27 57 24 21 -2 38 1 39 7 0 5 2 20 5 31 4 23 -9 38 -41 48 -26 8
-55 -31 -33 -45 7 -5 21 -7 31 -5 9 2 17 0 17 -5 0 -11 -44 -23 -62 -16 -21 7
-48 -12 -48 -35 0 -12 -3 -19 -6 -15 -13 13 10 69 42 103 27 30 39 36 64 32
30 -5 41 6 18 15 -7 3 -8 6 -3 6 6 1 30 -17 53 -39z m2514 -86 c20 -60 21 -96
7 -199 -8 -50 -18 -85 -28 -93 -15 -12 -14 -15 4 -28 22 -16 21 -6 29 -284 l4
-165 26 -3 c25 -3 26 -6 26 -70 -1 -37 -6 -87 -13 -112 l-12 -45 -100 3 c-68
2 -117 9 -153 23 -29 10 -63 19 -76 19 -20 0 -27 9 -43 58 -14 46 -17 83 -15
187 1 72 3 226 3 344 l1 213 51 -6 c44 -6 59 -14 102 -56 46 -45 128 -90 141
-77 3 3 -4 8 -15 12 -12 3 -21 11 -21 16 0 6 5 7 10 4 6 -3 10 -1 10 5 0 6
-10 14 -22 19 -22 8 -22 8 5 26 21 13 27 25 26 49 -2 38 -27 98 -45 109 -8 4
-14 14 -14 21 0 19 68 88 82 84 7 -3 21 -27 30 -54z m518 -75 c0 -17 4 -28 10
-24 6 3 11 -4 11 -17 1 -17 3 -18 6 -5 2 9 14 17 25 17 15 0 18 -4 13 -17 -3
-10 -9 -40 -13 -68 l-7 -50 -6 45 -6 45 -1 -47 c-2 -36 2 -48 12 -48 9 0 16
13 19 33 3 24 4 21 5 -15 1 -27 -2 -48 -8 -48 -5 0 -11 -12 -11 -27 l-1 -28
-8 30 c-7 29 -8 29 -9 -9 -1 -36 1 -38 24 -34 22 5 25 2 25 -21 0 -20 -2 -23
-10 -11 -7 11 -10 3 -10 -28 0 -24 4 -41 9 -37 5 3 12 1 16 -4 3 -5 -1 -13 -9
-18 -9 -5 -12 -18 -9 -35 3 -15 9 -25 14 -22 5 3 9 2 9 -3 2 -55 11 -152 16
-165 3 -12 0 -18 -10 -18 -11 0 -16 -9 -15 -27 l1 -28 8 25 c7 23 8 23 9 3 2
-36 22 -38 52 -5 27 30 76 167 86 242 5 40 42 149 56 168 12 15 57 15 78 -1 9
-7 20 -28 24 -47 4 -19 11 -37 15 -40 4 -3 11 -99 16 -215 l9 -210 43 -9 c41
-9 42 -9 42 -52 0 -25 5 -44 13 -47 8 -2 12 -33 12 -104 1 -76 5 -106 18 -126
10 -16 20 -64 27 -129 10 -98 16 -133 39 -241 14 -64 18 -165 8 -204 -7 -28
-6 -33 10 -34 16 -1 16 -2 1 -6 -18 -5 -21 -43 -4 -55 6 -4 5 -12 -2 -21 -7
-8 -14 -34 -17 -58 -3 -24 -7 -57 -9 -74 -3 -16 -5 -36 -5 -42 -1 -9 -24 -13
-81 -13 -78 0 -80 1 -80 24 0 14 4 27 9 30 26 16 18 205 -9 214 -6 2 -10 12
-10 23 0 11 -19 49 -41 85 -58 92 -61 113 -27 208 26 71 35 149 16 136 -4 -3
-13 3 -21 13 -9 14 -11 33 -6 70 11 74 10 315 -1 361 -11 50 -14 204 -4 276 4
30 3 52 -1 48 -11 -11 -55 -115 -70 -168 -7 -25 -27 -74 -44 -110 -17 -36 -31
-71 -31 -77 0 -7 -4 -13 -9 -13 -5 0 -14 -15 -21 -34 -13 -42 -35 -62 -77 -71
-43 -9 -44 -34 -2 -32 31 2 32 2 34 -53 2 -30 7 -84 10 -120 4 -36 8 -82 9
-102 0 -20 4 -39 8 -43 4 -4 4 -13 1 -21 -8 -22 20 -16 43 9 33 35 43 61 47
119 1 29 6 59 11 66 13 21 26 3 19 -28 -3 -18 0 -36 7 -45 7 -8 10 -15 8 -15
-3 0 -1 -23 3 -52 7 -42 5 -55 -8 -70 -10 -11 -12 -18 -4 -18 6 0 26 20 43 45
46 66 56 38 22 -61 -32 -95 -29 -130 21 -215 55 -94 75 -152 75 -217 0 -69
-25 -128 -69 -165 -35 -29 -61 -34 -90 -15 -23 14 -51 4 -58 -22 -6 -24 -55
-35 -129 -27 -44 5 -59 11 -80 36 -15 19 -35 31 -50 31 -29 0 -93 55 -109 95
-15 35 -6 125 21 220 20 75 56 253 55 280 0 12 19 37 47 61 l46 42 -3 158 c-1
87 -5 162 -7 165 -2 4 10 11 28 15 l33 8 -40 6 c-32 4 -40 9 -40 25 0 11 -5
23 -12 27 -6 5 -10 23 -8 42 3 27 -1 36 -21 45 -37 16 -29 31 17 31 l40 0 -5
108 c-11 213 -10 287 2 285 7 -2 12 10 12 32 0 19 -5 35 -11 35 -7 0 -9 -9 -6
-21 3 -12 2 -18 -3 -13 -4 5 -10 66 -12 136 -2 80 -7 131 -15 139 -9 9 -9 16
0 32 9 15 9 21 0 24 -18 7 -16 33 2 33 10 0 15 -10 15 -31z m-1524 -123 c-4
-20 -11 -36 -15 -36 -5 0 -8 -11 -7 -24 0 -13 4 -22 9 -19 4 2 7 -7 7 -21 0
-14 -4 -27 -9 -31 -6 -3 -10 -13 -10 -23 1 -33 -42 -268 -72 -392 -16 -69 -29
-128 -29 -132 0 -3 14 -9 31 -13 19 -4 33 -15 36 -26 3 -10 12 -19 19 -19 16
0 18 -11 5 -25 -14 -16 -22 -233 -8 -238 8 -2 10 -22 7 -58 -9 -102 0 -307 15
-343 9 -20 12 -48 9 -65 -6 -28 -4 -31 17 -31 l23 0 -22 -15 c-12 -9 -22 -26
-22 -38 0 -48 -11 -224 -16 -254 -5 -32 -7 -33 -52 -33 -26 0 -83 3 -127 6
l-80 7 1 213 c1 136 5 218 12 227 6 7 16 62 22 122 6 61 15 139 20 175 17 114
12 432 -6 499 -19 68 -14 91 19 91 34 0 36 6 23 58 -16 61 -15 334 1 339 25 9
61 44 103 100 25 32 52 66 62 76 10 10 19 23 19 30 1 7 6 -7 11 -30 6 -23 7
-58 4 -77z m-974 12 c8 -3 1 -45 -22 -135 l-34 -130 -16 46 c-17 46 -25 193
-14 243 l5 27 35 -24 c19 -13 40 -25 46 -27z m8628 2 c0 -5 -6 -10 -14 -10
-14 0 -18 -18 -28 -109 -2 -18 -21 -35 -73 -68 -38 -23 -77 -46 -85 -50 -8 -4
-34 -20 -57 -36 l-43 -28 0 -80 c0 -78 9 -96 36 -69 13 13 54 1 54 -17 0 -8 8
-13 18 -11 10 2 17 -3 17 -12 0 -11 -13 -15 -54 -15 -50 0 -55 -2 -61 -25 -6
-25 -6 -25 -12 -2 -7 26 -26 27 -118 4 -57 -15 -66 -20 -74 -47 -4 -16 -12
-38 -17 -47 -5 -10 -10 -28 -10 -40 -1 -13 -5 2 -10 32 -8 47 -7 57 8 67 15
12 14 13 -10 13 -18 0 -27 5 -27 16 0 11 -6 14 -20 9 -11 -4 -20 -2 -20 4 0 6
10 11 23 11 12 0 32 3 45 6 15 5 22 2 22 -8 0 -13 14 -12 93 7 66 16 94 19 99
11 4 -6 8 4 8 22 0 17 -4 32 -9 32 -5 0 -11 12 -14 28 -3 15 -9 36 -13 47 l-7
20 17 -20 c16 -19 16 -19 5 8 -7 15 -15 27 -19 27 -3 0 -44 -24 -91 -53 -98
-62 -170 -100 -176 -94 -2 3 11 14 29 26 18 11 60 39 93 61 33 22 67 43 75 47
25 11 45 37 45 58 0 17 8 21 50 25 31 4 73 19 110 40 33 19 74 42 90 51 17 9
31 26 33 38 2 13 12 31 22 41 10 10 21 33 25 51 7 32 20 48 38 49 4 0 7 -4 7
-10z m-13139 -171 c11 -6 15 1 17 32 2 23 7 37 13 33 14 -8 40 16 32 29 -4 7
0 8 11 4 10 -4 25 -7 33 -7 16 0 16 -6 -6 -235 -17 -175 -28 -251 -40 -273
-14 -26 -14 -45 -1 -37 14 8 13 -90 -2 -249 -8 -89 -16 -130 -25 -133 -24 -9
-25 2 -8 92 15 79 15 89 1 103 -12 12 -20 13 -38 5 -20 -9 -26 -24 -37 -89
-17 -97 -24 -107 -68 -99 -25 4 -35 2 -39 -10 -6 -16 -54 -22 -54 -6 0 14 32
36 53 36 20 0 20 6 18 110 -1 61 3 159 9 218 12 112 8 137 -15 102 -8 -11 -19
-25 -25 -32 -5 -7 -10 -17 -10 -23 0 -5 -12 -11 -27 -11 -17 -1 -21 -3 -10 -6
9 -2 18 -12 18 -21 1 -15 2 -15 6 1 5 21 23 23 23 2 0 -8 5 -15 10 -15 18 0
11 -49 -10 -70 -11 -11 -20 -26 -20 -34 0 -7 -7 -19 -15 -26 -12 -10 -15 -10
-15 0 0 7 -6 10 -13 7 -8 -3 -13 2 -13 12 -1 53 -5 71 -19 71 -9 0 -15 9 -15
24 0 25 20 48 20 24 0 -8 5 -6 11 5 7 12 6 23 -5 39 -19 27 -20 38 -3 38 7 0
13 9 13 19 0 11 -5 19 -11 18 -5 -1 -10 5 -10 13 0 8 6 14 13 12 6 -1 12 2 12
8 0 6 -4 10 -8 10 -5 0 -5 26 -1 58 5 31 6 67 3 78 -9 36 14 38 24 2 l9 -33 8
38 c4 22 12 36 19 34 6 -3 10 -10 8 -16 -4 -19 17 -51 35 -51 11 0 14 7 10 26
-5 30 16 43 44 25 17 -10 19 -8 19 18 0 16 3 37 7 47 4 12 3 15 -5 10 -7 -4
-13 -17 -13 -29 -1 -17 -2 -18 -6 -4 -5 21 22 152 39 185 11 22 12 20 24 -24
6 -25 18 -50 25 -55z m3555 48 c18 -23 35 -52 38 -64 6 -20 40 -40 58 -35 7 2
1 -136 -11 -253 l-6 -60 -74 -3 c-53 -2 -77 1 -82 10 -14 21 -10 82 11 171 23
99 50 229 50 240 0 4 -13 7 -30 7 -29 0 -38 9 -23 23 16 16 40 3 69 -36z
m-951 -116 c16 -6 19 -16 17 -62 -2 -30 -9 -76 -17 -104 -32 -119 -34 -215 -5
-299 13 -39 16 -64 10 -101 -5 -28 -6 -60 -3 -72 3 -16 0 -25 -12 -29 -24 -10
-35 13 -35 74 0 33 -4 51 -10 47 -13 -8 -13 -114 1 -153 17 -49 6 -58 -21 -19
-14 20 -27 31 -31 26 -3 -5 -17 2 -31 16 -34 33 -43 99 -22 157 20 54 30 122
48 313 7 83 16 158 20 168 3 9 8 24 11 32 5 16 46 19 80 6z m-2417 -79 c15 3
17 -10 20 -92 4 -126 -21 -291 -63 -420 -18 -58 -36 -114 -38 -125 -8 -37 -6
79 3 180 5 55 14 170 20 255 9 143 30 260 38 217 2 -10 11 -16 20 -15z m746 3
c-4 -8 -1 -15 5 -15 6 0 11 -5 11 -11 0 -5 -4 -7 -10 -4 -15 9 -12 -6 5 -25
14 -15 14 -22 2 -56 -21 -57 -37 -135 -50 -253 -12 -104 -12 -105 -45 -118
-39 -16 -45 2 -6 19 22 11 24 16 19 50 -4 21 -2 77 4 125 6 49 16 136 22 196
10 93 14 107 30 107 12 0 16 -5 13 -15z m3496 -322 c0 -86 68 -550 95 -653 8
-30 15 -73 15 -95 0 -23 5 -46 11 -52 7 -7 12 -80 14 -207 l2 -196 -175 0
-174 0 7 53 c4 30 15 59 26 70 26 25 32 58 25 136 -6 55 -2 88 18 167 13 55
29 147 35 205 7 58 16 121 21 140 17 57 32 158 41 274 12 153 20 205 30 205 5
0 9 -21 9 -47z m-1695 -243 c24 -20 156 -80 175 -80 22 0 35 -31 22 -57 -14
-27 -33 -84 -42 -123 -9 -43 -38 -126 -55 -160 -7 -14 -16 -43 -20 -65 -4 -22
-11 -45 -16 -52 -6 -6 -12 -33 -13 -60 -4 -49 -42 -181 -57 -198 -12 -12 -12
-58 0 -51 5 4 3 -22 -6 -56 -8 -35 -21 -94 -29 -133 -26 -122 -74 -319 -86
-350 -6 -16 -17 -37 -25 -46 -7 -8 -13 -23 -13 -32 0 -15 -9 -16 -72 -11 -64
5 -71 4 -56 -9 10 -8 15 -16 12 -19 -3 -3 7 -8 21 -12 26 -7 33 -20 14 -31 -6
-5 -3 -13 10 -22 12 -8 21 -20 21 -26 0 -18 49 -37 80 -31 17 4 37 0 54 -11
15 -10 41 -21 59 -25 27 -7 24 -8 -25 -9 -65 -1 -81 -21 -17 -21 24 0 38 -4
34 -10 -4 -6 7 -10 24 -10 17 0 31 5 31 10 0 6 15 10 33 10 l32 0 -1 53 c-1
84 3 80 -64 73 -59 -6 -60 -6 -43 14 19 22 53 27 53 8 0 -9 3 -9 9 1 7 12 13
12 24 3 11 -10 16 -7 25 12 6 13 20 27 31 31 13 4 19 14 18 28 -4 52 25 246
69 460 14 70 24 151 24 203 0 47 5 94 11 105 8 15 6 52 -5 137 -18 129 -24
349 -12 399 7 29 10 31 32 22 47 -17 83 -11 112 20 35 37 79 59 144 71 47 9
54 8 75 -12 24 -22 30 -62 13 -88 -8 -13 -10 -13 -10 1 0 9 -6 16 -13 16 -9 0
-12 -9 -9 -23 2 -13 -3 -56 -11 -96 -35 -165 -62 -388 -46 -388 5 0 7 -13 5
-30 -3 -24 0 -30 15 -30 14 0 19 -7 19 -29 0 -16 -3 -36 -6 -45 -8 -21 -34
-21 -34 0 0 10 6 14 15 10 11 -4 15 2 15 22 0 19 -3 23 -9 13 -5 -7 -13 -11
-19 -7 -11 7 -23 -24 -43 -114 -6 -30 -24 -91 -39 -135 -16 -44 -31 -96 -35
-115 -4 -19 -13 -44 -19 -55 -7 -11 -14 -40 -14 -65 -4 -119 -9 -144 -37 -167
-14 -13 -31 -21 -36 -18 -5 4 -9 -1 -9 -9 0 -9 13 -19 30 -23 55 -14 41 -30
-45 -49 l-30 -6 44 -15 c29 -11 39 -18 30 -23 -10 -7 -11 -18 -3 -47 9 -38 9
-38 55 -35 65 5 70 -14 6 -24 l-52 -8 45 -4 c31 -2 40 -6 30 -13 -13 -7 -12
-9 3 -9 9 0 17 7 17 15 0 8 7 15 15 15 17 0 20 -16 5 -25 -30 -18 1 -25 117
-25 95 0 130 4 142 14 77 69 111 103 111 112 0 6 9 19 20 29 11 10 20 23 20
29 0 6 19 17 42 24 36 11 43 11 50 -2 5 -9 30 -18 58 -22 27 -4 57 -12 67 -19
16 -12 16 -15 0 -55 -14 -37 -14 -41 -1 -36 9 3 27 6 40 6 21 0 24 5 24 37 0
38 39 93 67 93 7 0 22 5 32 12 25 15 71 -4 78 -32 3 -10 11 -21 19 -24 8 -3
14 -19 14 -38 l0 -33 123 8 c142 9 376 0 395 -15 8 -7 16 -7 26 1 11 9 15 9
18 -1 4 -10 8 -9 20 3 30 30 48 79 48 132 0 40 4 56 15 61 8 3 15 15 15 26 0
21 33 29 45 10 3 -5 15 -10 26 -10 11 0 34 -16 52 -35 39 -43 51 -44 73 -6 10
16 28 34 41 40 12 6 23 18 23 27 0 11 5 14 16 10 9 -3 20 -6 25 -6 5 0 9 -8 9
-19 0 -10 10 -26 23 -34 18 -13 20 -18 8 -26 -12 -8 -12 -12 -2 -25 9 -10 11
-28 7 -47 -5 -25 0 -39 26 -71 l31 -40 136 3 c166 3 233 0 226 -11 -5 -8 76
-22 85 -14 2 3 -2 9 -9 14 -8 4 -11 15 -8 24 8 20 37 21 37 1 0 -18 12 -19 28
-3 17 17 26 3 13 -20 -6 -11 -8 -28 -4 -37 5 -14 2 -16 -17 -10 -22 7 -22 6
-6 -16 9 -13 16 -36 16 -51 0 -16 4 -28 10 -28 13 0 30 34 30 59 0 20 5 21
150 21 143 0 151 -1 186 -25 20 -14 44 -25 53 -25 24 1 75 46 67 59 -4 6 -12
9 -17 6 -5 -4 -9 8 -9 25 0 28 2 30 28 24 15 -4 32 -13 38 -20 8 -10 18 -12
35 -6 15 6 34 5 54 -3 16 -7 61 -12 100 -11 l70 1 25 63 c14 35 32 69 40 75 9
7 21 24 27 40 7 15 21 27 30 28 10 0 27 2 38 4 12 3 36 -5 54 -16 l33 -20 -6
-62 c-5 -48 -3 -67 8 -82 22 -29 19 -45 -9 -45 -16 0 -25 -6 -25 -16 0 -15 17
-16 169 -11 149 5 172 3 197 -12 31 -19 83 -36 98 -32 5 1 16 -1 25 -4 13 -5
13 -7 1 -15 -11 -7 -8 -11 13 -19 39 -15 42 -14 56 13 19 34 7 46 -45 46 -44
0 -149 31 -167 49 -12 12 32 2 48 -10 13 -10 45 -12 123 -11 l62 2 0 54 c0 78
9 110 33 123 105 56 133 56 162 0 11 -21 40 -60 65 -85 25 -26 53 -57 62 -70
24 -30 73 -30 92 1 23 37 28 88 11 101 -14 10 -12 20 11 84 24 64 28 70 40 54
13 -16 14 -16 8 1 -3 9 -3 25 1 35 7 16 8 15 15 -3 15 -36 11 -131 -5 -145 -8
-7 -15 -19 -15 -26 0 -8 -5 -14 -10 -14 -6 0 -10 -6 -9 -12 3 -13 -8 -89 -17
-120 -7 -25 -88 -68 -128 -68 -20 0 -36 -4 -36 -9 0 -5 -60 -29 -132 -52 -73
-23 -199 -64 -280 -91 l-147 -49 -75 16 c-86 17 -170 20 -161 5 3 -6 28 -10
54 -10 68 0 161 -20 161 -35 0 -7 16 -16 36 -19 36 -7 132 18 199 52 17 8 44
18 60 22 17 5 62 20 102 34 62 22 80 25 125 18 l53 -9 -38 -8 c-23 -4 -34 -11
-27 -15 7 -5 -3 -18 -31 -39 -35 -25 -52 -31 -94 -31 -42 0 -59 -6 -91 -30
-21 -16 -43 -29 -49 -30 -5 0 -4 4 3 8 21 14 3 42 -27 42 -19 0 -22 -3 -12 -9
7 -5 11 -13 7 -19 -3 -6 0 -12 6 -15 27 -9 -1 -16 -77 -20 -44 -3 -59 -2 -32
0 26 2 47 8 47 14 0 5 -6 9 -12 9 -7 0 -53 3 -102 7 -71 5 -87 3 -81 -7 6 -10
0 -12 -28 -7 -28 4 -37 2 -37 -9 0 -18 -19 -18 -165 3 -66 9 -155 16 -198 15
-81 -3 -98 10 -31 23 20 3 34 9 30 12 -3 3 -27 0 -53 -7 -114 -29 -361 -51
-349 -31 5 7 -4 9 -26 5 -31 -6 -32 -5 -13 8 26 19 260 34 249 16 -5 -8 -1 -9
10 -5 10 4 23 7 29 7 7 0 6 4 -3 10 -13 8 -12 10 3 10 9 0 17 4 17 10 0 19 76
29 180 24 66 -3 100 -2 90 4 -8 5 -115 12 -237 16 -163 4 -244 11 -305 25 -54
12 -103 17 -140 14 -71 -7 -109 2 -102 22 8 19 -16 23 -158 28 -73 2 -122 8
-131 16 -10 8 -17 9 -22 1 -9 -15 -25 -12 -25 5 0 8 7 15 15 15 8 0 15 7 15
15 0 8 -4 15 -10 15 -5 0 -10 -4 -10 -8 0 -5 -9 -18 -20 -30 -25 -26 -84 -30
-107 -7 -8 9 -18 13 -22 9 -3 -4 0 -9 7 -11 6 -3 12 -9 12 -14 0 -5 -9 -4 -19
3 -11 7 -17 16 -14 22 4 5 -1 7 -11 3 -10 -4 -42 -7 -72 -7 -54 0 -72 -13 -33
-23 14 -4 20 -11 16 -20 -4 -10 0 -13 12 -10 10 2 33 -2 52 -11 l34 -15 -55 5
c-39 3 -49 2 -35 -5 27 -13 86 -13 138 -1 23 5 63 12 90 15 26 4 45 10 42 15
-13 21 20 21 37 -1 11 -15 16 -18 12 -6 -5 14 0 17 30 17 20 0 59 -9 88 -20
41 -16 86 -22 203 -27 84 -3 165 -12 185 -19 30 -12 6 -13 -190 -11 -196 2
-229 4 -258 20 -19 10 -36 16 -38 14 -3 -3 17 -15 43 -28 43 -21 65 -24 206
-27 86 -2 157 -8 157 -12 0 -5 -19 -13 -42 -19 l-43 -10 47 2 c67 2 74 -11 35
-56 -26 -30 -35 -35 -45 -25 -9 9 -91 14 -312 18 -165 4 -302 9 -306 12 -3 4
4 9 15 13 12 3 21 14 21 23 0 11 -3 13 -11 5 -6 -6 -23 -8 -44 -3 -19 4 -36 5
-39 2 -3 -2 -61 -6 -128 -7 -68 -1 -229 -6 -359 -10 -155 -5 -238 -4 -242 2
-8 13 -1504 8 -1520 -5 -20 -16 -107 -22 -225 -14 -62 4 -117 3 -121 -1 -11
-11 -280 -26 -486 -27 -82 -1 -177 -5 -210 -9 -33 -5 -64 -5 -70 -1 -5 4 -65
10 -132 12 -80 3 -127 8 -137 17 -17 14 -21 14 -286 -8 -242 -20 -286 -22
-262 -11 76 33 -75 38 -293 9 -100 -13 -151 -14 -302 -4 -87 6 -103 10 -103
24 0 21 74 42 140 40 25 -1 63 3 85 9 22 7 65 12 95 12 40 1 50 4 35 10 -18 8
-17 9 7 9 14 1 28 -3 30 -8 2 -4 60 -11 130 -13 103 -4 125 -2 121 9 -3 8 2
13 13 13 14 0 15 3 6 8 -7 5 -10 16 -6 27 6 15 3 17 -18 12 -21 -6 -30 0 -57
34 -18 22 -31 42 -30 43 2 2 38 -1 79 -6 41 -5 87 -10 103 -10 15 -1 27 -4 27
-7 0 -3 11 -7 25 -7 16 -1 24 3 22 10 -2 6 -13 11 -25 11 -11 0 -29 8 -40 18
-11 10 -26 15 -36 11 -13 -5 -17 -2 -14 12 2 15 -3 19 -27 19 -16 1 -38 4 -47
9 -10 4 -24 6 -32 3 -19 -8 -269 28 -294 42 -11 6 -23 18 -26 27 -9 24 -21 8
-21 -29 0 -30 -3 -32 -40 -37 -30 -4 -45 0 -57 13 -24 23 -23 25 15 29 24 2
33 8 35 25 3 22 1 22 -65 19 -75 -4 -113 -13 -113 -28 0 -6 7 -8 15 -4 8 3 15
0 15 -7 0 -7 -9 -13 -20 -14 -12 -1 -20 4 -20 14 0 9 -7 25 -17 35 -19 22 -29
21 193 19 117 -1 158 2 180 14 27 14 21 15 -102 15 -98 0 -134 3 -143 14 -12
14 28 18 294 31 93 5 116 4 102 -5 -10 -7 -48 -15 -85 -19 l-67 -7 97 -8 c54
-5 122 -5 153 -1 l55 6 0 -36 0 -37 102 4 c70 2 103 7 106 16 8 25 34 42 66
42 18 0 46 6 62 14 23 11 104 15 369 19 l340 4 49 28 c27 16 51 36 53 45 5 19
53 50 77 50 22 0 76 56 76 79 0 10 3 33 6 50 6 27 4 31 -16 31 -19 0 -20 3
-10 15 16 20 6 32 -27 31 -21 -1 -29 -7 -31 -23 -2 -15 -10 -23 -23 -23 -16 0
-19 7 -19 50 l0 50 70 0 c48 0 72 4 74 13 2 6 12 57 21 112 9 55 27 138 40
185 13 47 26 114 29 149 3 35 10 69 15 75 6 7 11 59 12 116 1 58 8 129 15 158
8 29 14 72 14 96 0 62 29 146 50 146 13 0 20 14 27 53 8 42 11 46 12 20 0 -18
6 -33 11 -33 17 0 30 47 33 114 l2 63 39 -13 c22 -8 45 -19 51 -24z m5058
-100 c15 -17 27 -37 27 -46 0 -9 6 -28 14 -42 8 -15 27 -56 42 -92 15 -36 29
-67 31 -70 8 -9 23 27 33 80 10 50 25 113 37 150 4 11 8 8 15 -10 21 -50 27
-66 51 -120 27 -61 44 -114 78 -240 34 -126 46 -145 92 -144 l37 1 -36 -4
c-28 -3 -35 -8 -31 -21 3 -9 19 -56 36 -104 l31 -88 -24 -66 c-13 -36 -27 -68
-31 -72 -4 -4 -75 -7 -157 -7 l-151 0 -11 -32 c-9 -27 -11 -14 -12 83 -1 63
-4 117 -7 121 -4 3 -18 1 -32 -5 -23 -11 -25 -10 -24 16 1 15 3 20 6 11 5 -21
50 -13 57 10 4 13 6 81 2 81 -1 0 -23 -7 -49 -15 -26 -8 -45 -10 -42 -5 3 5
30 17 60 25 29 9 56 22 59 30 6 17 -24 21 -39 6 -12 -12 -97 -32 -90 -21 3 4
31 18 62 30 32 13 65 30 73 38 13 12 11 13 -15 8 -27 -6 -30 -4 -32 20 0 15 2
22 5 17 10 -15 52 -26 52 -14 0 5 -8 15 -17 21 -17 11 -17 11 0 6 15 -5 17 3
15 82 l-2 87 -6 -70 c-4 -38 -7 -66 -8 -61 -1 5 -10 2 -20 -7 -17 -15 -18 -14
-20 10 -3 41 -30 60 -79 55 -41 -4 -42 -3 -47 30 -9 59 -26 281 -26 332 l0 49
33 -7 c17 -3 44 -20 60 -36z m4805 -12 c36 -11 37 -15 18 -41 -12 -15 -14 -16
-20 -2 -3 8 -11 14 -18 13 -7 -2 -12 3 -11 9 4 20 -43 26 -102 15 -48 -10
-131 -52 -145 -73 -3 -5 -24 -15 -45 -22 -27 -10 -41 -21 -46 -39 -6 -25 -6
-25 24 -14 16 6 34 21 39 32 15 32 50 44 128 44 l70 0 0 -34 c0 -19 4 -37 8
-40 14 -8 54 34 48 50 -3 8 -2 14 3 14 11 0 34 -117 26 -130 -7 -12 -235 -14
-235 -2 0 4 5 13 11 19 16 16 4 43 -20 43 -23 0 -31 -17 -24 -53 l5 -27 -183
0 c-264 0 -478 -12 -488 -29 -5 -8 -14 -10 -20 -7 -19 12 -12 44 10 51 19 6
20 12 14 61 -6 49 -5 54 13 54 14 0 19 -5 16 -17 -3 -10 1 -27 9 -37 14 -19
15 -19 32 7 13 21 15 30 6 41 -17 21 25 25 254 27 174 1 200 -1 197 -14 -2
-11 3 -14 20 -9 12 3 17 7 10 10 -28 9 -9 22 32 20 34 -1 53 5 78 24 27 21 86
44 178 71 18 5 61 -1 108 -15z m-6500 -26 c2 -7 -5 -16 -17 -19 -21 -5 -30
-23 -11 -23 40 0 73 -114 51 -173 -8 -20 -8 -33 1 -47 10 -15 8 -27 -10 -63
-12 -24 -22 -49 -22 -55 0 -6 -6 -13 -12 -15 -10 -4 -10 -6 0 -6 8 -1 16 7 19
17 2 10 13 23 24 30 23 15 23 14 4 -31 -8 -20 -15 -39 -15 -43 0 -3 7 -4 15 0
9 3 15 0 15 -10 0 -8 -14 -20 -31 -26 -21 -7 -27 -13 -18 -18 7 -5 18 -6 26
-3 7 3 13 -1 13 -10 0 -8 6 -18 13 -20 7 -3 4 -6 -6 -6 -11 -1 -31 -9 -45 -20
-36 -25 -68 -34 -92 -26 -37 12 -22 27 20 20 22 -4 40 -4 40 -1 0 3 -18 14
-40 23 -48 21 -51 33 -10 33 17 0 30 5 30 10 0 6 -9 10 -19 10 -10 0 -21 6
-24 14 -5 12 5 14 51 10 60 -4 58 -3 -44 21 -19 4 -22 12 -22 57 0 29 0 78 -1
108 -3 92 10 170 30 183 25 16 24 44 -2 52 -29 10 -18 29 22 36 46 9 62 7 67
-9z m-1209 -125 c0 -32 6 -67 11 -78 6 -10 11 -61 11 -111 0 -51 7 -124 16
-162 9 -39 17 -84 17 -101 1 -16 5 -35 9 -42 7 -12 5 -57 -8 -150 l-8 -53 -53
0 -53 0 -6 48 c-4 26 -11 58 -15 72 -13 33 3 153 22 177 6 7 9 73 8 155 -1 79
3 165 9 193 6 28 14 77 18 110 6 52 7 56 14 30 3 -16 7 -56 8 -88z m722 50
c14 -12 38 -41 54 -64 23 -35 27 -53 26 -99 0 -32 -5 -62 -10 -68 -6 -6 -9
-25 -9 -42 1 -40 -18 -74 -42 -74 -10 0 -22 -4 -25 -10 -3 -5 3 -10 15 -10 12
0 19 -4 15 -9 -3 -6 15 -13 40 -16 27 -5 45 -12 45 -21 0 -9 -10 -11 -33 -7
-19 3 -47 -2 -67 -11 l-35 -16 58 3 c50 3 56 2 44 -10 -11 -11 -32 -13 -103
-7 -74 7 -83 9 -51 14 48 9 56 17 24 25 -35 9 -43 43 -11 51 20 5 22 9 13 21
-8 9 -21 12 -38 8 l-26 -7 23 25 23 25 -23 17 -23 16 32 -4 c17 -3 37 -8 42
-12 16 -10 13 6 -5 26 -24 26 -8 44 22 24 31 -20 31 -5 0 24 -50 47 -61 105
-40 209 6 28 32 28 65 -1z m-1635 -292 c9 -93 18 -173 20 -176 2 -4 -5 -18
-16 -32 -11 -13 -31 -71 -46 -128 -29 -117 -41 -136 -67 -117 -16 12 -16 17
-3 61 15 50 7 61 -18 25 -13 -18 -16 -19 -21 -6 -11 28 10 210 31 276 8 23 14
60 14 82 0 21 4 49 9 62 6 13 25 75 43 138 l33 115 2 -65 c2 -36 10 -141 19
-235z m-4720 270 c17 -4 21 -13 24 -62 2 -32 3 -71 3 -88 -2 -32 -37 -120 -53
-130 -6 -3 -10 -17 -10 -31 0 -56 -13 -64 -109 -64 l-88 0 9 53 c5 28 7 102 6
164 -2 96 0 114 16 131 32 36 108 46 202 27z m334 -42 c-1 -57 -21 -165 -36
-196 -9 -18 -28 -45 -41 -61 -15 -18 -21 -35 -17 -45 4 -9 6 -29 5 -45 -1 -15
4 -35 10 -42 24 -29 -1 -12 -45 31 -38 36 -46 51 -46 80 0 20 5 45 11 56 6 13
7 25 1 32 -22 28 -21 75 0 104 76 100 158 145 158 86z m13247 -85 c21 -18 39
-33 41 -34 1 0 4 -23 5 -51 3 -41 11 -59 48 -106 24 -31 55 -60 69 -66 24 -9
23 -9 -11 -10 -32 -1 -39 3 -53 32 -8 19 -26 44 -39 58 -13 13 -31 38 -40 54
l-16 30 -1 -32 c0 -18 -4 -33 -9 -33 -12 0 -25 56 -16 69 3 6 -15 11 -45 13
-65 4 -65 22 0 26 37 2 50 7 50 19 0 13 -3 13 -15 3 -19 -15 -23 -12 -35 29
-7 27 -6 31 10 31 11 0 36 -14 57 -32z m-11607 -500 c0 -6 7 -5 15 2 9 7 18
11 20 8 6 -6 -14 -288 -21 -300 -11 -17 -14 -198 -4 -198 5 0 10 -9 10 -20 0
-11 -7 -20 -15 -20 -8 0 -15 6 -15 14 0 21 -20 30 -33 17 -8 -8 -6 -11 7 -11
11 0 16 -5 13 -13 -3 -8 -2 -20 3 -27 11 -17 -19 -50 -47 -50 -12 0 -27 8 -32
18 -6 9 -11 11 -11 5 0 -7 -7 -13 -15 -13 -18 0 -19 9 -2 31 7 9 18 14 26 11
9 -3 11 1 7 16 -5 13 -1 24 9 29 18 10 31 63 15 63 -5 0 -10 -3 -10 -7 0 -5
-5 -15 -10 -23 -8 -13 -66 -15 -408 -17 -232 -1 -404 2 -413 8 -23 15 8 29 68
29 28 0 55 5 58 10 9 14 25 12 25 -2 0 -10 50 -13 220 -12 121 1 236 5 256 9
31 5 36 4 31 -9 -6 -14 -4 -14 18 0 25 16 33 34 16 34 -10 0 -105 120 -99 126
3 2 29 -24 59 -58 66 -77 89 -97 111 -98 24 0 27 9 34 87 4 37 12 83 20 101 8
19 9 30 3 26 -8 -4 -9 18 -4 72 9 117 12 124 40 124 14 0 25 6 25 13 0 9 -96
12 -447 11 -623 -2 -1133 6 -1133 17 0 6 312 9 805 8 535 -1 805 -5 805 -11z
m-382 -974 c33 -5 73 -40 98 -86 14 -26 13 -27 -14 -24 -15 2 -79 5 -142 6
-84 2 -102 5 -65 9 45 5 50 9 53 32 3 25 0 27 -52 33 -45 6 -56 11 -56 25 0
16 8 18 73 14 39 -2 87 -6 105 -9z m6882 -33 c0 -23 -22 -40 -28 -23 -5 16
-39 -17 -44 -43 -3 -16 -12 -20 -41 -21 -81 -1 -39 -25 49 -28 24 0 44 -4 44
-8 0 -9 -81 -13 -197 -10 l-102 3 33 30 c27 23 43 29 80 29 47 0 55 7 34 28
-9 9 -7 12 8 12 12 0 24 3 28 8 6 6 103 37 129 41 4 0 7 -8 7 -18z m-522 -410
c2 -6 13 -11 23 -11 11 0 17 5 14 10 -3 6 1 10 10 10 10 0 15 -7 13 -17 -2
-13 -16 -20 -53 -24 l-50 -6 50 -3 c28 -2 -74 -6 -225 -10 -150 -3 -308 -3
-350 1 l-75 6 75 2 c41 2 84 5 95 7 11 3 38 7 61 9 22 3 62 9 89 14 27 5 53 7
57 5 5 -3 8 -1 8 5 0 21 251 24 258 2z m-2618 -392 c0 -5 4 -7 10 -4 5 3 2 -8
-8 -24 l-17 -31 -122 0 c-109 0 -122 -2 -116 -16 6 -15 -2 -16 -73 -12 -43 3
-70 2 -59 -3 11 -4 17 -8 13 -8 -3 -1 -13 -4 -22 -7 -11 -4 -16 0 -16 11 0 17
-1 17 -19 1 -16 -15 -29 -15 -110 -6 -50 6 -103 7 -116 4 -15 -4 -25 -2 -25 4
0 7 31 13 78 15 l77 3 -85 2 c-128 3 -137 26 -15 38 17 1 46 5 65 8 26 5 30 4
15 -3 -17 -8 -14 -10 18 -10 20 -1 37 -5 37 -10 0 -6 36 -9 83 -8 45 0 70 3
55 5 -16 2 -28 7 -28 11 0 5 12 6 28 4 21 -4 24 -2 12 6 -12 9 -4 11 32 9 26
-1 51 1 54 5 4 4 -1 7 -12 7 -10 0 -26 5 -34 10 -10 6 37 10 143 10 104 0 157
-4 157 -11z"/>
<path d="M9210 6198 c-67 -34 -94 -89 -91 -186 1 -71 11 -102 32 -102 5 0 9 4
9 9 0 5 4 21 9 34 9 23 12 24 51 13 40 -10 43 -9 70 21 l28 31 21 -29 c22 -30
49 -37 68 -18 23 23 32 -2 28 -76 -3 -62 -1 -75 11 -75 11 0 13 6 9 20 -3 11
-2 20 3 20 15 0 24 31 13 44 -5 6 -12 54 -16 106 -7 105 -24 154 -64 187 -36
31 -120 31 -181 1z m134 -93 c3 -8 16 -15 29 -15 27 0 47 -17 47 -39 0 -13
-17 -16 -102 -16 -57 0 -110 -2 -118 -5 -24 -8 -13 42 16 68 31 27 118 32 128
7z"/>
<path d="M10210 6065 c-25 -19 -50 -35 -55 -35 -20 0 -45 -41 -45 -73 0 -17
-9 -97 -19 -176 -11 -80 -16 -153 -11 -165 5 -14 9 9 12 64 5 94 16 128 29 92
5 -12 13 -22 19 -22 10 0 14 23 10 71 -1 19 9 36 32 58 18 17 28 31 21 31 -7
0 -11 12 -10 29 1 16 5 27 10 24 4 -2 7 0 7 5 0 20 153 44 178 28 7 -4 25 -32
39 -63 14 -30 30 -50 34 -46 5 5 5 35 1 68 -6 48 -11 62 -30 71 -12 6 -33 20
-45 31 -60 55 -113 57 -177 8z"/>
<path d="M9401 5746 c-10 -12 -17 -14 -25 -6 -14 14 -113 13 -122 -2 -9 -14
40 -58 66 -58 11 0 25 9 32 20 18 28 27 25 25 -7 -2 -31 -33 -73 -54 -73 -17
0 -17 -27 0 -33 9 -4 8 -8 -3 -16 -29 -21 33 -12 83 11 56 27 64 46 40 90 -10
18 -20 46 -23 62 -5 27 -6 28 -19 12z"/>
<path d="M6598 2331 c-54 -8 -61 -12 -52 -34 5 -15 24 -16 148 -13 77 2 187 4
244 5 68 1 102 5 102 12 0 8 -11 9 -32 5 -42 -8 -311 5 -301 15 4 4 37 10 73
12 44 2 33 3 -35 4 -55 0 -121 -3 -147 -6z"/>
<path d="M3690 2101 c0 -32 -15 -50 -23 -29 -3 8 -6 6 -6 -4 -1 -18 -21 -26
-21 -8 0 19 -28 -2 -34 -26 -8 -32 -34 -31 -42 2 -6 23 -8 24 -21 11 -9 -8
-12 -23 -9 -34 5 -15 15 -18 56 -17 28 0 53 4 57 7 10 10 25 8 19 -2 -4 -5 0
-11 6 -14 8 -3 2 -9 -14 -15 -35 -15 -50 -38 -17 -28 13 3 37 9 52 13 26 5 27
7 11 24 -17 18 -13 19 112 19 71 0 136 5 144 10 12 8 10 10 -9 10 -13 0 -21 3
-17 8 4 4 24 7 43 7 20 0 38 6 40 13 3 6 -2 12 -10 12 -9 0 -17 7 -19 16 -2
12 -19 16 -70 19 -38 2 -68 -1 -68 -6 0 -12 -57 -12 -65 1 -3 6 -19 10 -36 10
-19 0 -29 5 -29 15 0 8 -7 15 -15 15 -10 0 -15 -10 -15 -29z"/>
</g>
</svg>
