<?xml version="1.0" standalone="no"?>
<!DOCTYPE svg PUBLIC "-//W3C//DTD SVG 20010904//EN"
 "http://www.w3.org/TR/2001/REC-SVG-20010904/DTD/svg10.dtd">
<svg version="1.0" xmlns="http://www.w3.org/2000/svg"
 width="1500.000000pt" height="998.000000pt" viewBox="0 0 1500.000000 998.000000"
 preserveAspectRatio="xMidYMid meet">
<metadata>
Created by potrace 1.16, written by Peter Selinger 2001-2019
</metadata>
<g transform="translate(0.000000,998.000000) scale(0.100000,-0.100000)"
fill="#000000" stroke="none">
<path d="M0 7333 l0 -2647 27 -28 c15 -15 21 -28 15 -28 -7 0 -15 7 -18 15
-19 49 -24 -18 -24 -324 l0 -340 23 -4 22 -4 -22 -2 -23 -1 0 -379 0 -380 28
-3 c23 -3 27 -7 25 -33 -1 -16 -2 -58 -3 -93 -1 -54 -5 -68 -25 -88 -23 -23
-25 -33 -25 -116 0 -75 3 -93 17 -104 17 -13 17 -15 1 -28 -16 -12 -18 -34
-18 -205 0 -170 2 -191 16 -191 15 0 16 -15 11 -144 -4 -118 -3 -147 9 -157
11 -9 14 -8 14 3 0 8 9 25 20 38 15 17 20 19 20 8 0 -9 -7 -18 -15 -22 -20 -7
-19 -36 3 -53 15 -13 15 -13 -5 -4 -12 6 -24 11 -27 11 -6 0 -22 -85 -30 -155
-7 -58 17 -153 29 -122 6 14 10 16 16 6 4 -7 3 -21 -2 -31 -10 -19 -45 -25
-51 -8 -1 5 -4 -35 -4 -89 l-2 -99 38 -37 c21 -21 43 -34 49 -31 6 4 11 37 11
77 0 48 4 69 13 69 38 1 78 72 54 96 -12 13 -8 24 10 24 14 0 15 -11 9 -101
-3 -55 -11 -109 -16 -120 -6 -10 -11 -54 -12 -97 0 -42 -3 -81 -7 -87 -3 -5
-11 -30 -18 -55 -9 -37 -9 -58 4 -113 8 -38 13 -78 10 -89 -3 -11 3 -39 15
-62 19 -39 19 -45 5 -86 -19 -58 -35 -62 -33 -9 0 26 -5 45 -15 52 -8 7 -18
20 -22 30 -6 17 -27 24 -27 10 0 -5 11 -28 25 -52 14 -23 25 -46 25 -50 -1
-11 -31 33 -56 81 -19 38 -21 46 -8 41 12 -4 15 -2 12 8 -3 8 -13 14 -23 14
-10 0 -23 8 -29 18 -9 14 -7 21 7 32 18 13 7 32 -13 20 -5 -3 -9 -200 -9 -508
l-1 -502 42 93 41 93 41 -2 c52 -3 58 -6 46 -27 -22 -41 -43 -133 -32 -144 7
-7 12 6 17 46 4 31 15 65 24 76 19 22 79 41 66 20 -5 -9 -2 -10 12 -6 12 4 27
-1 41 -14 17 -17 33 -20 84 -18 l63 3 -2 -55 -1 -55 18 50 c10 28 19 64 19 80
2 39 21 72 21 35 1 -68 -24 -186 -42 -202 -11 -10 -14 -19 -8 -23 5 -3 10 -17
10 -31 0 -21 5 -24 34 -24 44 0 66 9 66 26 0 7 12 20 27 29 36 19 65 45 81 74
17 28 5 43 -13 17 -28 -38 -86 -96 -97 -96 -6 0 -8 10 -4 28 4 15 10 45 14 67
7 39 8 40 50 43 47 4 52 14 27 62 -9 17 -12 30 -7 30 17 0 42 -37 42 -63 0
-15 4 -27 8 -27 4 0 9 -24 10 -54 2 -38 -2 -57 -13 -66 -8 -7 -15 -18 -15 -26
0 -10 10 -8 36 8 19 11 56 25 81 29 54 10 63 17 43 30 -12 8 -6 18 33 54 39
36 56 45 84 45 27 0 34 -3 29 -15 -3 -8 -1 -15 4 -15 6 0 10 9 10 19 0 28 38
51 82 51 35 0 38 2 39 28 l1 27 10 -29 c8 -21 8 -34 -1 -48 -14 -22 0 -48 25
-48 8 0 14 -9 14 -20 0 -21 -24 -27 -36 -9 -5 8 -9 7 -15 -4 -5 -9 -30 -18
-59 -22 -41 -6 -51 -11 -56 -30 -7 -28 -27 -34 -71 -21 -23 6 -50 5 -90 -4
-60 -14 -73 -23 -73 -53 0 -16 22 -17 380 -17 378 1 381 1 358 21 l-23 19 28
-10 c16 -5 38 -15 49 -21 16 -8 23 -8 30 2 7 11 11 11 15 2 2 -7 17 -13 33
-13 23 0 27 4 23 20 -5 20 17 50 36 50 16 0 13 -22 -5 -48 -14 -20 -14 -22 5
-22 17 0 33 32 35 75 1 5 22 15 48 23 36 10 48 18 48 33 0 33 14 20 44 -41 17
-33 37 -61 45 -63 9 -3 0 -5 -19 -6 -19 -1 -42 -6 -50 -11 -10 -7 25 -10 112
-9 l126 2 -24 46 c-14 25 -37 62 -52 81 -15 19 -32 46 -38 60 -6 14 -23 51
-37 82 -27 59 -25 69 9 43 14 -11 15 -14 4 -15 -9 0 -11 -3 -5 -8 6 -4 16 -19
22 -33 6 -14 17 -26 25 -27 7 -1 40 -4 73 -6 33 -3 83 -8 110 -11 28 -3 57 -1
65 5 8 5 11 10 6 10 -6 0 -2 6 8 13 14 10 51 12 152 9 96 -3 134 -1 134 7 0 6
-6 11 -12 11 -7 0 -5 5 5 11 10 6 25 8 34 5 8 -4 22 -1 30 5 7 7 17 9 21 5 4
-4 -1 -12 -10 -17 -73 -41 -118 -116 -118 -198 0 -70 31 -104 57 -63 13 22
142 109 151 102 11 -7 32 -72 32 -97 0 -22 4 -23 84 -23 47 0 97 5 112 10 15
6 30 7 33 2 3 -5 51 -9 106 -10 64 0 93 2 80 8 -11 5 -44 9 -72 9 -29 1 -53 6
-53 11 0 6 8 10 18 10 9 0 50 18 90 40 40 22 75 40 76 40 2 0 9 -13 16 -29 17
-42 10 -74 -20 -82 -21 -6 -20 -7 13 -8 l37 -1 0 43 c0 23 -7 55 -15 71 -8 15
-15 30 -15 32 0 12 57 23 127 25 77 2 79 2 156 -46 43 -27 96 -66 118 -86 51
-48 51 -25 0 25 -41 40 -60 53 -128 86 -48 23 -63 40 -36 40 10 0 36 7 58 14
22 8 45 11 50 6 13 -10 125 0 125 11 0 13 33 -2 51 -23 19 -21 69 -24 69 -4 0
9 25 19 71 30 82 18 123 21 114 6 -7 -11 15 -13 39 -4 23 9 19 34 -5 34 -18 0
-19 -2 -9 -15 19 -23 1 -18 -32 10 -16 14 -37 25 -45 25 -9 0 -14 3 -10 6 3 4
42 1 86 -7 67 -10 85 -10 105 1 19 10 57 11 162 6 76 -4 141 -9 145 -12 5 -2
6 -11 2 -19 -8 -24 15 -17 28 7 12 22 12 22 20 2 14 -40 22 -154 10 -154 -6 0
-14 7 -17 14 -3 8 -30 20 -59 26 -50 10 -57 9 -83 -10 -17 -13 -35 -39 -42
-63 -8 -23 -21 -50 -29 -61 -15 -18 -14 -18 14 -14 17 3 55 15 86 27 31 11 74
23 95 26 36 6 40 4 52 -24 l14 -31 1478 0 c1173 0 1479 3 1482 13 9 24 -8 62
-26 59 -15 -3 -17 2 -11 30 4 18 13 50 20 70 11 34 12 150 0 203 -2 11 0 36 4
55 7 32 8 28 13 -33 3 -37 7 -69 9 -71 10 -9 90 -15 85 -7 -3 5 2 12 11 15 9
4 19 2 23 -3 4 -7 21 -6 48 2 24 7 41 15 38 17 -2 3 23 6 55 7 32 1 59 -2 59
-7 0 -6 -9 -10 -21 -10 -11 0 -18 -4 -15 -9 7 -11 202 -15 219 -4 6 4 41 8 77
9 109 3 213 14 244 26 24 10 31 9 42 -7 7 -10 15 -22 17 -28 2 -6 10 -6 24 1
12 7 81 13 157 14 87 2 135 6 133 13 -2 5 -20 11 -40 13 -20 2 -37 6 -37 10 0
4 51 4 113 -1 211 -15 279 -13 316 6 38 19 52 15 33 -11 -7 -9 -16 -27 -22
-40 -10 -24 -6 -24 -121 4 -31 8 -76 14 -100 14 -89 0 -289 -80 -289 -115 0
-23 -39 -18 -92 10 -57 30 -58 30 -58 5 0 -12 10 -25 25 -32 30 -14 32 -24 5
-33 -11 -4 -27 -17 -36 -30 -8 -13 -28 -29 -45 -35 -40 -17 -34 -42 11 -47 92
-10 501 -17 630 -11 80 4 204 10 275 13 106 6 137 4 165 -9 l35 -15 -29 -1
c-15 0 -56 -7 -90 -16 -33 -9 -86 -20 -116 -24 -30 -4 211 -8 537 -9 385 -1
594 2 598 9 8 13 45 13 45 0 0 -5 5 -10 11 -10 5 0 8 4 5 9 -7 10 22 36 50 45
11 3 31 26 43 51 12 25 24 45 25 45 2 0 29 -11 59 -25 31 -14 79 -28 109 -31
89 -9 118 -14 118 -24 0 -6 -64 -7 -161 -3 -160 6 -161 6 -149 -14 12 -18 27
-21 174 -26 101 -4 162 -10 164 -17 4 -12 3912 -14 3912 -1 0 4 -3 11 -7 15
-5 4 -8 18 -8 29 0 18 -7 23 -40 27 l-40 5 -22 195 c-12 107 -21 195 -20 196
1 0 47 -2 102 -5 57 -4 103 -3 106 2 4 5 36 8 73 5 36 -2 66 0 66 4 0 4 -4 8
-10 8 -23 0 -8 19 20 25 34 7 42 40 13 48 -17 4 -17 5 0 6 16 1 17 39 17 651
l0 650 -169 0 -168 0 5 26 c5 26 5 26 -26 10 -16 -8 -33 -21 -35 -28 -4 -10
-8 -10 -15 1 -8 12 -13 12 -25 2 -23 -19 -151 -11 -155 10 -3 14 9 16 78 17
65 0 84 3 94 17 10 14 21 16 64 10 34 -4 52 -12 52 -20 0 -11 29 -15 128 -17
70 -2 137 -2 150 0 l22 3 0 580 c0 618 2 585 -41 581 -13 -2 -97 -2 -129 -1
-19 0 -37 0 -40 -1 -17 -8 -147 -4 -143 4 4 6 -1 6 -13 1 -28 -12 -84 -13 -77
-2 4 6 0 8 -10 4 -38 -14 -90 -20 -83 -8 4 6 1 11 -9 11 -8 0 -18 -7 -22 -16
-6 -15 -8 -15 -20 2 -7 10 -13 12 -13 6 0 -7 -8 -12 -17 -12 -15 0 -16 2 -3
10 8 5 10 10 5 10 -6 0 -16 -5 -22 -11 -7 -7 -19 -8 -30 -3 -26 11 -46 12 -60
1 -14 -10 -17 1 -5 20 9 14 52 13 52 0 0 -5 6 -5 13 0 12 10 315 23 550 23
l117 0 0 1150 c0 888 -3 1150 -12 1150 -9 0 -9 3 0 12 9 9 12 532 12 2290 l0
2278 -6396 0 -6395 0 6 -43 c3 -23 7 -62 9 -87 2 -25 7 -77 11 -117 7 -70 7
-72 -16 -77 -67 -14 -816 -25 -836 -13 -6 4 -14 26 -18 50 -4 23 -9 51 -11 62
-2 11 -9 66 -16 123 l-12 102 -663 0 -663 0 0 -2647z m6740 2586 c270 -11 313
-13 438 -17 47 -2 62 -5 62 -17 0 -8 -3 -15 -7 -15 -5 0 -6 -29 -5 -65 3 -42
0 -65 -7 -65 -7 0 -11 25 -11 64 0 44 -4 65 -13 69 -8 3 -81 8 -163 12 -613
26 -863 41 -873 51 -3 4 64 4 149 0 85 -3 279 -11 430 -17z m825 -34 c72 -3
303 -12 515 -21 212 -8 491 -19 620 -25 129 -6 256 -12 282 -13 26 -1 51 -6
55 -10 11 -11 -351 0 -1177 34 -124 5 -297 12 -385 15 -177 7 -205 10 -205 26
0 8 26 9 83 5 45 -3 141 -8 212 -11z m2695 -105 c157 -6 348 -13 425 -16 77
-4 159 -7 182 -8 23 0 45 -5 50 -9 7 -8 -207 -4 -432 8 -49 2 -166 8 -260 11
-93 4 -186 8 -205 9 -19 2 -64 3 -100 4 -39 1 -60 5 -52 10 7 4 34 6 60 5 26
-2 175 -8 332 -14z m-4635 -76 c221 -4 442 -17 450 -26 1 -2 -1 -34 -6 -73 -4
-38 -5 -105 -2 -147 3 -42 3 -92 -1 -110 l-6 -34 -133 4 c-72 2 -250 9 -395
16 l-263 11 -4 163 c-2 92 0 175 6 189 9 24 13 25 57 19 26 -4 160 -9 297 -12z
m3575 -179 c140 -8 278 -17 305 -20 28 -2 56 -5 64 -5 10 0 12 -9 7 -37 -4
-21 -14 -78 -22 -128 -8 -49 -20 -114 -26 -142 l-11 -53 -51 0 c-68 0 -389 19
-628 36 -101 7 -103 9 -87 99 6 33 14 93 19 134 5 40 14 89 21 108 l11 35 72
-6 c39 -3 186 -13 326 -21z m3664 -135 c-2 -87 -15 -189 -25 -196 -5 -3 -9
-20 -9 -38 0 -19 -6 -39 -14 -45 -22 -18 -575 -39 -724 -28 -29 2 -58 9 -64
15 -8 8 -7 35 1 94 23 162 33 207 50 222 13 12 75 17 321 26 168 6 319 12 335
14 17 2 53 3 80 2 l50 -1 -1 -65z m-6014 -284 c9 -12 17 -13 36 -4 17 8 31 8
47 1 15 -7 27 -7 39 0 20 13 48 -6 48 -33 0 -10 7 -23 15 -30 8 -7 15 -19 15
-28 0 -8 7 -23 16 -33 24 -27 11 -51 -22 -43 -23 6 -26 4 -21 -10 4 -9 10 -23
13 -31 4 -9 -2 -16 -18 -20 -15 -4 -24 -14 -25 -27 -3 -33 -53 -55 -53 -23 0
8 -6 12 -14 9 -8 -3 -16 2 -19 13 -4 15 -5 15 -6 -3 -1 -28 -26 -38 -45 -19
-11 11 -16 12 -19 2 -3 -6 -6 -1 -7 13 -1 25 -1 25 -10 3 -16 -40 -44 -28 -69
30 -13 28 -22 53 -20 55 2 2 -4 8 -13 13 -26 14 -22 44 7 63 14 9 25 23 25 31
0 9 11 20 25 25 15 6 25 17 25 29 0 17 11 28 31 30 4 1 12 -5 19 -13z m591
-17 c15 -7 24 -7 34 1 10 9 19 9 35 0 12 -6 34 -9 49 -5 35 8 43 -1 100 -109
l24 -45 -46 -44 c-26 -24 -47 -49 -47 -56 0 -19 -45 -35 -66 -23 -12 7 -25 7
-40 0 -14 -7 -28 -7 -40 0 -11 5 -33 7 -50 5 -27 -4 -34 0 -55 34 -13 21 -27
46 -31 56 -4 9 -12 17 -18 17 -5 0 -10 10 -10 23 1 20 118 157 135 157 3 0 15
-5 26 -11z m-5356 -320 c5 -5 21 -9 37 -9 19 0 33 -8 45 -27 9 -16 22 -32 28
-38 6 -5 25 -31 43 -56 28 -42 31 -51 25 -99 -4 -39 -3 -51 5 -46 20 12 14
-20 -12 -68 -14 -26 -22 -46 -18 -46 3 0 -5 -11 -18 -25 -13 -14 -31 -25 -41
-25 -23 0 -70 -25 -62 -33 10 -11 -53 -8 -83 3 -15 6 -30 7 -33 2 -18 -27 -41
-18 -83 31 -23 28 -43 56 -43 61 0 5 -8 12 -18 15 -10 4 -18 11 -18 16 1 16
-21 78 -36 102 -11 16 -13 44 -10 113 3 51 8 95 12 98 11 11 22 -18 17 -45 -7
-38 16 -20 26 20 5 18 12 32 18 33 5 0 27 6 49 12 22 6 55 12 73 14 19 1 36 6
39 11 5 9 43 0 58 -14z m9791 -95 c-6 -22 -5 -24 13 -15 24 13 42 14 22 2 -12
-8 -9 -11 11 -16 15 -4 31 -4 36 -1 6 3 12 -1 15 -8 3 -8 1 -17 -6 -20 -7 -4
1 -4 17 -2 35 5 56 -2 56 -18 0 -6 9 -19 20 -29 11 -9 20 -23 20 -30 0 -8 9
-22 20 -32 15 -13 20 -31 20 -66 0 -55 19 -140 35 -152 7 -6 6 -10 -3 -14 -6
-2 -10 -9 -6 -14 3 -5 0 -9 -6 -9 -7 0 -5 -7 4 -16 9 -8 16 -23 16 -31 0 -9 7
-24 16 -34 13 -15 14 -21 3 -41 -13 -22 -14 -27 -17 -57 -2 -9 -11 -12 -29 -8
-15 3 -35 1 -44 -4 -22 -11 -39 -61 -39 -114 0 -30 -6 -47 -23 -63 -22 -20
-34 -22 -69 -9 -40 15 -47 15 -58 1 -11 -12 -6 -14 26 -15 22 -1 30 -3 19 -6
-11 -3 -23 -10 -26 -15 -10 -15 -57 2 -62 23 -3 13 -14 19 -31 19 -14 0 -26
-4 -26 -8 0 -8 -73 -6 -157 4 -28 3 -43 10 -43 20 0 8 -8 14 -18 14 -9 0 -23
9 -30 20 -7 11 -18 20 -25 20 -16 1 -57 36 -57 49 0 15 -31 64 -47 74 -7 4
-13 16 -13 27 0 10 -7 26 -16 35 -15 14 -16 34 -10 152 7 145 16 178 46 170
11 -3 24 1 31 9 6 8 17 14 23 14 15 0 76 68 76 84 0 7 9 21 20 31 11 10 20 24
20 32 0 8 4 12 9 9 5 -4 11 -2 13 4 1 5 28 12 58 15 30 3 60 11 65 18 13 16
59 15 79 -2 11 -9 16 -10 16 -2 0 6 7 11 15 11 8 0 15 5 15 10 0 6 3 10 6 10
3 0 3 -11 0 -26z m-10936 -10 c13 -15 15 -14 21 3 7 16 8 15 8 -4 1 -13 6 -23
13 -23 6 0 27 -10 45 -22 29 -21 33 -28 33 -70 0 -47 15 -73 23 -41 3 10 5 4
6 -14 0 -17 -4 -35 -10 -39 -6 -3 -9 -14 -6 -24 4 -16 -9 -29 -33 -34 -3 -1
-11 -5 -18 -10 -7 -4 -20 -5 -28 -2 -8 3 -12 2 -9 -4 3 -5 -10 -12 -30 -16
-19 -3 -35 -10 -35 -15 0 -5 -7 -9 -15 -9 -8 0 -15 6 -15 14 0 9 -10 13 -30
12 -16 -1 -31 3 -34 10 -3 7 -17 18 -33 26 -16 7 -29 23 -31 36 -2 12 -7 22
-12 22 -13 0 -23 58 -16 95 4 21 23 51 49 78 38 39 48 43 93 46 37 1 55 -3 64
-15z m1995 -119 c105 -3 282 -10 395 -15 113 -5 336 -14 495 -20 279 -10 415
-15 1550 -60 281 -11 546 -22 590 -24 l80 -3 -3 -31 c-2 -18 1 -32 7 -32 13 0
24 37 15 52 -5 8 66 9 297 4 167 -4 320 -9 339 -11 19 -2 98 -4 175 -5 77 -2
205 -6 285 -11 165 -9 654 -27 900 -34 91 -3 261 -9 378 -15 117 -5 326 -13
464 -16 137 -3 255 -7 262 -9 6 -2 225 -11 486 -20 261 -8 671 -22 910 -30
239 -8 503 -15 587 -15 83 0 154 -3 156 -7 5 -8 9 -609 23 -2999 l7 -1091 -24
-6 c-13 -4 -41 -7 -61 -7 -51 0 -56 -17 -9 -30 22 -6 43 -10 48 -9 27 5 43 -3
43 -21 0 -24 22 -26 55 -4 31 20 55 5 56 -35 1 -26 1 -26 10 4 8 27 5 33 -30
66 -22 20 -45 39 -53 42 -7 3 13 5 45 5 102 -2 157 -67 157 -187 0 -45 -6 -70
-27 -107 -32 -59 -89 -125 -99 -116 -4 4 -4 2 -1 -5 10 -16 -2 -43 -19 -43 -8
0 -14 -4 -14 -10 0 -14 -18 -12 -62 7 -27 12 -40 25 -44 43 -3 14 -13 42 -21
63 -14 32 -14 44 -3 85 13 48 17 128 7 138 -3 3 -22 1 -42 -6 -30 -10 -36 -16
-32 -34 16 -68 18 -86 9 -86 -5 0 -14 21 -18 47 -7 36 -14 49 -29 51 -11 2
-23 7 -27 11 -12 11 -29 229 -30 379 0 78 -4 144 -8 147 -11 7 -11 103 1 110
5 4 5 13 1 23 -5 9 -8 59 -6 110 1 50 -2 92 -6 92 -5 0 -11 8 -14 17 -3 10 -2
-40 1 -112 3 -71 3 -128 0 -125 -13 14 -27 203 -17 247 6 25 7 49 3 52 -4 3
-9 26 -10 51 -1 25 -4 60 -8 78 -6 27 -5 31 9 26 12 -5 16 0 16 19 0 14 -7 28
-15 31 -23 9 -56 -15 -49 -36 3 -12 0 -18 -10 -18 -12 0 -16 -10 -16 -34 0
-19 -5 -47 -11 -63 -8 -21 -7 -30 4 -38 10 -7 13 -21 10 -39 -3 -15 -1 -31 5
-35 11 -7 33 -146 33 -208 -1 -21 4 -78 9 -128 9 -91 26 -288 37 -447 4 -60 2
-92 -6 -102 -6 -7 -9 -21 -5 -30 4 -11 1 -16 -10 -16 -9 0 -16 -1 -16 -2 0 -2
6 -40 14 -86 l13 -83 -23 -9 c-13 -5 -24 -16 -24 -25 0 -8 -9 -15 -20 -15 -13
0 -20 7 -20 19 0 19 -1 19 -57 2 -73 -22 -119 -46 -161 -82 -35 -31 -75 -40
-66 -14 3 8 14 17 24 20 10 3 34 16 52 29 19 12 72 35 119 49 97 31 159 57
159 67 0 3 -7 30 -16 59 -14 48 -17 52 -42 49 -23 -3 -27 -8 -26 -33 1 -16 5
-45 9 -62 5 -21 4 -33 -3 -33 -5 0 -13 19 -16 43 -10 62 -19 73 -49 60 -25
-12 -25 -12 -11 -59 16 -55 17 -64 5 -64 -5 0 -15 25 -21 55 -10 48 -14 55
-36 55 -27 0 -30 -17 -13 -89 5 -24 7 -46 5 -49 -7 -7 -25 41 -32 87 -5 32 -2
43 16 61 18 18 20 24 9 31 -8 5 -19 9 -25 9 -6 0 -23 9 -38 21 l-26 21 -15
-36 c-8 -19 -15 -39 -15 -42 0 -4 -7 -15 -15 -24 -14 -15 -14 -24 -1 -76 7
-32 17 -67 21 -76 6 -15 2 -18 -23 -18 -17 0 -34 -5 -38 -11 -10 -17 -24 11
-22 46 0 23 2 25 5 7 3 -16 11 -22 30 -22 24 0 25 2 18 38 -8 41 -28 83 -23
47 2 -12 -3 -20 -12 -20 -8 0 -19 -4 -23 -10 -5 -6 -7 -1 -4 11 3 17 0 20 -24
16 -25 -4 -27 -7 -22 -41 3 -20 10 -44 14 -53 12 -22 11 -48 0 -48 -4 0 -14
27 -20 61 -10 48 -16 60 -29 57 -19 -4 -19 -43 0 -91 8 -21 8 -31 -1 -40 -8
-8 -11 -7 -12 3 0 8 -2 22 -5 30 -2 8 -7 31 -12 50 -4 20 -14 35 -22 35 -23 0
-23 -33 0 -45 16 -9 19 -14 10 -25 -15 -18 2 -81 21 -76 8 2 19 4 25 5 6 0 34
-29 62 -66 28 -38 47 -68 42 -68 -17 0 -66 49 -85 84 -22 41 -37 44 -65 16
-22 -22 -19 -35 23 -92 28 -38 18 -42 -31 -16 -29 16 -40 28 -36 38 4 8 9 25
11 37 5 22 5 23 -41 7 -76 -26 -74 -10 3 20 51 20 69 31 62 40 -14 18 -32 94
-36 155 -4 74 23 131 63 131 20 0 23 3 13 9 -12 8 -12 12 2 26 10 9 17 23 17
31 0 8 10 14 25 14 15 0 25 -6 25 -14 0 -8 7 -16 15 -20 22 -8 19 26 -5 68
-14 22 -17 37 -11 41 7 4 5 14 -5 30 -14 22 -14 27 6 72 12 26 40 104 62 173
22 69 44 126 47 128 4 1 5 16 3 32 -3 24 -1 30 13 30 17 0 17 1 2 18 -10 10
-17 26 -17 35 0 10 -27 43 -60 73 l-60 57 25 28 c29 36 42 72 26 77 -6 2 -11
11 -11 20 0 10 -9 23 -20 30 -12 7 -20 8 -20 2 0 -5 -4 -10 -10 -10 -5 0 -9
10 -7 22 2 18 -3 22 -28 22 -29 1 -30 3 -30 48 0 25 -3 49 -7 53 -3 4 -19 -7
-34 -24 -30 -34 -49 -38 -80 -17 -29 21 -56 -2 -53 -46 1 -18 1 -53 -1 -78 -1
-34 -4 -39 -9 -21 -5 20 -8 17 -19 -24 -10 -39 -16 -46 -32 -42 -18 5 -18 3
-7 -26 16 -39 44 -58 56 -38 7 11 11 10 20 -7 28 -53 4 -66 -58 -31 -57 32
-85 79 -78 134 2 25 13 55 22 65 18 20 17 20 -18 20 -19 0 -42 -6 -50 -14 -7
-8 -31 -15 -53 -15 -59 -1 -174 0 -224 2 -42 2 -45 0 -48 -25 -3 -23 1 -28 17
-28 12 0 21 -4 21 -10 0 -5 19 -10 43 -11 36 -1 38 -2 17 -9 -25 -8 -25 -8 4
-9 16 -1 38 -8 48 -17 15 -14 20 -15 33 -4 12 10 19 10 27 2 7 -7 20 -12 29
-12 12 0 19 -12 24 -41 6 -36 8 -38 20 -22 7 10 11 21 9 25 -3 5 2 8 10 8 9 0
16 -4 16 -10 0 -5 6 -10 14 -10 7 0 16 -9 19 -20 4 -17 27 -26 59 -22 3 1 12
-5 18 -13 7 -8 21 -15 32 -15 10 0 32 -7 48 -15 16 -8 67 -18 115 -21 47 -4
88 -11 90 -15 7 -10 -36 -139 -45 -139 -4 0 -10 -18 -13 -41 -5 -38 -71 -188
-87 -199 -5 -3 -10 -16 -12 -30 -2 -14 -9 -24 -16 -23 -6 2 -24 -15 -38 -37
-15 -22 -28 -40 -29 -40 -2 0 -1 18 2 40 4 30 2 41 -10 46 -24 9 -57 -14 -73
-53 -20 -47 -27 -38 -9 12 9 28 10 44 3 53 -16 18 -22 16 -68 -31 -24 -23 -38
-32 -32 -20 18 32 15 42 -14 53 -20 8 -24 14 -19 33 11 34 20 39 48 26 32 -15
57 -6 57 21 0 15 -7 20 -25 20 -14 0 -25 5 -25 11 0 6 9 9 19 6 19 -5 36 15
24 27 -14 13 -54 5 -65 -14 -10 -16 -20 -18 -55 -13 -36 5 -50 1 -83 -21 -39
-26 -90 -106 -90 -143 0 -14 -2 -15 -9 -5 -7 11 -9 11 -14 -2 -7 -17 -36 -12
-49 8 -13 18 -9 73 8 122 9 25 17 55 19 67 3 11 11 43 19 71 25 88 47 406 28
406 -4 0 -14 -42 -21 -92 -7 -51 -17 -109 -22 -128 -5 -19 -9 -48 -9 -65 0
-16 -5 -37 -10 -45 -7 -10 -8 15 -4 78 6 82 5 92 -10 92 -18 0 -39 -43 -34
-69 2 -9 -2 -20 -9 -26 -9 -7 -10 -32 -5 -93 6 -58 4 -86 -4 -92 -6 -6 -13 -7
-16 -4 -3 3 -3 74 -1 158 6 163 -2 215 -37 239 -10 7 -22 25 -26 40 -8 33 -30
32 -52 -1 -14 -21 -13 -22 3 -16 16 6 17 3 11 -29 -8 -43 0 -49 14 -11 13 34
37 17 38 -28 1 -23 -2 -28 -8 -18 -14 23 -24 -13 -16 -59 4 -29 2 -40 -9 -45
-19 -7 -34 43 -16 53 9 6 8 11 -3 20 -12 10 -16 9 -25 -6 -10 -18 -16 -9 -44
67 -7 18 -10 -14 -8 -89 1 -36 8 -62 21 -81 11 -15 20 -34 20 -42 0 -8 5 -19
11 -25 9 -9 7 -10 -10 -6 -11 3 -21 13 -21 23 0 10 -8 20 -19 23 -17 4 -18 0
-14 -37 3 -22 10 -49 15 -58 5 -11 5 -26 -2 -38 -6 -11 -7 -20 -2 -20 10 0 32
-104 32 -156 0 -21 4 -54 9 -72 13 -43 -8 -43 -33 -1 -33 56 -87 99 -123 99
-30 0 -33 2 -23 19 18 34 11 47 -9 16 -10 -16 -28 -39 -40 -49 -30 -27 -27
-33 18 -41 22 -4 45 -13 52 -21 6 -8 21 -14 32 -14 14 0 18 -3 11 -10 -7 -7
-33 -1 -82 19 -57 23 -75 26 -88 17 -13 -10 -3 -17 67 -40 82 -27 119 -48 119
-70 0 -6 9 -22 19 -36 16 -20 22 -22 34 -12 12 10 16 10 21 -3 3 -8 3 -22 0
-30 -4 -10 0 -15 12 -15 11 0 46 -21 79 -47 75 -59 117 -81 147 -77 142 22
179 45 148 94 -5 9 -5 19 0 25 8 10 16 39 19 68 2 13 26 7 78 -18 50 -24 53
-24 105 -9 111 33 198 -8 198 -94 0 -20 3 -60 6 -89 7 -51 6 -52 -22 -59 -16
-3 -65 -19 -109 -34 l-80 -28 1 -38 c1 -22 6 -51 12 -66 10 -24 17 -28 52 -28
38 0 40 -1 41 -32 1 -18 0 -45 -1 -60 -2 -35 28 -48 110 -48 32 0 66 -3 75 -6
27 -11 47 -62 40 -103 -6 -36 -5 -37 55 -78 33 -23 83 -52 110 -65 44 -20 67
-48 40 -48 -5 0 -10 -7 -10 -15 0 -24 14 -18 33 14 l17 29 162 -4 c89 -3 163
-6 164 -7 1 -1 4 -108 7 -238 6 -232 6 -236 -16 -260 -45 -51 -58 -85 -48
-128 5 -24 5 -43 0 -47 -5 -3 -9 7 -9 22 0 22 -2 24 -14 15 -12 -10 -15 -7
-19 21 -3 29 -4 28 -5 -10 -2 -31 -5 -41 -14 -36 -10 6 -10 4 0 -7 14 -15 16
-40 3 -37 -5 2 -11 -1 -12 -7 -2 -5 8 -11 24 -13 28 -3 39 -22 12 -22 -11 0
-15 -11 -15 -40 0 -22 5 -40 10 -40 6 0 10 10 10 23 0 18 2 19 10 7 7 -11 10
-5 10 23 0 66 18 39 25 -38 4 -41 11 -73 15 -70 4 3 12 -7 16 -23 7 -21 10 -5
14 68 5 84 6 76 8 -67 l2 -163 -224 0 c-258 0 -245 5 -227 -96 10 -53 21 -82
21 -56 0 18 428 12 435 -6 8 -22 -23 -25 -199 -17 -181 8 -223 8 -237 -1 -5
-3 -9 -32 -9 -65 0 -60 -5 -67 -40 -51 -9 4 -15 22 -16 43 -1 37 -21 66 -59
87 -19 10 -19 11 -2 18 11 4 32 -1 52 -12 42 -22 56 -12 27 19 -14 14 -22 37
-22 58 l-1 34 -15 -25 -15 -25 6 28 c4 22 2 27 -15 27 -18 0 -20 7 -21 58 0
31 -3 87 -7 124 -6 50 -4 71 6 85 8 11 11 31 8 52 -7 47 21 134 49 147 35 17
58 -7 61 -63 8 -113 16 -173 25 -173 12 0 11 -11 15 275 1 138 6 258 10 268
11 30 -16 46 -134 77 -62 16 -141 41 -175 56 -66 28 -311 104 -337 104 -8 0
-26 9 -40 20 -14 11 -40 20 -57 20 -41 0 -42 14 -4 30 21 8 35 9 49 1 11 -6
33 -8 49 -5 20 4 41 -3 75 -25 28 -18 73 -35 110 -41 35 -6 83 -15 108 -20 59
-12 141 -21 212 -23 67 -3 106 -27 123 -76 l11 -32 17 36 c13 27 16 49 11 90
-6 53 -24 78 -24 34 0 -18 -4 -20 -27 -14 -16 4 -46 11 -68 14 -36 6 -132 47
-145 62 -3 3 -36 27 -75 55 l-70 49 42 3 c24 2 55 -4 72 -12 16 -9 36 -16 42
-16 15 0 90 -49 101 -65 4 -6 23 -12 43 -13 45 -3 44 18 -2 33 -16 6 -47 27
-67 47 -20 20 -46 40 -56 43 -24 8 -25 14 -5 51 8 16 15 38 15 49 0 18 -1 18
-16 -3 -8 -12 -21 -22 -28 -22 -8 0 -19 -6 -25 -14 -9 -11 -8 -18 6 -32 17
-17 17 -18 0 -11 -10 4 -26 7 -35 7 -15 0 -15 2 -2 11 11 8 6 9 -20 4 -19 -4
-96 -10 -170 -14 -149 -7 -162 -11 -255 -82 -224 -170 -307 -212 -417 -213
-63 -1 -68 -3 -68 -23 0 -27 -20 -73 -32 -73 -5 0 -22 -16 -39 -35 -34 -38
-54 -38 -39 0 5 14 7 33 4 42 -4 13 -3 14 3 5 7 -9 15 -2 28 28 10 23 28 48
39 57 21 15 21 15 1 9 -15 -4 -32 5 -62 33 -56 54 -94 142 -129 296 l-7 30
-13 -31 c-15 -35 -34 -174 -34 -244 0 -25 9 -78 19 -118 10 -39 16 -72 14 -72
-2 0 -14 21 -26 48 -19 41 -22 64 -22 187 0 114 4 148 19 185 15 36 19 73 20
190 1 139 2 147 28 187 15 23 32 44 38 48 15 10 12 41 -7 56 -31 26 -102 148
-118 203 -13 46 -20 56 -38 56 -12 0 -32 3 -44 6 l-23 6 0 242 c0 345 7 425
37 461 l24 28 56 -54 c30 -30 71 -79 90 -109 41 -63 73 -95 104 -105 56 -18
46 47 -17 110 -30 31 -49 43 -60 38 -10 -4 -15 -2 -11 4 3 5 -21 36 -54 69
-68 67 -102 115 -94 135 3 9 -10 21 -36 33 -40 20 -249 233 -320 327 -20 27
-40 44 -48 41 -9 -3 -44 27 -88 74 -41 43 -70 70 -65 59 6 -11 20 -29 32 -40
13 -11 33 -37 46 -57 25 -38 59 -79 179 -207 39 -42 93 -106 119 -144 52 -73
55 -95 15 -145 -25 -33 -24 -49 6 -75 24 -21 26 -29 35 -192 5 -93 10 -243 10
-333 l0 -163 -307 1 c-170 1 -334 4 -365 7 l-58 6 0 78 c0 43 -4 81 -10 84 -6
4 -10 -25 -10 -79 0 -77 -2 -86 -22 -101 -22 -15 -23 -14 -29 7 -8 32 0 57 22
69 20 10 26 57 10 75 -5 5 -12 24 -16 42 -6 30 -5 32 19 32 18 0 26 -6 27 -17
0 -16 1 -16 8 1 6 15 34 26 127 47 157 37 265 72 261 84 -10 31 -309 -7 -712
-89 -215 -44 -259 -58 -263 -78 -3 -15 6 -16 68 -13 39 2 94 8 123 14 28 6 90
13 137 16 47 2 102 7 123 11 41 7 51 -8 17 -26 -13 -7 -19 -19 -18 -35 2 -20
8 -25 30 -25 21 0 28 -5 28 -19 0 -18 -20 -21 -92 -12 -5 1 -8 7 -8 14 0 7 -9
13 -20 14 -17 2 -20 -4 -20 -38 0 -28 4 -39 15 -39 8 0 15 7 15 17 0 14 2 15
18 1 23 -20 62 -29 63 -15 0 7 5 1 10 -12 5 -13 7 -31 4 -41 -3 -9 3 -24 13
-34 18 -16 20 -66 3 -66 -4 0 -7 -16 -8 -35 -1 -32 0 -34 28 -28 21 4 30 1 35
-11 6 -14 8 -15 18 -2 9 13 18 12 66 -9 30 -13 75 -24 100 -25 25 0 52 -5 60
-11 11 -8 6 -9 -20 -5 -19 3 -88 6 -153 7 -97 1 -119 4 -127 18 -7 11 -8 7 -3
-17 5 -28 1 -37 -27 -62 -31 -28 -70 -40 -70 -22 1 15 40 53 49 48 9 -6 26 43
17 52 -3 2 -11 0 -18 -6 -14 -11 -77 -16 -143 -12 l-40 2 40 9 c22 4 61 8 87
8 39 1 50 5 64 26 19 30 15 61 -9 57 -18 -3 -20 7 -17 85 2 67 1 67 -345 59
-165 -3 -330 -9 -367 -11 l-67 -5 -16 58 c-9 31 -23 68 -30 82 -7 14 -16 32
-18 41 -3 9 -14 15 -29 14 -15 -2 -37 11 -65 38 -46 44 -69 44 -76 0 -4 -26
-4 -26 -6 5 -2 62 36 96 59 52 13 -24 28 -26 37 -5 7 21 -25 55 -52 55 -28 0
-65 -35 -65 -63 0 -12 -3 -33 -7 -45 -5 -22 -10 -23 -66 -20 l-60 3 -16 -58
-17 -58 -18 53 c-22 63 -30 73 -50 65 -14 -6 -14 -12 5 -59 11 -29 26 -69 33
-88 8 -24 17 -35 31 -35 16 0 25 15 43 73 21 66 26 73 45 68 12 -3 34 -6 48
-6 l26 0 -5 -70 c-4 -67 -4 -70 20 -79 21 -8 26 -19 36 -77 10 -59 9 -71 -5
-86 -8 -10 -19 -16 -23 -13 -23 14 -66 -148 -55 -209 7 -36 -3 -50 -29 -40
-21 8 -21 52 1 76 9 10 12 18 7 19 -10 1 -24 3 -104 13 -66 9 -147 35 -227 74
-32 15 -76 33 -98 39 -22 6 -66 19 -98 28 -32 9 -89 17 -125 17 -56 1 -135 15
-94 17 6 1 12 12 12 26 0 28 15 34 24 9 9 -24 50 -14 54 14 2 12 -1 22 -7 22
-6 0 -20 19 -31 43 -22 43 -41 76 -95 162 -18 28 -50 78 -71 113 -21 35 -49
79 -61 98 -17 26 -19 34 -8 34 8 0 24 -17 35 -37 50 -92 114 -183 129 -183 9
0 11 -7 8 -22 -4 -13 2 -32 14 -50 21 -29 39 -29 39 -2 0 18 -50 127 -61 134
-5 3 1 11 12 18 22 14 20 16 55 -90 20 -62 29 -65 81 -31 20 14 21 17 9 41 -7
15 -21 44 -31 65 -11 24 -23 36 -31 33 -8 -3 -14 -2 -14 3 0 6 18 18 62 39 4
1 5 -3 2 -11 -3 -8 4 -41 15 -73 12 -32 21 -67 21 -78 0 -20 1 -19 16 2 8 12
21 22 28 22 7 0 20 6 30 13 17 12 16 16 -10 73 -16 32 -30 61 -31 63 -1 2 -10
0 -20 -3 -15 -6 -15 -9 -3 -16 8 -5 11 -12 8 -16 -8 -8 -57 46 -58 64 0 7 8
16 18 19 26 10 30 21 24 70 -5 44 -4 45 19 38 13 -4 30 -14 38 -23 10 -10 16
-11 19 -3 2 7 13 4 29 -9 14 -11 30 -17 36 -13 6 4 7 1 3 -6 -5 -8 -1 -14 11
-17 13 -4 26 -27 43 -75 12 -38 25 -69 26 -69 2 0 23 9 46 19 24 11 51 22 61
25 9 3 17 10 17 15 0 6 -7 8 -15 5 -9 -4 -17 1 -21 12 -16 44 -29 46 -96 19
-13 -5 -15 -2 -11 16 4 15 3 20 -5 15 -13 -8 -15 4 -6 28 3 9 15 16 26 16 17
0 18 2 4 15 -114 114 -460 235 -673 235 -44 0 -53 3 -53 18 0 9 -25 67 -55
127 -54 108 -55 109 -49 60 6 -46 34 -103 97 -200 11 -16 41 -47 67 -67 46
-36 57 -55 86 -152 6 -21 22 -36 51 -50 45 -23 52 -33 27 -43 -8 -3 -25 3 -37
15 -12 11 -33 23 -47 26 -47 13 -70 29 -70 49 0 16 3 17 15 7 12 -10 15 -10
15 2 0 22 -12 29 -27 17 -15 -13 -43 4 -43 28 0 7 -7 16 -15 19 -17 7 -20 49
-5 59 20 13 10 46 -20 63 -16 9 -30 23 -30 30 0 8 -18 44 -40 81 -22 37 -40
72 -40 78 0 6 -4 13 -9 15 -13 4 -81 107 -81 122 0 7 -13 30 -30 52 -16 21
-30 47 -30 57 0 10 -14 38 -31 62 -40 55 -36 79 14 83 40 3 46 12 22 32 -12
10 -21 10 -42 1 -14 -6 -26 -10 -27 -9 -10 25 -26 43 -37 43 -16 0 -39 26 -33
37 3 5 16 8 29 8 67 0 8 53 -71 64 -75 10 -124 -27 -124 -93 0 -19 -6 -31 -16
-33 -20 -4 -55 -105 -49 -138 6 -27 -32 -111 -52 -118 -9 -3 -9 6 2 32 16 38
13 45 -10 22 -10 -9 -36 -14 -77 -14 -64 0 -98 10 -98 29 0 13 98 2 116 -12 8
-6 13 -3 17 10 2 10 16 27 31 36 21 14 29 15 41 5 12 -10 15 -10 15 3 0 13
-15 15 -90 12 -49 -1 -87 2 -84 6 3 5 18 9 33 9 16 0 45 7 66 15 20 9 45 13
56 10 15 -5 19 -2 19 15 0 20 -4 21 -45 14 -45 -6 -56 1 -33 24 16 16 11 18
-44 26 -53 8 -60 -2 -33 -41 15 -21 14 -23 -12 -28 -44 -10 -73 -24 -73 -35 0
-5 -7 -10 -15 -10 -8 0 -15 7 -15 15 0 9 -11 27 -25 41 -31 30 -32 44 -4 44
14 0 19 5 16 14 -8 21 14 45 51 55 26 8 32 7 32 -6 0 -24 -40 -73 -60 -73 -26
0 -32 -14 -15 -36 16 -20 18 -19 75 52 5 7 14 14 19 15 6 2 12 18 14 34 2 17
6 35 9 40 3 6 11 27 17 48 13 38 34 48 48 23 4 -7 23 -21 42 -30 18 -10 30
-12 26 -6 -4 7 2 18 14 26 12 8 21 24 21 35 0 10 5 19 10 19 6 0 10 9 10 19 0
19 -1 19 -41 0 -32 -16 -67 -21 -175 -24 -74 -2 -138 -7 -143 -10 -6 -3 -12
-1 -15 4 -3 5 -22 8 -42 7 l-36 -1 24 18 c29 24 25 47 -13 88 -34 36 -35 48
-12 92 21 42 43 58 68 51 11 -3 29 -6 39 -5 25 0 66 -22 90 -48 10 -11 22 -19
26 -16 4 2 21 7 38 10 75 13 109 41 118 97 5 29 2 38 -20 55 -31 25 -34 43 -5
43 20 0 21 4 14 48 -9 57 -21 82 -41 82 -9 0 -35 11 -58 25 -25 15 -66 27 -97
31 -69 6 -99 11 -125 19 -15 5 -23 0 -32 -20 -10 -21 -18 -26 -33 -22 -22 6
-68 -35 -69 -60 0 -7 -5 -13 -12 -13 -13 0 -68 -59 -68 -72 0 -5 5 -8 11 -8 6
0 9 -9 6 -20 -3 -11 -2 -18 1 -16 4 2 7 -24 8 -57 1 -76 32 -197 58 -222 22
-22 7 -32 -23 -16 -35 19 -43 14 -36 -21 9 -41 14 -46 26 -28 9 12 10 11 6 -6
-6 -27 16 -56 37 -48 9 3 16 12 16 19 0 8 4 16 10 20 5 3 8 -12 7 -37 -1 -24
1 -55 6 -70 10 -37 -8 -37 -45 -1 l-28 27 -33 -18 c-107 -61 -205 -126 -245
-162 -38 -35 -46 -48 -45 -75 1 -31 -4 -37 -57 -67 -111 -65 -192 -163 -332
-402 -84 -143 -157 -278 -185 -344 -13 -32 -31 -69 -38 -80 -8 -12 -23 -58
-33 -101 l-18 -80 -583 2 c-321 1 -586 4 -589 7 -4 5 1 517 23 2381 2 209 7
758 11 1220 3 462 8 846 10 853 3 10 17 12 52 8 26 -3 133 -8 237 -11z m10435
-390 c11 -28 4 -77 -16 -116 -16 -31 -75 -85 -104 -94 -27 -9 -70 19 -70 46 0
62 40 156 61 144 4 -3 24 6 45 20 47 32 72 32 84 0z m-11873 -1034 c-4 -343
-2 -461 6 -465 7 -2 -1 -5 -16 -5 -20 -1 -26 3 -21 11 4 7 9 183 11 393 3 370
9 525 20 525 3 0 3 -207 0 -459z m-10 -995 c-5 -313 -11 -484 -18 -491 -7 -7
-9 71 -5 260 2 149 5 373 5 498 1 171 4 226 13 221 8 -5 10 -127 5 -488z m-14
-958 c-7 -447 -20 -527 -22 -133 -1 312 5 465 19 465 5 0 6 -150 3 -332z
m10773 -372 c3 -15 11 -23 19 -20 18 7 23 -30 24 -197 1 -93 -2 -150 -9 -154
-6 -4 -10 19 -10 67 0 51 -3 68 -10 58 -5 -8 -10 -26 -10 -40 -1 -24 -1 -24
-15 5 -8 17 -14 23 -14 14 -1 -10 -9 -16 -18 -15 -15 1 -18 -9 -21 -66 -2 -52
-6 -68 -17 -68 -8 0 -15 6 -16 13 0 6 -4 2 -9 -10 -9 -21 -50 -51 -50 -36 0 4
-6 -2 -14 -13 -14 -18 -15 -18 -25 9 -6 16 -11 37 -11 48 0 11 -7 19 -17 19
-29 0 -146 -87 -165 -122 -9 -18 -17 -27 -18 -20 -1 32 36 75 99 117 38 25 74
52 81 60 9 11 7 47 -9 160 -26 178 -26 165 2 165 24 0 24 -1 54 -178 3 -18 7
-31 9 -29 2 2 -2 48 -10 103 -8 54 -12 101 -11 103 11 11 25 -16 26 -52 0 -23
7 -85 14 -137 l14 -95 -5 115 c-3 63 -8 127 -11 142 -3 16 -1 28 5 28 5 0 13
-41 17 -92 13 -163 24 -184 20 -38 l-4 135 13 -90 13 -90 2 83 c0 47 5 82 11
82 6 0 10 -44 10 -111 0 -71 4 -108 10 -104 6 4 10 55 10 121 0 69 4 114 10
114 6 0 10 -11 10 -24 0 -24 20 -30 37 -11 4 4 2 5 -4 1 -9 -5 -13 1 -13 21 0
16 -5 34 -12 41 -9 9 -9 12 0 12 6 0 14 -11 18 -24z m1407 -295 c14 -14 28
-165 16 -169 -5 -2 -9 -15 -9 -28 0 -20 -5 -24 -32 -24 l-33 0 25 20 c28 21
21 37 -20 43 -25 4 -130 112 -130 134 0 7 12 19 28 28 31 18 136 15 155 -4z
m292 -33 c2 -7 6 -59 8 -116 l5 -103 -51 3 -52 3 0 102 c0 96 5 121 19 91 5
-10 7 -10 12 0 3 6 12 12 20 12 8 0 14 5 14 10 0 14 20 12 25 -2z m-114 -128
c-2 -41 -5 -78 -8 -82 -2 -5 -25 -8 -51 -8 -36 0 -43 3 -34 12 17 17 16 129
-1 122 -7 -2 -19 -21 -26 -40 -7 -20 -15 -33 -19 -30 -3 3 6 30 20 58 14 29
29 61 32 71 6 17 8 17 48 -5 l43 -24 -4 -74z m-1576 -26 c4 -92 15 -166 30
-205 3 -10 2 -20 -4 -24 -6 -3 -11 -40 -11 -86 0 -43 -4 -79 -9 -79 -5 0 -12
-8 -14 -17 -5 -20 -12 123 -8 172 1 17 6 31 11 33 5 2 4 9 -3 17 -7 8 -14 9
-18 3 -9 -14 -49 9 -49 28 0 9 -9 23 -19 32 -21 19 -35 78 -21 87 14 9 50 -13
50 -31 0 -20 30 -30 41 -13 12 19 11 117 -1 121 -5 2 -7 19 -3 41 10 64 23 27
28 -79z m853 67 c27 -14 20 -31 -13 -31 -18 0 -22 -4 -18 -20 7 -25 -13 -26
-26 -1 -10 19 -45 34 -55 23 -3 -3 0 -12 6 -20 10 -11 9 -17 -5 -27 -16 -11
-14 -13 14 -19 17 -3 46 -6 65 -6 67 0 81 -12 93 -85 15 -83 59 -150 99 -150
17 0 28 -6 30 -17 2 -12 -3 -18 -16 -18 -18 0 -18 -1 -2 -47 29 -82 39 -103
50 -103 5 0 10 6 10 14 0 8 21 21 48 29 26 9 56 19 65 23 13 5 17 1 17 -16 0
-17 5 -21 27 -18 36 4 46 42 21 83 -10 17 -17 44 -17 60 l1 30 12 -36 c14 -45
34 -69 51 -63 25 10 30 -48 19 -218 -5 -70 -3 -98 5 -98 8 0 11 -105 11 -375
0 -333 -2 -375 -16 -375 -13 0 -14 8 -7 48 4 26 6 88 4 137 -6 162 -6 238 3
364 6 101 6 123 -6 119 -8 -3 -15 -28 -18 -69 -5 -54 -7 -60 -14 -36 -4 15 -5
39 -2 53 4 14 2 32 -4 40 -7 7 -9 18 -5 24 3 5 1 10 -4 10 -12 0 -15 -63 -13
-224 1 -95 -9 -143 -28 -131 -5 3 -7 28 -5 55 3 40 1 50 -12 50 -12 0 -13 3
-3 15 9 11 8 19 -4 37 -9 12 -16 36 -16 53 0 16 -4 36 -9 44 -6 9 -11 -16 -16
-73 -4 -47 -11 -86 -16 -86 -5 0 -9 14 -9 30 0 23 -4 30 -20 30 -20 0 -40 33
-40 68 0 13 2 13 16 -4 15 -18 15 -18 9 3 -4 13 -8 35 -11 50 -9 51 -15 62
-44 76 -33 17 -40 13 -40 -20 0 -13 -4 -23 -10 -23 -16 0 -12 -38 5 -42 10 -2
12 -7 5 -18 -8 -12 -48 -16 -232 -19 -219 -3 -223 -3 -206 16 15 16 17 31 11
86 l-6 67 -58 0 c-51 0 -58 -2 -53 -17 5 -15 3 -15 -10 2 -14 16 -21 18 -46 8
-16 -6 -30 -7 -32 -2 -2 4 -32 10 -68 13 -36 2 -66 5 -66 5 -1 1 -5 26 -9 56
-3 30 -12 61 -20 68 -14 15 -21 63 -12 87 3 8 8 26 10 40 10 47 16 70 23 81 3
6 12 34 20 62 12 46 12 53 -2 64 -9 6 -23 9 -32 6 -12 -5 -14 -2 -8 13 4 10 9
36 10 57 4 43 13 58 25 38 7 -11 10 -10 15 5 10 31 43 45 135 55 139 14 165
12 195 -16 15 -14 32 -25 39 -25 6 0 1 7 -11 16 -12 8 -22 21 -22 28 0 14 -44
31 -67 27 -22 -3 -14 16 8 22 12 3 18 10 14 16 -7 13 -161 14 -190 1 -11 -5
-14 -9 -7 -9 6 -1 12 -8 12 -17 0 -11 -6 -14 -21 -9 -13 4 -27 1 -39 -10 -11
-10 -26 -14 -38 -10 -11 3 -23 1 -27 -5 -3 -6 -11 -7 -17 -4 -7 5 -9 1 -5 -9
6 -15 -18 -77 -30 -77 -3 0 -2 23 2 51 9 63 57 112 125 129 118 28 481 36 528
11z m-1047 -161 c18 -22 38 -40 46 -40 7 0 13 -9 13 -20 0 -13 12 -25 36 -35
51 -21 34 -39 -31 -32 -45 5 -58 2 -89 -19 -60 -41 -111 -54 -210 -54 -123 0
-166 8 -166 30 0 10 -7 33 -15 51 l-16 34 7 -52 c7 -59 -10 -75 -21 -20 -4 17
-12 38 -17 44 -13 17 -2 44 15 37 7 -2 31 9 52 26 21 16 49 30 63 30 14 0 36
10 49 21 20 20 23 20 29 5 9 -22 24 -20 24 4 0 25 17 26 43 3 18 -17 19 -17
28 0 12 20 40 22 57 5 10 -9 16 -8 29 5 26 25 39 21 74 -23z m-6726 -63 c43
-43 58 -101 50 -186 -5 -58 -3 -72 19 -114 13 -26 27 -44 30 -39 7 12 -5 52
-16 52 -6 0 -7 14 -3 33 8 38 25 60 18 23 -4 -18 -1 -26 8 -26 8 0 22 -26 33
-63 11 -34 23 -72 27 -84 11 -35 -11 -39 -24 -4 -6 17 -18 31 -25 31 -9 0 -12
-6 -8 -16 34 -89 7 -82 -33 9 -18 39 -37 80 -42 91 -7 11 -8 50 -4 101 6 70 4
89 -12 126 -24 53 -39 67 -95 84 l-43 14 44 0 c36 1 48 -4 76 -32z m436 -88
c16 -8 32 -29 41 -54 14 -38 59 -77 73 -63 11 10 -46 108 -59 102 -6 -3 0 4
13 15 32 29 38 27 46 -15 6 -35 7 -35 26 -18 18 16 19 16 19 -4 0 -13 -6 -22
-15 -22 -8 0 -15 -2 -15 -4 0 -16 33 -74 49 -88 22 -19 28 -62 11 -73 -5 -3
-10 -19 -10 -35 0 -34 -15 -47 -35 -30 -22 18 -18 35 10 48 41 19 21 40 -36
39 -45 -1 -49 -3 -49 -24 0 -20 -3 -22 -19 -13 -11 5 -24 10 -30 10 -24 0 -8
-22 43 -62 61 -47 66 -72 7 -32 -21 14 -49 26 -62 27 -33 3 -96 47 -110 77
l-12 25 -7 -25 -6 -25 -16 25 c-21 33 -41 97 -35 113 2 7 10 0 17 -16 17 -35
34 -30 38 11 3 29 22 47 22 21 0 -12 43 -1 48 12 9 22 32 6 38 -26 6 -34 7
-35 24 -20 16 15 17 21 6 53 -10 30 -18 36 -42 37 -90 3 -96 5 -92 23 2 11 16
19 38 23 39 7 43 6 81 -12z m7948 -161 c8 -72 11 -177 7 -253 -3 -71 -5 -186
-5 -254 l-1 -124 -35 6 c-32 5 -35 4 -35 -19 0 -49 -25 -19 -28 34 -3 43 0 52
13 52 9 0 19 -9 22 -20 8 -29 20 -24 28 11 9 41 -4 491 -16 554 -7 36 -6 62 3
93 21 72 34 51 47 -80z m75 55 c30 -27 75 -65 101 -86 25 -22 56 -60 69 -85
19 -40 22 -58 18 -125 -3 -64 -7 -76 -18 -66 -21 18 -44 3 -44 -29 0 -30 16
-57 39 -64 10 -3 15 -19 16 -46 1 -22 -3 -39 -7 -36 -4 3 -8 -2 -8 -10 0 -9 5
-15 12 -14 7 2 13 -15 15 -42 4 -50 -4 -93 -15 -86 -4 2 -7 -19 -8 -47 0 -28
-5 -52 -10 -54 -5 -2 -7 -26 -5 -54 4 -58 -7 -74 -43 -65 -23 6 -25 11 -28 68
-4 76 -24 95 -61 60 -19 -18 -25 -36 -30 -89 -4 -53 -10 -70 -31 -91 -14 -14
-28 -23 -32 -20 -3 4 -1 60 4 125 25 273 23 817 -4 886 -11 30 14 19 70 -30z
m-8472 -93 c35 -24 52 -52 83 -139 18 -51 18 -51 5 -51 -5 0 -16 14 -25 30
-22 43 -38 38 -20 -6 18 -44 18 -44 2 -44 -12 0 -23 19 -61 114 -30 72 -27 30
3 -48 29 -76 26 -115 -4 -55 -21 39 -31 31 -16 -12 6 -18 9 -34 7 -37 -11 -10
-26 13 -52 78 -27 68 -44 89 -44 51 0 -29 41 -124 61 -143 11 -9 20 -29 20
-45 2 -27 2 -27 6 -3 8 44 23 47 23 4 0 -31 6 -46 28 -68 29 -27 95 -52 111
-42 5 3 36 6 69 7 51 1 65 -2 96 -26 20 -15 36 -32 36 -37 0 -7 -5 -6 -13 1
-11 9 -18 3 -32 -29 -35 -78 -119 -116 -300 -135 -66 -7 -138 -20 -160 -29
-25 -11 -69 -49 -120 -104 -161 -174 -231 -238 -307 -277 -66 -35 -81 -39
-158 -41 l-85 -2 80 7 c66 5 92 13 154 46 62 33 99 66 225 198 83 86 156 157
162 157 6 0 17 6 23 13 17 22 78 36 199 46 97 9 121 15 175 43 36 20 71 47 84
67 24 36 30 61 13 61 -5 0 -10 -8 -10 -18 0 -27 -48 -72 -107 -99 -39 -18 -88
-28 -183 -38 -145 -16 -178 -28 -257 -99 -57 -52 -70 -56 -75 -23 -2 12 -13
26 -25 32 -21 9 -40 51 -29 63 3 3 17 0 31 -6 31 -14 33 0 2 17 -30 16 -55 94
-37 116 16 19 1 19 -24 0 -11 -8 -24 -11 -30 -7 -6 5 -30 14 -53 22 -24 7 -43
17 -43 22 0 18 34 20 81 6 45 -15 49 -15 64 2 15 17 12 19 -49 39 -36 12 -77
21 -91 21 -37 0 -76 23 -108 64 -27 35 -47 46 -47 26 0 -5 6 -10 14 -10 8 0
18 -9 21 -20 3 -11 10 -20 14 -20 11 0 74 -90 68 -96 -8 -8 -57 27 -57 40 0 6
-13 26 -30 44 -16 18 -31 36 -31 40 -8 42 -5 49 15 44 30 -7 16 4 -37 32 -26
13 -47 19 -47 14 0 -5 -4 -6 -10 -3 -17 11 1 70 32 98 28 27 32 28 104 21 71
-7 75 -6 101 21 47 46 172 101 284 125 24 5 89 8 145 7 89 -2 105 -5 136 -27z
m-3934 -145 c2 -75 1 -144 -3 -154 -5 -18 -28 -21 -97 -12 -5 1 -8 8 -8 16 0
8 -4 15 -10 15 -5 0 -10 6 -10 13 0 7 -19 25 -42 40 -31 20 -55 27 -89 27 -26
0 -51 5 -55 11 -3 6 -17 8 -29 5 -25 -6 -41 7 -30 24 3 6 16 5 33 -2 34 -14
152 -26 152 -15 0 4 16 7 35 5 42 -3 53 7 37 32 -11 17 -10 20 8 20 11 0 19
-3 18 -7 -2 -13 14 -43 23 -43 5 0 9 9 9 20 0 13 7 20 20 20 22 0 25 15 14 69
-7 35 -15 38 -37 16 -9 -8 -17 -10 -19 -5 -2 6 -18 3 -40 -8 -20 -11 -52 -22
-70 -25 -18 -4 -43 -9 -55 -13 -14 -4 -23 -2 -23 5 0 6 6 11 14 11 7 0 60 16
117 35 57 19 111 35 119 35 12 0 16 -23 18 -135z m-288 25 c-7 -5 -19 -6 -26
-3 -7 2 -23 -3 -36 -11 -14 -9 -28 -13 -31 -9 -4 3 -7 1 -7 -5 0 -7 -12 -13
-27 -13 -25 -2 -26 -2 -5 -6 l24 -5 -23 -24 c-14 -15 -22 -36 -22 -56 0 -41
-25 -69 -56 -63 -31 6 -39 15 -15 16 10 1 22 1 27 0 4 0 7 5 7 13 0 8 5 16 10
18 20 6 -1 65 -26 77 -32 14 -35 14 -28 -4 5 -11 2 -13 -10 -9 -9 3 -13 11 -9
18 3 6 -3 3 -14 -7 -12 -10 -29 -17 -40 -15 -14 2 -19 -4 -21 -34 -2 -28 1
-38 11 -38 8 0 20 -6 26 -14 9 -11 7 -15 -11 -20 -46 -12 -48 -9 -48 58 l0 63
68 18 c91 23 156 41 227 62 55 17 86 12 55 -7z m7080 -166 c0 -76 2 -83 25
-98 37 -24 48 -12 43 46 -3 27 -1 51 3 54 5 3 9 -24 9 -60 0 -51 -3 -66 -14
-66 -8 0 -27 -5 -41 -10 -21 -8 -25 -13 -16 -24 12 -14 18 -316 12 -621 l-4
-180 -12 195 c-7 107 -13 299 -14 425 -2 243 -8 407 -17 440 -5 20 -5 20 10 1
12 -14 16 -43 16 -102z m-1438 -165 c63 -7 92 -7 107 1 18 9 23 7 32 -13 7
-17 41 -38 102 -68 51 -24 95 -42 100 -41 4 1 7 -5 7 -13 0 -8 4 -15 8 -15 10
0 66 -46 111 -92 20 -20 47 -38 61 -40 20 -2 25 -9 26 -34 2 -33 36 -94 42
-75 5 16 23 14 38 -6 19 -25 17 -33 -7 -33 -16 0 -19 -4 -14 -17 31 -79 65
-197 65 -225 0 -45 18 -95 36 -102 21 -8 17 -25 -5 -19 -24 6 -36 38 -50 132
-37 242 -217 471 -458 583 -150 69 -347 88 -518 49 -88 -20 -209 -75 -267
-122 -22 -17 -38 -25 -38 -17 0 13 61 58 79 58 5 0 14 7 21 15 7 8 22 15 34
16 11 0 15 3 9 6 -7 2 -13 9 -13 15 0 6 6 6 15 -2 13 -10 21 -6 49 25 21 22
36 32 41 26 6 -11 52 -9 160 8 74 12 130 12 227 0z m-4797 -9 c149 -6 376 -15
505 -20 224 -8 219 -8 -105 -4 -187 2 -456 9 -599 15 -175 7 -261 8 -268 1 -6
-6 -14 -45 -18 -87 -4 -41 -11 -79 -15 -83 -13 -12 1 156 15 172 16 20 103 21
485 6z m1357 -48 c10 -10 4 -352 -9 -487 l-8 -80 -119 0 -119 0 -16 55 c-15
50 -19 55 -46 55 -23 0 -33 -7 -49 -37 -26 -50 -13 -59 25 -20 38 39 47 40 59
6 23 -61 27 -59 -172 -57 -422 3 -1046 14 -1225 20 l-193 6 0 74 c0 54 4 75
14 79 19 7 1694 -21 1797 -31 l46 -4 7 76 c8 105 7 315 -2 330 -5 8 -60 16
-162 22 l-155 10 159 -4 c87 -2 163 -8 168 -13z m-1122 -57 c0 -4 -7 -20 -16
-36 -24 -48 -12 -54 21 -10 29 39 53 57 63 47 2 -3 -10 -28 -28 -57 -17 -29
-36 -62 -40 -75 -14 -36 7 -39 36 -5 17 21 35 31 53 31 34 0 44 -9 30 -27 -7
-8 -8 -13 -1 -13 12 0 22 24 22 56 0 32 28 31 40 -1 7 -20 6 -32 -6 -50 -25
-38 1 -30 33 10 34 43 56 47 47 9 -11 -42 15 -20 38 32 10 24 25 44 33 44 18
0 18 -5 5 -30 -7 -13 -6 -26 5 -46 12 -23 15 -25 21 -11 4 12 17 17 41 17 33
0 35 -1 28 -27 -5 -22 0 -18 23 18 37 57 46 63 100 65 55 2 55 -17 0 -68 -23
-21 -38 -41 -35 -44 4 -4 13 -1 22 6 20 17 32 5 15 -15 -11 -13 -35 -15 -131
-14 -114 1 -119 2 -119 22 0 20 -1 20 -13 3 -10 -14 -29 -19 -81 -20 -37 -1
-70 1 -72 4 -3 2 -38 3 -79 1 -62 -2 -75 0 -85 16 -8 13 -13 14 -16 6 -10 -23
-37 -15 -31 8 l6 21 -24 -22 c-32 -30 -80 -25 -80 10 0 19 6 26 25 28 21 4 22
2 11 -12 -8 -9 -12 -19 -9 -21 12 -12 36 9 58 48 46 85 62 107 76 107 8 0 14
-2 14 -5z m8879 -64 c10 -1 11 -4 3 -14 -6 -7 -8 -24 -5 -37 5 -19 3 -22 -11
-17 -10 4 -36 7 -58 7 -35 0 -40 2 -35 20 3 13 0 20 -9 20 -8 0 -14 -9 -14
-20 0 -17 -6 -20 -42 -19 -24 1 -35 3 -25 6 25 6 17 37 -11 41 -17 3 -22 -1
-22 -20 0 -21 -5 -24 -40 -24 -22 0 -40 3 -41 8 -1 4 -1 17 -1 28 0 11 0 23 1
26 1 4 163 1 310 -5z m-5439 -18 c19 -3 61 -25 93 -49 31 -24 63 -44 70 -44 8
0 20 -11 27 -24 11 -21 11 -31 -1 -58 -16 -40 -15 -214 3 -235 8 -10 8 -17 0
-25 -14 -14 -16 -208 -3 -308 4 -36 6 -82 3 -103 l-4 -38 -34 53 c-18 29 -34
59 -34 66 0 7 -5 10 -10 7 -11 -7 -4 -74 12 -118 6 -17 17 -26 27 -25 14 3 16
-14 16 -147 0 -128 -3 -155 -19 -189 -18 -35 -19 -46 -8 -120 7 -49 8 -95 3
-116 l-9 -35 -2 30 c-1 17 -2 36 -1 43 1 7 -5 37 -13 67 -9 29 -16 62 -16 72
0 15 -7 19 -32 18 -50 -3 -51 -3 -30 -30 15 -19 20 -42 21 -107 1 -51 7 -90
15 -103 8 -12 12 -33 9 -47 -3 -14 1 -36 8 -49 7 -13 14 -46 16 -74 2 -27 5
-60 8 -72 4 -18 1 -23 -13 -23 -13 0 -25 14 -38 42 -10 23 -43 73 -72 111 -29
38 -58 80 -64 93 -13 27 -26 31 -34 9 -4 -8 -15 -15 -26 -15 -34 0 -58 -20
-80 -68 -12 -26 -39 -69 -60 -96 -21 -27 -38 -56 -38 -65 -1 -13 -2 -13 -11 3
-7 11 -8 21 -2 25 12 8 83 150 83 166 0 7 -6 18 -14 25 -8 6 -12 19 -9 28 6
15 4 15 -15 -1 -11 -11 -23 -35 -27 -56 -3 -20 -11 -43 -16 -51 -8 -11 -9 -6
-5 19 3 18 6 45 6 58 0 16 7 27 20 30 11 3 20 12 20 19 0 19 -16 18 -24 -1 -8
-23 -33 -18 -40 8 -9 33 -7 69 3 63 5 -3 14 1 21 9 7 8 10 15 6 15 -4 0 1 15
10 33 16 30 27 77 18 77 -16 0 -45 -47 -50 -82 -9 -54 -19 -30 -29 70 -6 63
-5 72 10 72 9 0 13 5 10 10 -3 6 -1 10 4 10 18 0 13 18 -11 40 -24 22 -68 27
-68 8 0 -6 -3 -8 -7 -4 -11 10 -20 136 -11 136 14 0 9 32 -7 44 -9 6 -21 48
-30 101 -8 50 -21 104 -28 120 -6 17 -11 66 -11 109 1 71 4 81 25 97 20 15 21
19 7 19 -10 0 -18 7 -18 16 0 15 8 16 58 10 161 -19 270 -35 299 -44 17 -6 34
-8 37 -4 12 11 -109 42 -212 54 -99 11 -121 28 -39 28 21 0 70 7 109 16 39 9
98 17 130 18 32 0 58 4 58 7 0 3 -28 9 -63 13 -72 7 -191 -6 -297 -34 -41 -10
-76 -17 -78 -15 -8 7 10 46 44 94 19 28 34 55 34 61 0 15 -16 12 -30 -5 -17
-20 -27 -19 -47 5 -10 11 -23 20 -30 20 -21 0 -15 18 12 36 28 18 116 21 159
4 17 -6 44 -6 78 0 42 8 62 19 99 56 26 26 49 58 52 73 2 14 6 33 8 41 3 9
-17 26 -56 47 -33 18 -58 33 -55 33 3 1 34 10 70 20 36 10 79 16 95 14 17 -3
46 -8 65 -11z m5964 -95 c3 -7 7 -95 10 -194 l6 -182 -28 -10 c-38 -15 -142
-43 -172 -46 -43 -4 -110 -38 -110 -56 0 -17 -18 -40 -32 -40 -5 0 -7 12 -6
28 3 25 0 27 -33 30 -45 4 -49 18 -49 163 l0 99 28 -31 28 -31 23 19 c21 17
24 28 23 84 -1 35 -8 87 -17 114 -8 28 -15 53 -15 56 0 4 77 7 170 8 131 1
171 -1 174 -11z m1446 -148 c5 0 7 6 4 14 -6 17 8 15 49 -4 24 -12 30 -12 38
1 6 10 9 6 9 -17 0 -39 -48 -105 -92 -126 -76 -36 -110 -41 -185 -24 -29 7
-47 26 -25 26 5 0 14 11 20 25 10 21 9 25 -5 25 -9 0 -22 8 -29 18 -20 25 -17
38 5 18 24 -22 78 -23 117 -3 17 9 35 13 39 9 3 -4 5 -2 4 3 -2 6 5 30 16 55
l19 45 4 -32 c2 -18 7 -33 12 -33z m-8012 -117 c-4 -54 -10 -113 -14 -130 -4
-22 -2 -33 5 -33 6 0 11 7 11 15 0 19 14 19 30 1 6 -8 18 -12 27 -9 11 4 14 2
11 -8 -3 -9 -18 -14 -42 -13 l-37 1 6 -72 c3 -40 14 -125 25 -190 31 -180 25
-255 -20 -255 -10 0 -32 18 -49 39 -17 22 -45 44 -61 50 -17 5 -30 8 -30 6 0
-3 13 -26 29 -52 16 -27 37 -68 47 -93 9 -25 26 -58 37 -73 16 -24 18 -33 8
-54 -7 -14 -9 -28 -6 -31 3 -3 5 0 5 6 0 7 4 12 8 12 14 0 6 -202 -8 -232 -23
-48 -42 -33 -65 50 -3 12 -10 22 -15 22 -4 0 -11 12 -15 27 -6 25 -30 52 -47
53 -12 0 44 -161 68 -194 8 -11 14 -30 14 -42 0 -12 11 -38 25 -58 15 -22 20
-36 12 -36 -17 0 -37 25 -67 83 -28 52 -29 53 -54 34 -15 -11 -16 -17 -7 -35
19 -36 14 -59 -14 -59 -14 0 -25 4 -25 9 0 5 -11 21 -25 36 -25 26 -26 27 -40
8 -19 -25 -19 -36 -1 -36 18 0 49 -47 36 -55 -6 -4 -20 -3 -33 1 -12 4 -33 7
-47 5 -21 -2 -29 5 -44 38 -10 23 -25 42 -34 42 -15 1 -15 2 0 6 16 4 16 6 1
29 -11 17 -14 37 -10 67 2 23 3 36 0 30 -3 -7 -9 -13 -14 -13 -12 0 -12 47 1
55 6 4 -1 21 -17 42 -22 29 -27 45 -25 85 1 27 8 56 16 64 8 7 12 23 9 34 -6
24 -7 24 -39 4 -23 -16 -26 -16 -38 1 -16 22 -14 91 2 88 7 -2 12 5 12 15 0
11 7 33 16 51 21 42 5 62 -25 32 -12 -12 -21 -26 -21 -31 0 -6 -5 -19 -12 -29
-9 -15 -9 -34 1 -85 7 -35 10 -74 6 -86 -4 -12 -1 -28 7 -37 10 -13 10 -17 1
-20 -7 -3 -13 -19 -14 -36 -1 -57 -8 -15 -19 125 -10 134 -7 193 11 183 14 -9
37 38 44 90 3 28 11 72 17 99 8 37 8 50 -2 56 -9 5 -4 13 15 26 14 11 39 29
54 41 16 12 31 20 34 17 3 -3 12 3 19 15 8 13 23 21 40 21 27 0 52 9 97 35 24
13 27 11 87 -52 34 -36 70 -84 79 -107 9 -23 23 -54 31 -69 17 -34 11 -47 -20
-47 -15 0 -38 19 -72 60 -27 33 -50 55 -52 50 -2 -5 -13 -5 -26 0 -13 5 29
-45 93 -111 64 -65 122 -119 129 -119 9 0 11 11 7 38 -3 20 -6 50 -5 66 0 15
-4 33 -9 40 -5 6 -17 62 -27 124 -9 61 -21 112 -26 112 -4 0 -8 7 -8 15 0 8 5
15 10 15 6 0 10 4 10 10 0 5 -12 7 -27 4 -27 -5 -95 20 -74 27 14 5 2 49 -14
49 -7 0 -18 7 -26 16 -11 13 -7 15 39 12 44 -3 52 -6 52 -22 0 -20 0 -20 15 0
17 22 20 54 5 54 -5 0 -10 9 -10 20 0 11 5 20 10 20 6 0 10 12 10 28 0 30 35
112 47 112 4 0 5 -44 1 -97z m4622 60 l0 -28 18 21 c9 12 27 25 40 29 19 5 25
2 29 -14 3 -12 12 -21 19 -21 8 0 14 -4 14 -10 0 -9 -61 -30 -90 -30 -13 0
-13 -1 0 -10 8 -6 33 -7 56 -4 60 9 77 -22 49 -88 -5 -13 -3 -18 9 -18 8 0 23
-15 32 -32 9 -18 24 -42 34 -53 10 -11 20 -38 23 -60 3 -22 11 -62 17 -90 7
-27 12 -58 12 -67 -1 -10 6 -18 14 -18 19 0 18 -26 -2 -34 -20 -8 -11 -39 26
-86 15 -19 35 -52 45 -74 17 -35 17 -40 2 -50 -10 -8 -13 -17 -6 -27 14 -22
11 -29 -22 -60 l-31 -29 25 0 c38 0 43 -19 10 -32 -16 -6 -34 -20 -39 -32 -5
-11 -26 -30 -47 -42 -37 -20 -48 -38 -27 -40 6 -1 25 -2 43 -3 l32 -2 -28 -25
c-18 -15 -36 -23 -47 -19 -19 6 -34 -8 -44 -41 -6 -21 -5 -21 44 -12 68 12 83
6 40 -17 -34 -17 -59 -42 -60 -57 0 -5 19 -8 43 -9 l42 -1 -35 -10 c-61 -17
-70 -32 -70 -114 0 -59 3 -75 18 -83 16 -9 16 -10 0 -16 -14 -6 -17 -18 -15
-66 1 -37 7 -61 15 -64 8 -3 10 -14 7 -28 -5 -17 -2 -26 9 -30 14 -6 14 -10 4
-27 -13 -20 -6 -32 26 -43 5 -1 -1 -21 -12 -44 -19 -36 -47 -162 -38 -170 1
-2 22 11 45 28 24 17 45 29 47 27 5 -6 -106 -118 -117 -118 -5 0 -9 -6 -9 -14
0 -19 -26 -40 -35 -26 -3 5 -31 10 -61 10 -39 0 -56 4 -60 15 -4 8 -12 15 -20
15 -8 0 -14 4 -14 9 0 18 17 20 36 6 11 -8 42 -15 70 -15 42 0 55 5 75 26 21
22 24 34 22 90 -1 35 -7 81 -13 102 -6 20 -17 122 -25 226 -8 104 -17 192 -20
195 -4 3 -43 7 -88 8 -52 1 -83 6 -86 14 -2 8 22 10 90 8 l94 -4 3 35 c1 19
11 73 22 120 10 47 22 106 25 133 6 46 7 47 40 47 32 0 65 21 65 41 0 6 -8 8
-17 6 -10 -3 -30 -8 -45 -11 -16 -4 -28 -11 -28 -16 0 -6 -5 -10 -11 -10 -11
0 -8 42 7 98 6 19 3 23 -12 20 -16 -3 -20 5 -25 57 -4 33 -14 80 -23 104 -9
24 -23 86 -31 138 -8 51 -21 117 -29 146 -46 157 -59 209 -66 282 -5 44 -9 81
-9 82 -1 1 -25 -1 -53 -4 -61 -7 -60 1 3 21 64 20 69 19 69 -11z m470 -290 c0
-8 4 -12 9 -8 5 3 13 0 17 -6 4 -8 3 -9 -4 -5 -8 5 -12 -3 -12 -23 0 -19 5
-30 12 -28 6 1 16 -16 20 -38 26 -118 30 -145 33 -205 1 -36 8 -80 13 -98 15
-46 4 -162 -14 -155 -8 3 -16 -2 -20 -10 -5 -13 -8 -13 -25 4 -13 13 -27 18
-40 14 -10 -4 -19 -2 -19 4 0 5 9 13 20 16 11 3 20 11 20 16 0 5 5 9 10 9 6 0
10 -7 10 -15 0 -19 24 -19 40 0 8 10 10 29 5 57 -3 24 -9 81 -13 128 -6 67
-10 85 -23 88 -14 2 -18 -9 -24 -56 -6 -53 -10 -61 -30 -65 -27 -5 -35 8 -35
53 0 16 -4 32 -10 35 -5 3 -10 22 -10 41 0 24 -5 34 -15 34 -8 0 -15 6 -16 13
0 6 -4 33 -8 60 -4 26 -4 47 0 47 4 0 6 31 3 69 -3 54 -1 73 12 85 14 14 19
13 55 -16 21 -17 39 -38 39 -45z m1488 -4 l-3 -62 -46 -12 c-53 -13 -93 -5
-169 35 l-45 24 35 6 c19 4 45 12 58 19 31 16 132 50 155 50 16 1 18 -7 15
-60z m-7048 -88 c0 -5 -7 -16 -15 -25 -8 -8 -15 -22 -15 -30 0 -9 -7 -16 -15
-16 -8 0 -15 -5 -15 -11 0 -6 7 -8 16 -5 14 5 15 1 10 -31 -4 -21 -8 -57 -9
-79 -3 -51 -19 -70 -41 -48 -9 8 -16 11 -16 6 0 -5 7 -15 15 -22 19 -16 19
-30 0 -30 -24 0 -34 33 -34 111 0 130 1 138 29 148 14 5 34 16 45 25 22 17 45
21 45 7z m7052 -89 c3 -27 6 -127 7 -223 l2 -174 -173 1 c-249 1 -223 -7 -225
67 0 34 -5 109 -10 166 l-9 104 33 13 c18 8 46 14 63 14 16 0 30 5 30 11 0 5
8 9 18 7 9 -1 24 2 32 7 20 13 168 53 201 54 24 1 27 -3 31 -47z m1436 -164
c-4 -21 0 -23 39 -23 33 0 44 4 49 17 3 10 10 18 15 18 6 0 7 -4 4 -10 -3 -5
-8 -20 -10 -32 -8 -39 -35 -87 -55 -98 -11 -6 -20 -19 -20 -30 0 -10 -6 -20
-12 -23 -7 -2 -10 -7 -6 -11 3 -4 20 0 36 8 17 9 32 11 34 6 2 -6 19 -5 45 2
48 12 73 6 73 -18 0 -12 -6 -15 -24 -10 -14 3 -27 2 -30 -2 -3 -5 -34 -9 -70
-9 -35 0 -69 -4 -75 -7 -12 -8 -14 4 -15 99 -1 46 -4 60 -16 60 -10 0 -17 -13
-20 -35 -5 -32 -8 -35 -44 -38 -22 -2 -36 1 -32 6 7 11 -22 38 -49 46 -11 3
-3 4 17 1 21 -2 40 1 43 6 10 16 35 10 36 -8 0 -14 2 -13 9 5 5 12 13 22 18
22 5 0 17 18 27 40 19 43 40 54 33 18z m-12831 -33 c21 -15 22 -22 17 -98 -10
-174 -15 -208 -27 -199 -7 5 -25 12 -41 16 l-29 7 6 122 c3 67 9 132 13 145 7
26 30 28 61 7z m119 -232 c-15 -143 -36 -404 -36 -462 0 -61 1 -63 18 -48 10
10 30 17 45 17 24 0 26 4 31 53 12 107 13 110 15 36 1 -84 -20 -155 -44 -146
-7 3 -16 3 -19 0 -7 -7 -59 -15 -101 -15 -32 0 -51 -18 -33 -29 6 -4 2 -12
-12 -19 -20 -11 -22 -10 -17 5 4 9 7 29 7 45 0 25 4 29 39 35 22 4 42 13 45
20 3 8 15 138 28 289 12 152 26 276 31 276 6 0 7 -25 3 -57z m2984 -1057 c-12
-12 -13 360 -2 769 7 272 7 266 10 -239 1 -340 -1 -523 -8 -530z m10190 972
c36 -1 88 1 115 6 76 13 27 -20 -58 -38 -16 -4 -25 -11 -21 -17 6 -10 -185 -7
-326 5 -41 3 -46 3 -20 -3 23 -6 -9 -8 -94 -8 -89 0 -138 4 -155 14 -23 12
-17 13 69 14 52 0 151 0 219 -1 93 -1 126 2 132 12 7 11 12 11 30 0 11 -7 24
-10 27 -6 4 4 1 9 -5 11 -20 7 -15 25 5 19 9 -3 46 -6 82 -8z m-660 -23 c7 -9
22 -12 39 -9 20 4 30 1 34 -10 7 -16 -7 -31 -22 -22 -12 8 -457 10 -470 2 -17
-11 -81 5 -81 20 0 16 33 17 298 15 93 0 152 3 152 9 0 15 36 12 50 -5z m-800
-20 c0 -9 -94 -12 -405 -14 -223 -1 -409 1 -415 4 -35 22 31 26 411 24 315 -1
409 -4 409 -14z m-9900 -144 c-23 -57 -7 -67 28 -17 50 69 67 59 26 -16 -18
-35 -34 -74 -34 -88 0 -24 1 -24 35 13 25 28 42 37 66 37 26 0 30 -3 24 -17
-4 -12 -3 -15 4 -8 5 6 11 21 13 35 1 14 10 26 19 28 25 5 34 -44 14 -74 -24
-37 1 -28 31 11 32 42 44 44 44 9 0 -37 23 -16 38 35 15 50 48 67 38 20 -4
-22 -1 -35 11 -47 12 -12 18 -13 21 -4 2 6 19 12 38 12 32 0 34 -2 29 -27 -5
-25 -4 -25 14 7 24 44 71 91 82 84 5 -3 9 -12 9 -21 0 -15 2 -14 18 0 10 10
24 17 30 17 24 0 11 -33 -28 -72 -38 -39 -49 -66 -15 -38 19 16 32 5 16 -14
-9 -11 -45 -14 -164 -15 -84 -1 -174 -2 -200 -4 -26 -2 -50 0 -53 5 -3 4 -13
4 -22 -1 -25 -12 -117 -8 -134 7 -12 10 -18 9 -28 -3 -16 -20 -30 -10 -23 16
5 19 4 19 -20 -5 -14 -14 -35 -26 -45 -26 -41 0 -54 52 -17 66 22 9 30 -3 15
-21 -10 -12 -9 -15 6 -15 13 0 28 18 46 53 43 81 69 120 75 113 3 -3 0 -19 -7
-35z m-1309 -31 c12 -7 19 -21 19 -38 0 -15 0 -47 0 -72 0 -52 -5 -59 -53 -67
-34 -5 -38 -3 -51 28 -12 28 -12 35 1 48 14 13 13 16 -1 27 -13 9 -14 17 -7
37 16 41 54 57 92 37z m11919 -22 c8 0 41 4 73 8 l57 7 0 -34 c0 -19 -4 -39
-8 -45 -8 -13 -69 -29 -96 -25 -11 2 -17 -2 -14 -11 3 -7 13 -13 24 -13 10 0
25 -4 33 -9 9 -6 12 -5 8 1 -4 6 0 13 7 16 10 4 16 -2 18 -21 l3 -27 245 -6
c135 -3 247 -6 250 -7 38 -16 -195 -20 -1139 -21 -756 -1 -1111 2 -1099 9 24
15 179 18 933 19 520 1 666 4 657 13 -7 7 -12 16 -12 22 0 6 5 5 12 -2 7 -7
19 -12 28 -11 8 0 10 3 4 5 -7 3 -8 23 -3 61 4 32 7 59 5 60 -8 8 -36 -11 -41
-28 -4 -11 -11 -17 -16 -14 -5 4 -9 -3 -9 -15 0 -29 -24 -20 -28 9 -2 13 -1
34 3 48 6 24 9 25 48 18 23 -4 49 -7 57 -7z m-4032 -55 c210 -10 75 -36 -198
-39 -241 -2 -350 5 -350 22 0 11 33 14 153 17 238 5 285 5 395 0z m682 -13 c0
-25 -16 -34 -24 -14 -5 13 -15 15 -44 10 -20 -3 -44 -6 -52 -6 -8 0 -108 0
-222 0 -115 -1 -214 2 -220 7 -23 15 62 20 315 21 235 1 247 0 247 -18z
m-1255 -5 c0 -12 -698 -24 -730 -13 -18 6 -17 7 5 9 197 15 725 19 725 4z
m-2580 -93 c97 -70 104 -87 39 -97 -45 -6 -104 8 -104 25 0 4 -20 30 -45 58
-25 27 -45 55 -45 61 0 6 17 11 38 11 29 0 54 -13 117 -58z m3077 29 c11 -10
-2 -49 -18 -55 -21 -8 -180 -9 -193 -2 -6 4 -11 20 -11 36 l0 29 73 3 c82 3
139 -1 149 -11z m-1592 -6 c15 -9 12 -31 -6 -49 -11 -12 -32 -15 -77 -14 -34
1 -76 -1 -93 -5 -26 -7 -32 -4 -43 16 -10 18 -10 30 -2 44 9 19 19 20 110 17
56 -1 105 -5 111 -9z m-3260 -106 c0 -42 2 -49 14 -40 11 9 14 2 18 -36 9 -80
-1 -486 -12 -493 -5 -3 20 -4 56 -2 53 4 66 2 62 -9 -3 -10 -28 -15 -89 -17
l-84 -3 2 243 c3 276 11 408 24 408 5 0 9 -23 9 -51z m3315 21 c-4 -6 15 -10
49 -10 46 0 54 -3 49 -16 -8 -20 17 -96 37 -111 13 -10 10 -12 -17 -13 -33 0
-52 15 -31 23 7 3 2 6 -11 6 -16 1 -21 -3 -18 -13 5 -13 -7 -14 -163 -18 -48
-1 -79 8 -83 24 -7 24 -27 23 -27 -2 0 -15 -7 -20 -26 -20 -25 0 -26 2 -22 54
1 30 0 52 -4 50 -3 -2 -8 0 -10 6 -5 14 -68 25 -68 11 0 -6 12 -12 28 -12 15
-1 20 -3 10 -6 -9 -2 -19 -15 -22 -27 -3 -13 -18 -32 -33 -42 -16 -9 -33 -25
-40 -33 -21 -28 -25 -4 -9 55 14 53 14 60 -1 76 -15 17 -12 18 60 18 46 0 77
-4 77 -10 0 -12 24 -13 160 -6 85 4 92 5 85 16 -3 6 3 10 15 10 12 0 18 -4 15
-10z m-1580 -60 c-3 -5 -15 -10 -26 -10 -10 0 -19 -3 -19 -7 0 -5 -37 -7 -82
-7 -46 1 -62 -1 -35 -3 26 -2 47 -9 47 -15 0 -14 78 -2 99 15 12 9 13 9 7 0
-4 -7 -2 -13 3 -13 6 0 11 -7 11 -15 0 -8 -7 -15 -15 -15 -8 0 -15 -9 -15 -20
0 -16 7 -20 30 -20 23 0 30 4 30 20 0 11 -4 20 -10 20 -5 0 -10 5 -10 10 0 13
57 13 64 1 4 -5 1 -11 -6 -13 -6 -2 -9 -12 -5 -21 5 -13 19 -17 67 -17 33 0
60 4 60 10 0 6 11 10 25 10 32 0 31 7 -2 43 l-28 28 40 -3 c29 -2 40 -7 39
-18 -1 -9 8 -17 20 -18 11 0 22 -6 24 -12 2 -5 12 -10 23 -10 14 0 19 7 19 25
0 18 5 25 20 25 11 0 20 -4 20 -8 0 -5 15 -16 33 -25 l32 -16 -32 0 c-41 -1
-44 -21 -4 -21 17 0 32 -4 36 -9 3 -6 -34 -10 -92 -10 -54 -1 -138 -3 -188 -5
-252 -13 -305 -12 -305 5 0 9 -11 24 -25 33 -27 18 -60 22 -50 6 3 -5 0 -10
-7 -11 -10 0 -10 -2 0 -6 6 -2 10 -9 6 -14 -3 -5 1 -9 10 -9 8 0 16 6 19 13 3
9 8 9 21 -2 9 -8 13 -18 9 -22 -4 -4 -91 -10 -193 -14 -231 -7 -361 -15 -372
-21 -15 -9 3 -25 22 -19 10 3 22 1 25 -6 5 -8 9 -8 14 0 4 6 34 13 66 15 131
11 358 19 415 15 31 -2 415 13 434 17 12 2 143 6 291 9 149 2 281 8 295 14 24
10 24 10 -7 10 -45 1 -42 21 2 21 24 0 35 -5 35 -15 0 -18 77 -21 405 -13 77
2 158 0 180 -3 30 -5 33 -7 12 -8 -20 -1 -35 -12 -59 -46 -30 -42 -33 -44 -50
-28 -17 15 -18 15 -18 0 0 -23 -28 -21 -48 3 -19 21 -46 30 -47 15 -2 -31 -17
-35 -42 -11 -28 28 -40 26 -54 -11 -6 -16 -15 -23 -24 -20 -9 4 -15 -3 -18
-21 -4 -26 -4 -26 -6 4 -1 24 -5 30 -21 29 -29 -2 -37 -15 -9 -16 l24 0 -24
-12 c-19 -9 -26 -8 -37 8 -8 11 -14 13 -14 6 0 -15 -52 -6 -85 14 -38 24 -63
27 -67 8 -3 -15 -6 -14 -27 7 -13 14 -20 19 -16 11 6 -11 2 -12 -21 -7 -16 4
-32 12 -35 18 -4 6 -11 8 -15 5 -5 -2 -38 1 -73 7 -83 15 -262 -2 -346 -32
-62 -23 -90 -28 -65 -12 13 8 12 12 -4 27 -10 10 -16 13 -12 6 3 -6 2 -14 -4
-18 -6 -4 -8 -10 -6 -14 3 -4 -11 -8 -30 -8 -19 -1 -41 -6 -49 -13 -8 -6 -19
-9 -24 -6 -12 8 -49 -12 -72 -39 -17 -20 -18 -20 -28 8 -11 28 -38 36 -58 16
-6 -6 -25 -8 -47 -4 -40 8 -49 24 -13 26 15 1 17 3 5 6 -9 2 -28 -3 -41 -12
-13 -8 -32 -13 -41 -9 -11 4 -16 0 -17 -12 -1 -17 -2 -17 -6 -1 -5 19 -39 24
-45 6 -4 -13 -76 -16 -100 -5 -15 7 -18 3 -18 -20 l0 -29 -22 35 c-12 19 -23
37 -25 40 -7 8 -23 -25 -18 -37 3 -8 -4 -12 -18 -10 -22 2 -24 -1 -26 -57 -2
-46 -9 -27 -22 54 -12 78 -19 90 -55 90 -30 0 -35 -21 -30 -109 5 -69 4 -72
-5 -31 -6 25 -11 58 -12 74 -1 16 -8 31 -16 34 -8 3 -11 0 -7 -6 7 -11 -9 -25
-34 -28 -8 -1 -26 -6 -39 -10 -21 -6 -22 -5 -12 15 9 17 9 21 -3 21 -16 0 -26
-21 -26 -56 0 -25 -15 -33 -23 -11 -2 6 -2 27 1 45 3 20 0 32 -7 32 -6 0 -11
-12 -11 -26 0 -15 -4 -23 -11 -19 -6 4 -8 13 -5 20 2 7 -1 18 -7 25 -9 9 -7
15 11 27 27 19 28 33 2 33 -18 0 -20 7 -20 69 0 40 5 73 11 77 6 3 149 9 318
11 168 3 308 7 310 9 10 9 132 4 126 -6z m6954 -48 c4 -6 27 -11 51 -10 54 1
81 -5 120 -28 28 -17 30 -17 49 0 18 16 20 16 32 -2 8 -10 26 -22 42 -26 20
-5 27 -12 27 -31 0 -14 5 -25 11 -25 5 0 7 5 4 10 -3 6 2 10 11 10 10 0 26 7
36 17 17 15 18 15 18 0 0 -11 8 -17 24 -17 26 0 79 -43 89 -72 4 -10 16 -18
27 -18 12 0 18 5 15 10 -7 11 6 13 29 4 9 -4 16 -18 16 -34 0 -25 4 -29 40
-35 22 -4 43 -12 46 -17 5 -7 -2 -9 -20 -4 -18 4 -26 2 -27 -6 0 -10 -2 -10
-6 0 -9 22 -31 14 -27 -10 l5 -23 -10 23 c-11 24 -21 28 -37 12 -7 -7 -17 -3
-32 10 -11 11 -30 20 -40 20 -17 0 -19 -6 -16 -52 3 -37 1 -45 -4 -28 l-8 25
-7 -25 c-8 -30 -73 -60 -132 -60 -56 0 -91 -10 -73 -21 8 -6 9 -9 1 -9 -8 0
-7 -15 4 -56 8 -31 12 -59 9 -62 -7 -6 -10 5 -30 83 -10 45 -11 62 -3 67 8 5
5 8 -8 9 l-20 0 20 9 c11 5 47 9 80 9 42 1 69 7 90 21 28 18 30 18 38 2 4 -9
6 6 3 36 -3 46 -9 59 -41 92 -20 21 -52 46 -71 56 -19 10 -34 22 -34 26 0 5
-5 8 -11 8 -7 0 -28 10 -48 23 -66 40 -220 79 -338 84 -53 3 -93 9 -93 14 0
14 190 5 199 -9z m-1254 -2 c-3 -5 -19 -7 -35 -3 -34 6 -38 -2 -13 -29 11 -12
30 -18 60 -18 34 0 43 -4 43 -17 0 -10 5 -25 10 -33 8 -11 9 -9 5 10 -3 14 -7
39 -8 56 -2 24 -6 30 -19 26 -10 -2 -18 1 -18 7 0 6 14 11 31 11 26 0 29 -2
20 -14 -9 -11 -9 -20 -2 -34 12 -23 76 -277 85 -342 5 -33 4 -41 -3 -30 -8 11
-11 12 -11 2 0 -11 -15 -13 -60 -10 -45 2 -63 -1 -70 -12 -9 -14 -24 -8 -26
11 -3 23 -6 23 -18 0 l-13 -24 -11 34 c-7 19 -14 55 -16 81 -3 26 -7 52 -10
57 -4 5 -1 11 6 13 9 3 8 9 -5 22 -21 22 -26 43 -30 127 -2 36 -7 71 -11 78
-18 28 2 41 64 41 37 0 59 -4 55 -10z m169 -20 c3 -16 9 -43 12 -60 6 -29 18
-38 28 -22 2 4 -4 27 -15 51 -23 52 -24 61 -3 61 8 0 12 -4 9 -10 -3 -5 -1
-18 4 -27 8 -14 11 -15 11 -3 1 12 3 12 14 -3 8 -10 20 -15 29 -11 8 3 18 1
22 -5 10 -17 21 -13 33 14 13 28 37 25 45 -6 3 -12 14 -19 30 -19 14 0 27 -6
30 -12 3 -10 11 -10 40 0 20 7 41 10 47 7 15 -10 12 -35 -5 -35 -8 0 -15 -9
-15 -20 0 -15 7 -20 25 -20 14 0 25 -5 25 -11 0 -5 5 -7 11 -3 8 4 7 9 -2 15
-18 11 -11 16 35 25 37 6 39 5 33 -15 -4 -16 -1 -21 14 -21 14 0 19 -7 19 -27
1 -25 2 -26 11 -10 8 14 7 23 -4 35 -24 27 -29 58 -13 71 8 7 12 19 9 27 -4
10 0 12 11 8 9 -3 16 -9 16 -13 0 -4 15 -8 34 -9 28 -2 36 2 48 27 10 22 18
27 28 21 12 -7 12 -10 -3 -16 -13 -5 -15 -10 -7 -19 8 -9 4 -17 -14 -28 -18
-12 -26 -13 -29 -4 -3 9 -7 9 -19 0 -8 -7 -19 -9 -23 -5 -5 4 -5 2 -1 -5 4 -7
13 -10 21 -6 21 8 18 -11 -4 -31 -11 -10 -27 -33 -36 -52 -9 -19 -20 -34 -24
-34 -30 0 -8 -91 25 -104 12 -5 12 -2 0 17 -8 12 -17 33 -21 47 -4 17 1 12 17
-14 37 -64 73 -79 201 -85 12 -1 17 -10 17 -33 0 -32 0 -32 -16 -10 -16 24
-60 30 -67 10 -3 -10 -7 -10 -20 1 -9 7 -23 11 -30 8 -7 -3 -21 1 -32 9 -13
10 -22 11 -31 3 -9 -8 -16 -5 -24 10 -12 24 -53 30 -44 7 5 -12 0 -13 -30 -5
-24 7 -49 6 -77 -1 -23 -6 -58 -10 -78 -8 -33 3 -36 1 -39 -24 -4 -31 -22 -39
-22 -10 -1 14 -4 13 -20 -7 -16 -19 -20 -20 -20 -6 0 9 -6 15 -12 12 -7 -2
-12 -10 -10 -17 2 -8 -3 -10 -14 -6 -11 4 -15 2 -11 -8 3 -7 1 -18 -5 -24 -6
-6 -7 -16 -3 -22 4 -7 9 -35 11 -64 l3 -51 -15 60 c-8 33 -40 157 -71 275 -30
118 -58 225 -60 237 -3 12 -13 24 -22 26 -9 3 -5 5 10 6 22 1 28 -4 33 -29z
m-14 -126 c29 -99 121 -524 119 -549 -1 -15 -16 27 -23 61 -12 66 -18 89 -25
99 -16 20 -42 125 -97 385 -39 188 -27 190 26 4z m1882 51 c45 -120 77 -232
88 -305 6 -36 13 -76 16 -90 5 -22 4 -23 -9 -10 -8 8 -29 62 -47 120 -18 58
-39 124 -46 148 -8 23 -14 51 -14 61 0 9 -9 50 -19 90 -25 95 -6 87 31 -14z
m-1141 19 c-21 -27 -27 -70 -13 -89 4 -6 90 -10 220 -10 192 0 215 -2 226 -18
7 -9 19 -17 27 -17 10 1 9 4 -3 14 -26 20 -23 23 27 22 25 -1 45 4 45 9 0 22
-42 76 -72 95 -33 20 -24 29 10 10 9 -5 40 -20 67 -33 87 -42 113 -57 126 -74
12 -14 11 -15 -10 -8 -40 12 -59 -53 -23 -82 16 -14 16 -14 -1 -9 -10 3 -23 6
-28 6 -6 0 -7 5 -4 10 21 34 -38 82 -62 51 -17 -23 -16 -31 5 -31 10 0 19 -7
19 -15 0 -18 3 -18 -42 1 -30 12 -74 15 -245 12 -181 -3 -210 -5 -227 -20 -11
-10 -35 -18 -56 -18 -32 0 -37 3 -37 24 0 19 4 23 19 19 12 -3 17 -11 14 -19
-7 -19 21 -18 38 2 11 14 10 19 -10 35 -17 14 -27 16 -36 9 -10 -8 -22 -6 -45
8 -17 11 -40 17 -51 15 -26 -7 -24 15 4 41 28 26 77 58 77 51 0 -3 10 3 22 15
31 29 43 25 19 -6z m-4893 10 c18 -3 30 -8 28 -13 -3 -4 -1 -25 4 -46 11 -49
2 -66 -17 -31 -18 34 -28 33 -28 -4 0 -16 -3 -28 -6 -27 -3 1 -13 -4 -23 -12
-22 -18 -31 -8 -16 19 18 34 7 51 -24 37 -24 -11 -25 -16 -21 -72 l5 -60 -15
70 c-19 91 -34 125 -54 125 -11 0 -13 3 -4 8 15 9 124 13 171 6z m1622 -10 c0
-3 -21 -36 -47 -73 -123 -175 -153 -220 -153 -229 0 -19 64 -24 224 -18 243 9
603 12 611 4 4 -4 4 -12 0 -18 -5 -7 -46 -11 -123 -10 -146 2 -1151 -9 -1407
-15 -439 -11 -550 -10 -550 6 0 11 28 15 140 19 84 3 139 9 137 15 -2 5 1 11
7 13 6 2 11 -4 11 -13 0 -15 33 -16 423 -10 232 3 431 9 442 13 11 3 30 5 41
3 16 -1 24 6 32 26 5 16 24 49 41 73 18 25 49 70 69 100 64 95 83 120 93 120
5 0 9 -3 9 -6z m-5575 -518 c19 -6 -339 -16 -740 -21 -220 -3 -500 -8 -622
-12 -151 -4 -223 -3 -223 4 0 20 1520 47 1585 29z m6660 -153 c4 -16 15 -52
26 -81 10 -30 19 -62 19 -73 0 -23 -1 -23 41 -5 19 7 40 11 47 9 18 -7 16 56
-3 63 -8 3 -28 1 -45 -5 -17 -5 -28 -6 -25 -1 3 4 20 11 38 15 17 4 40 9 50
11 13 4 17 -1 17 -23 0 -16 10 -46 21 -68 17 -32 19 -43 9 -58 -15 -25 -9 -30
24 -17 15 5 45 10 67 10 22 0 38 4 34 9 -3 5 -1 12 5 16 24 15 6 25 -45 25
-54 0 -55 -1 -49 -25 4 -15 2 -25 -5 -25 -6 0 -11 11 -11 24 0 13 -3 37 -6 52
-5 28 -3 31 44 47 56 21 132 16 153 -10 22 -26 46 -34 75 -23 19 8 30 8 38 0
5 -5 17 -10 26 -10 8 0 32 -9 53 -20 20 -11 44 -20 52 -20 18 0 20 16 3 23 -7
3 -5 6 6 6 10 1 25 -7 32 -16 11 -15 15 -15 22 -5 5 8 22 12 38 10 27 -3 29
-6 36 -62 7 -55 2 -89 -9 -58 -7 19 -30 14 -36 -8 -6 -24 -47 -28 -47 -5 0 18
-14 19 -42 4 -19 -10 -20 -9 -15 10 3 11 1 24 -4 27 -12 7 -149 -17 -149 -26
0 -3 34 -12 75 -19 70 -11 88 -22 66 -35 -14 -9 -54 -10 -78 -2 -18 6 -22 3
-25 -20 -2 -20 -12 -30 -41 -41 -35 -14 -39 -14 -52 3 -22 29 -18 36 14 29 17
-3 32 -2 36 4 3 6 1 11 -4 11 -6 0 -11 5 -11 11 0 6 7 9 15 5 8 -3 15 -1 15 4
0 5 -9 11 -19 15 -12 4 -18 12 -14 21 7 18 -7 18 -32 0 -11 -7 -62 -16 -116
-19 -53 -4 -108 -11 -123 -17 -15 -5 -65 -13 -112 -17 -96 -7 -100 -21 -7 -25
33 -2 59 -6 56 -10 -2 -5 -13 -8 -23 -8 -10 0 -31 -7 -47 -14 -84 -44 -121
-47 -351 -34 -242 14 -332 15 -378 6 -23 -5 -37 -1 -60 17 l-29 24 44 44 c34
36 44 54 48 89 l5 43 94 -2 c89 -1 93 0 84 18 -6 10 -18 19 -28 20 -12 0 -13
2 -4 6 8 3 26 -4 41 -14 27 -20 42 -26 96 -37 24 -5 26 -4 13 4 -10 6 -18 16
-18 23 0 9 2 9 8 1 8 -12 225 -30 241 -19 6 3 4 13 -6 25 -15 17 -40 19 -29 2
2 -4 -40 -7 -95 -7 -54 0 -99 3 -99 8 0 4 -12 7 -27 8 -28 0 -28 0 -5 10 13 5
28 6 34 3 17 -11 192 -4 199 8 9 14 29 1 30 -20 1 -9 5 1 10 23 7 28 6 41 -1
43 -6 2 1 10 16 18 20 11 30 11 40 3 12 -9 14 -1 14 49 0 59 5 69 37 71 7 1
15 -11 18 -26z m3841 -18 c5 -12 27 -15 108 -15 55 0 164 -7 241 -15 77 -8
144 -15 149 -15 6 0 6 -3 0 -9 -8 -8 -72 -12 -172 -11 -13 0 -32 5 -43 10 -10
6 -19 8 -19 5 0 -35 130 -55 226 -35 37 8 53 15 42 19 -10 3 37 7 104 9 67 2
130 8 140 13 19 10 38 5 38 -11 0 -4 -9 -6 -20 -3 -10 3 -26 -1 -34 -9 -14
-14 -78 -23 -376 -53 -165 -16 -465 -28 -400 -15 25 5 97 9 160 9 112 1 174
14 119 24 -53 11 -217 37 -268 43 -54 6 -91 30 -91 59 0 11 12 15 45 15 31 0
47 -5 51 -15z m-12116 -91 c17 -43 -8 -53 -126 -54 -129 0 -160 -6 -169 -34
-8 -21 -8 -21 -12 2 -3 16 6 35 29 62 30 35 37 38 81 38 26 -1 50 2 54 5 3 4
35 7 70 7 59 0 64 -2 73 -26z m7481 -102 c-9 -17 -5 -19 35 -19 38 0 44 3 38
19 -8 26 15 22 27 -5 16 -35 -5 -100 -42 -131 -17 -14 -34 -26 -39 -26 -8 0
-44 50 -38 55 2 1 21 12 43 23 58 30 22 27 -43 -4 -86 -40 -98 1 -22 70 45 40
55 45 41 18z m-6565 -6 c3 -8 21 -17 40 -20 19 -4 34 -11 34 -16 0 -16 -62
-11 -81 6 -10 9 -35 16 -56 17 -21 0 -44 5 -51 10 -9 8 -16 7 -20 0 -5 -7 -56
-10 -154 -8 -147 4 -148 4 -149 -18 0 -21 -1 -21 -8 -2 -7 18 -18 20 -128 20
-70 0 -119 -4 -115 -9 3 -5 0 -6 -6 -2 -31 19 -2 26 116 28 432 10 573 8 578
-6z m129 -183 c-7 -38 -18 -60 -31 -67 -10 -6 -50 -33 -87 -59 -38 -27 -71
-46 -74 -43 -7 7 90 156 121 185 13 12 36 26 52 31 16 4 29 9 30 9 0 1 -5 -25
-11 -56z m8060 7 c26 -50 21 -60 -33 -60 -26 0 -54 -6 -60 -12 -10 -10 -17
-10 -31 -1 -11 7 -40 13 -65 14 -47 3 -78 22 -60 38 9 8 93 31 113 31 6 0 12
-10 12 -22 1 -21 2 -21 6 -3 9 42 13 45 57 45 40 0 47 -3 61 -30z m-7822 -27
c9 -15 -31 -89 -73 -136 -38 -43 -47 -48 -79 -45 -43 4 -47 16 -31 91 12 58
10 57 120 86 45 12 58 13 63 4z m6160 -88 c4 -8 2 -17 -2 -20 -10 -6 -237 -8
-476 -4 l-170 2 105 9 c91 7 346 21 491 26 33 2 49 -2 52 -13z"/>
<path d="M5720 8413 c0 -5 6 -15 13 -22 10 -11 6 -13 -20 -9 -18 3 -33 1 -33
-4 0 -4 11 -8 24 -8 31 0 53 -25 30 -34 -8 -3 -24 -6 -35 -6 -10 0 -19 -4 -19
-10 0 -5 10 -10 23 -10 22 0 23 -2 17 -50 -5 -41 -3 -53 9 -60 13 -8 14 -11 2
-19 -18 -12 3 -24 28 -16 27 8 47 -27 26 -45 -19 -15 -52 -4 -60 21 -6 19 -45
27 -45 9 0 -5 9 -10 20 -10 13 0 22 -9 26 -25 9 -36 29 -49 47 -30 9 8 22 15
29 15 8 -1 5 -7 -7 -16 -14 -11 -16 -18 -7 -21 19 -7 14 -23 -8 -23 -13 0 -20
-7 -20 -20 0 -13 7 -20 20 -20 15 0 20 -7 20 -25 0 -18 -5 -25 -20 -25 -11 0
-20 5 -20 10 0 7 -6 7 -17 2 -10 -5 -24 -7 -30 -5 -16 6 -17 -23 -3 -32 6 -4
18 -1 26 6 19 16 30 4 14 -16 -11 -13 -6 -15 39 -15 44 0 51 3 51 20 0 13 7
20 20 20 16 0 20 7 20 34 0 28 -4 35 -22 39 l-23 4 23 2 c12 0 22 6 22 11 0 6
9 10 20 10 15 0 20 7 20 24 0 22 -5 25 -42 29 l-43 4 43 1 c23 1 42 7 42 12 0
6 9 10 20 10 16 0 20 -7 20 -30 0 -20 -5 -30 -15 -30 -18 0 -20 -39 -2 -41 6
-1 18 -2 25 -3 7 0 16 -7 21 -14 16 -26 22 20 15 120 -6 86 -9 98 -25 98 -11
0 -19 6 -19 14 0 8 -10 17 -22 19 -13 2 -3 5 21 6 l43 1 -8 48 c-4 26 -8 57
-9 69 -2 31 -10 36 -40 29 -29 -7 -34 -27 -6 -23 11 1 20 -1 20 -5 4 -38 1
-40 -39 -33 -38 6 -40 6 -40 -19 0 -19 -5 -26 -20 -26 -13 0 -20 7 -20 20 0
11 5 20 10 20 15 0 12 30 -6 47 -8 9 -34 16 -57 17 -24 1 -48 6 -55 10 -7 4
-12 3 -12 -1z"/>
<path d="M8829 8281 c40 -38 41 -61 1 -61 -23 0 -30 -4 -30 -20 0 -11 -4 -20
-10 -20 -5 0 -10 -8 -10 -19 0 -22 48 -35 82 -21 19 7 16 9 -19 9 -31 1 -43 5
-43 16 0 11 11 15 40 15 35 0 40 3 41 23 1 18 2 17 10 -8 5 -16 7 -40 4 -52
-6 -26 10 -40 19 -17 11 29 7 112 -6 117 -7 2 10 2 37 -1 28 -3 52 -9 53 -13
2 -5 12 -9 23 -9 12 0 19 -7 19 -20 0 -17 -7 -20 -40 -20 -33 0 -40 -3 -40
-20 0 -13 7 -20 20 -20 11 0 20 -4 20 -10 0 -5 -9 -10 -20 -10 -13 0 -20 -7
-20 -20 0 -13 7 -20 20 -20 12 0 20 -7 20 -16 0 -11 -6 -15 -20 -11 -15 4 -20
0 -20 -13 0 -22 -28 -52 -41 -45 -5 4 -9 -3 -9 -15 0 -19 4 -18 45 16 25 20
45 40 45 44 0 4 9 10 20 13 12 3 20 14 20 26 0 14 6 21 20 21 11 0 20 5 20 10
0 6 -9 10 -20 10 -11 0 -20 5 -20 10 0 6 9 10 20 10 18 0 20 7 20 80 l0 80
-40 0 c-29 0 -43 -5 -52 -20 -16 -25 -34 -25 -82 -1 -21 11 -44 17 -51 15 -7
-3 -16 -1 -20 5 -3 6 -13 11 -22 11 -10 0 -5 -10 16 -29z"/>
<path d="M9493 8268 c-23 -6 -33 -15 -33 -28 0 -16 7 -20 34 -20 18 0 39 -7
46 -15 7 -8 23 -15 36 -15 15 0 24 -6 24 -16 0 -10 -7 -14 -24 -12 -27 3 -56
-17 -56 -40 0 -12 10 -14 56 -9 56 6 80 16 57 24 -8 3 -13 22 -13 44 0 34 -5
42 -32 59 l-33 20 34 0 c19 0 31 3 27 7 -10 11 -87 12 -123 1z"/>
<path d="M4400 8080 c0 -17 7 -20 40 -20 33 0 40 -3 40 -20 0 -18 -7 -20 -56
-20 -43 0 -60 4 -70 17 -7 10 -16 15 -20 11 -4 -4 -1 -14 5 -22 10 -11 7 -17
-11 -30 -34 -24 -45 -20 -40 14 3 19 10 30 20 30 31 0 2 13 -35 15 -21 2 -32
1 -25 -2 10 -4 10 -8 1 -19 -6 -8 -7 -14 -2 -14 11 0 33 -44 33 -65 0 -8 -9
-15 -20 -15 -13 0 -20 7 -20 20 0 13 -7 20 -20 20 -13 0 -20 7 -20 20 0 13 -7
20 -20 20 -13 0 -20 -7 -20 -20 0 -29 -37 -27 -43 3 l-4 22 -2 -22 c-1 -16 -7
-23 -21 -23 -16 0 -20 -7 -20 -37 -1 -41 -28 -83 -54 -83 -9 0 -16 -8 -16 -20
0 -13 7 -20 18 -20 11 0 26 -8 35 -18 11 -12 33 -19 64 -21 58 -2 111 -20 138
-44 11 -10 21 -13 23 -7 6 17 29 11 35 -10 3 -12 14 -20 26 -20 12 0 21 -4 21
-9 0 -6 14 -11 32 -13 29 -3 33 -7 44 -53 8 -34 12 -41 13 -24 2 39 21 51 49
29 23 -19 30 -50 11 -50 -5 0 -8 -4 -5 -9 3 -4 17 -6 31 -3 20 3 25 10 25 34
0 29 2 30 31 24 17 -3 35 -6 40 -6 5 0 9 -9 9 -20 0 -13 7 -20 20 -20 16 0 20
7 20 30 0 28 2 30 41 30 50 0 79 15 79 40 0 17 7 20 40 20 33 0 40 3 40 20 0
17 -7 20 -40 20 -33 0 -40 3 -40 20 0 13 -7 20 -20 20 -13 0 -20 7 -20 20 0
13 -7 20 -20 20 -11 0 -20 5 -20 10 0 6 18 10 40 10 38 0 40 2 40 30 0 28 -2
30 -39 30 -33 0 -40 -4 -44 -22 -2 -13 -2 5 1 40 l5 62 -62 0 -61 0 0 40 0 40
-60 0 c-53 0 -60 2 -60 20 0 17 -7 20 -40 20 -33 0 -40 -3 -40 -20z m40 -120
c0 -13 7 -20 20 -20 13 0 20 -7 20 -20 0 -17 7 -20 40 -20 33 0 40 -3 40 -20
0 -17 -7 -20 -40 -20 -33 0 -40 3 -40 20 0 17 -7 20 -40 20 l-40 0 0 -40 c0
-33 -3 -40 -20 -40 -11 0 -20 5 -20 10 0 6 -9 10 -20 10 -11 0 -20 5 -20 10 0
6 -18 10 -40 10 -32 0 -40 -4 -40 -18 0 -9 -9 -23 -19 -29 -16 -10 -20 -9 -25
3 -12 31 -6 44 19 44 18 0 25 5 25 20 0 18 7 20 55 20 48 0 55 2 55 20 0 11 7
20 15 20 8 0 15 9 15 20 0 16 7 20 30 20 23 0 30 -4 30 -20z"/>
<path d="M9520 8075 c0 -9 9 -15 22 -15 21 0 21 0 2 -21 -10 -11 -20 -16 -22
-10 -2 6 -12 11 -23 11 -10 0 -19 6 -19 12 0 7 -10 3 -22 -9 -29 -29 -10 -55
33 -46 18 3 29 1 29 -6 0 -6 9 -11 20 -11 13 0 20 -7 20 -20 0 -13 -7 -20 -20
-20 -11 0 -20 6 -20 14 0 9 -15 17 -40 21 -24 4 -40 12 -40 20 0 9 -16 15 -47
17 -41 3 -48 6 -51 26 -2 12 -6 22 -9 22 -8 0 -43 -44 -53 -67 -11 -27 -54
-40 -83 -24 -43 21 -77 31 -77 21 0 -6 9 -10 20 -10 13 0 20 -7 20 -19 0 -14
9 -20 37 -23 51 -6 83 1 83 20 0 8 7 20 16 27 22 15 64 -3 64 -27 0 -16 11
-18 80 -18 44 0 80 -4 80 -9 0 -4 19 -13 43 -18 l42 -11 -62 -1 c-36 0 -63 3
-63 9 0 6 -9 10 -20 10 -17 0 -20 -7 -20 -50 l0 -50 40 0 c33 0 40 -3 40 -20
0 -15 7 -20 25 -20 18 0 25 -5 25 -20 0 -14 -7 -20 -21 -20 -19 0 -20 -4 -14
-40 4 -26 3 -40 -4 -40 -6 0 -11 -9 -11 -20 0 -17 -7 -20 -40 -20 -22 0 -40
-4 -40 -10 0 -5 9 -10 20 -10 13 0 20 -7 20 -20 0 -13 7 -20 20 -20 11 0 20
-4 20 -9 0 -4 -26 -11 -57 -14 -32 -3 -59 -11 -61 -17 -5 -15 -38 -12 -52 5
-9 10 -9 15 -1 15 6 0 11 14 11 30 0 23 4 30 20 30 13 0 20 7 20 20 0 13 -7
20 -20 20 -11 0 -20 5 -20 10 0 6 -4 10 -10 10 -5 0 -10 -21 -10 -47 0 -55 -5
-65 -40 -83 -17 -9 -25 -10 -28 -1 -7 22 -24 10 -20 -14 3 -14 1 -25 -3 -25
-5 0 -9 6 -9 14 0 8 -6 17 -12 20 -10 5 -10 7 0 12 6 3 12 15 12 27 0 16 3 18
9 8 6 -10 10 -10 16 -2 5 9 13 8 31 -4 21 -14 24 -14 24 0 0 8 -9 15 -20 15
-13 0 -20 7 -20 20 0 13 7 20 20 20 13 0 20 7 20 20 0 13 -7 20 -20 20 -13 0
-20 7 -20 20 0 17 7 20 40 20 33 0 40 3 40 20 0 11 -4 20 -10 20 -5 0 -10 18
-10 40 0 22 5 40 10 40 6 0 10 -11 10 -24 0 -18 7 -25 31 -30 46 -9 49 -8 49
14 0 13 -7 20 -20 20 -11 0 -20 -4 -20 -10 0 -5 -4 -10 -10 -10 -5 0 -10 9
-10 20 0 11 5 20 10 20 6 0 10 7 10 15 0 20 -39 19 -62 -2 -17 -15 -18 -15
-18 5 0 13 8 22 23 25 l22 4 -22 2 c-13 0 -23 6 -23 11 0 6 -9 10 -20 10 -11
0 -20 -7 -20 -15 0 -8 5 -15 11 -15 7 0 8 -13 4 -39 -5 -28 -2 -42 9 -54 21
-21 20 -27 -4 -27 -11 0 -20 -4 -20 -10 0 -5 -14 -10 -32 -10 -25 0 -29 3 -20
12 9 9 3 17 -23 35 -42 29 -46 29 -73 0 -23 -24 -30 -43 -12 -32 6 3 10 -1 10
-9 0 -8 -4 -18 -10 -21 -5 -3 -10 -17 -10 -31 0 -14 -4 -23 -9 -20 -5 4 -20 2
-33 -3 -21 -9 -19 -10 15 -10 20 -1 37 -6 37 -12 0 -14 42 -7 47 8 3 7 -3 9
-15 6 -21 -5 -39 27 -27 47 12 19 32 10 65 -32 19 -23 27 -39 18 -36 -8 4 -22
-2 -31 -12 -15 -18 -14 -19 4 -25 13 -4 19 -15 19 -35 0 -16 6 -30 13 -33 10
-4 10 -7 0 -18 -15 -15 -17 -79 -3 -79 6 0 10 -9 10 -20 0 -35 18 -21 25 19 8
47 31 73 46 50 14 -21 6 -42 -19 -55 -29 -14 -20 -20 38 -26 25 -3 37 -3 28
-1 -10 3 -18 9 -18 15 0 10 75 2 95 -11 10 -6 110 -29 133 -30 6 -1 12 8 12
19 0 18 6 20 83 19 45 -1 72 -4 60 -6 -13 -2 -23 -8 -23 -13 0 -11 49 -19 56
-9 3 5 20 10 37 10 27 2 28 2 7 6 -14 3 -31 10 -38 16 -8 6 -24 12 -35 12 -68
4 -67 3 -67 45 0 33 3 40 20 40 16 0 20 7 20 30 0 23 -4 30 -20 30 -17 0 -20
7 -20 51 0 31 -4 48 -10 44 -11 -7 -14 87 -4 98 4 3 15 2 25 -4 16 -8 24 -4
43 18 24 28 27 48 4 25 -20 -20 -24 -14 -20 23 4 30 1 35 -17 35 -16 0 -21 6
-21 25 0 18 5 25 20 25 17 0 20 7 20 40 l0 40 -43 0 -44 0 5 55 4 55 -41 0
c-30 0 -41 -4 -41 -15z"/>
<path d="M7478 7624 c-5 -4 -8 -16 -8 -26 0 -10 -4 -18 -10 -18 -23 0 -8 -30
18 -36 15 -4 45 -16 67 -27 22 -12 50 -22 63 -24 12 -2 38 -13 57 -24 44 -26
58 -18 38 22 -10 20 -18 27 -23 20 -10 -17 -99 29 -100 52 0 9 7 17 15 17 17
0 19 9 6 28 -9 15 -112 28 -123 16z"/>
<path d="M9451 7324 c-7 -8 -10 -18 -6 -22 3 -3 11 0 16 8 8 11 12 12 16 3 2
-7 13 -13 24 -13 10 0 19 -4 19 -10 0 -5 -9 -10 -20 -10 -11 0 -20 -4 -20 -10
0 -5 -21 -11 -47 -11 -46 -1 -45 -2 17 -10 36 -5 66 -13 68 -19 6 -18 22 -11
22 10 0 31 57 28 63 -2 4 -23 4 -23 6 1 1 20 5 22 24 16 40 -14 127 -18 127
-6 0 6 -11 11 -24 11 -13 0 -29 7 -36 15 -7 8 -23 15 -36 15 -13 0 -24 5 -24
10 0 6 -30 10 -70 10 -54 0 -72 4 -76 15 -8 19 -25 19 -43 -1z"/>
<path d="M3933 7005 c-21 -23 -16 -53 10 -58 l22 -4 -22 -2 c-13 0 -23 -5 -23
-11 0 -5 -9 -10 -20 -10 -11 0 -20 5 -20 10 0 6 -4 10 -10 10 -5 0 -10 -18
-10 -40 0 -22 5 -40 10 -40 6 0 10 5 10 10 0 15 29 12 46 -4 8 -8 14 -22 14
-30 0 -9 5 -16 10 -16 6 0 10 -8 10 -18 0 -11 12 -24 28 -31 23 -10 25 -10 10
2 -10 8 -18 22 -18 31 0 9 -4 16 -10 16 -5 0 -10 9 -10 20 0 13 7 20 20 20 11
0 20 -6 20 -14 0 -8 10 -16 23 -18 12 -2 26 -13 32 -25 11 -27 27 -29 45 -8
10 12 15 13 21 4 10 -16 159 -26 159 -10 0 6 -9 11 -20 11 -16 0 -20 7 -20 30
0 23 4 30 20 30 11 0 20 5 20 10 0 6 -9 10 -20 10 -11 0 -20 5 -20 10 0 6 -20
10 -44 10 -42 0 -44 1 -51 36 -6 35 3 62 12 37 3 -7 14 -13 26 -13 28 -1 57
-23 57 -44 0 -9 5 -16 10 -16 10 0 14 20 10 54 -1 10 4 22 11 27 24 15 -5 23
-61 18 -8 -1 -32 2 -52 6 -31 6 -38 4 -38 -9 0 -12 -10 -16 -40 -16 -22 0 -40
-4 -40 -10 0 -15 -29 -12 -46 4 -8 8 -14 22 -14 30 0 20 -31 20 -47 1z"/>
<path d="M4640 6766 c0 -18 -7 -26 -22 -29 l-23 -4 23 -2 c26 -1 30 -21 4 -21
-31 0 -62 -33 -55 -59 4 -18 11 -21 29 -17 14 4 24 2 24 -4 0 -5 -22 -10 -50
-10 -29 0 -50 5 -50 11 0 6 9 8 20 4 11 -4 20 -2 20 4 0 6 -7 11 -15 11 -9 0
-18 12 -21 30 -5 23 -12 30 -28 29 -15 -1 -16 -3 -5 -6 9 -2 19 -15 21 -28 4
-21 0 -25 -34 -30 -21 -4 -38 -11 -38 -16 0 -5 -9 -9 -20 -9 -11 0 -20 5 -20
10 0 6 -18 10 -40 10 -33 0 -40 3 -40 20 0 17 -7 20 -40 20 -22 0 -40 5 -40
10 0 6 -17 10 -38 10 -28 0 -44 6 -60 25 -25 29 -86 36 -80 9 2 -8 6 -14 9
-12 11 6 39 -25 39 -43 0 -11 7 -19 15 -19 8 0 15 -9 15 -20 0 -13 -7 -20 -20
-20 -11 0 -20 -5 -20 -11 0 -7 11 -9 30 -5 17 3 30 1 30 -4 0 -14 13 -12 36 6
18 15 18 15 -8 9 -21 -4 -28 -2 -28 10 0 12 15 15 80 15 44 0 80 -4 80 -8 0
-4 -20 -28 -45 -52 -25 -24 -45 -47 -45 -50 0 -3 16 -5 36 -6 20 0 40 -7 46
-15 7 -11 9 -9 5 9 -3 15 0 22 9 22 8 0 14 -9 14 -20 0 -11 5 -20 10 -20 6 0
10 9 10 20 0 11 5 20 10 20 12 0 13 -159 1 -178 -5 -8 -4 -23 2 -37 10 -20 21
-23 96 -29 46 -3 86 -4 89 -1 9 8 -30 45 -41 38 -6 -3 -7 -1 -3 5 12 20 46 13
73 -14 24 -24 35 -27 120 -31 l93 -4 0 76 c0 68 -2 75 -20 75 -11 0 -20 5 -20
10 0 6 -7 10 -15 10 -18 0 -18 -4 0 45 16 46 20 115 5 115 -5 0 -10 9 -10 20
0 11 -4 20 -10 20 -5 0 -10 9 -10 20 0 11 7 20 15 20 16 0 20 35 9 64 -8 21
-24 20 -24 -1 0 -14 -3 -13 -20 5 -29 30 -60 29 -60 -2z"/>
<path d="M10477 5590 c-26 -16 -56 -30 -67 -30 -11 0 -44 -9 -74 -20 -49 -19
-55 -25 -71 -68 -23 -66 -38 -167 -33 -234 2 -32 1 -58 -4 -58 -4 0 -8 -7 -8
-15 0 -8 4 -15 9 -15 5 0 7 -8 4 -19 -5 -21 12 -37 22 -21 11 18 25 10 25 -15
0 -16 6 -25 15 -25 11 0 15 12 15 45 0 36 5 48 25 61 13 8 28 13 34 10 5 -4
19 6 32 21 12 16 24 23 26 17 2 -6 10 -19 17 -30 13 -17 15 -17 40 0 23 14 26
22 21 47 -5 22 -3 29 9 29 10 0 16 -9 16 -22 l0 -23 19 24 c13 17 23 22 39 16
12 -3 22 -10 22 -15 0 -5 9 -14 21 -21 19 -10 20 -9 14 12 -7 20 -6 20 10 8 9
-8 24 -21 32 -31 9 -9 23 -14 31 -11 13 5 14 -6 10 -75 -4 -64 -2 -79 8 -71 6
5 15 26 19 47 4 20 15 56 26 79 30 67 21 178 -19 232 -10 14 -32 35 -48 46
-16 11 -30 24 -31 28 -3 12 -49 47 -62 47 -6 0 -17 11 -23 25 -6 14 -17 25
-23 25 -7 0 -18 7 -25 15 -17 20 -19 20 -73 -15z"/>
<path d="M10892 5426 c-49 -56 -39 -139 20 -180 32 -23 38 -20 38 19 0 19 5
35 10 35 6 0 10 -7 10 -15 0 -25 32 -91 37 -77 3 6 12 12 20 12 11 0 13 5 8
18 -14 32 -17 62 -7 62 5 0 15 -20 22 -45 14 -50 36 -63 27 -15 -4 16 -1 43 5
60 13 38 -5 110 -33 136 -11 10 -42 19 -72 22 -51 4 -54 3 -85 -32z"/>
<path d="M6943 5152 c-91 -30 -128 -58 -163 -127 -28 -54 -24 -96 20 -210 35
-90 57 -128 69 -120 12 7 19 -34 11 -64 -3 -14 -11 -26 -18 -29 -7 -2 -10 2
-6 12 4 11 1 16 -11 16 -11 0 -15 -7 -13 -22 2 -18 10 -23 36 -25 26 -1 32 2
28 14 -7 18 12 46 25 37 5 -3 9 -14 9 -25 0 -13 7 -19 21 -19 15 0 20 5 17 23
-2 14 2 22 12 22 9 0 14 -7 12 -17 -5 -33 38 -22 49 12 13 36 23 38 45 6 17
-27 39 -25 47 5 7 27 37 36 52 16 13 -18 65 -24 65 -8 0 5 -7 14 -15 21 -8 7
-13 15 -11 19 2 3 7 38 11 76 6 70 6 70 -30 110 -21 24 -38 55 -41 77 -6 32
-9 35 -24 26 -9 -6 -26 -8 -36 -4 -15 6 -16 9 -4 16 8 5 18 6 22 4 4 -3 8 2 8
10 0 8 6 14 13 12 6 -1 9 -1 5 1 -5 3 -8 13 -8 24 0 14 -7 19 -29 19 -17 0
-31 6 -35 16 -5 13 -2 15 11 9 10 -4 29 -10 43 -12 23 -4 26 -2 25 29 0 28 -5
36 -35 50 -59 28 -90 28 -177 0z"/>
<path d="M6671 4208 c-1 -27 -5 -48 -11 -48 -5 0 -10 14 -10 30 0 17 -5 30
-10 30 -11 0 -3 -74 12 -102 5 -11 2 -66 -8 -144 -11 -84 -13 -129 -6 -136 7
-7 14 2 23 26 7 20 16 36 20 36 8 0 15 29 25 95 3 22 7 51 9 65 2 14 6 52 9
85 5 49 4 56 -6 38 -16 -33 -26 -28 -33 15 -10 58 -13 61 -14 10z"/>
<path d="M9467 3910 c-27 -5 -57 -16 -66 -24 -10 -9 -23 -16 -29 -16 -6 0 -14
-9 -17 -20 -3 -11 -12 -20 -20 -20 -24 0 -26 -30 -2 -40 21 -8 21 -9 -5 -9
-15 -1 -30 -6 -34 -13 -11 -17 51 -68 84 -68 34 0 87 32 103 62 6 13 20 32 30
43 28 31 10 46 -59 48 -73 2 -68 18 13 37 30 7 55 17 55 22 0 4 -1 7 -2 7 -2
-1 -25 -5 -51 -9z"/>
<path d="M9575 3792 c-16 -12 -18 -45 -2 -57 19 -14 30 -52 17 -60 -5 -3 -26
0 -46 7 -32 11 -39 10 -74 -10 -22 -12 -48 -22 -59 -22 -11 0 -23 -4 -26 -10
-3 -5 -2 -10 4 -10 5 0 16 -7 24 -15 22 -21 107 -65 127 -65 24 0 32 -11 18
-27 -9 -11 -9 -16 2 -23 7 -4 10 -15 7 -24 -7 -18 1 -20 22 -7 12 8 12 12 2
25 -10 12 -9 17 9 26 11 6 25 8 30 5 16 -10 12 -55 -5 -55 -9 0 -12 -6 -9 -15
4 -8 2 -15 -3 -15 -5 0 -18 -6 -28 -14 -17 -13 -17 -13 10 -12 21 1 31 -4 33
-16 2 -11 -3 -18 -12 -18 -9 0 -16 -5 -16 -10 0 -6 11 -8 25 -4 20 5 24 3 19
-10 -3 -9 -12 -16 -20 -16 -8 0 -14 -4 -14 -10 0 -14 0 -14 103 24 51 19 109
38 129 41 21 4 35 11 32 16 -5 9 0 11 29 13 6 1 14 10 17 21 4 12 17 22 35 26
26 4 27 6 10 12 -11 4 -22 6 -25 5 -11 -4 -70 37 -70 48 0 20 -48 53 -70 47
-26 -7 -54 23 -58 61 -6 63 -5 88 4 95 12 8 37 64 27 59 -5 -2 -21 -10 -36
-18 -26 -13 -30 -12 -38 3 -12 21 -59 23 -59 3 0 -9 -7 -12 -20 -9 -11 3 -20
9 -20 14 0 11 -11 11 -25 1z"/>
<path d="M11552 2306 c-12 -6 -25 -18 -27 -26 -3 -8 -28 -26 -55 -39 -28 -13
-50 -28 -50 -32 0 -3 -14 -9 -30 -11 -19 -3 -29 -1 -27 6 2 6 16 12 31 14 19
2 26 8 24 20 -2 12 -13 16 -38 14 -95 -6 -137 -23 -90 -35 11 -3 20 -12 20
-21 0 -19 -4 -19 -48 -7 -32 9 -32 9 -32 -24 0 -18 3 -41 6 -49 6 -15 7 -15
18 -1 9 13 17 14 38 6 20 -7 28 -7 31 3 5 12 76 37 119 41 30 4 48 14 48 28 0
8 7 14 15 14 8 0 15 -4 15 -9 0 -4 11 -8 25 -8 14 0 25 5 25 10 0 6 -10 10
-23 10 -13 0 -26 3 -29 6 -10 10 4 44 18 44 8 0 14 4 14 9 0 5 7 17 16 26 21
20 16 24 -14 11z"/>
<path d="M0 1398 c0 -89 3 -115 16 -129 13 -14 21 -16 35 -8 17 9 18 7 8 -17
-8 -23 -5 -37 17 -81 15 -29 29 -52 31 -50 7 7 -10 97 -18 97 -15 0 -10 22 8
35 16 12 25 51 24 104 -1 25 -19 44 -33 35 -4 -3 -8 3 -8 13 0 23 -49 100 -67
107 -10 4 -13 -19 -13 -106z"/>
</g>
</svg>
