<?xml version="1.0" standalone="no"?>
<!DOCTYPE svg PUBLIC "-//W3C//DTD SVG 20010904//EN"
 "http://www.w3.org/TR/2001/REC-SVG-20010904/DTD/svg10.dtd">
<svg version="1.0" xmlns="http://www.w3.org/2000/svg"
 width="1600.000000pt" height="900.000000pt" viewBox="0 0 1600.000000 900.000000"
 preserveAspectRatio="xMidYMid meet">
<metadata>
Created by potrace 1.16, written by Peter Selinger 2001-2019
</metadata>
<g transform="translate(0.000000,900.000000) scale(0.100000,-0.100000)"
fill="#000000" stroke="none">
<path d="M0 4995 l0 -4005 78 -1 c42 0 230 -2 417 -5 308 -4 342 -7 365 -23
14 -10 27 -27 29 -37 3 -18 2 -18 -15 -3 -31 27 -87 41 -117 30 -17 -7 -158
-8 -392 -4 l-365 6 0 -71 0 -71 143 -4 142 -3 -142 -2 -143 -2 0 -348 0 -349
332 -7 c183 -4 337 -11 342 -16 4 -4 11 -23 15 -42 l7 -33 879 -2 c769 -2 880
-1 888 12 10 19 37 19 37 0 0 -13 23 -15 145 -15 l145 0 6 27 c10 47 14 54 24
48 17 -10 34 6 19 17 -10 7 -6 8 11 3 14 -3 80 -9 147 -12 110 -5 130 -3 190
17 100 33 189 81 271 144 95 74 113 90 278 257 176 178 270 246 374 270 19 5
117 13 217 19 152 8 195 14 259 35 192 64 296 180 238 263 -8 12 -23 22 -32
22 -9 1 -28 7 -42 15 l-25 14 23 1 c29 0 71 -21 96 -49 26 -29 17 -99 -19
-147 -19 -25 -25 -42 -21 -59 4 -17 2 -23 -9 -21 -8 1 -18 5 -21 9 -12 12 -24
8 -24 -8 0 -9 -7 -18 -15 -21 -8 -4 -13 -9 -10 -14 2 -4 -7 -5 -20 -2 -13 2
-55 -5 -93 -17 -80 -24 -214 -41 -328 -41 -109 0 -187 -16 -264 -53 -54 -26
-103 -69 -281 -242 -232 -226 -328 -300 -469 -361 -102 -45 -171 -56 -291 -48
-108 7 -139 -2 -139 -41 l0 -25 943 4 c518 2 972 4 1009 4 l67 1 -12 25 c-13
26 -33 36 -79 36 -17 0 -31 8 -39 21 -8 16 -8 20 0 14 17 -10 89 5 107 22 13
14 16 14 28 -3 13 -16 15 -15 35 24 12 23 26 42 31 42 5 0 10 10 12 22 2 13
10 23 18 23 8 0 23 8 34 19 18 18 19 17 51 -49 18 -38 30 -76 28 -86 -3 -9 0
-20 6 -23 19 -12 29 28 27 103 -3 73 5 107 42 190 19 41 19 48 6 73 -12 24
-18 27 -34 18 -27 -14 -27 -14 -40 26 -7 20 -18 48 -26 62 -23 44 -15 69 14
40 15 -15 27 13 19 43 -3 11 1 35 8 52 14 31 14 29 15 -48 0 -78 5 -94 43
-148 27 -37 32 -90 13 -128 -9 -17 -16 -46 -16 -63 l0 -31 16 30 c17 33 34 54
34 41 0 -15 -35 -70 -55 -87 -17 -14 -20 -31 -21 -99 -1 -45 -6 -86 -11 -91
-5 -5 -7 -25 -5 -44 l4 -35 1215 0 c1210 0 1214 0 1208 20 -4 11 -2 20 4 20 6
0 11 -9 11 -20 0 -20 7 -20 591 -20 l591 0 -4 25 c-3 14 -1 25 3 25 5 0 9 -11
9 -25 0 -24 2 -25 73 -25 l73 0 -3 323 c-1 187 2 305 7 282 9 -44 15 -234 12
-385 0 -56 2 -89 8 -81 10 17 25 -88 17 -119 -4 -17 0 -20 28 -20 31 0 35 3
39 32 3 18 5 101 4 183 -1 200 1 259 8 253 3 -3 5 -110 4 -237 l0 -231 600 0
c398 0 599 3 595 10 -3 5 -1 10 4 10 6 0 11 -4 11 -10 0 -7 637 -10 1890 -10
1040 0 1890 2 1890 5 0 4 -7 20 -16 36 -29 57 -10 67 21 12 l30 -53 520 0 521
0 86 30 c47 17 108 33 135 36 45 6 47 5 28 -9 -11 -9 -26 -17 -33 -17 -18 0
-112 -31 -112 -37 0 -2 81 -3 180 -3 177 2 180 2 181 23 l0 22 9 -22 c9 -23
11 -23 230 -23 l220 0 0 135 c0 83 -4 135 -10 135 -5 0 -44 -12 -85 -26 -42
-14 -79 -24 -82 -20 -7 7 41 26 66 26 10 0 21 3 25 7 4 5 24 13 44 18 l37 11
2 817 c2 534 -1 817 -7 817 -6 0 -9 14 -8 30 1 17 6 30 10 30 13 0 9 68 -4 72
-9 3 -9 21 0 76 18 108 17 112 -20 111 -78 -3 -280 15 -282 25 -2 6 -17 55
-34 109 -31 95 -32 97 -13 116 11 11 27 35 36 55 17 36 18 36 80 36 56 0 63 2
69 22 6 22 7 22 20 5 19 -25 36 -21 36 8 0 14 5 25 10 25 6 0 10 -12 10 -26 0
-23 3 -25 33 -22 29 3 32 6 32 38 0 25 5 36 18 38 16 3 17 24 17 308 -1 294
-2 304 -20 304 -15 0 -19 5 -16 23 3 12 5 32 5 45 1 13 7 22 16 22 13 0 15
319 15 2815 l0 2814 -489 1 -489 0 -4 -72 c-2 -40 -1 -91 2 -113 6 -44 -24
-121 -64 -162 -11 -11 -34 -39 -51 -62 -23 -31 -37 -40 -60 -41 -18 0 -35 -7
-42 -19 -10 -16 -23 -18 -116 -15 -85 3 -107 1 -118 -12 -11 -13 -24 -3 -101
77 -74 78 -88 98 -88 126 0 25 -4 33 -18 33 -21 0 -42 18 -42 37 0 8 9 26 19
41 22 31 38 142 20 142 -6 0 -9 9 -6 20 6 22 -12 27 -31 8 -9 -9 -12 -9 -12 0
0 9 -433 12 -1920 12 -1737 0 -1920 -1 -1920 -16 0 -11 6 -14 23 -9 21 7 21 6
3 -7 -18 -14 -18 -15 3 -13 13 1 26 7 30 14 10 16 187 26 196 11 3 -5 -12 -12
-35 -16 -23 -4 -44 -13 -47 -20 -2 -7 -18 -17 -34 -23 -32 -11 -36 -33 -20
-103 5 -22 5 -40 -1 -46 -6 -6 -6 -12 0 -16 6 -3 17 0 24 7 31 31 88 3 88 -43
0 -37 9 -60 24 -60 18 0 66 24 66 33 0 14 33 7 45 -10 11 -15 14 -13 29 16 12
22 22 31 32 27 9 -3 18 -6 20 -6 9 0 3 -49 -7 -56 -12 -7 -4 -51 13 -71 8 -10
18 -6 45 17 32 29 35 29 58 14 27 -17 29 -23 17 -40 -12 -18 -45 -29 -87 -29
l-40 0 -3 -52 c-3 -44 -1 -52 13 -47 8 4 18 17 21 31 6 24 9 25 60 18 35 -4
54 -3 54 4 0 6 6 8 14 5 9 -3 17 3 21 15 11 36 23 23 23 -26 0 -28 6 -51 14
-58 7 -5 15 -26 16 -45 2 -26 0 -31 -7 -20 -9 12 -11 11 -11 -6 0 -22 -28 -54
-47 -54 -6 0 -13 12 -16 27 -3 19 1 31 16 43 25 20 18 46 -15 52 -36 6 -56 -1
-60 -23 -4 -26 -22 -25 -26 1 -4 25 -23 26 -52 0 -13 -11 -31 -20 -40 -20 -13
0 -19 -10 -22 -37 -3 -21 -1 -41 4 -44 12 -8 -15 -59 -32 -60 -52 -5 -62 -8
-80 -24 -11 -10 -20 -26 -20 -35 0 -10 -7 -23 -16 -31 -14 -11 -12 -14 11 -27
20 -10 26 -20 23 -36 -3 -12 1 -28 9 -34 8 -8 13 -9 13 -2 0 6 12 4 30 -5 27
-14 29 -18 16 -30 -8 -8 -20 -15 -26 -15 -17 0 -60 42 -60 60 0 9 -6 5 -14
-10 -9 -16 -11 -30 -5 -42 12 -22 2 -46 -22 -53 -10 -4 -20 -15 -20 -26 -1
-10 -2 -22 -4 -26 -1 -5 -5 -25 -9 -45 -9 -39 -36 -53 -36 -19 0 11 -6 22 -12
25 -9 3 -7 9 6 20 11 9 16 19 11 23 -4 5 -10 3 -12 -4 -3 -8 -15 -10 -35 -6
-27 5 -30 4 -24 -15 5 -13 1 -30 -8 -44 -9 -12 -16 -31 -16 -41 0 -30 -33 -16
-52 23 -10 20 -18 28 -18 18 0 -10 -7 -18 -15 -18 -8 0 -15 -6 -15 -14 0 -17
-41 -44 -57 -39 -7 3 -13 15 -13 28 0 26 -29 48 -47 37 -6 -4 -13 -16 -17 -27
-11 -37 -55 -75 -87 -75 -42 0 -71 17 -64 39 3 9 -1 26 -9 36 -10 14 -11 24
-4 32 14 17 55 16 65 -1 4 -8 17 -16 28 -18 17 -3 21 5 27 52 7 58 3 90 -13
90 -5 0 -9 -11 -9 -24 0 -17 -7 -25 -24 -28 -19 -4 -27 2 -40 29 -18 38 -21
90 -6 95 6 2 12 42 15 89 2 47 8 103 13 125 5 21 7 56 4 77 -3 29 -1 37 12 37
9 0 16 5 16 10 0 6 -4 10 -10 10 -5 0 -10 11 -10 24 0 33 -25 53 -45 36 -11
-9 -15 -33 -15 -90 0 -51 -4 -80 -12 -82 -7 -3 -9 -11 -4 -24 16 -37 16 -82 0
-88 -19 -7 -68 15 -53 24 6 4 14 28 16 54 3 25 11 46 17 46 6 0 3 5 -6 10 -13
8 -15 16 -7 43 6 22 5 41 -3 60 -8 20 -8 31 -1 35 22 14 15 92 -8 92 -5 0 -9
-6 -9 -14 0 -7 -7 -19 -15 -26 -8 -7 -15 -27 -15 -44 0 -17 -8 -54 -19 -83
-10 -29 -15 -55 -10 -60 5 -5 1 -37 -10 -73 -20 -69 -20 -69 -36 12 -1 9 1 50
5 90 5 46 5 77 -2 85 -5 7 -7 16 -4 22 8 12 -4 71 -14 71 -5 0 -11 -13 -15
-30 -6 -26 -11 -30 -38 -30 -18 0 -39 5 -47 10 -13 9 -13 12 1 23 15 12 39 49
39 62 0 13 -53 25 -65 15 -14 -11 -25 -3 -25 18 0 10 7 12 25 8 18 -5 25 -2
25 8 0 9 9 20 21 26 11 7 18 17 15 25 -7 20 32 26 47 6 6 -9 17 -20 24 -24 14
-9 53 26 53 48 0 8 7 15 15 15 25 0 28 27 7 57 -20 29 -19 47 4 73 11 13 11
20 0 41 -12 23 -11 27 6 38 28 18 19 53 -15 62 -43 12 -54 3 -55 -46 0 -24 -4
-51 -10 -60 -12 -22 -3 -73 9 -53 6 9 9 2 9 -19 0 -40 -30 -73 -65 -73 -28 0
-34 17 -9 27 26 10 37 53 19 73 -11 12 -13 20 -6 25 16 9 13 36 -4 49 -17 12
-21 39 -10 74 6 19 4 22 -18 22 -18 0 -26 -7 -31 -25 -5 -20 -13 -25 -36 -25
-35 0 -42 29 -10 37 11 3 17 9 14 14 -8 14 -208 11 -222 -3 -10 -10 -17 -10
-32 0 -14 8 -77 12 -211 12 l-191 0 -11 -29 c-6 -16 -20 -32 -31 -35 -17 -4
-18 -8 -8 -18 8 -8 15 -9 20 -3 6 10 15 11 40 6 4 -1 -8 -9 -26 -18 -19 -9
-38 -26 -42 -39 -13 -33 -24 -36 -72 -18 -24 8 -53 18 -65 21 -13 3 -23 10
-23 15 0 5 -5 6 -10 3 -8 -5 -8 -11 0 -19 15 -19 1 -76 -19 -76 -9 0 -21 -4
-27 -9 -5 -5 -20 -11 -34 -13 -31 -4 -64 -33 -55 -47 7 -13 -29 -64 -39 -54
-11 11 -6 33 7 33 8 0 14 6 14 14 0 18 -50 32 -55 17 -2 -6 -14 -11 -26 -11
-12 0 -27 -5 -32 -10 -8 -8 -15 -6 -24 5 -7 8 -22 15 -33 15 -11 0 -17 -3 -14
-7 4 -3 2 -12 -3 -18 -10 -12 -136 -12 -148 0 -11 10 22 25 48 22 31 -4 50 14
50 47 0 24 -1 25 -52 19 l-51 -6 7 44 c4 24 9 66 11 93 3 27 10 55 16 62 9 12
4 14 -30 14 -34 0 -41 -3 -41 -19 0 -11 7 -27 16 -36 14 -13 15 -21 5 -42 -7
-15 -17 -23 -26 -20 -9 4 -17 -4 -23 -21 l-10 -27 -11 28 c-6 15 -15 27 -20
27 -5 0 -14 -12 -19 -27 -9 -28 -9 -28 -16 -5 -5 16 -13 21 -25 17 -24 -7 -53
4 -44 18 4 6 7 33 7 59 l1 48 -76 0 -76 0 2 -30 c2 -34 -6 -43 -29 -34 -20 8
-20 23 1 46 16 17 -2 18 -530 18 -511 0 -546 -1 -550 -17 -2 -10 -4 -54 -3
-98 1 -77 2 -80 24 -77 20 3 21 1 10 -22 -6 -14 -15 -26 -20 -26 -4 0 -8 -9
-8 -20 0 -11 5 -20 10 -20 6 0 10 7 10 16 0 11 5 14 16 10 13 -5 14 -1 10 22
-6 28 8 62 20 49 5 -4 8 -23 8 -42 0 -19 4 -35 8 -35 16 0 7 -58 -12 -75 -19
-17 -20 -17 -29 9 -6 14 -13 26 -15 26 -3 0 -12 -16 -21 -35 -13 -25 -14 -41
-8 -62 9 -26 10 -27 17 -7 9 29 51 47 66 29 18 -22 2 -55 -30 -62 -39 -7 -51
-42 -54 -152 -1 -50 -7 -96 -12 -101 -18 -18 -42 0 -51 36 -14 62 -28 43 -30
-45 -2 -46 -7 -89 -13 -95 -6 -9 -6 -16 3 -25 9 -9 9 -14 -3 -21 -20 -13 -47
-12 -56 1 -4 8 -13 4 -25 -12 -17 -22 -18 -23 -25 -5 -4 10 -17 30 -30 43 -16
18 -21 30 -15 41 10 17 3 52 -10 52 -5 0 -9 -11 -9 -24 0 -14 -5 -28 -10 -31
-6 -4 -9 -20 -6 -36 4 -26 1 -29 -22 -29 -15 0 -39 -7 -54 -14 -32 -17 -35
-10 -12 22 15 22 12 42 -7 42 -5 0 -9 -11 -9 -25 0 -45 -15 -26 -26 33 -7 38
-8 62 -1 73 6 9 7 28 2 45 -8 25 -9 26 -12 8 -2 -12 -13 -30 -23 -39 -17 -16
-18 -20 -5 -45 12 -23 12 -30 1 -39 -14 -12 -46 -5 -58 13 -4 6 -11 6 -20 -2
-8 -7 -19 -7 -28 -2 -8 5 -12 10 -10 12 3 2 13 8 24 13 14 8 19 25 22 85 3 41
9 77 14 80 13 8 1 70 -14 70 -17 0 -12 130 5 141 12 8 11 11 -2 19 -16 9 -20
54 -7 76 3 5 2 32 -3 59 -6 28 -10 58 -10 68 0 9 -5 17 -11 17 -6 0 -8 -9 -5
-20 3 -11 1 -23 -4 -26 -13 -8 -11 -42 4 -47 9 -3 9 -7 0 -18 -8 -10 -9 -34
-4 -77 4 -34 4 -62 -1 -62 -4 0 -8 5 -8 11 0 7 -12 10 -30 7 -26 -4 -30 -1
-30 19 0 13 5 23 10 23 6 0 10 4 10 8 0 16 -107 34 -129 23 -28 -16 -51 -13
-51 4 0 31 -31 28 -62 -5 -20 -23 -32 -29 -37 -21 -6 9 -15 8 -37 -4 -16 -8
-39 -15 -52 -15 -19 0 -21 3 -12 19 15 28 12 61 -5 67 -10 4 -15 20 -15 46 0
27 -4 38 -12 35 -8 -2 -13 -22 -13 -48 0 -24 -4 -50 -8 -56 -4 -7 -3 -21 3
-32 15 -29 13 -37 -16 -56 -18 -12 -29 -13 -38 -6 -24 20 -41 -13 -26 -48 15
-37 7 -51 -30 -51 -58 0 -60 -4 -60 -104 0 -51 3 -96 6 -99 4 -3 15 -2 26 4
25 13 48 -10 48 -50 0 -16 5 -33 10 -36 6 -3 10 -19 10 -34 0 -39 19 -55 41
-35 23 21 39 10 39 -25 0 -22 -7 -31 -30 -41 -16 -7 -30 -18 -30 -25 0 -8 -5
-15 -11 -17 -9 -3 -9 -10 0 -27 10 -18 10 -30 -3 -61 -14 -35 -14 -39 3 -54
24 -22 29 -20 33 11 4 37 31 41 44 6 13 -38 6 -133 -11 -133 -19 0 -37 27 -37
55 0 28 -15 32 -43 11 -18 -13 -19 -17 -6 -51 11 -32 11 -39 -1 -51 -8 -8 -21
-12 -30 -9 -12 5 -14 20 -11 83 3 42 9 84 13 93 6 10 5 20 -3 28 -10 10 -13
47 -20 258 -2 73 -8 90 -26 79 -7 -4 -9 -61 -6 -159 3 -84 5 -161 6 -172 1
-47 -11 -268 -15 -272 -2 -3 -12 12 -21 31 -12 25 -16 49 -11 75 7 47 1 54
-30 34 -27 -17 -32 -43 -9 -43 18 0 20 -17 4 -22 -7 -2 -11 -26 -10 -61 0 -31
-2 -57 -5 -57 -4 0 -22 9 -41 21 -33 21 -63 20 -63 -1 0 -6 4 -9 9 -5 5 3 13
0 17 -6 4 -6 -1 -16 -10 -21 -9 -5 -14 -13 -11 -18 3 -5 1 -11 -5 -15 -5 -3
-10 3 -10 14 0 11 -7 27 -16 35 -14 15 -18 14 -45 -15 -25 -27 -34 -31 -64
-26 -26 4 -35 2 -35 -9 0 -17 -5 -17 -28 -3 -12 8 -17 20 -14 34 4 26 -9 38
-32 29 -18 -7 -22 -25 -5 -21 6 1 14 -4 16 -10 3 -7 0 -13 -6 -13 -6 0 -11 -9
-11 -20 0 -11 -4 -20 -8 -20 -15 0 -32 24 -32 44 0 12 -5 28 -10 36 -9 13 -11
13 -20 0 -5 -8 -6 -26 -3 -39 5 -22 3 -23 -18 -18 -13 4 -27 7 -31 7 -5 0 -8
11 -8 24 0 20 -7 25 -44 35 -24 6 -49 18 -57 28 -12 15 -12 16 4 10 13 -5 17
-1 17 18 0 30 -18 77 -33 87 -17 10 -29 -1 -22 -22 4 -11 -3 -23 -19 -34 -14
-8 -27 -12 -29 -8 -6 10 -2 45 7 60 4 6 4 16 1 22 -12 19 -18 55 -18 98 0 28
-4 42 -12 42 -9 0 -16 -22 -20 -65 -6 -48 -11 -65 -22 -65 -12 0 -15 9 -11 44
3 25 2 48 -2 53 -11 11 -21 271 -11 277 4 3 16 0 26 -7 14 -11 17 -29 17 -115
-1 -56 3 -104 8 -107 5 -3 16 5 24 17 14 20 14 24 0 46 -12 19 -14 29 -5 46
13 27 16 47 8 66 -3 8 -8 33 -9 54 -3 38 -28 66 -28 31 0 -17 -30 -17 -42 0
-11 14 -10 85 1 85 5 0 11 -13 14 -29 5 -24 10 -28 27 -24 11 3 23 16 26 29 6
25 39 34 46 13 2 -7 19 2 38 20 34 31 34 31 17 60 -21 36 -21 41 -2 41 8 0 15
-9 15 -19 0 -11 5 -23 10 -26 6 -3 10 -22 10 -41 0 -19 4 -34 10 -34 15 0 24
-49 11 -63 -6 -8 -7 -24 -2 -43 7 -25 9 -26 14 -9 9 31 12 79 5 90 -3 6 -2 34
3 63 4 29 6 58 4 65 -3 7 -1 19 4 27 8 12 13 12 35 1 22 -12 29 -12 50 2 15
11 23 23 20 34 -4 15 -13 18 -46 15 -48 -5 -59 7 -56 63 l2 40 -61 -2 c-46 -2
-62 1 -67 12 -3 9 0 15 9 15 8 0 19 8 24 18 7 14 18 17 45 14 31 -4 36 -1 42
22 3 15 4 35 1 46 -3 11 1 24 8 30 15 12 45 3 45 -14 1 -6 9 -1 19 12 24 27
38 28 46 2 3 -11 10 -20 15 -20 14 0 19 27 7 40 -9 10 -9 14 1 17 6 3 12 11
12 19 0 17 -5 17 -30 2 -24 -15 -28 -12 -36 40 -5 34 -4 42 9 42 8 0 18 6 20
13 4 10 6 10 6 0 1 -7 8 -13 16 -13 10 0 15 10 15 30 0 17 5 30 10 30 6 0 10
5 10 10 0 6 -18 10 -40 10 -29 0 -40 -4 -40 -15 0 -8 -4 -15 -10 -15 -5 0 -10
7 -10 15 0 8 -9 15 -20 15 -11 0 -20 -7 -20 -15 0 -8 -4 -15 -10 -15 -5 0 -10
7 -10 15 0 13 -35 15 -259 15 l-259 0 -7 -31 c-6 -25 -11 -30 -33 -27 -21 2
-28 9 -30 31 l-3 27 -135 -3 c-116 -2 -138 -5 -148 -20 -17 -22 -26 -22 -26 3
0 17 -7 20 -41 20 -38 0 -41 -2 -36 -22 8 -31 -10 -48 -50 -48 -19 0 -32 -4
-28 -10 3 -5 -7 -12 -22 -16 -48 -10 -53 -13 -47 -28 4 -11 19 -13 61 -11 30
2 57 6 61 9 13 13 32 5 32 -14 0 -17 -7 -20 -45 -20 -33 0 -45 -4 -45 -15 0
-9 -10 -14 -27 -14 -16 1 -50 -5 -78 -11 -27 -7 -70 -15 -95 -19 l-45 -6 1
-48 c1 -39 -1 -47 -13 -43 -8 3 -21 6 -29 6 -8 0 -19 11 -24 25 -7 17 -17 25
-34 25 -14 0 -29 7 -34 17 -13 23 -42 9 -42 -20 0 -29 18 -47 47 -47 13 0 23
-4 23 -10 0 -5 -19 -10 -43 -10 -42 0 -43 1 -53 42 -10 47 -34 64 -34 24 0
-29 -7 -35 -49 -38 -28 -2 -31 -5 -31 -35 0 -26 -4 -33 -20 -34 -11 -1 -24 -2
-30 -3 -5 -1 -9 4 -7 9 1 6 8 9 15 9 6 -1 12 5 12 13 0 34 -63 66 -74 37 -5
-13 -9 -14 -21 -4 -11 9 -15 9 -15 1 0 -7 -4 -10 -9 -7 -5 3 -14 -1 -21 -9
-14 -17 -46 -20 -55 -5 -10 16 -36 12 -51 -7 -13 -17 -15 -17 -34 5 -20 24
-40 22 -40 -3 0 -12 -5 -12 -25 -3 -29 13 -33 28 -7 28 23 0 64 29 57 41 -8
12 -102 11 -110 -1 -14 -23 -35 13 -35 57 0 39 -2 44 -17 38 -33 -14 -73 -18
-73 -6 0 6 3 11 8 11 4 0 8 14 9 30 2 29 1 30 -35 28 -20 -1 -40 -6 -44 -12
-3 -5 -14 -2 -24 8 -16 16 -19 17 -29 3 -7 -10 -20 -14 -34 -10 -27 7 -22 27
7 31 18 3 20 6 10 28 -11 24 -21 27 -88 25 -31 -1 -32 0 -12 9 12 5 22 14 22
20 0 7 -283 10 -885 10 -583 0 -885 -3 -885 -10 0 -5 -13 -10 -30 -10 -16 0
-30 5 -30 10 0 7 -155 10 -445 10 l-445 0 0 -30 c0 -21 -5 -30 -16 -30 -27 0
-54 20 -54 40 0 11 -4 20 -10 20 -7 0 -10 -1342 -10 -4005z m9930 3419 c0 -14
-4 -23 -9 -20 -5 4 -7 -3 -4 -13 3 -10 -2 -30 -11 -42 -13 -22 -13 -30 1 -81
15 -55 15 -60 -3 -93 -10 -19 -21 -35 -25 -35 -10 0 -29 49 -20 54 5 3 5 20 2
38 -4 18 -3 43 2 56 7 15 7 29 0 45 -21 43 -23 58 -7 64 9 3 13 12 9 21 -7 18
11 32 43 32 17 0 22 -6 22 -26z m-184 -1537 c-2 -71 8 -137 22 -137 4 0 12 15
18 34 8 27 7 39 -6 64 -20 36 -15 91 9 100 9 3 22 13 29 21 11 14 13 14 23 -2
6 -10 20 -22 32 -27 18 -7 18 -9 5 -9 -17 -1 -24 -31 -20 -81 1 -8 -4 -28 -10
-43 -12 -31 -3 -50 13 -27 8 11 12 12 16 3 2 -7 13 -13 22 -13 21 0 54 -33 44
-43 -3 -4 -1 -7 6 -7 8 0 11 -7 7 -15 -5 -15 5 -20 17 -8 11 10 61 11 75 0 7
-5 30 -7 51 -4 30 4 41 1 45 -10 6 -14 50 -15 91 -4 6 2 33 3 62 2 46 -1 53
-4 66 -30 9 -19 13 -46 10 -74 -3 -25 -1 -47 5 -51 15 -9 42 4 42 20 0 8 7 14
15 14 8 0 15 5 15 10 0 16 38 50 56 50 20 0 74 31 74 43 0 5 15 7 33 6 43 -4
58 7 51 37 -6 22 -3 24 30 24 20 0 36 -4 36 -10 0 -17 22 -11 43 13 13 15 21
18 24 10 7 -20 23 -15 23 7 0 14 7 20 21 20 18 0 20 -4 15 -25 -6 -24 -4 -25
36 -25 24 1 61 7 83 15 22 8 74 15 115 15 41 0 89 4 107 9 20 6 35 5 42 -2 14
-14 212 -21 221 -7 4 7 17 6 40 -3 18 -8 27 -16 20 -19 -8 -2 -11 -11 -7 -21
10 -26 27 -20 27 9 0 24 2 25 48 22 39 -2 48 -7 50 -24 3 -19 12 -22 73 -28
38 -3 86 -3 107 0 30 5 41 2 56 -15 15 -16 31 -21 71 -21 35 0 57 -5 65 -15 8
-10 31 -15 71 -15 44 0 59 -4 59 -14 0 -17 21 -26 59 -26 16 0 37 -10 50 -24
13 -13 38 -27 56 -30 20 -4 52 -24 77 -47 47 -44 95 -72 109 -63 5 3 9 -1 9
-10 0 -8 -6 -16 -12 -19 -10 -3 -9 -9 4 -23 9 -10 20 -31 23 -46 9 -36 52 -40
57 -5 6 36 12 -89 9 -203 -1 -58 -7 -108 -12 -111 -6 -3 -11 -34 -13 -69 -3
-85 -10 -90 -162 -91 -65 -1 -144 -6 -174 -11 -30 -5 -66 -11 -80 -13 -14 -3
-54 -8 -90 -12 l-65 -8 45 -5 c30 -3 45 -10 45 -20 0 -16 -36 -25 -132 -33
-50 -4 -63 -2 -63 9 0 16 -10 17 -62 5 -28 -7 -38 -5 -42 5 -3 8 -12 14 -21
14 -22 0 -18 15 8 28 24 12 28 11 -77 17 -21 1 -41 7 -45 14 -4 6 -15 9 -24 5
-10 -3 -17 -1 -17 6 0 6 4 9 9 6 20 -13 22 29 2 45 -13 11 -21 31 -23 58 -1
23 -7 45 -12 49 -17 11 -52 56 -37 47 10 -5 12 -4 7 3 -4 7 -20 12 -37 12 -17
0 -29 5 -29 13 0 20 -38 36 -95 41 -54 4 -136 34 -100 37 43 3 -30 17 -85 17
-53 -1 -54 -1 -15 -8 l40 -7 -42 -2 c-30 -1 -41 -5 -38 -14 3 -6 -5 -17 -17
-22 -20 -9 -25 -25 -41 -120 -15 -85 -16 -116 -8 -138 9 -22 15 -27 31 -22 14
5 32 -1 53 -18 20 -15 52 -27 82 -30 48 -6 98 -13 265 -37 41 -6 95 -12 120
-14 25 -1 81 -8 124 -15 43 -7 101 -9 127 -6 39 5 50 4 55 -8 3 -9 19 -20 36
-26 26 -9 29 -9 18 4 -10 12 -9 15 4 15 9 0 16 -4 16 -8 0 -8 97 -39 140 -44
14 -2 31 -7 38 -11 6 -5 16 -6 21 -3 5 3 14 -1 21 -9 7 -8 20 -15 29 -15 24 0
83 -23 111 -42 13 -10 32 -18 42 -18 19 0 58 -50 58 -75 0 -9 5 -13 11 -9 6 3
14 3 18 -2 3 -5 15 -14 26 -20 12 -7 19 -20 17 -34 -1 -14 4 -24 17 -27 29 -7
34 -115 8 -160 -17 -29 -17 -33 -3 -33 17 0 36 -37 36 -71 0 -10 -6 -19 -14
-19 -8 0 -16 -7 -20 -15 -3 -9 0 -15 9 -15 8 0 15 -7 15 -15 0 -8 7 -15 15
-15 14 0 14 -7 -2 -50 -3 -8 -5 -25 -4 -37 1 -12 -5 -43 -14 -68 -9 -29 -12
-52 -7 -59 23 -29 19 -81 -9 -126 -16 -25 -35 -60 -43 -78 -12 -27 -20 -32
-36 -27 -14 4 -20 2 -20 -9 0 -9 -11 -22 -23 -31 -28 -18 -47 -55 -47 -90 0
-21 -5 -25 -30 -25 -16 0 -30 4 -30 9 0 19 -36 17 -75 -3 -22 -11 -67 -26
-100 -32 -33 -7 -94 -19 -135 -28 -41 -9 -122 -18 -180 -20 -58 -2 -152 -10
-208 -16 -76 -9 -107 -9 -115 -1 -17 17 -67 14 -67 -4 0 -19 -19 -20 -26 -1
-6 17 -67 29 -142 28 -29 0 -50 4 -46 9 3 5 -14 9 -38 8 -24 0 -36 -3 -28 -6
24 -10 31 -27 12 -34 -24 -9 -52 8 -52 31 0 11 -2 20 -5 20 -11 0 -45 -35 -45
-47 0 -18 -17 -16 -27 2 -10 18 -93 33 -93 16 0 -17 -25 -13 -50 9 -13 11 -32
20 -44 20 -12 0 -39 7 -61 14 -40 14 -95 11 -95 -5 0 -5 -5 -9 -11 -9 -6 0 -9
8 -6 19 6 23 -9 51 -28 51 -7 0 -16 6 -18 13 -4 9 -8 9 -15 -2 -7 -9 -12 -10
-16 -2 -9 14 -72 41 -97 41 -11 0 -19 9 -21 23 -2 12 -13 26 -25 32 -13 5 -23
15 -23 22 0 7 -9 13 -20 13 -11 0 -20 -6 -20 -14 0 -8 -6 -16 -12 -19 -7 -2
-13 -16 -13 -30 0 -15 -4 -26 -10 -26 -5 0 -9 6 -7 13 1 7 -5 13 -13 13 -13 0
-17 -10 -14 -34 1 -5 5 -7 10 -5 5 1 9 -16 9 -38 0 -22 -3 -40 -7 -41 -5 0
-19 -2 -33 -4 -62 -7 -187 -8 -198 -1 -6 4 -17 4 -23 0 -14 -8 -380 -11 -385
-2 -9 14 -54 -18 -54 -39 0 -13 -4 -23 -9 -23 -4 0 -6 11 -3 25 3 19 0 25 -14
25 -29 0 -40 -12 -47 -45 -5 -31 22 -81 165 -305 33 -52 75 -121 92 -152 17
-32 65 -92 106 -135 41 -43 133 -141 205 -217 71 -76 143 -144 160 -152 58
-28 90 -47 97 -58 10 -15 -2 -28 -21 -22 -9 4 -4 -5 12 -18 15 -14 27 -30 27
-37 0 -6 12 -24 28 -38 15 -15 61 -65 102 -112 92 -103 106 -116 150 -139 38
-20 76 -58 106 -105 22 -34 12 -30 -52 21 -22 18 -57 36 -77 39 -32 6 -37 11
-37 36 0 23 -21 51 -107 140 -60 61 -110 115 -111 120 -3 7 -54 59 -160 164
-6 6 -50 53 -98 105 -49 52 -127 133 -174 180 -74 74 -180 219 -180 247 0 6
-9 18 -20 28 -11 10 -20 21 -20 26 0 4 -20 38 -45 76 -25 37 -45 73 -45 80 0
6 -4 13 -9 15 -11 4 -136 189 -200 296 -46 77 -67 92 -32 23 12 -22 21 -47 21
-56 0 -8 5 -15 10 -15 6 0 10 -7 10 -15 0 -8 4 -15 9 -15 5 0 14 -14 21 -31
11 -26 11 -33 -3 -46 -15 -15 -16 -14 -10 5 4 17 1 22 -15 22 -12 0 -24 -5
-27 -10 -9 -14 66 -99 83 -94 7 2 10 -1 7 -6 -4 -6 23 -41 58 -78 145 -150
191 -205 185 -222 -2 -6 -94 86 -206 204 -262 276 -423 433 -458 446 -21 8
-25 13 -15 19 10 6 5 13 -18 24 -17 8 -31 12 -31 8 0 -18 32 -71 40 -66 5 3
28 -18 52 -46 24 -28 74 -82 111 -121 82 -86 197 -214 197 -219 0 -3 -9 -5
-20 -5 -12 0 -19 5 -16 12 5 13 -34 54 -51 54 -6 0 -16 -7 -23 -15 -13 -16
-50 -21 -50 -6 0 5 -20 6 -45 3 -35 -4 -45 -1 -45 10 0 20 -29 44 -62 52 -26
6 -28 11 -28 52 0 28 -4 43 -10 39 -10 -6 -14 6 -11 38 1 9 -4 17 -13 17 -14
0 -29 -35 -40 -90 -2 -14 -4 3 -3 38 2 61 2 62 -25 62 -27 0 -28 2 -28 49 0
28 4 52 10 56 5 3 7 12 3 20 -7 21 4 61 23 80 14 14 15 18 3 30 -8 7 -25 16
-39 19 -14 3 -19 3 -12 0 17 -8 15 -34 -3 -34 -8 0 -15 5 -15 11 0 5 -4 8 -9
4 -5 -3 -11 0 -14 7 -2 7 -3 5 -2 -4 2 -10 0 -20 -5 -23 -8 -5 -25 -92 -22
-108 5 -20 -43 -277 -51 -277 -9 0 -3 109 9 156 5 18 0 22 -28 26 -18 3 -36 1
-40 -5 -4 -7 -16 -6 -36 2 -31 13 -57 7 -47 -10 9 -14 -22 -22 -42 -10 -17 10
-17 10 0 11 10 0 15 5 12 10 -8 12 -58 13 -70 1 -6 -5 -31 -6 -60 -1 -27 5
-68 9 -90 9 -29 1 -48 8 -68 27 -16 15 -36 24 -50 22 -15 -2 -25 4 -32 19 -10
24 -62 48 -67 32 -2 -5 -3 44 -2 108 0 77 -1 89 -3 35 -2 -49 -8 -80 -13 -77
-6 4 -10 17 -10 31 0 13 -4 24 -10 24 -5 0 -10 16 -10 35 0 34 13 47 23 23 3
-7 6 20 6 60 1 47 5 72 13 72 13 0 4 1440 -10 1500 -4 19 -12 33 -17 30 -6 -3
-11 36 -13 98 -2 62 1 102 7 102 12 0 31 63 31 102 0 23 5 27 40 33 31 5 40
11 40 27 0 11 12 31 28 44 28 25 42 30 42 15 0 -5 12 -12 27 -16 22 -5 24 -8
12 -17 -11 -8 -10 -9 4 -4 10 3 27 1 37 -4 14 -7 31 -6 59 4 28 9 43 10 51 2
7 -7 19 -7 39 1 17 6 33 7 38 2 5 -5 41 -4 83 2 96 15 151 14 161 -2 8 -14
279 -18 336 -5 26 6 35 3 50 -13 23 -27 53 -28 53 -1 0 11 5 20 10 20 6 0 10
-9 10 -20 0 -15 7 -20 29 -20 24 0 30 5 35 30 3 17 14 33 23 37 10 4 21 11 26
17 10 15 28 -14 23 -37 -2 -9 0 -15 5 -11 5 3 9 12 9 20 0 9 5 12 11 8 6 -3
15 -1 20 7 6 11 12 9 27 -9 20 -22 52 -30 52 -12 0 6 11 10 24 10 28 0 38 19
30 59 -4 16 -1 32 5 35 7 4 11 -1 11 -13 0 -11 5 -23 10 -26 15 -9 12 37 -5
77 -10 26 -11 38 -3 46 24 24 37 -7 34 -81z m-4372 44 c0 -11 5 -21 13 -21 7
0 13 -4 13 -10 0 -15 29 -12 46 5 9 8 11 15 5 15 -6 0 -11 5 -11 10 0 6 7 10
15 10 8 0 15 -5 15 -11 0 -17 27 -39 49 -39 14 0 23 -9 27 -25 6 -24 8 -25 23
-10 25 21 73 19 94 -5 10 -12 29 -20 47 -20 28 0 30 -2 30 -39 0 -22 4 -42 10
-46 19 -11 59 7 62 28 2 18 9 21 33 19 17 -2 32 -8 33 -13 7 -19 35 -40 42
-32 4 4 10 20 14 36 6 25 4 27 -24 27 -18 0 -29 4 -25 10 3 6 17 10 31 10 13
0 24 -4 24 -10 0 -23 20 -7 31 25 15 41 29 46 29 10 0 -14 5 -25 10 -25 18 0
59 54 60 78 0 26 30 31 30 5 1 -10 7 -29 14 -43 l14 -24 11 38 c5 22 8 42 6
47 -6 9 21 20 29 12 3 -4 6 -17 6 -31 0 -22 3 -24 28 -17 15 5 65 10 112 12
47 2 104 6 127 9 32 5 47 2 58 -10 9 -9 25 -16 36 -16 10 0 19 -6 19 -14 0
-19 73 -16 82 4 4 10 7 6 7 -12 1 -32 18 -36 36 -11 12 15 16 16 39 4 14 -8
29 -11 33 -8 3 4 0 8 -8 8 -8 1 2 5 21 8 19 4 43 3 53 -2 10 -5 36 -6 58 -2
35 6 39 5 39 -14 0 -27 8 -26 31 1 19 21 19 21 55 2 20 -10 39 -26 42 -34 4
-10 9 -6 18 15 13 31 15 30 29 -21 4 -14 65 -5 65 9 0 6 6 2 14 -8 19 -26 53
-29 61 -5 7 23 14 24 38 6 19 -14 23 -36 7 -36 -5 0 -10 -5 -10 -11 0 -15 103
-4 108 11 6 17 92 12 98 -5 8 -21 21 -19 27 5 7 28 26 25 37 -5 11 -29 50 -34
74 -9 15 14 16 13 16 -8 0 -17 11 -27 43 -41 99 -44 132 -65 183 -117 38 -39
56 -68 64 -100 6 -25 19 -53 28 -64 14 -14 17 -38 16 -120 0 -127 -11 -346
-17 -366 -3 -8 -8 -42 -11 -75 -5 -61 -39 -142 -83 -201 -28 -37 -29 -54 -5
-54 10 0 31 -13 47 -30 16 -16 35 -30 42 -30 7 0 20 -12 30 -27 9 -16 29 -42
43 -59 36 -42 57 -148 66 -324 3 -80 8 -161 11 -180 2 -19 6 -69 9 -110 l5
-76 -52 -97 c-37 -68 -58 -97 -71 -97 -10 0 -18 -4 -18 -9 0 -21 -48 -61 -65
-55 -9 4 -20 3 -24 -3 -12 -17 -71 -54 -79 -49 -4 3 -28 0 -53 -5 -39 -9 -222
-20 -334 -20 -98 1 -168 0 -273 -2 -61 -1 -112 1 -112 6 0 4 -7 7 -15 7 -8 0
-15 -4 -15 -10 0 -5 -8 -10 -17 -10 -16 0 -16 2 -3 11 10 7 -54 9 -210 9 -124
-1 -233 -1 -242 0 -10 0 -24 0 -30 -1 -7 0 -87 2 -178 6 -91 3 -210 8 -265 10
-82 3 -100 6 -105 20 -4 13 -3 530 2 790 2 128 -13 551 -21 585 -6 25 -15 72
-21 104 -11 70 -29 97 -31 46 -1 -24 -3 -28 -6 -12 -8 42 -83 24 -83 -20 0
-10 -6 -18 -12 -18 -8 0 -9 -3 -3 -8 15 -10 12 -76 -4 -95 -7 -10 -20 -17 -27
-17 -8 0 -14 -11 -15 -27 0 -16 -3 -64 -6 -108 -4 -44 -6 -138 -5 -210 1 -71
2 -193 2 -270 2 -155 -11 -257 -41 -324 -10 -24 -19 -52 -19 -63 0 -11 -10
-34 -22 -51 -13 -18 -22 -37 -20 -44 1 -6 -11 -20 -28 -29 -18 -11 -30 -27
-30 -39 0 -14 -10 -26 -27 -34 -16 -8 -35 -17 -43 -21 -8 -4 -17 -18 -20 -31
-4 -17 -14 -25 -33 -27 -16 -2 -31 -11 -34 -20 -9 -24 -23 -32 -60 -32 -21 0
-33 -5 -33 -13 0 -8 -19 -20 -42 -27 -24 -7 -47 -17 -53 -22 -5 -4 -21 -8 -36
-8 -18 0 -28 -6 -32 -19 -3 -12 -14 -19 -28 -20 -42 -1 -163 -18 -181 -26 -13
-5 -19 0 -24 19 -7 30 -19 33 -32 9 -7 -11 -15 -14 -28 -8 -11 4 -42 9 -71 12
-45 3 -52 1 -58 -17 -7 -21 -35 -28 -35 -8 0 6 -7 3 -15 -8 -14 -18 -14 -18
-15 4 0 14 -4 21 -11 16 -6 -3 -9 -15 -6 -25 4 -14 0 -19 -16 -19 -18 0 -19
-2 -7 -10 10 -6 11 -10 3 -10 -21 0 -15 -18 9 -26 46 -14 94 -68 117 -130 11
-28 29 -67 40 -88 12 -20 21 -42 21 -49 0 -20 182 -121 265 -147 44 -14 76
-38 73 -54 -1 -6 28 -42 66 -81 64 -66 142 -193 133 -219 -2 -5 -11 8 -21 30
-9 21 -23 50 -29 64 -7 14 -45 59 -85 100 -40 41 -75 82 -77 91 -3 10 -34 26
-73 39 -37 13 -98 38 -135 57 -38 19 -71 32 -74 29 -3 -3 3 -27 15 -53 11 -26
25 -68 32 -93 6 -25 17 -58 24 -75 35 -82 61 -187 37 -145 -5 8 -23 56 -40
105 -17 50 -40 115 -51 145 -12 30 -30 80 -40 110 -11 30 -35 87 -55 125 -19
39 -35 75 -35 81 0 6 -8 20 -18 32 -22 25 -72 47 -72 32 0 -14 -17 -12 -32 3
-7 8 -20 12 -30 9 -13 -3 -18 1 -18 17 0 14 -6 21 -19 21 -28 0 -52 11 -45 21
3 5 -2 9 -11 9 -9 0 -13 -4 -10 -10 4 -6 -5 -10 -19 -10 -14 0 -26 5 -26 10 0
6 6 10 14 10 8 0 22 10 30 22 15 20 19 21 51 9 38 -13 59 -6 61 21 1 10 -2 15
-7 12 -11 -6 -39 19 -39 35 0 6 9 11 20 11 21 0 27 15 9 25 -5 4 -18 0 -28 -9
-16 -14 -22 -14 -72 5 -30 12 -61 25 -70 30 -9 4 -21 3 -27 -3 -15 -15 -45 -1
-39 16 3 8 1 17 -6 20 -9 3 -8 7 3 15 8 5 11 14 6 18 -5 4 -11 2 -13 -4 -3 -7
-10 -13 -16 -13 -7 0 -25 -7 -41 -15 -16 -8 -66 -18 -112 -22 -72 -5 -87 -3
-103 11 -11 10 -30 17 -43 15 -13 -1 -40 6 -60 15 -21 9 -42 16 -48 16 -7 0
-10 14 -8 33 3 28 -1 34 -36 52 -51 26 -79 92 -79 185 1 48 -4 72 -18 92 -11
14 -19 31 -19 37 0 6 -3 11 -7 11 -17 1 -77 64 -65 68 7 2 12 11 12 21 0 43
72 57 103 21 9 -11 29 -20 43 -20 42 0 107 22 126 43 20 22 47 16 49 -10 2
-38 -3 -66 -22 -109 -23 -52 -19 -76 17 -92 31 -15 124 -16 124 -2 0 15 48 12
53 -2 2 -7 8 4 12 25 10 50 -5 65 -68 69 l-52 3 -7 40 c-3 22 -11 58 -17 79
-5 22 -8 43 -5 47 2 4 0 19 -6 34 -9 23 -7 28 10 32 32 9 23 26 -10 20 -25 -5
-30 -3 -30 12 0 15 -9 20 -37 24 -57 8 -135 2 -166 -11 -55 -23 -78 -8 -70 45
4 26 2 33 -8 31 -11 -2 -14 12 -15 59 -1 57 1 64 30 91 62 60 248 87 391 58
44 -10 89 -23 100 -30 46 -30 123 -107 150 -150 16 -25 30 -44 32 -42 7 6 -26
85 -52 123 -20 31 -26 54 -28 103 -2 73 17 94 27 30 3 -22 11 -40 16 -40 5 0
9 -10 7 -22 -1 -13 3 -22 9 -21 6 1 11 -11 12 -28 0 -16 8 -49 16 -72 9 -25
19 -100 23 -187 l8 -145 30 3 c17 2 58 3 92 2 34 0 64 4 67 9 4 6 13 8 21 4 8
-3 15 0 15 7 0 7 8 9 20 5 29 -9 170 25 170 42 0 11 27 18 53 14 4 -1 15 14
24 34 9 19 20 32 25 29 11 -7 10 -20 14 446 1 223 -1 409 -5 415 -5 5 -9 41
-10 80 0 38 -4 78 -7 89 -3 10 -1 21 4 25 7 4 8 20 3 43 -5 20 -5 78 0 130 5
51 11 122 13 158 3 36 7 79 10 95 2 17 1 38 -3 49 -4 10 -2 34 3 53 10 32 13
34 46 28 19 -3 60 1 90 8 55 12 55 12 58 54 3 36 5 40 25 35 12 -2 27 -9 34
-14 7 -5 14 -5 18 2 3 5 18 10 32 10 32 0 63 26 63 52 0 11 5 18 13 15 6 -2
12 -14 11 -26z m-3496 -15 c19 0 32 -5 32 -13 0 -7 17 -15 38 -19 20 -3 43
-13 50 -22 7 -9 12 -11 12 -4 0 7 5 12 10 12 6 0 10 -8 10 -18 0 -13 18 -28
55 -46 31 -15 53 -31 50 -36 -13 -21 8 -42 39 -38 30 3 31 2 33 -36 0 -21 6
-42 12 -45 6 -4 18 -31 26 -59 9 -29 20 -50 25 -47 6 4 10 1 10 -4 0 -6 6 -11
14 -11 8 0 18 -9 21 -20 3 -11 15 -20 26 -20 13 0 19 -7 19 -22 1 -20 2 -21
10 -7 5 9 24 19 42 23 34 6 71 47 49 54 -6 2 -9 8 -6 12 3 5 12 7 19 4 10 -4
19 12 32 53 20 66 44 109 53 94 4 -5 19 21 35 59 l29 68 71 4 c53 3 76 0 89
-11 17 -14 20 -14 28 1 8 14 14 15 33 6 19 -8 29 -7 47 6 13 9 30 16 39 16 13
0 13 -1 0 -10 -30 -19 19 -11 62 11 33 17 42 18 49 7 7 -10 14 -10 37 5 24 14
49 16 131 14 65 -3 102 0 105 7 2 6 5 1 5 -11 1 -23 25 -32 36 -13 3 5 20 10
38 9 18 0 46 3 64 6 28 6 33 4 48 -25 13 -24 19 -29 30 -20 7 6 59 13 116 16
79 4 106 9 118 22 9 9 30 17 46 18 17 0 38 4 48 8 12 6 17 4 17 -8 0 -12 10
-16 38 -16 21 0 43 -5 50 -12 7 -7 41 -12 78 -13 58 0 70 -3 93 -26 15 -14 36
-31 48 -37 25 -14 38 -52 17 -52 -15 0 -17 -9 -8 -35 5 -13 8 -14 15 -3 15 25
38 -14 45 -77 4 -33 12 -63 17 -67 6 -3 10 -40 8 -85 -3 -108 -3 -303 -1 -332
1 -14 -6 -30 -15 -37 -9 -7 -14 -17 -11 -22 3 -6 0 -27 -8 -49 -7 -21 -17 -66
-21 -101 -8 -71 -22 -81 -28 -19 -2 28 -4 19 -5 -29 -2 -63 1 -73 22 -93 13
-12 26 -39 30 -60 3 -21 19 -55 36 -76 25 -32 39 -65 27 -65 -2 0 -28 22 -58
50 -30 27 -57 50 -61 50 -18 0 -138 61 -138 70 0 5 -4 10 -10 10 -5 0 -10 -7
-10 -16 0 -11 -5 -14 -17 -9 -10 4 -45 9 -78 12 -33 3 -68 10 -79 15 -12 7
-22 6 -29 -1 -6 -6 -18 -11 -26 -11 -8 0 -31 -15 -51 -34 -19 -19 -48 -37 -64
-40 -16 -3 -39 -14 -51 -26 -12 -11 -24 -20 -28 -20 -12 0 -41 -34 -61 -72
-11 -20 -24 -36 -29 -35 -5 1 -20 -16 -32 -38 -18 -30 -21 -44 -13 -59 12 -23
3 -101 -17 -150 -16 -39 -20 -141 -6 -150 5 -3 12 -35 16 -72 4 -42 12 -67 21
-71 8 -3 14 -12 14 -21 0 -12 -3 -13 -11 -5 -16 16 -58 -5 -65 -33 -9 -35 -1
-56 24 -65 20 -7 25 -5 29 11 9 35 26 22 19 -15 -5 -25 -2 -42 9 -57 8 -13 15
-17 15 -10 0 6 4 12 9 12 7 0 31 -94 31 -122 0 -4 -9 -8 -20 -8 -11 0 -20 -6
-20 -14 0 -8 -3 -16 -8 -18 -4 -1 -17 -19 -30 -38 -12 -19 -22 -29 -22 -22 0
7 13 33 29 56 18 26 26 47 21 55 -5 9 -10 10 -14 2 -12 -19 -36 -12 -36 9 0
12 -10 40 -22 63 -12 23 -23 44 -23 47 -1 3 -7 19 -14 35 -9 20 -11 53 -6 103
4 43 3 72 -3 72 -5 0 -9 37 -10 83 -1 45 -3 96 -5 112 -3 17 -2 22 0 13 2 -10
9 -18 14 -18 12 0 12 33 -1 46 -5 5 -11 40 -12 77 -1 37 -5 67 -10 67 -4 0 -7
20 -6 45 1 25 6 45 10 45 4 0 7 24 5 53 -1 37 2 51 11 49 6 -1 12 5 12 14 0 8
-4 12 -10 9 -6 -4 -10 20 -10 64 0 46 4 71 13 74 7 4 3 8 -10 12 -25 8 -32 45
-9 45 9 0 17 20 24 60 9 49 8 68 -5 107 -9 27 -24 54 -34 60 -9 7 -20 25 -24
40 -3 15 -11 31 -17 34 -17 11 -37 -1 -31 -17 3 -7 -2 -17 -11 -20 -9 -3 -16
-17 -16 -30 0 -13 -4 -24 -8 -24 -5 0 -19 -21 -32 -47 -32 -67 -47 -82 -73
-75 -19 5 -20 3 -9 -10 14 -17 -1 -61 -42 -127 -16 -25 -26 -60 -31 -110 -5
-50 -12 -74 -22 -78 -10 -4 -13 -14 -9 -34 4 -21 1 -29 -13 -34 -15 -5 -18
-15 -16 -63 1 -31 -2 -64 -6 -72 -4 -8 -13 -30 -19 -48 -8 -20 -21 -34 -36
-38 -30 -8 -31 -20 -1 -28 l22 -7 -22 -9 c-17 -7 -22 -19 -26 -62 -2 -29 -11
-83 -18 -120 -12 -64 -12 -69 6 -82 19 -14 19 -15 3 -21 -23 -9 -24 -65 -3
-106 17 -31 13 -49 -10 -49 -11 0 -13 -10 -8 -45 6 -44 -10 -105 -28 -105 -10
0 -49 -73 -49 -92 0 -15 -60 -68 -77 -68 -7 0 -13 9 -13 20 0 11 -4 20 -8 20
-13 0 -32 -23 -32 -40 0 -22 -49 -46 -90 -43 -19 2 -71 5 -115 8 -68 4 -83 8
-98 27 -17 20 -20 21 -28 5 -13 -22 -25 -22 -31 1 -7 24 -57 30 -326 39 -128
4 -205 10 -210 17 -12 19 -9 206 4 206 18 0 25 28 8 34 -20 8 -17 45 6 64 26
23 35 65 17 80 -11 9 -12 23 -7 55 9 46 5 213 -6 265 -5 26 -13 34 -35 39 -16
3 -28 12 -28 22 0 9 -4 33 -7 54 -5 30 -10 37 -29 37 -13 0 -26 7 -29 16 -8
20 -7 20 24 33 25 11 24 11 -5 8 -21 -1 -30 3 -30 13 0 8 -4 21 -9 28 -4 7 -5
16 -2 19 3 3 -4 23 -14 44 -11 21 -20 45 -20 54 0 8 -7 15 -16 15 -10 0 -14 6
-11 15 4 8 2 17 -3 20 -6 4 -10 14 -10 23 0 9 -11 30 -25 46 -14 16 -25 37
-25 47 0 12 -5 16 -14 13 -11 -4 -17 5 -21 33 -10 58 -13 63 -34 63 -25 0 -37
18 -17 26 20 8 21 34 1 34 -9 0 -20 12 -26 28 -21 51 -27 67 -33 85 -3 9 -15
17 -26 17 -13 0 -20 7 -20 20 0 10 -8 24 -17 30 -15 9 -13 10 10 5 28 -6 38 9
12 19 -8 3 -15 12 -15 20 0 8 -17 28 -39 45 -32 26 -40 39 -45 78 -13 96 -16
102 -44 105 -20 2 -28 9 -30 28 -2 14 -10 39 -18 57 -8 17 -14 36 -14 42 0 6
-6 8 -13 6 -7 -3 -18 9 -25 27 -7 18 -20 48 -28 66 -8 18 -14 39 -14 47 0 8
-4 15 -9 15 -14 0 -47 62 -55 104 -4 20 -9 43 -12 50 -4 11 43 13 238 13 157
0 248 -4 257 -11 10 -7 16 -6 25 6 8 10 35 18 79 23 37 4 67 12 67 17 0 6 14
8 33 4 26 -5 38 -2 52 14 15 16 25 18 64 12 25 -3 61 -6 79 -6z m11454 -663
c0 -16 1 -35 0 -44 -2 -18 34 -33 44 -18 3 5 10 7 15 4 5 -4 6 7 3 25 -6 25
-3 30 13 30 10 0 25 6 31 12 18 18 32 -6 32 -53 0 -77 24 -133 32 -76 2 14 9
21 21 21 12 -1 17 6 18 25 0 14 3 34 7 43 6 14 10 15 25 3 13 -9 15 -15 7 -20
-7 -4 -9 -18 -6 -31 5 -17 2 -24 -8 -24 -7 0 -19 -7 -26 -15 -11 -14 -10 -14
14 -5 38 14 45 13 39 -9 -2 -10 3 -25 12 -35 26 -26 30 -24 76 37 22 30 39 35
39 12 0 -9 6 -12 17 -8 13 5 15 2 10 -11 -4 -10 -7 -26 -7 -37 0 -10 -6 -19
-14 -19 -18 0 -56 -73 -56 -108 0 -16 -7 -37 -15 -48 -13 -17 -14 -14 -15 40
l0 58 -37 -7 c-49 -9 -60 -18 -67 -60 -4 -19 -13 -38 -20 -42 -8 -5 -15 -17
-17 -28 -6 -32 -53 -32 -67 0 -10 22 -9 25 8 25 23 0 24 4 10 31 -13 23 -30
25 -30 2 0 -24 -62 -102 -82 -103 -9 0 -26 12 -38 27 l-22 28 -20 -25 c-11
-14 -25 -24 -30 -22 -20 5 -38 -21 -38 -54 0 -19 -5 -34 -11 -34 -8 0 -9 14
-5 44 6 38 3 49 -24 90 -17 25 -34 45 -38 45 -46 -7 -76 23 -74 72 4 55 -5 78
-34 89 -26 10 -32 41 -11 58 6 5 31 13 54 17 29 4 47 14 58 31 9 14 27 30 41
36 21 10 27 8 40 -10 8 -12 20 -22 25 -22 18 0 90 78 76 83 -6 3 0 6 16 6 23
1 27 -3 29 -26z m698 -193 c0 -165 -5 -202 -25 -170 -3 6 -1 10 4 10 6 0 11
20 11 45 0 25 -4 45 -10 45 -5 0 -10 -9 -10 -21 0 -12 -8 -23 -19 -26 -11 -3
-21 -17 -25 -34 -9 -48 -29 -35 -24 16 3 25 2 45 -3 45 -5 0 -9 5 -9 10 0 6 6
10 14 10 18 0 27 47 15 78 -12 30 -6 39 31 47 37 8 42 34 5 27 -15 -2 -25 0
-25 7 0 6 9 11 20 11 14 0 20 7 20 24 0 31 10 56 21 56 5 0 9 -81 9 -180z
m-159 110 c28 0 29 -1 29 -53 0 -40 -4 -55 -18 -64 -10 -6 -27 -36 -36 -67
-15 -48 -20 -54 -32 -41 -8 8 -17 42 -19 79 -5 58 -3 66 15 76 16 8 20 22 21
63 1 29 4 42 6 30 3 -18 11 -23 34 -23z m-426 -786 c14 -3 35 -4 46 -1 26 7
49 -1 49 -17 0 -7 16 -11 40 -11 25 0 40 4 40 12 0 7 7 10 16 6 11 -4 14 -13
10 -29 -5 -17 -2 -24 9 -24 8 0 15 7 15 15 0 8 5 15 11 15 6 0 8 -9 4 -21 -10
-29 31 -67 78 -71 29 -2 35 -6 27 -17 -6 -10 -13 -12 -22 -5 -7 5 -22 9 -33 9
-16 0 -22 -11 -31 -55 -7 -30 -12 -50 -13 -45 -2 17 -21 -19 -21 -41 0 -12 7
-27 15 -34 8 -7 12 -16 9 -21 -10 -16 -22 -9 -28 17 -4 14 -19 52 -33 84 -23
49 -29 56 -43 47 -28 -17 -80 28 -80 70 0 18 -4 33 -10 33 -9 0 -14 -17 -13
-47 1 -17 -12 -16 -27 2 -7 8 -19 15 -27 15 -8 0 -30 16 -50 35 -20 19 -42 35
-50 35 -7 0 -13 6 -13 13 -1 6 -9 2 -19 -10 -12 -15 -25 -20 -40 -16 -17 4
-21 1 -21 -20 0 -19 -6 -26 -31 -31 -50 -10 -59 -7 -59 16 l0 22 -16 -22 c-11
-16 -22 -20 -38 -16 -20 5 -78 -17 -126 -47 -8 -5 -35 -19 -60 -30 -81 -37
-90 -42 -96 -61 -3 -10 -14 -23 -25 -28 -10 -6 -26 -25 -34 -43 -9 -18 -22
-44 -30 -59 -32 -56 -44 -155 -30 -235 4 -23 4 -59 -1 -80 -7 -35 -8 -32 -15
41 -5 43 -13 84 -20 92 -8 9 -9 32 -4 67 4 28 7 68 6 87 0 19 4 39 8 45 5 5
12 25 16 43 8 36 44 82 66 82 8 0 34 18 59 40 25 22 51 40 58 40 6 0 12 5 12
10 0 6 7 10 15 10 8 0 23 9 32 20 10 11 23 20 29 20 15 0 72 29 79 41 4 5 15
9 25 9 10 0 26 7 35 16 12 13 19 14 28 5 17 -17 27 -13 27 11 0 12 3 18 7 15
3 -4 17 2 29 14 14 13 24 17 28 10 5 -7 12 -7 25 1 22 13 91 2 91 -15 0 -7 6
-4 14 6 12 15 15 15 26 2 7 -8 18 -15 24 -14 6 0 6 3 -2 6 -10 4 -10 8 0 20
10 13 13 12 20 -6 4 -11 19 -23 33 -27z m48 -334 c32 -21 71 -56 86 -77 26
-36 81 -129 81 -137 0 -6 -21 -1 -53 12 -59 25 -78 25 -106 4 -26 -19 -29 -19
-45 -4 -16 16 -16 13 -10 -38 4 -35 14 -63 27 -77 18 -21 22 -22 37 -8 16 14
19 13 36 -12 10 -15 17 -33 16 -39 -3 -16 55 -67 70 -62 27 11 31 8 34 -24 2
-18 5 -58 8 -88 4 -45 3 -51 -6 -32 -14 27 -22 28 -47 3 -15 -15 -19 -28 -14
-56 9 -55 23 -52 23 6 0 42 2 49 14 40 7 -6 16 -35 19 -64 4 -28 9 -70 13 -92
4 -22 3 -37 -1 -33 -4 4 -14 0 -21 -10 -8 -10 -13 -12 -14 -4 0 6 -8 12 -17
12 -15 0 -16 2 -3 10 8 5 10 10 4 10 -6 0 -14 18 -18 40 -5 31 -20 54 -66 101
-57 59 -59 62 -44 85 22 33 14 48 -29 50 -62 4 -77 18 -77 73 0 26 -3 51 -7
55 -4 4 -9 32 -10 61 -3 65 -25 112 -59 125 -16 7 -58 6 -116 0 -50 -6 -95 -7
-99 -3 -4 4 -10 19 -14 32 -5 18 -4 22 6 16 9 -6 11 -3 6 9 -4 11 -3 15 4 11
6 -4 17 1 24 11 14 18 14 18 15 -3 0 -15 -6 -23 -17 -24 -12 -1 -9 -4 7 -8 19
-5 27 -3 32 10 4 9 24 23 45 30 21 6 51 21 66 33 25 18 27 25 22 61 -5 39 -5
39 11 18 l16 -23 31 26 c37 31 60 27 140 -26z m-167 -322 c-26 -89 -28 -205
-5 -234 6 -8 1 -17 -14 -27 -13 -8 -38 -30 -56 -47 -17 -18 -34 -30 -38 -27
-3 3 -12 0 -20 -8 -17 -17 -43 -20 -43 -5 0 6 -14 10 -31 10 -42 0 -58 19 -64
81 -3 29 -9 55 -13 58 -5 3 -14 32 -22 63 -12 51 -11 60 4 83 16 24 18 25 39
10 27 -19 81 -19 97 -1 6 8 24 16 38 18 15 2 26 8 25 15 -2 7 16 16 40 21 66
15 70 15 63 -10z m-566 -86 c0 -4 -11 -16 -25 -26 -28 -21 -32 -50 -11 -72 21
-20 36 -17 36 7 0 12 5 19 13 16 12 -4 14 -23 6 -62 -3 -14 1 -20 13 -19 10 1
20 -7 23 -17 4 -11 13 -19 21 -19 8 0 14 -7 14 -16 0 -12 -7 -14 -30 -9 -18 4
-30 3 -30 -4 0 -13 36 -24 59 -16 24 7 41 -33 20 -46 -21 -13 -36 -11 -84 11
-34 16 -46 27 -55 57 -7 21 -16 43 -20 48 -4 6 -10 28 -14 50 -4 22 -9 52 -12
67 -5 24 -3 27 13 21 10 -3 15 -3 11 2 -11 12 11 35 33 35 11 0 19 -3 19 -8z
m3010 -189 c0 -57 -38 -103 -86 -103 -22 0 -40 -7 -51 -20 -10 -11 -21 -20
-25 -20 -11 0 -10 98 2 141 9 32 14 36 46 37 20 1 39 4 42 7 3 2 20 4 39 2 32
-2 33 -4 33 -44z m-2874 -200 c-3 -37 -8 -106 -10 -153 -1 -47 -6 -95 -10
-107 -6 -19 -4 -23 14 -23 18 0 21 -4 17 -25 -3 -18 1 -29 14 -36 11 -5 30
-32 44 -60 24 -46 25 -52 12 -91 -9 -25 -17 -36 -22 -29 -4 7 -13 10 -21 7 -8
-3 -14 -2 -14 3 0 15 -59 10 -72 -7 -11 -13 -11 -15 2 -7 12 7 13 6 3 -6 -10
-12 -9 -18 7 -32 20 -17 27 -37 12 -37 -9 0 -74 77 -84 99 -4 9 -7 27 -7 40
-1 23 0 23 18 7 20 -19 41 -14 41 8 0 7 -9 21 -19 30 -24 22 -17 50 16 65 27
13 27 11 -6 102 -11 31 -18 65 -15 76 3 11 1 23 -4 27 -13 8 -72 -12 -97 -33
-39 -32 -74 -46 -87 -33 -19 19 -45 14 -74 -13 -14 -13 -43 -27 -63 -31 -40
-7 -119 -31 -135 -42 -6 -4 -11 -14 -11 -22 0 -12 -17 -16 -87 -18 -116 -3
-286 -47 -358 -92 -8 -5 -44 -21 -80 -36 -69 -29 -95 -53 -166 -151 -47 -65
-164 -283 -164 -306 0 -7 -9 -19 -20 -27 -11 -8 -21 -24 -21 -35 -1 -18 -2
-18 -6 -2 -4 14 -14 5 -49 -41 -47 -63 -114 -187 -114 -210 0 -8 -15 -28 -32
-45 -29 -27 -31 -31 -14 -35 10 -2 22 2 27 9 4 7 11 10 15 6 13 -13 -40 -77
-64 -77 -23 0 -45 -36 -34 -54 3 -5 9 -1 13 10 4 10 8 14 8 7 2 -32 -45 -93
-90 -118 -27 -14 -49 -30 -49 -36 0 -9 31 -13 81 -9 16 1 29 -5 33 -15 8 -21
0 -35 -20 -35 -8 0 -14 -5 -14 -11 0 -8 18 -10 58 -6 50 5 59 4 70 -13 16 -26
2 -29 -163 -34 -127 -4 -193 -18 -211 -47 -8 -14 -14 -99 -6 -99 3 0 13 7 22
15 17 16 53 10 48 -7 -2 -5 -7 -8 -10 -6 -15 7 -37 -39 -38 -74 l0 -37 28 27
27 27 3 -23 c2 -13 7 -22 10 -20 80 43 105 49 168 43 35 -4 64 -11 64 -16 0
-5 -6 -6 -14 -3 -8 3 -23 1 -33 -5 -11 -5 -25 -6 -33 -1 -14 9 -63 -10 -120
-47 -42 -28 -50 -28 -51 -5 -1 16 -2 16 -6 0 -2 -10 -9 -18 -15 -18 -6 0 -8
-9 -3 -22 4 -13 10 -42 14 -65 6 -34 5 -41 -5 -32 -22 18 -64 168 -74 262 -11
104 -1 133 54 169 18 12 46 44 61 71 15 27 50 79 77 116 28 36 61 88 75 115
13 27 39 69 57 95 17 25 47 77 66 114 19 38 44 78 56 90 12 12 33 41 47 64 14
23 31 44 36 47 5 4 12 19 16 34 3 15 23 46 43 69 57 64 72 85 90 123 51 107
183 272 232 290 19 7 37 16 40 20 3 4 30 20 60 35 30 15 70 40 90 55 34 28 87
43 202 60 62 9 288 69 378 100 30 11 78 22 105 25 28 3 66 10 85 15 19 5 47
12 63 15 18 4 27 12 27 25 0 10 4 29 9 42 6 13 13 46 17 73 5 39 8 46 15 30 6
-16 8 -13 8 15 1 25 4 31 12 23 8 -8 9 -35 5 -80z m904 -138 c0 -8 7 -11 20
-8 17 4 20 0 20 -24 0 -46 66 -87 97 -61 10 8 13 5 13 -11 0 -12 11 -32 25
-45 28 -26 33 -56 10 -56 -9 0 -18 -7 -21 -15 -4 -8 -14 -15 -24 -15 -10 0
-21 -6 -24 -12 -4 -9 -10 -6 -22 10 -9 12 -23 22 -31 22 -21 0 -83 -53 -83
-71 0 -15 -26 -28 -54 -29 -5 0 -6 21 -3 46 5 44 4 45 -19 40 -16 -4 -24 -2
-25 6 0 7 -5 3 -12 -10 -8 -19 -8 -25 3 -32 19 -12 8 -22 -14 -14 -10 4 -16
19 -17 43 -1 32 -2 34 -9 11 -10 -30 -12 -19 -10 40 1 25 7 48 12 51 6 4 8 18
4 33 -4 18 -3 25 6 24 7 -2 14 7 16 18 2 17 8 21 25 16 20 -5 21 -4 8 11 -12
15 -12 17 3 11 9 -3 16 -10 16 -16 0 -5 12 -8 27 -6 21 2 29 10 35 36 8 31 28
36 28 7z m-10806 7 c2 -4 1 -13 -3 -20 -10 -17 -171 -102 -193 -102 -10 0 -41
-20 -67 -45 -26 -25 -55 -45 -64 -45 -8 0 -28 -15 -44 -33 -33 -37 -53 -53
-53 -40 0 12 74 87 140 143 29 25 101 68 159 97 115 56 117 57 125 45z m1686
-162 c0 -5 0 -12 0 -15 0 -3 23 -39 51 -81 28 -42 86 -133 128 -203 100 -165
103 -168 134 -180 21 -8 26 -16 24 -38 -3 -43 117 -229 168 -261 87 -54 159
-155 172 -238 3 -22 19 -61 36 -87 32 -52 31 -68 -3 -44 -12 8 -30 13 -41 10
-10 -3 -19 0 -19 6 0 6 7 11 15 11 22 0 18 17 -5 23 -10 3 -21 0 -23 -7 -2 -6
-8 -8 -12 -4 -4 4 -2 14 4 22 10 11 8 23 -9 57 -21 41 -22 41 -33 19 -15 -29
-33 -36 -40 -15 -4 9 -1 15 7 15 31 0 24 92 -7 98 -14 3 -18 -2 -15 -20 2 -12
7 -26 11 -29 10 -7 -2 -39 -14 -39 -8 0 -14 40 -10 64 1 5 -4 13 -11 18 -11 8
-10 11 1 15 11 4 11 7 0 13 -7 5 -14 14 -15 22 -2 7 -6 23 -10 36 -10 33 14
28 34 -8 9 -16 25 -30 35 -30 11 0 27 -21 47 -64 34 -72 65 -108 51 -59 -14
50 -58 127 -88 154 -42 40 -143 102 -177 108 -16 4 -32 13 -34 20 -3 10 2 12
22 7 14 -3 26 -5 26 -2 0 5 -65 112 -119 195 -22 35 -41 70 -41 76 0 7 -7 19
-16 26 -17 14 -132 187 -196 294 -36 61 -56 125 -38 125 6 0 10 -4 10 -10z
m2275 -65 c114 -25 209 -137 269 -319 9 -27 14 -51 12 -53 -8 -9 -76 32 -76
46 0 12 -3 12 -12 3 -14 -14 -54 -16 -62 -3 -3 5 8 22 24 40 17 17 30 38 30
46 0 23 -46 48 -77 41 -16 -3 -22 -3 -15 0 13 6 17 34 4 34 -5 0 -8 15 -7 33
3 47 -9 72 -42 85 -51 19 -161 34 -205 27 -42 -6 -43 -6 -16 9 45 24 96 27
173 11z m6828 -144 c195 -98 250 -141 325 -256 25 -38 60 -93 79 -121 36 -56
46 -95 12 -54 -11 14 -29 42 -40 63 -10 20 -23 37 -27 37 -4 0 -8 -29 -7 -65
0 -36 3 -65 8 -65 4 0 7 -7 7 -15 0 -8 -4 -15 -10 -15 -5 0 -7 -6 -4 -14 3 -8
1 -17 -5 -20 -15 -10 -22 25 -23 113 -1 44 -4 79 -7 77 -3 -2 -15 5 -25 15
-12 11 -14 19 -7 19 19 0 2 20 -27 31 -15 6 -29 10 -31 9 -5 -2 -21 23 -21 33
0 14 23 7 36 -10 7 -10 16 -14 20 -10 5 4 -6 22 -24 40 -17 18 -42 45 -56 60
-13 16 -93 63 -178 106 -93 47 -154 84 -156 94 -6 28 18 20 161 -52z m-2513
-96 c7 -18 17 -25 35 -25 14 0 25 -4 25 -10 0 -5 7 -10 15 -10 8 0 16 -6 16
-12 1 -7 2 -17 4 -23 1 -5 3 -25 3 -44 2 -25 6 -32 17 -28 8 4 17 2 20 -3 3
-5 12 -7 20 -3 12 4 15 -3 15 -31 0 -38 8 -44 28 -24 8 8 12 8 12 1 0 -6 -6
-16 -13 -22 -16 -13 -43 11 -49 44 -2 14 -12 20 -36 21 -27 1 -32 -2 -32 -22
0 -16 -4 -22 -14 -18 -11 4 -13 0 -9 -15 6 -22 -11 -28 -36 -12 -9 6 -10 11
-2 15 17 11 13 22 -12 33 -29 13 -50 3 -41 -20 12 -32 -25 -18 -48 18 -20 30
-28 35 -58 32 l-35 -2 -3 49 c-3 52 9 70 41 60 18 -6 67 36 67 56 0 5 12 11
28 13 15 2 28 5 30 6 1 0 7 -10 12 -24z m-3504 -619 c3 -14 3 -30 -1 -37 -5
-7 -1 -9 11 -6 70 20 102 18 143 -7 33 -21 41 -32 41 -56 0 -31 -38 -120 -52
-120 -4 0 -8 -7 -8 -15 0 -8 -4 -15 -10 -15 -5 0 -9 -6 -7 -12 4 -22 -40 -20
-84 3 -40 20 -43 20 -55 4 -10 -14 -22 -16 -49 -12 -33 5 -40 1 -88 -44 -56
-53 -52 -64 8 -24 27 19 40 23 50 15 14 -11 95 -127 95 -136 0 -3 9 -14 20
-26 11 -12 23 -37 26 -57 4 -20 13 -42 21 -49 7 -7 14 -28 15 -45 1 -18 2 -41
3 -52 0 -11 8 -36 16 -55 9 -19 22 -52 29 -73 8 -20 18 -37 22 -37 4 0 8 -10
8 -22 0 -13 7 -32 15 -42 8 -11 15 -27 15 -36 0 -9 6 -30 14 -46 8 -16 20 -42
26 -59 9 -23 13 -26 20 -15 8 13 11 12 24 -5 17 -23 11 -37 -13 -33 -23 4 -51
-20 -51 -43 0 -11 -5 -19 -11 -19 -8 0 -10 12 -6 35 6 34 -5 47 -18 24 -4 -6
-21 -9 -39 -8 -17 1 -44 -3 -60 -10 -22 -9 -37 -9 -64 0 -26 9 -36 8 -41 0 -4
-6 -14 -9 -22 -6 -11 4 -15 -2 -14 -22 0 -22 -6 -28 -30 -34 -43 -11 -228 -51
-240 -53 -5 0 -11 9 -13 22 -2 15 2 22 13 22 9 0 31 6 48 14 72 32 117 45 132
40 14 -6 21 7 9 18 -3 3 -29 0 -57 -8 -68 -18 -118 -18 -111 -1 2 7 -2 43 -10
81 -7 37 -11 65 -8 62 11 -12 31 31 32 70 0 46 -17 67 -69 85 -21 8 -29 15
-23 21 7 7 21 4 41 -8 23 -14 34 -15 42 -7 9 9 4 19 -19 42 -37 38 -99 44
-119 12 -10 -16 -7 -27 17 -65 18 -27 39 -48 55 -52 14 -3 25 -12 25 -20 0
-13 -4 -15 -30 -18 -5 -1 -22 20 -38 45 -18 27 -44 52 -66 63 -20 9 -36 23
-36 30 0 8 -7 19 -16 27 -12 10 -17 10 -23 0 -6 -8 -12 -3 -20 17 -7 16 -23
35 -37 42 -13 8 -24 17 -24 22 0 11 7 10 31 -2 14 -8 25 -6 44 6 14 9 25 19
25 23 0 4 -14 22 -31 39 -21 21 -41 32 -60 32 -29 0 -79 -18 -79 -29 0 -3 -7
-14 -14 -23 -11 -15 -17 -16 -44 -6 -18 7 -32 19 -31 28 0 10 2 11 6 3 2 -7
11 -13 19 -13 20 0 17 38 -3 44 -10 2 -2 4 17 3 l35 -2 -3 45 c-1 31 1 39 7
25 7 -18 9 -18 26 9 l19 28 18 -24 c9 -12 18 -31 18 -40 0 -10 7 -19 15 -19 8
-1 19 -2 23 -3 12 -2 42 -33 42 -44 0 -5 7 -15 15 -22 12 -10 15 -9 15 4 0 10
5 14 10 11 6 -3 10 1 10 9 0 8 9 21 20 29 18 13 19 16 5 27 -12 10 -18 10 -30
0 -10 -9 -15 -9 -15 -1 0 6 5 11 12 11 9 0 9 3 0 12 -9 9 -15 8 -26 -7 -13
-18 -14 -18 -20 3 -7 19 -29 28 -59 23 -5 -1 -6 3 -2 9 3 6 3 19 0 31 -6 18
-12 20 -50 15 -24 -4 -62 -13 -86 -21 -38 -14 -43 -14 -54 2 -7 9 -11 22 -8
28 2 7 -1 24 -6 38 -9 23 -8 27 7 27 10 0 23 5 30 12 7 7 24 12 39 13 14 0 28
5 30 12 6 17 -48 20 -78 4 -34 -19 -56 -9 -64 30 -4 19 -15 33 -27 37 -19 4
-17 8 13 38 19 18 44 46 56 62 20 27 30 30 100 37 42 4 88 11 101 16 23 9 23
10 8 34 -21 32 -20 37 7 33 17 -2 22 -10 22 -33 0 -22 4 -29 15 -26 8 2 27 6
42 9 24 4 27 8 25 39 -2 37 9 49 31 34 12 -7 12 -12 1 -29 -12 -19 -11 -24 3
-38 13 -13 20 -14 38 -4 12 6 32 9 44 6 20 -5 21 -2 18 34 -5 46 11 58 55 42
25 -9 26 -10 6 -11 -22 -1 -34 -21 -13 -21 6 0 10 -8 10 -19 0 -17 4 -17 45
-8 31 7 44 15 41 23 -3 8 0 16 6 20 7 4 6 9 -3 15 -20 12 -7 19 37 22 35 2 40
-1 53 -31 12 -26 19 -31 35 -25 12 3 32 7 46 7 20 1 25 6 25 26 0 15 -6 26
-15 26 -29 3 -31 4 -25 14 3 6 19 10 35 10 23 0 31 -5 36 -24z m-1101 -66
c-14 -31 -22 -39 -37 -34 -10 3 -18 0 -18 -6 0 -7 -8 -9 -20 -5 -25 8 -25 0
-1 -31 15 -20 17 -31 10 -69 -5 -26 -11 -51 -14 -56 -4 -5 0 -9 8 -9 10 0 13
-7 10 -19 -3 -12 2 -20 16 -24 24 -6 24 -6 11 28 -8 21 -7 26 2 22 7 -2 12
-10 11 -16 -2 -6 2 -11 8 -11 5 0 7 -5 4 -10 -7 -12 42 -3 60 10 10 7 96 30
114 30 6 0 11 -7 11 -15 0 -8 6 -15 13 -15 7 0 18 -15 25 -33 16 -45 15 -56
-5 -32 l-16 20 8 -20 c14 -38 17 -65 7 -65 -6 0 -14 10 -17 23 -21 70 -38 107
-49 98 -6 -5 -48 -23 -93 -41 -46 -17 -83 -35 -83 -39 0 -5 11 -33 24 -62 25
-57 48 -149 37 -149 -7 0 -81 170 -81 188 0 16 -12 15 -52 -2 -18 -8 -52 -22
-75 -32 -24 -9 -43 -21 -43 -26 0 -5 14 -48 30 -95 32 -91 35 -103 21 -103 -4
0 -16 21 -26 48 -15 41 -45 111 -50 120 -1 1 -30 -11 -64 -28 -34 -17 -66 -28
-72 -24 -13 7 44 39 89 48 17 4 32 12 32 17 0 11 -6 11 -28 0 -9 -5 -35 -14
-57 -20 -69 -19 -69 -18 -33 -119 21 -62 37 -92 47 -93 11 0 12 -2 4 -6 -7 -2
-13 -12 -13 -20 0 -13 -3 -13 -15 -3 -8 7 -15 19 -15 27 0 11 -7 14 -27 10
-24 -4 -26 -4 -10 8 9 7 17 17 17 24 0 14 5 14 -55 -5 -68 -21 -86 -24 -80
-15 2 5 32 19 65 31 34 13 59 28 57 34 -3 6 -13 29 -23 52 l-18 41 -72 -29
c-63 -26 -71 -32 -66 -51 3 -12 8 -26 12 -32 12 -16 62 -176 57 -181 -8 -9
-24 21 -62 119 -21 53 -42 97 -46 97 -5 0 -23 -6 -41 -14 -18 -8 -46 -18 -62
-21 -21 -4 -27 -10 -23 -23 4 -9 19 -55 35 -102 36 -107 47 -148 34 -135 -13
12 -92 205 -92 223 0 16 -6 15 -70 -9 -74 -28 -72 -25 -54 -67 8 -20 22 -57
30 -82 18 -56 42 -101 62 -117 11 -9 18 -9 29 3 21 20 28 18 29 -11 2 -19 -3
-25 -20 -25 -15 0 -17 -3 -7 -9 9 -6 10 -11 2 -15 -6 -4 -11 -2 -11 4 0 6 -11
15 -24 20 -13 5 -30 21 -38 37 -8 15 -75 124 -149 242 -134 213 -224 357 -261
419 -21 34 -18 53 5 34 8 -7 33 -44 56 -83 69 -116 112 -181 117 -176 2 2 -7
35 -21 72 -13 38 -23 71 -20 73 2 3 9 -7 14 -22 9 -22 16 -26 48 -25 21 0 32
3 24 6 -23 9 -51 42 -51 61 0 10 6 26 13 36 15 21 38 13 69 -21 17 -19 15 -63
-3 -63 -5 0 -9 -5 -9 -11 0 -8 13 -9 39 -5 23 3 42 2 46 -4 3 -5 15 -10 26
-10 13 0 19 -7 19 -21 0 -16 3 -19 13 -11 22 19 41 -2 33 -38 -3 -19 -1 -38 5
-46 15 -18 -2 -18 -27 1 -29 22 -64 19 -64 -5 0 -14 11 -22 41 -30 22 -6 43
-18 46 -26 7 -19 26 -18 68 6 38 21 70 27 60 10 -11 -18 42 -10 68 10 14 11
31 20 39 20 7 0 34 8 61 17 39 14 46 20 42 37 -3 12 -2 15 1 9 7 -15 40 -17
48 -4 3 5 21 12 40 15 19 4 48 19 64 34 16 15 40 28 53 29 13 1 25 7 27 13 2
5 10 10 19 10 12 0 12 2 -2 16 -9 9 -14 23 -11 30 3 8 1 14 -4 14 -6 0 -10 6
-10 13 0 25 -30 75 -55 91 -30 20 -33 6 -5 -19 21 -19 45 -89 36 -104 -3 -5 1
-14 9 -21 17 -14 20 -30 6 -30 -10 0 -30 31 -53 83 -7 15 -16 27 -20 27 -13 0
-9 -40 8 -76 9 -19 14 -37 12 -39 -3 -3 -22 7 -44 23 -21 15 -79 45 -127 66
-48 21 -90 43 -93 48 -11 17 104 99 183 131 81 32 248 85 308 97 33 7 73 18
90 26 16 7 31 11 34 8 2 -2 -4 -22 -14 -44z m-4654 -109 c-29 -57 -48 -106
-45 -115 4 -10 -6 -30 -26 -52 -28 -32 -47 -67 -70 -129 -9 -23 -48 -176 -56
-220 -3 -16 -9 -36 -13 -43 -11 -20 5 -109 29 -154 11 -21 43 -68 70 -104 56
-73 74 -104 63 -105 -4 0 -114 0 -243 1 -180 1 -242 4 -263 15 -25 12 -34 12
-62 0 -28 -11 -33 -11 -29 0 3 7 -2 15 -12 17 -26 5 -144 -15 -144 -24 0 -4
-31 -8 -70 -8 -64 0 -86 9 -60 25 6 3 10 23 10 43 0 20 5 44 10 52 7 11 10 0
10 -37 l0 -53 65 0 65 0 0 30 c0 17 5 30 10 30 6 0 10 -4 10 -10 0 -5 10 -16
23 -24 19 -13 31 -13 87 -2 36 8 69 12 75 10 6 -3 19 2 30 11 16 12 17 16 6
24 -16 11 -6 17 42 26 37 7 48 19 25 28 -10 4 -10 8 -2 14 17 12 22 68 7 69
-7 1 -22 2 -33 3 -25 1 -26 21 -1 21 11 0 21 9 24 22 8 30 0 38 -32 32 -23 -5
-32 -2 -40 15 -10 18 -8 21 16 26 62 13 78 45 48 92 -13 19 -14 28 -5 37 17
17 52 -32 39 -57 -12 -22 -3 -56 21 -79 16 -15 19 -15 24 -2 3 9 6 36 6 60 0
42 1 45 23 39 37 -12 41 -11 45 13 3 18 -1 22 -25 22 -37 0 -48 8 -65 50 -14
32 -13 37 4 54 20 22 24 46 6 46 -6 0 -4 6 6 13 17 12 17 14 2 20 -20 8 -21
27 -2 27 19 0 29 -31 20 -65 -4 -15 -1 -45 7 -67 11 -34 11 -41 -2 -49 -10 -6
-7 -9 14 -9 26 0 28 2 22 29 -5 26 -2 32 24 45 38 20 39 20 44 -6 2 -13 5 10
6 50 1 56 4 72 16 72 9 0 17 -14 21 -39 4 -27 11 -38 19 -34 14 5 14 40 1 61
-11 18 14 15 36 -5 16 -14 18 -14 18 -1 0 9 7 18 15 22 10 4 13 14 9 35 -5 25
-3 30 17 33 18 2 27 13 37 42 7 21 21 50 31 65 11 15 28 47 37 72 10 24 24 50
31 57 7 7 13 18 13 24 0 6 3 9 6 5 3 -3 -17 -51 -45 -106z m750 -785 c3 -17
-1 -31 -8 -33 -7 -3 -13 0 -13 6 0 6 -13 11 -29 11 -17 0 -33 5 -36 10 -3 6 3
10 14 10 32 0 25 24 -11 43 -21 10 -27 16 -15 16 21 1 23 43 3 60 -8 7 -24 31
-35 54 -19 38 -19 42 -4 59 22 24 34 23 25 -3 -12 -33 -2 -88 19 -100 17 -9
18 -6 15 43 -2 40 2 60 16 81 11 15 15 27 9 27 -18 0 -12 72 11 138 l23 63 6
-228 c4 -125 8 -241 10 -257z m6231 388 c24 -13 36 -14 49 -5 12 7 20 7 24 1
3 -6 -1 -10 -9 -10 -9 0 -16 -4 -16 -9 0 -14 35 -19 55 -8 13 7 20 6 27 -7 5
-9 17 -16 27 -16 11 0 24 -12 31 -30 7 -16 16 -30 20 -30 15 0 77 22 111 41
20 10 47 19 60 19 36 1 149 -32 143 -41 -2 -4 -12 -6 -22 -3 -11 3 -10 1 3 -6
11 -6 25 -22 32 -36 10 -21 9 -26 -3 -31 -9 -3 -26 0 -38 7 -30 16 -78 5 -114
-24 -15 -13 -45 -29 -67 -36 -22 -7 -69 -26 -104 -41 -35 -16 -74 -29 -87 -29
-13 0 -24 -4 -24 -10 0 -6 -28 -10 -64 -10 l-63 0 -21 68 c-31 100 -37 152
-18 152 8 0 28 11 43 25 l28 24 -27 1 c-32 0 -54 30 -36 48 16 16 23 15 60 -4z
m-4567 -133 c86 -58 123 -200 94 -362 -15 -84 -14 -106 5 -128 8 -9 17 -27 21
-40 4 -13 14 -40 22 -58 12 -29 16 -33 29 -22 11 9 18 9 26 1 13 -13 0 -35
-18 -28 -19 7 -18 -10 5 -77 11 -31 16 -59 11 -62 -9 -5 -29 40 -71 163 -15
45 -38 96 -49 113 -17 22 -21 38 -16 62 35 181 32 274 -15 355 -50 88 -145
118 -279 87 l-25 -6 25 11 c36 16 130 29 165 23 17 -3 48 -17 70 -32z m4340 5
c77 -1 80 -2 77 -23 -2 -12 2 -32 8 -43 15 -29 4 -59 -26 -66 -26 -7 -33 -24
-10 -24 9 0 13 -10 11 -31 -3 -37 -11 -46 -50 -52 -16 -3 -1 -4 35 -4 l65 2 2
-42 c2 -52 -21 -59 -40 -14 -16 39 -41 27 -31 -14 6 -26 5 -28 -17 -22 -13 4
-30 7 -36 7 -7 0 -13 9 -13 19 0 11 -4 23 -10 26 -19 12 -10 -32 10 -50 11
-10 20 -14 20 -9 0 5 9 -2 19 -16 12 -15 30 -25 48 -25 23 -1 29 -7 34 -31 6
-31 -5 -64 -21 -64 -6 0 -19 9 -29 19 -18 18 -19 18 -25 -20 -3 -21 -1 -49 6
-64 10 -22 9 -29 -6 -43 -17 -16 -17 -13 -14 58 l3 75 -81 3 c-69 2 -83 6 -87
21 -2 10 -1 25 4 33 5 8 4 29 0 46 -6 19 -5 34 2 41 6 6 9 13 6 15 -2 3 -72 1
-154 -4 -146 -9 -315 -4 -315 10 0 3 -16 12 -35 20 -19 8 -35 19 -35 25 0 18
31 56 41 49 13 -8 99 18 93 27 -6 11 12 20 49 26 39 6 67 20 67 33 0 6 8 10
19 10 21 0 93 28 101 40 9 13 67 40 73 33 3 -3 19 4 34 16 24 18 36 20 78 14
28 -3 86 -7 130 -7z m4383 -81 c55 -20 98 -51 123 -92 26 -42 34 -139 20 -232
-7 -41 -8 -77 -4 -80 14 -10 73 -135 79 -168 6 -28 8 -30 25 -20 16 10 21 9
29 -3 10 -16 -6 -43 -20 -35 -13 8 -23 -15 -12 -28 12 -14 27 -87 19 -87 -4 0
-15 30 -27 68 -26 86 -62 175 -74 184 -5 3 -15 4 -23 1 -23 -9 -20 -25 43
-216 9 -26 14 -51 10 -54 -3 -3 -8 0 -11 8 -3 8 -16 46 -29 84 -59 166 -56
161 -84 146 -20 -11 -20 -11 -1 -63 10 -29 19 -54 19 -57 0 -2 6 2 14 8 12 10
17 8 26 -9 10 -18 9 -22 -9 -27 -12 -3 -21 -6 -21 -8 0 -1 7 -22 15 -45 17
-48 18 -60 8 -60 -5 0 -21 43 -38 96 -16 53 -33 98 -37 100 -5 3 -8 14 -8 25
0 14 -7 19 -25 19 -14 0 -25 -6 -25 -12 0 -7 16 -60 35 -118 35 -104 49 -183
19 -105 -34 88 -35 90 -44 76 -4 -8 -13 -10 -19 -7 -15 10 -14 -3 4 -54 15
-44 20 -78 9 -67 -4 4 -21 49 -39 102 -17 52 -35 98 -38 102 -4 3 -7 15 -7 25
0 11 -7 18 -18 18 -26 0 -32 -9 -22 -29 11 -18 70 -210 70 -225 0 -23 -27 34
-49 104 -14 41 -28 79 -33 84 -4 6 -8 18 -8 29 0 32 -35 16 -36 -17 -1 -36 61
-235 79 -254 8 -7 35 -14 60 -15 l46 -2 -5 -55 c-7 -73 21 -122 89 -158 42
-22 62 -25 170 -27 121 -2 150 -9 190 -43 22 -19 22 -44 -2 -90 -27 -53 -54
-72 -160 -117 l-94 -39 -231 -6 c-127 -4 -242 -10 -255 -13 -107 -28 -160 -63
-331 -217 -113 -102 -286 -227 -343 -249 -12 -5 -47 -20 -79 -35 -31 -14 -90
-33 -132 -42 -44 -10 -76 -22 -76 -29 0 -25 -25 -35 -61 -25 -22 7 -35 7 -37
0 -2 -5 -10 -4 -18 4 -20 20 -18 26 9 26 49 0 35 14 -30 32 -38 11 -76 20 -86
21 -27 3 -142 112 -182 171 -57 86 -110 210 -169 396 -108 342 -111 356 -111
530 0 127 3 165 19 210 10 30 18 66 18 80 l-2 25 19 -29 c19 -28 19 -29 -1
-62 -18 -30 -18 -36 -5 -54 8 -12 12 -30 10 -41 -4 -14 -1 -18 10 -13 10 3 20
-2 26 -15 10 -17 9 -20 -4 -15 -17 7 -18 -1 -5 -31 7 -17 9 -17 9 -2 1 9 3 17
5 17 15 0 126 -125 126 -141 0 -2 -15 -5 -34 -6 -27 -2 -35 1 -39 19 -4 12 -9
19 -12 16 -9 -8 23 -68 35 -68 6 0 10 -5 10 -11 0 -7 30 -43 67 -80 66 -66 69
-68 109 -62 32 4 46 1 62 -13 42 -40 78 -68 109 -86 18 -11 35 -29 39 -40 4
-13 12 -18 25 -15 14 4 19 0 19 -13 0 -22 31 -78 46 -84 20 -8 63 6 67 23 3 9
5 -3 6 -26 1 -32 -3 -43 -14 -43 -10 0 -15 -11 -15 -35 0 -27 4 -35 18 -35 27
0 39 12 50 50 33 106 44 128 73 141 16 6 32 9 36 5 3 -3 -2 -6 -13 -6 -16 0
-16 -2 -4 -10 13 -8 13 -13 -3 -40 -10 -16 -15 -35 -11 -41 4 -7 0 -9 -14 -5
-17 6 -21 1 -26 -30 -8 -41 -3 -52 18 -35 9 8 16 8 20 2 4 -6 -12 -15 -36 -22
-24 -6 -59 -19 -78 -29 -19 -9 -63 -25 -97 -35 -42 -13 -63 -24 -66 -37 -3
-10 -11 -18 -19 -18 -7 0 -19 -12 -25 -27 -17 -35 -16 -43 2 -43 8 0 15 7 15
15 0 20 7 19 30 -3 19 -17 19 -18 -12 -20 -18 -2 -34 -4 -36 -6 -10 -11 28
-48 59 -57 30 -9 44 -8 80 8 24 10 69 26 99 35 30 10 123 38 205 63 83 26 173
53 200 60 113 31 154 51 185 90 33 42 40 71 14 61 -14 -5 -16 -1 -11 23 7 35
-17 61 -55 61 -22 0 -28 6 -33 32 -5 21 -4 33 4 36 6 2 11 11 11 19 0 9 -6 13
-15 9 -21 -8 -51 62 -36 86 8 13 6 33 -8 76 -21 68 -21 69 56 126 40 31 50 43
42 53 -6 7 -9 21 -6 32 4 17 -3 19 -62 23 -36 3 -75 9 -86 13 -20 8 -20 8 -1
-13 17 -20 47 -33 109 -46 15 -4 25 -10 23 -15 -8 -12 -76 -19 -76 -8 0 4 -4
5 -10 2 -5 -3 -10 2 -10 12 -1 17 -1 17 -11 1 -5 -10 -19 -18 -30 -18 -11 0
-18 4 -15 9 7 11 -63 81 -81 81 -7 0 -12 3 -11 8 4 18 -16 42 -36 41 -20 0
-20 -1 3 -10 13 -5 22 -12 19 -14 -8 -9 -139 55 -145 71 -4 12 -8 12 -20 2
-12 -10 -18 -9 -28 5 -13 18 -35 23 -35 8 0 -5 -16 6 -36 24 l-36 34 20 29
c12 16 40 46 63 66 34 32 46 37 71 32 21 -4 28 -2 26 7 -3 6 -16 13 -30 15
-15 2 -39 15 -54 29 -15 14 -44 34 -64 44 -34 18 -68 65 -55 77 6 7 -25 29
-60 42 -17 6 -24 7 -20 0 3 -6 1 -10 -4 -10 -6 0 -11 11 -11 25 0 25 1 25 78
25 42 0 127 -7 187 -15 156 -21 269 -19 344 5 85 27 163 71 235 134 55 48 178
128 231 151 79 34 187 43 253 20z m1321 -104 c14 -9 33 -14 43 -13 12 2 18 -3
18 -16 0 -11 12 -28 28 -37 66 -43 127 -103 169 -167 25 -38 58 -82 74 -98 35
-35 59 -97 59 -153 0 -44 -12 -43 -18 1 -2 15 -10 37 -18 49 -8 12 -14 32 -14
43 0 19 -4 21 -32 15 -46 -10 -56 -21 -60 -63 -2 -30 -7 -38 -26 -40 -27 -4
-44 14 -73 78 -24 52 -48 82 -60 74 -5 -3 -19 11 -31 31 -18 31 -25 36 -49 33
-15 -3 -26 -1 -23 3 2 4 -5 10 -16 14 -11 3 -20 11 -20 16 0 6 -7 17 -15 25
-8 8 -12 20 -9 27 5 15 -33 41 -41 27 -9 -15 -25 -12 -25 5 0 8 9 19 20 25 11
6 20 18 20 27 0 15 2 15 18 0 9 -8 43 -33 75 -54 32 -21 85 -72 117 -112 62
-75 82 -73 35 4 -26 42 -30 49 -39 77 -3 10 -11 15 -19 12 -8 -3 -32 16 -58
46 -24 27 -50 50 -57 50 -7 0 -24 7 -38 17 -19 12 -22 18 -12 24 9 6 6 9 -9 9
-16 0 -23 6 -22 18 0 9 3 12 5 5 4 -8 11 -6 24 7 21 21 36 19 79 -9z m-5280
-28 c7 -16 8 -29 3 -32 -5 -3 -11 -15 -13 -25 -6 -30 -27 -31 -35 -2 -3 14
-12 26 -19 26 -26 0 -45 -12 -45 -29 0 -14 2 -14 10 -1 7 11 10 5 10 -23 0
-26 -4 -36 -12 -31 -8 5 -9 -9 -5 -54 l7 -62 -39 0 -38 0 -7 102 c-6 97 -5
103 15 119 19 14 25 14 64 0 36 -13 46 -13 59 -2 9 7 16 20 16 27 0 23 16 16
29 -13z m-4069 -112 c9 -36 13 -39 43 -37 l32 1 3 -132 3 -132 -23 3 c-13 2
-30 7 -39 10 -10 4 -23 7 -30 5 -27 -3 -39 1 -39 14 0 7 -11 37 -25 65 -14 29
-25 57 -25 62 0 6 -9 28 -19 48 -23 45 -30 84 -16 89 6 2 18 -20 28 -47 20
-56 39 -59 30 -5 -4 28 -2 35 11 35 9 0 16 -8 16 -20 0 -11 11 -27 24 -35 14
-10 28 -33 34 -58 6 -23 18 -51 26 -62 13 -18 13 -16 6 20 -13 64 -22 89 -36
105 -20 23 -45 90 -39 100 12 20 24 9 35 -29z m9134 27 c16 -56 39 -107 46
-103 5 3 6 13 3 22 -5 14 -1 15 27 10 47 -10 58 -22 96 -102 18 -40 39 -77 47
-84 8 -6 20 -24 26 -39 7 -15 31 -42 55 -60 40 -30 63 -73 49 -94 -8 -15 -44
13 -60 47 -9 19 -20 32 -25 29 -4 -3 -8 0 -8 6 0 6 -7 18 -16 27 -8 9 -13 22
-10 30 3 7 0 13 -7 12 -28 -3 -37 2 -37 26 0 19 -7 26 -27 31 -16 4 -34 11
-40 17 -7 5 -13 6 -13 1 0 -8 -13 12 -47 79 -8 15 -21 27 -28 27 -12 0 -65 99
-65 121 0 14 30 11 34 -3z m-8433 -78 c14 0 19 -7 19 -25 0 -23 -2 -24 -20
-13 -16 11 -22 9 -40 -9 -27 -29 -25 -35 6 -23 31 12 37 12 30 1 -3 -5 3 -11
14 -14 10 -3 22 0 25 7 3 7 7 7 10 1 3 -6 38 -9 81 -8 55 2 74 -1 71 -10 -2
-8 -40 -14 -110 -17 -58 -3 -109 -8 -113 -12 -4 -5 5 -8 19 -8 15 0 27 -4 27
-10 0 -5 -17 -10 -38 -10 -21 0 -43 -5 -50 -12 -17 -17 -26 15 -15 49 5 16 8
59 5 97 l-5 70 32 -27 c18 -15 41 -27 52 -27z m2488 35 c16 -8 32 -11 37 -7 5
4 2 -1 -5 -10 -7 -10 -17 -15 -22 -12 -11 7 -11 -27 0 -44 7 -11 9 -11 14 2 3
8 1 17 -6 20 -7 3 7 4 31 2 23 -2 45 -6 49 -9 11 -12 -63 -47 -100 -47 -24 0
-36 -4 -32 -10 9 -14 -14 -108 -27 -116 -7 -4 -8 5 -3 24 6 27 4 30 -14 25
-11 -3 -19 -10 -18 -15 1 -6 -3 -12 -9 -15 -23 -8 -12 48 12 64 13 8 24 23 24
32 0 9 7 25 15 35 8 11 15 37 15 58 0 43 1 43 39 23z m-3405 -55 c11 -27 14
-28 27 -14 14 13 18 13 36 -3 27 -24 113 -247 100 -260 -3 -3 -20 -6 -38 -6
-38 -2 -54 21 -88 128 -13 39 -31 84 -41 100 -23 39 -34 85 -20 85 6 0 17 -13
24 -30z m-83 -82 c12 -40 32 -83 45 -96 14 -14 28 -47 35 -80 6 -31 18 -66 25
-77 8 -11 14 -32 14 -47 0 -16 5 -28 10 -28 6 0 10 -9 10 -20 0 -23 -6 -24
-40 -5 -19 11 -21 14 -7 15 21 0 22 -4 -8 54 -30 59 -45 77 -56 70 -5 -3 -9
13 -9 35 0 35 3 41 21 41 11 0 18 4 14 9 -3 6 -19 8 -35 6 -27 -3 -29 -1 -24
24 3 15 -3 50 -15 81 -23 59 -27 90 -12 90 5 0 19 -33 32 -72z m-505 16 c87
-25 143 -84 94 -99 -25 -8 -25 -11 1 -74 16 -38 25 -49 34 -41 9 7 16 6 23 -3
13 -15 -1 -43 -17 -33 -15 10 -14 -2 5 -57 9 -25 14 -54 12 -64 -4 -21 -64
127 -81 199 -8 31 -17 48 -27 48 -39 -1 -39 -14 6 -145 47 -142 48 -145 35
-145 -5 0 -20 29 -33 65 -18 53 -25 62 -34 50 -6 -8 -14 -12 -17 -8 -12 11 -8
-16 9 -68 9 -27 14 -52 11 -55 -7 -8 -29 44 -69 161 -17 50 -31 91 -32 92 -1
1 -12 0 -24 -4 -33 -8 -28 -58 16 -188 32 -94 41 -110 62 -115 24 -6 25 -9 22
-67 -9 -159 134 -246 352 -213 95 14 131 4 141 -41 9 -40 -32 -91 -114 -139
-112 -66 -180 -81 -396 -89 -176 -8 -195 -10 -259 -36 -74 -30 -130 -69 -215
-148 l-54 -51 -14 28 c-8 15 -12 33 -10 40 3 8 -14 35 -39 61 -40 44 -61 81
-52 90 2 3 27 -16 56 -41 38 -33 52 -53 52 -72 1 -24 2 -25 11 -9 6 10 15 32
19 49 8 24 6 29 -6 24 -9 -3 -17 1 -20 12 -16 47 -28 62 -55 62 -21 0 -29 7
-37 29 -8 23 -7 32 3 41 17 14 9 41 -10 34 -8 -3 -15 5 -18 23 -4 21 0 32 16
45 17 13 22 28 22 65 1 26 4 62 8 79 l8 30 -51 3 c-30 1 -50 -2 -50 -9 0 -21
-52 -5 -88 28 -7 6 -22 12 -32 12 -10 0 -21 4 -24 8 -2 4 -24 9 -48 11 -24 1
-44 6 -46 12 -2 5 -13 9 -25 9 -21 0 -74 15 -117 34 -14 5 -35 23 -48 38 -13
15 -28 28 -33 28 -11 0 -49 37 -49 48 -1 25 -16 41 -54 56 -33 13 -42 21 -42
39 1 15 -5 22 -15 21 -10 -1 -22 9 -27 21 -9 19 -7 26 9 41 10 9 19 23 19 30
0 37 84 44 157 13 26 -11 73 -25 103 -31 30 -5 81 -21 112 -34 75 -31 103 -32
94 -1 -25 86 -20 101 49 145 103 66 249 120 406 152 123 24 338 27 415 4z
m4789 -322 c48 -23 89 -33 200 -46 77 -9 146 -16 153 -16 6 0 12 -5 12 -11 0
-5 -4 -7 -10 -4 -5 3 -131 7 -280 9 -149 2 -273 6 -276 9 -3 3 -7 20 -7 38 -2
25 3 36 20 44 37 19 122 8 188 -23z m-3441 -48 c10 -7 24 -10 31 -8 7 3 15 -1
18 -9 3 -7 30 -21 59 -31 30 -9 70 -30 89 -46 l34 -29 -37 -1 c-42 0 -48 -9
-18 -28 11 -7 20 -17 20 -22 0 -13 -197 -12 -265 0 -27 6 -74 13 -104 16 -42
6 -51 10 -40 18 23 18 57 70 64 99 15 57 94 79 149 41z m6416 -69 c13 -14 28
-25 33 -25 5 0 25 -16 46 -35 55 -53 113 -98 154 -120 38 -20 47 -39 24 -48
-21 -8 -63 3 -84 22 -10 9 -27 16 -38 16 -13 0 -21 8 -23 23 -2 13 -10 22 -20
22 -9 0 -37 16 -61 35 -24 19 -47 35 -51 35 -17 0 -40 51 -34 75 8 32 24 32
54 0z m-8875 -215 c10 0 26 -7 35 -15 9 -9 44 -20 76 -26 80 -15 162 -38 204
-59 23 -11 44 -14 60 -9 37 11 60 10 60 -1 0 -5 -6 -10 -14 -10 -8 0 -16 -5
-18 -11 -8 -23 -92 -20 -149 5 -30 13 -73 27 -96 31 -24 4 -43 10 -43 14 0 5
-25 11 -56 14 -62 6 -87 23 -103 70 -11 29 -10 29 7 14 10 -10 27 -17 37 -17z
m4683 -34 c18 -18 29 -96 13 -96 -6 0 -11 9 -11 21 0 18 -4 20 -47 14 -27 -4
-73 -11 -103 -17 -30 -5 -75 -14 -100 -18 -25 -5 -65 -13 -90 -19 -40 -9 -43
-8 -25 5 11 8 37 19 58 25 29 8 41 17 49 40 l10 29 19 -23 18 -22 1 21 c0 12
7 27 15 34 11 9 20 8 44 -9 30 -22 71 -28 71 -12 0 5 -11 8 -25 5 -29 -5 -47
22 -24 37 18 13 110 1 127 -15z m-1377 -291 c47 -10 67 -11 86 -2 22 10 28 8
45 -13 l21 -25 -8 33 c-7 34 10 46 22 15 12 -32 58 -83 75 -83 9 0 50 -18 92
-40 41 -22 81 -40 88 -40 7 0 24 -12 37 -25 14 -15 34 -25 52 -25 22 0 29 -5
29 -20 0 -11 -4 -20 -8 -20 -11 0 -156 92 -160 102 -2 4 -10 8 -17 8 -7 0 -46
13 -86 30 -80 32 -94 36 -84 20 8 -13 -19 -13 -66 1 -20 7 -39 19 -42 29 -3
12 -20 19 -58 25 -30 4 -61 9 -69 10 -8 1 -71 9 -140 16 -121 14 -123 14 -65
20 81 8 183 1 256 -16z m-5788 -93 c23 -19 26 -79 18 -377 -5 -197 -11 -286
-20 -300 -11 -18 -12 -16 -7 15 3 19 8 170 12 335 6 251 5 302 -7 311 -9 7
-91 14 -213 18 -110 3 -202 9 -205 12 -12 12 407 -2 422 -14z"/>
<path d="M10185 6244 c-94 -16 -118 -24 -132 -42 -11 -13 -47 -14 -280 -8
-148 3 -394 9 -548 12 l-280 7 -3 -79 c-2 -43 -8 -87 -14 -97 -14 -26 1 -194
19 -213 8 -8 26 -14 41 -15 l27 -1 -25 -7 c-49 -14 48 -20 330 -21 151 0 313
-5 360 -10 47 -5 138 -15 203 -21 94 -10 117 -15 118 -28 5 -77 -7 -347 -16
-361 -6 -10 -122 -11 -524 -6 l-517 6 -2 -31 c-1 -17 -7 -39 -12 -48 -5 -10
-5 -23 0 -31 5 -8 5 -21 0 -31 -5 -9 -8 -18 -5 -20 2 -2 6 -42 10 -89 7 -109
14 -140 28 -140 7 0 6 -4 -3 -10 -17 -10 -14 -15 18 -24 17 -6 22 -3 22 11 1
22 23 53 39 53 15 0 14 -4 -9 -51 -19 -36 -19 -41 -5 -55 9 -9 15 -11 15 -4 0
6 8 22 17 34 15 20 22 22 57 14 21 -5 43 -5 48 0 11 11 -42 60 -71 64 -36 5
-39 28 -4 28 29 0 84 -33 107 -66 10 -14 30 -17 100 -18 49 -1 90 2 93 7 2 4
16 4 31 1 21 -4 24 -3 12 5 -13 9 -11 11 7 11 12 0 28 3 36 6 8 3 21 -2 30
-10 8 -9 34 -18 56 -22 36 -6 41 -4 35 10 -5 12 0 16 22 16 23 0 26 -2 14 -10
-13 -9 -13 -11 -1 -19 17 -11 41 -3 41 13 0 6 16 11 35 12 22 0 31 -3 23 -8
-14 -9 -12 -9 87 -14 41 -2 68 2 83 13 13 8 26 12 30 9 3 -3 -1 -6 -9 -6 -25
-1 35 -29 62 -30 35 0 87 -27 93 -48 4 -10 14 -18 23 -19 10 -1 50 -10 88 -21
42 -12 74 -16 81 -11 6 5 14 5 19 1 4 -4 4 9 0 28 -9 43 -24 80 -24 63 -1 -18
-21 -16 -21 2 0 8 5 15 10 15 6 0 10 55 10 144 0 167 4 176 76 176 25 0 43 4
40 9 -3 5 36 9 86 9 51 0 94 4 95 9 2 6 27 6 66 -1 50 -8 57 -11 37 -17 -18
-5 -11 -7 28 -8 40 -1 57 -6 74 -23 13 -13 32 -23 43 -24 20 -1 200 -30 243
-40 22 -4 22 -8 18 -87 -5 -95 4 -128 32 -120 11 2 23 0 26 -6 4 -6 16 -11 26
-11 10 0 23 -8 28 -17 8 -13 22 -16 68 -15 117 5 241 36 249 64 4 10 11 18 16
18 5 0 9 7 9 15 0 8 5 15 10 15 6 0 10 7 10 15 0 8 5 15 10 15 6 0 10 10 10
22 0 25 21 90 32 99 5 3 -8 13 -27 22 -19 9 -35 21 -35 27 0 5 -9 10 -20 10
-24 0 -85 55 -76 68 3 5 -29 15 -72 21 -67 10 -310 52 -472 81 -30 5 -102 17
-160 26 -58 9 -114 20 -125 24 -11 5 -50 18 -86 30 -37 11 -89 38 -115 58 -44
33 -57 45 -95 90 -6 7 -20 34 -31 60 -17 39 -23 79 -30 227 -11 212 -11 185 2
264 6 35 9 65 8 66 -2 0 -34 -4 -73 -11z"/>
<path d="M6805 6241 c36 -6 38 -7 20 -18 -11 -6 -48 -14 -82 -18 -38 -4 -63
-12 -63 -19 0 -6 -8 -19 -17 -28 -36 -34 -43 -48 -43 -88 0 -33 -4 -42 -25
-52 -29 -13 -32 -23 -9 -32 11 -4 14 -13 10 -30 -7 -30 2 -56 19 -56 7 0 16
-6 18 -12 4 -10 6 -10 6 0 1 14 31 17 31 3 0 -5 16 -15 35 -21 40 -13 45 -27
13 -33 -13 -3 48 -4 134 -4 86 1 160 -2 164 -6 13 -12 243 -8 267 5 22 12 21
12 -8 19 -26 5 -27 7 -11 14 11 5 26 3 38 -4 17 -10 18 -9 12 14 -5 19 -2 25
11 25 11 0 15 -5 11 -15 -7 -19 -1 -19 18 1 13 12 16 40 16 135 0 118 0 120
-21 109 -11 -7 -23 -9 -27 -6 -3 3 1 6 8 6 7 0 10 3 7 7 -4 3 0 11 9 17 14 11
14 14 -3 33 -10 12 -36 31 -58 42 -37 20 -55 21 -280 20 -132 -1 -222 -5 -200
-8z"/>
<path d="M6540 5210 c0 -112 2 -201 5 -199 2 3 5 91 7 197 3 166 5 191 18 186
8 -4 26 -8 38 -9 28 -4 42 -15 19 -15 -9 0 -17 -4 -17 -10 0 -5 -7 -10 -15
-10 -10 0 -15 -10 -15 -28 0 -15 -5 -33 -11 -39 -7 -7 -8 -19 -4 -30 4 -10 9
-43 10 -73 1 -30 7 -74 14 -97 9 -33 17 -43 39 -47 94 -19 154 -26 177 -22 20
4 25 1 21 -9 -4 -12 14 -13 111 -9 63 2 121 8 127 11 12 8 18 9 59 11 21 2 27
7 27 25 0 30 29 57 62 57 20 0 27 -7 37 -40 l12 -40 60 0 c52 0 62 3 66 20 3
11 13 20 23 20 10 0 21 6 23 13 4 9 8 8 16 -3 18 -26 25 0 29 103 4 122 -11
160 -75 193 -45 23 -82 25 -630 40 l-233 7 0 -203z"/>
<path d="M4117 5213 c-42 -5 -42 -5 -6 -91 21 -48 62 -72 139 -79 37 -4 49 -1
64 16 11 12 25 21 33 21 33 0 5 101 -33 119 -26 12 -145 20 -197 14z"/>
<path d="M4001 4765 c-30 -8 -57 -12 -60 -10 -11 6 -59 -40 -66 -62 -5 -19 -2
-23 14 -23 11 0 37 -11 57 -25 76 -52 198 -65 237 -26 12 11 19 23 16 25 -3 3
-36 8 -74 11 -39 4 -88 11 -110 17 -32 8 -36 12 -22 19 40 23 129 29 201 14
39 -8 74 -15 79 -15 14 0 7 40 -8 41 -24 2 -28 4 -72 27 -48 25 -108 27 -192
7z"/>
<path d="M7351 2697 c-16 -16 -13 -35 10 -68 16 -23 17 -29 5 -29 -26 0 -29
-21 -5 -46 17 -19 33 -24 69 -24 54 0 70 13 70 56 0 33 -19 57 -42 52 -14 -3
-58 36 -58 51 0 14 -37 20 -49 8z"/>
<path d="M7623 2553 c-7 -3 -13 -15 -13 -28 0 -13 -5 -27 -11 -30 -6 -4 -7
-14 -3 -24 9 -22 17 -261 8 -261 -12 0 -33 34 -34 53 0 9 -4 17 -9 17 -16 0
-20 -43 -7 -69 7 -14 17 -44 21 -66 4 -22 11 -46 17 -52 12 -14 4 -43 -12 -43
-5 0 -10 11 -10 25 0 27 -10 31 -39 15 -13 -7 -17 -17 -13 -37 3 -15 10 -31
16 -35 16 -10 2 -19 -33 -20 -17 -1 -32 -5 -32 -10 -5 -34 -3 -74 4 -79 5 -4
28 -2 51 4 22 5 48 10 58 11 9 1 22 7 30 12 7 6 19 9 26 8 6 -1 16 -2 20 -3 5
0 14 -11 21 -23 l11 -23 -6 22 c-7 29 36 49 68 32 13 -7 23 -8 30 -1 7 7 22 5
45 -4 24 -10 39 -12 47 -5 7 6 22 8 34 4 13 -3 22 -1 22 6 0 6 -7 11 -15 11
-10 0 -15 10 -15 26 0 15 -8 34 -18 43 -14 12 -22 43 -31 121 -7 58 -19 132
-28 165 -8 33 -16 69 -16 79 -4 40 -25 27 -25 -15 -1 -23 -6 -47 -11 -52 -8
-8 -11 -6 -11 5 0 9 -7 29 -14 45 -14 27 -38 95 -56 158 -7 27 -8 25 -9 -20
-2 -49 -2 -49 -16 -25 -8 14 -14 33 -15 42 0 20 -10 27 -27 21z"/>
<path d="M10355 8973 c-16 -3 -38 -12 -48 -21 -18 -16 -20 -16 -32 1 -16 23
-23 22 -50 -7 -27 -29 -57 -46 -82 -46 -11 0 -30 -14 -42 -31 -19 -25 -21 -33
-10 -40 19 -12 26 -11 60 7 18 9 48 14 72 12 36 -2 42 0 45 19 2 11 11 28 22
38 17 15 21 15 59 -5 40 -20 41 -20 41 -1 0 11 5 23 10 26 15 9 12 55 -2 54
-7 -1 -26 -4 -43 -6z"/>
<path d="M10543 8539 c-6 -6 -8 -30 -5 -55 3 -32 0 -49 -11 -62 -24 -27 -9
-77 24 -77 17 0 23 5 21 17 -1 9 7 22 19 28 17 10 23 8 35 -7 16 -22 17 -34 4
-69 -14 -36 -6 -61 15 -44 8 7 15 21 15 31 0 11 6 19 14 19 7 0 13 8 13 18 -1
9 2 36 7 60 6 32 12 42 27 42 29 0 26 48 -3 52 -26 4 -68 -18 -68 -37 0 -23
-34 -44 -62 -38 -24 4 -28 10 -28 37 0 18 5 37 11 43 11 11 4 53 -10 53 -4 0
-12 -5 -18 -11z"/>
</g>
</svg>
