<?xml version="1.0" standalone="no"?>
<!DOCTYPE svg PUBLIC "-//W3C//DTD SVG 20010904//EN"
 "http://www.w3.org/TR/2001/REC-SVG-20010904/DTD/svg10.dtd">
<svg version="1.0" xmlns="http://www.w3.org/2000/svg"
 width="1600.000000pt" height="720.000000pt" viewBox="0 0 1600.000000 720.000000"
 preserveAspectRatio="xMidYMid meet">
<metadata>
Created by potrace 1.16, written by Peter Selinger 2001-2019
</metadata>
<g transform="translate(0.000000,720.000000) scale(0.100000,-0.100000)"
fill="#000000" stroke="none">
<path d="M1 3598 c1 -1982 5 -3587 9 -3568 5 19 15 161 24 315 21 365 27 435
37 435 4 0 6 -28 3 -62 -2 -35 -11 -178 -19 -318 -9 -140 -18 -288 -22 -327
l-6 -73 100 0 100 0 13 193 c15 241 31 346 25 167 -3 -69 -8 -178 -11 -243
l-7 -117 105 0 106 0 6 52 c3 29 11 195 17 368 6 173 15 331 19 350 13 58 12
-60 -5 -423 -8 -181 -13 -333 -10 -338 4 -5 50 -9 104 -9 l98 0 7 153 c4 83
11 264 16 401 6 137 12 252 15 254 8 9 4 -229 -9 -518 -7 -151 -11 -278 -9
-282 2 -5 48 -8 103 -8 l98 0 -1 33 c0 48 33 599 43 702 14 144 2 -241 -15
-490 -8 -116 -15 -217 -15 -226 0 -15 30 -16 305 -15 298 1 305 1 305 21 0 56
42 801 49 870 20 191 0 -294 -29 -715 -5 -80 -10 -153 -10 -163 0 -16 30 -17
541 -15 l542 3 12 41 c12 43 8 63 -22 93 -18 17 -25 10 -28 -31 -2 -33 -3 -33
-60 -36 l-57 -3 6 26 c4 17 3 24 -4 20 -5 -3 -10 -13 -10 -21 0 -8 -4 -13 -9
-9 -10 6 -2 41 19 88 14 28 37 39 26 12 -3 -8 -9 -22 -12 -30 -4 -10 0 -15 11
-15 12 0 15 -5 11 -17 -6 -16 -5 -16 11 -1 10 9 29 18 43 20 l24 3 1 212 c0
156 3 215 13 224 14 15 16 43 2 34 -16 -10 -11 40 8 87 11 24 27 79 37 122 21
90 41 116 105 141 25 9 68 31 95 49 28 19 61 37 75 41 14 4 39 21 57 37 26 25
41 31 90 34 50 2 59 0 60 -14 1 -12 -16 -25 -58 -42 -32 -14 -59 -29 -59 -35
0 -5 21 -23 46 -39 38 -24 43 -31 29 -38 -9 -5 -24 -6 -33 -2 -15 6 -50 13
-151 31 -41 7 -35 -11 6 -22 16 -3 36 -14 47 -23 12 -11 36 -17 70 -18 49 0
114 -19 104 -30 -3 -2 -20 -7 -39 -9 -19 -3 -50 -10 -69 -15 -26 -7 -14 -8 53
-4 71 4 87 2 87 -9 0 -19 -75 -51 -170 -73 -105 -24 -113 -38 -18 -30 48 3 88
13 110 25 18 11 47 21 63 23 28 3 30 1 33 -36 3 -30 -5 -56 -33 -108 -26 -50
-35 -77 -30 -96 4 -20 0 -31 -15 -42 -25 -18 -28 -52 -3 -43 14 5 13 0 -7 -33
-12 -21 -31 -47 -40 -58 -17 -17 -17 -17 -13 6 8 41 -15 48 -77 22 l-55 -23
55 3 c51 3 55 2 55 -19 0 -12 -4 -21 -10 -19 -5 2 -23 -8 -40 -21 -18 -15 -24
-25 -15 -25 16 0 67 -55 76 -83 9 -28 -5 -33 -22 -9 -20 29 -32 28 -40 -3 -4
-18 -13 -25 -30 -25 -15 0 -24 -6 -24 -15 0 -8 5 -15 10 -15 11 0 14 -33 3
-43 -3 -4 -19 14 -35 41 -41 68 -51 83 -71 104 -25 26 -30 19 -12 -16 8 -16
15 -35 15 -43 0 -8 11 -31 25 -51 14 -20 25 -42 25 -49 0 -7 4 -13 10 -13 5 0
7 -6 4 -14 -6 -16 32 -46 58 -46 10 0 18 -4 18 -10 0 -5 -13 -10 -29 -10 -24
0 -38 11 -73 55 -23 30 -48 55 -55 55 -7 0 -16 6 -20 14 -4 7 -18 17 -30 20
-42 13 -22 -32 45 -102 6 -8 17 -22 23 -33 9 -18 21 -19 232 -17 189 3 222 5
223 18 0 8 6 41 13 73 15 70 7 89 -10 23 -6 -25 -15 -49 -20 -52 -13 -8 -11
33 3 56 10 15 10 24 1 39 -6 10 -10 42 -9 72 3 45 0 56 -17 68 -18 13 -19 22
-14 87 4 40 12 92 19 117 10 37 9 48 -2 62 -8 9 -16 27 -18 38 -9 45 -4 237 6
237 6 0 62 -42 84 -62 19 -19 44 -20 58 -3 10 13 9 15 -9 15 -26 0 -131 65
-131 81 0 7 27 9 79 7 44 -2 77 0 75 4 -8 12 -77 28 -124 28 l-45 0 25 20 c19
15 42 20 100 20 61 1 70 3 50 11 -14 6 -46 8 -72 4 -28 -3 -48 -2 -48 4 0 11
57 61 70 61 4 0 10 13 13 30 5 23 14 31 39 38 28 7 33 13 36 41 3 26 -4 43
-29 75 -18 22 -39 45 -46 49 -20 12 -16 24 15 36 16 7 39 22 53 35 15 14 30
20 39 15 8 -4 40 -14 70 -23 90 -26 90 -24 88 -156 -2 -207 -1 -254 4 -295 3
-22 9 -76 13 -119 l8 -79 -37 6 c-47 7 -38 -9 10 -17 27 -6 34 -11 29 -23 -3
-9 0 -20 6 -24 15 -9 21 -59 8 -59 -5 0 -9 5 -9 11 0 8 -4 8 -13 1 -6 -5 -23
-12 -37 -14 -24 -3 -23 -4 13 -21 42 -20 46 -27 17 -27 -10 0 -35 14 -55 31
-44 39 -45 24 -5 -59 17 -34 28 -67 25 -72 -3 -6 -1 -10 4 -10 6 0 11 -11 11
-25 0 -14 7 -28 15 -31 20 -8 19 -44 0 -44 -13 0 -15 -7 -10 -34 6 -31 4 -34
-24 -44 -17 -6 -31 -14 -31 -17 0 -18 44 -65 61 -65 13 0 19 -7 19 -24 0 -23
3 -24 37 -19 35 6 37 5 21 -10 -9 -10 -29 -20 -45 -23 -25 -4 -32 1 -63 48
-32 50 -38 55 -97 70 -76 18 -77 14 -28 -68 19 -32 35 -63 35 -70 0 -7 5 -16
11 -20 9 -5 10 4 5 31 -5 23 -4 35 2 31 6 -3 13 -24 17 -46 l7 -40 3131 0
c2039 0 3137 4 3147 10 13 9 13 11 1 19 -12 8 -10 12 12 22 41 18 59 -3 26
-30 l-24 -20 1162 -1 c920 0 1162 3 1166 13 4 9 6 9 6 0 1 -10 243 -13 1176
-13 l1175 0 0 35 c0 24 5 35 15 35 18 0 20 -16 3 -23 -10 -4 -9 -8 2 -16 10
-7 18 -6 27 1 10 8 18 6 31 -6 23 -20 39 -21 22 -1 -11 13 -4 15 51 15 86 0
116 -19 34 -22 l-60 -1 65 -6 c36 -3 83 -4 105 -1 l40 5 -37 3 c-21 2 -38 7
-38 11 0 12 272 1 288 -11 6 -6 12 -6 12 -1 0 4 18 7 40 5 22 -2 40 -8 40 -13
0 -5 180 -9 420 -9 l420 0 0 540 c0 522 -1 540 -19 540 -10 0 -24 -7 -31 -15
-10 -13 -9 -15 9 -15 11 0 21 -4 21 -10 0 -5 -16 -10 -35 -10 -19 0 -35 -3
-35 -7 0 -10 -49 -33 -67 -33 -8 0 -16 -7 -19 -15 -4 -8 -10 -15 -15 -15 -5 0
-18 -8 -29 -18 -11 -9 -25 -18 -30 -18 -23 -3 -24 -5 -11 -13 10 -6 25 -4 42
5 35 17 39 17 39 0 0 -7 -13 -19 -28 -25 -15 -7 -40 -23 -55 -37 -27 -25 -40
-12 -14 15 10 11 9 13 -3 9 -8 -3 -20 -15 -27 -28 -6 -13 -19 -25 -29 -26 -22
-3 -36 -26 -21 -36 6 -4 15 -2 19 5 6 9 8 8 8 -3 1 -13 2 -13 13 1 7 9 25 19
42 23 16 4 32 11 35 15 3 5 16 12 30 16 22 7 23 6 11 -9 -7 -9 -19 -16 -25
-16 -7 0 -27 -11 -45 -24 -24 -18 -44 -24 -77 -22 -39 1 -46 -2 -51 -21 -3
-13 -13 -23 -22 -24 -12 0 -12 -2 4 -9 14 -6 16 -9 4 -9 -17 -1 -65 -51 -61
-64 1 -5 -2 -6 -8 -2 -18 11 -11 24 49 104 33 42 72 98 88 122 15 25 49 66 73
91 25 24 59 60 75 79 17 19 46 48 65 65 19 17 56 55 82 85 l48 54 0 74 c0 67
-1 73 -14 55 -13 -17 -14 -15 -9 24 3 26 2 42 -5 42 -12 0 -24 -29 -16 -41 8
-14 -23 -22 -43 -10 -17 10 -17 10 1 11 15 0 17 5 13 30 -6 28 -4 30 23 30 17
0 30 5 30 13 0 8 4 7 10 -3 6 -10 10 223 10 668 0 600 -2 682 -15 682 -8 0
-15 5 -15 10 0 6 7 10 15 10 13 0 15 249 15 2180 l0 2180 -8000 0 -8000 0 1
-3602z m13393 3473 c62 -36 118 -93 123 -123 2 -13 8 -24 13 -26 15 -6 13
-112 -3 -112 -12 0 -44 -42 -36 -48 6 -5 -44 -31 -61 -32 -8 0 -27 -6 -42 -14
-31 -17 -147 -11 -163 8 -5 7 -26 22 -46 34 -31 19 -38 30 -49 81 -11 51 -10
63 4 92 9 17 16 39 16 49 0 16 39 57 94 98 40 30 88 28 150 -7z m1670 -60 c3
-4 19 -11 35 -14 22 -5 36 -17 51 -46 11 -22 20 -50 20 -61 0 -12 4 -19 10
-15 6 3 6 -5 0 -22 -4 -15 -11 -44 -14 -64 -5 -30 -13 -39 -51 -58 -38 -19
-55 -21 -103 -16 -72 8 -151 35 -162 55 -4 8 -11 34 -15 57 -8 50 11 93 62
141 19 17 30 33 26 33 -15 3 62 16 99 18 20 0 39 -3 42 -8z m-11417 -116 c30
-12 45 -29 72 -77 35 -64 53 -136 30 -122 -8 5 -10 2 -6 -9 3 -8 -1 -21 -9
-27 -8 -7 -14 -16 -14 -21 0 -5 -9 -18 -20 -29 -11 -11 -20 -17 -20 -13 0 3
-11 -3 -23 -16 -20 -18 -34 -21 -83 -20 -32 1 -69 8 -81 16 -12 8 -35 15 -51
15 -30 1 -33 5 -68 101 -12 33 -12 42 -1 65 8 15 22 43 31 63 21 43 39 54 121
73 78 19 78 19 122 1z m-1248 -47 c12 -1 61 -46 88 -80 24 -32 33 -89 18 -119
-17 -32 -34 -39 -102 -42 -40 -2 -58 4 -92 26 -23 15 -46 40 -52 55 -16 41
-24 124 -12 120 6 -2 23 10 37 26 23 24 32 27 64 22 20 -3 43 -7 51 -8z m7638
-155 c-8 -16 -17 -63 -20 -106 -3 -43 -11 -85 -17 -93 -7 -8 -9 -14 -6 -14 4
0 -2 -13 -13 -29 -12 -16 -21 -34 -21 -39 0 -5 -6 -12 -14 -15 -8 -3 -28 -26
-46 -52 -17 -25 -52 -68 -78 -97 -54 -59 -242 -211 -289 -233 -33 -16 -67 -10
-59 10 3 8 -2 11 -15 8 -22 -6 -24 5 -4 31 17 22 4 46 -23 46 -9 0 -26 12 -38
27 l-21 27 -90 -47 c-49 -25 -103 -51 -119 -57 -28 -10 -28 -9 -9 6 11 8 74
47 140 86 110 64 252 157 282 183 6 5 28 21 49 35 20 14 61 49 91 78 30 28 58
52 62 52 5 0 47 36 94 80 47 44 89 80 94 80 4 0 21 14 36 30 36 37 52 39 34 3z
m-3122 -142 c86 -82 165 -147 165 -135 0 4 11 -4 24 -17 13 -13 30 -28 38 -34
8 -5 25 -19 38 -30 l25 -20 -25 29 -25 29 27 -19 c15 -10 28 -27 28 -36 0 -19
20 -26 20 -7 0 5 4 8 10 4 5 -3 6 -13 3 -21 -5 -13 -1 -15 18 -9 13 4 21 4 17
0 -11 -11 48 -56 65 -49 8 3 18 1 22 -5 4 -7 -1 -9 -12 -5 -10 3 -3 -4 16 -16
18 -11 40 -19 47 -16 8 3 13 0 11 -6 -2 -10 20 -25 138 -93 l50 -29 -73 83
c-77 88 -84 114 -23 93 17 -6 31 -8 31 -4 0 4 4 2 8 -4 7 -11 171 -94 186 -94
4 0 4 5 0 12 -5 8 1 9 22 5 17 -3 40 0 54 8 14 8 35 14 48 15 12 0 22 4 22 9
0 5 30 19 66 32 36 13 77 34 92 47 21 20 29 22 44 13 10 -6 27 -11 38 -11 14
0 20 -7 20 -21 0 -11 4 -18 9 -14 5 3 12 1 16 -5 4 -6 11 -8 16 -5 5 4 9 -1 9
-10 0 -9 -4 -13 -10 -10 -5 3 -10 1 -10 -5 0 -7 7 -9 16 -6 8 3 22 -1 30 -9
22 -22 34 -18 34 9 0 29 16 42 34 27 18 -15 136 -51 169 -51 25 0 27 2 17 20
-9 17 -8 20 12 20 13 0 39 -4 57 -10 42 -12 50 -6 28 18 -10 10 -17 22 -17 27
0 11 52 -1 102 -24 125 -55 258 -111 267 -111 10 0 204 85 289 127 90 45 81
17 -31 -98 -56 -58 -114 -112 -127 -119 -21 -11 -18 -6 13 28 20 23 37 47 37
52 0 16 -18 12 -28 -6 -12 -21 -54 -10 -45 12 7 18 4 18 -52 -7 -26 -12 -60
-19 -76 -17 -16 3 -31 0 -33 -6 -2 -6 -5 -3 -5 7 -1 9 -9 17 -18 17 -13 0 -15
-2 -5 -8 10 -7 8 -12 -5 -24 -25 -22 -135 -24 -153 -3 -18 22 -47 18 -114 -15
-51 -25 -66 -28 -120 -24 -69 6 -97 -5 -77 -29 10 -13 8 -18 -11 -31 -22 -16
-23 -16 -26 14 -3 32 0 31 -73 16 -14 -3 -31 -17 -39 -31 -7 -14 -22 -25 -33
-25 -16 0 -18 -5 -12 -27 3 -16 16 -38 27 -50 l21 -22 45 44 c52 52 72 57 72
18 0 -34 9 -25 12 11 4 50 47 43 48 -7 0 -22 -50 -87 -67 -87 -7 0 -13 -4 -13
-10 0 -5 -5 -10 -11 -10 -5 0 -7 5 -4 10 3 6 1 10 -4 10 -6 0 -11 -5 -11 -11
0 -6 -9 -8 -21 -4 -14 5 -28 0 -43 -14 -19 -18 -37 -22 -103 -24 -45 -1 -81
-4 -80 -7 2 -11 -15 -50 -23 -50 -16 0 -146 42 -190 62 -113 50 -240 121 -240
134 0 7 8 5 105 -20 81 -21 111 -20 65 3 -19 9 -46 23 -60 31 -25 15 -25 15
20 20 l45 5 -47 24 c-27 14 -48 28 -48 32 0 4 -7 10 -16 13 -14 5 -15 4 -5 -8
7 -8 8 -16 4 -18 -13 -7 -95 -1 -149 10 -69 15 -119 6 -132 -23 -6 -12 -22
-25 -37 -29 -36 -9 -145 56 -260 155 -113 97 -139 125 -206 224 -62 90 -79
125 -79 160 0 13 -5 27 -11 30 -6 4 -9 33 -8 68 2 38 -2 72 -11 87 -12 22 -9
21 26 -9 21 -18 75 -68 119 -110z m2974 -387 c-18 -27 -43 -60 -55 -72 -13
-13 -38 -42 -55 -65 -55 -71 -150 -148 -237 -193 -46 -23 -79 -45 -74 -48 5
-3 27 4 48 15 27 14 49 18 74 14 22 -4 30 -3 22 3 -10 7 -3 11 25 16 21 4 47
10 57 13 16 4 14 -2 -12 -35 -44 -55 -152 -108 -362 -177 -435 -143 -576 -221
-721 -398 -46 -56 -42 -53 66 39 123 104 158 129 270 187 60 32 164 69 173 63
6 -3 13 -2 17 4 7 12 95 14 95 1 0 -4 -44 -28 -97 -52 -135 -60 -215 -103
-302 -163 -87 -59 -292 -260 -371 -364 -30 -39 -63 -74 -72 -77 -29 -10 -40 4
-32 38 11 47 4 168 -11 202 -19 44 -36 98 -31 102 2 2 14 -16 27 -42 l23 -46
22 28 c12 15 20 32 17 37 -4 5 -1 6 4 3 6 -4 14 0 17 9 4 9 9 15 11 12 3 -3
-2 -22 -10 -43 -9 -20 -14 -44 -11 -51 3 -8 1 -14 -3 -14 -5 0 -11 5 -13 11
-7 22 -35 -2 -30 -27 5 -26 32 -34 32 -8 0 8 5 12 10 9 6 -3 11 -1 11 4 1 6 2
14 3 19 1 4 22 45 46 92 43 81 170 230 196 230 6 0 19 9 28 19 10 11 31 25 47
31 16 7 27 16 24 20 -3 4 9 10 25 13 16 4 38 15 50 27 11 11 38 23 60 26 22 4
37 10 35 14 -3 4 6 11 20 14 41 10 29 25 -27 32 -65 9 -63 9 92 29 68 9 127
19 130 24 3 4 23 12 45 16 22 4 34 10 27 12 -10 4 -5 11 15 24 34 23 25 23
-47 4 -96 -26 -105 -13 -22 30 26 13 41 24 34 25 -26 0 -1 18 58 39 33 12 58
26 55 31 -7 11 46 40 71 40 22 0 104 41 104 52 0 4 13 8 29 8 16 0 42 10 58
23 15 12 44 29 63 38 19 9 47 22 62 29 15 7 52 35 83 62 30 27 59 47 64 44 5
-4 11 -3 13 2 4 10 62 51 66 47 2 -1 -12 -25 -29 -51z m-2969 -6 c0 -4 6 -5
14 -2 8 3 35 -17 66 -50 28 -30 67 -62 86 -71 19 -9 34 -21 34 -27 0 -5 7 -7
16 -4 10 4 13 2 8 -6 -5 -7 -2 -9 9 -5 8 3 21 -1 27 -8 7 -8 16 -12 21 -9 5 3
9 1 9 -4 0 -6 12 -15 28 -21 15 -6 34 -15 42 -20 8 -6 49 -20 90 -32 71 -22
73 -23 41 -28 -32 -6 -29 -8 55 -36 49 -16 81 -31 71 -33 -13 -3 -3 -11 32
-27 28 -13 51 -27 51 -30 0 -7 -172 4 -222 15 -69 14 -39 -5 52 -33 50 -16 93
-34 98 -40 4 -7 18 -13 32 -14 14 0 72 -8 130 -15 104 -15 106 -16 25 -33 -34
-7 -32 -21 4 -28 16 -4 52 -17 79 -30 28 -14 82 -32 122 -42 65 -16 101 -41
83 -58 -3 -3 19 -33 48 -66 30 -32 69 -90 88 -127 50 -100 55 -112 29 -79
-147 194 -309 286 -759 430 -234 75 -339 125 -339 163 0 7 -7 15 -15 18 -20 8
-19 24 1 24 8 0 13 -4 10 -9 -8 -13 40 -23 78 -15 19 3 36 2 40 -4 3 -5 -6 -8
-22 -6 -27 4 -27 4 2 -6 16 -5 33 -7 38 -4 5 3 17 2 26 -2 22 -9 30 -11 72
-19 l35 -6 -35 17 c-19 10 -64 31 -100 47 -94 43 -172 107 -240 198 -48 64
-100 150 -100 166 0 2 9 -2 20 -9 11 -7 20 -16 20 -20z m194 -457 c4 -5 24
-12 46 -16 22 -4 43 -12 46 -17 4 -6 2 -8 -3 -5 -6 4 -13 -2 -16 -13 -4 -16 5
-26 44 -47 52 -29 61 -56 21 -61 -14 -2 -22 -10 -22 -22 0 -10 -3 -25 -6 -34
-4 -11 -1 -16 10 -16 9 0 16 -4 16 -9 0 -13 -139 -121 -155 -121 -15 0 -40
-28 -32 -36 3 -3 18 2 34 11 19 12 22 12 10 2 -11 -9 -20 -33 -22 -58 -3 -23
-7 -50 -10 -60 -5 -16 -2 -18 24 -15 16 2 35 -1 43 -5 10 -7 9 -9 -4 -9 -19 0
-22 -11 -12 -47 4 -15 14 -23 27 -23 20 0 20 0 1 -22 -30 -36 -44 -65 -44 -93
0 -14 -7 -42 -15 -61 -14 -34 -14 -35 5 -29 31 10 25 -24 -10 -65 -16 -19 -29
-38 -30 -41 0 -13 85 14 105 32 21 19 54 11 41 -10 -4 -6 0 -11 8 -11 9 0 16
9 16 20 0 12 7 20 16 20 11 0 14 -5 9 -17 -14 -37 -17 -71 -6 -77 6 -4 11 -16
11 -26 0 -10 3 -21 8 -24 9 -5 102 18 131 33 33 18 36 13 7 -14 -24 -22 -34
-45 -20 -45 12 0 51 24 77 48 31 30 37 22 7 -10 -11 -12 -20 -27 -20 -34 0
-24 19 -25 39 -2 25 26 37 19 21 -12 -18 -34 8 -46 37 -18 13 12 23 16 23 10
0 -7 -4 -12 -10 -12 -5 0 -10 -5 -10 -11 0 -5 4 -8 9 -5 4 3 14 -7 20 -21 8
-16 15 -23 19 -16 10 16 162 104 162 94 0 -4 -9 -20 -20 -34 -28 -36 -25 -42
7 -12 15 14 31 25 35 25 3 0 17 -13 31 -29 l25 -30 33 50 c19 27 40 49 47 49
14 0 14 3 3 -38 l-10 -33 35 30 c56 50 64 38 30 -44 -13 -31 -14 -40 -4 -47 9
-5 10 -10 2 -15 -25 -18 -54 -101 -54 -156 0 -31 -4 -59 -10 -62 -5 -3 -10
-23 -10 -44 0 -47 -10 -59 -26 -30 -20 38 -28 -57 -9 -110 19 -54 19 -50 -5
-44 -15 4 -20 0 -20 -16 0 -15 -6 -21 -24 -21 -13 0 -29 -7 -36 -15 -7 -8 -18
-15 -25 -15 -8 0 -16 -6 -18 -12 -3 -7 -6 -2 -6 11 -1 19 -4 21 -16 11 -8 -6
-20 -9 -27 -5 -7 3 -3 -2 10 -11 30 -22 28 -40 -3 -20 -13 9 -30 16 -36 16 -7
0 -36 18 -65 40 -84 64 -98 67 -133 37 -16 -13 -27 -28 -23 -32 4 -5 1 -5 -5
-1 -7 4 -13 14 -13 22 0 8 -7 25 -15 38 -14 21 -14 23 9 34 28 13 39 -1 25
-30 -6 -10 -5 -19 1 -23 5 -3 10 1 10 9 0 9 6 16 14 16 16 0 16 21 -1 41 -6 8
-16 42 -22 76 -11 58 -6 106 14 156 8 19 2 21 -23 8 -38 -20 -165 -29 -237
-17 -38 7 -72 11 -74 10 -2 -2 2 -10 9 -19 10 -12 9 -16 -5 -21 -9 -4 -20 -2
-24 4 -4 8 -23 3 -57 -14 -58 -29 -147 -54 -184 -53 -16 1 -19 3 -8 6 25 6 78
55 78 71 0 7 4 11 9 8 9 -6 37 24 96 99 17 21 39 48 50 58 l20 20 -20 -7 c-89
-32 -139 -44 -192 -48 -35 -2 -63 -1 -63 4 0 4 10 8 23 8 30 0 138 54 162 81
l20 22 -35 -18 c-45 -24 -55 -26 -180 -31 l-105 -5 33 23 c18 13 50 38 70 56
39 35 39 35 -30 16 -21 -6 -26 31 -5 40 6 3 -4 3 -22 0 l-35 -5 20 22 c44 50
62 65 74 61 8 -3 10 0 5 7 -7 12 29 51 47 51 5 0 7 4 4 9 -3 5 -30 2 -61 -7
-30 -8 -58 -12 -62 -8 -5 4 9 23 30 43 32 28 34 34 15 28 -38 -12 -43 -11 -42
8 1 9 -5 17 -15 18 -9 0 -11 3 -5 5 7 3 10 13 8 22 -3 11 13 31 45 57 28 22
50 45 51 51 0 15 34 28 38 16 1 -5 29 18 62 52 32 33 57 62 55 65 -4 3 -104
-56 -115 -69 -22 -24 -90 -69 -94 -61 -6 9 32 65 86 122 32 36 145 123 170
132 7 2 10 7 6 11 -3 4 -34 0 -68 -8 -70 -18 -80 -19 -80 -8 0 13 102 85 164
115 63 30 72 48 11 23 -86 -36 -63 -4 30 43 33 17 52 31 43 31 -36 0 -17 19
32 31 28 7 50 16 50 20 0 10 -58 29 -88 29 -21 0 -23 2 -12 15 10 13 8 19 -14
36 -26 21 -34 39 -17 39 6 0 12 -4 15 -9z m2043 -326 c19 -8 46 -15 59 -15 26
0 94 -54 94 -75 0 -7 7 -26 15 -41 17 -34 21 -154 4 -154 -5 0 -8 -4 -4 -9 3
-5 -1 -16 -9 -24 -8 -8 -12 -17 -9 -21 4 -3 2 -6 -4 -6 -6 0 -22 -18 -36 -39
-90 -135 -335 -174 -458 -72 l-31 26 55 38 c50 35 57 37 95 29 150 -34 261
100 170 204 -18 21 -50 45 -70 54 l-38 17 30 32 c18 18 28 37 24 44 -4 7 -4 9
1 5 4 -4 14 -1 22 7 18 19 44 19 90 0z m547 -37 c23 -18 67 -52 97 -74 93 -70
187 -184 152 -184 -4 0 -16 9 -27 19 -35 32 -169 121 -174 116 -3 -3 4 -15 15
-28 11 -12 42 -55 68 -95 26 -40 74 -96 107 -125 64 -55 61 -71 -8 -42 -20 8
-38 14 -40 12 -2 -2 19 -21 46 -42 28 -22 50 -44 50 -48 0 -28 -149 30 -222
86 -53 41 -62 37 -20 -8 15 -16 40 -48 56 -70 17 -22 59 -71 95 -109 62 -64
64 -68 36 -62 -73 16 -105 18 -105 8 0 -14 37 -25 52 -16 8 5 8 1 -2 -10 -12
-16 -11 -20 10 -36 14 -10 39 -21 57 -25 18 -3 35 -11 39 -17 11 -17 -203 -4
-250 16 -21 9 -40 16 -43 16 -13 0 66 -57 106 -76 l46 -22 -36 -1 c-45 -1
-150 19 -166 32 -9 6 -13 6 -13 -2 0 -6 7 -14 15 -17 8 -3 17 -15 21 -26 12
-39 123 -160 167 -183 l32 -16 -60 6 c-59 6 -74 11 -148 53 -20 12 -41 21 -45
21 -4 -1 -14 -1 -22 0 -13 1 -13 2 0 12 11 8 6 9 -20 5 -121 -20 -194 -17
-308 11 l-24 6 17 -34 c13 -25 16 -47 12 -93 -3 -33 -2 -54 3 -46 6 10 9 8 12
-6 3 -10 5 2 4 28 -1 25 2 49 5 52 3 4 23 -10 43 -29 36 -33 66 -45 66 -26 0
5 -7 14 -15 21 -24 20 -17 34 8 16 12 -9 34 -21 50 -27 15 -6 27 -16 27 -21 0
-6 12 -22 26 -35 33 -30 43 -19 37 43 -4 48 -2 50 27 32 25 -16 38 -3 22 22
-18 29 -15 30 23 14 40 -16 59 -18 50 -4 -3 6 1 10 9 10 23 0 46 -53 46 -104
0 -25 -10 -65 -22 -93 l-23 -48 -3 53 c-3 56 -22 73 -22 20 -1 -41 -27 -104
-30 -73 -3 28 -3 27 4 56 5 25 3 27 -32 32 -20 2 -40 2 -43 -2 -4 -3 -4 -30 0
-58 4 -29 6 -53 5 -53 -1 0 -10 7 -18 16 -14 14 -15 12 -10 -15 8 -39 -9 -41
-31 -3 -12 19 -35 34 -78 50 -33 12 -62 20 -65 18 -2 -2 1 -13 7 -23 5 -11 12
-42 14 -69 3 -27 3 -39 0 -27 -6 31 -23 41 -60 36 -22 -4 -30 -9 -26 -19 5
-12 -2 -16 -23 -13 -4 0 -11 -5 -15 -13 -7 -11 -12 -11 -29 0 -16 10 -26 10
-54 -2 -19 -8 -36 -13 -38 -10 -10 10 3 -70 13 -82 16 -20 25 -144 10 -144 -6
0 -11 18 -11 43 0 31 -9 56 -34 94 -62 94 -70 102 -93 97 -15 -4 -23 0 -28 15
-8 27 -36 27 -53 1 -7 -11 -21 -20 -32 -20 -11 0 -19 -3 -18 -7 4 -19 -23 -62
-42 -68 -12 -4 -22 -5 -23 -3 -1 1 -10 18 -19 36 -10 19 -18 48 -19 65 0 18
-9 50 -20 72 l-19 40 5 -50 c2 -27 7 -61 10 -75 3 -14 3 -19 -1 -12 -3 6 -13
12 -21 12 -13 0 -15 9 -7 58 4 31 8 96 8 145 0 56 4 86 11 84 18 -6 54 -111
55 -161 0 -47 1 -48 18 -32 18 15 19 15 29 -6 5 -13 6 -34 2 -48 -11 -37 -10
-70 1 -70 6 0 10 7 10 16 0 8 7 22 15 30 13 14 15 13 16 -3 0 -10 3 -13 6 -5
2 6 11 12 19 12 8 0 14 5 14 10 0 6 -10 10 -22 10 l-21 0 20 23 c34 36 43 63
36 99 -7 32 -7 32 -13 8 -5 -20 -8 -13 -14 30 -7 49 -9 53 -21 37 -16 -22 -25
-4 -18 36 3 15 1 27 -4 27 -5 0 -9 31 -10 69 -1 60 -4 71 -28 96 -22 21 -27
23 -23 8 8 -29 -31 -27 -54 3 -11 13 -28 24 -38 24 -11 0 -29 14 -42 30 -16
22 -24 27 -30 18 -5 -8 -8 1 -8 23 0 32 -3 36 -24 34 -16 -2 -27 4 -34 19 -11
24 -42 136 -42 154 0 15 36 16 45 2 4 -6 12 -10 18 -9 26 3 37 -2 37 -15 0 -8
5 -18 11 -22 8 -4 9 1 4 16 -6 19 -4 20 12 12 10 -6 27 -20 37 -31 11 -12 25
-21 33 -21 7 0 22 -9 33 -20 11 -11 20 -15 20 -10 0 19 39 10 54 -12 16 -22
16 -22 16 10 0 41 12 40 47 -3 15 -19 36 -35 46 -35 9 0 17 -5 17 -10 0 -6 14
-1 30 12 17 12 30 28 30 35 0 15 12 17 26 4 5 -6 42 -28 82 -50 l72 -39 0 39
c0 45 13 49 47 17 27 -25 30 -11 8 32 -19 37 -7 39 44 8 l36 -23 -18 29 c-10
15 -17 29 -15 31 2 3 28 -2 58 -10 60 -16 110 -19 110 -7 0 4 -5 25 -12 47 -6
22 -11 44 -10 48 1 4 -4 18 -13 30 -25 36 -32 33 140 40 53 2 59 20 18 54
l-28 23 23 19 c12 11 22 24 22 30 0 6 10 11 23 12 12 0 16 3 10 6 -9 3 -10 10
-3 24 9 15 7 19 -5 19 -13 0 -13 3 -3 13 15 17 55 1 64 -25 3 -10 12 -18 20
-18 15 0 12 11 -11 40 -7 8 -16 25 -19 38 -9 27 11 30 30 5 10 -14 17 -16 31
-7 15 9 22 6 40 -19 13 -17 23 -27 23 -23 0 13 -102 156 -111 156 -5 0 -9 7
-9 15 0 19 17 19 50 0 14 -8 33 -14 42 -15 22 0 -11 34 -88 90 -29 23 -54 43
-54 45 0 13 24 2 64 -27z m-2084 -34 c29 -40 32 -48 19 -58 -32 -24 -49 -61
-49 -109 0 -44 4 -54 39 -88 37 -37 42 -39 102 -39 51 0 72 5 115 30 l54 30
42 -24 c24 -13 44 -31 46 -39 5 -24 -56 -86 -112 -114 -41 -22 -69 -28 -142
-31 -83 -4 -97 -2 -153 23 -101 46 -161 135 -161 240 0 52 24 122 52 155 24
28 83 70 98 70 8 -1 31 -21 50 -46z m4827 -178 c-5 -13 25 -46 42 -46 10 0 22
-40 15 -52 -3 -4 -16 -8 -30 -8 -17 0 -24 -5 -24 -20 0 -23 -20 -26 -39 -7
-10 10 -11 9 -6 -5 12 -30 -49 -24 -69 6 -10 16 -12 27 -6 31 6 4 8 11 4 16
-3 6 -3 21 0 35 5 19 13 24 39 25 27 0 29 2 12 9 -18 8 -17 9 8 9 15 1 27 6
27 11 0 6 7 10 16 10 9 0 14 -6 11 -14z m-4034 -325 c16 -14 46 -56 68 -93
l41 -67 -12 -58 c-17 -86 -50 -193 -71 -233 -30 -57 -76 -106 -88 -95 -6 6
-15 78 -21 160 -6 83 -12 159 -15 169 -2 11 1 28 6 38 6 11 15 60 20 110 5 49
12 94 15 99 6 11 19 4 57 -30z m-1279 -466 c-7 -29 -3 -30 34 -11 15 7 42 16
60 19 30 6 32 5 32 -21 0 -27 2 -28 56 -29 41 -1 57 2 61 14 5 12 7 12 14 1 7
-10 9 -9 9 5 0 10 5 15 11 12 7 -5 5 -15 -5 -31 -9 -13 -16 -31 -16 -41 1 -17
2 -16 15 1 12 15 15 16 15 5 0 -9 -11 -25 -25 -37 -23 -20 -27 -21 -41 -7 -17
17 -28 20 -19 5 3 -6 -4 -10 -17 -10 -22 -1 -22 -1 -4 -15 21 -16 14 -35 -14
-35 -10 0 -26 -7 -34 -16 -9 -8 -20 -13 -25 -10 -5 3 -8 0 -7 -7 1 -18 -27
-87 -36 -87 -14 0 -8 57 7 70 11 9 12 16 4 26 -6 7 -8 18 -4 24 3 5 1 10 -5
10 -7 0 2 18 19 39 48 60 37 59 -26 -3 l-57 -56 12 -45 c14 -53 16 -98 3 -91
-5 3 -14 26 -20 50 -6 25 -15 47 -20 50 -5 4 -7 -3 -4 -14 7 -25 -13 -27 -25
-2 -6 9 -13 36 -17 60 -8 49 -25 47 -25 -4 0 -45 -17 -43 -27 4 -12 61 -8 115
11 154 16 34 22 37 64 41 26 2 48 4 50 5 1 1 0 -9 -4 -23z m1527 -60 c19 -42
19 -46 3 -76 -10 -20 -14 -43 -10 -63 4 -20 3 -26 -3 -17 -6 10 -11 5 -16 -20
-12 -54 -44 -109 -61 -102 -8 3 -24 -3 -35 -13 -17 -15 -22 -16 -29 -4 -5 8
-4 22 2 33 6 11 14 33 19 49 7 24 5 29 -6 24 -11 -4 -15 3 -14 27 1 42 24 103
38 100 6 -2 11 6 11 17 0 27 19 25 29 -2 8 -21 10 -18 21 22 7 25 14 51 16 58
6 21 15 13 35 -33z m4786 -177 c4 -7 8 -17 9 -23 1 -5 3 -14 5 -20 4 -15 -11
-55 -21 -55 -12 0 0 -32 14 -42 6 -4 22 -8 36 -9 22 -1 20 -3 -15 -20 -47 -22
-78 -24 -97 -6 -7 6 -24 13 -38 15 -14 2 -30 10 -36 18 -6 8 -23 14 -37 14
-36 0 -38 9 -17 60 10 25 21 53 24 63 4 14 18 17 85 17 53 0 82 -4 88 -12z
m227 -199 c14 -11 26 -29 26 -40 0 -11 4 -28 9 -37 11 -21 3 -72 -11 -72 -6 0
-7 11 -4 25 4 14 5 25 2 25 -2 0 -21 -17 -42 -38 -22 -21 -49 -44 -61 -52 -35
-23 -14 -40 53 -47 70 -7 88 -18 163 -96 31 -32 68 -65 84 -73 33 -18 33 -22
2 -68 -30 -45 -11 -36 55 25 25 22 64 55 88 72 38 28 42 34 36 61 -9 45 -27
60 -94 80 -58 17 -94 18 -132 1 -10 -4 -18 -3 -18 1 0 5 20 17 45 27 43 18 46
18 120 -1 42 -11 85 -28 95 -37 11 -10 29 -43 41 -74 11 -31 29 -65 39 -76 24
-27 50 -80 50 -102 0 -10 9 -35 20 -56 11 -20 20 -46 20 -57 0 -11 4 -20 9
-20 11 0 130 -120 143 -144 10 -18 32 -10 62 20 9 8 16 11 16 5 0 -6 -9 -15
-21 -21 -11 -7 -38 -27 -59 -46 -35 -32 -37 -37 -30 -69 4 -20 4 -38 -1 -41
-8 -5 -14 24 -10 54 3 19 -7 15 -55 -24 -26 -22 -41 -41 -37 -48 4 -6 8 -24 9
-40 1 -20 -1 -24 -7 -15 -5 8 -9 24 -9 37 0 12 -2 22 -5 22 -3 0 -29 -19 -58
-43 l-53 -43 19 -59 c31 -97 49 -139 70 -157 32 -29 40 -20 17 17 -14 22 -23
56 -25 88 -3 58 -12 47 123 162 45 39 88 70 94 70 11 0 20 -20 34 -72 2 -9 25
-13 71 -13 72 0 113 -7 113 -20 0 -11 -132 -18 -152 -8 -16 8 -18 4 -17 -29 0
-36 17 -93 18 -64 1 11 12 12 51 8 60 -7 78 -16 59 -28 -9 -5 -10 -9 -3 -9 7
0 14 -6 17 -14 5 -12 0 -13 -25 -5 -18 5 -34 6 -37 4 -2 -3 1 -5 8 -5 7 0 9
-4 6 -10 -3 -5 0 -10 8 -10 25 0 57 -35 46 -51 -7 -11 -9 -11 -9 4 0 9 -4 17
-8 17 -11 0 -12 -101 -1 -122 8 -15 5 -18 -16 -18 -30 0 -30 -2 -6 -90 11 -38
23 -95 27 -126 6 -55 7 -56 18 -29 l12 28 26 -35 c15 -20 30 -47 33 -61 7 -26
12 -29 68 -41 21 -5 27 -11 23 -23 -4 -11 -2 -14 9 -9 8 3 15 1 15 -5 0 -5 -7
-12 -15 -15 -8 -4 -15 -13 -15 -21 0 -8 5 -11 10 -8 13 8 13 7 -6 -78 -9 -40
-25 -89 -35 -109 -11 -21 -19 -53 -19 -73 0 -23 -5 -38 -16 -42 -14 -5 -15
-36 -13 -262 1 -141 0 -276 -4 -301 -4 -33 -4 -37 2 -15 7 26 9 22 9 -25 0
-30 -2 -50 -4 -43 -4 8 -11 6 -25 -8 -23 -23 -24 -26 -1 -32 10 -3 7 -5 -10
-6 -23 -1 -28 4 -34 34 -7 41 -28 36 -22 -6 3 -22 0 -29 -11 -29 -14 0 -16 17
-13 140 4 149 -1 170 -41 170 -11 0 -29 -7 -39 -17 -16 -14 -18 -33 -18 -154
0 -81 -4 -140 -10 -144 -6 -4 -10 6 -10 22 0 19 -3 24 -9 14 -6 -9 -11 3 -16
35 -4 27 -10 54 -13 59 -11 16 -10 59 1 73 7 9 6 11 -7 6 -14 -5 -16 2 -15 57
1 59 2 62 11 32 6 -18 14 -33 19 -33 16 0 18 19 5 46 -8 16 -16 49 -17 74 -1
25 -5 50 -8 55 -9 17 -18 -48 -10 -77 4 -16 4 -28 -2 -28 -5 0 -9 -59 -8 -137
1 -85 4 -128 9 -113 9 27 11 26 15 -6 1 -12 5 -33 9 -48 5 -20 3 -26 -10 -26
-10 0 -14 5 -10 15 3 8 1 15 -4 15 -6 0 -10 -7 -10 -15 0 -21 -17 -19 -22 3
-2 9 -1 143 3 297 4 154 8 322 8 373 l1 92 35 0 c53 0 97 22 130 66 26 34 29
45 27 102 -1 58 -5 67 -37 99 -19 19 -39 49 -44 67 -5 20 -32 56 -67 90 -57
54 -74 65 -74 48 0 -14 31 -52 42 -52 14 0 48 -39 48 -56 0 -31 -21 -65 -38
-61 -9 2 -30 -3 -45 -10 -28 -14 -28 -14 -16 9 7 13 13 40 14 61 1 31 -2 36
-17 31 -15 -4 -17 -1 -12 28 5 29 4 30 -7 13 -41 -70 -68 -100 -104 -115 l-40
-18 25 -11 c14 -5 34 -17 45 -26 17 -13 18 -17 5 -25 -12 -7 -9 -13 14 -31 29
-23 21 -41 -14 -32 -16 4 -18 -2 -18 -42 0 -26 -3 -49 -6 -53 -3 -3 -6 11 -6
30 0 20 -8 46 -19 59 -19 23 -20 23 -27 4 -4 -11 -22 -41 -41 -67 -29 -40 -38
-47 -61 -42 -17 3 -39 -3 -58 -15 -25 -15 -30 -24 -27 -47 4 -31 -9 -52 -44
-71 -19 -11 -24 -10 -38 9 -8 13 -15 28 -15 36 0 10 -3 10 -13 0 -12 -10 -12
-15 0 -26 19 -19 16 -24 -7 -12 -16 9 -20 8 -20 -6 0 -13 -7 -15 -35 -10 -41
8 -46 -6 -10 -22 32 -15 82 -16 90 -2 11 18 27 11 22 -10 -3 -11 -1 -23 4 -26
5 -3 9 -13 9 -23 0 -10 6 -23 13 -29 15 -12 42 -2 42 17 0 19 33 39 43 26 4
-5 16 -15 27 -21 27 -15 21 -60 -11 -92 -13 -14 -24 -30 -24 -36 0 -20 -60
-46 -106 -46 -30 0 -43 -4 -42 -12 2 -10 -34 -15 -142 -19 -80 -4 -196 -10
-258 -14 -95 -7 -121 -5 -172 10 -63 19 -75 36 -38 56 13 7 31 23 41 36 20 25
74 32 95 11 9 -9 12 -9 12 0 0 7 5 12 10 12 6 0 10 -9 10 -20 0 -27 27 -25 32
3 6 33 0 51 -22 65 -15 9 -22 9 -34 -3 -13 -13 -17 -12 -35 11 -29 37 -26 51
17 73 51 26 104 83 97 104 -8 18 -27 27 -75 34 -19 3 -37 7 -39 9 -8 7 22 34
86 76 l67 43 115 0 c139 1 198 18 192 56 -8 55 -156 138 -217 123 -19 -5 -26
-1 -34 21 -18 48 -17 50 135 175 23 19 83 69 133 110 65 53 88 78 81 86 -6 8
-7 14 0 18 5 3 21 -8 35 -26 15 -19 21 -35 15 -39 -13 -8 40 -99 86 -146 19
-20 40 -53 46 -74 7 -21 25 -54 41 -73 26 -32 31 -34 59 -24 36 12 91 91 87
123 -3 17 -10 20 -44 17 -49 -3 -71 23 -29 34 28 7 27 6 19 28 -3 9 -15 16
-25 16 -10 0 -19 5 -19 10 0 6 7 10 15 10 8 0 15 5 15 11 0 5 5 7 10 4 6 -3
10 4 10 16 0 12 -3 19 -7 16 -4 -4 -19 5 -35 20 -20 19 -28 37 -28 60 0 33
-10 40 -44 27 -21 -8 -20 -24 2 -40 16 -12 16 -13 -2 -20 -13 -5 -23 -2 -31 9
-17 24 -56 22 -62 -3 -10 -36 -34 -17 -72 53 -20 37 -40 66 -46 65 -10 -3 -11
-6 -14 -48 l-2 -25 -18 23 c-11 12 -23 22 -27 22 -4 0 -27 -16 -50 -36 -24
-19 -44 -32 -44 -27 0 17 31 53 46 53 8 0 17 6 20 14 3 8 12 12 20 9 8 -3 18
5 24 22 13 33 13 38 0 30 -6 -3 -7 1 -4 9 3 9 10 16 14 16 11 0 70 128 69 149
0 13 -2 13 -6 1 -3 -8 -14 -23 -25 -34 -10 -11 -18 -23 -18 -28 0 -4 -7 -8
-16 -8 -11 0 -14 6 -8 23 3 12 11 24 15 25 20 8 7 17 -23 17 -27 0 -34 4 -36
23 -2 13 2 30 10 39 11 14 13 13 19 -8 5 -20 8 -17 14 19 6 31 14 46 29 52 23
8 33 -4 18 -23 -16 -21 -23 -65 -10 -73 7 -5 9 -2 6 7 -3 8 7 32 23 54 19 25
25 41 18 45 -6 4 2 17 20 33 30 25 111 138 111 154 0 13 66 54 88 56 37 2 12
17 -29 17 -22 0 -38 -3 -36 -7 3 -5 -25 -9 -62 -10 -57 -1 -318 -59 -309 -69
2 -1 40 2 86 8 45 6 86 8 89 4 4 -4 -32 -85 -80 -181 -56 -112 -92 -198 -100
-237 -12 -57 -15 -63 -42 -69 -84 -17 -165 -83 -288 -232 -46 -56 -109 -124
-141 -150 l-56 -49 -2 64 -1 63 -10 -77 c-12 -90 -27 -105 -21 -20 3 31 9 131
14 222 24 387 46 651 59 695 9 28 9 26 10 -19 1 -70 10 -53 13 24 1 36 8 75
16 87 9 15 13 43 10 83 -3 60 -1 64 34 61 9 -1 19 3 23 9 6 9 -20 15 -52 11
-7 -1 -14 21 -18 56 -4 32 -12 64 -17 71 -7 8 -7 17 2 27 6 8 9 19 5 25 -8 13
-42 13 -50 0 -8 -13 -65 -13 -65 1 0 28 22 51 45 45 13 -3 27 -2 30 4 10 16
36 12 50 -7 12 -16 16 -14 50 20 37 37 38 40 32 92 l-6 55 55 0 c52 0 54 -1
44 -20 -6 -11 -17 -20 -25 -20 -18 0 -15 -21 5 -37 22 -18 30 -16 30 10 0 15
9 29 25 37 14 7 25 20 25 27 0 9 7 12 18 9 9 -3 24 -1 32 4 21 13 24 13 54
-11z m-6088 -184 c16 -8 41 -15 56 -15 18 0 29 -7 33 -20 4 -12 24 -32 46 -46
31 -19 39 -29 34 -44 -3 -11 2 -36 11 -56 15 -32 16 -42 4 -86 -14 -57 -3 -81
26 -57 13 11 18 11 21 2 3 -7 12 -13 20 -13 9 0 13 6 10 14 -4 11 2 14 24 14
16 -1 29 -2 29 -4 0 -2 -11 -25 -25 -51 -28 -53 -49 -73 -78 -73 -16 0 -18 5
-13 26 5 20 3 24 -11 22 -10 -2 -23 -9 -29 -17 -9 -12 -12 -11 -17 2 -3 9 -2
19 3 22 12 7 13 45 3 45 -5 0 -21 -28 -38 -62 -21 -43 -36 -62 -50 -63 -11 -1
-33 -13 -49 -28 -24 -22 -26 -29 -16 -42 10 -12 8 -17 -14 -26 -36 -17 -46 -4
-39 54 6 47 18 58 41 35 8 -8 12 -9 12 -1 0 23 -13 43 -27 43 -8 0 -42 10 -76
21 l-62 22 -48 -33 c-52 -35 -69 -66 -65 -114 2 -22 -1 -31 -11 -31 -12 0 -14
13 -12 57 1 31 -3 67 -10 79 -9 18 -9 24 0 27 9 3 7 9 -4 22 -20 22 -14 45 19
81 13 14 34 48 47 77 18 40 30 53 52 58 16 3 31 3 34 0 4 -3 -1 -6 -10 -6 -10
0 -17 -8 -17 -19 0 -23 16 -36 25 -21 3 5 17 10 29 10 13 0 30 7 37 16 11 14
10 18 -6 31 -11 8 -32 17 -47 20 -16 3 -28 11 -28 17 0 21 28 51 47 51 11 0
19 8 21 22 2 12 17 28 35 37 40 19 48 20 83 1z m-747 -161 c19 -4 36 -16 45
-33 54 -101 66 -128 66 -139 0 -7 5 -10 10 -7 6 4 13 -8 17 -25 5 -29 7 -30
16 -14 6 11 15 24 21 30 28 30 46 55 46 64 0 6 5 10 10 10 6 0 10 5 10 10 0 6
11 23 25 38 14 15 25 32 25 39 0 33 172 35 178 1 2 -9 -15 -53 -37 -97 -23
-46 -38 -89 -35 -99 4 -11 3 -13 -3 -5 -12 17 -65 -90 -57 -114 5 -15 4 -16
-5 -3 -6 8 -11 12 -11 8 0 -18 -2 -24 -11 -34 -5 -6 -20 -32 -33 -57 l-25 -46
22 3 c44 6 87 19 83 25 -2 3 7 7 20 7 24 2 32 -10 14 -21 -20 -12 -9 -26 18
-23 22 2 28 -1 30 -20 5 -35 -14 -53 -46 -41 -35 13 -54 -7 -59 -63 -2 -24 -8
-54 -13 -68 -4 -14 -11 -71 -15 -128 -6 -101 -19 -152 -38 -152 -5 0 -7 -7 -4
-14 6 -15 -36 -133 -53 -150 -6 -6 -10 -18 -10 -29 0 -10 -4 -15 -10 -12 -5 3
-7 18 -5 33 2 15 9 74 16 132 10 92 9 110 -5 144 -19 45 -14 72 14 79 27 7 25
26 -2 36 -32 12 -49 -7 -55 -63 -7 -58 -23 -60 -24 -3 -1 23 -5 53 -10 67 -6
18 -8 5 -6 -42 2 -38 3 -68 2 -68 0 0 -22 11 -48 24 -27 14 -55 22 -63 19 -15
-6 -19 -23 -5 -23 12 0 54 -81 46 -88 -3 -4 -10 0 -15 7 -4 8 -15 11 -24 8
-45 -18 15 -187 83 -233 24 -16 30 -25 20 -28 -17 -6 -67 -3 -67 4 1 20 -4 29
-20 34 -30 10 -50 68 -58 170 -10 136 -27 123 -22 -16 5 -124 -4 -160 -31
-128 -10 11 -23 16 -33 12 -16 -7 -16 -11 7 -61 14 -29 25 -55 25 -58 0 -3
-16 -3 -35 0 -19 3 -35 2 -35 -3 0 -4 -19 -10 -42 -13 -24 -3 -58 -7 -75 -10
-39 -7 -41 0 -10 33 12 14 33 45 45 70 44 88 70 129 77 122 5 -4 5 -2 1 5 -4
7 0 26 9 43 8 16 13 30 11 30 -3 0 15 39 39 88 91 181 98 201 92 249 -3 25
-11 49 -18 53 -7 5 -14 18 -16 31 -2 12 -17 44 -33 71 -17 27 -30 55 -30 62 0
8 -7 16 -15 20 -8 3 -15 13 -15 23 0 9 -16 47 -35 84 -19 38 -35 75 -35 83 0
8 14 26 30 39 17 14 30 32 30 40 0 39 22 76 48 80 47 7 69 7 101 1z m2951 -9
c9 5 85 -25 127 -50 17 -11 38 -36 47 -56 9 -20 32 -47 51 -60 42 -29 63 -78
61 -144 l-1 -50 -38 -3 c-28 -2 -41 -9 -49 -26 -8 -20 -6 -28 15 -52 75 -85
70 -68 63 -188 -4 -60 -9 -112 -11 -116 -3 -4 -31 -20 -62 -36 -56 -27 -62
-28 -213 -27 -157 1 -226 8 -236 24 -3 5 -13 9 -24 9 -11 0 -32 21 -53 53 -19
28 -47 63 -62 77 -39 36 -55 73 -55 125 0 69 12 85 65 85 25 0 45 4 45 10 0 5
-22 32 -50 59 -27 28 -50 55 -50 62 0 6 -7 26 -16 44 -12 26 -24 35 -59 44
-54 14 -195 14 -229 1 -22 -8 -26 -7 -26 10 0 12 -5 17 -13 14 -8 -3 -18 6
-25 21 -6 14 -16 25 -22 25 -11 0 -60 92 -60 114 0 23 23 26 199 26 189 0 198
-3 202 -65 2 -26 10 -46 23 -57 20 -16 21 -15 41 20 11 20 34 46 51 57 52 35
227 65 308 53 27 -4 52 -5 56 -3z m-1231 -24 c63 -32 72 -54 77 -187 5 -135 5
-135 23 -188 9 -27 12 -77 9 -170 -5 -137 -11 -166 -34 -166 -8 0 -14 -3 -14
-8 0 -4 -16 -16 -34 -26 -26 -14 -49 -17 -90 -14 -31 3 -56 3 -56 1 0 -3 7
-12 16 -21 11 -10 13 -17 5 -20 -6 -2 -18 4 -27 12 -8 9 -36 28 -62 43 -26 14
-59 37 -74 51 -26 24 -115 54 -130 45 -5 -2 -8 -11 -8 -19 0 -8 -4 -14 -9 -14
-16 0 -59 -96 -67 -147 -3 -26 -17 -63 -31 -80 -27 -37 -50 -45 -33 -13 9 16
8 20 -4 20 -21 0 -41 -35 -57 -97 -7 -29 -16 -53 -21 -53 -4 0 -8 2 -8 4 0 16
55 223 71 266 11 30 23 64 26 75 5 19 4 18 -11 -2 -33 -44 -97 -192 -111 -256
-2 -10 -11 -32 -20 -49 -8 -17 -15 -37 -15 -45 0 -7 -7 -16 -15 -19 -8 -4 -15
-12 -15 -18 0 -7 -18 -19 -41 -26 -23 -8 -43 -20 -46 -27 -5 -14 -33 -18 -33
-5 0 7 34 111 47 142 3 8 5 19 4 23 -1 5 17 66 40 135 23 70 56 180 74 245 18
65 35 121 39 124 3 4 27 -3 51 -15 25 -12 48 -22 50 -22 3 0 5 15 4 33 0 32 0
32 -12 7 -10 -22 -12 -17 -17 50 -3 41 -8 68 -11 60 -3 -8 -4 -3 -2 11 2 14
-5 50 -17 80 -22 60 -24 73 -11 64 16 -9 22 12 11 40 -8 20 -7 26 2 23 18 -6
42 -82 29 -86 -15 -5 -13 -32 3 -61 12 -22 13 -21 11 15 -1 22 1 44 4 49 3 6
6 33 7 60 0 28 6 82 13 122 11 61 16 72 34 76 12 2 119 2 237 0 180 -4 221 -7
249 -22z m329 -8 c36 -53 52 -107 54 -186 1 -44 4 -49 34 -62 31 -13 64 -58
64 -89 0 -24 -33 -74 -57 -87 -13 -7 -23 -18 -23 -25 0 -7 -6 -14 -12 -17 -20
-7 5 -41 33 -45 38 -6 44 -17 43 -79 -2 -128 -5 -168 -13 -148 -8 19 -8 19
-19 0 -10 -17 -13 -18 -22 -5 -9 13 -12 13 -21 -2 -11 -19 -35 -24 -41 -9 -2
5 -25 5 -53 1 -57 -9 -68 -1 -86 62 -5 21 -16 38 -24 38 -7 0 -17 9 -20 20
-10 31 5 622 16 642 8 14 23 18 69 18 53 0 61 -3 78 -27z m-5151 -180 c14 -21
17 -44 15 -102 -1 -40 -7 -80 -13 -87 -23 -27 -102 -44 -211 -44 -117 0 -130
-7 -84 -47 64 -56 108 -58 138 -8 19 33 22 35 38 20 19 -17 84 -39 75 -25 -3
5 2 13 10 18 9 5 24 21 34 36 l18 27 7 -33 c4 -19 2 -34 -4 -36 -5 -2 -10 -8
-10 -13 0 -6 5 -7 12 -3 8 5 9 2 5 -10 -4 -10 -7 -28 -7 -41 0 -21 -3 -23 -29
-15 -16 4 -40 16 -55 25 -15 10 -26 13 -26 6 0 -6 4 -11 8 -11 14 0 52 -36 52
-48 0 -13 -59 -46 -67 -38 -3 3 2 12 11 21 20 20 11 41 -10 24 -8 -6 -27 -9
-44 -5 -29 5 -41 -6 -20 -19 18 -11 10 -35 -12 -35 -12 0 -29 -7 -39 -16 -10
-9 -23 -13 -30 -8 -9 5 -8 10 3 18 16 13 68 87 68 98 0 18 -21 6 -32 -17 -6
-14 -17 -25 -25 -25 -7 0 -13 -7 -13 -15 0 -8 -7 -15 -16 -15 -13 0 -15 7 -10
38 6 34 4 39 -27 59 -35 24 -73 106 -62 135 4 9 -1 28 -10 42 -12 18 -15 36
-11 60 7 37 46 80 53 59 3 -7 15 -13 27 -13 13 0 36 -12 51 -26 26 -24 34 -26
79 -20 56 6 71 19 87 78 8 31 14 38 34 38 16 0 31 -10 42 -27z m9515 -74 c-1
-24 -7 -105 -12 -179 -6 -74 -15 -189 -20 -255 -17 -238 -42 -540 -46 -560 -4
-21 -45 -45 -77 -45 -16 0 -18 4 -12 28 11 38 12 74 4 92 -4 8 -11 24 -15 35
-7 18 -8 17 -12 -7 -3 -28 -34 -40 -47 -18 -3 6 -12 10 -20 10 -10 0 -8 -9 6
-37 10 -20 23 -41 29 -47 14 -14 12 -26 -5 -26 -8 0 -15 -8 -15 -17 0 -10 -20
-36 -45 -60 -32 -29 -45 -49 -45 -68 0 -17 -4 -25 -12 -22 -7 2 -12 10 -11 16
2 6 -2 11 -7 11 -6 0 -10 -2 -10 -4 0 -2 -3 -11 -6 -20 -5 -12 0 -16 17 -16
13 0 36 -12 52 -27 l28 -28 22 30 c29 40 74 82 119 111 52 33 61 31 54 -13 -3
-21 -13 -131 -21 -246 l-16 -207 -41 -60 c-106 -155 -223 -248 -296 -236 -60
9 -87 69 -36 82 18 5 32 0 50 -17 13 -12 24 -18 24 -12 0 5 -9 18 -20 28 -20
18 -18 41 2 29 8 -5 9 -1 4 12 -14 34 -11 49 11 59 13 5 29 26 38 47 14 35 16
37 40 26 19 -8 28 -8 40 2 23 19 19 43 -6 35 -13 -4 -27 -1 -37 9 -48 44 -102
88 -102 82 0 -4 7 -17 15 -30 33 -50 40 -116 11 -116 -10 0 -53 114 -74 194
-7 28 -8 28 -25 12 -16 -16 -16 -15 -11 13 6 27 4 31 -14 31 -11 0 -30 12 -42
28 -18 22 -21 35 -16 75 3 27 0 71 -6 98 -10 42 -9 51 6 68 12 13 17 36 17 82
0 38 6 70 13 79 18 21 27 66 25 120 -6 97 -2 119 30 162 23 31 31 54 32 87 l2
46 6 -39 c5 -32 8 -37 17 -25 19 22 44 119 44 166 0 24 5 43 10 43 6 0 10 5
10 11 0 5 -4 7 -10 4 -6 -4 -10 7 -9 27 l1 33 20 -44 20 -45 14 25 c7 13 14
40 14 59 0 26 3 31 10 20 14 -23 22 -6 30 62 4 35 8 48 9 30 0 -18 5 -31 10
-28 5 3 7 16 4 29 -4 18 -3 19 6 7 8 -11 11 -12 11 -2 0 7 7 20 16 29 8 9 13
22 10 29 -3 8 -1 14 4 14 15 0 41 57 34 74 -5 12 0 16 18 16 13 0 34 8 48 17
44 31 125 73 135 70 5 -2 8 -23 7 -48z m-4026 -14 c3 -13 4 -47 2 -75 -2 -35
1 -50 10 -50 7 0 12 -14 12 -38 0 -38 0 -38 -35 -34 -19 2 -33 8 -30 12 3 5 0
12 -6 16 -7 4 -9 3 -6 -2 3 -6 2 -16 -3 -23 -6 -10 -14 -2 -29 29 -25 52 -25
48 -3 52 11 3 1 13 -35 31 -40 20 -53 33 -58 56 -4 17 -4 35 0 41 3 5 44 10
90 10 82 0 85 -1 91 -25z m-1482 -159 c9 -14 6 -22 -16 -41 -15 -12 -32 -25
-39 -27 -7 -2 -10 -10 -7 -18 3 -11 9 -9 23 7 10 12 22 20 27 17 14 -9 9 -43
-9 -52 -12 -7 -14 -18 -10 -40 4 -17 2 -34 -3 -37 -5 -3 -7 -12 -3 -20 3 -8 0
-15 -6 -15 -6 0 -11 6 -11 13 0 8 -3 9 -8 1 -24 -37 -113 -45 -177 -15 -22 10
-59 38 -82 62 -38 38 -43 49 -45 91 -1 26 -2 56 -2 66 -1 12 8 18 32 20 17 2
32 0 32 -5 0 -4 9 -38 19 -76 11 -37 16 -67 11 -67 -5 0 -20 12 -34 27 l-25
27 7 -29 c5 -19 18 -32 38 -39 16 -6 42 -20 57 -30 23 -16 32 -17 53 -7 14 6
36 11 49 11 54 0 71 26 39 61 -15 16 -14 22 12 71 40 73 55 82 78 44z m1400
-119 c14 -18 22 -50 27 -96 4 -44 12 -75 22 -86 10 -9 17 -17 17 -19 0 -1 -25
-2 -55 -2 -44 -1 -55 2 -56 15 -1 9 -4 5 -8 -9 -7 -21 -9 -17 -15 27 -4 29
-12 56 -17 59 -13 8 0 127 15 137 20 13 49 3 70 -26z m154 -41 c2 -49 9 -77
22 -97 11 -15 20 -37 20 -48 0 -17 -6 -21 -34 -21 -21 0 -34 5 -33 13 2 58 -5
73 -46 99 -31 20 -45 37 -55 68 -7 23 -10 46 -6 51 3 5 33 9 67 7 l62 -3 3
-69z m-6155 17 c-4 -10 -17 -34 -29 -54 -32 -52 -34 -92 -5 -123 24 -26 51
-34 51 -17 0 5 -9 13 -20 16 -11 4 -18 10 -15 15 3 4 -2 10 -10 14 -29 11 -11
64 26 78 12 5 16 2 13 -10 -3 -11 9 -26 33 -42 21 -14 43 -30 49 -36 15 -13
23 -124 9 -121 -5 1 -8 9 -7 18 3 16 -34 56 -44 47 -3 -4 4 -25 15 -49 14 -29
18 -46 11 -53 -7 -7 -10 -6 -10 4 0 7 -12 29 -26 48 -22 28 -24 36 -13 44 11
8 10 9 -4 4 -12 -4 -32 5 -57 26 -33 25 -39 35 -33 56 4 18 2 23 -8 20 -8 -3
-13 -11 -11 -17 4 -18 -12 -13 -26 9 -7 11 -19 20 -27 20 -22 0 -18 -44 6 -66
29 -26 53 -75 51 -99 -3 -17 -1 -18 8 -5 9 12 10 9 5 -15 -4 -16 -18 -45 -32
-63 -14 -18 -23 -36 -20 -39 7 -6 77 48 77 60 0 4 5 7 10 7 7 0 7 -6 0 -20 -9
-16 -8 -20 5 -20 21 0 19 -14 -6 -36 -12 -10 -30 -37 -41 -59 -10 -22 -27 -53
-37 -70 -10 -16 -16 -34 -13 -39 3 -5 0 -6 -6 -2 -7 4 -12 1 -12 -10 0 -21
-38 -84 -51 -84 -23 0 8 80 59 148 37 51 17 51 -34 1 l-45 -44 6 60 c4 33 8
70 11 82 2 12 0 25 -6 28 -5 3 -10 -2 -10 -11 0 -14 -3 -15 -11 -7 -9 9 -9 19
1 42 6 16 9 34 6 39 -9 16 5 44 20 38 7 -3 15 0 18 7 2 7 5 4 5 -5 1 -10 -6
-18 -14 -18 -9 0 -15 -9 -15 -22 0 -22 1 -22 27 5 25 24 26 28 12 43 -15 14
-15 19 0 59 8 24 12 47 8 52 -11 10 -27 -17 -27 -45 0 -13 -4 -20 -10 -17 -6
4 -7 28 -4 61 5 37 3 54 -5 54 -6 0 -11 -17 -12 -37 0 -21 -4 -47 -8 -58 -7
-16 -9 -13 -15 18 -4 20 -4 42 -1 47 3 6 1 10 -6 10 -10 0 -10 3 -1 12 7 7 12
19 12 26 0 10 -9 5 -25 -12 -24 -25 -35 -64 -16 -52 5 3 11 -22 14 -57 6 -69
4 -104 -7 -129 -7 -15 -11 -14 -40 5 -25 17 -31 27 -28 47 3 14 9 31 15 38 8
10 7 16 -1 21 -7 4 -10 15 -7 23 4 9 2 19 -4 23 -6 3 -11 0 -11 -8 0 -8 -7
-18 -15 -21 -14 -5 -14 -3 -3 13 38 53 184 191 203 191 4 0 5 -7 1 -15 -6 -17
9 -21 19 -5 4 6 23 7 45 4 34 -6 42 -3 62 20 27 30 40 34 31 9z m4165 -88 c-3
-14 1 -30 8 -36 10 -8 11 -16 4 -29 -6 -10 -10 -28 -10 -38 0 -29 54 -82 82
-82 13 0 34 -7 46 -16 18 -12 22 -25 22 -70 0 -56 14 -71 30 -31 7 18 9 15 9
-20 1 -23 4 -48 7 -56 4 -12 0 -14 -15 -10 -12 3 -21 1 -21 -6 0 -6 9 -11 21
-11 13 0 23 -8 26 -20 3 -12 17 -28 32 -36 14 -8 18 -13 8 -10 -10 3 -20 0
-23 -8 -6 -15 -54 -7 -79 14 -9 7 -15 8 -20 1 -3 -6 13 -31 36 -56 23 -25 34
-42 24 -39 -12 5 -23 0 -35 -17 l-18 -23 1 33 c1 23 -4 37 -16 45 -15 9 -22 6
-44 -18 -20 -23 -24 -25 -22 -10 2 10 -7 37 -18 60 -14 25 -20 50 -16 64 5 20
3 22 -15 18 -12 -4 -22 -2 -22 3 0 5 7 9 16 9 27 0 11 35 -17 38 -21 2 -28 -2
-33 -22 -5 -22 -11 -26 -45 -24 -21 0 -43 -2 -49 -6 -18 -11 -15 64 4 109 12
30 18 35 26 24 7 -10 8 -4 5 21 -7 51 31 147 62 155 21 5 23 10 18 46 -3 21
-1 39 3 39 5 0 12 9 15 20 9 28 18 25 13 -5z m157 -49 c-8 -30 28 -91 53 -92
11 -1 35 -13 52 -28 29 -24 43 -30 63 -27 9 1 10 7 -18 -77 -14 -41 -25 -82
-25 -92 0 -11 -5 -22 -12 -26 -8 -5 -9 2 -5 26 6 28 5 31 -8 20 -10 -8 -15 -9
-15 -2 0 6 9 16 20 22 11 6 18 15 15 21 -4 5 -11 7 -16 3 -6 -3 -13 2 -15 12
-3 11 -23 28 -45 38 -36 18 -57 45 -25 33 12 -5 12 -2 0 21 -8 15 -14 35 -14
45 0 10 -9 36 -21 58 -12 25 -17 48 -13 57 4 10 6 21 5 26 -1 5 5 4 13 -3 9
-8 14 -22 11 -35z m736 -49 c5 -10 7 -22 4 -27 -4 -6 -2 -10 2 -10 5 0 9 -17
9 -37 0 -67 28 -282 36 -277 4 3 5 -2 2 -11 -4 -9 1 -24 11 -34 15 -17 15 -20
1 -28 -13 -7 -14 -18 -7 -62 5 -29 14 -57 20 -61 9 -5 8 -11 -4 -24 -9 -9 -12
-16 -7 -16 16 0 24 -117 12 -156 -18 -53 -38 -58 -106 -24 -32 16 -67 30 -76
30 -10 0 -24 13 -33 30 -14 27 -14 30 4 40 11 5 28 7 38 4 14 -5 15 -4 4 4
-11 8 -1 17 45 40 99 51 98 49 84 115 -12 58 -23 67 -52 45 -14 -11 -15 -21
-6 -66 10 -49 7 -74 -8 -59 -3 3 -9 28 -13 56 -6 50 -6 50 -31 38 -26 -13 -29
-35 -14 -109 3 -16 1 -28 -4 -28 -12 0 -22 34 -22 78 0 36 0 36 -35 20 -16 -7
-24 -17 -21 -27 3 -9 8 -38 12 -66 9 -67 -11 -49 -24 22 -10 58 -3 78 33 87
17 4 23 11 18 23 -5 12 -2 15 10 10 12 -4 17 -1 17 10 0 23 -57 9 -90 -21 -33
-31 -70 -42 -81 -25 -13 21 -11 29 9 29 11 0 27 9 37 20 10 11 33 22 51 26 34
6 47 24 18 24 -18 0 -14 24 4 26 7 1 17 2 23 3 8 1 8 6 -1 16 -10 13 -9 15 10
15 27 0 110 46 110 61 0 21 -30 19 -69 -5 -22 -14 -48 -26 -56 -26 -22 0 -58
-20 -68 -36 -12 -20 -37 -17 -37 4 0 26 80 108 113 116 22 5 28 12 25 29 -1
13 8 33 25 49 32 32 34 48 7 48 -11 0 -20 7 -20 15 0 9 6 12 15 9 19 -8 40 14
49 49 8 34 2 34 -29 1 l-25 -27 0 26 c0 14 12 49 27 79 l27 53 8 -35 c5 -19
13 -43 19 -53z m-2651 -17 c0 -14 7 -20 23 -20 34 0 47 -19 47 -69 0 -53 -10
-74 -31 -66 -9 3 -26 1 -40 -4 -22 -9 -20 -10 16 -10 63 -1 27 -18 -52 -24
-60 -5 -73 -3 -73 9 0 8 -5 14 -11 14 -6 0 -9 -6 -6 -12 2 -7 1 -33 -3 -58
l-7 -45 -2 51 c0 28 2 79 6 114 5 49 10 64 25 68 23 6 24 22 1 23 -10 1 -2 5
17 10 19 4 43 6 53 3 12 -4 17 0 17 15 0 12 5 21 10 21 6 0 10 -9 10 -20z
m-1526 -9 c3 -5 21 -12 40 -15 33 -6 72 -36 47 -36 -6 0 -11 -5 -11 -11 0 -5
-18 -47 -41 -92 -23 -45 -54 -113 -69 -152 -15 -38 -43 -104 -62 -145 -19 -41
-41 -91 -48 -110 -8 -19 -27 -59 -42 -88 -19 -35 -26 -58 -20 -65 5 -7 12 -38
14 -70 4 -46 10 -63 33 -87 28 -30 29 -60 0 -60 -8 0 -15 -8 -15 -18 0 -10 -5
-23 -12 -30 -14 -14 -37 -3 -92 45 -22 18 -43 33 -48 33 -21 0 -3 -23 47 -60
30 -22 55 -45 55 -50 0 -21 -34 -8 -72 26 -49 44 -64 36 -20 -9 34 -35 33 -54
-1 -36 -41 23 -77 29 -77 13 0 -8 -4 -14 -9 -14 -5 0 -7 9 -4 19 3 10 -3 31
-13 45 -14 22 -15 31 -5 52 6 14 12 42 12 62 l2 37 7 -40 c4 -22 8 -31 9 -20
2 27 32 62 56 67 11 2 18 8 16 13 -1 6 -8 9 -13 7 -14 -4 -2 57 23 116 16 36
22 43 29 32 6 -8 10 -10 10 -4 0 5 -4 14 -9 20 -8 7 34 109 78 184 22 39 39
77 45 103 7 30 26 28 26 -4 0 -10 5 -19 10 -19 6 0 10 18 10 41 0 24 -4 38
-10 34 -5 -3 -10 3 -10 14 0 11 5 23 10 26 6 3 10 16 10 28 0 12 9 37 20 55
11 18 20 40 20 48 0 22 41 94 51 89 4 -3 5 4 2 15 -5 20 11 28 21 11z m-109
-112 c-15 -35 -31 -68 -35 -74 -4 -5 -13 -28 -20 -50 -15 -48 -51 -137 -91
-223 -16 -35 -29 -66 -29 -69 0 -3 -7 -21 -16 -41 -9 -21 -19 -46 -24 -57 -4
-11 -15 -37 -24 -58 -9 -21 -16 -45 -16 -55 0 -9 -4 -23 -9 -30 -5 -8 -6 9 -4
40 3 29 10 58 17 63 15 13 66 172 66 207 0 14 13 42 30 63 16 20 32 46 36 58
7 26 32 84 45 109 5 10 9 24 9 32 0 8 7 19 15 24 14 7 14 11 1 37 -15 28 -14
30 6 38 19 7 20 10 8 17 -12 8 -11 10 6 10 12 0 27 7 34 15 23 28 21 8 -5 -56z
m-1158 44 c-13 -16 -14 -22 -2 -50 19 -45 29 -41 21 8 -7 47 9 46 19 -1 4 -17
14 -36 24 -42 10 -7 21 -25 25 -40 3 -16 11 -28 16 -28 16 0 11 -18 -12 -45
-12 -14 -32 -25 -45 -25 -26 0 -27 -3 -13 -31 9 -15 7 -19 -5 -19 -9 0 -18 6
-21 14 -3 8 -18 19 -32 25 -51 20 -111 58 -104 66 6 7 -3 5 -48 -13 -12 -4 43
65 69 88 3 3 24 25 45 50 34 38 56 56 75 59 2 1 -3 -7 -12 -16z m5886 -45
c-23 -25 -37 -60 -38 -95 -1 -29 11 -29 25 -2 11 20 12 20 25 2 13 -17 14 -17
20 0 10 24 29 22 22 -3 -5 -21 3 -26 19 -11 14 13 64 23 64 12 0 -5 -14 -12
-30 -16 -25 -6 -29 -9 -19 -21 7 -8 20 -12 35 -8 18 5 24 2 24 -10 0 -9 -4
-16 -9 -16 -5 0 -11 -12 -13 -27 -4 -27 -2 -28 42 -27 32 1 35 0 11 -3 -23 -3
-46 -17 -71 -43 -43 -45 -52 -48 -180 -53 -64 -3 -106 -10 -128 -21 -31 -16
-61 -14 -35 2 9 6 9 21 -1 65 -12 51 -12 58 4 72 9 8 22 15 29 15 6 0 22 10
34 23 12 13 41 28 63 35 25 7 44 19 46 30 4 15 -3 17 -56 17 -34 -1 -67 -4
-74 -9 -7 -4 -12 -1 -12 8 0 9 5 16 11 16 6 0 9 6 6 14 -12 30 57 56 197 75 5
0 0 -9 -11 -21z m-4484 -65 c-16 -37 -18 -52 -10 -65 9 -14 7 -20 -9 -30 -22
-14 -26 -33 -9 -44 6 -3 26 11 45 32 30 35 34 37 34 17 0 -13 -4 -23 -9 -23
-12 0 -21 -39 -11 -45 5 -3 13 2 18 11 7 12 11 13 17 4 4 -7 2 -16 -6 -21 -12
-8 -12 -11 1 -18 18 -12 13 -17 -27 -24 -20 -4 -33 -2 -33 4 0 6 4 8 9 4 5 -3
13 0 17 6 5 9 0 10 -17 5 -70 -19 -69 -19 -69 3 0 12 -5 21 -11 21 -22 0 -1
80 37 144 46 77 62 86 33 19z m-988 -57 c5 -6 3 -16 -4 -24 -9 -12 -9 -16 0
-19 14 -5 5 -38 -35 -123 -16 -36 -32 -73 -36 -83 -3 -10 -11 -15 -16 -12 -8
5 -8 11 0 20 8 10 4 12 -19 11 -39 -2 -44 -8 -30 -42 7 -16 14 -39 16 -52 3
-20 1 -22 -15 -13 -11 6 -21 8 -24 6 -2 -3 -5 24 -6 60 0 36 4 65 9 65 5 0 9
7 9 15 0 8 11 22 25 31 21 14 25 24 25 65 0 27 6 56 14 66 77 94 71 89 74 63
2 -14 8 -29 13 -34z m-460 -138 c40 -30 49 -34 49 -18 0 6 -20 25 -45 42 -46
33 -54 49 -13 28 29 -16 98 -81 98 -94 0 -6 -4 -6 -11 1 -13 13 -72 -4 -63
-18 3 -5 3 -13 0 -18 -6 -8 -38 3 -88 30 -25 13 -47 12 -28 -2 12 -8 10 -9
-10 -5 -14 4 -47 9 -73 13 -47 6 -52 19 -11 27 10 3 30 9 44 15 l25 10 -23 7
c-21 6 -22 8 -7 31 9 13 13 28 9 34 -8 14 103 -48 147 -83z m1491 -126 c-40
-38 -70 -71 -67 -74 4 -3 27 5 51 19 36 20 48 23 57 13 9 -10 9 -14 0 -17 -7
-3 -13 -11 -13 -18 0 -8 -10 -15 -22 -17 -20 -3 -23 -10 -26 -60 -2 -33 -8
-58 -14 -58 -6 0 -8 18 -5 50 6 53 3 56 -38 40 -24 -9 -25 -14 -24 -70 1 -33
4 -60 6 -60 2 0 19 6 37 14 22 9 38 11 50 4 10 -6 26 -8 35 -5 12 3 18 -1 17
-12 -1 -10 8 -17 27 -19 15 -2 25 -8 21 -13 -3 -5 -10 -7 -15 -3 -18 11 -192
13 -214 3 -20 -10 -20 -10 0 6 14 11 20 30 22 80 3 41 0 65 -7 65 -5 0 -10 -4
-10 -9 0 -5 -10 -11 -21 -14 l-21 -6 21 23 c11 12 21 26 21 30 0 4 7 14 15 22
8 9 15 22 15 30 0 19 -29 18 -36 -1 -11 -27 -20 -16 -16 20 3 29 11 39 49 60
33 18 44 21 39 9 -7 -17 6 -15 84 17 25 10 47 18 50 18 2 1 -28 -30 -68 -67z
m-1601 46 c22 -6 39 -15 39 -20 0 -4 8 -8 18 -8 22 0 97 -69 86 -79 -4 -3 -9
0 -11 7 -6 14 -83 17 -83 2 0 -5 -7 -10 -15 -10 -8 0 -15 -5 -15 -11 0 -7 14
-8 41 -4 27 5 50 3 65 -6 30 -16 31 -29 2 -29 -23 0 -23 -1 2 -13 17 -9 28
-10 33 -3 5 7 6 3 3 -8 -4 -13 6 -31 34 -62 22 -24 40 -51 40 -59 0 -9 14 -29
31 -46 25 -25 29 -33 18 -40 -11 -6 -8 -9 9 -9 12 0 22 -2 22 -4 0 -2 3 -12 6
-20 4 -12 2 -15 -9 -10 -24 9 -117 -41 -181 -98 -55 -48 -59 -50 -52 -25 5 23
3 27 -14 27 -11 0 -20 3 -20 8 0 4 -4 13 -9 20 -7 11 -15 10 -44 -6 -20 -10
-34 -22 -30 -26 11 -10 -149 -6 -192 5 -22 6 -75 16 -119 22 -108 16 -99 44
16 46 25 1 68 5 95 11 26 5 81 15 122 21 40 6 69 14 64 18 -18 11 -23 75 -8
95 8 11 15 23 15 28 0 13 -28 9 -32 -4 -3 -7 -10 -8 -17 -4 -13 8 -11 35 6
134 5 28 3 32 -17 32 -19 0 -20 3 -10 15 6 8 9 19 5 26 -6 8 -10 7 -16 -2 -6
-10 -9 -5 -9 15 0 24 -2 27 -15 16 -12 -10 -15 -9 -15 8 0 38 10 49 38 45 21
-4 24 -2 12 6 -21 15 61 15 111 -1z m4029 -32 c24 -4 51 -13 60 -20 8 -7 40
-22 70 -32 l55 -19 -55 -5 c-30 -3 -54 -9 -52 -14 2 -5 -7 -14 -19 -20 -12 -6
-28 -21 -36 -33 l-15 -22 43 21 c90 44 86 43 108 29 13 -8 13 -12 0 -27 -11
-13 -11 -18 -1 -21 6 -3 12 -10 12 -16 0 -7 10 -18 21 -26 18 -11 23 -11 30 1
6 8 9 0 9 -24 0 -37 13 -50 24 -25 3 6 3 -1 0 -18 -4 -16 -8 -39 -9 -50 -1
-11 -5 -19 -8 -17 -4 1 -11 2 -17 2 -6 0 -9 5 -7 12 1 6 -6 14 -15 16 -23 4
-25 -33 -3 -45 13 -8 13 -14 -2 -52 l-17 -43 -17 34 -17 33 -10 -25 c-5 -14
-8 -28 -5 -32 2 -5 -2 -8 -11 -8 -8 0 -17 -6 -19 -12 -3 -7 -6 1 -7 17 -3 44
0 59 16 68 8 5 12 12 9 18 -10 15 -23 10 -30 -11 -3 -11 -11 -20 -16 -20 -5 0
-9 9 -9 20 0 11 -5 20 -11 20 -6 0 -8 9 -4 20 5 17 2 20 -22 21 -15 1 -31 1
-35 0 -4 0 -10 9 -14 22 -4 12 -12 25 -18 29 -8 6 -8 8 1 8 6 0 27 14 45 30
l32 30 -26 0 c-15 0 -30 -4 -33 -10 -9 -15 -45 -12 -45 4 0 8 5 27 10 42 12
30 6 44 -12 26 -7 -7 -18 -12 -26 -12 -20 0 -9 65 14 91 16 18 16 19 -1 19
-10 0 -24 -8 -31 -17 -12 -16 -13 -16 -14 9 0 22 7 31 33 42 17 7 37 10 42 6
6 -4 30 -10 55 -14z m-2069 -6 c8 -13 12 -12 25 5 14 19 16 19 28 3 8 -11 26
-18 44 -18 48 0 54 -36 12 -73 -26 -23 -39 -28 -64 -23 -24 4 -39 -1 -70 -24
-43 -32 -76 -39 -76 -15 0 8 -4 15 -10 15 -5 0 -10 -9 -10 -19 0 -14 -5 -18
-19 -14 -11 3 -37 -1 -58 -8 -89 -30 -110 -23 -115 43 -3 47 -1 50 27 62 17 7
36 20 44 29 9 12 29 17 62 17 32 0 49 4 50 13 0 10 2 10 6 0 7 -19 21 -16 27
5 8 23 82 25 97 2z m8793 -12 c-64 -50 -67 -55 -65 -108 0 -39 7 -59 28 -87
21 -28 24 -35 11 -30 -16 5 -18 0 -18 -38 0 -36 5 -48 25 -61 14 -9 36 -14 50
-12 14 3 25 1 25 -3 0 -12 -47 -35 -98 -49 -24 -6 -50 -14 -59 -17 -15 -6 -16
13 -10 197 4 112 8 205 10 206 10 11 58 23 91 23 l39 1 -29 -22z m-5890 -34
c33 -17 34 -18 38 -90 3 -59 7 -77 25 -93 13 -13 19 -28 16 -40 -3 -11 0 -28
6 -38 9 -15 10 -12 11 19 0 63 17 51 28 -20 10 -66 0 -110 -14 -58 -9 37 -27
33 -19 -4 4 -19 3 -30 -4 -30 -12 0 -22 37 -30 113 -1 4 -6 7 -12 7 -6 0 -8
-8 -5 -17 3 -10 7 -45 10 -78 6 -59 6 -60 -9 -27 -20 42 -28 41 -19 -3 4 -21
2 -35 -4 -35 -10 0 -22 47 -22 91 0 15 -5 31 -11 35 -9 5 -10 -9 -4 -51 4 -32
9 -64 12 -72 3 -7 0 -13 -5 -13 -6 0 -14 27 -18 60 -4 33 -11 60 -16 60 -10 0
-5 -56 9 -120 4 -19 3 -22 -6 -14 -6 6 -14 34 -18 63 -3 28 -10 54 -16 58 -10
6 -7 -24 9 -104 4 -21 3 -33 -4 -33 -6 0 -13 12 -15 28 -3 21 -4 18 -6 -13 -2
-32 -4 -36 -11 -20 -8 19 -9 18 -9 -4 -1 -33 -13 -19 -28 32 l-13 42 6 -40
c10 -74 15 -81 59 -76 6 0 16 -12 22 -27 7 -15 28 -44 46 -66 27 -31 38 -37
56 -31 24 7 91 -16 123 -43 16 -13 16 -17 3 -43 -19 -37 -49 -64 -92 -84 -35
-17 -35 -17 -14 -32 12 -8 55 -18 96 -22 81 -8 112 -21 48 -21 -66 0 -145 19
-162 38 -22 26 -192 38 -236 17 -30 -14 -30 -14 15 -8 41 5 43 4 26 -9 -14
-11 -29 -13 -55 -7 -36 8 -36 8 -147 -108 -61 -64 -113 -112 -117 -106 -6 9 9
129 18 143 2 4 23 13 45 20 53 18 83 54 78 97 -2 17 0 29 4 27 5 -3 11 3 15
13 4 10 11 21 17 25 7 5 6 8 -3 8 -7 0 -11 6 -8 15 4 8 0 27 -8 42 -8 15 -15
34 -15 41 0 6 -5 12 -11 12 -5 0 -8 -4 -5 -8 9 -15 -51 -65 -69 -58 -13 5 -15
16 -10 68 4 35 9 70 12 78 3 8 7 47 9 85 2 39 10 106 17 150 13 80 13 80 57
104 24 13 67 48 95 76 111 112 164 134 239 99z m427 -11 c9 -10 29 -48 47 -85
23 -49 36 -66 47 -62 11 5 14 0 13 -17 -2 -18 5 -27 35 -41 29 -14 43 -30 58
-65 24 -57 38 -140 21 -129 -7 4 -12 1 -12 -9 0 -10 -5 -13 -12 -9 -7 4 -8 3
-4 -5 5 -7 -5 -17 -28 -26 -44 -19 -50 -19 -42 0 3 8 0 15 -7 15 -7 1 -5 6 5
14 10 7 15 16 11 19 -3 4 1 9 9 12 12 5 10 12 -13 38 -16 18 -37 41 -47 53
-24 28 -97 27 -97 -1 0 -12 -9 -19 -29 -21 -24 -2 -37 5 -65 36 -20 21 -37 49
-38 62 -3 48 -16 107 -22 105 -13 -4 -81 62 -81 78 0 9 9 15 23 15 17 0 19 -2
7 -10 -8 -5 -12 -11 -10 -13 30 -23 71 -47 83 -47 10 0 13 -8 11 -27 l-4 -28
14 30 c13 28 13 32 -7 50 -12 12 -33 28 -47 38 -16 11 -19 17 -9 17 9 0 29
-13 45 -30 39 -39 55 -39 52 2 -3 28 1 33 22 36 14 2 29 8 35 13 13 13 20 11
36 -8z m-4505 -121 c37 -24 36 -99 -1 -188 -12 -30 -13 -48 -5 -101 7 -42 7
-70 1 -81 -9 -14 -10 -11 -11 16 0 17 -4 32 -9 32 -5 0 -8 -12 -7 -27 0 -16
-3 -30 -9 -32 -5 -3 -21 -11 -35 -18 l-25 -13 -3 60 c-2 33 -6 60 -10 60 -4 0
-5 -23 -4 -50 5 -63 -8 -100 -18 -55 l-8 30 -1 -33 c-1 -20 -5 -31 -11 -27 -7
4 -9 30 -5 68 4 41 3 57 -3 47 -5 -8 -9 -40 -8 -70 1 -46 4 -57 23 -65 19 -8
21 -15 16 -52 -7 -53 15 -83 61 -83 17 0 41 -3 54 -6 32 -9 29 -53 -5 -86 -30
-27 -92 -62 -99 -55 -2 2 13 12 34 21 21 9 43 26 50 37 10 16 5 15 -29 -8 -38
-25 -53 -28 -155 -33 -106 -5 -114 -7 -151 -36 -62 -49 -67 -51 -61 -20 4 21
1 27 -18 32 -24 6 -39 30 -24 39 5 3 18 0 29 -7 25 -16 42 -1 18 16 -27 20
-11 73 40 130 23 26 43 52 43 57 0 16 -29 10 -49 -10 -17 -17 -25 -18 -62 -10
-23 5 -55 19 -70 30 -15 11 -42 25 -60 31 -30 10 -31 12 -25 52 11 71 25 101
55 119 31 18 87 22 110 8 10 -6 24 -2 45 14 72 53 229 81 299 52 40 -17 40
-17 37 -91 -1 -32 2 -46 9 -41 6 3 12 25 12 48 1 23 4 32 6 20 2 -13 9 -23 14
-23 14 0 11 48 -3 53 -10 3 -8 16 6 53 28 70 33 160 10 185 -17 19 -10 26 12
11z m3677 -69 c2 -5 -5 -66 -15 -138 -19 -137 -28 -155 -75 -155 -13 0 -23 -6
-23 -12 0 -7 -14 14 -30 47 -30 59 -34 101 -12 128 5 7 12 28 15 47 3 19 10
47 16 63 10 25 15 27 65 27 30 0 57 -3 59 -7z m7329 -440 c-7 -197 -12 -375
-12 -395 0 -26 -4 -38 -14 -38 -23 0 -37 380 -25 682 1 21 -4 44 -11 53 -16
19 -5 49 15 41 9 -3 19 3 26 15 8 15 14 18 22 10 8 -8 7 -109 -1 -368z m-6648
337 c-9 -3 -16 -10 -17 -15 -3 -22 -89 -115 -106 -115 -6 0 -11 9 -11 19 0 24
-12 32 -30 21 -11 -7 -11 -12 -2 -23 10 -12 5 -18 -30 -37 -24 -12 -55 -33
-70 -47 l-26 -25 -28 26 c-35 31 -34 32 81 96 94 53 132 69 121 51 -12 -19 3
-32 24 -21 12 6 16 17 13 30 -3 11 0 20 6 20 6 0 10 -5 9 -11 -2 -6 3 -14 10
-16 9 -4 11 2 7 19 -5 18 0 27 22 40 20 12 30 13 35 5 4 -7 1 -14 -8 -17z
m-1038 -195 l51 -51 -17 -64 c-10 -36 -24 -83 -32 -105 -9 -22 -26 -68 -39
-102 -13 -35 -26 -63 -29 -63 -12 0 -40 193 -42 285 -2 90 5 143 25 180 10 19
11 19 21 -5 6 -14 34 -48 62 -75z m924 -21 c63 -23 216 -21 242 2 10 10 21 14
25 11 3 -4 1 -7 -5 -7 -6 0 -14 -9 -17 -20 -4 -11 -10 -18 -15 -15 -4 3 -15 2
-24 -1 -14 -5 -14 -8 -1 -21 8 -8 15 -17 15 -21 0 -4 -51 -5 -112 -2 l-113 5
-16 33 c-8 19 -22 38 -30 43 -22 14 1 10 51 -7z m-6244 -365 c-9 -178 -20
-490 -26 -694 -13 -457 -21 -605 -31 -605 -5 0 -7 12 -4 27 2 16 7 120 10 233
17 654 50 1378 61 1367 2 -2 -2 -150 -10 -328z m839 291 c-26 -51 -17 -63 17
-23 60 69 73 68 29 -3 -33 -54 -49 -104 -33 -104 5 0 17 11 26 25 29 44 98 46
74 2 -10 -20 -10 -21 5 -8 10 7 17 26 17 42 0 23 5 29 21 29 14 0 19 -5 16
-15 -4 -8 -2 -17 4 -21 6 -4 4 -13 -7 -25 -9 -11 -14 -22 -10 -27 4 -4 22 10
39 31 37 43 50 47 41 12 -10 -41 16 -29 33 15 17 42 40 56 29 18 -3 -13 -6
-40 -6 -60 0 -21 -5 -38 -11 -38 -7 0 -9 9 -6 23 l6 22 -17 -21 c-14 -18 -27
-22 -77 -20 -47 1 -59 4 -57 16 3 11 -1 11 -16 -3 -15 -13 -32 -16 -73 -13
-46 3 -54 7 -57 26 l-4 22 -14 -21 c-23 -32 -32 -25 -30 22 1 29 11 58 29 85
31 48 55 57 32 12z m4600 -50 c17 -32 21 -180 6 -180 -6 0 -11 -21 -13 -47 -2
-38 -6 -47 -19 -45 -13 2 -17 -6 -17 -32 0 -28 4 -35 22 -38 25 -4 31 -31 21
-96 -6 -43 -7 -44 -37 -38 -45 9 -82 40 -108 90 l-24 45 21 53 c11 29 38 98
59 153 24 61 44 100 53 100 8 0 16 6 19 13 2 7 -2 10 -12 6 -9 -3 -16 -1 -16
5 0 6 5 11 10 11 6 0 10 7 10 15 0 23 8 18 25 -15z m8967 -12 c5 -30 4 -30
-34 -25 -21 3 -38 1 -38 -4 0 -5 5 -9 11 -9 6 0 9 -14 7 -32 -2 -25 -8 -32
-27 -33 -13 -1 -32 -13 -42 -26 -10 -13 -19 -19 -19 -14 0 6 -4 4 -9 -4 -8
-12 -12 -12 -24 -2 -12 10 -18 8 -29 -8 -10 -14 -18 -17 -28 -11 -13 8 -12 11
2 22 9 7 18 27 20 43 3 27 6 30 33 27 23 -2 26 0 15 7 -13 9 -12 14 8 33 19
19 25 21 42 11 16 -11 20 -9 25 7 4 11 12 20 18 20 7 0 18 9 25 20 16 26 39
15 44 -22z m-1807 -49 c50 -13 89 -60 83 -101 -3 -25 -24 -26 -138 -8 -30 5
-172 12 -315 16 -336 9 -316 7 -332 31 -29 44 11 70 89 59 110 -16 294 -17
353 -3 73 18 200 21 260 6z m-12804 -384 c-13 -339 -39 -833 -46 -890 -3 -22
-5 -77 -6 -122 -1 -47 -6 -83 -12 -83 -10 0 -9 26 18 455 8 121 22 389 32 595
9 206 19 366 21 355 3 -11 -1 -150 -7 -310z m8825 228 c-10 -89 -16 -360 -6
-330 5 16 6 35 4 42 -3 8 -1 22 5 32 7 13 9 -19 7 -112 -4 -145 -16 -275 -25
-275 -3 0 -5 -49 -3 -110 2 -60 7 -110 13 -110 5 0 9 -14 9 -31 0 -16 -4 -28
-9 -25 -5 3 -7 16 -4 29 4 21 3 21 -11 -3 -10 -16 -16 -20 -16 -10 -1 9 -5 5
-11 -8 -5 -13 -7 -28 -3 -33 3 -5 0 -9 -5 -9 -6 0 -12 8 -12 18 -1 9 -5 1 -9
-18 l-7 -35 -2 31 c0 17 5 150 13 295 8 145 20 364 27 487 11 209 13 222 31
222 18 0 19 -5 14 -47z m1168 37 l159 0 -7 -172 c-4 -95 -9 -175 -12 -177 -3
-3 -9 1 -14 9 -8 13 -10 12 -10 -3 0 -10 -4 -15 -10 -12 -5 3 -10 2 -10 -3 0
-4 -22 -14 -50 -21 -27 -7 -52 -17 -56 -22 -9 -15 -24 -10 -25 9 -1 16 -2 16
-6 0 -2 -10 -10 -18 -17 -18 -8 0 -34 -9 -59 -20 -25 -11 -52 -17 -60 -14 -9
3 -31 -2 -51 -11 -19 -9 -41 -15 -48 -12 -8 4 -7 6 5 6 13 1 17 10 17 41 0 22
5 40 10 40 6 0 8 -11 4 -25 -4 -15 -2 -25 5 -25 6 0 12 20 13 48 l1 47 6 -50
c6 -49 6 -50 14 -16 4 18 7 78 7 132 0 59 4 99 10 99 6 0 10 -13 10 -30 0 -19
5 -30 14 -30 10 0 13 -12 10 -47 -3 -36 -2 -43 5 -28 5 11 9 49 9 85 -1 36 -3
53 -5 38 -5 -33 -20 -37 -19 -5 1 16 -5 23 -21 25 -22 3 -23 0 -23 -57 0 -33
-5 -63 -11 -67 -8 -4 -9 3 -4 25 4 20 3 31 -4 31 -6 0 -11 -18 -11 -41 0 -22
-4 -38 -9 -35 -5 4 -12 -7 -16 -23 -3 -16 -13 -32 -21 -35 -10 -4 -14 -25 -16
-73 l-1 -68 -6 60 -6 60 -20 -23 c-11 -12 -22 -32 -25 -45 -3 -12 -16 -26 -28
-32 -29 -13 -22 -31 10 -27 15 2 29 -1 32 -6 3 -5 -6 -9 -19 -9 -33 -1 -55
-20 -55 -50 0 -14 -4 -21 -10 -18 -6 4 -9 -7 -9 -27 1 -23 3 -26 6 -10 2 12 9
22 15 22 6 0 7 -10 3 -27 -14 -49 -15 -273 -2 -270 6 1 12 -4 13 -10 1 -7 3
-21 4 -30 1 -10 6 11 11 47 5 36 13 66 20 69 8 2 8 6 1 10 -7 4 1 20 19 40 16
19 32 31 36 28 3 -4 12 -2 19 4 8 6 20 9 28 6 8 -3 28 0 43 8 15 7 45 16 66
19 31 5 37 3 37 -12 1 -15 2 -15 11 2 9 15 13 16 20 5 6 -10 9 -8 9 9 0 12 3
22 8 22 4 0 6 -35 5 -78 -2 -59 0 -70 7 -48 5 16 7 33 4 38 -3 4 -2 28 1 52 6
39 11 44 42 54 l36 11 -7 -57 c-4 -37 -3 -53 3 -47 5 6 11 30 13 55 3 42 6 46
38 56 19 7 38 10 43 7 14 -8 7 -123 -9 -148 -10 -15 -12 -25 -5 -25 12 0 16
-225 5 -254 -5 -13 -23 -16 -90 -16 -80 0 -84 1 -85 23 l-2 22 -4 -22 -4 -22
-282 5 c-155 4 -293 7 -307 9 -14 1 -45 3 -70 4 -31 1 -41 4 -31 10 8 5 29 7
48 4 28 -5 32 -3 27 11 -7 19 -16 20 -33 3 -10 -10 -12 -6 -9 17 4 35 -17 46
-26 14 -5 -19 -8 -20 -16 -8 -8 12 -10 10 -11 -10 -1 -21 -2 -22 -6 -5 -3 11
-11 24 -19 28 -8 4 -14 15 -14 22 0 8 -4 15 -9 15 -6 0 -12 -19 -14 -42 -2
-24 -4 -8 -4 34 0 43 -3 81 -8 85 -4 5 -6 -5 -3 -22 3 -16 2 -43 -2 -60 -7
-27 -8 -27 -9 -5 -1 18 -4 21 -12 13 -6 -6 -18 -9 -25 -6 -9 3 -14 -3 -15 -18
l-2 -24 -4 23 c-2 12 -9 20 -14 17 -5 -4 -9 5 -9 18 0 14 -7 31 -16 38 -17 14
-16 98 3 323 4 59 3 77 -5 72 -7 -4 -12 -33 -13 -64 0 -31 -5 -66 -10 -77 -6
-14 -8 2 -4 50 3 51 2 62 -5 40 -5 -16 -10 -72 -12 -123 -2 -71 0 -91 10 -87
8 3 12 -7 12 -33 -1 -30 -3 -34 -11 -19 -5 9 -7 22 -4 27 3 6 2 10 -4 10 -6 0
-11 -30 -13 -67 -3 -63 -4 -66 -15 -40 -15 34 -22 35 -15 2 2 -14 1 -42 -4
-62 l-7 -38 -7 40 c-4 22 -17 81 -30 130 -26 102 -36 270 -21 330 8 31 9 15 5
-75 -3 -71 -1 -109 4 -100 12 19 21 167 13 200 -4 13 -2 64 4 113 6 48 8 90 3
93 -4 3 -8 11 -7 17 0 9 2 8 6 -1 2 -6 9 -10 14 -6 6 3 7 -18 4 -55 -4 -39 -2
-61 5 -61 6 0 11 30 12 73 2 109 4 145 12 225 5 48 5 72 -2 72 -6 0 -13 -15
-15 -32 -3 -28 -4 -27 -3 5 2 37 0 38 -26 35 -15 -3 -28 0 -28 5 0 6 172 8
483 4 265 -4 554 -7 641 -7z m-9311 -40 l127 0 0 -76 0 -76 -202 7 c-112 4
-207 10 -212 12 -14 9 -1 123 15 134 8 6 43 8 79 5 36 -3 122 -6 193 -6z m655
-93 c3 -75 2 -77 -20 -73 -13 3 -45 5 -72 5 -48 1 -48 1 -42 31 3 17 3 30 0
30 -3 0 -10 -13 -15 -30 -12 -34 -28 -36 -148 -24 -56 6 -61 9 -61 31 0 13 6
33 13 44 10 17 10 23 0 26 -7 3 -13 14 -13 25 0 19 5 20 178 16 l177 -4 3 -77z
m8792 -329 c0 -51 -2 -54 -43 -80 l-42 -27 -3 38 c-2 28 -9 41 -26 49 -18 8
-23 7 -23 -4 0 -8 7 -13 16 -12 13 2 16 -7 16 -42 0 -41 -2 -45 -25 -45 -14 0
-29 -7 -34 -15 -8 -12 -11 -11 -17 5 -7 17 -8 18 -8 3 -1 -17 -34 -25 -78 -19
-7 1 -13 -3 -13 -9 0 -27 -152 11 -181 46 -10 12 -9 13 4 8 11 -4 16 1 19 16
3 19 10 22 64 23 39 1 69 8 80 18 11 8 53 26 94 38 41 13 98 31 125 41 75 27
75 27 75 -32z m-9130 -703 c-14 -42 -6 -58 14 -29 27 38 56 67 62 62 3 -3 -9
-27 -25 -54 -47 -73 -40 -128 7 -64 15 20 31 30 48 30 23 0 25 -3 20 -27 -6
-27 -6 -27 9 -9 8 11 15 30 15 42 0 12 6 24 14 27 22 9 30 -52 10 -75 -30 -33
-1 -19 37 18 l36 35 0 -40 c0 -44 -6 -49 -69 -50 -21 0 -38 4 -38 10 0 6 -7 6
-20 -1 -25 -13 -103 -8 -123 8 -10 9 -17 10 -22 2 -10 -16 -28 -12 -21 5 3 8
1 15 -4 15 -6 0 -10 -4 -10 -10 0 -15 -39 -32 -60 -25 -26 8 -26 41 0 55 22
12 27 1 8 -18 -6 -6 -8 -15 -4 -19 14 -14 41 15 80 86 40 76 56 87 36 26z
m8079 -50 c79 -3 148 -8 152 -11 5 -2 187 -7 406 -10 219 -3 432 -9 473 -13
41 -4 101 -7 133 -6 31 2 57 -1 57 -6 0 -23 -46 -29 -177 -24 -267 9 -450 15
-678 20 -487 11 -565 15 -565 34 0 24 9 31 34 26 12 -2 86 -7 165 -10z"/>
<path d="M10134 1362 c8 -13 -15 -485 -25 -512 -7 -19 -8 -15 -4 23 3 32 0 47
-8 47 -8 0 -13 -33 -14 -113 -1 -61 -5 -142 -8 -179 -4 -45 -3 -68 4 -68 6 0
11 23 12 53 0 28 4 61 9 72 6 13 7 -2 3 -40 -6 -55 -5 -59 10 -46 14 11 17 11
18 0 3 -35 17 83 17 141 0 75 -4 66 -18 -40 l-9 -75 3 78 c2 55 -1 80 -11 88
-7 6 -13 16 -13 21 0 6 7 5 15 -2 13 -11 15 -1 15 78 0 83 12 127 23 85 3 -10
5 2 6 27 1 25 4 56 8 69 4 17 3 22 -5 17 -7 -4 -12 -25 -12 -47 0 -21 -5 -39
-10 -39 -6 0 -8 10 -6 23 3 12 8 89 11 170 3 81 8 154 12 162 3 10 -1 15 -12
15 -9 0 -14 -4 -11 -8z"/>
<path d="M10175 1361 c-3 -6 -7 -28 -9 -51 -3 -33 -1 -40 11 -36 12 5 14 -2
11 -39 -2 -25 0 -45 4 -45 5 0 8 18 8 41 0 27 4 38 11 33 7 -4 9 -21 5 -42 -3
-24 -2 -32 5 -25 5 5 10 42 11 82 0 39 5 74 10 77 6 4 8 -28 4 -87 -12 -185
-15 -324 -7 -304 5 11 11 83 14 160 4 77 6 141 7 143 0 1 5 2 11 2 6 0 8 -7 5
-16 -4 -10 -8 -85 -11 -168 -4 -143 -3 -146 5 -46 13 162 21 224 27 230 3 3 4
-14 1 -37 -2 -24 0 -43 4 -43 7 0 14 107 9 154 -1 16 1 17 14 6 9 -7 15 -8 15
-2 0 5 -7 13 -16 16 -25 10 -142 7 -149 -3z"/>
<path d="M10382 1278 c-1 -51 -5 -106 -8 -123 -4 -23 -3 -26 5 -15 6 8 11 42
12 75 0 33 4 80 8 105 l8 45 2 -48 c1 -29 5 -46 11 -42 6 4 10 -20 10 -65 0
-47 4 -69 10 -65 6 4 9 14 6 23 -3 10 -2 40 3 67 l9 50 2 -60 2 -60 9 54 c14
80 21 77 17 -7 -1 -39 0 -72 5 -72 4 0 7 32 7 70 0 39 4 70 9 70 5 0 7 -27 4
-60 -4 -41 -2 -60 6 -60 7 0 12 23 13 63 l2 62 6 -80 c6 -79 11 -65 15 42 0
18 4 35 8 40 4 4 7 -21 6 -55 -1 -34 1 -65 4 -69 4 -3 6 41 6 98 -1 57 -4 91
-6 74 -6 -35 -21 -57 -35 -49 -5 4 -27 6 -49 6 -29 -1 -39 3 -39 15 0 9 6 13
15 9 11 -4 15 1 15 17 0 14 -3 18 -8 10 -8 -13 -52 -7 -52 7 0 5 8 11 18 13 9
3 1 5 -18 6 l-35 1 -3 -92z"/>
<path d="M11252 560 c-2 -28 -31 -59 -50 -52 -7 2 -12 -3 -12 -11 0 -19 -62
-59 -74 -47 -11 11 1 30 20 30 8 0 12 5 9 10 -4 6 -11 8 -16 5 -5 -4 -9 2 -9
12 -1 12 -5 9 -13 -10 -7 -16 -15 -28 -19 -28 -35 3 -38 1 -21 -19 13 -14 19
-16 25 -7 8 12 8 11 8 -20 0 -5 -6 -8 -12 -8 -7 0 -16 -4 -20 -10 -4 -6 -8 -2
-8 8 0 10 -9 27 -20 39 l-20 22 0 -31 c0 -17 4 -33 9 -35 5 -1 3 -9 -5 -16
-12 -11 -14 -8 -15 15 0 15 -3 22 -6 16 -7 -18 -23 -16 -23 2 0 8 7 15 15 15
8 0 15 7 15 15 0 8 -4 15 -10 15 -5 0 -10 -5 -10 -11 0 -5 -4 -7 -10 -4 -5 3
-10 3 -11 -2 -10 -77 -8 -103 6 -103 8 0 15 -8 16 -17 0 -14 3 -12 10 5 5 13
13 20 19 17 5 -3 10 -2 10 4 0 11 94 33 154 36 45 3 76 32 76 72 0 21 -3 23
-14 13 -8 -6 -17 -24 -19 -38 -2 -15 -3 -10 -2 11 2 22 11 44 20 51 12 8 15
22 12 46 -3 25 -4 28 -5 10z"/>
</g>
</svg>
