<?xml version="1.0" standalone="no"?>
<!DOCTYPE svg PUBLIC "-//W3C//DTD SVG 20010904//EN"
 "http://www.w3.org/TR/2001/REC-SVG-20010904/DTD/svg10.dtd">
<svg version="1.0" xmlns="http://www.w3.org/2000/svg"
 width="1600.000000pt" height="720.000000pt" viewBox="0 0 1600.000000 720.000000"
 preserveAspectRatio="xMidYMid meet">
<metadata>
Created by potrace 1.16, written by Peter Selinger 2001-2019
</metadata>
<g transform="translate(0.000000,720.000000) scale(0.100000,-0.100000)"
fill="#000000" stroke="none">
<path d="M345 7183 c5 -10 10 -62 13 -115 4 -90 3 -97 -17 -110 -11 -7 -21
-17 -21 -23 0 -13 -48 -35 -76 -35 -13 0 -26 -4 -29 -10 -8 -13 -69 -13 -93
-1 -26 14 -111 51 -117 51 -3 0 -5 -1249 -5 -2775 0 -2460 2 -2775 15 -2775 8
0 15 5 15 10 0 16 33 11 58 -8 l23 -18 -24 -22 c-25 -23 -60 -21 -51 3 4 10
-1 12 -15 8 -19 -5 -21 -13 -21 -82 0 -47 5 -82 12 -89 9 -9 9 -12 0 -12 -9 0
-12 -138 -12 -590 l0 -590 2228 3 2227 2 -3 41 c-1 23 5 60 13 83 9 27 12 58
8 86 -5 41 8 142 28 210 4 17 11 42 13 56 6 26 41 49 76 49 17 0 20 -7 18 -43
0 -23 -6 -45 -11 -49 -7 -4 -6 -12 2 -22 11 -13 17 -14 28 -4 12 10 18 9 29
-7 16 -21 28 -16 18 9 -3 9 -15 16 -25 16 -22 0 -24 11 -6 28 6 7 12 16 13 20
13 85 38 107 131 115 77 8 198 38 258 66 22 10 52 23 68 30 15 6 27 15 27 21
0 5 10 10 23 10 13 0 47 12 76 26 57 29 88 22 51 -11 -24 -22 -25 -29 -4 -50
15 -15 13 -15 -33 -9 -31 4 -58 2 -72 -5 -22 -12 -29 -31 -11 -31 5 0 44 -17
85 -37 53 -25 75 -41 73 -52 -3 -14 -22 -16 -128 -14 -69 1 -153 6 -187 11
-66 9 -101 0 -73 -18 8 -6 24 -9 35 -8 30 2 105 -13 105 -22 0 -4 -19 -11 -43
-15 -38 -8 -31 -10 73 -21 131 -14 120 -12 120 -22 0 -17 -61 -42 -126 -51
-49 -7 -74 -16 -86 -31 -9 -11 -22 -20 -30 -20 -7 0 -19 -9 -25 -19 -11 -17
-9 -23 16 -40 16 -12 38 -41 50 -65 23 -50 36 -62 54 -48 7 5 38 12 71 15 67
7 88 22 106 77 7 22 17 40 23 40 5 0 7 6 4 14 -3 8 5 29 19 47 21 29 24 30 24
11 0 -12 -14 -52 -31 -89 -17 -38 -32 -79 -33 -93 0 -13 -10 -34 -21 -46 -28
-30 -65 -102 -65 -126 0 -18 2 -19 17 -7 13 11 17 11 20 2 3 -9 34 -13 109
-13 l104 0 -1 53 c0 28 -4 75 -9 102 -23 146 -31 208 -26 212 3 3 7 0 10 -8 2
-8 13 -44 25 -80 16 -50 21 -91 21 -172 l0 -107 31 0 c26 0 31 3 26 20 -3 11
-1 20 4 20 5 0 9 7 9 15 0 8 9 15 20 15 25 0 26 22 1 44 -18 16 -39 91 -28
102 8 8 37 -8 31 -17 -10 -17 17 -39 48 -39 59 0 40 51 -29 80 -12 5 -25 20
-29 34 -5 22 -8 23 -41 14 -43 -12 -47 -8 -32 26 13 27 24 33 34 17 3 -5 18
-12 34 -16 16 -3 53 -24 82 -46 29 -21 55 -39 58 -39 3 0 7 12 7 26 2 18 -2
24 -12 20 -7 -3 -16 -1 -19 4 -4 6 -1 10 5 10 6 0 8 5 4 11 -3 6 -17 8 -31 4
-21 -5 -24 -3 -19 10 3 9 6 23 6 30 0 23 38 27 90 10 70 -23 84 -13 29 20 -25
16 -51 36 -57 45 -9 16 -5 17 46 18 36 0 79 -7 115 -21 l58 -22 -4 -165 c-3
-91 -8 -180 -12 -198 l-7 -32 61 0 61 0 1 118 c1 284 6 374 19 382 6 4 10 16
6 26 -3 11 4 53 15 94 14 48 22 112 24 177 2 56 6 106 9 112 13 21 96 -29 96
-57 0 -9 7 -24 17 -34 9 -11 11 -18 5 -18 -18 0 -14 -35 7 -58 25 -30 42 -27
40 5 -2 35 18 109 38 139 14 21 13 26 -5 49 -12 15 -22 21 -24 13 -7 -20 -29
2 -50 48 -15 35 -30 50 -68 69 -54 28 -64 51 -58 135 3 42 5 45 33 48 42 3 90
-29 125 -85 25 -39 30 -57 30 -111 0 -49 5 -70 20 -89 25 -32 25 -58 1 -109
-13 -27 -22 -73 -26 -139 -3 -55 -11 -140 -16 -190 -5 -49 -14 -175 -19 -280
-6 -104 -13 -202 -16 -218 l-6 -27 916 0 c776 0 916 2 916 14 0 23 28 27 35 5
6 -18 16 -19 150 -19 l143 0 7 38 c12 74 14 318 4 762 -5 270 -5 457 0 475 15
49 15 43 19 -742 l2 -533 406 0 c397 0 406 0 411 20 3 11 9 20 13 20 5 0 12
-9 15 -20 6 -20 15 -20 3391 -20 l3384 0 0 3600 0 3600 -2103 0 -2102 0 -10
-22 c-9 -22 -17 -23 -123 -26 -114 -3 -152 6 -152 33 0 13 -63 15 -463 15
-349 0 -466 -3 -475 -12 -19 -19 -237 -21 -253 -2 -10 12 -610 14 -4285 14
-3007 0 -4275 -3 -4279 -11 -4 -5 -1 -18 7 -27 29 -37 38 -64 38 -116 0 -96
-69 -154 -188 -158 -26 -1 -47 4 -51 11 -5 7 -12 13 -17 13 -40 4 -61 27 -47
51 4 7 0 7 -9 -1 -11 -9 -18 -10 -23 -2 -3 5 -1 10 4 10 6 0 11 8 11 18 0 14
-2 15 -10 2 -7 -12 -10 -11 -15 5 -3 11 -13 33 -21 48 -20 40 -18 84 7 123
l21 34 -562 0 c-532 0 -562 -1 -555 -17z m6505 -298 c102 -3 235 -10 295 -15
61 -6 135 -12 165 -14 30 -2 0 -2 -67 -2 -118 2 -122 1 -119 -19 2 -11 1 -14
-1 -7 -3 6 -18 12 -34 12 -16 0 -29 4 -29 9 0 13 -65 23 -105 15 -35 -6 -50
-33 -18 -30 12 0 19 -7 21 -21 2 -13 7 -23 12 -23 5 0 16 -8 26 -17 14 -15 34
-18 106 -17 48 1 88 -3 88 -7 0 -5 11 -9 25 -9 14 0 25 5 25 10 0 6 9 10 20
10 11 0 20 4 20 8 0 5 11 14 24 20 21 10 26 8 31 -8 4 -11 11 -20 16 -20 6 0
7 -4 4 -10 -3 -6 4 -10 17 -10 13 0 30 -9 38 -20 10 -14 16 -16 21 -8 6 9 24
7 72 -10 36 -12 72 -22 81 -22 9 0 16 -4 16 -10 0 -5 5 -10 10 -10 6 0 10 7
10 15 0 8 10 17 23 20 27 7 149 1 163 -8 9 -5 451 -13 492 -8 22 2 12 26 -23
54 -20 16 -33 32 -30 37 8 13 -52 28 -150 35 -49 4 -124 11 -165 15 -109 10
402 1 550 -10 69 -5 253 -16 410 -25 157 -8 344 -19 415 -24 91 -6 132 -6 137
2 5 8 15 7 35 -2 29 -13 57 -15 337 -27 93 -3 163 -9 155 -13 -8 -4 -66 -4
-129 0 -119 8 -310 9 -252 2 55 -7 25 -23 -44 -23 -63 0 -64 0 -60 25 3 17 0
25 -9 25 -19 0 -28 -17 -13 -23 8 -4 7 -6 -4 -6 -9 -1 -20 4 -23 9 -4 6 -58
10 -128 10 -67 0 -129 4 -137 10 -9 6 -19 5 -28 -2 -10 -9 -16 -8 -22 2 -9 15
-25 7 -25 -13 0 -17 -19 -18 -40 -2 -20 15 -20 15 0 9 16 -5 17 -4 5 5 -8 6
-23 11 -33 11 -14 0 -17 -5 -12 -20 8 -24 -3 -26 -20 -3 -11 15 -31 17 -146
15 -96 -2 -130 0 -119 8 11 8 7 9 -15 3 -16 -4 -61 -7 -100 -6 -46 1 -64 -1
-55 -7 10 -6 11 -10 3 -10 -33 0 44 -89 78 -90 9 0 19 -3 23 -7 4 -5 78 -8
164 -8 182 0 242 -12 242 -48 0 -29 -19 -54 -45 -59 -14 -3 -20 -11 -20 -31 1
-20 -4 -27 -18 -27 -27 0 -57 -19 -57 -35 0 -8 -5 -15 -11 -15 -6 0 -8 -9 -4
-20 4 -14 1 -22 -12 -27 -10 -4 -26 -16 -35 -28 -13 -16 -19 -17 -29 -8 -9 9
-17 9 -33 1 -11 -6 -62 -11 -113 -11 -52 0 -96 -4 -99 -8 -3 -5 -12 -9 -19 -9
-8 0 -29 -14 -46 -31 -26 -26 -28 -30 -11 -24 15 4 22 2 22 -7 0 -21 -68 -10
-80 13 -6 10 -8 30 -4 44 4 15 2 25 -5 25 -6 0 -11 15 -11 34 0 32 -1 34 -47
39 -26 3 -56 2 -67 -3 -19 -7 -18 -8 11 -24 18 -9 38 -16 46 -16 8 0 17 -11
19 -25 4 -21 1 -25 -18 -25 -51 0 -76 -111 -27 -118 19 -3 23 3 29 37 4 23 10
41 14 41 5 0 15 2 22 5 9 4 19 -4 26 -20 19 -41 15 -55 -15 -56 -20 -1 -14 -4
20 -11 48 -10 59 -21 32 -32 -8 -3 -15 -12 -15 -20 0 -15 -63 -29 -68 -15 -2
5 -14 9 -27 9 -24 0 -42 -30 -31 -49 3 -5 -1 -14 -9 -21 -12 -10 -16 -9 -21 4
-3 9 -10 16 -16 16 -10 0 -38 25 -38 34 0 2 10 7 23 9 19 4 19 4 -5 6 -15 0
-30 -4 -33 -9 -12 -20 -25 2 -25 41 0 49 -21 77 -40 54 -7 -8 -19 -15 -26 -15
-8 0 -14 -7 -14 -15 0 -8 -8 -15 -18 -15 -28 0 -52 -32 -45 -58 3 -12 12 -22
19 -22 19 0 18 -26 -2 -34 -39 -15 -67 -7 -107 30 -9 9 -16 7 -29 -8 -16 -19
-17 -19 -27 1 -6 11 -11 33 -11 50 0 26 -4 31 -24 31 -19 0 -25 -6 -28 -27 -2
-23 -8 -29 -35 -31 -25 -2 -33 1 -33 12 0 9 -4 17 -10 18 -31 4 -35 1 -35 -27
0 -24 -4 -29 -20 -27 -11 2 -23 9 -27 15 -8 14 11 39 23 31 5 -3 9 0 9 7 0 8
-13 10 -42 6 -46 -6 -98 1 -98 13 0 5 18 11 40 15 l40 7 0 50 c0 52 22 93 34
62 3 -9 6 -31 6 -50 0 -27 4 -34 20 -34 17 0 20 7 20 40 0 25 5 40 13 41 6 0
2 5 -10 11 -21 10 -23 18 -23 80 0 39 4 68 10 68 6 0 10 14 10 30 0 28 -2 30
-40 30 -22 0 -49 -6 -61 -12 -18 -11 -23 -9 -45 16 -18 20 -28 26 -36 18 -13
-13 -3 -55 17 -76 8 -8 15 -26 15 -40 0 -24 -4 -26 -40 -26 -22 0 -40 5 -40
10 0 6 5 10 10 10 7 0 7 6 0 20 -6 11 -17 20 -25 20 -19 0 -19 8 -1 25 22 23
29 83 12 101 -14 13 -16 12 -20 -8 -3 -13 -7 -34 -8 -47 -3 -22 -7 -24 -77
-25 -47 -1 -76 -6 -78 -13 -3 -9 -12 -9 -29 -2 -19 7 -31 5 -47 -6 -12 -8 -29
-15 -37 -15 -11 0 -15 -8 -14 -27 2 -45 3 -48 16 -35 18 18 28 15 28 -8 0 -11
7 -20 15 -20 8 0 15 -4 15 -10 0 -13 -36 -13 -60 0 -13 7 -21 6 -30 -5 -19
-23 11 -46 49 -39 24 5 31 3 31 -10 0 -12 10 -16 40 -16 22 0 40 -4 40 -10 0
-5 -7 -10 -15 -10 -15 0 -18 -9 -33 -105 l-9 -60 -2 78 c-1 83 -12 107 -50
107 -12 0 -21 -6 -21 -12 0 -7 -3 -23 -6 -35 -5 -20 -2 -23 20 -23 42 0 33
-28 -11 -32 -32 -3 -38 -7 -45 -35 -7 -28 -13 -33 -38 -33 -19 0 -30 -5 -30
-14 0 -19 -52 -38 -84 -30 -17 4 -35 1 -51 -10 -14 -9 -25 -12 -25 -6 0 5 -9
10 -20 10 -11 0 -20 -4 -20 -9 0 -5 -16 -12 -35 -15 -19 -4 -35 -13 -35 -19 0
-8 -15 -14 -37 -15 -51 -3 -76 -12 -90 -31 -11 -14 -13 -14 -19 7 -8 26 -26
28 -50 5 -16 -17 -16 -18 -1 -21 19 -4 43 -80 30 -92 -4 -5 -16 -10 -26 -12
-26 -4 -22 -22 5 -26 39 -5 108 -33 108 -44 0 -6 -8 -17 -17 -25 -15 -12 -16
-14 -2 -10 20 7 39 -11 39 -35 0 -14 8 -18 34 -18 19 0 37 -6 39 -12 4 -10 7
-10 15 0 6 9 12 6 21 -14 10 -22 9 -29 -1 -35 -6 -4 -16 -5 -20 -3 -5 3 -16
-2 -25 -11 -14 -14 -14 -18 -2 -26 11 -7 11 -11 2 -17 -10 -6 -10 -17 -3 -42
13 -44 13 -60 0 -60 -5 0 -10 9 -10 20 0 11 -3 19 -7 19 -33 -5 -53 3 -53 21
0 16 -7 20 -30 20 -23 0 -30 4 -30 20 0 17 -7 20 -40 20 -22 0 -40 -4 -40 -10
0 -5 -18 -10 -40 -10 -22 0 -40 5 -40 10 0 6 -9 10 -20 10 -11 0 -20 7 -20 15
0 9 -12 18 -30 22 -21 4 -30 12 -32 27 0 11 -4 1 -7 -23 -3 -25 -12 -46 -18
-49 -10 -3 -13 16 -13 72 l0 76 -27 0 c-38 0 -88 -61 -79 -96 5 -19 3 -24 -14
-24 -17 0 -20 -7 -20 -40 0 -22 5 -40 10 -40 6 0 10 -12 10 -27 0 -28 20 -71
20 -45 0 6 11 12 25 12 20 0 26 -7 35 -40 6 -24 17 -40 25 -40 8 0 15 5 15 10
0 6 7 10 15 10 8 0 15 -7 15 -16 0 -8 6 -21 13 -28 17 -18 64 3 59 27 -2 10 3
17 13 17 31 0 55 -20 55 -47 l0 -26 102 5 c64 3 103 9 106 17 2 6 12 11 23 11
10 0 19 4 19 9 0 11 -55 22 -75 15 -8 -4 -15 -1 -15 5 0 6 19 11 45 11 25 0
45 5 45 10 0 6 -7 10 -15 10 -8 0 -15 9 -15 20 0 11 4 20 9 20 21 0 82 -32 88
-45 4 -11 22 -15 69 -15 36 0 64 -4 64 -10 0 -5 19 -10 41 -10 47 0 77 -25 86
-73 3 -15 10 -30 14 -33 5 -3 7 -9 4 -14 -3 -5 7 -9 22 -9 68 -1 323 -21 373
-30 74 -13 175 -64 226 -115 31 -32 44 -54 53 -94 12 -56 16 -412 5 -456 -5
-20 -3 -26 7 -24 9 2 15 -8 17 -24 2 -16 9 -28 18 -28 8 0 14 -6 14 -12 0 -9
4 -8 10 2 16 25 13 120 -4 120 -8 0 -18 14 -21 32 -6 26 -3 35 14 49 17 14 21
30 23 85 2 38 -1 86 -5 107 -6 30 -5 37 8 37 19 0 19 14 0 34 -19 18 -19 75 0
100 8 10 19 43 25 73 7 33 19 58 31 66 10 6 19 20 19 29 0 14 8 18 35 18 38 0
44 10 19 35 -15 15 -14 17 15 28 17 6 31 17 31 24 0 7 9 13 20 13 12 0 20 -7
20 -16 0 -14 8 -16 50 -11 29 4 50 2 50 -3 0 -6 14 -10 30 -10 17 0 30 -4 30
-10 0 -5 5 -10 11 -10 6 0 24 -13 39 -30 27 -29 31 -30 112 -29 45 1 72 3 58
6 -97 15 -88 25 24 29 76 3 86 1 91 -16 10 -30 71 -41 217 -39 150 2 308 -8
353 -22 17 -6 77 -13 135 -16 60 -3 108 -11 112 -17 4 -6 13 -20 21 -31 15
-20 15 -20 34 1 10 12 35 24 55 28 21 4 43 13 50 20 7 7 26 16 41 20 15 3 27
12 27 20 0 22 128 29 159 9 18 -11 26 -13 29 -5 5 17 57 15 72 -3 7 -9 27 -14
51 -13 31 1 37 4 28 15 -9 10 -8 13 4 13 9 0 18 -4 22 -9 3 -6 18 -6 38 0 42
12 124 12 132 -1 3 -5 16 -10 29 -10 12 0 31 -7 42 -16 17 -14 12 -15 -68 -9
-59 4 -88 3 -88 -4 0 -10 94 -15 233 -14 20 0 37 -3 37 -7 0 -4 28 -10 63 -14
129 -13 184 -24 247 -50 35 -15 75 -28 88 -31 13 -2 31 -10 40 -17 9 -7 23
-17 31 -23 7 -5 26 -23 42 -38 15 -15 40 -30 56 -32 15 -2 38 -7 51 -11 16 -5
22 -2 22 10 0 9 -4 16 -10 16 -6 0 -10 27 -10 60 l0 60 60 0 c45 0 60 4 60 14
0 8 7 17 16 20 8 3 12 10 9 16 -8 13 -62 13 -70 0 -3 -6 -17 -10 -31 -10 -13
0 -24 -4 -24 -10 0 -5 -18 -10 -39 -10 -55 0 -75 -9 -60 -26 18 -22 3 -46 -28
-42 -23 2 -29 9 -31 33 -1 17 -5 41 -8 54 -4 20 -7 22 -15 10 -8 -11 -12 -11
-16 -1 -2 7 -22 12 -44 12 -21 0 -39 3 -39 6 0 13 38 38 90 58 8 4 0 4 -17 1
-25 -3 -33 -1 -33 11 0 10 -6 13 -19 9 -35 -11 -46 20 -42 119 1 50 7 93 12
94 5 2 9 10 9 18 0 8 6 14 13 15 10 0 10 2 0 6 -7 2 -13 22 -13 43 0 21 6 41
13 44 10 5 10 7 0 12 -7 3 -13 23 -13 44 0 30 -5 40 -20 45 -21 7 -28 25 -10
25 6 0 10 16 10 35 0 19 -4 35 -10 35 -5 0 -10 9 -10 20 0 11 4 20 9 20 14 0
22 62 10 76 -6 8 -9 27 -7 44 4 30 1 33 -34 33 -10 0 -18 3 -18 7 0 11 49 30
64 24 8 -3 17 -1 21 5 3 6 1 11 -4 11 -6 0 -10 6 -8 12 1 8 -8 12 -25 10 -16
-2 -28 1 -28 6 0 14 25 21 40 12 23 -14 33 1 15 20 -17 19 -17 41 1 143 5 33
4 37 -15 37 -12 0 -21 5 -21 10 0 6 9 10 20 10 11 0 20 5 20 10 0 6 23 10 50
10 54 0 56 3 41 58 -9 29 -7 33 14 38 13 3 28 3 33 0 6 -3 8 2 5 14 -3 10 -14
22 -24 25 -10 4 -19 10 -19 15 0 4 -16 11 -36 15 -28 5 -41 2 -58 -13 -15 -14
-31 -18 -58 -15 -35 5 -38 8 -39 37 0 30 -1 30 -11 8 -6 -12 -16 -21 -22 -20
-30 5 -94 -15 -98 -30 -3 -9 -18 -24 -34 -31 -16 -8 -44 -26 -62 -39 -20 -14
-41 -22 -53 -19 -11 3 -34 1 -51 -3 -31 -9 -58 5 -58 29 0 6 -5 11 -12 11 -7
0 3 15 20 33 20 21 30 40 27 49 -5 12 6 16 54 21 33 3 72 12 88 20 15 9 40 18
54 21 15 3 29 14 32 26 3 11 12 20 21 20 10 0 16 9 16 25 0 14 5 25 10 25 6 0
10 -4 10 -10 0 -14 23 -12 56 5 16 8 37 15 47 15 9 0 17 7 17 15 0 8 -4 15
-10 15 -5 0 -10 6 -10 14 0 9 -18 16 -50 20 -75 10 -64 29 13 22 63 -6 343
-21 587 -31 74 -3 209 -10 300 -15 91 -6 202 -10 248 -10 l82 0 2 -522 c1
-288 2 -671 3 -853 0 -181 5 -679 9 -1105 l9 -775 -74 -1 c-186 -3 -173 -1
-185 -36 -6 -18 -14 -41 -18 -50 -6 -12 -2 -17 14 -20 27 -4 30 -22 4 -26 -10
-2 -30 -15 -43 -30 -13 -15 -20 -20 -15 -12 9 16 19 70 34 182 5 38 12 72 15
78 3 5 -6 22 -20 36 -21 21 -26 33 -21 55 3 18 1 29 -9 33 -18 7 -20 37 -3 54
12 12 11 13 -32 15 -18 2 -30 12 -43 40 -13 25 -25 37 -39 37 -23 0 -47 26
-48 51 0 29 -92 34 -126 7 -7 -5 -43 -11 -80 -15 -45 -3 -85 -14 -116 -31 -26
-13 -54 -22 -62 -19 -10 4 -16 1 -16 -7 0 -15 -51 -10 -61 6 -3 5 -13 6 -22 2
-18 -7 -24 -64 -7 -64 6 0 10 -4 10 -10 0 -5 -7 -10 -15 -10 -8 0 -12 -6 -9
-14 3 -7 -8 -33 -25 -57 -16 -24 -27 -47 -24 -52 3 -4 2 -15 -1 -24 -5 -13 -9
-13 -22 -2 -12 10 -14 23 -10 50 4 24 2 40 -5 45 -8 5 -6 10 6 17 12 6 20 5
26 -4 5 -9 10 -5 15 15 7 30 -13 79 -29 69 -5 -3 -5 -8 2 -12 6 -4 -5 -13 -25
-20 -19 -7 -38 -10 -41 -7 -3 3 -27 -5 -52 -19 -50 -26 -146 -44 -281 -52 -47
-3 -89 -9 -94 -14 -6 -5 1 -9 17 -9 36 0 34 -15 -4 -30 l-31 -13 38 -21 c22
-11 45 -20 53 -20 8 -1 16 -6 18 -13 3 -9 -33 -10 -144 -7 -405 12 -503 12
-520 -2 -28 -20 -4 -35 63 -38 33 -2 72 -8 89 -15 16 -7 81 -14 145 -16 228
-9 276 -13 320 -29 25 -9 57 -18 73 -21 55 -11 27 -26 -50 -27 -114 0 -314 -4
-345 -6 -17 -1 -28 -8 -28 -16 0 -8 -7 -17 -16 -20 -21 -8 -56 2 -49 14 7 12
-8 20 -37 20 -21 1 -352 3 -426 3 -19 0 -38 -6 -43 -14 -11 -16 -2 -82 12 -87
34 -13 -19 -36 -105 -46 -27 -3 -59 -13 -71 -20 -34 -23 -133 4 -162 43 -6 9
-14 13 -18 9 -3 -3 4 -17 17 -29 13 -13 56 -60 95 -104 39 -44 88 -90 109
-101 29 -15 39 -26 38 -43 0 -14 12 -37 30 -55 17 -17 62 -66 99 -108 37 -42
81 -81 96 -88 24 -10 35 -22 59 -72 8 -18 -20 -6 -50 21 -18 16 -42 30 -53 32
-11 3 -21 13 -23 24 -2 11 -34 52 -71 91 -167 180 -251 270 -320 342 -78 82
-151 174 -151 192 0 5 -6 10 -14 10 -7 0 -34 21 -58 48 -25 26 -110 116 -188
200 -141 150 -206 208 -167 149 9 -15 17 -30 17 -34 0 -4 53 -62 116 -128 64
-66 132 -140 152 -165 20 -25 70 -80 111 -122 41 -43 79 -86 85 -95 5 -10 22
-31 38 -47 15 -17 28 -33 28 -38 0 -4 7 -8 15 -8 8 0 15 -4 15 -9 0 -15 -18
-23 -25 -11 -3 5 -11 10 -17 10 -7 0 -6 -5 2 -15 6 -8 21 -13 33 -12 14 1 25
-7 35 -25 7 -16 17 -28 23 -28 5 0 9 -10 8 -22 l0 -23 -9 23 c-5 12 -14 22
-20 22 -5 0 -10 7 -10 15 0 8 -7 15 -15 15 -8 0 -15 -4 -15 -10 0 -31 -123 11
-154 53 -11 14 -24 23 -31 21 -6 -3 -22 6 -35 18 -14 13 -28 22 -33 20 -4 -1
-21 5 -38 14 l-31 15 7 70 c7 65 6 69 -13 69 -29 0 -53 11 -46 21 3 5 23 9 45
9 24 0 39 5 40 13 0 6 5 1 11 -13 10 -22 12 -23 16 -6 6 27 -15 36 -90 36 -37
0 -69 4 -72 8 -2 4 -104 7 -225 7 -122 -1 -221 2 -221 6 0 9 -119 8 -125 -1
-2 -3 -37 -3 -77 2 -40 4 -79 6 -85 3 -7 -2 -13 0 -13 5 0 4 -35 8 -77 6 -43
-1 -148 2 -233 7 -85 4 -200 7 -255 6 -55 0 -104 0 -110 0 -87 6 -384 15 -497
14 -85 0 -148 3 -148 9 0 5 -24 9 -52 8 -140 -1 -242 12 -200 27 18 7 15 53
-3 53 -8 0 -15 7 -15 16 0 11 6 15 18 12 15 -4 18 3 19 51 1 31 10 79 20 106
10 29 17 69 15 95 l-4 45 -14 -33 c-7 -18 -17 -63 -20 -100 -9 -88 -8 -84 -23
-111 -7 -13 -16 -50 -18 -82 -5 -47 -8 -56 -22 -51 -11 4 -10 -3 8 -29 12 -19
25 -42 28 -51 3 -10 9 -18 13 -18 5 0 10 -10 12 -22 3 -21 7 -22 101 -19 100
2 127 -5 127 -36 0 -8 -4 -12 -9 -9 -5 4 -11 1 -13 -5 -3 -9 -10 -9 -26 0 -17
9 -36 9 -84 -1 -49 -10 -62 -10 -66 0 -8 24 -19 2 -14 -29 3 -22 29 -56 89
-119 46 -49 99 -98 116 -110 20 -13 41 -41 52 -69 10 -25 25 -52 32 -59 7 -7
13 -21 13 -30 -1 -26 -37 25 -51 70 -7 21 -16 35 -21 32 -10 -6 -208 184 -208
199 0 5 -9 16 -20 25 -14 12 -23 39 -32 97 -6 44 -17 87 -25 96 -7 8 -13 21
-13 27 0 7 -7 12 -15 12 -8 0 -15 6 -15 14 0 8 -13 30 -30 48 -36 39 -39 65
-8 64 15 -1 23 7 29 28 5 16 12 32 17 35 17 11 42 70 42 98 0 15 -4 24 -8 18
-25 -35 -97 -45 -145 -20 -28 14 -57 11 -57 -6 0 -6 -9 -5 -20 1 -11 6 -25 8
-30 5 -11 -7 -138 14 -160 26 -10 5 -11 8 -2 9 14 0 17 30 2 30 -5 0 -10 5
-10 11 0 6 9 8 20 4 40 -13 14 35 -35 64 -61 36 -66 82 -11 119 28 19 37 20
66 11 19 -6 42 -12 50 -13 50 -6 95 -79 85 -136 -6 -34 -4 -40 11 -40 9 0 14
-3 11 -7 -7 -7 38 -33 58 -33 7 0 15 9 18 19 3 13 17 22 41 26 42 8 51 19 48
56 -2 18 8 38 27 60 17 18 31 41 33 51 4 26 21 25 36 -3 11 -20 12 -9 6 76 -8
119 -21 160 -64 204 -50 50 -189 91 -227 68 -13 -8 -58 7 -68 23 -3 5 -11 7
-18 3 -6 -4 -20 -8 -31 -9 -78 -9 -107 -19 -132 -45 -15 -16 -36 -29 -46 -29
-20 0 -20 0 -24 -47 -1 -17 -7 -56 -14 -87 -6 -31 -9 -59 -7 -64 3 -4 7 -54 8
-112 2 -78 0 -105 -10 -108 -7 -2 -17 2 -22 9 -12 19 -18 8 -25 -43 -6 -42 -4
-48 30 -84 20 -21 36 -43 36 -49 0 -27 -14 -55 -26 -55 -12 0 -54 76 -54 99 0
5 -4 12 -8 15 -9 5 -150 -27 -193 -45 -21 -8 -33 -6 -60 10 -74 45 -205 19
-230 -47 -16 -39 -6 -132 14 -144 29 -16 19 -24 -40 -37 -32 -7 -66 -17 -75
-22 -20 -10 -37 -18 -89 -43 -20 -10 -58 -35 -84 -57 -55 -45 -69 -49 -63 -14
6 28 -3 32 -22 10 -14 -17 -40 -20 -40 -4 0 7 -37 10 -112 9 -62 -1 -133 -1
-158 0 -25 1 -56 -2 -69 -6 -23 -7 -24 -6 -17 32 4 21 17 53 29 71 20 29 22
30 37 15 40 -44 81 -52 130 -24 29 16 31 16 41 0 12 -22 45 -23 65 -3 22 22
43 18 56 -10 14 -30 29 -32 53 -5 10 11 24 20 32 20 14 0 18 -31 6 -44 -4 -3
-8 -13 -9 -21 -2 -11 2 -12 16 -5 10 5 20 13 22 17 3 7 49 31 128 67 50 22 98
79 53 61 -10 -3 -132 -8 -270 -11 -219 -4 -253 -2 -253 11 0 19 -29 8 -52 -20
-14 -16 -17 -17 -18 -4 0 9 44 79 98 155 53 77 106 153 116 169 11 16 23 34
28 40 26 31 119 190 135 230 17 43 16 65 -2 32 -8 -15 -59 -87 -113 -160 -54
-73 -112 -155 -130 -184 -31 -48 -62 -83 -62 -69 0 6 56 98 89 146 9 14 23 52
30 85 23 102 66 251 96 328 4 9 3 17 -2 17 -5 0 -15 -21 -22 -47 -8 -27 -21
-64 -29 -83 -9 -19 -23 -52 -31 -72 -9 -21 -19 -38 -23 -38 -17 0 -30 330 -13
342 7 5 6 8 -1 8 -7 0 -9 11 -6 25 2 14 9 25 14 25 6 0 8 15 5 38 -3 20 -2
133 1 250 5 138 4 213 -3 215 -6 2 -4 11 4 20 7 9 11 24 7 32 -3 8 3 31 14 51
11 19 18 40 14 45 -6 11 -48 -53 -110 -169 -19 -37 -44 -82 -54 -99 -11 -18
-34 -61 -52 -95 -17 -35 -41 -79 -53 -98 -12 -19 -48 -86 -81 -148 -32 -62
-65 -123 -71 -135 -14 -24 -16 -167 -3 -207 7 -23 8 -23 10 10 1 19 1 65 0
102 -1 39 4 76 11 90 7 12 14 25 14 28 1 11 28 56 43 73 12 14 17 15 25 5 6
-9 7 -4 4 15 -2 15 0 27 5 27 5 0 6 5 3 10 -3 6 2 22 13 38 11 15 22 34 26 42
9 23 -1 -49 -15 -100 -6 -25 -11 -62 -11 -82 0 -32 -3 -37 -22 -35 -21 2 -21
1 -24 -238 -1 -132 -3 -256 -3 -277 -1 -34 -4 -37 -37 -43 -20 -4 -40 -9 -44
-11 -11 -7 3 -34 17 -34 24 0 24 -14 -1 -45 -24 -29 -25 -29 -39 -11 -12 16
-15 16 -15 4 0 -8 9 -23 20 -33 18 -16 22 -16 42 -3 16 11 40 14 81 10 53 -4
57 -3 57 17 0 14 -6 21 -20 21 -16 0 -20 7 -20 30 0 23 4 30 20 30 11 0 20 5
20 10 0 6 7 10 15 10 8 0 15 -9 15 -20 0 -11 7 -20 15 -20 8 0 15 9 15 20 0
11 5 20 10 20 6 0 10 -9 10 -20 0 -22 18 -28 25 -7 2 6 6 29 10 50 5 32 8 35
20 24 14 -15 9 -61 -6 -51 -5 3 -6 -3 -2 -12 4 -10 0 -22 -10 -29 -9 -6 -18
-24 -21 -39 -3 -15 -9 -33 -14 -39 -5 -7 -14 -31 -21 -54 -6 -23 -17 -48 -24
-55 -20 -22 -70 -90 -112 -151 -41 -60 -69 -85 -80 -68 -3 6 -13 10 -23 10
-31 0 -77 14 -85 25 -5 8 -11 6 -20 -6 -14 -18 -63 -21 -267 -13 -128 4 -164
11 -154 26 4 7 -1 7 -15 0 -16 -9 -21 -9 -21 1 0 8 -5 6 -11 -4 -18 -33 -89
-20 -90 16 0 21 0 21 -11 -1 -11 -22 -58 -33 -58 -14 0 5 -15 4 -35 -2 -25 -7
-42 -7 -60 1 -32 15 -65 15 -65 2 0 -10 -244 -8 -835 6 -143 3 -300 6 -350 5
-49 -1 -103 2 -120 7 -27 8 -32 6 -47 -22 l-17 -31 0 75 c-1 41 4 158 9 260 5
102 14 343 20 535 5 193 14 460 19 595 6 135 13 364 18 510 l7 265 8 -130 c10
-174 14 -194 43 -207 34 -15 38 -43 8 -57 -27 -12 -64 -15 -47 -3 7 5 6 19 -2
47 -11 34 -12 9 -9 -165 2 -113 4 -211 4 -217 1 -7 11 -14 24 -14 l22 -2 -22
-4 c-15 -3 -23 -12 -23 -24 0 -10 -5 -19 -11 -19 -7 0 -8 -31 -4 -97 8 -106
15 -133 16 -62 1 58 17 23 18 -38 1 -45 15 -57 26 -23 8 24 21 25 42 5 18 -19
10 -65 -12 -65 -8 0 -15 -9 -15 -20 0 -11 5 -20 10 -20 6 0 10 -26 10 -59 0
-49 -3 -59 -19 -64 -22 -5 -38 -97 -22 -125 6 -9 11 -12 11 -4 0 21 30 13 30
-8 0 -16 7 -20 30 -20 28 0 30 2 30 40 0 38 -2 40 -30 40 -23 0 -30 4 -30 20
0 13 7 20 20 20 18 0 20 7 20 60 0 53 2 60 20 60 11 0 20 -6 20 -12 0 -9 4 -8
10 2 5 8 10 41 10 73 0 31 5 57 10 57 6 0 10 -4 10 -10 0 -5 9 -10 20 -10 11
0 20 5 20 10 0 6 -4 10 -10 10 -5 0 -10 9 -10 21 0 16 -4 19 -22 14 -18 -5
-20 -4 -8 4 10 7 11 11 3 11 -7 0 -13 7 -13 15 0 8 6 15 14 15 7 0 19 7 26 15
7 8 15 13 19 10 4 -2 46 -5 94 -6 74 -2 88 -5 93 -21 5 -16 8 -15 30 7 24 24
29 25 107 19 45 -4 84 -6 87 -6 56 0 60 3 76 42 15 38 18 40 34 25 10 -9 21
-12 24 -7 3 5 -1 15 -9 22 -8 7 -15 20 -15 29 0 9 -5 22 -10 27 -7 7 -4 16 10
29 11 10 20 26 20 37 0 12 7 18 22 18 29 0 16 11 -22 19 -37 7 -41 24 -8 31
40 10 68 -11 69 -50 2 -52 13 -85 29 -85 10 0 15 10 14 30 0 36 16 56 43 49
11 -3 25 1 32 10 19 23 31 20 31 -9 0 -22 3 -25 24 -19 13 3 27 1 30 -5 4 -6
0 -11 -9 -11 -9 0 -13 -4 -10 -10 3 -5 2 -10 -4 -10 -5 0 -12 6 -14 13 -3 6
-6 1 -6 -12 -1 -18 3 -22 17 -16 42 17 55 17 68 1 9 -12 19 -16 34 -11 16 5
19 10 11 18 -14 14 -15 40 -1 32 6 -3 10 -1 10 4 0 6 5 11 11 11 8 0 7 -5 -1
-15 -17 -20 -12 -24 28 -18 26 4 32 10 32 29 0 13 -4 24 -9 24 -13 0 -71 106
-71 129 0 10 -7 21 -15 25 -8 3 -15 13 -15 22 0 44 -48 161 -100 244 -19 30
-33 58 -32 63 1 4 -9 7 -23 7 -22 0 -25 4 -25 33 0 45 38 61 122 52 165 -17
400 -20 498 -6 37 5 69 5 74 0 6 -5 20 -9 33 -9 31 0 73 -21 73 -37 0 -7 -7
-13 -15 -13 -8 0 -15 -2 -15 -4 0 -2 26 -59 59 -127 32 -68 77 -163 99 -211
22 -49 43 -88 46 -88 8 0 -6 75 -16 78 -14 6 -9 42 7 42 8 0 15 9 15 19 0 23
16 37 22 19 3 -7 19 19 38 57 18 39 43 81 55 95 13 14 25 43 28 65 9 78 3 75
161 76 77 1 152 2 166 3 14 1 44 3 68 4 30 1 42 6 42 17 0 8 9 15 20 15 13 0
18 -5 14 -15 -7 -17 10 -21 111 -30 39 -3 90 -8 115 -11 34 -4 41 -3 30 5 -10
7 -11 11 -2 11 6 0 12 7 12 15 0 10 -7 15 -17 13 -13 -2 -17 3 -16 20 2 16 -2
22 -18 22 -15 0 -20 5 -17 23 3 19 9 22 48 22 37 0 45 4 48 20 3 11 9 23 14
26 13 9 88 -11 88 -23 0 -5 5 -6 10 -3 6 3 10 2 10 -3 0 -6 29 -8 70 -6 l70 4
0 -29 c0 -16 7 -36 15 -45 8 -8 15 -26 15 -39 0 -20 6 -27 30 -32 17 -4 30
-11 30 -16 0 -5 8 -13 17 -16 37 -15 63 -47 63 -79 0 -18 4 -36 10 -39 6 -4 5
-13 -2 -25 -10 -15 -9 -23 6 -39 11 -12 27 -21 36 -21 10 0 24 -7 31 -16 11
-14 10 -18 -6 -31 -20 -14 -30 -13 -69 2 -16 7 -17 6 -7 -13 10 -18 9 -22 -5
-22 -12 0 -15 -6 -10 -26 4 -14 2 -32 -4 -39 -8 -10 -7 -22 3 -47 13 -31 13
-36 -3 -49 -23 -19 -36 -61 -18 -57 10 2 14 -29 16 -147 2 -119 6 -157 19
-182 10 -18 22 -33 28 -34 5 0 0 -4 -12 -9 -24 -10 -29 -30 -14 -58 4 -9 11
-29 15 -44 5 -21 3 -28 -9 -28 -16 0 -19 -17 -9 -45 5 -13 8 -14 15 -3 7 10 9
10 9 1 0 -7 9 -13 20 -13 12 0 20 -7 20 -17 0 -10 4 -24 9 -32 8 -13 12 -13
26 -1 11 9 19 10 23 3 7 -10 98 -25 166 -28 16 0 31 -6 34 -13 5 -15 34 -16
50 0 7 7 12 22 12 35 0 13 7 26 15 29 9 4 13 13 10 24 -4 12 1 19 16 23 14 4
20 11 16 21 -4 9 -3 16 1 16 4 0 5 25 4 55 -3 48 -7 55 -25 56 -22 2 -21 2 1
6 22 4 22 5 23 201 1 333 1 338 -34 352 -22 9 -22 9 2 9 23 1 24 3 18 57 -4
44 -2 60 10 72 12 12 14 31 10 85 -4 60 -2 72 15 89 11 11 26 17 34 14 17 -6
44 3 44 15 0 5 -11 9 -24 9 -14 0 -28 5 -31 10 -3 6 3 10 14 10 12 0 21 5 21
11 0 5 3 8 8 6 4 -3 18 -1 31 4 19 8 22 12 12 22 -9 9 -14 9 -22 -3 -9 -12
-10 -10 -6 8 4 15 0 25 -9 29 -12 5 -11 9 5 25 12 10 21 22 21 27 0 4 10 13
23 19 12 6 16 11 10 11 -7 1 -13 12 -13 26 0 14 -5 25 -10 25 -7 0 -7 6 -1 18
11 21 17 204 7 221 -11 17 -26 3 -26 -25 0 -13 -6 -24 -12 -25 -33 -3 -63 4
-92 23 -23 14 -25 18 -8 13 18 -5 22 -2 22 14 0 17 6 21 33 21 24 0 28 3 17
10 -20 13 -67 13 -75 0 -12 -20 -33 -9 -44 21 -17 50 -14 59 22 59 l32 1 -33
29 c-18 17 -41 30 -52 30 -26 0 -26 17 0 25 11 3 20 13 20 21 0 8 4 14 8 14
13 0 32 47 32 80 0 33 19 80 32 80 4 0 8 6 8 14 0 9 -16 17 -42 22 -24 4 -37
9 -30 11 6 3 12 16 12 29 0 21 5 24 34 24 26 0 43 9 70 36 20 20 36 37 36 39
0 1 -9 5 -20 8 -11 3 -20 12 -20 21 0 10 -6 13 -15 10 -8 -4 -15 -12 -15 -20
0 -8 -7 -14 -15 -14 -8 0 -15 9 -15 20 0 11 -4 20 -10 20 -5 0 -10 5 -10 10 0
6 9 10 20 10 11 0 20 4 20 9 0 14 53 6 58 -8 2 -6 10 -11 18 -11 8 0 19 -11
24 -25 13 -33 20 -32 20 5 0 25 -4 30 -25 30 -30 0 -31 10 -5 40 11 13 23 35
26 49 10 46 13 51 29 45 11 -4 15 0 15 16 0 11 3 19 8 17 4 -3 43 1 87 8 61 9
116 10 230 2 171 -11 167 -11 258 -1 75 8 86 18 30 28 -45 8 -93 26 -93 35 0
4 -43 6 -96 6 -69 0 -97 4 -103 14 -6 10 -19 12 -42 7 -83 -17 -116 -18 -132
-2 -8 9 -22 16 -30 16 -28 0 -77 22 -77 35 0 8 17 16 43 20 58 9 219 -1 226
-14 8 -13 73 -10 83 3 4 6 30 4 65 -4 32 -8 63 -12 68 -10 6 2 54 4 107 5 56
1 103 7 111 14 8 6 27 8 46 5 30 -6 31 -6 31 30 0 20 5 36 10 36 6 0 10 5 10
11 0 6 -9 9 -20 6 -10 -3 -21 0 -22 5 -2 5 -49 12 -105 15 -57 3 -100 10 -97
14 3 5 15 7 27 5 12 -3 105 -7 207 -11z m5550 -34 c0 -12 9 -20 28 -24 52 -10
58 -13 86 -35 16 -12 33 -22 37 -22 5 0 9 -7 9 -16 0 -9 9 -31 20 -49 11 -17
22 -57 26 -88 6 -50 4 -60 -17 -89 -14 -18 -30 -46 -37 -61 -6 -15 -19 -30
-28 -34 -10 -3 -42 -21 -72 -40 -37 -22 -68 -33 -94 -33 -21 0 -38 -4 -38 -10
0 -5 -9 -10 -19 -10 -20 0 -151 118 -151 136 0 5 -5 15 -12 22 -6 6 -13 17
-15 24 -1 7 -7 33 -13 57 -6 24 -7 51 -3 60 4 9 8 36 8 61 0 33 4 45 17 48 9
2 32 18 50 35 37 34 57 45 128 69 65 22 90 22 90 -1z m-10142 -212 c-10 -7
-11 -12 0 -29 13 -22 3 -27 -16 -8 -9 9 -12 7 -12 -9 0 -11 -7 -26 -15 -33
-11 -9 -15 -27 -13 -59 2 -39 6 -46 23 -46 11 0 20 -4 20 -10 0 -5 -10 -9 -22
-7 -21 2 -23 -1 -23 -41 0 -24 -2 -66 -5 -93 -3 -36 -2 -42 4 -24 l9 25 1 -27
c1 -34 -9 -59 -20 -52 -5 3 -9 -6 -9 -20 0 -13 5 -26 11 -28 7 -2 8 -47 1
-147 -4 -79 -5 -160 -1 -180 l7 -36 1 34 c1 42 6 38 14 -11 4 -28 2 -38 -7
-38 -16 0 -26 -64 -26 -168 0 -58 -3 -73 -12 -64 -8 8 -8 118 2 454 11 397 24
680 28 606 1 -16 6 -28 11 -28 12 0 22 27 15 44 -4 10 2 12 21 8 19 -3 23 -7
13 -13z m11799 -101 c82 -30 93 -42 93 -100 0 -104 -53 -154 -197 -183 -25 -5
-33 -3 -33 8 0 7 -11 20 -25 27 -27 15 -42 55 -52 135 -6 55 3 68 75 111 48
28 68 29 139 2z m-6637 -129 c0 -5 7 -9 15 -9 8 0 15 5 15 10 0 6 12 10 26 10
25 0 26 -2 21 -42 -3 -23 -13 -45 -21 -50 -20 -11 -21 -48 -1 -48 8 0 15 6 15
13 0 8 4 7 10 -3 12 -18 3 -51 -19 -67 -24 -18 -81 -17 -81 2 0 8 -4 15 -10
15 -5 0 -10 9 -10 20 0 11 5 20 10 20 6 0 10 9 10 20 0 11 5 20 10 20 6 0 10
7 10 15 0 8 -6 15 -12 15 -25 0 -41 18 -43 47 -1 26 1 29 27 25 15 -2 28 -8
28 -13z m-3620 -319 c0 -5 -7 -10 -15 -10 -8 0 -15 -8 -15 -19 0 -10 -9 -21
-20 -24 -18 -5 -20 -10 -14 -49 4 -23 12 -46 18 -50 6 -5 1 -8 -11 -8 -25 0
-30 -14 -11 -26 6 -4 36 -6 66 -5 51 2 82 17 82 39 0 5 15 12 33 16 25 5 29 9
17 16 -8 5 -29 10 -47 10 -44 0 -63 9 -63 31 0 15 7 17 35 15 20 -2 38 -6 42
-10 16 -15 23 -3 23 40 0 43 2 46 23 40 12 -3 30 -6 40 -6 10 0 16 -4 12 -9
-3 -6 3 -18 14 -28 11 -10 22 -35 26 -55 7 -34 5 -38 -14 -38 -26 0 -27 -8 -3
-26 16 -13 15 -15 -7 -32 -28 -23 -24 -59 10 -91 16 -15 19 -26 14 -50 -4 -17
-11 -31 -16 -31 -5 0 -9 -6 -9 -14 0 -7 -10 -17 -22 -21 -24 -8 -129 -13 -122
-6 2 2 -12 15 -31 28 -21 14 -34 31 -33 41 2 13 -5 18 -29 20 -22 2 -33 9 -33
19 0 8 -9 17 -21 20 -12 3 -22 17 -26 33 -3 17 -13 30 -26 34 -26 6 -36 -7
-29 -40 3 -19 10 -24 34 -24 23 0 29 -4 24 -15 -4 -10 1 -15 14 -15 27 0 26
-39 -1 -74 -24 -31 -43 -34 -36 -6 3 10 -1 24 -9 31 -8 6 -14 17 -14 24 0 24
-27 37 -50 25 -29 -16 -60 -4 -60 24 0 13 6 23 15 23 8 0 15 -5 15 -11 0 -18
20 18 20 37 0 9 -11 23 -25 29 -28 12 -33 28 -10 28 8 0 15 -6 15 -12 0 -9 4
-8 10 2 9 13 10 13 10 0 0 -9 3 -11 8 -5 11 16 34 17 44 3 6 -10 10 -10 18 2
9 13 11 13 19 0 8 -12 12 -10 19 10 12 33 4 52 -19 45 -11 -4 -19 -2 -19 4 0
6 4 11 8 11 5 0 13 17 18 37 7 30 15 38 40 45 17 4 37 15 44 23 14 17 30 20
30 5z m4891 -105 c1 -5 1 -17 0 -26 -1 -8 7 -24 18 -33 27 -25 18 -36 -30 -36
-21 0 -39 -2 -39 -4 0 -2 -3 -12 -7 -22 -5 -14 -2 -16 19 -11 30 8 38 -5 38
-59 0 -32 2 -34 20 -24 21 11 25 4 11 -18 -14 -22 -95 27 -99 60 -3 23 -10 28
-53 38 -30 7 -49 17 -49 26 0 8 -4 14 -10 14 -5 0 -10 11 -10 25 0 18 5 25 20
25 16 0 20 7 20 31 l0 30 75 -3 c41 -2 75 -7 76 -13z m292 -172 c3 -16 1 -31
-5 -34 -19 -12 2 -28 30 -23 27 5 27 5 28 -55 1 -47 -2 -61 -12 -61 -8 0 -17
7 -21 17 -11 28 -24 -24 -17 -65 5 -24 3 -33 -4 -28 -19 11 -21 -9 -6 -54 8
-23 14 -50 12 -59 -3 -13 24 -51 36 -51 2 0 2 18 -1 40 l-6 40 37 0 c31 0 36
-3 36 -22 0 -19 -2 -20 -10 -8 -7 11 -10 7 -10 -17 0 -18 5 -33 10 -33 16 0
11 -35 -7 -57 -11 -12 -37 -22 -67 -26 l-49 -7 6 35 c5 29 3 35 -13 35 -42 0
-70 31 -37 43 9 3 9 9 -1 26 -10 17 -10 21 3 21 16 0 39 36 31 49 -11 17 -56
19 -65 3 -11 -19 -31 -7 -31 18 0 27 -17 34 -36 15 -9 -9 -24 -13 -32 -10 -9
3 -35 9 -59 12 -38 5 -43 4 -43 -15 0 -15 -9 -21 -35 -26 -32 -6 -37 -12 -47
-51 -7 -25 -18 -45 -25 -45 -7 0 -13 -4 -13 -10 0 -11 -59 -14 -84 -4 -22 8
-20 23 7 47 15 13 18 21 10 24 -15 5 -17 43 -3 43 6 0 10 8 10 18 0 11 11 32
25 48 24 28 25 28 39 9 14 -19 15 -19 22 10 4 16 17 37 28 46 18 15 23 16 37
3 19 -17 66 -18 72 -1 3 6 3 -3 0 -20 -3 -21 -1 -33 6 -33 6 0 11 5 11 10 0 6
8 10 19 10 13 0 20 10 25 31 5 29 26 33 26 5 0 -8 10 -16 23 -20 32 -8 47 -7
47 4 0 6 -9 10 -20 10 -11 0 -20 5 -20 10 0 6 7 10 16 10 8 0 13 4 10 9 -3 5
-15 7 -26 4 -16 -4 -20 0 -20 21 0 14 -4 26 -10 26 -5 0 -2 9 7 20 18 20 53
28 53 11 0 -5 -10 -11 -22 -15 -29 -7 -16 -20 37 -36 22 -7 43 -18 47 -24 5
-6 8 -1 8 12 0 12 5 22 12 22 6 0 2 10 -10 23 -25 27 -29 57 -7 57 8 0 15 9
15 20 0 30 27 24 33 -7z m-2738 -2235 c3 -13 7 -39 9 -58 6 -48 17 -80 26 -80
16 0 23 -42 9 -51 -21 -13 -26 -11 -33 16 -4 15 -13 25 -25 25 -33 0 -91 30
-91 46 0 12 7 15 26 11 23 -4 25 -2 19 20 -9 37 12 93 36 93 11 0 21 -9 24
-22z m4725 -2 c0 -8 -52 -113 -70 -141 -32 -49 -33 -54 -16 -80 9 -13 16 -31
16 -40 0 -9 4 -13 10 -10 5 3 21 -5 34 -18 14 -14 27 -22 30 -19 3 3 6 -2 6
-11 0 -11 -12 -17 -42 -20 l-43 -3 33 -8 c26 -7 32 -13 30 -30 -2 -17 -9 -20
-35 -18 -18 2 -42 -2 -53 -8 -17 -9 -25 -8 -40 5 -17 15 -17 19 -3 63 9 26 20
52 25 59 5 7 7 21 3 33 -10 32 -15 100 -7 100 7 0 28 30 76 108 14 23 31 42
36 42 6 0 10 -2 10 -4z m61 -119 c24 -7 62 -10 85 -7 57 8 64 4 64 -40 0 -32
6 -43 36 -67 32 -26 34 -31 25 -56 -25 -64 -2 -94 49 -63 16 9 37 16 48 16 21
0 36 -25 25 -42 -4 -8 5 -9 27 -4 43 8 47 13 33 36 -10 14 -9 21 2 30 19 16
38 -22 30 -59 -9 -42 -59 -91 -92 -91 -21 0 -25 3 -13 10 46 29 -76 49 -240
38 -51 -3 -66 3 -83 32 -20 33 -16 50 12 50 10 0 24 7 31 15 11 14 15 14 36 0
21 -14 23 -13 30 7 5 18 -1 29 -32 55 -50 43 -106 73 -138 73 -14 0 -28 5 -31
10 -4 6 -11 8 -16 5 -14 -9 -11 9 6 31 13 16 16 17 25 4 8 -12 10 -11 10 8 0
25 10 27 71 9z m-4228 -171 c5 -12 40 -14 194 -14 196 2 227 -4 263 -47 22
-26 3 -29 -37 -4 -39 25 -50 25 -313 19 -25 0 -81 0 -125 2 -71 3 -80 5 -80
22 0 14 9 20 34 22 19 3 37 6 39 9 9 9 20 5 25 -9z m-1958 -78 c-14 -18 -118
-123 -231 -232 -112 -109 -204 -203 -204 -208 0 -5 9 -6 20 -3 36 11 21 -5
-19 -21 -33 -13 -111 -82 -111 -98 0 -7 -61 -96 -66 -96 -12 0 -1 32 19 52 12
13 31 41 42 62 11 22 52 74 92 115 107 114 133 143 133 148 0 2 -4 2 -9 -1 -5
-4 -7 3 -4 14 5 20 29 28 35 11 2 -6 40 26 85 70 45 43 85 79 88 79 9 0 124
123 125 133 0 4 7 7 15 7 12 0 10 -8 -10 -32z m5088 0 c15 -7 30 -21 33 -30 3
-10 12 -18 20 -18 8 0 14 -9 14 -20 0 -15 7 -20 25 -20 18 0 25 -5 25 -20 0
-11 7 -23 15 -26 10 -4 13 -13 10 -26 -6 -16 -3 -18 19 -12 22 5 26 3 26 -16
0 -17 -4 -21 -17 -15 -10 4 -39 13 -65 20 -41 11 -48 11 -48 -1 0 -8 -3 -14
-7 -15 -79 -12 -123 -6 -123 16 0 8 -9 15 -20 15 -11 0 -20 7 -20 16 0 11 -6
14 -20 9 -18 -6 -20 -2 -20 39 0 35 6 51 25 70 48 48 79 56 128 34z m-189 -23
c6 -18 -12 -75 -25 -75 -5 0 -9 -7 -9 -15 0 -8 -6 -14 -12 -12 -9 1 -13 -12
-14 -38 -1 -62 -3 -75 -14 -75 -7 0 -7 6 0 19 22 43 14 52 -42 46 -29 -3 -47
-2 -40 1 21 10 13 25 -11 19 -25 -7 -52 16 -58 49 -4 18 -5 19 -21 3 -25 -25
-50 -22 -46 6 3 19 9 22 45 23 39 1 42 0 48 -32 6 -36 14 -41 32 -23 7 7 31
12 55 12 58 -1 82 12 48 25 -14 5 -34 12 -45 15 -18 4 -18 5 3 6 15 1 22 7 22
21 0 15 7 20 25 20 14 0 25 5 25 10 0 16 27 12 34 -5z m1151 -67 c4 -18 12
-38 17 -45 5 -7 7 -21 3 -33 -4 -11 -8 -39 -9 -61 -4 -51 -16 -64 -16 -16 0
24 -5 37 -14 37 -24 0 -76 -22 -71 -30 8 -13 -43 -18 -124 -13 -68 4 -84 2
-156 -27 -136 -54 -140 -56 -182 -122 -62 -96 -74 -125 -114 -276 -11 -43 -30
-93 -42 -112 -13 -19 -28 -47 -35 -62 -6 -16 -16 -28 -22 -28 -15 0 -12 16 5
30 8 7 15 19 15 27 0 7 7 25 16 39 9 13 14 27 12 30 -8 7 -48 -64 -48 -83 0
-9 -3 -13 -7 -10 -3 4 -22 -28 -41 -70 -19 -42 -51 -97 -70 -122 l-35 -46 33
-3 c46 -5 76 5 100 30 l20 22 0 -22 c0 -23 -44 -52 -76 -50 -31 3 -113 -25
-138 -47 -29 -24 -44 -75 -22 -75 8 0 22 7 31 16 9 9 19 13 22 10 4 -4 -3 -13
-15 -22 -14 -10 -22 -26 -22 -45 0 -26 2 -28 14 -16 8 8 28 20 45 27 17 7 31
17 31 22 0 5 10 8 23 6 35 -5 24 -19 -42 -52 -39 -20 -61 -37 -61 -48 0 -30
-18 -20 -25 15 -4 17 -11 37 -15 42 -9 10 -14 55 -12 91 1 11 24 43 51 71 27
28 52 61 56 74 4 13 15 35 25 49 9 14 40 69 68 123 29 54 59 108 67 119 10 15
11 26 4 40 -13 24 -2 61 17 54 23 -9 44 5 44 28 0 12 4 26 9 32 5 5 24 45 42
89 18 44 41 89 51 99 10 11 18 25 18 30 1 14 41 58 66 72 10 6 35 19 54 30 19
10 37 21 40 24 21 21 74 51 111 61 63 18 65 18 161 21 49 2 88 7 88 12 0 5 7
3 15 -4 20 -17 29 8 21 60 -8 48 9 54 19 8z m-7975 -148 c0 -5 10 -9 22 -7 15
1 26 -5 33 -20 12 -28 29 -30 20 -3 -4 14 -2 20 9 20 8 0 18 -4 21 -10 3 -5
17 -10 31 -10 17 0 27 -8 34 -24 5 -13 16 -29 25 -34 13 -7 16 -20 13 -58 -3
-39 -8 -51 -26 -59 -12 -5 -22 -17 -22 -25 0 -19 -74 -50 -122 -50 -20 0 -43
7 -52 15 -21 21 -103 20 -108 -1 -2 -10 -15 -18 -30 -20 -22 -2 -28 2 -28 17
0 11 -13 33 -30 49 -16 16 -30 34 -30 40 0 5 -4 10 -10 10 -5 0 -10 14 -10 31
0 20 4 29 13 26 6 -2 11 -10 9 -18 -2 -7 -1 -23 2 -35 4 -16 11 -21 26 -17 24
6 28 51 5 59 -8 4 -15 12 -15 20 0 17 16 18 24 2 5 -10 7 -10 12 0 5 10 9 9
18 -4 7 -9 27 -18 44 -20 30 -4 32 -2 32 30 0 45 9 66 27 66 8 0 24 5 36 12
21 11 21 11 2 19 -19 7 -19 8 3 8 12 1 22 -3 22 -9z m8368 -118 c2 -12 -2 -22
-8 -22 -7 0 -9 -7 -6 -16 5 -14 4 -15 -8 -5 -11 10 -12 6 -7 -21 6 -31 10 -33
46 -33 33 0 40 3 41 20 1 50 14 65 55 65 33 0 39 -3 40 -22 2 -42 -2 -53 -32
-80 -30 -29 -70 -35 -135 -22 -31 6 -61 49 -42 60 5 3 6 19 3 35 -6 27 -4 29
22 30 15 0 22 3 16 6 -7 2 -13 11 -13 20 0 22 25 9 28 -15z m402 -32 c19 -10
50 -25 67 -34 55 -25 108 -68 151 -121 17 -21 62 -108 62 -120 0 -6 6 -25 14
-41 18 -36 45 -261 52 -437 3 -73 7 -138 9 -144 3 -8 -4 -13 -15 -13 -11 0
-20 5 -20 11 0 5 4 8 8 5 5 -3 8 22 8 54 -1 41 -5 61 -15 65 -11 4 -11 8 0 21
10 13 10 17 -1 24 -11 7 -11 11 -1 24 8 9 9 16 3 16 -6 0 -8 23 -5 58 6 84 -3
122 -30 123 l-22 2 23 4 c18 4 22 11 22 44 0 21 -4 39 -10 39 -5 0 -10 17 -10
38 0 61 -56 182 -84 182 -7 0 -19 12 -26 26 -16 30 -52 50 -130 74 -54 17 -78
40 -43 40 10 0 -1 11 -29 27 -26 14 -49 32 -52 39 -8 20 32 17 74 -6z m-4902
-142 c15 -15 52 0 52 23 0 10 4 19 9 19 4 0 13 15 19 33 l10 32 1 -42 c1 -51
-13 -90 -40 -112 -20 -16 -21 -27 -22 -218 -1 -123 2 -201 8 -200 5 1 16 -18
25 -43 8 -25 18 -47 21 -50 3 -3 11 -21 19 -40 7 -19 20 -40 28 -47 7 -6 11
-17 7 -23 -10 -17 -32 6 -40 41 -4 17 -18 49 -31 72 -13 23 -24 50 -24 60 0 9
-4 17 -9 17 -5 0 -8 -42 -7 -96 1 -52 -1 -97 -6 -100 -10 -7 -9 -42 -14 296
-3 162 -10 302 -15 312 -5 9 -11 59 -14 110 -3 79 -3 84 4 30 4 -35 13 -68 19
-74z m498 -106 c5 -5 38 -21 73 -36 102 -43 163 -105 225 -233 20 -39 39 -74
43 -76 5 -3 27 -8 51 -12 42 -7 42 -7 42 24 0 24 4 31 20 31 19 0 25 -14 21
-47 -1 -8 9 -13 24 -13 22 0 25 3 19 24 -6 27 6 39 30 30 20 -8 21 -30 0 -38
-24 -9 -6 -26 27 -26 32 0 34 3 19 31 -8 13 -7 19 0 19 6 0 9 4 5 9 -3 6 7 6
27 0 18 -5 34 -9 35 -9 2 0 3 -4 3 -10 0 -5 -7 -10 -16 -10 -14 0 -14 -2 0
-15 18 -19 46 -19 46 -1 0 15 21 26 49 26 10 0 24 -11 31 -25 12 -22 15 -23
23 -10 8 15 10 15 23 -2 13 -17 13 -17 14 4 0 12 -6 24 -12 26 -7 3 2 6 21 6
30 1 33 -1 29 -23 -4 -21 -1 -25 31 -29 20 -2 39 -2 42 2 13 12 20 51 10 51
-6 0 -11 -7 -11 -15 0 -10 -10 -15 -30 -15 -16 0 -30 2 -30 5 0 6 76 45 88 45
13 0 22 -36 12 -47 -14 -14 1 -65 17 -59 8 3 24 1 35 -5 15 -8 18 -17 13 -36
-5 -21 -3 -24 14 -18 23 7 32 -4 24 -33 -6 -25 -33 -30 -33 -7 0 8 -4 15 -10
15 -5 0 -10 -7 -10 -15 0 -8 -8 -15 -17 -15 -15 -1 -14 -4 6 -20 13 -11 29
-20 37 -20 9 0 14 -11 14 -30 0 -30 -23 -43 -33 -17 -3 6 -6 1 -6 -13 -1 -21
4 -25 32 -27 57 -3 107 -15 107 -25 0 -6 -10 -8 -23 -5 -29 8 -38 0 -60 -47
-29 -62 -18 -76 59 -76 36 0 75 -6 87 -12 12 -7 49 -18 82 -24 58 -11 55 -12
-77 -13 -121 -1 -138 1 -147 17 -9 16 -10 16 -16 0 -4 -9 -2 -25 4 -36 8 -16
7 -21 -4 -26 -8 -3 -15 -12 -15 -21 0 -8 -6 -15 -14 -15 -7 0 -19 -6 -25 -14
-13 -15 -54 -10 -48 7 1 5 18 15 37 21 l35 11 -2 63 c-1 34 3 62 8 62 19 0 8
41 -19 67 -23 22 -27 33 -21 53 15 52 11 65 -26 79 l-35 12 20 21 c23 25 24
42 5 83 -8 19 -14 24 -14 13 -2 -33 -36 -88 -59 -94 -13 -4 -32 0 -47 10 -13
9 -42 16 -64 16 -32 0 -44 -5 -57 -25 -23 -36 -90 -48 -126 -23 -16 11 -28 26
-28 34 0 8 -9 14 -20 14 -21 0 -28 -24 -10 -35 6 -3 10 -12 10 -18 0 -8 -15
-11 -44 -9 -36 3 -45 1 -49 -15 -4 -15 -5 -15 -6 3 -1 21 -6 22 -85 22 -46 -1
-88 2 -94 6 -6 3 -13 20 -17 36 -7 31 -25 42 -25 14 0 -27 -25 -9 -31 22 -3
19 -10 28 -20 25 -8 -2 -23 -6 -34 -9 -17 -5 -18 -3 -8 10 11 13 8 14 -25 8
-20 -3 -36 -10 -36 -16 11 -84 13 -124 4 -124 -5 0 -17 26 -26 58 -9 31 -18
60 -20 64 -5 7 -75 -10 -87 -21 -4 -4 -4 -40 -1 -80 7 -67 9 -72 28 -67 17 4
15 0 -9 -20 l-30 -25 38 7 c30 5 36 3 32 -8 -7 -17 -70 -52 -82 -45 -12 8 -8
64 6 81 7 8 7 22 1 42 -6 16 -15 49 -21 72 -8 35 -14 42 -27 37 -9 -3 -30 -9
-46 -12 l-29 -6 7 -70 c4 -39 11 -76 17 -84 9 -10 8 -13 -5 -13 -9 0 -15 3
-14 8 1 4 -4 20 -10 35 -7 16 -12 42 -12 58 0 16 -4 29 -10 29 -5 0 -10 7 -10
15 0 13 -7 15 -37 9 -21 -4 -41 -8 -44 -10 -3 -1 -2 -29 1 -61 11 -93 -4 -110
-24 -28 -25 103 -25 110 4 111 14 0 36 4 50 7 14 3 45 8 70 11 25 3 79 15 120
26 41 11 88 23 103 25 64 11 65 19 9 74 -29 28 -57 51 -63 51 -5 0 -12 7 -16
15 -3 9 -18 22 -33 30 -21 11 -27 20 -23 35 7 28 30 25 37 -5 4 -14 13 -25 22
-25 23 0 28 29 9 50 -23 26 -73 23 -100 -4 l-20 -21 -3 28 c-2 15 -9 27 -18
27 -26 0 -15 40 16 58 27 16 29 22 32 82 3 59 5 65 28 71 36 10 84 10 96 1z
m-1141 -45 c-10 -5 -21 -4 -31 3 -11 10 -14 9 -14 -4 0 -14 49 -102 159 -286
90 -151 109 -185 104 -193 -6 -9 -33 11 -33 25 0 5 -9 21 -19 36 -41 59 -251
419 -251 431 0 8 6 11 15 7 8 -3 25 -2 37 3 30 11 58 -8 33 -22z m8287 -83
c41 -7 42 -24 2 -24 -24 0 -25 -2 -22 -65 1 -48 6 -65 16 -65 9 0 12 6 8 16
-5 14 -4 15 8 5 10 -8 16 -9 21 -1 12 20 25 10 25 -20 0 -28 -2 -30 -39 -30
-46 0 -75 21 -126 90 -29 40 -34 53 -26 69 17 31 55 38 133 25z m-555 -146
l28 -20 -33 5 c-36 4 -50 -7 -33 -26 5 -7 6 -19 2 -26 -7 -10 -12 -6 -22 15
-11 22 -22 30 -47 32 -18 2 -32 -1 -32 -7 0 -6 5 -11 10 -11 16 0 12 -40 -5
-45 -48 -15 -41 -19 46 -25 69 -5 101 -11 113 -22 20 -21 21 -38 1 -38 -19 0
-19 -15 1 -87 9 -32 19 -73 21 -90 3 -19 11 -33 19 -33 8 0 14 -5 14 -11 0 -6
-8 -9 -19 -6 -32 8 -51 -11 -51 -52 0 -51 29 -79 68 -65 24 8 27 15 27 52 0
52 22 65 31 17 3 -18 2 -40 -2 -47 -5 -7 -9 -15 -10 -18 0 -3 -4 -17 -8 -33
-5 -16 -4 -32 2 -40 5 -6 13 -40 17 -75 5 -48 12 -65 27 -73 15 -8 17 -14 9
-22 -6 -6 -11 -33 -11 -59 0 -26 -4 -48 -10 -48 -5 0 -10 -9 -10 -20 0 -11 -5
-20 -11 -20 -8 0 -9 17 -4 55 l6 55 -36 0 c-28 0 -38 5 -45 23 -7 18 -9 16 -9
-19 -1 -47 -20 -69 -51 -59 -21 7 -27 34 -10 51 7 7 4 16 -10 29 -27 25 -41 7
-33 -43 4 -24 -1 -48 -18 -82 -23 -45 -26 -48 -56 -43 -24 4 -33 2 -34 -8 0
-8 -2 -22 -4 -31 -4 -21 16 -23 47 -7 14 7 23 8 27 1 3 -6 34 -10 68 -10 63 0
83 -6 83 -23 0 -10 -269 -13 -318 -3 -20 4 -29 11 -25 19 2 8 11 11 19 8 8 -3
14 -1 14 5 0 5 -7 12 -15 16 -10 4 -15 20 -15 53 0 89 -4 93 -75 93 -42 0 -64
4 -66 13 -4 11 -3 242 1 312 1 17 -2 45 -5 63 -5 21 -3 32 4 32 6 0 11 14 11
30 0 19 5 30 14 30 8 0 18 9 21 20 3 11 13 20 21 20 8 0 14 6 15 13 0 6 6 1
13 -13 16 -34 57 -100 62 -100 2 0 22 7 44 16 34 14 43 14 57 3 9 -8 14 -9 10
-2 -4 6 -2 13 5 15 7 3 4 12 -11 27 -12 12 -20 29 -17 36 2 7 -2 19 -9 25 -8
7 -12 17 -9 24 3 6 0 4 -8 -5 -14 -17 -30 -18 -85 -5 -22 5 -33 13 -32 24 0
10 3 12 5 5 3 -7 12 -9 19 -6 12 4 12 9 0 33 -8 16 -15 34 -15 40 0 14 60 13
62 -2 0 -7 2 -17 3 -23 2 -5 3 -18 4 -28 1 -17 2 -17 17 -3 8 9 20 16 25 16 5
0 9 9 9 19 0 12 -7 18 -17 17 -10 0 -18 6 -18 14 0 8 -9 17 -20 20 -25 7 -32
40 -11 52 9 5 16 14 16 20 0 6 -8 4 -18 -5 -19 -17 -53 -22 -65 -10 -4 3 0 15
10 25 9 10 14 20 12 22 -6 6 -58 9 -139 7 -72 -1 -76 -3 -97 -33 l-22 -31 22
-18 c13 -9 33 -19 46 -21 22 -3 22 -4 -10 -27 -32 -24 -33 -24 -48 -5 -9 10
-28 25 -43 33 -33 17 -36 31 -9 38 25 6 16 33 -10 33 -10 0 -19 4 -19 9 0 5
-3 16 -6 24 -11 31 119 45 413 44 183 0 205 -2 230 -19z m-5176 -43 c11 4 19
2 19 -4 0 -16 -30 -41 -50 -41 -10 0 -22 -4 -25 -10 -3 -5 -17 -10 -30 -10
-13 0 -26 -4 -29 -8 -8 -13 -108 -35 -136 -29 -25 4 -25 4 -2 12 24 8 29 21
10 28 -17 5 65 47 94 47 13 1 37 7 53 14 20 9 38 10 54 4 13 -5 32 -6 42 -3z
m4359 -35 c32 -25 40 -25 40 0 0 15 7 20 26 20 21 0 25 -4 22 -22 -2 -15 6
-31 22 -45 24 -21 24 -23 7 -40 -9 -9 -36 -25 -60 -35 -23 -9 -36 -17 -29 -17
26 -2 11 -42 -24 -63 -26 -15 -32 -23 -22 -29 12 -8 -35 -11 -242 -13 l-85 -1
-7 54 c-6 55 -19 78 -36 67 -7 -4 -7 -18 -1 -39 11 -40 12 -80 0 -73 -5 3 -11
18 -14 33 -12 60 -14 67 -25 71 -6 2 -32 -6 -58 -17 -26 -12 -52 -21 -60 -21
-16 0 -173 -49 -196 -61 -22 -11 -56 -12 -42 -1 5 4 50 21 99 36 50 16 104 34
120 41 62 26 165 54 179 49 7 -3 29 8 48 24 18 17 52 33 73 37 22 4 48 15 58
23 15 13 22 14 37 4 16 -10 21 -9 30 8 14 26 30 26 37 0 7 -28 32 -25 43 5 11
30 27 31 60 5z m-9246 -76 c3 -8 1 -24 -4 -34 -13 -25 -13 -30 5 -30 8 0 15 5
15 10 0 6 25 10 55 10 51 0 72 12 43 23 -7 3 6 6 28 6 39 1 42 -1 46 -29 3
-17 2 -32 -1 -34 -3 -2 -64 -2 -136 -1 -449 6 -498 8 -460 15 22 4 86 6 142 5
97 -2 105 -1 126 21 26 28 44 30 50 7 3 -12 7 -8 12 15 7 28 12 32 40 32 21 0
35 -6 39 -16z m9508 -102 c18 -11 44 -17 58 -15 24 3 24 3 5 -11 -18 -14 -18
-15 -3 -16 24 0 11 -30 -13 -30 -25 0 -30 -16 -21 -60 7 -31 5 -47 -16 -110
-3 -8 -9 5 -13 29 -5 24 -6 48 -3 52 3 5 1 9 -4 9 -6 0 -16 -29 -23 -65 -12
-63 -30 -83 -43 -49 -4 9 -4 32 0 50 5 28 3 34 -11 34 -18 0 -18 10 0 98 5 24
2 34 -9 38 -29 11 14 60 56 63 4 1 22 -7 40 -17z m-6583 -47 c47 -24 109 -135
123 -218 8 -51 18 -77 35 -93 20 -18 21 -25 13 -55 -6 -19 -10 -50 -11 -69 0
-19 -4 -44 -8 -55 -5 -12 -6 8 -3 47 4 57 2 71 -17 97 l-22 31 -39 -20 c-22
-11 -55 -20 -75 -20 -24 0 -35 -5 -35 -14 0 -22 -19 -29 -37 -15 -11 10 -14
24 -9 55 4 31 1 45 -10 55 -9 7 -20 23 -25 36 -11 30 -34 31 -24 1 4 -13 9
-35 12 -49 4 -23 2 -26 -26 -26 -26 0 -32 5 -37 26 -3 14 -10 37 -15 50 -5 13
-7 26 -4 29 2 3 -4 11 -15 19 -27 19 -25 33 6 33 24 0 25 2 18 45 -5 36 -3 45
9 45 16 0 27 -20 28 -53 0 -12 3 -16 6 -9 2 6 13 12 24 12 14 0 19 7 19 29 0
41 14 46 50 19 37 -27 66 -71 85 -130 l14 -43 -6 49 c-6 54 -39 119 -72 142
-25 18 -26 27 -5 48 19 19 18 19 53 1z m4509 -70 c38 -31 49 -86 32 -156 -11
-45 -11 -52 6 -65 18 -14 18 -14 -1 -27 -21 -12 -75 -33 -182 -68 -34 -11 -64
-27 -67 -34 -9 -23 16 -139 33 -153 9 -8 28 -11 44 -8 l28 6 -6 -53 c-5 -45
-3 -56 17 -80 21 -26 29 -28 108 -31 47 -2 93 -7 102 -11 26 -11 32 -44 12
-66 -24 -26 -135 -79 -167 -79 -15 0 -27 -3 -27 -7 0 -5 -51 -9 -113 -11 -125
-3 -187 -10 -187 -22 0 -4 -13 -10 -28 -13 -15 -3 -39 -16 -52 -29 -152 -145
-312 -244 -444 -273 -65 -14 -77 -15 -131 0 -113 29 -178 131 -205 325 -6 41
-16 100 -23 130 -16 71 -15 254 1 305 14 44 47 93 57 83 4 -3 -1 -18 -10 -32
-24 -37 -37 -99 -22 -108 18 -12 27 -9 27 7 0 21 20 19 21 -2 0 -10 3 -13 5
-7 6 15 54 -6 54 -23 0 -22 59 -99 84 -111 15 -6 26 -17 26 -23 0 -6 19 -9 53
-8 l52 3 10 -46 c11 -50 49 -93 73 -83 17 6 44 -13 36 -27 -3 -5 2 -15 12 -23
18 -13 18 -14 2 -20 -15 -6 -15 -9 -3 -21 7 -8 23 -14 35 -14 12 0 18 -4 15
-10 -8 -14 -42 -13 -47 1 -4 12 -38 6 -150 -24 -80 -22 -124 -83 -82 -118 12
-10 24 -10 52 -2 180 53 318 88 259 65 -15 -6 -15 -10 -5 -25 12 -15 16 -15
53 -1 22 8 48 17 58 21 9 3 17 9 17 14 0 5 8 9 19 9 23 0 47 28 43 51 -2 9 2
20 8 24 5 3 10 16 10 27 0 12 10 32 22 45 l21 23 -25 0 c-48 0 -94 28 -136 83
-29 37 -42 64 -42 85 0 52 23 40 64 -33 12 -22 30 -41 41 -43 11 -3 26 -9 34
-15 7 -6 20 -12 28 -13 8 -1 23 -13 34 -25 17 -20 22 -21 29 -9 16 25 11 58
-9 65 -31 9 -102 65 -96 74 6 11 -51 61 -71 61 -9 0 -14 10 -14 28 0 40 -39
75 -74 66 -14 -3 -26 -2 -26 2 0 14 43 60 69 74 l24 12 -52 47 c-28 25 -51 52
-51 59 0 6 -18 20 -40 29 -25 11 -44 28 -51 45 -6 16 -19 33 -28 38 -14 9 -8
18 39 61 34 33 56 47 58 39 3 -8 -12 -29 -32 -47 -39 -36 -43 -45 -23 -61 19
-16 204 -31 262 -22 75 12 97 24 197 98 134 100 271 131 336 77z m712 6 c0 -5
9 -13 20 -16 11 -3 20 -12 20 -19 0 -7 18 -27 40 -45 22 -18 53 -58 69 -89 16
-31 43 -69 59 -84 23 -22 31 -39 34 -75 3 -27 8 -57 12 -68 5 -11 -3 -2 -18
20 -14 22 -26 47 -26 55 0 25 -30 60 -50 60 -11 0 -27 -11 -36 -25 -22 -33
-68 -35 -79 -2 -4 12 -8 26 -9 31 -1 6 -25 34 -53 64 -35 36 -53 63 -53 79 0
42 39 25 88 -39 24 -32 50 -58 58 -58 12 0 11 6 -5 29 -12 16 -21 32 -21 36 0
4 -16 26 -36 50 -34 41 -37 43 -89 43 -40 0 -59 -6 -76 -22 -16 -15 -32 -21
-52 -18 -40 6 -28 25 24 38 24 5 52 14 62 18 10 5 20 6 23 3 3 -3 22 6 41 19
38 26 53 30 53 15z m2586 -113 c11 -119 9 -763 -2 -763 -12 0 -22 136 -24 330
-1 88 -6 185 -11 215 -17 98 -22 230 -9 245 6 8 9 19 5 25 -10 15 2 40 18 40
10 0 16 -25 23 -92z m-8845 43 c46 -15 79 -33 107 -60 34 -34 40 -46 46 -97 3
-33 9 -74 12 -91 4 -20 2 -33 -4 -33 -12 0 -22 24 -22 52 0 11 -5 18 -12 15
-8 -3 -12 -19 -10 -46 1 -22 -2 -41 -6 -41 -9 0 -24 63 -37 148 -4 23 -12 42
-17 42 -11 0 -7 -63 8 -159 4 -28 3 -41 -5 -41 -6 0 -11 10 -11 23 0 27 -16
54 -27 44 -4 -5 -6 -25 -5 -45 4 -63 -17 -13 -30 72 -7 48 -16 76 -24 76 -7 0
-14 -10 -16 -22 -5 -36 16 -164 30 -180 8 -10 10 -30 6 -60 -5 -32 -2 -54 11
-78 20 -39 53 -69 75 -69 8 0 3 6 -11 14 -53 29 -81 112 -50 149 19 22 24 14
11 -18 -18 -49 27 -119 95 -145 30 -11 30 -11 3 -7 -47 6 -31 -10 20 -20 l47
-9 0 -63 c0 -45 -5 -66 -15 -72 -33 -21 -126 -23 -242 -6 -158 24 -224 11
-335 -65 -49 -34 -64 -29 -61 21 1 14 -11 43 -25 64 -33 47 -28 58 13 28 47
-35 57 -21 16 23 -29 31 -34 109 -9 137 11 13 13 29 8 71 l-7 55 -47 12 c-25
6 -53 17 -61 24 -8 7 -45 29 -82 50 -62 34 -68 35 -77 18 -13 -24 -4 -35 44
-58 50 -23 135 -105 117 -111 -8 -3 -26 5 -40 18 -28 25 -47 37 -115 71 -53
27 -77 55 -76 93 0 27 1 28 13 13 12 -17 36 -25 36 -13 0 8 -24 48 -37 63 -7
7 -13 17 -13 21 0 4 -16 25 -35 47 -34 38 -43 67 -27 90 25 36 104 58 128 35
5 -6 49 -35 97 -65 l88 -56 -3 37 c-2 33 1 40 31 60 102 69 380 92 532 44z
m8929 -40 c19 -19 36 -44 36 -55 1 -11 9 -25 19 -31 10 -5 31 -21 46 -33 36
-29 39 -14 4 18 -14 13 -23 25 -22 27 2 2 23 -15 46 -37 22 -22 34 -37 26 -34
-11 4 -13 2 -9 -9 3 -8 1 -18 -5 -22 -6 -3 -11 -26 -11 -51 0 -42 -1 -44 -30
-44 -23 0 -33 6 -42 24 -15 34 -40 43 -33 13 3 -12 7 -67 10 -122 2 -55 5
-100 5 -100 1 0 3 -91 4 -202 1 -112 -1 -203 -5 -203 -19 0 -40 -52 -47 -111
-4 -34 -12 -64 -18 -66 -7 -2 -8 16 -3 58 4 33 6 68 4 77 -2 9 -4 33 -5 52 -2
33 -2 34 -11 10 -7 -20 -8 -17 -4 15 3 22 5 83 5 135 0 65 3 90 10 80 7 -11
10 -6 9 20 0 29 -2 31 -9 15 -8 -18 -9 -18 -10 5 -1 14 -1 115 0 225 1 180 -5
270 -26 375 -7 33 -6 34 12 20 10 -8 35 -30 54 -49z m-2753 -48 c10 -27 83
-136 101 -151 15 -11 15 -14 0 -28 -14 -14 -18 -11 -47 35 -17 28 -35 51 -41
51 -6 0 -20 11 -32 25 -43 50 -63 20 -33 -52 16 -39 14 -49 -9 -40 -19 7 -42
44 -50 78 -5 21 -2 28 14 32 13 3 18 10 14 21 -4 11 0 16 14 16 11 0 22 7 26
15 7 21 35 19 43 -2z m-11107 -287 c14 -2 164 -9 335 -15 556 -20 846 -31
1060 -41 116 -5 334 -12 485 -16 226 -5 278 -9 293 -22 26 -23 20 -35 -8 -16
-21 13 -60 17 -213 20 -103 2 -306 8 -452 14 -146 5 -389 14 -540 20 -642 23
-858 31 -915 35 -33 2 -74 4 -91 4 -20 1 -34 7 -38 17 -5 14 -1 15 26 10 18
-3 44 -8 58 -10z m324 -126 c121 -6 318 -15 436 -20 270 -13 741 -30 1058 -38
228 -7 245 -8 259 -27 12 -17 13 -47 9 -175 -8 -194 -16 -281 -25 -276 -3 2
-3 55 1 118 5 62 7 163 6 223 l-3 110 -275 11 c-151 7 -426 17 -610 23 -184 6
-452 17 -595 23 -143 6 -335 11 -427 12 -127 1 -168 4 -168 14 0 15 41 15 334
2z m476 -128 c0 -5 -9 -27 -21 -51 -32 -68 -18 -68 35 -1 63 82 83 68 27 -21
-45 -73 -61 -119 -40 -119 8 0 27 16 42 36 24 29 34 35 60 32 27 -3 32 -7 30
-28 -3 -24 -2 -25 13 -5 8 11 13 28 10 38 -5 20 23 53 34 40 18 -19 21 -70 5
-83 -8 -7 -15 -19 -15 -27 0 -22 37 2 63 42 28 45 49 46 40 4 -10 -49 17 -32
47 29 14 29 30 52 37 52 16 0 16 -15 2 -43 -9 -16 -9 -22 0 -25 6 -2 11 -13
11 -24 0 -19 0 -19 26 1 29 23 51 26 73 12 12 -8 12 -12 2 -25 -7 -8 -11 -21
-9 -28 3 -7 13 3 23 22 21 42 74 100 91 100 7 0 14 -6 17 -12 3 -10 9 -10 26
0 58 34 55 -14 -4 -66 -42 -37 -57 -62 -36 -62 6 0 13 5 16 10 3 6 14 10 23
10 14 -1 13 -4 -6 -19 -19 -17 -37 -19 -125 -17 -56 1 -107 5 -114 9 -6 4 -15
3 -18 -3 -12 -20 -36 9 -25 30 13 24 13 33 -1 25 -5 -4 -14 -17 -19 -29 -8
-21 -14 -23 -86 -22 -51 1 -79 5 -81 13 -4 10 -10 9 -26 -2 -12 -8 -36 -13
-52 -11 -17 2 -47 4 -67 5 -32 1 -39 5 -44 26 -6 26 -7 26 -21 5 -21 -29 -37
-25 -28 8 l7 27 -29 -27 c-44 -42 -103 -34 -103 14 0 22 36 43 46 27 3 -6 1
-16 -5 -22 -15 -15 -14 -27 4 -27 21 0 51 36 98 118 22 39 47 72 54 72 7 0 13
-4 13 -8z m3950 -122 c-119 -16 -131 -22 -360 -188 -160 -116 -297 -169 -409
-159 -37 4 -75 9 -87 13 -39 11 -57 -21 -51 -90 6 -71 0 -95 -30 -130 -35 -39
-94 -51 -159 -30 -30 9 -62 23 -71 31 -20 16 -26 18 62 -14 31 -12 48 -12 77
-4 20 7 40 16 43 21 3 5 7 41 8 80 1 38 5 70 9 70 13 0 -5 115 -20 133 -15 16
-14 17 1 11 9 -3 17 -10 17 -14 0 -4 21 -17 48 -28 182 -78 322 -41 605 161
183 130 218 146 317 145 l55 -1 -55 -7z m-4295 -250 c176 -6 464 -15 640 -21
176 -5 455 -14 620 -19 165 -5 308 -12 319 -16 16 -6 18 -16 14 -79 -3 -39 -8
-77 -12 -83 -8 -13 -106 -16 -204 -6 l-60 7 -7 46 c-10 69 -20 81 -64 81 -43
0 -58 -19 -39 -49 10 -16 14 -17 25 -5 34 33 62 8 63 -53 0 -20 -5 -23 -40
-23 -22 0 -49 6 -60 12 -16 10 -24 10 -40 0 -15 -9 -52 -11 -133 -8 -62 3
-238 8 -392 11 -426 8 -1079 26 -1091 30 -11 3 -11 38 2 143 l5 42 67 0 c37 0
211 -4 387 -10z"/>
<path d="M11120 6620 c0 -11 7 -20 15 -20 9 0 15 -9 15 -22 0 -19 -2 -20 -11
-8 -8 11 -12 12 -16 3 -2 -7 -13 -13 -24 -13 -10 0 -19 -4 -19 -10 0 -5 -11
-10 -25 -10 -34 0 -40 -19 -25 -80 10 -43 10 -52 -4 -65 -27 -27 -18 -35 37
-35 41 0 58 5 72 20 10 11 24 20 32 20 9 0 13 13 13 40 0 22 -4 40 -10 40 -5
0 -10 18 -10 40 0 22 3 39 8 39 19 -3 33 2 28 10 -3 5 5 12 19 15 14 4 25 11
25 17 0 6 -9 8 -20 4 -13 -4 -27 1 -42 14 -28 27 -58 27 -58 1z"/>
<path d="M6341 4880 c-2 -135 -6 -323 -10 -418 l-6 -174 34 -14 c42 -18 51
-12 47 30 -2 19 5 53 15 76 24 53 24 60 -1 60 -11 0 -20 5 -20 12 0 6 -3 8 -7
5 -4 -4 -8 -44 -9 -88 -3 -82 -8 -99 -21 -85 -5 4 -9 177 -11 384 -3 458 -8
542 -11 212z"/>
<path d="M5327 4871 c-10 -260 -7 -656 4 -608 10 44 18 688 9 750 -3 25 -9
-33 -13 -142z"/>
<path d="M7160 4895 c0 -2 15 -9 33 -14 25 -7 27 -9 10 -10 -13 -1 -23 -5 -23
-10 0 -5 10 -12 23 -14 12 -2 -1 -5 -30 -6 -28 0 -55 -5 -58 -11 -3 -5 -16
-10 -27 -10 -25 0 -61 -38 -53 -58 3 -7 5 -16 5 -18 0 -2 7 -4 15 -4 8 0 15
-4 15 -10 0 -5 16 -10 35 -10 19 0 35 5 35 10 0 6 7 10 15 10 8 0 15 -4 15
-10 0 -19 39 -30 85 -23 48 6 124 61 98 70 -7 3 -13 15 -13 28 0 14 -7 26 -19
30 -11 3 -22 12 -25 20 -3 8 -11 12 -18 10 -8 -3 -22 1 -33 9 -18 14 -11 15
70 11 80 -3 83 -3 30 5 -67 9 -185 12 -185 5z"/>
<path d="M9261 4846 c-27 -26 -69 -27 -459 -8 -151 8 -275 12 -277 10 -2 -2
-5 -45 -8 -96 -6 -90 -5 -93 19 -109 34 -22 124 -13 153 16 26 26 45 27 71 1
23 -23 46 -26 53 -7 4 10 7 10 18 0 7 -7 21 -13 31 -13 10 0 18 -4 18 -10 0
-6 27 -10 61 -10 37 0 58 -4 54 -10 -4 -6 6 -10 23 -10 17 0 37 -9 50 -23 16
-17 35 -24 65 -25 41 -2 84 -8 121 -19 17 -5 18 -13 14 -72 -3 -36 -2 -94 1
-129 l7 -63 -96 0 c-52 0 -142 -3 -200 -8 l-105 -8 91 -1 91 -2 -1 -27 c-1
-23 3 -27 20 -25 12 1 27 -4 34 -13 15 -18 13 -21 -23 -30 -21 -6 -27 -4 -27
9 0 9 -10 27 -22 41 l-21 25 -11 -23 c-14 -27 -39 -33 -59 -12 -17 16 -32 21
-22 6 9 -16 -10 -21 -41 -11 -24 7 -25 8 -6 9 12 1 22 6 22 11 0 12 -13 13
-135 10 -49 -1 -91 -6 -93 -10 -5 -14 -32 0 -32 16 0 15 -55 19 -97 8 -21 -6
-23 -12 -23 -79 0 -65 2 -74 20 -80 11 -3 30 -3 41 0 15 5 19 4 15 -4 -5 -8
32 -10 131 -9 l138 2 -120 6 -120 6 98 2 c75 2 97 5 97 16 0 15 48 28 56 15 3
-5 22 -9 43 -9 31 0 40 4 44 21 8 30 33 18 29 -14 -4 -29 15 -36 36 -15 8 8
15 8 26 -2 15 -12 45 -10 92 5 17 5 23 1 34 -24 10 -26 18 -31 46 -31 32 0 34
2 35 35 1 19 3 40 4 45 1 6 3 15 4 21 0 5 6 7 11 4 6 -3 10 3 10 14 0 11 7 26
15 35 8 8 15 22 15 30 0 9 8 16 17 16 9 0 24 7 33 15 11 10 46 16 111 19 52 2
100 5 107 5 20 2 14 28 -8 34 -13 3 -20 0 -20 -9 0 -12 -8 -13 -37 -8 -43 8
-54 15 -35 21 7 3 -6 14 -29 26 -23 11 -44 29 -47 39 -2 10 -13 18 -23 18 -11
0 -19 5 -19 12 0 6 -7 19 -15 28 -9 10 -25 42 -36 71 -24 66 -29 237 -7 250
10 7 11 12 1 29 -16 24 -17 50 -3 50 18 0 11 17 -9 23 -11 3 -28 -4 -40 -17z"/>
<path d="M10003 4803 c15 -2 27 -7 27 -11 -1 -17 -17 -30 -40 -33 -24 -4 -25
-7 -22 -58 5 -98 27 -118 137 -124 22 -2 47 -6 55 -9 8 -4 37 -9 63 -11 55 -5
71 11 43 42 -9 10 -16 23 -16 29 0 7 -4 12 -10 12 -5 0 -10 9 -10 19 0 11 -5
23 -11 27 -6 3 -9 14 -6 24 5 21 -15 34 -30 19 -7 -7 -19 -6 -37 2 -19 9 -23
15 -14 21 8 5 2 8 -18 8 -17 0 -37 7 -44 15 -10 13 -9 15 9 15 11 0 21 5 21
10 0 6 -27 9 -62 9 -35 -1 -51 -4 -35 -6z"/>
<path d="M11020 4584 c-18 -10 -68 -14 -185 -14 -115 0 -165 -4 -174 -12 -9
-10 -55 -12 -174 -10 -111 2 -157 -1 -147 -8 8 -5 53 -10 100 -10 59 0 80 -3
70 -10 -10 -6 -11 -10 -2 -10 6 0 12 -6 12 -14 0 -21 32 -30 42 -11 5 8 16 15
23 15 18 0 20 -20 3 -20 -7 0 -4 -6 7 -12 19 -11 32 -15 139 -37 27 -6 55 -16
63 -22 7 -7 32 -13 55 -15 23 -2 51 -12 62 -23 12 -10 31 -23 43 -30 11 -6 31
-32 43 -58 12 -27 26 -56 31 -66 6 -11 6 -24 -1 -37 -8 -14 -7 -25 2 -40 10
-16 10 -24 0 -40 -7 -12 -8 -20 -2 -20 6 0 10 -26 10 -60 0 -37 -4 -60 -11
-60 -7 0 -8 -14 -4 -40 4 -26 3 -40 -4 -40 -6 0 -11 -9 -11 -20 0 -15 9 -22
30 -26 34 -7 39 -28 13 -56 -15 -17 -15 -18 5 -18 12 0 22 5 22 10 0 6 9 10
21 10 12 0 34 11 51 25 16 14 42 25 58 25 28 0 28 0 13 30 -12 25 -18 29 -29
19 -8 -6 -14 -18 -14 -25 0 -8 -7 -14 -15 -14 -8 0 -15 9 -15 19 0 11 -8 27
-17 37 -10 9 -18 29 -20 43 -1 14 0 20 3 14 8 -19 51 -16 58 4 7 17 -12 36
-26 27 -4 -3 -8 0 -8 5 0 6 -13 11 -30 11 -16 0 -30 5 -30 10 0 6 5 10 10 10
6 0 10 11 10 25 0 18 5 25 20 25 11 0 20 7 20 15 0 9 6 12 15 9 11 -5 15 1 15
19 0 14 7 32 15 41 20 19 19 46 0 46 -25 0 -68 -49 -62 -71 3 -12 0 -19 -9
-19 -8 0 -14 6 -14 14 0 8 -12 19 -27 24 l-28 10 30 1 c28 1 32 5 43 49 8 26
16 66 19 89 l5 42 -43 11 c-31 9 -39 14 -28 21 8 5 26 9 42 9 34 0 37 32 5 48
-13 6 -17 11 -10 11 20 1 14 28 -8 34 -19 5 -29 27 -12 27 4 0 13 4 21 9 12 8
12 11 0 23 -8 8 -22 17 -31 21 -10 3 -18 16 -18 27 0 23 -5 23 -40 4z"/>
<path d="M3472 4471 c-7 -21 -12 -48 -12 -59 0 -12 -9 -26 -21 -32 -11 -7 -18
-14 -15 -17 3 -4 1 -12 -5 -20 -9 -10 -8 -17 1 -28 15 -17 -1 -20 -17 -4 -9 9
-16 2 -29 -30 -9 -22 -20 -41 -25 -41 -5 0 -9 -9 -9 -20 0 -16 -5 -19 -22 -15
-37 8 -50 -6 -35 -38 10 -23 18 -27 55 -27 57 0 90 -29 74 -64 -9 -21 -8 -23
9 -19 14 4 19 0 19 -16 0 -12 6 -21 15 -21 11 0 15 -11 15 -36 0 -21 -4 -33
-10 -29 -17 11 -23 -22 -24 -138 -1 -98 -3 -112 -18 -115 -11 -2 -18 3 -18 11
0 18 -32 47 -53 47 -10 0 -17 -8 -17 -20 0 -11 7 -20 15 -20 8 0 15 -9 15 -20
0 -17 7 -20 40 -20 33 0 40 -3 40 -20 0 -17 7 -20 40 -20 22 0 40 5 40 10 0 6
22 10 49 10 30 0 52 5 55 13 5 10 7 10 12 0 3 -7 14 -13 25 -13 16 0 19 -7 19
-50 l0 -50 81 0 80 0 -3 -27 c-2 -15 2 -28 10 -30 7 -3 12 4 12 17 0 12 5 18
10 15 6 -4 10 5 10 19 0 24 4 26 40 26 37 0 40 -2 40 -29 0 -17 6 -31 16 -35
25 -9 64 -7 64 4 0 6 -9 10 -19 10 -18 0 -20 7 -19 70 0 59 3 70 20 76 10 3
25 1 33 -6 9 -7 15 -8 20 0 10 16 35 12 35 -7 0 -10 -15 -25 -33 -34 -22 -11
-33 -24 -35 -42 l-3 -27 80 0 c74 0 81 2 81 20 0 13 7 20 20 20 11 0 20 5 20
10 0 6 9 10 20 10 11 0 20 -4 20 -10 0 -5 15 -10 33 -10 l32 1 -25 20 c-30 26
-48 77 -42 119 l5 33 -26 -19 c-15 -10 -27 -24 -27 -31 0 -6 -13 -18 -30 -26
-27 -14 -30 -14 -35 4 -4 13 -16 19 -34 19 -41 0 -91 11 -91 21 0 4 9 11 21
14 11 4 18 9 15 13 -8 7 -57 -19 -73 -38 -11 -13 -12 -13 -13 3 0 10 -7 20
-15 23 -24 10 -17 22 16 29 65 14 4 22 -184 23 -189 1 -192 1 -204 23 -9 18
-9 28 2 48 9 17 18 85 24 196 14 225 14 218 -9 237 -11 9 -18 23 -14 31 3 8
-2 17 -10 20 -9 4 -16 14 -16 23 0 9 -11 27 -24 39 -13 12 -27 36 -31 53 -10
46 -39 42 -53 -7z"/>
<path d="M9613 4323 c9 -2 17 -8 17 -13 0 -5 28 -12 63 -17 61 -7 62 -8 22
-14 -38 -6 -38 -6 -7 -8 41 -1 42 -21 1 -21 l-31 0 34 -33 c18 -19 34 -33 36
-32 1 1 28 -4 60 -11 31 -8 73 -14 93 -14 22 0 48 -10 69 -25 21 -16 28 -25
18 -25 -24 0 -27 -21 -10 -57 12 -25 22 -33 41 -33 43 0 71 11 72 29 0 10 2
11 6 4 8 -22 33 -14 33 10 0 14 3 18 8 10 5 -9 17 -10 37 -4 17 5 23 10 14 10
-20 1 -31 35 -16 50 8 8 7 11 -2 11 -7 0 -9 5 -5 12 5 8 -10 10 -59 5 -66 -6
-67 -6 -67 18 0 18 -5 25 -19 25 -26 0 -52 27 -45 45 4 10 0 15 -13 15 -10 0
-41 6 -69 13 -61 16 -74 13 -74 -19 0 -17 -6 -24 -20 -24 -14 0 -20 7 -20 24
0 13 6 26 13 29 6 2 1 7 -13 10 -14 3 -57 12 -96 21 -64 14 -117 21 -71 9z"/>
<path d="M2324 4263 c8 -78 8 -101 0 -145 -6 -36 -5 -38 20 -38 22 0 26 -4 26
-30 0 -19 5 -30 14 -30 8 0 16 -5 18 -12 3 -7 25 -11 63 -10 37 1 62 -3 67
-11 6 -9 8 -9 8 1 0 6 5 12 10 12 6 0 10 -7 10 -15 0 -8 -5 -15 -11 -15 -6 0
-3 -7 5 -16 15 -14 17 -14 32 1 15 14 14 17 -5 34 -12 10 -21 25 -21 34 0 9
-4 19 -10 22 -5 3 -10 17 -10 31 0 13 5 24 10 24 6 0 10 7 10 15 0 10 -16 16
-50 21 -27 4 -50 10 -50 15 0 5 -19 9 -43 9 -38 0 -44 3 -53 29 -6 16 -9 52
-6 80 4 48 3 51 -18 51 -21 0 -22 -3 -16 -57z"/>
<path d="M7068 4273 c-16 -2 -28 -11 -28 -19 0 -8 -7 -14 -15 -14 -16 0 -19
-17 -9 -44 6 -15 30 -20 152 -30 57 -5 62 -4 62 14 0 13 7 20 20 20 11 0 20
-6 20 -12 0 -20 20 14 20 34 0 14 -6 16 -29 12 -16 -4 -32 -1 -35 5 -4 6 -25
11 -47 11 -28 0 -39 4 -39 15 0 15 -15 17 -72 8z"/>
<path d="M4863 3846 c-13 -6 -23 -19 -23 -29 0 -27 -19 -57 -35 -57 -9 0 -12
-6 -9 -15 4 -8 1 -15 -6 -15 -7 0 -6 -6 4 -15 10 -11 13 -26 9 -45 -5 -26 -3
-30 17 -30 17 0 21 4 17 20 -5 18 0 20 39 20 40 0 44 -2 44 -25 0 -24 1 -25
60 -18 57 5 60 5 60 -16 0 -19 5 -21 60 -21 l61 0 -3 83 c-3 80 -4 82 -28 83
-14 1 -42 9 -62 18 -20 8 -57 17 -82 18 -40 1 -47 5 -58 30 -14 29 -28 33 -65
14z"/>
<path d="M3063 3713 c-7 -2 -13 -9 -13 -15 0 -5 -7 -16 -15 -24 -8 -9 -15 -11
-15 -5 0 6 -10 11 -22 10 -13 0 -17 -3 -10 -6 6 -2 12 -11 12 -19 0 -11 26
-14 140 -14 133 0 140 -1 140 -20 0 -17 7 -20 40 -20 38 0 54 13 28 23 -10 4
-10 6 0 6 6 1 12 6 12 11 0 6 -10 8 -24 4 -15 -3 -39 2 -64 15 -24 12 -60 21
-87 21 -38 0 -45 3 -45 20 0 16 -6 20 -32 19 -18 0 -39 -3 -45 -6z"/>
<path d="M4443 3525 c-7 -8 -13 -23 -13 -35 0 -11 -7 -20 -15 -20 -8 0 -15 5
-15 10 0 13 -33 13 -64 -1 -20 -9 -29 -9 -41 1 -12 10 -19 10 -38 -3 -17 -11
-28 -12 -41 -5 -10 5 -29 7 -43 3 -14 -3 -31 -1 -40 6 -12 10 -19 10 -35 0
-15 -9 -23 -9 -34 -1 -9 8 -36 10 -84 5 -52 -5 -75 -4 -86 6 -14 11 -18 10
-29 -4 -7 -10 -19 -15 -29 -11 -12 5 -16 0 -16 -21 l0 -27 78 8 c138 15 176
12 187 -13 8 -18 18 -23 48 -23 21 0 45 7 53 15 31 30 94 16 94 -22 0 -24 2
-25 38 -18 20 4 39 11 40 16 2 5 20 9 40 9 63 1 101 46 74 89 -12 18 -13 26
-4 29 6 2 12 8 12 13 0 14 -23 10 -37 -6z"/>
<path d="M7319 2443 c-3 -18 4 -49 12 -59 5 -6 10 -50 11 -98 2 -47 6 -86 11
-86 4 0 7 -11 7 -25 0 -14 5 -25 11 -25 5 0 8 -4 4 -9 -8 -14 14 -24 28 -13 7
5 37 13 67 16 78 10 94 25 91 83 -1 27 -9 55 -17 63 -12 12 -14 6 -14 -53 0
-79 -16 -90 -23 -14 -8 89 -28 147 -50 147 -11 0 -17 5 -14 13 2 6 0 23 -4 36
-8 20 -11 21 -25 10 -13 -11 -15 -25 -9 -81 3 -38 2 -68 -3 -68 -9 0 -32 86
-32 120 0 29 -47 68 -51 43z"/>
<path d="M4624 333 c-12 -27 -26 -59 -32 -73 l-10 -25 -12 30 c-10 27 -12 28
-22 11 -6 -10 -11 -54 -13 -98 -1 -43 -7 -84 -13 -90 -8 -8 -8 -17 -1 -30 9
-16 13 -17 26 -6 14 11 16 10 10 -14 -4 -15 -3 -30 3 -33 6 -4 10 6 10 24 0
20 5 31 14 31 12 0 13 7 5 33 -5 17 -14 33 -19 35 -17 6 -11 35 13 61 20 22
46 84 74 174 11 37 -13 15 -33 -30z"/>
</g>
</svg>
