<svg width="64" height="64" viewBox="0 0 64 64" fill="none" xmlns="http://www.w3.org/2000/svg">
<mask id="mask0_312_612" style="mask-type:alpha" maskUnits="userSpaceOnUse" x="0" y="0" width="64" height="64">
<rect width="64" height="64" fill="#D9D9D9"/>
</mask>
<g mask="url(#mask0_312_612)">
<path d="M32.0006 35.7046L18.4526 49.252C17.9273 49.7777 17.31 50.0406 16.6006 50.0406C15.8913 50.0406 15.274 49.7777 14.7486 49.252C14.2228 48.7266 13.96 48.1093 13.96 47.4C13.96 46.6906 14.2228 46.0733 14.7486 45.548L28.296 32L14.7486 18.452C14.2228 17.9266 13.96 17.3093 13.96 16.6C13.96 15.8906 14.2228 15.2733 14.7486 14.748C15.274 14.2222 15.8913 13.9593 16.6006 13.9593C17.31 13.9593 17.9273 14.2222 18.4526 14.748L32.0006 28.2953L45.5486 14.748C46.074 14.2222 46.6913 13.9593 47.4006 13.9593C48.11 13.9593 48.7273 14.2222 49.2526 14.748C49.7784 15.2733 50.0413 15.8906 50.0413 16.6C50.0413 17.3093 49.7784 17.9266 49.2526 18.452L35.7053 32L49.2526 45.548C49.7784 46.0733 50.0413 46.6906 50.0413 47.4C50.0413 48.1093 49.7784 48.7266 49.2526 49.252C48.7273 49.7777 48.11 50.0406 47.4006 50.0406C46.6913 50.0406 46.074 49.7777 45.5486 49.252L32.0006 35.7046Z" fill="white"/>
</g>
</svg>
