<svg width="48" height="48" viewBox="0 0 48 48" fill="none" xmlns="http://www.w3.org/2000/svg">
<g clip-path="url(#clip0_32_916)">
<path d="M48.0001 24.147C48.0001 10.809 37.2541 -0.00299072 24.0001 -0.00299072C10.7401 9.27784e-06 -0.00585938 10.809 -0.00585938 24.15C-0.00585938 36.201 8.77214 46.191 20.2441 48.003V31.128H14.1541V24.15H20.2501V18.825C20.2501 12.774 23.8351 9.43201 29.3161 9.43201C31.9441 9.43201 34.6891 9.90301 34.6891 9.90301V15.843H31.6621C28.6831 15.843 27.7531 17.706 27.7531 19.617V24.147H34.4071L33.3451 31.125H27.7501V48C39.2221 46.188 48.0001 36.198 48.0001 24.147Z" fill="white"/>
</g>
<defs>
<clipPath id="clip0_32_916">
<rect width="48" height="48" fill="white"/>
</clipPath>
</defs>
</svg>
