<svg width="96" height="96" viewBox="0 0 96 96" fill="none" xmlns="http://www.w3.org/2000/svg">
<mask id="mask0_30_327" style="mask-type:alpha" maskUnits="userSpaceOnUse" x="0" y="0" width="96" height="96">
<rect width="96" height="96" fill="#D9D9D9"/>
</mask>
<g mask="url(#mask0_30_327)">
<path d="M80.6999 68.7L54.3999 50.5C53.9332 50.1666 53.5999 49.7833 53.3999 49.35C53.1999 48.9166 53.0999 48.4666 53.0999 48C53.0999 47.5333 53.1999 47.0833 53.3999 46.65C53.5999 46.2166 53.9332 45.8333 54.3999 45.5L80.6999 27.3C80.9666 27.1 81.2332 26.95 81.4999 26.85C81.7666 26.75 82.0666 26.7 82.3999 26.7C83.1999 26.7 83.8999 26.9666 84.4999 27.5C85.0999 28.0333 85.3999 28.7666 85.3999 29.7V66.3C85.3999 67.2333 85.0999 67.9666 84.4999 68.5C83.8999 69.0333 83.1999 69.3 82.3999 69.3C82.0666 69.3 81.7666 69.25 81.4999 69.15C81.2332 69.05 80.9666 68.9 80.6999 68.7ZM40.4999 68.7L14.1999 50.5C13.7332 50.1666 13.3999 49.7833 13.1999 49.35C12.9999 48.9166 12.8999 48.4666 12.8999 48C12.8999 47.5333 12.9999 47.0833 13.1999 46.65C13.3999 46.2166 13.7332 45.8333 14.1999 45.5L40.4999 27.3C40.7666 27.1 41.0332 26.95 41.2999 26.85C41.5666 26.75 41.8666 26.7 42.1999 26.7C42.9999 26.7 43.6999 26.9666 44.2999 27.5C44.8999 28.0333 45.1999 28.7666 45.1999 29.7V66.3C45.1999 67.2333 44.8999 67.9666 44.2999 68.5C43.6999 69.0333 42.9999 69.3 42.1999 69.3C41.8666 69.3 41.5666 69.25 41.2999 69.15C41.0332 69.05 40.7666 68.9 40.4999 68.7Z" fill="white"/>
</g>
</svg>
