<svg width="96" height="96" viewBox="0 0 96 96" fill="none" xmlns="http://www.w3.org/2000/svg">
<mask id="mask0_30_333" style="mask-type:alpha" maskUnits="userSpaceOnUse" x="0" y="0" width="96" height="96">
<rect width="96" height="96" fill="#D9D9D9"/>
</mask>
<g mask="url(#mask0_30_333)">
<path d="M10.3999 66.3V29.7C10.3999 28.7666 10.6999 28.0333 11.2999 27.5C11.8999 26.9666 12.5999 26.7 13.3999 26.7C13.7332 26.7 14.0332 26.75 14.2999 26.85C14.5666 26.95 14.8332 27.1 15.0999 27.3L41.3999 45.5C41.8666 45.8333 42.1999 46.2166 42.3999 46.65C42.5999 47.0833 42.6999 47.5333 42.6999 48C42.6999 48.4666 42.5999 48.9166 42.3999 49.35C42.1999 49.7833 41.8666 50.1666 41.3999 50.5L15.0999 68.7C14.8332 68.9 14.5666 69.05 14.2999 69.15C14.0332 69.25 13.7332 69.3 13.3999 69.3C12.5999 69.3 11.8999 69.0333 11.2999 68.5C10.6999 67.9666 10.3999 67.2333 10.3999 66.3ZM51.0999 66.3V29.7C51.0999 28.7666 51.3999 28.0333 51.9999 27.5C52.5999 26.9666 53.2999 26.7 54.0999 26.7C54.4332 26.7 54.7332 26.75 54.9999 26.85C55.2666 26.95 55.5332 27.1 55.7999 27.3L82.0999 45.5C82.5666 45.8333 82.8999 46.2166 83.0999 46.65C83.2999 47.0833 83.3999 47.5333 83.3999 48C83.3999 48.4666 83.2999 48.9166 83.0999 49.35C82.8999 49.7833 82.5666 50.1666 82.0999 50.5L55.7999 68.7C55.5332 68.9 55.2666 69.05 54.9999 69.15C54.7332 69.25 54.4332 69.3 54.0999 69.3C53.2999 69.3 52.5999 69.0333 51.9999 68.5C51.3999 67.9666 51.0999 67.2333 51.0999 66.3Z" fill="white"/>
</g>
</svg>
