<svg width="50" height="48" viewBox="0 0 50 48" fill="none" xmlns="http://www.w3.org/2000/svg">
<g clip-path="url(#clip0_32_914)">
<path d="M25 0C18.2156 0 17.3625 0.03 14.6969 0.144C12.0312 0.264 10.2156 0.666 8.625 1.26C6.95576 1.86098 5.44419 2.8062 4.19688 4.029C2.92312 5.22642 1.93852 6.67753 1.3125 8.28C0.69375 9.804 0.271875 11.55 0.15 14.1C0.03125 16.665 0 17.481 0 24.003C0 30.519 0.03125 31.335 0.15 33.894C0.275 36.45 0.69375 38.193 1.3125 39.72C1.95312 41.298 2.80625 42.636 4.19688 43.971C5.58438 45.306 6.97813 46.128 8.62187 46.74C10.2156 47.334 12.0281 47.739 14.6906 47.856C17.3594 47.97 18.2094 48 25 48C31.7906 48 32.6375 47.97 35.3063 47.856C37.9656 47.736 39.7875 47.334 41.3781 46.74C43.0462 46.1386 44.5567 45.1934 45.8031 43.971C47.1937 42.636 48.0469 41.298 48.6875 39.72C49.3031 38.193 49.725 36.45 49.85 33.894C49.9688 31.335 50 30.519 50 24C50 17.481 49.9688 16.665 49.85 14.103C49.725 11.55 49.3031 9.804 48.6875 8.28C48.0615 6.67753 47.0769 5.22642 45.8031 4.029C44.5558 2.8062 43.0442 1.86098 41.375 1.26C39.7812 0.666 37.9625 0.261 35.3031 0.144C32.6344 0.03 31.7875 0 24.9937 0H25ZM22.7594 4.326H25.0031C31.6781 4.326 32.4688 4.347 35.1031 4.464C37.5406 4.569 38.8656 4.962 39.7469 5.289C40.9125 5.724 41.7469 6.246 42.6219 7.086C43.4969 7.926 44.0375 8.724 44.4906 9.846C44.8344 10.689 45.2406 11.961 45.35 14.301C45.4719 16.83 45.4969 17.589 45.4969 23.994C45.4969 30.399 45.4719 31.161 45.35 33.69C45.2406 36.03 44.8313 37.299 44.4906 38.145C44.087 39.1857 43.4476 40.1274 42.6187 40.902C41.7437 41.742 40.9125 42.261 39.7438 42.696C38.8688 43.026 37.5438 43.416 35.1031 43.524C32.4688 43.638 31.6781 43.665 25.0031 43.665C18.3281 43.665 17.5344 43.638 14.9 43.524C12.4625 43.416 11.1406 43.026 10.2594 42.696C9.17448 42.3098 8.19249 41.697 7.38437 40.902C6.55398 40.1268 5.91353 39.1841 5.50938 38.142C5.16875 37.299 4.75938 36.027 4.65 33.687C4.53125 31.158 4.50625 30.399 4.50625 23.988C4.50625 17.577 4.53125 16.824 4.65 14.295C4.7625 11.955 5.16875 10.683 5.5125 9.837C5.96563 8.718 6.50937 7.917 7.38437 7.077C8.25937 6.237 9.09062 5.718 10.2594 5.283C11.1406 4.953 12.4625 4.563 14.9 4.455C17.2063 4.353 18.1 4.323 22.7594 4.32V4.326ZM38.3469 8.31C37.9529 8.31 37.5628 8.38449 37.1988 8.52923C36.8348 8.67396 36.5041 8.8861 36.2256 9.15353C35.947 9.42097 35.726 9.73845 35.5752 10.0879C35.4245 10.4373 35.3469 10.8118 35.3469 11.19C35.3469 11.5682 35.4245 11.9427 35.5752 12.2921C35.726 12.6415 35.947 12.959 36.2256 13.2265C36.5041 13.4939 36.8348 13.706 37.1988 13.8508C37.5628 13.9955 37.9529 14.07 38.3469 14.07C39.1425 14.07 39.9056 13.7666 40.4682 13.2265C41.0308 12.6864 41.3469 11.9538 41.3469 11.19C41.3469 10.4262 41.0308 9.69364 40.4682 9.15353C39.9056 8.61343 39.1425 8.31 38.3469 8.31ZM25.0031 11.676C23.3002 11.6505 21.609 11.9505 20.0281 12.5584C18.4471 13.1664 17.0079 14.0702 15.7942 15.2173C14.5806 16.3643 13.6168 17.7317 12.9589 19.2398C12.301 20.7479 11.9622 22.3665 11.9622 24.0015C11.9622 25.6365 12.301 27.2551 12.9589 28.7632C13.6168 30.2713 14.5806 31.6387 15.7942 32.7857C17.0079 33.9328 18.4471 34.8366 20.0281 35.4446C21.609 36.0525 23.3002 36.3525 25.0031 36.327C28.3736 36.2765 31.5882 34.9557 33.9531 32.6497C36.3179 30.3438 37.6434 27.2375 37.6434 24.0015C37.6434 20.7655 36.3179 17.6592 33.9531 15.3532C31.5882 13.0473 28.3736 11.7265 25.0031 11.676ZM25.0031 15.999C26.0976 15.999 27.1814 16.206 28.1926 16.608C29.2037 17.0101 30.1225 17.5995 30.8964 18.3424C31.6703 19.0854 32.2842 19.9674 32.7031 20.9382C33.1219 21.9089 33.3375 22.9493 33.3375 24C33.3375 25.0507 33.1219 26.0911 32.7031 27.0618C32.2842 28.0326 31.6703 28.9146 30.8964 29.6576C30.1225 30.4005 29.2037 30.9899 28.1926 31.392C27.1814 31.794 26.0976 32.001 25.0031 32.001C22.7927 32.001 20.6728 31.158 19.1098 29.6576C17.5468 28.1571 16.6688 26.122 16.6688 24C16.6688 21.878 17.5468 19.8429 19.1098 18.3424C20.6728 16.842 22.7927 15.999 25.0031 15.999Z" fill="white"/>
</g>
<defs>
<clipPath id="clip0_32_914">
<rect width="50" height="48" fill="white"/>
</clipPath>
</defs>
</svg>
