<?xml version="1.0" standalone="no"?>
<!DOCTYPE svg PUBLIC "-//W3C//DTD SVG 20010904//EN"
 "http://www.w3.org/TR/2001/REC-SVG-20010904/DTD/svg10.dtd">
<svg version="1.0" xmlns="http://www.w3.org/2000/svg"
 width="1285.000000pt" height="1327.000000pt" viewBox="0 0 1285.000000 1327.000000"
 preserveAspectRatio="xMidYMid meet">
<metadata>
Created by potrace 1.16, written by Peter Selinger 2001-2019
</metadata>
<g transform="translate(0.000000,1327.000000) scale(0.100000,-0.100000)"
fill="#000000" stroke="none">
<path d="M11310 12091 c-53 -29 -82 -60 -148 -159 -60 -91 -87 -125 -217 -272
-77 -87 -322 -322 -382 -366 -21 -16 -83 -67 -138 -114 -55 -47 -115 -96 -134
-110 -19 -13 -75 -60 -125 -104 -145 -127 -538 -415 -663 -485 l-53 -29 0 61
c0 72 -22 116 -72 148 -28 17 -46 19 -123 17 -92 -4 -131 -17 -255 -86 -19
-11 -71 -36 -115 -57 -68 -32 -216 -104 -657 -320 l-66 -32 -109 52 c-191 93
-446 213 -513 240 -36 15 -94 42 -130 60 -230 116 -259 127 -360 132 -84 4
-99 2 -128 -16 -34 -22 -72 -75 -72 -101 0 -12 -15 -14 -84 -12 -69 3 -91 0
-124 -17 -41 -21 -77 -58 -87 -90 -4 -15 -13 -16 -53 -10 -66 10 -227 74 -280
112 -40 29 -52 32 -131 35 -97 3 -136 -12 -169 -68 l-19 -30 -22 30 c-40 55
-81 67 -243 75 l-146 8 -99 -47 c-55 -25 -102 -46 -106 -46 -4 0 -40 -15 -80
-33 -40 -18 -97 -44 -127 -56 -30 -13 -95 -42 -145 -66 -49 -23 -112 -52 -140
-63 -27 -11 -84 -34 -125 -51 l-75 -31 -165 86 c-91 48 -230 120 -310 162
-160 83 -306 159 -420 221 -66 35 -83 41 -141 41 -75 0 -117 -21 -156 -79 -18
-27 -23 -48 -23 -103 0 -38 -3 -68 -7 -66 -52 23 -308 202 -518 360 -66 50
-154 115 -195 145 -41 31 -82 63 -90 72 -8 9 -53 47 -100 85 -308 248 -744
694 -820 838 -54 101 -124 148 -223 148 -73 0 -116 -22 -154 -79 -20 -30 -23
-46 -23 -137 0 -67 5 -117 14 -141 14 -37 24 -94 50 -308 18 -146 66 -341 118
-480 62 -165 180 -387 268 -503 35 -46 36 -49 18 -61 -43 -27 -58 -71 -58
-173 0 -109 14 -157 102 -353 79 -176 135 -266 286 -460 25 -33 97 -110 159
-171 110 -109 112 -112 84 -117 -35 -7 -87 -50 -106 -88 -22 -42 -19 -154 5
-208 20 -43 20 -45 1 -65 -32 -36 -41 -63 -41 -124 0 -69 29 -156 66 -195 21
-23 24 -36 24 -102 0 -74 12 -117 45 -155 9 -10 11 -33 8 -66 -5 -48 -8 -53
-47 -75 -104 -58 -210 -144 -247 -198 -22 -33 -29 -56 -29 -91 0 -53 -6 -60
-159 -185 -114 -93 -182 -157 -197 -187 -8 -15 -14 -56 -14 -95 0 -78 25 -134
76 -168 l30 -21 -119 -139 c-66 -77 -140 -169 -165 -205 -25 -36 -70 -98 -99
-138 -65 -88 -83 -134 -83 -217 0 -48 5 -70 23 -96 31 -46 91 -79 147 -79 l45
-1 -131 -127 c-73 -70 -139 -141 -148 -159 -19 -37 -22 -173 -5 -204 8 -15 6
-32 -5 -66 -9 -26 -16 -74 -16 -107 0 -71 22 -115 72 -147 29 -18 44 -20 125
-16 67 4 104 11 140 28 26 13 53 25 58 28 13 6 -86 -106 -199 -224 -97 -102
-116 -141 -116 -245 0 -95 22 -125 128 -177 2 0 -4 -15 -12 -32 -23 -44 -21
-148 4 -189 36 -59 71 -72 198 -72 l112 0 0 -67 c0 -79 20 -121 72 -153 27
-16 51 -20 123 -20 50 0 111 7 138 15 26 8 47 11 47 7 0 -16 -145 -185 -255
-297 -65 -66 -124 -134 -131 -152 -22 -51 -18 -171 6 -211 33 -54 74 -72 163
-72 46 0 89 6 105 14 15 7 40 16 55 20 l29 7 -6 -93 c-10 -134 26 -399 62
-465 7 -12 12 -33 12 -46 0 -61 86 -137 154 -137 40 0 42 -2 69 -58 18 -39 27
-73 27 -107 0 -84 62 -155 136 -155 24 0 36 -8 55 -37 13 -21 40 -48 59 -61
31 -21 44 -23 116 -20 70 3 85 7 118 31 20 16 44 43 52 61 9 17 32 41 52 51
50 28 68 56 107 170 19 54 38 102 42 106 5 5 7 -45 5 -110 -3 -113 14 -246 38
-290 4 -9 13 -49 18 -90 14 -95 39 -132 120 -173 49 -25 62 -36 62 -55 0 -13
5 -23 12 -23 6 0 9 -3 5 -6 -8 -8 34 -54 45 -48 4 3 8 -2 8 -10 0 -11 9 -16
29 -16 16 0 37 -3 47 -7 12 -4 15 -3 10 5 -4 7 -3 12 3 12 30 0 68 -28 147
-108 113 -113 166 -142 264 -142 50 0 82 6 108 19 41 21 133 115 155 158 14
28 39 123 52 196 4 25 20 54 46 82 22 24 60 79 85 122 l44 78 68 -3 c65 -3 69
-5 115 -50 30 -30 54 -66 67 -99 11 -29 24 -61 29 -70 5 -10 15 -38 21 -63 9
-32 27 -59 69 -100 31 -30 67 -69 79 -87 34 -48 132 -93 203 -93 l59 0 37 -57
c116 -183 125 -195 171 -224 44 -29 52 -30 134 -27 73 3 91 7 119 27 l33 25
36 -44 c75 -94 197 -213 235 -231 88 -41 223 -18 274 47 l21 27 0 -69 c0 -80
20 -122 72 -154 28 -17 45 -20 103 -16 158 11 221 21 252 41 33 21 82 81 123
150 13 22 25 42 27 44 1 2 12 -8 24 -23 25 -32 89 -66 123 -66 16 0 27 -7 31
-19 38 -122 248 -152 341 -49 41 44 54 84 54 163 l0 76 78 85 c42 46 82 84 88
84 7 0 23 -24 38 -52 35 -72 80 -101 162 -106 78 -5 104 1 141 32 16 14 41 28
55 31 37 9 84 52 121 111 18 28 59 92 92 142 33 50 72 113 87 139 16 27 46 75
67 108 22 33 57 93 78 134 38 74 131 174 192 205 28 15 28 15 70 -45 45 -64
112 -193 129 -249 34 -110 35 -118 23 -151 -6 -17 -11 -64 -11 -104 0 -58 4
-78 23 -105 43 -65 68 -75 175 -75 108 0 104 -2 254 119 l60 48 -7 -148 c-7
-146 -6 -150 17 -183 41 -60 71 -75 154 -79 83 -5 119 6 157 46 40 43 116 196
137 275 23 87 37 138 56 197 37 116 56 202 64 280 5 47 16 132 24 190 8 58 16
161 17 230 1 78 4 114 9 95 21 -85 75 -162 130 -185 21 -9 30 -19 30 -35 0
-33 41 -87 85 -112 48 -27 150 -31 194 -9 51 27 87 79 105 152 29 116 39 144
50 144 21 0 84 52 102 85 16 30 24 35 54 35 69 0 152 71 166 139 6 34 27 109
55 196 18 58 22 102 27 253 l5 184 31 -6 c17 -3 67 -9 112 -12 92 -8 121 3
172 61 39 44 45 67 40 154 -4 86 -30 125 -139 218 -69 58 -258 266 -268 295
-2 7 3 8 15 3 33 -14 117 -27 206 -32 100 -5 131 6 175 63 22 30 28 49 31 105
l4 69 108 0 c95 0 111 3 141 23 53 35 79 90 79 167 0 51 -5 74 -24 104 l-23
39 34 30 c19 16 41 43 49 58 18 36 18 149 -1 195 -8 19 -75 97 -150 173 -74
76 -135 141 -135 145 0 3 24 -4 53 -16 60 -26 174 -35 227 -19 20 6 51 27 70
46 l35 36 1 107 c1 59 6 120 13 135 16 40 14 140 -4 184 -10 25 -66 88 -157
178 l-142 140 56 5 c35 3 67 13 85 26 78 58 97 178 44 282 -50 98 -226 323
-372 477 l-77 80 31 20 c29 19 90 105 122 172 19 41 20 164 1 201 -38 72 -105
104 -217 101 -79 -2 -81 -1 -117 33 -20 19 -54 47 -74 63 -35 25 -38 31 -38
77 0 62 -27 113 -81 151 -38 27 -39 30 -39 85 0 90 -64 173 -146 188 l-33 6
22 29 c16 23 22 49 27 117 3 48 9 93 13 100 5 6 23 12 41 12 43 0 95 36 123
85 18 32 23 56 23 116 0 89 -21 130 -84 165 l-39 22 2 79 c1 63 -2 84 -19 111
-22 36 -70 70 -112 79 -26 5 -26 6 35 61 208 188 422 461 507 647 17 39 42 93
56 120 13 28 24 58 24 67 0 8 9 35 20 59 14 32 20 66 20 122 0 77 -7 105 -38
140 -9 10 -21 34 -28 54 -12 35 -11 39 24 90 54 79 159 259 189 323 45 98 93
221 93 240 0 10 9 42 19 72 24 67 51 184 51 223 0 17 7 73 16 125 25 153 45
327 50 440 5 119 -7 153 -68 190 -44 27 -148 27 -198 1z m92 -240 c-5 -3 -12
-55 -16 -115 -4 -60 -11 -119 -16 -131 -5 -12 -14 -75 -20 -141 -7 -65 -16
-127 -21 -136 -5 -10 -9 -29 -9 -43 0 -13 -11 -59 -25 -101 -14 -42 -25 -84
-25 -93 0 -10 -9 -36 -20 -59 -11 -22 -20 -45 -20 -51 0 -5 -8 -26 -19 -48
-10 -21 -24 -49 -30 -63 -6 -14 -22 -43 -35 -65 -38 -63 -55 -93 -72 -126 -9
-17 -22 -33 -30 -36 -8 -3 -14 -14 -14 -24 0 -10 -4 -19 -8 -19 -5 0 -15 -12
-22 -27 -8 -16 -31 -45 -52 -65 -21 -21 -38 -41 -38 -45 0 -3 -7 -13 -15 -22
-123 -129 -237 -241 -243 -241 -4 0 -23 -18 -42 -40 -19 -22 -40 -40 -47 -40
-6 0 -15 -9 -18 -20 -3 -11 -12 -20 -18 -20 -7 0 -28 -18 -47 -40 -19 -22 -38
-40 -42 -40 -3 0 -22 -15 -40 -32 -49 -47 -167 -151 -209 -185 -19 -15 -41
-34 -49 -40 -31 -26 -77 -60 -117 -86 -32 -20 -43 -23 -43 -13 0 8 8 21 18 28
10 7 21 21 25 32 6 16 3 18 -20 13 -16 -3 -38 -8 -50 -12 -31 -10 -29 8 5 45
47 52 52 59 52 75 0 8 5 15 10 15 6 0 10 5 10 10 0 7 -6 7 -19 0 -11 -5 -29
-10 -41 -10 -11 0 -23 -7 -26 -15 -3 -8 -21 -19 -40 -25 -19 -6 -37 -17 -41
-24 -5 -7 -21 -16 -38 -20 -16 -4 -25 -3 -19 1 6 4 13 13 15 20 2 6 24 33 49
60 25 26 90 98 145 158 54 61 106 118 114 127 34 36 43 50 57 86 l15 37 -25
-30 c-14 -16 -25 -27 -26 -23 0 4 -11 -4 -24 -17 -35 -35 -124 -77 -147 -70
-12 4 -19 2 -19 -7 0 -7 -11 0 -24 17 -21 27 -22 31 -9 52 34 51 15 109 -34
100 -25 -5 -46 13 -42 35 2 7 -3 24 -10 37 -7 12 -11 32 -8 42 8 29 -14 23
-73 -21 -29 -22 -58 -40 -64 -40 -5 0 -18 -7 -28 -17 -21 -19 -49 -36 -95 -58
-18 -8 -33 -19 -33 -24 0 -5 -14 -14 -31 -21 -17 -7 -36 -18 -43 -24 -18 -17
-48 -35 -83 -51 -17 -8 -35 -20 -38 -25 -4 -6 -17 -15 -28 -20 -12 -6 -40 -21
-62 -35 -22 -13 -56 -34 -75 -45 -19 -11 -48 -29 -65 -40 -35 -22 -168 -93
-248 -132 -11 -5 -21 -8 -23 -5 -5 5 74 57 87 57 5 0 9 4 9 8 0 5 18 17 40 27
22 10 40 22 40 26 0 4 14 15 30 23 17 9 43 23 60 32 16 8 32 19 35 24 3 5 19
16 35 24 17 9 43 23 59 31 16 9 34 22 41 30 7 8 18 15 26 15 7 0 19 6 26 13 7
7 31 24 53 37 80 50 136 86 151 97 14 11 43 30 84 53 44 25 129 84 153 104 9
9 20 16 23 16 6 0 93 59 110 75 6 5 22 17 34 25 27 18 111 81 126 95 6 6 22
17 34 25 20 14 57 40 119 87 13 10 31 26 39 36 9 9 22 17 29 17 7 0 13 4 13 8
0 8 112 100 135 112 6 3 27 21 48 40 21 19 50 45 63 58 14 12 29 22 34 22 4 0
10 4 12 8 2 4 35 34 73 66 181 150 525 489 525 517 0 5 9 13 20 19 11 6 20 17
20 25 0 8 5 15 10 15 6 0 19 15 30 33 25 41 41 64 61 88 9 11 22 33 29 49 7
17 16 30 20 30 4 0 11 10 15 23 7 19 9 16 12 -17 3 -21 0 -42 -5 -45z m-9932
29 c7 -16 16 -30 21 -30 5 0 9 -9 9 -20 0 -11 3 -20 8 -20 4 0 34 -36 66 -80
32 -44 63 -80 68 -80 5 0 12 -8 15 -17 7 -20 453 -473 465 -473 4 0 20 -13 36
-29 15 -16 72 -66 127 -111 55 -45 102 -86 103 -91 2 -5 9 -9 17 -9 7 0 19 -9
26 -19 8 -11 55 -50 104 -87 50 -37 94 -73 98 -81 4 -7 13 -13 19 -13 5 0 24
-11 42 -25 17 -14 41 -33 54 -42 13 -10 29 -22 35 -28 7 -5 30 -22 53 -38 22
-15 50 -35 60 -45 11 -9 27 -21 36 -27 9 -5 37 -25 62 -42 26 -18 51 -33 56
-33 5 0 14 -9 20 -20 6 -11 16 -20 22 -20 12 0 82 -45 106 -67 7 -7 19 -13 26
-13 8 0 20 -7 27 -16 7 -9 22 -20 34 -25 21 -9 46 -24 165 -99 86 -54 140 -86
160 -96 22 -11 94 -58 100 -65 3 -4 21 -14 40 -23 38 -17 67 -35 86 -52 7 -6
26 -17 43 -24 17 -7 31 -16 31 -20 0 -4 18 -15 40 -25 22 -10 40 -22 40 -27 0
-4 9 -8 20 -8 11 0 20 -4 20 -9 0 -5 13 -14 29 -21 34 -14 67 -47 57 -57 -6
-7 -88 33 -203 98 l-52 30 -16 -36 c-10 -21 -14 -42 -10 -52 22 -51 13 -73
-32 -73 -13 0 -24 -8 -28 -19 -3 -11 -19 -22 -35 -26 -39 -9 -240 24 -258 41
-7 8 -31 14 -51 14 -22 0 -44 6 -51 15 -8 10 -30 15 -61 15 -39 0 -49 -4 -54
-20 -3 -11 -15 -20 -25 -20 -24 0 -70 21 -70 32 0 4 -4 8 -10 8 -15 0 -12 -26
5 -40 17 -14 20 -56 5 -65 -15 -10 -12 -52 5 -59 19 -7 20 -42 1 -49 -23 -9
-58 4 -105 41 -47 35 -90 56 -99 48 -6 -7 32 -56 93 -120 25 -27 44 -51 41
-53 -7 -7 -76 17 -76 26 0 8 -126 101 -136 101 -3 0 -32 20 -64 45 -32 25 -62
45 -67 45 -4 0 -14 9 -21 20 -7 11 -17 20 -23 20 -10 0 -88 59 -130 100 -9 8
-39 34 -65 57 -27 23 -71 61 -99 85 -60 52 -370 364 -440 443 -27 31 -58 64
-67 73 -10 9 -18 22 -18 28 0 7 -3 14 -8 16 -10 4 -72 84 -72 94 0 4 -8 16
-17 27 -21 23 -69 107 -113 197 -18 36 -41 82 -51 103 -10 22 -19 45 -19 52 0
8 -8 29 -19 47 -10 18 -24 60 -31 93 -7 33 -16 65 -20 70 -4 6 -10 32 -14 59
-3 26 -12 67 -20 90 -8 22 -17 86 -21 141 -4 55 -11 105 -15 110 -4 6 -11 44
-15 85 -3 41 -13 93 -21 115 -30 88 -7 156 26 75z m2158 -1399 c26 -15 65 -36
85 -46 20 -9 37 -21 37 -26 0 -5 7 -9 14 -9 16 0 284 -134 300 -150 6 -6 17
-10 25 -10 9 0 27 -9 41 -20 14 -11 33 -20 43 -20 9 0 17 -4 17 -9 0 -5 8 -11
18 -15 9 -3 76 -37 147 -76 72 -38 154 -81 183 -95 52 -25 102 -33 102 -16 0
5 18 11 40 15 22 3 40 11 40 16 0 5 18 15 40 21 22 7 40 16 40 21 0 4 8 8 18
8 10 0 35 9 57 20 22 11 44 20 50 20 9 0 85 36 160 77 11 6 39 17 63 24 23 7
42 16 42 21 0 4 8 8 18 8 22 0 72 22 72 33 0 4 9 7 19 7 11 0 22 4 26 9 3 5
28 17 56 26 28 10 81 33 118 51 61 31 101 42 101 28 0 -3 -9 -17 -20 -31 -11
-14 -20 -30 -20 -36 0 -11 70 -2 79 10 5 7 23 17 93 51 4 2 0 -15 -9 -37 -8
-22 -13 -46 -10 -53 2 -7 40 -24 83 -37 44 -13 98 -32 121 -42 24 -11 52 -19
62 -19 11 0 23 -4 26 -10 3 -5 19 -10 35 -10 16 0 32 -4 35 -10 3 -5 15 -10
27 -10 23 0 22 13 -6 85 -16 43 -22 145 -7 145 5 0 14 -7 21 -15 7 -8 18 -15
25 -15 7 0 18 -6 24 -13 6 -8 30 -19 53 -27 24 -7 52 -18 63 -26 11 -8 28 -14
38 -14 10 0 35 -9 57 -20 22 -11 50 -20 64 -20 14 0 41 -9 61 -20 20 -11 51
-20 70 -20 18 0 37 -4 40 -10 13 -21 145 -4 165 21 3 3 22 9 43 13 20 4 37 10
37 13 0 9 -32 32 -57 43 -13 5 -23 15 -23 22 0 7 -9 19 -20 26 -34 21 -24 35
17 27 21 -4 40 -10 43 -15 3 -4 30 -11 60 -15 30 -4 69 -13 85 -22 23 -11 151
-32 198 -33 10 0 -21 54 -45 80 -10 11 -18 25 -18 31 0 7 -7 19 -15 28 -8 9
-27 31 -41 49 l-27 33 29 -6 c16 -4 47 -15 69 -25 22 -10 55 -23 73 -30 17 -7
32 -16 32 -20 0 -5 18 -11 40 -15 22 -4 40 -10 40 -14 0 -6 49 -30 170 -84
131 -58 146 -65 190 -88 8 -4 30 -14 48 -21 17 -7 32 -16 32 -19 0 -4 13 -9
29 -12 16 -3 35 -13 43 -21 8 -8 32 -18 52 -21 20 -4 36 -11 36 -15 0 -5 17
-14 38 -21 20 -6 39 -15 42 -18 3 -3 32 -19 65 -35 33 -16 68 -33 77 -37 24
-12 74 -11 98 1 11 6 30 15 42 22 35 17 51 25 78 37 14 6 32 15 40 20 8 5 38
18 65 30 28 12 58 26 67 32 10 5 26 13 35 18 10 5 51 24 91 43 39 18 72 36 72
40 0 4 7 8 15 8 12 0 79 32 145 69 47 26 192 91 204 91 8 0 17 4 21 9 7 12
165 91 182 91 22 0 16 -8 -57 -81 -38 -38 -70 -76 -70 -83 0 -8 -4 -16 -9 -18
-5 -2 -34 -34 -65 -73 -31 -38 -62 -77 -68 -85 -7 -8 -35 -41 -61 -75 -95
-119 -112 -140 -134 -161 -13 -12 -23 -24 -23 -26 0 -12 -150 -161 -156 -156
-3 4 7 19 23 35 39 39 93 110 93 122 0 6 9 15 20 21 11 6 20 17 20 25 0 8 4
15 8 15 4 0 15 12 24 28 22 35 49 70 71 90 9 9 17 20 17 25 0 7 55 83 70 97 3
3 20 33 38 68 l31 62 -27 -6 c-15 -3 -58 -20 -97 -38 -152 -72 -351 -168 -365
-177 -16 -10 -39 -20 -115 -52 -27 -12 -61 -29 -74 -39 -13 -10 -30 -18 -38
-18 -7 0 -30 -8 -51 -19 -20 -10 -59 -26 -85 -35 l-48 -16 -68 35 c-37 19 -74
35 -82 35 -8 0 -25 9 -39 20 -14 11 -30 20 -37 20 -10 0 -47 17 -134 61 -20
11 -42 19 -48 19 -6 0 -43 16 -82 35 -77 38 -122 48 -79 18 14 -10 28 -17 32
-16 15 5 -1 -91 -16 -103 -9 -6 -16 -19 -16 -28 0 -14 -4 -15 -20 -6 -16 9
-22 8 -26 -5 -7 -16 -34 -17 -46 0 -5 6 -8 4 -8 -5 0 -10 -7 -7 -20 10 -11 14
-20 20 -20 13 0 -19 -30 -43 -46 -36 -10 4 -15 17 -14 42 3 62 5 60 -69 58
-38 -1 -73 -5 -77 -10 -4 -4 -24 -7 -45 -7 -21 0 -41 -5 -44 -10 -4 -6 -10 -8
-15 -5 -5 3 -27 7 -49 9 -36 4 -41 1 -41 -16 0 -15 -4 -18 -17 -13 -23 8 -24
8 -50 0 -13 -4 -23 -11 -23 -16 0 -5 8 -6 18 -3 13 5 14 4 3 -4 -8 -6 -20 -8
-28 -5 -7 3 -20 0 -28 -7 -8 -6 -19 -9 -25 -5 -7 4 -7 -3 1 -22 5 -15 7 -25 4
-21 -4 4 -17 3 -29 -2 -36 -13 -56 5 -49 45 4 28 2 35 -11 35 -9 0 -16 3 -17
8 0 4 -2 18 -3 30 -4 39 -60 58 -84 29 -6 -7 -26 -19 -45 -26 -28 -11 -33 -18
-29 -35 3 -11 9 -26 14 -32 4 -6 6 -19 2 -28 -7 -17 11 -22 21 -6 4 6 19 8 33
6 15 -2 32 -5 39 -5 7 -1 10 -8 7 -16 -5 -12 -2 -13 12 -8 18 7 18 6 2 -11
-10 -9 -18 -21 -18 -26 0 -5 -10 -12 -22 -16 -12 -3 -30 -15 -41 -25 -18 -16
-21 -17 -35 -2 -23 22 -43 63 -31 63 5 0 9 4 9 8 0 12 -43 12 -57 0 -9 -8 -13
-7 -13 2 0 7 -7 10 -15 6 -8 -3 -15 0 -15 6 0 16 -11 3 -14 -17 -3 -22 -24
-34 -49 -27 -15 4 -18 2 -12 -8 6 -10 4 -12 -9 -7 -10 4 -19 1 -22 -8 -9 -21
-17 -19 -53 15 -18 18 -31 40 -31 54 0 14 -4 28 -10 31 -5 3 -10 15 -10 25 0
41 -25 35 -198 -53 -55 -28 -80 -56 -74 -79 1 -5 -3 -8 -9 -8 -6 0 -9 -7 -5
-15 3 -8 0 -15 -6 -15 -7 0 -6 -5 2 -15 9 -11 9 -15 1 -15 -7 0 -9 -5 -4 -12
12 -21 12 -38 0 -38 -8 0 -8 -3 1 -9 17 -11 -8 -32 -34 -29 -36 4 -94 -14 -94
-29 0 -13 -2 -13 -17 -2 -15 12 -16 12 -9 -6 17 -40 17 -61 2 -74 -21 -17 -58
20 -56 57 4 62 3 63 -32 48 -18 -7 -32 -18 -30 -25 1 -6 -3 -10 -9 -9 -6 2
-12 -14 -14 -35 -3 -22 0 -35 5 -32 18 11 11 -1 -12 -21 -13 -12 -18 -13 -13
-4 6 11 3 10 -12 -3 -11 -9 -23 -14 -27 -10 -4 4 -11 1 -17 -7 -8 -13 -10 -13
-19 0 -6 10 -10 11 -10 2 0 -6 -5 -11 -11 -10 -6 2 -14 -4 -16 -12 -3 -9 -1
-11 4 -5 4 6 14 11 22 13 12 3 12 0 2 -12 -13 -16 1 -21 104 -43 32 -6 40 -13
41 -31 1 -17 -2 -20 -12 -11 -11 9 -15 7 -20 -7 -9 -31 -21 -49 -30 -49 -15 0
-87 -37 -102 -52 -7 -7 -22 -13 -32 -13 -10 0 -21 -4 -25 -9 -3 -5 -22 -15
-43 -21 -104 -32 -116 -48 -57 -76 19 -9 33 -20 30 -24 -2 -4 11 -6 30 -4 20
1 39 -4 46 -12 6 -7 15 -12 19 -9 4 2 5 -7 2 -20 -3 -20 -10 -25 -35 -25 -17
0 -39 -7 -49 -16 -13 -12 -21 -14 -30 -6 -7 6 -15 10 -18 10 -15 -2 -57 17
-73 33 -15 16 -21 17 -37 7 -11 -7 -25 -26 -32 -43 -16 -37 -14 -163 4 -210 9
-27 9 -38 0 -47 -7 -7 -12 -19 -12 -27 0 -51 -249 -76 -295 -30 -5 5 -18 9
-28 9 -10 0 -21 9 -24 20 -3 10 -17 27 -32 36 -28 19 -101 28 -101 12 0 -19
31 -68 40 -63 6 4 10 -3 10 -14 0 -31 -7 -29 -145 42 -16 8 -73 36 -125 61
-52 26 -111 56 -130 68 -19 12 -44 26 -55 32 -31 18 -150 93 -170 109 -24 18
-86 57 -92 57 -3 0 -24 15 -47 33 -23 19 -51 39 -63 46 -12 6 -34 23 -49 36
-21 19 -23 25 -10 25 9 0 24 -4 34 -9 103 -50 190 -80 358 -124 49 -14 100
-29 111 -36 12 -6 34 -11 50 -11 30 -1 180 -39 228 -59 35 -15 164 -35 172
-27 13 12 -8 35 -38 41 -19 4 -40 11 -49 16 -8 4 -87 43 -175 86 -88 42 -186
92 -218 110 -33 18 -64 33 -70 33 -7 0 -23 9 -37 20 -14 11 -33 20 -42 20 -10
0 -18 5 -18 11 0 7 13 9 38 5 20 -3 78 -10 127 -15 50 -5 110 -15 135 -21 80
-20 184 -40 187 -36 8 8 -48 56 -65 56 -9 0 -45 18 -80 40 -34 22 -67 40 -71
40 -5 0 -14 7 -21 15 -7 8 -24 21 -39 28 -49 25 -76 42 -83 53 -4 6 -25 19
-48 29 -22 10 -40 22 -40 27 0 4 -6 8 -13 8 -14 0 -166 153 -227 229 -19 24
-45 53 -57 64 -13 11 -23 25 -23 30 0 8 -62 88 -100 128 -8 10 -31 40 -50 68
-19 27 -38 50 -42 51 -5 0 -8 5 -8 11 0 7 -10 21 -22 33 -30 29 -65 71 -108
129 -19 26 -50 64 -67 85 -53 60 -42 68 35 23z m-1706 -370 c8 -9 20 -28 28
-43 7 -16 17 -28 22 -28 4 0 8 -5 8 -11 0 -7 10 -22 23 -34 12 -12 43 -44 68
-71 25 -27 65 -65 88 -84 24 -19 50 -43 60 -52 22 -23 90 -68 101 -68 6 0 15
-9 22 -20 7 -11 17 -20 21 -20 8 0 96 -58 107 -71 3 -3 19 -12 35 -21 49 -24
109 -59 120 -69 5 -5 17 -9 27 -9 10 0 18 -4 18 -8 0 -5 10 -13 23 -19 12 -6
63 -30 112 -53 172 -80 190 -88 260 -110 39 -12 87 -28 108 -36 20 -8 45 -14
55 -14 32 0 122 -30 122 -41 0 -14 -124 -2 -225 21 -44 10 -102 22 -130 26
l-50 7 28 -27 c15 -14 31 -26 36 -26 4 0 26 -9 49 -20 22 -11 47 -20 54 -20 7
0 32 -9 56 -20 23 -11 63 -29 90 -41 26 -11 58 -27 72 -34 14 -8 57 -30 95
-50 39 -19 77 -39 85 -44 8 -5 42 -22 75 -38 33 -16 81 -42 106 -56 26 -14 64
-33 85 -40 76 -28 199 -80 212 -90 6 -5 12 -14 12 -20 0 -13 -215 -3 -255 13
-16 6 -72 15 -125 20 -52 5 -106 12 -120 15 -19 5 -22 4 -10 -4 26 -19 -45
-13 -107 9 -32 11 -63 20 -71 20 -7 0 -32 9 -54 20 -23 11 -49 20 -57 20 -9 0
-27 6 -41 13 -14 7 -47 21 -75 31 -27 10 -54 23 -59 27 -6 5 -18 9 -28 9 -9 0
-34 8 -55 19 -21 10 -51 25 -68 32 -16 8 -59 31 -95 52 -91 53 -104 61 -110
68 -3 3 -21 14 -40 24 -19 10 -37 21 -40 24 -3 3 -23 19 -46 34 -22 15 -50 36
-62 47 -12 11 -25 20 -30 20 -5 0 -36 27 -70 60 -33 33 -65 60 -71 60 -6 0
-11 6 -11 13 0 6 -18 28 -40 47 -22 19 -40 41 -40 48 0 6 -4 12 -8 12 -5 0
-21 18 -38 41 -16 22 -47 64 -70 92 -22 29 -43 59 -47 67 -4 8 -18 33 -32 55
-22 36 -46 83 -105 210 -43 92 -60 136 -60 154 0 11 -4 23 -10 26 -11 7 -14
68 -3 79 4 3 19 -19 34 -50 15 -31 34 -64 41 -73z m9088 22 c-13 -37 -31 -86
-41 -108 -43 -99 -64 -142 -81 -167 -10 -14 -18 -31 -18 -37 0 -5 -15 -31 -32
-57 -18 -25 -37 -53 -43 -63 -5 -9 -13 -18 -16 -21 -3 -3 -17 -23 -32 -45 -28
-42 -98 -123 -159 -185 -21 -21 -38 -43 -38 -49 0 -6 -6 -11 -12 -11 -7 0 -32
-19 -54 -43 -23 -23 -56 -53 -74 -67 -17 -14 -44 -35 -58 -48 -15 -13 -40 -30
-57 -39 -16 -9 -34 -22 -38 -29 -4 -8 -13 -14 -18 -14 -6 0 -31 -15 -57 -32
-25 -18 -63 -42 -84 -53 -47 -25 -158 -81 -178 -89 -8 -3 -22 -10 -30 -15 -8
-5 -40 -19 -70 -31 -30 -12 -72 -31 -93 -41 -22 -11 -46 -19 -56 -19 -9 0 -33
-9 -54 -20 -20 -11 -44 -20 -52 -20 -8 0 -29 -6 -47 -14 -100 -43 -333 -102
-248 -63 14 6 29 17 33 24 4 7 16 13 25 13 9 1 44 14 77 31 65 33 71 32 -70
10 -33 -6 -85 -17 -115 -25 -30 -9 -66 -16 -80 -16 -14 0 -52 -8 -85 -19 -33
-11 -82 -24 -110 -29 -27 -6 -81 -18 -119 -26 -38 -9 -74 -15 -79 -13 -5 1 31
22 80 46 48 24 104 52 124 62 20 11 44 19 53 19 9 0 16 4 16 9 0 5 15 14 33
20 83 31 207 103 207 122 0 14 -39 11 -89 -7 -25 -8 -65 -19 -90 -24 -26 -5
-54 -12 -63 -15 -10 -4 -18 -3 -18 1 0 9 92 54 110 54 5 0 29 9 53 19 23 11
58 23 77 26 19 4 40 11 45 16 6 4 40 14 75 22 36 8 79 19 95 25 17 6 50 15 75
22 95 23 154 42 174 54 11 8 36 16 54 20 35 6 179 73 188 87 7 12 -39 11 -85
0 -20 -5 -72 -18 -116 -29 -86 -22 -311 -49 -321 -39 -4 3 7 9 22 13 16 3 58
15 93 25 35 10 71 19 82 19 20 0 264 79 326 106 59 26 234 113 278 139 22 13
54 31 70 39 17 9 39 21 49 28 40 26 129 83 145 93 29 18 96 70 99 78 2 4 10 7
17 7 8 0 19 9 25 20 6 11 15 20 20 20 5 0 20 10 33 23 13 12 49 45 79 74 73
67 153 164 180 216 33 65 70 109 81 98 6 -6 2 -33 -13 -78z m-2475 -722 c-13
-13 -123 -52 -160 -58 -16 -3 -43 -11 -60 -18 -16 -7 -48 -16 -70 -20 -22 -4
-69 -15 -105 -25 -36 -10 -89 -21 -118 -24 -48 -6 -53 -5 -50 11 2 10 16 20
33 24 143 34 218 54 267 70 32 11 77 19 100 20 24 0 70 6 103 14 33 7 62 14
65 14 2 1 0 -3 -5 -8z m-6119 -491 c27 -12 56 -25 65 -30 9 -5 34 -11 55 -15
22 -3 59 -14 84 -24 25 -10 79 -28 120 -41 41 -12 98 -31 125 -41 28 -11 56
-19 63 -19 6 0 58 -14 114 -31 57 -17 123 -35 148 -41 45 -9 118 -29 256 -68
39 -11 84 -20 100 -20 16 -1 47 -8 69 -16 22 -8 66 -19 99 -24 98 -15 92 -27
-21 -41 -104 -13 -123 -18 -123 -29 0 -6 15 -10 33 -10 18 0 82 -9 142 -19 61
-11 210 -24 335 -31 195 -9 366 -26 379 -36 2 -2 -2 -10 -9 -19 -8 -10 -30
-15 -60 -15 -27 0 -84 -7 -127 -15 -43 -8 -115 -15 -160 -15 -50 0 -83 -4 -83
-10 0 -12 40 -29 85 -36 17 -3 50 -13 75 -23 62 -25 139 -52 175 -61 17 -4 47
-17 68 -29 21 -11 43 -21 50 -21 7 0 29 -9 50 -20 20 -11 41 -20 47 -20 18 0
194 -82 258 -120 76 -46 154 -96 167 -107 6 -5 17 -12 25 -16 8 -4 35 -21 60
-37 25 -17 53 -33 63 -36 9 -4 17 -9 17 -13 0 -4 27 -26 60 -49 33 -24 60 -47
60 -52 0 -6 5 -10 11 -10 13 0 96 -66 125 -100 12 -14 31 -36 43 -49 25 -28
30 -61 6 -41 -12 10 -15 7 -21 -16 -5 -18 -3 -29 4 -32 7 -2 12 -9 12 -15 0
-25 63 -146 74 -140 6 3 8 2 3 -2 -4 -5 0 -17 10 -27 9 -10 13 -18 9 -18 -4 0
-36 28 -71 63 -93 92 -145 137 -275 240 -35 28 -139 97 -145 97 -3 0 -21 11
-38 24 -18 13 -52 35 -77 48 -25 14 -81 46 -125 72 -43 26 -93 54 -110 62 -16
7 -37 18 -45 23 -14 9 -88 45 -290 138 -109 51 -148 68 -210 93 -30 12 -73 30
-95 40 -22 10 -59 24 -82 31 -24 7 -43 16 -43 20 0 4 -15 10 -32 14 -18 4 -52
15 -75 26 -24 10 -47 19 -53 19 -6 0 -27 9 -47 20 -21 11 -46 20 -56 20 -10 0
-37 9 -61 20 -24 10 -74 29 -112 40 -38 12 -87 29 -109 39 -50 23 -158 61
-174 61 -6 0 -30 9 -54 19 -23 11 -53 23 -67 26 -22 7 -104 41 -225 94 -84 37
-281 137 -313 158 -18 13 -36 23 -40 23 -4 0 -15 8 -24 18 -9 9 -23 22 -30 27
-32 24 -104 90 -116 107 -7 10 -10 23 -7 28 8 13 4 13 61 -10z m8084 7 c0 -12
-86 -97 -98 -97 -3 0 -12 -7 -21 -15 -33 -31 -79 -65 -88 -65 -6 0 -18 -9 -28
-20 -10 -11 -23 -20 -29 -20 -6 0 -22 -9 -36 -20 -14 -11 -32 -20 -42 -20 -9
0 -18 -3 -20 -8 -7 -17 -360 -173 -433 -191 -17 -4 -40 -13 -51 -19 -12 -6
-61 -25 -110 -41 -49 -17 -127 -45 -174 -62 -47 -17 -96 -34 -110 -37 -14 -3
-38 -14 -55 -24 -16 -10 -41 -18 -55 -18 -14 0 -43 -9 -65 -19 -22 -11 -67
-30 -100 -41 -33 -12 -81 -32 -108 -46 -26 -13 -53 -24 -60 -24 -6 0 -30 -9
-52 -19 -22 -11 -65 -29 -95 -41 -30 -12 -73 -30 -95 -40 -36 -17 -63 -29
-135 -59 -14 -6 -32 -15 -40 -20 -8 -5 -60 -30 -115 -56 -55 -25 -107 -51
-115 -56 -8 -5 -28 -16 -45 -24 -16 -8 -48 -26 -70 -40 -22 -14 -58 -34 -80
-45 -39 -19 -67 -36 -89 -53 -6 -5 -24 -17 -41 -27 -50 -33 -68 -44 -84 -57
-80 -61 -101 -78 -136 -106 -22 -17 -100 -93 -173 -167 -150 -151 -162 -164
-162 -173 0 -3 -9 -17 -21 -29 -39 -42 -179 -235 -179 -246 0 -6 -6 -15 -13
-19 -15 -10 -67 -89 -67 -102 0 -6 -6 -14 -14 -18 -7 -4 -21 -24 -31 -43 -10
-19 -21 -37 -24 -40 -4 -3 -12 -18 -19 -34 l-13 -29 28 18 c15 10 42 33 59 52
17 18 34 33 37 33 3 0 16 10 29 23 13 12 46 40 73 62 27 22 76 66 108 98 33
31 61 57 63 57 2 0 67 63 144 140 77 77 141 140 143 140 2 0 26 21 53 46 27
25 66 57 87 70 20 13 37 29 37 34 0 6 7 10 15 10 7 0 18 6 22 13 4 7 19 20 33
29 14 10 44 31 68 48 23 16 47 30 52 30 4 0 10 4 12 9 5 12 167 111 183 111 8
0 17 5 20 10 10 15 345 177 405 195 14 4 34 14 45 21 11 8 28 14 38 14 10 0
37 9 59 20 23 11 48 20 55 20 8 0 28 7 44 16 17 8 52 19 77 24 26 5 65 15 87
24 22 8 58 15 80 15 l40 0 -24 -19 c-13 -11 -30 -20 -38 -20 -8 0 -27 -8 -41
-18 -15 -10 -67 -38 -117 -62 -49 -23 -101 -49 -115 -56 -14 -8 -50 -26 -80
-40 -60 -29 -64 -31 -165 -86 -38 -20 -86 -46 -105 -56 -19 -10 -53 -29 -75
-42 -22 -13 -52 -30 -67 -37 -15 -8 -30 -19 -33 -24 -4 -5 -21 -16 -38 -24
-18 -8 -45 -24 -62 -35 -16 -11 -43 -27 -59 -36 -16 -9 -34 -20 -40 -25 -50
-42 -64 -53 -88 -67 -16 -9 -28 -20 -28 -24 0 -4 -6 -8 -13 -8 -7 0 -20 -8
-28 -17 -9 -10 -29 -27 -45 -38 -36 -25 -108 -88 -112 -97 -2 -5 -10 -8 -17
-8 -8 0 -17 -9 -20 -20 -3 -11 -10 -20 -15 -20 -5 0 -27 -18 -49 -40 -22 -22
-42 -40 -44 -40 -3 0 -27 -23 -54 -50 -26 -28 -84 -88 -128 -134 -44 -46 -98
-103 -120 -128 -107 -120 -162 -184 -182 -212 -25 -34 -81 -102 -100 -121 -25
-26 -113 -147 -113 -156 0 -5 -4 -9 -9 -9 -5 0 -28 -27 -52 -60 -24 -33 -47
-60 -51 -60 -5 0 -8 -7 -8 -15 0 -8 -9 -19 -20 -25 -11 -6 -20 -17 -20 -25 0
-8 -4 -15 -9 -15 -5 0 -14 -14 -21 -31 -7 -17 -18 -36 -24 -42 -10 -10 -72
-99 -101 -145 -24 -38 -126 -132 -136 -126 -7 4 -8 19 -4 38 3 17 11 62 16
100 5 38 13 74 18 80 6 7 14 30 20 51 13 53 39 130 62 183 11 23 19 49 19 57
0 8 11 38 24 67 13 29 36 86 50 125 15 40 32 75 37 79 5 3 9 13 9 22 0 9 9 28
20 42 11 14 20 32 20 40 0 8 9 26 20 40 11 14 20 34 20 45 0 11 9 31 20 45 11
14 20 31 20 38 0 7 8 25 18 40 19 29 31 48 62 102 11 19 29 49 40 65 11 17 27
44 36 60 9 17 23 34 30 38 8 4 14 13 14 18 0 11 60 92 73 97 4 2 7 8 7 14 0 6
16 30 35 54 19 23 35 45 35 48 0 15 -20 2 -57 -36 -76 -79 -98 -104 -153 -173
-30 -37 -65 -79 -77 -92 -13 -13 -23 -26 -23 -29 0 -6 -100 -133 -122 -156
-15 -15 -18 -15 -18 -3 0 8 5 15 10 15 6 0 10 8 10 18 0 17 42 106 73 156 7
11 27 44 45 73 47 76 113 158 202 250 22 23 40 44 40 46 0 9 172 177 181 177
4 0 12 6 16 14 8 14 98 88 158 131 15 11 35 28 44 38 8 9 19 17 24 17 4 0 32
18 62 40 30 22 59 40 65 40 5 0 10 4 10 8 0 5 18 17 40 27 22 10 40 21 40 24
0 3 26 19 58 36 31 16 63 35 70 42 7 7 25 16 40 19 15 4 32 10 37 14 22 17
124 70 134 70 7 0 24 8 38 17 26 17 52 28 141 60 23 9 42 19 42 23 0 5 15 12
33 15 17 4 55 18 82 30 58 27 132 54 320 116 49 16 92 32 95 36 3 3 -79 2
-182 -1 -164 -7 -190 -5 -212 9 -15 10 -61 20 -117 25 -57 5 -95 14 -100 22
-6 10 2 14 34 16 23 1 96 9 162 16 66 8 224 17 350 21 159 4 266 12 345 25 63
11 133 21 155 22 28 2 40 8 40 18 0 12 -20 16 -97 21 -121 8 -170 17 -163 30
4 5 15 9 26 9 11 0 52 9 92 19 39 11 117 30 172 42 55 12 130 30 166 40 36 11
75 19 85 19 10 0 48 9 84 19 36 10 101 29 145 41 105 28 207 58 276 81 31 11
65 19 75 19 10 0 32 7 47 15 15 8 45 17 65 21 35 6 101 29 167 59 39 18 65 18
65 2z m-8076 -323 c16 -8 39 -14 50 -14 22 0 126 -35 186 -62 40 -18 131 -52
175 -65 21 -6 31 -16 33 -32 3 -20 0 -23 -20 -18 -83 20 -153 34 -156 32 -3
-2 61 -44 81 -53 19 -9 57 -54 57 -67 0 -9 -10 -15 -24 -15 -47 0 -36 -18 30
-49 92 -44 131 -73 128 -94 -1 -9 4 -24 12 -31 10 -11 11 -21 4 -43 -11 -30
-61 -68 -75 -55 -5 4 -5 1 -1 -5 4 -8 1 -13 -7 -13 -8 0 -21 -8 -28 -17 -12
-16 -12 -17 1 -8 11 7 10 5 -1 -6 -10 -9 -23 -36 -30 -60 -7 -24 -18 -51 -25
-59 -18 -23 -29 -64 -14 -55 6 4 20 -1 31 -11 10 -9 19 -14 19 -10 0 3 11 -1
24 -9 19 -13 25 -13 29 -3 3 7 6 2 6 -11 1 -18 5 -22 20 -18 17 4 18 2 10 -17
-6 -12 -23 -31 -40 -41 -16 -11 -29 -23 -29 -27 0 -5 -7 -8 -15 -8 -7 0 -18
-6 -22 -14 -4 -7 -23 -22 -42 -32 -67 -38 -149 -92 -181 -122 -14 -12 -33 -25
-42 -28 -10 -3 -18 -10 -18 -16 0 -6 10 -3 23 6 56 41 142 63 142 37 0 -8 8
-15 18 -17 9 -1 17 2 17 7 0 5 14 9 30 9 24 0 35 -7 48 -30 12 -21 22 -28 35
-24 26 8 20 -11 -8 -26 -14 -7 -25 -17 -25 -22 0 -4 -9 -8 -20 -8 -11 0 -20
-4 -20 -10 0 -5 -6 -10 -13 -10 -7 0 -26 -13 -42 -30 -16 -16 -34 -30 -39 -30
-6 0 -55 -43 -110 -96 l-98 -95 23 -45 c14 -25 31 -44 41 -44 16 0 24 -6 57
-46 12 -14 5 -25 -68 -93 -78 -75 -101 -110 -63 -98 44 14 121 42 162 58 48
19 150 34 150 23 0 -9 -82 -84 -92 -84 -4 0 -15 -11 -24 -26 -22 -33 -4 -56
24 -31 20 18 97 24 106 8 6 -9 -21 -72 -35 -81 -11 -8 -22 -80 -12 -80 5 0 28
18 51 40 23 23 42 38 42 35 0 -15 -74 -117 -164 -226 -8 -9 -17 -30 -20 -46
l-7 -28 93 1 c57 1 99 -3 107 -10 10 -7 13 -7 8 0 -3 6 0 11 6 11 24 0 17 -53
-13 -100 -16 -26 -30 -54 -30 -62 0 -8 -4 -15 -10 -15 -5 0 -10 -7 -10 -15 0
-8 -4 -15 -9 -15 -11 0 -30 -48 -29 -72 1 -10 5 -18 10 -18 5 0 6 -6 2 -12 -5
-9 -2 -9 9 1 15 12 17 11 17 -3 0 -10 4 -14 10 -11 6 3 10 0 10 -7 0 -7 -16
-26 -36 -41 -33 -27 -34 -30 -20 -46 9 -10 13 -21 9 -25 -5 -4 6 -7 22 -6 62
5 125 -39 80 -56 -17 -7 -21 -59 -5 -69 5 -3 18 -2 27 4 13 6 28 4 52 -8 31
-16 32 -19 16 -34 -18 -19 -39 -13 -31 9 8 21 -9 25 -21 4 -10 -15 -8 -22 8
-41 10 -12 19 -28 19 -36 0 -7 7 -13 16 -13 9 0 18 -8 21 -18 5 -20 7 -20 148
8 66 12 162 45 182 62 7 6 13 8 13 5 0 -8 -32 -65 -67 -119 -34 -52 -73 -153
-73 -190 0 -20 21 -47 85 -111 47 -47 95 -89 106 -92 12 -4 52 1 90 11 38 10
71 15 75 11 3 -3 -20 -37 -53 -74 -67 -77 -93 -115 -93 -138 0 -16 25 -21 35
-6 6 11 93 71 101 71 3 0 10 5 17 10 49 42 63 51 83 56 19 5 21 9 12 24 -14
22 4 50 33 50 24 0 27 -51 4 -70 -8 -7 -15 -23 -15 -37 0 -13 -7 -26 -15 -29
-8 -3 -21 -18 -28 -32 -7 -15 -18 -36 -24 -47 -26 -48 -51 -125 -42 -131 13
-8 71 40 156 130 70 74 103 95 88 59 -17 -44 -45 -275 -34 -287 8 -9 41 22 69
65 22 32 70 89 105 124 l30 30 11 -105 c11 -94 24 -170 40 -224 6 -17 9 -16
33 11 31 35 145 123 159 123 6 0 12 4 14 8 3 8 162 99 199 114 11 4 18 1 21
-10 6 -21 -29 -173 -42 -186 -6 -6 -10 -30 -10 -56 l1 -45 26 30 c14 17 40 46
57 65 17 19 42 51 56 70 58 84 105 103 158 63 15 -11 48 -60 74 -109 26 -49
51 -90 57 -92 13 -4 51 70 51 100 0 13 7 34 15 48 8 14 17 32 21 41 3 9 17 22
30 29 13 8 24 21 24 30 0 10 7 23 15 30 8 7 12 16 9 21 -3 5 4 21 15 34 10 14
22 21 26 16 3 -6 4 -66 1 -135 -4 -120 -3 -124 15 -113 10 6 24 24 30 40 14
33 172 197 190 197 16 0 7 -88 -14 -130 -10 -18 -17 -40 -17 -49 0 -9 -6 -25
-13 -36 -8 -11 -26 -60 -42 -109 -22 -71 -25 -93 -16 -107 6 -11 11 -29 11
-43 0 -32 -26 -103 -45 -122 -8 -9 -15 -22 -15 -30 0 -8 -10 -34 -21 -59 -16
-33 -18 -49 -11 -58 8 -9 7 -25 -4 -57 -10 -29 -18 -109 -23 -244 -6 -162 -9
-196 -18 -175 -10 22 -40 45 -49 37 -1 -2 2 -37 7 -78 16 -133 22 -220 15
-220 -23 0 -45 25 -61 67 -10 26 -22 52 -26 58 -5 5 -9 17 -9 28 0 10 -5 28
-12 40 -11 21 -11 21 -19 2 -4 -11 -8 -85 -8 -164 -1 -140 -2 -143 -22 -138
-19 5 -20 2 -15 -60 2 -36 11 -72 19 -81 14 -16 87 -165 87 -177 0 -13 -30 24
-30 37 -1 18 -48 74 -56 66 -3 -4 -1 -29 5 -55 7 -28 8 -60 3 -77 l-8 -29 -20
21 c-11 12 -31 23 -45 24 -13 2 -28 8 -32 13 -5 6 -6 -12 -4 -38 2 -26 0 -50
-5 -53 -6 -4 -8 -17 -5 -30 2 -13 0 -24 -5 -24 -19 0 -48 21 -48 35 0 18 -30
20 -31 3 0 -10 -2 -10 -6 0 -7 17 -23 15 -23 -4 0 -9 -5 -12 -12 -8 -7 4 -26
7 -43 6 -35 -3 -101 22 -107 39 -2 7 -8 5 -17 -5 -11 -13 -11 -16 2 -16 19 0
32 -63 17 -90 -14 -25 -14 -25 -56 7 l-35 26 7 -29 c4 -16 14 -35 21 -43 16
-16 14 -63 -3 -68 -7 -2 -25 7 -40 21 -27 23 -28 26 -16 58 12 32 11 34 -23
66 -29 27 -38 32 -50 22 -12 -10 -21 -5 -51 26 -53 57 -66 88 -62 147 2 42 0
52 -14 55 -9 2 -25 -5 -36 -15 -34 -33 -58 -43 -72 -30 -10 9 -14 9 -17 0 -9
-24 -54 -14 -86 19 -23 23 -41 32 -65 31 -24 0 -32 4 -30 16 2 11 -6 17 -29
19 -21 2 -33 9 -33 18 0 8 -4 14 -10 14 -5 0 -10 8 -10 18 0 14 -2 15 -10 2
-8 -13 -10 -12 -10 2 0 10 -9 23 -20 30 -11 7 -20 18 -20 25 0 7 -5 13 -11 13
-5 0 -7 -4 -4 -10 9 -15 0 -12 -21 7 -22 20 -22 20 -10 78 6 33 48 122 75 160
4 6 12 22 19 37 11 26 10 27 -12 16 -13 -5 -32 -28 -42 -49 -9 -22 -21 -39
-26 -39 -4 0 -8 -8 -8 -19 0 -10 -9 -30 -20 -44 -11 -14 -20 -32 -20 -41 0 -9
-5 -16 -10 -16 -15 0 -30 45 -30 92 0 23 -7 80 -16 127 -15 79 -15 93 1 201
13 83 26 130 46 170 33 62 51 93 60 100 3 3 12 16 18 28 12 22 11 23 -11 17
-12 -4 -34 -15 -48 -24 -63 -42 -301 -97 -450 -105 -76 -5 -108 -10 -116 -21
-14 -19 -33 -19 -70 -1 -16 8 -76 17 -134 21 -117 7 -320 56 -402 96 -9 5 -19
5 -22 1 -4 -7 28 -31 78 -58 27 -14 32 -34 8 -34 -11 0 -31 -9 -45 -20 -14
-11 -29 -20 -34 -20 -5 0 -24 -16 -43 -35 -19 -19 -55 -45 -80 -57 -72 -34
-148 -65 -178 -73 -15 -4 -33 -12 -41 -18 -8 -7 -39 -17 -70 -24 -57 -12 -172
-44 -203 -58 -32 -13 -20 22 15 47 43 31 127 115 127 128 0 5 7 10 15 10 8 0
15 4 15 10 0 5 21 34 48 64 26 30 56 67 67 82 11 14 28 34 38 42 9 9 17 20 17
24 0 8 43 75 62 98 14 16 31 42 50 80 7 14 23 36 36 50 12 14 25 35 28 48 4
12 10 22 15 22 5 0 13 8 16 18 12 29 59 95 107 147 43 47 57 75 37 75 -5 0
-34 -16 -66 -35 -32 -19 -74 -40 -94 -46 -20 -6 -49 -17 -66 -24 -106 -43
-265 -95 -290 -95 -13 0 -26 -4 -29 -9 -3 -5 -22 -12 -41 -15 -19 -3 -51 -9
-70 -12 -19 -3 -35 -3 -35 1 0 11 28 35 42 35 7 0 24 9 38 20 14 11 32 20 41
20 9 0 28 9 42 20 14 11 28 20 32 20 13 0 121 89 160 132 89 98 105 118 105
127 0 6 8 15 18 20 10 5 23 26 29 45 10 32 9 36 -7 36 -10 0 -23 -7 -30 -16
-8 -8 -27 -22 -44 -30 -17 -8 -40 -20 -51 -27 -11 -7 -45 -26 -75 -42 -50 -27
-74 -37 -175 -74 -87 -31 -215 -51 -328 -51 -120 0 -139 7 -92 34 66 37 154
99 159 111 3 8 12 15 21 15 8 0 15 6 15 13 0 8 17 30 38 50 45 44 62 64 62 74
1 4 14 24 30 43 17 19 30 38 30 42 0 5 18 31 40 59 64 81 47 114 -37 69 -21
-11 -47 -20 -58 -20 -11 0 -35 -9 -53 -20 -18 -11 -37 -20 -43 -20 -6 0 -43
-14 -82 -31 -103 -43 -125 -53 -194 -89 -35 -17 -63 -29 -63 -26 0 16 21 56
29 56 6 0 43 34 83 76 40 42 79 83 86 90 6 7 12 15 12 19 0 4 18 24 40 46 22
22 40 44 40 49 0 5 6 15 13 22 18 18 127 167 127 173 0 3 12 19 26 35 15 16
32 38 38 49 6 11 26 40 44 66 17 25 32 50 32 56 0 5 7 12 15 15 8 3 17 15 21
27 6 20 41 74 55 87 3 3 13 22 22 42 10 20 22 40 27 43 15 9 60 113 60 139 0
37 -21 25 -94 -52 -33 -36 -68 -72 -77 -81 -58 -57 -192 -171 -203 -171 -3 0
-30 -16 -60 -34 -29 -19 -66 -38 -82 -42 -16 -4 -42 -16 -59 -26 -16 -10 -37
-18 -45 -18 -8 -1 -33 -9 -55 -20 -22 -11 -46 -19 -54 -20 -8 0 -22 -7 -31
-15 -9 -8 -31 -18 -48 -21 -26 -5 -32 -3 -32 10 0 9 7 19 16 23 15 6 92 77
290 269 41 40 74 77 74 83 0 17 -30 13 -57 -9 -14 -11 -32 -20 -39 -20 -13 0
-53 -16 -149 -60 -59 -28 -116 -50 -126 -50 -17 0 -9 29 10 35 18 5 271 251
271 264 0 3 18 26 40 51 22 25 40 51 40 58 0 7 7 15 15 18 8 4 15 10 15 15 0
11 62 103 72 107 4 2 8 12 8 23 0 10 5 19 10 19 6 0 10 5 10 10 0 6 12 29 27
53 39 60 60 98 73 130 7 15 16 27 21 27 5 0 9 6 9 14 0 8 11 28 25 44 14 17
25 35 25 41 0 6 4 11 8 11 4 0 16 14 26 30 15 27 55 73 111 131 24 25 19 40
-12 33 -16 -4 -35 -12 -43 -19 -8 -7 -41 -25 -72 -40 -32 -15 -58 -31 -58 -35
0 -4 -14 -13 -31 -20 -17 -7 -36 -18 -42 -24 -7 -6 -44 -33 -84 -59 -40 -27
-77 -55 -84 -63 -6 -8 -15 -14 -19 -14 -10 0 -102 -83 -203 -182 -82 -81 -104
-95 -85 -53 6 14 15 25 20 25 4 0 8 7 8 15 0 7 6 18 13 22 6 4 25 28 42 53 41
62 114 153 131 163 8 4 14 12 14 17 0 10 23 38 100 122 30 33 57 65 59 71 5
13 213 221 233 233 20 12 91 70 142 116 23 21 44 38 48 38 4 0 18 10 31 23 12
12 36 32 52 45 l30 23 -60 -6 c-33 -4 -94 -15 -137 -26 -42 -10 -89 -19 -105
-19 -16 0 -82 -18 -147 -41 -65 -22 -121 -37 -124 -34 -6 6 63 75 76 75 5 0
27 17 48 38 22 20 64 57 94 82 30 25 57 48 58 53 4 8 105 80 155 110 16 10 36
24 44 32 8 8 21 15 29 15 8 0 14 4 14 8 0 4 12 13 28 19 15 6 38 18 52 26 28
17 106 52 133 61 10 3 15 11 11 17 -8 14 -117 6 -173 -13 -42 -14 -148 -63
-173 -80 -37 -26 -31 5 7 38 22 18 50 43 63 54 12 11 28 20 34 20 6 0 18 8 27
18 27 29 217 126 304 156 54 18 -39 51 -110 39 -74 -12 -15 48 75 77 23 7 42
16 42 20 0 4 21 11 48 14 26 4 67 15 92 26 25 10 54 21 65 25 20 6 20 7 1 21
-11 8 -32 14 -46 14 -14 0 -30 4 -36 10 -5 5 -43 14 -84 20 -41 6 -105 18
-141 26 -37 8 -74 14 -83 14 -24 0 -19 39 7 51 12 6 30 21 40 35 17 23 17 26
1 52 -9 15 -42 49 -73 76 -54 48 -86 97 -73 111 8 8 48 -2 86 -21z m8048 -891
c18 -9 41 -21 52 -26 18 -8 52 -27 107 -59 13 -7 47 -30 76 -50 29 -21 57 -38
62 -38 6 0 15 -9 21 -20 6 -11 17 -20 25 -20 8 0 15 -4 15 -8 0 -4 24 -26 53
-47 28 -22 56 -45 60 -52 4 -7 13 -13 20 -13 18 -1 113 -87 105 -95 -20 -21
-129 47 -236 146 -35 33 -132 109 -139 109 -3 0 -13 7 -22 15 -35 33 -77 63
-98 69 -11 4 -24 13 -27 21 -3 8 -10 15 -15 15 -5 0 -32 16 -61 35 -55 37 -54
46 2 18z m-5921 -33 c56 -26 143 -71 192 -99 86 -49 104 -59 140 -81 20 -12
37 -26 37 -31 0 -5 6 -9 13 -9 24 0 60 -62 65 -112 5 -48 4 -48 -25 -48 -17 0
-38 9 -48 20 -10 11 -22 20 -27 20 -5 0 -18 9 -30 20 -12 11 -40 32 -62 47
-23 15 -43 31 -46 34 -3 3 -36 23 -75 44 -98 53 -103 56 -165 95 -30 20 -67
41 -82 48 -22 9 -28 18 -28 42 0 29 1 30 48 30 27 0 68 -9 93 -20z m4254 -238
c17 -10 42 -22 57 -25 25 -7 84 -41 115 -67 7 -5 17 -10 23 -10 16 0 208 -193
220 -221 6 -13 26 -49 45 -79 19 -30 34 -62 35 -71 0 -9 6 -22 14 -28 8 -7 19
-33 25 -59 6 -26 18 -72 26 -102 25 -91 20 -295 -10 -409 -14 -52 -32 -105
-40 -117 -8 -13 -15 -31 -15 -41 0 -10 -18 -46 -40 -81 -22 -34 -40 -65 -40
-68 0 -25 -169 -199 -235 -243 -22 -14 -42 -29 -45 -32 -8 -12 -188 -99 -202
-99 -8 0 -40 -9 -73 -21 -52 -18 -82 -21 -231 -21 -146 1 -180 4 -232 21 -34
12 -67 21 -74 21 -22 0 -192 90 -201 105 -6 12 -1 15 23 15 18 0 45 10 62 21
36 26 78 67 78 77 0 4 18 24 40 45 22 20 40 42 40 47 0 6 5 10 11 10 7 0 22
11 34 24 23 25 18 40 -20 62 -10 6 -21 16 -23 23 -5 14 19 13 133 -9 90 -17
238 4 318 46 89 47 113 65 153 121 84 116 122 286 93 412 -9 41 -55 145 -82
185 -16 24 -97 106 -105 106 -4 1 -23 14 -42 30 -19 17 -39 30 -46 30 -6 0
-24 12 -39 26 -16 15 -45 29 -67 32 -56 7 -50 33 27 105 36 34 65 67 65 74 0
7 9 17 20 23 11 6 20 16 20 22 0 11 60 70 98 95 12 8 22 22 22 29 0 19 29 17
65 -4z m1700 -67 c11 -12 35 -31 53 -41 17 -10 32 -22 32 -26 0 -4 5 -8 11 -8
10 0 43 -24 142 -106 9 -7 21 -14 25 -14 4 0 15 -8 24 -17 9 -10 25 -25 34
-33 112 -94 364 -354 364 -375 0 -8 9 -17 20 -20 11 -3 20 -10 20 -15 0 -5 9
-20 21 -32 38 -42 139 -177 139 -187 0 -5 4 -11 8 -13 4 -1 17 -20 29 -40 34
-57 7 -47 -62 25 -78 81 -199 186 -250 217 -22 13 -43 28 -46 33 -6 8 -26 20
-91 54 -16 8 -28 18 -28 22 0 4 -17 15 -37 24 -21 9 -56 28 -78 42 -22 14 -47
28 -55 31 -8 3 -27 12 -42 20 -14 8 -34 14 -45 14 -14 0 -11 -6 14 -28 30 -25
69 -71 103 -122 8 -12 26 -37 40 -55 14 -18 48 -70 75 -114 28 -44 53 -81 58
-81 4 0 7 -7 7 -16 0 -9 8 -28 18 -42 32 -50 42 -67 60 -102 9 -19 23 -39 30
-43 6 -4 12 -12 12 -17 0 -5 15 -30 33 -56 17 -25 37 -53 42 -62 6 -9 21 -28
35 -42 14 -14 52 -56 85 -95 33 -38 73 -81 90 -95 82 -69 153 -140 144 -145
-5 -4 -26 2 -47 13 -69 36 -132 62 -148 62 -9 0 -33 9 -53 19 -20 10 -51 25
-68 31 -18 7 -33 16 -33 21 0 5 -9 9 -20 9 -11 0 -20 -6 -20 -13 0 -14 112
-130 177 -184 70 -58 203 -192 196 -196 -5 -3 -53 13 -108 34 -55 21 -107 38
-116 39 -18 0 -99 34 -197 82 -59 29 -116 67 -153 103 -9 8 -21 15 -27 15 -7
0 -12 4 -12 8 0 5 -32 33 -71 63 -39 30 -78 61 -87 70 -31 28 -109 89 -115 89
-8 0 30 -81 67 -142 15 -27 32 -48 37 -48 5 0 9 -9 9 -20 0 -11 4 -20 8 -20 5
0 18 -18 31 -40 12 -22 26 -40 32 -40 5 0 9 -7 9 -15 0 -9 7 -18 15 -21 8 -3
17 -14 20 -23 6 -19 72 -113 103 -146 10 -11 31 -40 47 -65 17 -25 36 -49 42
-53 7 -4 13 -13 13 -19 0 -6 27 -42 60 -79 33 -37 60 -70 60 -73 0 -3 54 -59
120 -124 125 -123 154 -170 83 -132 -21 11 -45 20 -53 20 -8 0 -23 6 -32 14
-9 7 -63 28 -120 46 -57 18 -126 44 -154 57 -28 12 -56 23 -61 23 -6 0 -24 7
-39 15 -33 17 -50 19 -58 6 -5 -7 65 -105 139 -194 8 -9 15 -19 15 -22 0 -5
53 -64 106 -118 53 -54 97 -88 133 -104 19 -8 40 -21 48 -29 8 -8 20 -14 27
-14 7 0 21 -9 32 -21 l19 -21 -175 5 c-96 3 -197 10 -225 17 -27 6 -66 14 -85
17 -19 3 -47 14 -62 24 -14 11 -31 19 -38 19 -13 0 -115 50 -175 85 -22 13
-47 27 -55 31 -8 4 -24 15 -35 24 -11 10 -30 21 -43 25 -21 6 -22 5 -10 -22
36 -82 237 -283 341 -340 43 -24 81 -43 87 -43 5 0 24 -9 42 -20 18 -11 43
-20 56 -20 20 0 41 -24 31 -34 -5 -5 -108 14 -134 24 -11 5 -43 11 -72 14 -54
5 -177 38 -230 62 -17 8 -39 14 -50 14 -10 0 -30 6 -45 14 -15 8 -40 17 -57
21 -16 3 -35 13 -41 20 -7 8 -27 17 -46 21 -19 3 -34 10 -34 15 0 5 -9 9 -20
9 -11 0 -20 -4 -20 -10 0 -5 4 -10 9 -10 5 0 12 -8 15 -17 6 -17 43 -65 81
-104 8 -9 15 -21 15 -27 0 -7 4 -12 10 -12 5 0 16 -16 25 -35 9 -19 23 -39 31
-46 8 -6 14 -16 14 -21 0 -5 7 -16 15 -24 8 -8 40 -53 71 -100 31 -47 63 -88
71 -91 7 -3 13 -10 13 -17 0 -6 12 -25 28 -41 15 -17 52 -60 82 -95 30 -36 75
-83 100 -105 25 -22 50 -44 56 -50 6 -5 29 -25 52 -44 41 -33 55 -61 30 -61
-7 0 -58 11 -113 25 -55 14 -108 25 -117 25 -10 0 -33 9 -53 20 -20 11 -41 20
-48 20 -17 1 -59 38 -55 49 1 5 33 -1 69 -13 37 -12 72 -20 78 -18 17 6 13 22
-6 22 -20 1 -135 105 -126 114 4 3 1 6 -5 6 -7 0 -12 7 -12 15 0 8 -9 19 -20
25 -21 11 -27 30 -11 30 5 0 16 -7 25 -15 8 -8 18 -15 22 -15 4 0 17 -10 29
-22 12 -13 52 -51 88 -86 37 -34 67 -67 67 -72 0 -6 5 -10 10 -10 13 0 0 27
-29 57 -12 12 -21 27 -21 32 0 6 -6 14 -14 18 -7 4 -41 42 -74 83 -34 41 -86
102 -115 135 l-54 59 -114 -56 c-180 -88 -170 -84 -324 -121 -138 -34 -541
-29 -665 8 -30 9 -84 25 -120 36 -36 11 -69 19 -73 19 -4 0 -20 9 -35 19 -15
11 -37 22 -49 26 -20 5 -22 3 -15 -13 4 -11 18 -33 32 -49 91 -101 132 -266
110 -438 -7 -49 -15 -114 -19 -144 -8 -70 -27 -78 -36 -14 -4 26 -15 60 -26
75 -10 15 -19 30 -19 33 0 13 -59 65 -74 65 -18 0 -10 -33 23 -96 25 -47 42
-152 23 -140 -7 4 -12 2 -12 -3 0 -6 -11 -11 -25 -11 -14 0 -34 -9 -44 -19
-27 -27 -47 -29 -64 -7 -8 11 -26 20 -41 21 -22 0 -26 -4 -26 -26 0 -25 44
-117 62 -129 10 -7 40 -92 34 -97 -7 -8 -46 17 -75 47 -45 47 -102 90 -121 90
-13 0 -16 -7 -12 -31 3 -22 1 -30 -7 -25 -21 13 -12 -38 14 -76 48 -70 19
-105 -43 -53 -17 14 -33 25 -37 25 -3 0 -13 7 -21 15 -19 19 -34 19 -34 1 0
-8 -13 -24 -30 -37 -30 -24 -41 -71 -20 -84 26 -16 7 -25 -39 -19 l-49 6 -12
-37 c-7 -22 -10 -60 -7 -91 7 -72 1 -90 -39 -109 -18 -8 -36 -20 -39 -25 -11
-19 -21 -10 -40 36 -17 41 -21 45 -44 39 -55 -14 -91 -17 -91 -7 0 5 -13 15
-30 22 -16 7 -30 17 -30 22 0 5 -4 6 -10 3 -25 -16 -30 9 -7 38 29 38 60 99
83 159 31 85 54 151 54 160 0 15 -49 -23 -55 -43 -16 -50 -23 -6 -22 135 1
106 -2 159 -10 166 -14 15 -18 4 -42 -126 l-18 -99 -11 40 c-7 22 -15 94 -19
159 l-6 120 -39 -45 c-26 -29 -38 -51 -35 -66 3 -18 1 -20 -17 -14 -30 11 -33
86 -8 176 11 39 23 95 26 125 l5 55 -42 -66 -42 -67 0 242 c-1 254 -6 292 -47
336 l-22 24 -6 -23 c-5 -22 -7 -20 -27 20 -11 24 -26 59 -33 77 -7 17 -16 32
-21 32 -5 0 -9 8 -9 19 0 10 -6 24 -13 30 -8 6 -24 31 -37 56 -13 25 -25 44
-27 42 -1 -2 6 -47 18 -101 24 -115 21 -148 -6 -50 -10 38 -24 83 -32 99 -12
28 -13 27 -7 -25 3 -30 10 -73 15 -95 14 -65 11 -135 -5 -135 -8 0 -17 10 -21
23 -3 12 -15 45 -27 72 -40 98 -56 141 -89 243 -18 56 -36 102 -41 102 -4 0
-8 8 -8 18 -1 9 -7 28 -15 42 -13 22 -14 6 -15 -160 0 -203 3 -196 -53 -90
-13 25 -45 84 -70 131 -26 47 -47 93 -47 101 0 8 -8 26 -19 39 -27 35 -101
181 -101 200 0 9 -9 26 -20 39 -11 13 -20 27 -20 32 0 4 -4 8 -10 8 -13 0 -13
-66 1 -91 6 -11 8 -25 6 -32 -3 -7 -14 8 -25 31 -11 26 -23 39 -27 33 -10 -17
-7 -111 5 -151 16 -54 14 -68 -7 -48 -18 19 -62 157 -63 198 0 25 -25 108 -61
205 -11 28 -19 65 -19 83 0 29 3 32 20 27 11 -4 20 -2 20 4 0 6 7 11 15 11 9
0 15 9 15 21 0 18 4 16 25 -15 14 -20 25 -43 25 -51 0 -8 6 -15 14 -15 8 0 18
-9 21 -20 3 -11 15 -20 26 -20 15 0 19 7 19 34 0 19 4 37 9 41 12 7 65 -69 98
-141 14 -31 31 -58 39 -61 8 -3 14 -11 14 -18 0 -7 7 -15 15 -19 20 -7 20 30
-1 93 -19 59 -16 115 8 119 20 4 44 -21 110 -110 51 -70 68 -82 68 -49 0 34
33 13 75 -47 37 -52 206 -232 218 -232 6 0 -8 45 -34 110 -10 25 -20 55 -23
68 -4 12 -9 31 -12 42 -3 11 -1 20 5 20 12 0 196 -180 229 -224 l22 -30 0 33
c0 17 -6 44 -14 59 -8 15 -17 46 -21 67 -4 22 -13 59 -21 83 -26 79 -15 90 47
46 47 -32 117 -133 134 -193 7 -25 25 -77 39 -116 14 -38 25 -85 26 -103 0
-43 10 -36 67 50 66 98 63 95 109 145 l41 45 41 -50 c23 -27 42 -52 42 -55 0
-2 27 -33 60 -68 l60 -64 0 35 c0 19 -7 49 -16 65 -8 17 -18 52 -21 78 -3 26
-10 50 -14 53 -12 7 -12 84 -1 84 5 0 17 -9 27 -20 10 -11 24 -20 32 -20 7 0
21 -9 30 -20 10 -11 23 -20 30 -20 7 0 13 -4 13 -9 0 -5 17 -16 38 -25 57 -26
122 -66 122 -77 0 -5 9 -9 20 -9 11 0 20 -4 20 -10 0 -5 18 -19 40 -30 22 -11
40 -25 40 -30 0 -6 5 -10 12 -10 6 0 20 -8 30 -17 12 -11 22 -13 28 -7 6 6 11
81 13 167 1 86 5 157 8 157 4 0 18 -15 32 -32 38 -50 133 -148 143 -148 5 0
15 -10 23 -21 24 -39 30 -1 10 59 -10 30 -19 63 -19 73 0 25 -46 123 -65 139
-8 7 -15 18 -15 24 0 6 -9 17 -20 24 -20 12 -28 42 -11 42 4 0 25 -11 45 -25
20 -14 40 -25 44 -25 4 0 15 -8 23 -17 9 -10 31 -27 50 -38 43 -26 55 -34 111
-72 43 -31 68 -41 68 -28 0 11 -72 119 -109 165 -71 87 -70 81 -15 74 27 -4
65 -13 84 -21 19 -8 55 -21 80 -30 25 -8 47 -18 50 -22 3 -3 46 -19 95 -35 50
-15 108 -37 130 -47 59 -28 81 -25 89 12 3 17 6 43 6 56 0 25 -79 271 -106
330 -8 17 -14 38 -14 47 0 15 -18 54 -30 66 -9 9 -29 44 -58 104 l-30 58 47
-7 c25 -4 77 -8 114 -10 37 -2 73 -7 80 -13 7 -5 35 -12 63 -15 28 -3 66 -12
85 -20 30 -13 98 -32 199 -56 19 -5 65 -20 103 -35 l67 -26 0 58 c0 40 -6 66
-20 87 -11 17 -20 36 -20 42 0 7 -13 41 -29 75 -15 35 -30 70 -33 78 -3 10
-18 15 -44 15 -34 0 -40 4 -49 30 -5 17 -15 35 -22 40 -7 6 -16 24 -19 42 -6
29 -4 33 22 38 16 4 34 8 39 10 6 1 19 -3 29 -10 21 -16 46 -9 46 12 0 8 -4
12 -9 9 -5 -3 -8 10 -8 28 1 19 5 32 9 30 4 -3 8 2 8 10 0 41 83 24 94 -20 8
-29 46 -53 46 -29 0 10 -5 13 -12 9 -10 -5 -10 -4 0 7 10 11 8 17 -10 32 -13
10 -16 15 -8 11 10 -5 9 -1 -3 14 -11 11 -16 26 -12 31 3 7 -2 11 -14 11 -12
0 -21 7 -21 15 0 8 -5 15 -11 15 -5 0 -8 4 -4 9 3 5 1 12 -5 16 -6 4 -8 11 -5
16 9 13 -9 11 -24 -3 -8 -7 -11 -8 -8 -3 3 6 2 17 -4 25 -6 10 -9 11 -9 3 0
-24 -52 -9 -76 22 -13 16 -31 37 -39 46 -24 25 -18 50 15 62 26 10 30 16 28
42 -2 18 -14 40 -30 54 -16 13 -28 34 -28 47 0 13 -9 29 -21 37 -11 8 -22 26
-23 40 -3 23 -1 24 31 15 19 -5 38 -8 44 -6 5 2 -20 33 -55 71 -59 61 -66 72
-43 68 4 0 7 3 7 9 0 13 132 13 146 1 9 -9 67 -43 117 -69 16 -8 31 -20 34
-28 3 -7 13 -16 24 -19 10 -4 19 -11 19 -17 0 -17 49 -58 71 -58 10 0 40 -22
66 -50 51 -55 70 -62 70 -27 -1 46 5 92 9 81 4 -9 13 -9 35 -1 20 8 32 8 37 2
10 -14 62 -16 62 -2 0 24 -78 148 -125 198 -8 9 -15 21 -15 27 0 7 -4 12 -10
12 -14 0 -92 119 -85 130 9 14 47 12 114 -4 75 -19 103 -16 107 10 4 25 -45
93 -110 152 -17 15 -40 37 -52 50 -12 12 -24 22 -27 22 -3 0 -17 10 -30 23
-13 12 -49 40 -81 62 -32 22 -66 48 -75 58 -8 9 -21 17 -28 17 -7 0 -13 7 -13
16 0 23 59 8 85 -21z m-6645 -64 c0 -5 -7 -11 -15 -15 -17 -6 -21 -36 -4 -36
5 0 7 -5 3 -12 -5 -8 -2 -9 9 -5 10 3 17 3 17 -1 0 -9 122 -72 138 -72 14 0
57 -42 65 -64 4 -9 13 -13 21 -10 26 10 56 -14 56 -47 0 -22 -11 -40 -40 -69
-25 -24 -40 -48 -40 -63 0 -13 -10 -32 -21 -43 -32 -28 -56 -88 -69 -175 -21
-130 7 -269 75 -374 29 -45 133 -144 169 -160 17 -8 38 -19 46 -24 35 -21 132
-41 202 -41 78 0 154 18 221 51 22 10 45 19 52 19 7 0 15 3 17 8 6 13 86 72
99 72 6 0 9 -8 6 -20 -3 -11 -2 -20 3 -20 4 0 8 -6 7 -12 -2 -56 3 -69 26 -66
16 2 21 -2 19 -14 -2 -15 31 -35 50 -30 4 1 9 -7 13 -17 3 -10 20 -26 38 -35
18 -8 26 -16 18 -16 -8 0 -12 -3 -8 -6 3 -3 14 -1 24 5 10 6 14 11 10 11 -5 0
-5 5 -1 11 4 8 9 7 15 -2 7 -11 12 -12 29 -1 11 6 27 12 35 12 9 0 36 11 61
25 l45 25 -6 -22 c-4 -13 -15 -35 -26 -50 -10 -15 -19 -30 -19 -34 0 -8 -6
-15 -88 -96 -81 -82 -88 -88 -96 -88 -4 0 -16 -8 -27 -18 -21 -20 -152 -88
-234 -121 -55 -22 -168 -47 -255 -56 -104 -10 -326 23 -397 61 -16 7 -33 14
-39 14 -14 0 -104 50 -122 67 -7 7 -18 13 -23 13 -13 0 -121 87 -132 106 -4 8
-15 14 -22 14 -8 0 -15 4 -15 9 0 5 -15 24 -32 43 -61 63 -167 239 -168 278 0
9 -4 20 -8 25 -8 10 -15 30 -48 155 -24 89 -24 290 0 380 26 97 63 196 91 243
14 23 32 56 39 72 8 17 31 48 50 69 19 21 37 42 38 45 2 3 28 26 58 51 30 25
57 48 58 53 5 10 32 9 32 -2z m2666 -1869 c24 -24 44 -48 44 -53 0 -5 6 -12
14 -15 41 -16 266 -364 266 -412 0 -5 8 -20 18 -33 10 -13 26 -43 36 -66 l19
-43 -31 -31 c-25 -26 -29 -36 -25 -67 6 -44 -49 -378 -77 -473 -11 -36 -20
-76 -20 -88 0 -12 -9 -46 -21 -74 -54 -135 -62 -153 -70 -167 -5 -8 -14 -26
-20 -40 -31 -71 -92 -185 -111 -208 -8 -9 -20 -29 -27 -44 -16 -30 -78 -94
-86 -87 -2 3 0 32 6 65 6 36 10 254 10 553 0 505 -2 539 -39 566 -14 11 -10
58 7 79 6 7 10 140 11 349 0 185 3 344 6 352 7 18 12 15 90 -63z m-4031 -1589
c9 -16 14 -19 10 -8 -5 16 -4 18 6 8 18 -18 32 -16 59 7 27 23 60 26 60 6 0
-8 -18 -53 -40 -100 -59 -125 -55 -130 35 -58 88 69 195 118 293 132 119 17
116 18 108 -44 -6 -59 -41 -147 -62 -159 -8 -4 -14 -14 -14 -22 0 -17 -60
-105 -72 -105 -4 0 -8 -8 -8 -19 0 -10 -7 -24 -15 -31 -8 -7 -15 -17 -15 -22
0 -5 20 10 45 34 63 61 72 68 79 61 3 -4 6 -2 6 3 0 12 57 47 68 41 4 -3 16 5
27 16 19 19 19 20 1 13 -19 -7 -19 -6 -1 14 10 11 25 20 33 20 8 0 20 6 26 14
7 9 18 11 31 6 18 -8 18 -9 2 -9 -10 -1 -16 -5 -13 -9 3 -5 -8 -22 -24 -37
-16 -15 -27 -32 -24 -37 3 -4 -1 -8 -9 -8 -8 0 -17 -7 -21 -15 -3 -10 1 -15
12 -15 13 0 14 -2 4 -9 -7 -4 -12 -12 -10 -17 3 -11 -20 -53 -38 -72 -17 -17
-7 -42 17 -42 10 0 19 -6 19 -12 0 -10 2 -10 8 -1 10 16 28 3 29 -23 2 -24 57
-84 78 -84 24 0 45 -12 45 -26 0 -16 -43 -29 -65 -20 -8 3 -14 2 -14 -2 3 -21
-3 -32 -17 -32 -18 0 -97 -41 -102 -52 -2 -5 -10 -8 -17 -8 -17 0 -65 -57 -65
-77 0 -14 -8 -32 -61 -135 -10 -20 -19 -44 -19 -52 0 -9 -9 -30 -20 -48 -11
-18 -20 -43 -20 -55 0 -12 -3 -29 -6 -38 -11 -27 -24 3 -24 55 -1 113 -21 146
-60 98 -12 -15 -22 -20 -28 -13 -13 13 -42 133 -42 172 0 26 -3 30 -20 26 -15
-4 -20 -14 -20 -42 0 -20 7 -44 15 -55 8 -10 17 -37 19 -60 23 -178 26 -224
18 -251 l-9 -30 -7 40 c-4 22 -12 45 -17 51 -5 6 -14 38 -19 70 -6 33 -15 68
-20 79 -4 11 -16 44 -26 73 -10 28 -21 52 -25 52 -17 0 -20 80 -5 111 9 18 15
34 13 35 -2 2 -25 -17 -51 -41 l-49 -44 6 -62 c6 -68 27 -106 27 -49 0 43 21
27 22 -17 1 -35 -8 -53 -26 -53 -17 0 -61 101 -71 160 -4 25 -13 70 -21 100
-8 30 -14 75 -14 100 0 50 -19 95 -39 95 -19 0 -38 -72 -51 -190 -7 -55 -13
-101 -15 -103 -11 -11 -25 13 -25 41 0 18 -6 41 -14 52 -8 11 -19 56 -26 100
-7 44 -17 85 -22 91 -12 16 -11 239 1 261 5 10 14 49 19 87 6 37 18 76 27 85
8 10 15 23 15 30 0 6 4 17 10 24 5 7 20 25 33 41 27 33 57 31 57 -4 0 -21 10
-26 26 -11 8 8 85 51 91 51 1 0 10 -12 18 -27z m8070 -45 c27 -32 39 -55 72
-145 26 -73 28 -88 27 -228 0 -114 -4 -159 -16 -186 -9 -20 -19 -54 -22 -75
-4 -21 -14 -50 -21 -64 l-14 -25 -1 27 c0 14 7 62 15 105 28 146 29 192 5 273
-23 79 -35 101 -54 99 -33 -4 -47 2 -44 19 2 11 13 17 33 17 29 0 30 2 27 40
-1 22 -6 49 -11 60 -11 27 -31 90 -31 98 0 14 16 7 35 -15z m-3227 -107 c11
-16 24 -42 28 -57 3 -16 12 -38 18 -49 18 -29 62 -167 85 -265 23 -99 36 -308
26 -417 l-8 -75 -15 31 c-19 40 -40 39 -101 -4 -26 -19 -53 -35 -59 -35 -6 0
-14 -9 -17 -20 -3 -11 -14 -20 -23 -20 -9 0 -28 -9 -42 -20 -14 -11 -33 -20
-42 -20 -9 0 -20 -4 -23 -10 -12 -20 -48 -9 -76 23 -33 37 -35 45 -12 62 15
11 14 14 -4 32 -17 17 -20 35 -21 128 -1 60 -4 111 -7 113 -2 3 -17 -24 -33
-59 -54 -124 -52 -125 -45 11 3 69 12 148 20 175 8 28 21 77 29 110 20 80 30
86 38 26 10 -77 29 -65 44 28 14 88 36 160 44 145 11 -20 21 -72 27 -144 4
-55 10 -76 21 -78 15 -2 23 8 46 59 33 72 48 136 57 242 5 64 13 117 17 117 3
0 16 -13 28 -29z m312 -37 c0 -7 8 -28 19 -46 10 -18 29 -64 42 -103 12 -38
29 -85 36 -103 29 -67 55 -234 50 -316 -5 -72 -8 -81 -36 -107 -17 -15 -31
-33 -31 -38 0 -6 -17 -14 -39 -17 -33 -5 -42 -13 -68 -58 -17 -28 -33 -58 -36
-66 -9 -25 -6 52 3 105 9 48 17 112 40 331 7 70 7 136 0 215 -6 63 -13 148
-16 189 l-5 75 20 -24 c12 -13 21 -29 21 -37z m2130 -11 c22 -20 40 -43 40
-50 0 -7 18 -25 40 -39 22 -15 40 -32 40 -39 0 -7 7 -15 15 -19 24 -9 18 -62
-10 -92 -22 -23 -34 -28 -76 -28 -35 0 -48 -3 -45 -12 3 -7 -2 -18 -10 -24 -8
-7 -14 -18 -14 -25 0 -8 -6 -16 -12 -19 -7 -3 -4 -4 7 -3 11 1 20 -4 20 -11 0
-7 7 -17 15 -23 13 -9 12 -10 -2 -5 -12 3 -18 0 -18 -10 0 -8 4 -13 8 -10 5 3
8 -5 8 -17 -1 -12 4 -22 9 -22 19 -1 40 -20 41 -37 1 -10 -4 -14 -13 -11 -19
7 19 -62 55 -99 14 -16 20 -28 14 -28 -15 0 -157 47 -197 64 -16 8 -55 25 -85
37 -56 25 -135 73 -145 90 -4 5 -10 9 -16 9 -18 0 -9 -25 21 -57 17 -18 30
-36 30 -42 0 -5 6 -14 14 -18 15 -8 60 -111 71 -162 4 -17 11 -33 16 -36 5 -4
9 -18 9 -33 0 -25 -1 -26 -14 -7 -7 11 -16 32 -19 46 -4 15 -23 50 -42 79 -19
29 -35 55 -35 59 -1 12 -45 58 -71 75 -20 13 -32 14 -53 7 -14 -6 -26 -15 -26
-21 0 -5 -11 -10 -24 -10 -15 0 -27 -7 -30 -18 -4 -10 -22 -25 -42 -32 -24
-10 -34 -19 -31 -30 4 -14 -1 -15 -35 -6 -22 6 -35 12 -29 14 6 2 11 9 11 15
0 7 10 23 23 37 12 14 45 58 72 99 28 41 59 85 70 97 12 12 27 35 35 51 8 15
24 41 35 56 17 25 20 44 20 148 0 65 3 119 8 119 4 0 7 -9 7 -21 0 -13 4 -18
13 -13 7 5 6 0 -3 -11 -9 -11 -10 -16 -2 -11 6 4 12 2 12 -3 0 -6 -4 -11 -10
-11 -5 0 -10 -5 -10 -11 0 -5 5 -7 12 -3 8 5 9 2 5 -10 -4 -10 -3 -15 3 -11 6
3 10 1 10 -5 0 -5 14 -9 30 -8 17 1 30 7 30 13 0 5 4 4 9 -4 5 -8 14 -10 22
-6 9 6 11 4 6 -8 -3 -8 0 -18 8 -21 7 -2 16 2 19 10 7 19 26 18 26 -1 0 -9 9
-15 23 -15 22 0 30 -7 72 -61 l21 -26 1 56 c0 40 -5 63 -18 80 -11 13 -19 29
-19 35 0 7 -8 21 -19 32 -10 11 -21 30 -25 41 -6 18 -2 20 38 21 39 2 50 -3
86 -35z m709 -276 c-11 -9 -18 -47 -26 -153 -7 -91 -17 -152 -27 -172 -9 -17
-16 -41 -16 -54 -1 -13 -7 -36 -15 -53 -13 -29 -13 -29 -14 -5 -1 14 3 41 9
60 5 19 14 105 19 191 5 86 14 166 20 178 8 14 21 21 39 21 23 -1 25 -2 11
-13z m-1333 -377 c19 0 54 -72 47 -99 -6 -24 -50 -51 -83 -51 -11 0 -30 -10
-41 -21 -17 -17 -23 -19 -30 -8 -4 8 -3 19 3 26 7 9 7 25 1 52 -7 27 -7 45 1
60 13 23 79 61 84 49 2 -5 10 -8 18 -8z m-1249 -312 c43 -48 39 -104 -9 -132
-34 -21 -80 -16 -110 11 -26 23 -24 92 2 121 29 30 89 30 117 0z m756 -63 c40
-36 82 -68 95 -71 13 -4 22 -14 22 -25 0 -10 4 -19 9 -19 4 0 17 -28 29 -62
11 -35 32 -94 47 -133 30 -80 55 -209 54 -275 -1 -25 -3 -36 -5 -25 -28 135
-71 257 -114 325 -5 8 -17 29 -25 45 -25 49 -43 77 -52 84 -4 3 -21 24 -36 47
-15 22 -36 50 -47 62 -11 12 -20 24 -20 28 0 3 -9 17 -20 31 -19 25 -27 53
-14 53 3 0 38 -29 77 -65z m-3215 -235 c66 -41 35 -160 -43 -160 -61 0 -101
52 -89 117 11 58 73 79 132 43z m558 -406 c11 -12 33 -39 49 -60 17 -21 38
-46 48 -56 9 -10 17 -21 17 -26 0 -4 8 -15 18 -24 19 -19 26 -26 100 -116 48
-59 133 -180 157 -224 5 -10 13 -18 17 -18 4 0 15 -17 24 -37 10 -21 19 -41
21 -45 14 -27 -14 6 -83 95 -43 56 -83 107 -89 113 -22 25 -45 54 -45 59 0 2
-10 15 -22 28 -13 13 -32 36 -43 52 -42 59 -134 181 -154 203 -12 12 -21 29
-21 37 0 8 -4 15 -8 15 -5 0 -19 19 -31 43 l-23 42 25 -30 c14 -16 33 -40 43
-51z m-366 -105 c0 -4 9 -13 20 -19 11 -6 20 -17 20 -25 0 -8 4 -15 9 -15 4 0
36 -35 69 -77 34 -43 84 -100 112 -126 60 -59 100 -105 100 -118 0 -17 -21 -9
-44 16 -13 14 -28 25 -35 25 -6 0 -11 5 -11 11 0 7 -10 22 -22 34 -13 12 -39
39 -58 60 -32 35 -48 55 -107 134 -10 13 -26 31 -35 39 -10 9 -18 22 -18 29 0
7 -4 13 -10 13 -10 0 -63 75 -74 105 -3 11 14 -2 39 -29 25 -26 45 -52 45 -57z"/>
</g>
</svg>
