<svg width="64" height="64" viewBox="0 0 64 64" fill="none" xmlns="http://www.w3.org/2000/svg">
<mask id="mask0_312_606" style="mask-type:alpha" maskUnits="userSpaceOnUse" x="0" y="0" width="64" height="64">
<rect width="64" height="64" fill="#D9D9D9"/>
</mask>
<g mask="url(#mask0_312_606)">
<path d="M9.69926 49.394C8.95659 49.394 8.33082 49.1385 7.82193 48.6274C7.31304 48.1162 7.05859 47.4751 7.05859 46.704C7.05859 45.9582 7.31304 45.3338 7.82193 44.8307C8.33082 44.3271 8.95659 44.0754 9.69926 44.0754H54.3019C55.0446 44.0754 55.6766 44.3309 56.1979 44.842C56.7197 45.3531 56.9806 45.9818 56.9806 46.728C56.9806 47.4987 56.7197 48.1358 56.1979 48.6394C55.6766 49.1425 55.0446 49.394 54.3019 49.394H9.69926ZM9.69926 34.6407C8.95659 34.6407 8.33082 34.3851 7.82193 33.874C7.31304 33.3629 7.05859 32.7342 7.05859 31.988C7.05859 31.2422 7.31304 30.6178 7.82193 30.1147C8.33082 29.6111 8.95659 29.3594 9.69926 29.3594H54.3019C55.0446 29.3594 55.6766 29.6149 56.1979 30.126C56.7197 30.6371 56.9806 31.2658 56.9806 32.012C56.9806 32.7578 56.7197 33.3822 56.1979 33.8853C55.6766 34.3889 55.0446 34.6407 54.3019 34.6407H9.69926ZM9.69926 19.9247C8.95659 19.9247 8.33082 19.6691 7.82193 19.158C7.31304 18.6469 7.05859 18.0058 7.05859 17.2347C7.05859 16.4889 7.31304 15.8642 7.82193 15.3607C8.33082 14.8576 8.95659 14.606 9.69926 14.606H54.3019C55.0446 14.606 55.6766 14.8616 56.1979 15.3727C56.7197 15.8838 56.9806 16.5122 56.9806 17.258C56.9806 18.0291 56.7197 18.6662 56.1979 19.1693C55.6766 19.6729 55.0446 19.9247 54.3019 19.9247H9.69926Z" fill="white"/>
</g>
</svg>
