<svg width="96" height="96" viewBox="0 0 96 96" fill="none" xmlns="http://www.w3.org/2000/svg">
<mask id="mask0_8_54" style="mask-type:alpha" maskUnits="userSpaceOnUse" x="0" y="0" width="96" height="96">
<rect width="96" height="96" fill="#D9D9D9"/>
</mask>
<g mask="url(#mask0_8_54)">
<path d="M61.5 76C59.85 76 58.4377 75.4123 57.263 74.237C56.0877 73.0623 55.5 71.65 55.5 70V26C55.5 24.35 56.0877 22.9373 57.263 21.762C58.4377 20.5873 59.85 20 61.5 20H67C68.65 20 70.0627 20.5873 71.238 21.762C72.4127 22.9373 73 24.35 73 26V70C73 71.65 72.4127 73.0623 71.238 74.237C70.0627 75.4123 68.65 76 67 76H61.5ZM29 76C27.35 76 25.9377 75.4123 24.763 74.237C23.5877 73.0623 23 71.65 23 70V26C23 24.35 23.5877 22.9373 24.763 21.762C25.9377 20.5873 27.35 20 29 20H34.5C36.15 20 37.5627 20.5873 38.738 21.762C39.9127 22.9373 40.5 24.35 40.5 26V70C40.5 71.65 39.9127 73.0623 38.738 74.237C37.5627 75.4123 36.15 76 34.5 76H29Z" fill="white"/>
</g>
</svg>
