<svg width="96" height="96" viewBox="0 0 96 96" fill="none" xmlns="http://www.w3.org/2000/svg">
<mask id="mask0_30_330" style="mask-type:alpha" maskUnits="userSpaceOnUse" x="0" y="0" width="96" height="96">
<rect width="96" height="96" fill="#D9D9D9"/>
</mask>
<g mask="url(#mask0_30_330)">
<path d="M41.8 62.8L62 49.9C62.7333 49.4333 63.1 48.8 63.1 48C63.1 47.2 62.7333 46.5667 62 46.1L41.8 33.2C41.0667 32.6667 40.3 32.6167 39.5 33.05C38.7 33.4833 38.3 34.1667 38.3 35.1V60.9C38.3 61.8333 38.7 62.5167 39.5 62.95C40.3 63.3833 41.0667 63.3333 41.8 62.8ZM48 88C42.5333 88 37.3667 86.95 32.5 84.85C27.6333 82.75 23.3833 79.8833 19.75 76.25C16.1167 72.6167 13.25 68.3667 11.15 63.5C9.05 58.6333 8 53.4667 8 48C8 42.4667 9.05 37.2667 11.15 32.4C13.25 27.5333 16.1167 23.3 19.75 19.7C23.3833 16.1 27.6333 13.25 32.5 11.15C37.3667 9.05 42.5333 8 48 8C53.5333 8 58.7333 9.05 63.6 11.15C68.4667 13.25 72.7 16.1 76.3 19.7C79.9 23.3 82.75 27.5333 84.85 32.4C86.95 37.2667 88 42.4667 88 48C88 53.4667 86.95 58.6333 84.85 63.5C82.75 68.3667 79.9 72.6167 76.3 76.25C72.7 79.8833 68.4667 82.75 63.6 84.85C58.7333 86.95 53.5333 88 48 88Z" fill="white"/>
</g>
</svg>
