<svg width="50" height="48" viewBox="0 0 50 48" fill="none" xmlns="http://www.w3.org/2000/svg">
<g clip-path="url(#clip0_32_910)">
<path d="M25 0C18.3696 0 12.0107 2.52856 7.32233 7.02944C2.63392 11.5303 0 17.6348 0 24C0 30.3652 2.63392 36.4697 7.32233 40.9706C12.0107 45.4714 18.3696 48 25 48C31.6304 48 37.9893 45.4714 42.6777 40.9706C47.3661 36.4697 50 30.3652 50 24C50 17.6348 47.3661 11.5303 42.6777 7.02944C37.9893 2.52856 31.6304 0 25 0ZM36.4656 34.614C36.2491 34.9519 35.902 35.1936 35.5002 35.2864C35.0984 35.3792 34.6748 35.3154 34.3219 35.109C28.45 31.668 21.0625 30.888 12.3594 32.799C11.9562 32.8873 11.5329 32.8182 11.1828 32.607C10.8326 32.3957 10.5842 32.0596 10.4922 31.6725C10.4002 31.2854 10.4721 30.8791 10.6922 30.5429C10.9123 30.2068 11.2624 29.9683 11.6656 29.88C21.1906 27.792 29.3594 28.689 35.9469 32.556C36.2993 32.7634 36.5518 33.0964 36.6491 33.4821C36.7463 33.8679 36.6803 34.2749 36.4656 34.614ZM39.525 28.08C39.2543 28.5027 38.8198 28.805 38.317 28.9203C37.8142 29.0356 37.2843 28.9546 36.8438 28.695C30.125 24.732 19.8813 23.583 11.9313 25.899C11.4474 26.0094 10.9378 25.9384 10.5066 25.7005C10.0754 25.4626 9.7549 25.0757 9.61059 24.6188C9.46628 24.1619 9.509 23.6693 9.73002 23.2416C9.95104 22.8138 10.3337 22.4832 10.8 22.317C19.8781 19.674 31.1656 20.955 38.8813 25.506C39.3221 25.7654 39.6376 26.1823 39.7584 26.665C39.8791 27.1477 39.7951 27.6567 39.525 28.08ZM39.7875 21.276C31.7313 16.68 18.4375 16.257 10.7437 18.498C10.1503 18.6707 9.50977 18.6099 8.96298 18.3292C8.41619 18.0485 8.00798 17.5707 7.82813 17.001C7.64828 16.4313 7.71153 15.8164 8.00397 15.2915C8.29641 14.7665 8.79408 14.3747 9.3875 14.202C18.2156 11.631 32.8969 12.126 42.175 17.412C42.7087 17.7159 43.0949 18.211 43.2484 18.7882C43.402 19.3655 43.3104 19.9776 42.9938 20.49C42.6772 21.0024 42.1615 21.3731 41.5602 21.5205C40.9589 21.6679 40.3213 21.5799 39.7875 21.276Z" fill="white"/>
</g>
<defs>
<clipPath id="clip0_32_910">
<rect width="50" height="48" fill="white"/>
</clipPath>
</defs>
</svg>
