<?xml version="1.0" standalone="no"?>
<!DOCTYPE svg PUBLIC "-//W3C//DTD SVG 20010904//EN"
 "http://www.w3.org/TR/2001/REC-SVG-20010904/DTD/svg10.dtd">
<svg version="1.0" xmlns="http://www.w3.org/2000/svg"
 width="936.000000pt" height="886.000000pt" viewBox="0 0 936.000000 886.000000"
 preserveAspectRatio="xMidYMid meet">

<g transform="translate(0.000000,886.000000) scale(0.100000,-0.100000)"
fill="#000000" stroke="none">
<path d="M3697 5501 c-32 -15 -76 -46 -99 -67 -81 -78 -158 -223 -163 -307 -2
-21 -5 -41 -9 -44 -11 -12 -7 -183 5 -183 7 0 9 -9 5 -24 -6 -24 19 -124 35
-140 5 -6 9 -18 9 -29 0 -17 57 -135 71 -147 3 -3 9 -17 12 -32 4 -14 18 -40
32 -56 14 -17 25 -34 25 -40 0 -20 131 -207 198 -281 23 -27 42 -52 42 -58 0
-15 269 -284 334 -333 87 -66 168 -120 182 -120 6 0 17 -7 25 -16 15 -18 142
-84 162 -84 8 0 38 -13 68 -30 30 -16 62 -30 71 -30 10 0 32 -9 50 -20 18 -11
45 -20 61 -20 15 0 27 -4 27 -8 0 -11 101 -43 112 -36 5 3 16 0 25 -8 23 -19
250 -19 262 1 5 7 13 11 17 8 5 -2 20 0 34 6 14 5 33 12 43 13 27 6 88 39 129
71 21 15 48 36 62 45 24 18 79 120 79 148 0 8 5 18 11 22 5 4 10 23 9 42 -1
20 3 36 8 36 5 0 9 27 9 60 0 44 -4 60 -14 60 -7 0 -20 7 -27 17 -8 9 -50 33
-93 54 -43 21 -86 45 -95 53 -29 26 -283 146 -309 146 -25 0 -29 -3 -197 -185
-75 -82 -116 -110 -143 -95 -9 5 -46 22 -82 39 -84 40 -149 80 -275 171 -66
47 -325 324 -325 347 0 12 -77 130 -90 138 -5 3 -10 26 -10 50 0 44 25 83 124
195 71 80 82 132 42 209 -13 25 -31 72 -40 103 -9 32 -24 64 -32 73 -9 9 -13
22 -10 30 3 8 -1 20 -8 27 -7 7 -15 30 -19 50 -3 21 -17 64 -32 96 -24 53 -31
61 -83 85 -78 37 -147 36 -225 -2z"/>
</g>
</svg>
