<?xml version="1.0" standalone="no"?>
<!DOCTYPE svg PUBLIC "-//W3C//DTD SVG 20010904//EN"
 "http://www.w3.org/TR/2001/REC-SVG-20010904/DTD/svg10.dtd">
<svg version="1.0" xmlns="http://www.w3.org/2000/svg"
 width="1472.000000pt" height="1472.000000pt" viewBox="0 0 1472.000000 1472.000000"
 preserveAspectRatio="xMidYMid meet">

<g transform="translate(0.000000,1472.000000) scale(0.100000,-0.100000)"
fill="#000000" stroke="none">
<path d="M8220 12830 c0 -5 5 -10 11 -10 5 0 7 5 4 10 -3 6 -8 10 -11 10 -2 0
-4 -4 -4 -10z"/>
<path d="M8625 12750 c3 -5 11 -10 16 -10 6 0 7 5 4 10 -3 6 -11 10 -16 10 -6
0 -7 -4 -4 -10z"/>
<path d="M9910 12276 c0 -2 7 -7 16 -10 8 -3 12 -2 9 4 -6 10 -25 14 -25 6z"/>
<path d="M7320 11990 c0 -6 -65 -10 -174 -10 -106 0 -177 -4 -181 -10 -3 -6
-48 -10 -100 -10 -52 0 -97 -4 -100 -10 -3 -5 -30 -10 -60 -10 -30 0 -57 -4
-60 -10 -3 -5 -28 -10 -56 -10 -27 0 -49 -4 -49 -10 0 -5 -24 -10 -54 -10 -30
0 -58 -4 -61 -10 -3 -5 -18 -10 -32 -10 -15 0 -40 -4 -57 -9 -17 -5 -50 -14
-73 -20 -105 -27 -129 -34 -145 -42 -10 -5 -25 -9 -33 -9 -17 0 -260 -80 -316
-103 -19 -8 -59 -25 -89 -37 -151 -61 -387 -171 -472 -221 -38 -21 -101 -58
-140 -81 -116 -67 -325 -206 -428 -284 -95 -73 -129 -100 -257 -205 -106 -88
-528 -525 -558 -579 -5 -9 -25 -35 -43 -56 -98 -117 -213 -283 -334 -484 -73
-120 -241 -454 -289 -570 -12 -30 -28 -68 -35 -85 -14 -34 -36 -91 -68 -182
-12 -35 -25 -66 -29 -70 -4 -3 -7 -17 -7 -29 0 -13 -4 -26 -10 -29 -6 -3 -10
-21 -10 -40 0 -19 -4 -37 -10 -40 -5 -3 -10 -17 -10 -30 0 -13 -4 -27 -10 -30
-5 -3 -10 -24 -10 -46 0 -21 -4 -39 -10 -39 -5 0 -10 -18 -10 -40 0 -22 -4
-40 -10 -40 -5 0 -10 -18 -10 -40 0 -22 -4 -40 -10 -40 -5 0 -10 -20 -10 -44
0 -25 -4 -48 -10 -51 -5 -3 -10 -28 -10 -56 0 -27 -4 -49 -10 -49 -6 0 -10
-26 -10 -59 0 -33 -4 -63 -10 -66 -5 -3 -10 -39 -10 -80 0 -41 -4 -77 -10 -80
-6 -3 -10 -48 -10 -100 0 -52 -4 -97 -10 -100 -14 -8 -14 -602 0 -610 6 -3 10
-52 10 -110 0 -58 4 -107 10 -110 6 -3 10 -35 10 -70 0 -35 5 -67 10 -70 6 -3
10 -33 10 -66 0 -33 4 -59 10 -59 6 0 10 -24 10 -54 0 -30 5 -58 10 -61 6 -3
10 -21 10 -40 0 -19 4 -37 10 -40 5 -3 10 -26 10 -50 0 -24 5 -47 10 -50 6 -3
10 -21 10 -40 0 -19 5 -37 10 -40 5 -3 10 -17 10 -30 0 -13 5 -27 10 -30 6 -3
10 -21 10 -40 0 -19 5 -37 10 -40 6 -3 10 -19 10 -36 0 -16 5 -29 10 -29 6 0
10 -13 10 -30 0 -16 5 -30 10 -30 6 0 10 -13 10 -30 0 -16 5 -30 10 -30 6 0
10 -11 10 -24 0 -14 5 -28 10 -31 6 -3 10 -14 10 -24 0 -9 9 -36 20 -59 11
-22 20 -45 20 -50 0 -4 9 -27 20 -50 11 -22 20 -46 20 -51 0 -31 210 -442 296
-581 142 -227 144 -231 144 -271 0 -21 -4 -39 -10 -39 -5 0 -10 -18 -10 -40 0
-22 -4 -40 -10 -40 -5 0 -10 -15 -10 -34 0 -19 -5 -38 -10 -41 -5 -3 -10 -17
-10 -30 0 -13 -4 -27 -10 -30 -5 -3 -10 -21 -10 -40 0 -19 -4 -37 -10 -40 -5
-3 -10 -21 -10 -40 0 -19 -4 -37 -10 -40 -5 -3 -10 -19 -10 -35 0 -16 -4 -32
-10 -35 -5 -3 -10 -19 -10 -35 0 -16 -4 -32 -10 -35 -6 -3 -10 -19 -10 -36 0
-16 -4 -29 -10 -29 -5 0 -10 -18 -10 -40 0 -22 -4 -40 -10 -40 -5 0 -10 -15
-10 -34 0 -19 -4 -38 -10 -41 -5 -3 -10 -19 -10 -36 0 -16 -4 -29 -10 -29 -5
0 -10 -18 -10 -40 0 -22 -4 -40 -10 -40 -5 0 -10 -15 -10 -34 0 -19 -5 -38
-10 -41 -5 -3 -10 -19 -10 -35 0 -16 -4 -32 -10 -35 -6 -3 -10 -19 -10 -35 0
-16 -5 -32 -10 -35 -5 -3 -10 -21 -10 -40 0 -19 -4 -37 -10 -40 -6 -3 -10 -17
-10 -30 0 -13 -5 -27 -10 -30 -5 -3 -10 -21 -10 -40 0 -19 -4 -37 -10 -40 -6
-3 -10 -21 -10 -40 0 -19 -5 -37 -10 -40 -5 -3 -10 -17 -10 -30 0 -13 -4 -27
-10 -30 -6 -3 -10 -21 -10 -40 0 -19 -4 -37 -10 -40 -14 -9 -13 -58 2 -73 15
-15 54 -16 63 -2 3 6 21 10 40 10 19 0 37 5 40 10 3 6 23 10 44 10 21 0 41 3
45 7 12 12 80 33 109 33 15 0 35 4 45 9 29 14 87 31 110 31 11 0 24 5 27 10 3
6 21 10 40 10 19 0 37 4 40 10 3 5 21 10 40 10 19 0 37 4 40 10 3 5 19 10 36
10 16 0 37 4 47 9 31 16 88 31 115 31 15 0 27 5 27 10 0 6 18 10 40 10 22 0
40 5 40 10 0 6 15 10 34 10 19 0 38 5 41 10 3 6 19 10 35 10 16 0 32 5 35 10
3 6 19 10 35 10 16 0 32 5 35 10 3 6 21 10 40 10 19 0 37 5 40 10 3 6 21 10
40 10 19 0 37 5 40 10 3 6 21 10 40 10 19 0 37 5 40 10 3 6 18 10 32 10 27 0
84 16 115 31 10 5 31 9 48 9 16 0 30 5 30 10 0 15 37 12 73 -6 18 -9 75 -42
127 -74 91 -55 449 -235 595 -298 139 -61 421 -155 605 -202 25 -6 59 -16 76
-21 17 -5 47 -9 67 -9 20 0 39 -4 42 -10 3 -5 21 -10 40 -10 19 0 37 -4 40
-10 3 -5 26 -10 50 -10 24 0 47 -5 50 -10 3 -5 35 -10 70 -10 35 0 67 -4 70
-10 3 -5 44 -10 90 -10 46 0 87 -4 90 -10 4 -6 58 -10 129 -10 71 0 126 -4
132 -10 17 -17 651 3 669 21 5 5 44 9 87 9 45 0 78 4 78 10 0 6 28 10 64 10
36 0 68 5 71 10 3 6 28 10 56 10 27 0 49 5 49 10 0 6 23 10 50 10 28 0 50 5
50 10 0 6 18 10 40 10 22 0 40 5 40 10 0 6 15 10 34 10 19 0 38 5 41 10 3 6
21 10 40 10 19 0 37 5 40 10 3 6 22 10 41 10 19 0 42 4 52 9 30 15 64 28 167
60 55 17 120 40 145 50 25 10 70 29 100 41 48 19 125 53 260 113 19 9 47 23
63 32 66 37 87 48 167 90 119 63 295 172 414 257 118 85 342 261 371 292 11
11 54 50 95 86 107 93 249 234 311 310 29 36 70 83 90 105 113 124 345 442
423 580 9 17 35 59 56 95 43 70 208 399 258 515 34 77 58 143 104 280 17 50
34 98 39 107 5 10 9 27 9 37 0 11 5 23 10 26 6 3 10 21 10 40 0 19 5 37 10 40
6 3 10 17 10 30 0 13 5 27 10 30 6 3 10 21 10 40 0 19 5 37 10 40 6 3 10 26
10 50 0 24 5 47 10 50 6 3 10 21 10 40 0 19 5 37 10 40 6 3 10 26 10 50 0 24
4 47 10 50 6 3 10 30 10 60 0 30 5 57 10 60 6 3 10 35 10 70 0 35 5 67 10 70
6 3 10 44 10 90 0 46 4 87 10 90 14 8 14 742 0 750 -6 3 -10 48 -10 100 0 52
-4 97 -10 100 -5 3 -10 35 -10 70 0 35 -4 67 -10 70 -5 3 -10 30 -10 60 0 30
-4 57 -10 60 -5 3 -10 28 -10 56 0 27 -4 49 -10 49 -5 0 -10 20 -10 44 0 25
-4 48 -10 51 -5 3 -10 21 -10 40 0 19 -4 37 -10 40 -5 3 -10 21 -10 40 0 19
-4 37 -10 40 -5 3 -10 21 -10 40 0 19 -4 37 -10 40 -5 3 -10 19 -10 36 0 16
-4 29 -10 29 -5 0 -10 14 -10 30 0 17 -4 30 -10 30 -5 0 -10 11 -10 24 0 14
-4 28 -10 31 -5 3 -10 17 -10 30 0 13 -4 27 -10 30 -5 3 -10 15 -10 26 0 10
-4 27 -9 37 -4 9 -14 33 -21 52 -6 19 -21 58 -32 85 -11 28 -26 67 -34 87 -18
48 -201 409 -257 508 -94 165 -268 414 -396 570 -333 404 -632 677 -1033 942
-230 153 -210 141 -483 277 -290 144 -347 169 -495 220 -63 21 -128 43 -145
49 -61 22 -201 65 -237 73 -21 5 -57 14 -80 20 -24 5 -64 14 -90 20 -53 10
-121 24 -200 40 -86 17 -187 30 -278 35 -47 3 -89 10 -94 15 -6 5 -92 9 -193
9 -115 0 -183 4 -183 10 0 6 -27 10 -60 10 -33 0 -60 -4 -60 -10z m-1676
-1879 c3 -5 20 -11 38 -14 64 -11 113 -24 138 -37 48 -25 128 -95 156 -137 16
-24 32 -43 37 -43 4 0 7 -11 7 -24 0 -14 5 -28 10 -31 6 -3 10 -14 10 -24 0
-9 9 -36 20 -59 11 -22 20 -48 20 -56 0 -8 5 -18 10 -21 6 -3 10 -15 10 -25 0
-11 9 -35 20 -55 11 -20 20 -47 20 -60 0 -14 5 -25 10 -25 6 0 10 -13 10 -30
0 -16 5 -30 10 -30 6 0 10 -9 10 -20 0 -11 9 -35 20 -55 11 -20 20 -44 20 -55
0 -10 5 -22 10 -25 6 -3 10 -17 10 -30 0 -13 5 -27 10 -30 6 -3 10 -15 10 -25
0 -11 9 -35 20 -55 11 -20 20 -47 20 -60 0 -14 5 -25 10 -25 6 0 10 -9 10 -20
0 -11 9 -35 20 -55 11 -20 20 -44 20 -55 0 -10 5 -22 10 -25 6 -3 10 -15 10
-25 0 -11 9 -35 20 -55 11 -20 20 -44 20 -55 0 -10 5 -22 10 -25 6 -3 10 -17
10 -30 0 -13 5 -27 10 -30 24 -15 9 -86 -35 -173 -47 -93 -62 -112 -195 -257
-210 -229 -260 -309 -260 -416 0 -49 5 -70 26 -103 14 -22 50 -83 80 -135 93
-159 301 -457 402 -576 9 -11 51 -61 93 -110 156 -184 428 -419 669 -579 232
-154 245 -162 505 -302 44 -24 105 -50 135 -59 30 -9 69 -20 86 -26 51 -15
102 -10 152 16 56 29 67 38 111 90 18 22 59 67 90 100 31 33 85 94 121 135 36
41 71 82 79 90 8 8 50 60 94 115 85 107 123 144 148 145 8 0 20 5 27 12 9 9
15 9 24 0 7 -7 26 -12 43 -12 16 0 49 -7 72 -15 90 -31 765 -382 1165 -605
105 -58 118 -82 118 -205 0 -52 -4 -97 -10 -100 -5 -3 -10 -30 -10 -60 0 -30
-4 -57 -10 -60 -5 -3 -10 -24 -10 -45 0 -21 -4 -42 -10 -45 -5 -3 -10 -21 -10
-40 0 -19 -4 -37 -10 -40 -5 -3 -10 -15 -10 -25 0 -20 -20 -70 -73 -180 -55
-115 -222 -271 -407 -382 -131 -79 -201 -112 -340 -158 -99 -33 -125 -40 -148
-40 -11 0 -24 -4 -27 -10 -3 -5 -34 -10 -69 -10 -34 0 -67 -5 -73 -11 -6 -6
-54 -8 -134 -5 -171 7 -297 23 -426 55 -24 6 -60 15 -80 20 -46 10 -265 83
-313 104 -19 8 -60 25 -90 37 -67 27 -166 70 -280 120 -47 21 -119 52 -160 70
-153 66 -455 217 -534 267 -362 230 -578 400 -874 688 -122 118 -174 174 -370
398 -123 140 -237 287 -433 558 -26 36 -60 87 -77 115 -16 29 -76 121 -133
205 -57 85 -122 188 -146 229 -53 93 -224 436 -253 510 -12 30 -26 63 -31 72
-5 10 -9 27 -9 37 0 11 -4 23 -10 26 -5 3 -10 17 -10 30 0 13 -4 27 -10 30 -5
3 -10 21 -10 40 0 19 -4 37 -10 40 -5 3 -10 21 -10 40 0 19 -4 37 -10 40 -5 3
-10 25 -10 49 0 23 -4 46 -9 52 -19 19 -39 430 -22 447 6 6 11 44 11 83 0 40
5 76 10 79 6 3 10 21 10 40 0 19 5 37 10 40 6 3 10 19 10 36 0 16 4 37 10 47
5 9 21 52 35 95 31 94 109 250 167 334 208 297 383 432 593 460 22 3 44 9 50
14 12 12 202 12 209 0z"/>
<path d="M4180 11869 c0 -5 5 -7 10 -4 6 3 10 8 10 11 0 2 -4 4 -10 4 -5 0
-10 -5 -10 -11z"/>
<path d="M10885 11630 c3 -5 8 -10 11 -10 2 0 4 5 4 10 0 6 -5 10 -11 10 -5 0
-7 -4 -4 -10z"/>
<path d="M3765 11550 c-3 -6 1 -7 9 -4 18 7 21 14 7 14 -6 0 -13 -4 -16 -10z"/>
<path d="M3671 11458 c-14 -23 -14 -23 8 -4 22 20 25 26 13 26 -4 0 -13 -10
-21 -22z"/>
<path d="M11905 10510 c3 -5 8 -10 11 -10 2 0 4 5 4 10 0 6 -5 10 -11 10 -5 0
-7 -4 -4 -10z"/>
<path d="M1960 8289 c0 -5 5 -7 10 -4 6 3 10 8 10 11 0 2 -4 4 -10 4 -5 0 -10
-5 -10 -11z"/>
<path d="M12820 8054 c0 -8 5 -12 10 -9 6 4 8 11 5 16 -9 14 -15 11 -15 -7z"/>
<path d="M1925 6830 c-3 -5 -1 -10 4 -10 6 0 11 5 11 10 0 6 -2 10 -4 10 -3 0
-8 -4 -11 -10z"/>
<path d="M12740 6289 c0 -5 5 -7 10 -4 6 3 10 8 10 11 0 2 -4 4 -10 4 -5 0
-10 -5 -10 -11z"/>
<path d="M12700 6109 c0 -5 5 -7 10 -4 6 3 10 8 10 11 0 2 -4 4 -10 4 -5 0
-10 -5 -10 -11z"/>
<path d="M12380 5149 c0 -5 5 -7 10 -4 6 3 10 8 10 11 0 2 -4 4 -10 4 -5 0
-10 -5 -10 -11z"/>
<path d="M2560 4450 c0 -5 5 -10 10 -10 6 0 10 5 10 10 0 6 -4 10 -10 10 -5 0
-10 -4 -10 -10z"/>
<path d="M11814 4178 l-19 -23 23 19 c21 18 27 26 19 26 -2 0 -12 -10 -23 -22z"/>
<path d="M11340 3609 c0 -5 5 -7 10 -4 6 3 10 8 10 11 0 2 -4 4 -10 4 -5 0
-10 -5 -10 -11z"/>
<path d="M11260 3529 c0 -5 5 -7 10 -4 6 3 10 8 10 11 0 2 -4 4 -10 4 -5 0
-10 -5 -10 -11z"/>
<path d="M11180 3449 c0 -5 5 -7 10 -4 6 3 10 8 10 11 0 2 -4 4 -10 4 -5 0
-10 -5 -10 -11z"/>
<path d="M4720 2589 c0 -5 5 -7 10 -4 6 3 10 8 10 11 0 2 -4 4 -10 4 -5 0 -10
-5 -10 -11z"/>
<path d="M2040 2529 c0 -5 5 -7 10 -4 6 3 10 8 10 11 0 2 -4 4 -10 4 -5 0 -10
-5 -10 -11z"/>
<path d="M1960 2229 c0 -5 5 -7 10 -4 6 3 10 8 10 11 0 2 -4 4 -10 4 -5 0 -10
-5 -10 -11z"/>
<path d="M1880 1949 c0 -5 5 -7 10 -4 6 3 10 8 10 11 0 2 -4 4 -10 4 -5 0 -10
-5 -10 -11z"/>
</g>
</svg>
