<svg width="50" height="48" viewBox="0 0 50 48" fill="none" xmlns="http://www.w3.org/2000/svg">
<path d="M25.1594 5.99701H25.4375C28.0063 6.00601 41.0219 6.09601 44.5312 7.00201C45.5922 7.27852 46.5589 7.81748 47.3349 8.56503C48.1108 9.31259 48.6688 10.2426 48.9531 11.262C49.2687 12.402 49.4906 13.911 49.6406 15.468L49.6719 15.78L49.7406 16.56L49.7656 16.872C49.9688 19.614 49.9937 22.182 49.9969 22.743V22.968C49.9937 23.55 49.9656 26.292 49.7406 29.148L49.7156 29.463L49.6875 29.775C49.5312 31.491 49.3 33.195 48.9531 34.449C48.6688 35.4685 48.1108 36.3984 47.3349 37.146C46.5589 37.8935 45.5922 38.4325 44.5312 38.709C40.9062 39.645 27.1281 39.711 25.2188 39.714H24.775C23.8094 39.714 19.8156 39.696 15.6281 39.558L15.0969 39.54L14.825 39.528L14.2906 39.507L13.7562 39.486C10.2875 39.339 6.98438 39.102 5.4625 38.706C4.40196 38.4298 3.43547 37.8913 2.65953 37.1443C1.8836 36.3973 1.32539 35.4679 1.04062 34.449C0.69375 33.198 0.4625 31.491 0.30625 29.775L0.28125 29.46L0.25625 29.148C0.101136 27.1153 0.0156729 25.0782 0 23.04L0 22.671C0.00625 22.026 0.03125 19.797 0.2 17.337L0.221875 17.028L0.23125 16.872L0.25625 16.56L0.325 15.78L0.35625 15.468C0.50625 13.911 0.728125 12.399 1.04375 11.262C1.32803 10.2426 1.88604 9.31259 2.662 8.56503C3.43796 7.81748 4.40471 7.27852 5.46562 7.00201C6.9875 6.61201 10.2906 6.37201 13.7594 6.22201L14.2906 6.20101L14.8281 6.18301L15.0969 6.17401L15.6312 6.15301C18.6053 6.06122 21.5806 6.01021 24.5562 6.00001L25.1594 5.99701ZM20 15.627V30.081L32.9906 22.857L20 15.627Z" fill="white"/>
</svg>
